ISO-10303-21;
HEADER;
/* Generated by software containing ST-Developer
 * from STEP Tools, Inc. (www.steptools.com) 
 */

FILE_DESCRIPTION(
/* description */ (''),
/* implementation_level */ '2;1');

FILE_NAME(
/* name */ 'stator_center_01_back_p.stp',
/* time_stamp */ '2026-05-01T16:40:53-07:00',
/* author */ ('aaron'),
/* organization */ (''),
/* preprocessor_version */ 'ST-DEVELOPER v20.1',
/* originating_system */ 'Autodesk Inventor 2026',
/* authorisation */ '');

FILE_SCHEMA (('AUTOMOTIVE_DESIGN { 1 0 10303 214 3 1 1 }'));
ENDSEC;

DATA;
#10=MECHANICAL_DESIGN_GEOMETRIC_PRESENTATION_REPRESENTATION('',(#13),#839);
#11=SHAPE_REPRESENTATION_RELATIONSHIP('SRR','None',#846,#12);
#12=ADVANCED_BREP_SHAPE_REPRESENTATION('',(#14),#838);
#13=STYLED_ITEM('',(#855),#14);
#14=MANIFOLD_SOLID_BREP('Solid1',#482);
#15=FACE_BOUND('',#92,.T.);
#16=FACE_BOUND('',#93,.T.);
#17=FACE_BOUND('',#94,.T.);
#18=FACE_BOUND('',#95,.T.);
#19=FACE_BOUND('',#96,.T.);
#20=FACE_BOUND('',#97,.T.);
#21=FACE_BOUND('',#98,.T.);
#22=FACE_BOUND('',#99,.T.);
#23=FACE_BOUND('',#100,.T.);
#24=FACE_BOUND('',#101,.T.);
#25=FACE_BOUND('',#102,.T.);
#26=FACE_BOUND('',#103,.T.);
#27=FACE_BOUND('',#104,.T.);
#28=FACE_BOUND('',#106,.T.);
#29=FACE_BOUND('',#107,.T.);
#30=FACE_BOUND('',#108,.T.);
#31=FACE_BOUND('',#109,.T.);
#32=FACE_BOUND('',#110,.T.);
#33=FACE_BOUND('',#111,.T.);
#34=FACE_BOUND('',#112,.T.);
#35=FACE_BOUND('',#113,.T.);
#36=FACE_BOUND('',#114,.T.);
#37=FACE_BOUND('',#115,.T.);
#38=FACE_BOUND('',#116,.T.);
#39=FACE_BOUND('',#117,.T.);
#40=FACE_BOUND('',#118,.T.);
#41=PLANE('',#547);
#42=PLANE('',#551);
#43=PLANE('',#555);
#44=PLANE('',#559);
#45=PLANE('',#560);
#46=PLANE('',#561);
#47=FACE_OUTER_BOUND('',#70,.T.);
#48=FACE_OUTER_BOUND('',#71,.T.);
#49=FACE_OUTER_BOUND('',#72,.T.);
#50=FACE_OUTER_BOUND('',#73,.T.);
#51=FACE_OUTER_BOUND('',#74,.T.);
#52=FACE_OUTER_BOUND('',#75,.T.);
#53=FACE_OUTER_BOUND('',#76,.T.);
#54=FACE_OUTER_BOUND('',#77,.T.);
#55=FACE_OUTER_BOUND('',#78,.T.);
#56=FACE_OUTER_BOUND('',#79,.T.);
#57=FACE_OUTER_BOUND('',#80,.T.);
#58=FACE_OUTER_BOUND('',#81,.T.);
#59=FACE_OUTER_BOUND('',#82,.T.);
#60=FACE_OUTER_BOUND('',#83,.T.);
#61=FACE_OUTER_BOUND('',#84,.T.);
#62=FACE_OUTER_BOUND('',#85,.T.);
#63=FACE_OUTER_BOUND('',#86,.T.);
#64=FACE_OUTER_BOUND('',#87,.T.);
#65=FACE_OUTER_BOUND('',#88,.T.);
#66=FACE_OUTER_BOUND('',#89,.T.);
#67=FACE_OUTER_BOUND('',#90,.T.);
#68=FACE_OUTER_BOUND('',#91,.T.);
#69=FACE_OUTER_BOUND('',#105,.T.);
#70=EDGE_LOOP('',(#316,#317,#318,#319));
#71=EDGE_LOOP('',(#320,#321,#322,#323));
#72=EDGE_LOOP('',(#324,#325,#326,#327));
#73=EDGE_LOOP('',(#328,#329,#330,#331));
#74=EDGE_LOOP('',(#332,#333,#334,#335));
#75=EDGE_LOOP('',(#336,#337,#338,#339));
#76=EDGE_LOOP('',(#340,#341,#342,#343));
#77=EDGE_LOOP('',(#344,#345,#346,#347));
#78=EDGE_LOOP('',(#348,#349,#350,#351));
#79=EDGE_LOOP('',(#352,#353,#354,#355));
#80=EDGE_LOOP('',(#356,#357,#358,#359));
#81=EDGE_LOOP('',(#360,#361,#362,#363));
#82=EDGE_LOOP('',(#364,#365,#366,#367));
#83=EDGE_LOOP('',(#368,#369,#370,#371));
#84=EDGE_LOOP('',(#372,#373,#374,#375));
#85=EDGE_LOOP('',(#376,#377,#378,#379));
#86=EDGE_LOOP('',(#380,#381,#382,#383));
#87=EDGE_LOOP('',(#384,#385,#386,#387));
#88=EDGE_LOOP('',(#388,#389,#390,#391));
#89=EDGE_LOOP('',(#392,#393,#394,#395));
#90=EDGE_LOOP('',(#396,#397,#398,#399));
#91=EDGE_LOOP('',(#400,#401,#402,#403,#404,#405,#406,#407));
#92=EDGE_LOOP('',(#408));
#93=EDGE_LOOP('',(#409));
#94=EDGE_LOOP('',(#410));
#95=EDGE_LOOP('',(#411));
#96=EDGE_LOOP('',(#412));
#97=EDGE_LOOP('',(#413));
#98=EDGE_LOOP('',(#414));
#99=EDGE_LOOP('',(#415));
#100=EDGE_LOOP('',(#416));
#101=EDGE_LOOP('',(#417));
#102=EDGE_LOOP('',(#418));
#103=EDGE_LOOP('',(#419));
#104=EDGE_LOOP('',(#420));
#105=EDGE_LOOP('',(#421,#422,#423,#424,#425,#426,#427,#428));
#106=EDGE_LOOP('',(#429));
#107=EDGE_LOOP('',(#430));
#108=EDGE_LOOP('',(#431));
#109=EDGE_LOOP('',(#432));
#110=EDGE_LOOP('',(#433));
#111=EDGE_LOOP('',(#434));
#112=EDGE_LOOP('',(#435));
#113=EDGE_LOOP('',(#436));
#114=EDGE_LOOP('',(#437));
#115=EDGE_LOOP('',(#438));
#116=EDGE_LOOP('',(#439));
#117=EDGE_LOOP('',(#440));
#118=EDGE_LOOP('',(#441));
#119=LINE('',#712,#148);
#120=LINE('',#718,#149);
#121=LINE('',#724,#150);
#122=LINE('',#730,#151);
#123=LINE('',#736,#152);
#124=LINE('',#742,#153);
#125=LINE('',#748,#154);
#126=LINE('',#754,#155);
#127=LINE('',#760,#156);
#128=LINE('',#766,#157);
#129=LINE('',#772,#158);
#130=LINE('',#778,#159);
#131=LINE('',#784,#160);
#132=LINE('',#791,#161);
#133=LINE('',#794,#162);
#134=LINE('',#797,#163);
#135=LINE('',#799,#164);
#136=LINE('',#800,#165);
#137=LINE('',#806,#166);
#138=LINE('',#809,#167);
#139=LINE('',#811,#168);
#140=LINE('',#812,#169);
#141=LINE('',#818,#170);
#142=LINE('',#821,#171);
#143=LINE('',#823,#172);
#144=LINE('',#824,#173);
#145=LINE('',#830,#174);
#146=LINE('',#832,#175);
#147=LINE('',#833,#176);
#148=VECTOR('',#568,2.15);
#149=VECTOR('',#575,2.15);
#150=VECTOR('',#582,2.65);
#151=VECTOR('',#589,2.15);
#152=VECTOR('',#596,2.15);
#153=VECTOR('',#603,2.65);
#154=VECTOR('',#610,2.15);
#155=VECTOR('',#617,2.65);
#156=VECTOR('',#624,2.15);
#157=VECTOR('',#631,2.15);
#158=VECTOR('',#638,2.65);
#159=VECTOR('',#645,2.15);
#160=VECTOR('',#652,57.5);
#161=VECTOR('',#659,10.);
#162=VECTOR('',#662,10.);
#163=VECTOR('',#665,10.);
#164=VECTOR('',#666,10.);
#165=VECTOR('',#667,10.);
#166=VECTOR('',#674,10.);
#167=VECTOR('',#677,10.);
#168=VECTOR('',#678,10.);
#169=VECTOR('',#679,10.);
#170=VECTOR('',#686,10.);
#171=VECTOR('',#689,10.);
#172=VECTOR('',#690,10.);
#173=VECTOR('',#691,10.);
#174=VECTOR('',#698,10.);
#175=VECTOR('',#701,10.);
#176=VECTOR('',#702,10.);
#177=CIRCLE('',#506,2.15);
#178=CIRCLE('',#507,2.15);
#179=CIRCLE('',#509,2.15);
#180=CIRCLE('',#510,2.15);
#181=CIRCLE('',#512,2.65);
#182=CIRCLE('',#513,2.65);
#183=CIRCLE('',#515,2.15);
#184=CIRCLE('',#516,2.15);
#185=CIRCLE('',#518,2.15);
#186=CIRCLE('',#519,2.15);
#187=CIRCLE('',#521,2.65);
#188=CIRCLE('',#522,2.65);
#189=CIRCLE('',#524,2.15);
#190=CIRCLE('',#525,2.15);
#191=CIRCLE('',#527,2.65);
#192=CIRCLE('',#528,2.65);
#193=CIRCLE('',#530,2.15);
#194=CIRCLE('',#531,2.15);
#195=CIRCLE('',#533,2.15);
#196=CIRCLE('',#534,2.15);
#197=CIRCLE('',#536,2.65);
#198=CIRCLE('',#537,2.65);
#199=CIRCLE('',#539,2.15);
#200=CIRCLE('',#540,2.15);
#201=CIRCLE('',#542,57.5);
#202=CIRCLE('',#543,57.5);
#203=CIRCLE('',#545,20.);
#204=CIRCLE('',#546,20.);
#205=CIRCLE('',#549,20.);
#206=CIRCLE('',#550,20.);
#207=CIRCLE('',#553,19.9999999999999);
#208=CIRCLE('',#554,19.9999999999999);
#209=CIRCLE('',#557,20.);
#210=CIRCLE('',#558,20.);
#211=VERTEX_POINT('',#709);
#212=VERTEX_POINT('',#711);
#213=VERTEX_POINT('',#715);
#214=VERTEX_POINT('',#717);
#215=VERTEX_POINT('',#721);
#216=VERTEX_POINT('',#723);
#217=VERTEX_POINT('',#727);
#218=VERTEX_POINT('',#729);
#219=VERTEX_POINT('',#733);
#220=VERTEX_POINT('',#735);
#221=VERTEX_POINT('',#739);
#222=VERTEX_POINT('',#741);
#223=VERTEX_POINT('',#745);
#224=VERTEX_POINT('',#747);
#225=VERTEX_POINT('',#751);
#226=VERTEX_POINT('',#753);
#227=VERTEX_POINT('',#757);
#228=VERTEX_POINT('',#759);
#229=VERTEX_POINT('',#763);
#230=VERTEX_POINT('',#765);
#231=VERTEX_POINT('',#769);
#232=VERTEX_POINT('',#771);
#233=VERTEX_POINT('',#775);
#234=VERTEX_POINT('',#777);
#235=VERTEX_POINT('',#781);
#236=VERTEX_POINT('',#783);
#237=VERTEX_POINT('',#787);
#238=VERTEX_POINT('',#788);
#239=VERTEX_POINT('',#790);
#240=VERTEX_POINT('',#792);
#241=VERTEX_POINT('',#796);
#242=VERTEX_POINT('',#798);
#243=VERTEX_POINT('',#802);
#244=VERTEX_POINT('',#804);
#245=VERTEX_POINT('',#808);
#246=VERTEX_POINT('',#810);
#247=VERTEX_POINT('',#814);
#248=VERTEX_POINT('',#816);
#249=VERTEX_POINT('',#820);
#250=VERTEX_POINT('',#822);
#251=VERTEX_POINT('',#826);
#252=VERTEX_POINT('',#828);
#253=EDGE_CURVE('',#211,#211,#177,.T.);
#254=EDGE_CURVE('',#211,#212,#119,.T.);
#255=EDGE_CURVE('',#212,#212,#178,.T.);
#256=EDGE_CURVE('',#213,#213,#179,.T.);
#257=EDGE_CURVE('',#213,#214,#120,.T.);
#258=EDGE_CURVE('',#214,#214,#180,.T.);
#259=EDGE_CURVE('',#215,#215,#181,.T.);
#260=EDGE_CURVE('',#215,#216,#121,.T.);
#261=EDGE_CURVE('',#216,#216,#182,.T.);
#262=EDGE_CURVE('',#217,#217,#183,.T.);
#263=EDGE_CURVE('',#217,#218,#122,.T.);
#264=EDGE_CURVE('',#218,#218,#184,.T.);
#265=EDGE_CURVE('',#219,#219,#185,.T.);
#266=EDGE_CURVE('',#219,#220,#123,.T.);
#267=EDGE_CURVE('',#220,#220,#186,.T.);
#268=EDGE_CURVE('',#221,#221,#187,.T.);
#269=EDGE_CURVE('',#221,#222,#124,.T.);
#270=EDGE_CURVE('',#222,#222,#188,.T.);
#271=EDGE_CURVE('',#223,#223,#189,.T.);
#272=EDGE_CURVE('',#223,#224,#125,.T.);
#273=EDGE_CURVE('',#224,#224,#190,.T.);
#274=EDGE_CURVE('',#225,#225,#191,.T.);
#275=EDGE_CURVE('',#225,#226,#126,.T.);
#276=EDGE_CURVE('',#226,#226,#192,.T.);
#277=EDGE_CURVE('',#227,#227,#193,.T.);
#278=EDGE_CURVE('',#227,#228,#127,.T.);
#279=EDGE_CURVE('',#228,#228,#194,.T.);
#280=EDGE_CURVE('',#229,#229,#195,.T.);
#281=EDGE_CURVE('',#229,#230,#128,.T.);
#282=EDGE_CURVE('',#230,#230,#196,.T.);
#283=EDGE_CURVE('',#231,#231,#197,.T.);
#284=EDGE_CURVE('',#231,#232,#129,.T.);
#285=EDGE_CURVE('',#232,#232,#198,.T.);
#286=EDGE_CURVE('',#233,#233,#199,.T.);
#287=EDGE_CURVE('',#233,#234,#130,.T.);
#288=EDGE_CURVE('',#234,#234,#200,.T.);
#289=EDGE_CURVE('',#235,#235,#201,.T.);
#290=EDGE_CURVE('',#235,#236,#131,.T.);
#291=EDGE_CURVE('',#236,#236,#202,.T.);
#292=EDGE_CURVE('',#237,#238,#203,.T.);
#293=EDGE_CURVE('',#238,#239,#132,.T.);
#294=EDGE_CURVE('',#240,#239,#204,.T.);
#295=EDGE_CURVE('',#237,#240,#133,.T.);
#296=EDGE_CURVE('',#241,#237,#134,.T.);
#297=EDGE_CURVE('',#242,#240,#135,.T.);
#298=EDGE_CURVE('',#241,#242,#136,.T.);
#299=EDGE_CURVE('',#243,#241,#205,.T.);
#300=EDGE_CURVE('',#244,#242,#206,.T.);
#301=EDGE_CURVE('',#243,#244,#137,.T.);
#302=EDGE_CURVE('',#245,#243,#138,.T.);
#303=EDGE_CURVE('',#246,#244,#139,.T.);
#304=EDGE_CURVE('',#245,#246,#140,.T.);
#305=EDGE_CURVE('',#247,#245,#207,.T.);
#306=EDGE_CURVE('',#248,#246,#208,.T.);
#307=EDGE_CURVE('',#247,#248,#141,.T.);
#308=EDGE_CURVE('',#249,#247,#142,.T.);
#309=EDGE_CURVE('',#250,#248,#143,.T.);
#310=EDGE_CURVE('',#249,#250,#144,.T.);
#311=EDGE_CURVE('',#251,#249,#209,.T.);
#312=EDGE_CURVE('',#252,#250,#210,.T.);
#313=EDGE_CURVE('',#251,#252,#145,.T.);
#314=EDGE_CURVE('',#238,#251,#146,.T.);
#315=EDGE_CURVE('',#239,#252,#147,.T.);
#316=ORIENTED_EDGE('',*,*,#253,.F.);
#317=ORIENTED_EDGE('',*,*,#254,.T.);
#318=ORIENTED_EDGE('',*,*,#255,.F.);
#319=ORIENTED_EDGE('',*,*,#254,.F.);
#320=ORIENTED_EDGE('',*,*,#256,.F.);
#321=ORIENTED_EDGE('',*,*,#257,.T.);
#322=ORIENTED_EDGE('',*,*,#258,.F.);
#323=ORIENTED_EDGE('',*,*,#257,.F.);
#324=ORIENTED_EDGE('',*,*,#259,.F.);
#325=ORIENTED_EDGE('',*,*,#260,.T.);
#326=ORIENTED_EDGE('',*,*,#261,.F.);
#327=ORIENTED_EDGE('',*,*,#260,.F.);
#328=ORIENTED_EDGE('',*,*,#262,.F.);
#329=ORIENTED_EDGE('',*,*,#263,.T.);
#330=ORIENTED_EDGE('',*,*,#264,.F.);
#331=ORIENTED_EDGE('',*,*,#263,.F.);
#332=ORIENTED_EDGE('',*,*,#265,.F.);
#333=ORIENTED_EDGE('',*,*,#266,.T.);
#334=ORIENTED_EDGE('',*,*,#267,.F.);
#335=ORIENTED_EDGE('',*,*,#266,.F.);
#336=ORIENTED_EDGE('',*,*,#268,.F.);
#337=ORIENTED_EDGE('',*,*,#269,.T.);
#338=ORIENTED_EDGE('',*,*,#270,.F.);
#339=ORIENTED_EDGE('',*,*,#269,.F.);
#340=ORIENTED_EDGE('',*,*,#271,.F.);
#341=ORIENTED_EDGE('',*,*,#272,.T.);
#342=ORIENTED_EDGE('',*,*,#273,.F.);
#343=ORIENTED_EDGE('',*,*,#272,.F.);
#344=ORIENTED_EDGE('',*,*,#274,.F.);
#345=ORIENTED_EDGE('',*,*,#275,.T.);
#346=ORIENTED_EDGE('',*,*,#276,.F.);
#347=ORIENTED_EDGE('',*,*,#275,.F.);
#348=ORIENTED_EDGE('',*,*,#277,.F.);
#349=ORIENTED_EDGE('',*,*,#278,.T.);
#350=ORIENTED_EDGE('',*,*,#279,.F.);
#351=ORIENTED_EDGE('',*,*,#278,.F.);
#352=ORIENTED_EDGE('',*,*,#280,.F.);
#353=ORIENTED_EDGE('',*,*,#281,.T.);
#354=ORIENTED_EDGE('',*,*,#282,.F.);
#355=ORIENTED_EDGE('',*,*,#281,.F.);
#356=ORIENTED_EDGE('',*,*,#283,.F.);
#357=ORIENTED_EDGE('',*,*,#284,.T.);
#358=ORIENTED_EDGE('',*,*,#285,.F.);
#359=ORIENTED_EDGE('',*,*,#284,.F.);
#360=ORIENTED_EDGE('',*,*,#286,.F.);
#361=ORIENTED_EDGE('',*,*,#287,.T.);
#362=ORIENTED_EDGE('',*,*,#288,.F.);
#363=ORIENTED_EDGE('',*,*,#287,.F.);
#364=ORIENTED_EDGE('',*,*,#289,.F.);
#365=ORIENTED_EDGE('',*,*,#290,.T.);
#366=ORIENTED_EDGE('',*,*,#291,.T.);
#367=ORIENTED_EDGE('',*,*,#290,.F.);
#368=ORIENTED_EDGE('',*,*,#292,.T.);
#369=ORIENTED_EDGE('',*,*,#293,.T.);
#370=ORIENTED_EDGE('',*,*,#294,.F.);
#371=ORIENTED_EDGE('',*,*,#295,.F.);
#372=ORIENTED_EDGE('',*,*,#296,.T.);
#373=ORIENTED_EDGE('',*,*,#295,.T.);
#374=ORIENTED_EDGE('',*,*,#297,.F.);
#375=ORIENTED_EDGE('',*,*,#298,.F.);
#376=ORIENTED_EDGE('',*,*,#299,.T.);
#377=ORIENTED_EDGE('',*,*,#298,.T.);
#378=ORIENTED_EDGE('',*,*,#300,.F.);
#379=ORIENTED_EDGE('',*,*,#301,.F.);
#380=ORIENTED_EDGE('',*,*,#302,.T.);
#381=ORIENTED_EDGE('',*,*,#301,.T.);
#382=ORIENTED_EDGE('',*,*,#303,.F.);
#383=ORIENTED_EDGE('',*,*,#304,.F.);
#384=ORIENTED_EDGE('',*,*,#305,.T.);
#385=ORIENTED_EDGE('',*,*,#304,.T.);
#386=ORIENTED_EDGE('',*,*,#306,.F.);
#387=ORIENTED_EDGE('',*,*,#307,.F.);
#388=ORIENTED_EDGE('',*,*,#308,.T.);
#389=ORIENTED_EDGE('',*,*,#307,.T.);
#390=ORIENTED_EDGE('',*,*,#309,.F.);
#391=ORIENTED_EDGE('',*,*,#310,.F.);
#392=ORIENTED_EDGE('',*,*,#311,.T.);
#393=ORIENTED_EDGE('',*,*,#310,.T.);
#394=ORIENTED_EDGE('',*,*,#312,.F.);
#395=ORIENTED_EDGE('',*,*,#313,.F.);
#396=ORIENTED_EDGE('',*,*,#314,.T.);
#397=ORIENTED_EDGE('',*,*,#313,.T.);
#398=ORIENTED_EDGE('',*,*,#315,.F.);
#399=ORIENTED_EDGE('',*,*,#293,.F.);
#400=ORIENTED_EDGE('',*,*,#315,.T.);
#401=ORIENTED_EDGE('',*,*,#312,.T.);
#402=ORIENTED_EDGE('',*,*,#309,.T.);
#403=ORIENTED_EDGE('',*,*,#306,.T.);
#404=ORIENTED_EDGE('',*,*,#303,.T.);
#405=ORIENTED_EDGE('',*,*,#300,.T.);
#406=ORIENTED_EDGE('',*,*,#297,.T.);
#407=ORIENTED_EDGE('',*,*,#294,.T.);
#408=ORIENTED_EDGE('',*,*,#253,.T.);
#409=ORIENTED_EDGE('',*,*,#256,.T.);
#410=ORIENTED_EDGE('',*,*,#259,.T.);
#411=ORIENTED_EDGE('',*,*,#262,.T.);
#412=ORIENTED_EDGE('',*,*,#265,.T.);
#413=ORIENTED_EDGE('',*,*,#268,.T.);
#414=ORIENTED_EDGE('',*,*,#271,.T.);
#415=ORIENTED_EDGE('',*,*,#274,.T.);
#416=ORIENTED_EDGE('',*,*,#277,.T.);
#417=ORIENTED_EDGE('',*,*,#280,.T.);
#418=ORIENTED_EDGE('',*,*,#283,.T.);
#419=ORIENTED_EDGE('',*,*,#286,.T.);
#420=ORIENTED_EDGE('',*,*,#289,.T.);
#421=ORIENTED_EDGE('',*,*,#314,.F.);
#422=ORIENTED_EDGE('',*,*,#292,.F.);
#423=ORIENTED_EDGE('',*,*,#296,.F.);
#424=ORIENTED_EDGE('',*,*,#299,.F.);
#425=ORIENTED_EDGE('',*,*,#302,.F.);
#426=ORIENTED_EDGE('',*,*,#305,.F.);
#427=ORIENTED_EDGE('',*,*,#308,.F.);
#428=ORIENTED_EDGE('',*,*,#311,.F.);
#429=ORIENTED_EDGE('',*,*,#255,.T.);
#430=ORIENTED_EDGE('',*,*,#258,.T.);
#431=ORIENTED_EDGE('',*,*,#261,.T.);
#432=ORIENTED_EDGE('',*,*,#264,.T.);
#433=ORIENTED_EDGE('',*,*,#267,.T.);
#434=ORIENTED_EDGE('',*,*,#270,.T.);
#435=ORIENTED_EDGE('',*,*,#273,.T.);
#436=ORIENTED_EDGE('',*,*,#276,.T.);
#437=ORIENTED_EDGE('',*,*,#279,.T.);
#438=ORIENTED_EDGE('',*,*,#282,.T.);
#439=ORIENTED_EDGE('',*,*,#285,.T.);
#440=ORIENTED_EDGE('',*,*,#288,.T.);
#441=ORIENTED_EDGE('',*,*,#291,.F.);
#442=CYLINDRICAL_SURFACE('',#505,2.15);
#443=CYLINDRICAL_SURFACE('',#508,2.15);
#444=CYLINDRICAL_SURFACE('',#511,2.65);
#445=CYLINDRICAL_SURFACE('',#514,2.15);
#446=CYLINDRICAL_SURFACE('',#517,2.15);
#447=CYLINDRICAL_SURFACE('',#520,2.65);
#448=CYLINDRICAL_SURFACE('',#523,2.15);
#449=CYLINDRICAL_SURFACE('',#526,2.65);
#450=CYLINDRICAL_SURFACE('',#529,2.15);
#451=CYLINDRICAL_SURFACE('',#532,2.15);
#452=CYLINDRICAL_SURFACE('',#535,2.65);
#453=CYLINDRICAL_SURFACE('',#538,2.15);
#454=CYLINDRICAL_SURFACE('',#541,57.5);
#455=CYLINDRICAL_SURFACE('',#544,20.);
#456=CYLINDRICAL_SURFACE('',#548,20.);
#457=CYLINDRICAL_SURFACE('',#552,19.9999999999999);
#458=CYLINDRICAL_SURFACE('',#556,20.);
#459=ADVANCED_FACE('',(#47),#442,.F.);
#460=ADVANCED_FACE('',(#48),#443,.F.);
#461=ADVANCED_FACE('',(#49),#444,.F.);
#462=ADVANCED_FACE('',(#50),#445,.F.);
#463=ADVANCED_FACE('',(#51),#446,.F.);
#464=ADVANCED_FACE('',(#52),#447,.F.);
#465=ADVANCED_FACE('',(#53),#448,.F.);
#466=ADVANCED_FACE('',(#54),#449,.F.);
#467=ADVANCED_FACE('',(#55),#450,.F.);
#468=ADVANCED_FACE('',(#56),#451,.F.);
#469=ADVANCED_FACE('',(#57),#452,.F.);
#470=ADVANCED_FACE('',(#58),#453,.F.);
#471=ADVANCED_FACE('',(#59),#454,.F.);
#472=ADVANCED_FACE('',(#60),#455,.T.);
#473=ADVANCED_FACE('',(#61),#41,.T.);
#474=ADVANCED_FACE('',(#62),#456,.T.);
#475=ADVANCED_FACE('',(#63),#42,.T.);
#476=ADVANCED_FACE('',(#64),#457,.T.);
#477=ADVANCED_FACE('',(#65),#43,.T.);
#478=ADVANCED_FACE('',(#66),#458,.T.);
#479=ADVANCED_FACE('',(#67),#44,.T.);
#480=ADVANCED_FACE('',(#68,#15,#16,#17,#18,#19,#20,#21,#22,#23,#24,#25,
#26,#27),#45,.T.);
#481=ADVANCED_FACE('',(#69,#28,#29,#30,#31,#32,#33,#34,#35,#36,#37,#38,
#39,#40),#46,.F.);
#482=CLOSED_SHELL('',(#459,#460,#461,#462,#463,#464,#465,#466,#467,#468,
#469,#470,#471,#472,#473,#474,#475,#476,#477,#478,#479,#480,#481));
#483=DERIVED_UNIT_ELEMENT(#486,1.);
#484=DERIVED_UNIT_ELEMENT(#841,-3.);
#485=DIMENSIONAL_EXPONENTS(0.,1.,0.,0.,0.,0.,0.);
#486=(
CONVERSION_BASED_UNIT('gram',#488)
MASS_UNIT()
NAMED_UNIT(#485)
);
#487=(
MASS_UNIT()
NAMED_UNIT(*)
SI_UNIT(.KILO.,.GRAM.)
);
#488=MASS_MEASURE_WITH_UNIT(MASS_MEASURE(0.001),#487);
#489=DERIVED_UNIT((#483,#484));
#490=MEASURE_REPRESENTATION_ITEM('density measure',
POSITIVE_RATIO_MEASURE(1.1),#489);
#491=PROPERTY_DEFINITION_REPRESENTATION(#496,#493);
#492=PROPERTY_DEFINITION_REPRESENTATION(#497,#494);
#493=REPRESENTATION('material name',(#495),#838);
#494=REPRESENTATION('density',(#490),#838);
#495=DESCRIPTIVE_REPRESENTATION_ITEM('PC/ABS Plastic','PC/ABS Plastic');
#496=PROPERTY_DEFINITION('material property','material name',#848);
#497=PROPERTY_DEFINITION('material property','density of part',#848);
#498=DATE_TIME_ROLE('creation_date');
#499=APPLIED_DATE_AND_TIME_ASSIGNMENT(#500,#498,(#848));
#500=DATE_AND_TIME(#501,#502);
#501=CALENDAR_DATE(2026,12,4);
#502=LOCAL_TIME(0,0,0.,#503);
#503=COORDINATED_UNIVERSAL_TIME_OFFSET(0,0,.BEHIND.);
#504=AXIS2_PLACEMENT_3D('',#707,#562,#563);
#505=AXIS2_PLACEMENT_3D('',#708,#564,#565);
#506=AXIS2_PLACEMENT_3D('',#710,#566,#567);
#507=AXIS2_PLACEMENT_3D('',#713,#569,#570);
#508=AXIS2_PLACEMENT_3D('',#714,#571,#572);
#509=AXIS2_PLACEMENT_3D('',#716,#573,#574);
#510=AXIS2_PLACEMENT_3D('',#719,#576,#577);
#511=AXIS2_PLACEMENT_3D('',#720,#578,#579);
#512=AXIS2_PLACEMENT_3D('',#722,#580,#581);
#513=AXIS2_PLACEMENT_3D('',#725,#583,#584);
#514=AXIS2_PLACEMENT_3D('',#726,#585,#586);
#515=AXIS2_PLACEMENT_3D('',#728,#587,#588);
#516=AXIS2_PLACEMENT_3D('',#731,#590,#591);
#517=AXIS2_PLACEMENT_3D('',#732,#592,#593);
#518=AXIS2_PLACEMENT_3D('',#734,#594,#595);
#519=AXIS2_PLACEMENT_3D('',#737,#597,#598);
#520=AXIS2_PLACEMENT_3D('',#738,#599,#600);
#521=AXIS2_PLACEMENT_3D('',#740,#601,#602);
#522=AXIS2_PLACEMENT_3D('',#743,#604,#605);
#523=AXIS2_PLACEMENT_3D('',#744,#606,#607);
#524=AXIS2_PLACEMENT_3D('',#746,#608,#609);
#525=AXIS2_PLACEMENT_3D('',#749,#611,#612);
#526=AXIS2_PLACEMENT_3D('',#750,#613,#614);
#527=AXIS2_PLACEMENT_3D('',#752,#615,#616);
#528=AXIS2_PLACEMENT_3D('',#755,#618,#619);
#529=AXIS2_PLACEMENT_3D('',#756,#620,#621);
#530=AXIS2_PLACEMENT_3D('',#758,#622,#623);
#531=AXIS2_PLACEMENT_3D('',#761,#625,#626);
#532=AXIS2_PLACEMENT_3D('',#762,#627,#628);
#533=AXIS2_PLACEMENT_3D('',#764,#629,#630);
#534=AXIS2_PLACEMENT_3D('',#767,#632,#633);
#535=AXIS2_PLACEMENT_3D('',#768,#634,#635);
#536=AXIS2_PLACEMENT_3D('',#770,#636,#637);
#537=AXIS2_PLACEMENT_3D('',#773,#639,#640);
#538=AXIS2_PLACEMENT_3D('',#774,#641,#642);
#539=AXIS2_PLACEMENT_3D('',#776,#643,#644);
#540=AXIS2_PLACEMENT_3D('',#779,#646,#647);
#541=AXIS2_PLACEMENT_3D('',#780,#648,#649);
#542=AXIS2_PLACEMENT_3D('',#782,#650,#651);
#543=AXIS2_PLACEMENT_3D('',#785,#653,#654);
#544=AXIS2_PLACEMENT_3D('',#786,#655,#656);
#545=AXIS2_PLACEMENT_3D('',#789,#657,#658);
#546=AXIS2_PLACEMENT_3D('',#793,#660,#661);
#547=AXIS2_PLACEMENT_3D('',#795,#663,#664);
#548=AXIS2_PLACEMENT_3D('',#801,#668,#669);
#549=AXIS2_PLACEMENT_3D('',#803,#670,#671);
#550=AXIS2_PLACEMENT_3D('',#805,#672,#673);
#551=AXIS2_PLACEMENT_3D('',#807,#675,#676);
#552=AXIS2_PLACEMENT_3D('',#813,#680,#681);
#553=AXIS2_PLACEMENT_3D('',#815,#682,#683);
#554=AXIS2_PLACEMENT_3D('',#817,#684,#685);
#555=AXIS2_PLACEMENT_3D('',#819,#687,#688);
#556=AXIS2_PLACEMENT_3D('',#825,#692,#693);
#557=AXIS2_PLACEMENT_3D('',#827,#694,#695);
#558=AXIS2_PLACEMENT_3D('',#829,#696,#697);
#559=AXIS2_PLACEMENT_3D('',#831,#699,#700);
#560=AXIS2_PLACEMENT_3D('',#834,#703,#704);
#561=AXIS2_PLACEMENT_3D('',#835,#705,#706);
#562=DIRECTION('axis',(0.,0.,1.));
#563=DIRECTION('refdir',(1.,0.,0.));
#564=DIRECTION('center_axis',(0.,0.,-1.));
#565=DIRECTION('ref_axis',(1.,0.,0.));
#566=DIRECTION('center_axis',(0.,0.,-1.));
#567=DIRECTION('ref_axis',(1.,0.,0.));
#568=DIRECTION('',(0.,0.,-1.));
#569=DIRECTION('center_axis',(0.,0.,1.));
#570=DIRECTION('ref_axis',(1.,0.,0.));
#571=DIRECTION('center_axis',(0.,0.,-1.));
#572=DIRECTION('ref_axis',(1.,0.,0.));
#573=DIRECTION('center_axis',(0.,0.,-1.));
#574=DIRECTION('ref_axis',(1.,0.,0.));
#575=DIRECTION('',(0.,0.,-1.));
#576=DIRECTION('center_axis',(0.,0.,1.));
#577=DIRECTION('ref_axis',(1.,0.,0.));
#578=DIRECTION('center_axis',(0.,0.,-1.));
#579=DIRECTION('ref_axis',(1.,0.,0.));
#580=DIRECTION('center_axis',(0.,0.,-1.));
#581=DIRECTION('ref_axis',(1.,0.,0.));
#582=DIRECTION('',(0.,0.,-1.));
#583=DIRECTION('center_axis',(0.,0.,1.));
#584=DIRECTION('ref_axis',(1.,0.,0.));
#585=DIRECTION('center_axis',(0.,0.,-1.));
#586=DIRECTION('ref_axis',(1.,0.,0.));
#587=DIRECTION('center_axis',(0.,0.,-1.));
#588=DIRECTION('ref_axis',(1.,0.,0.));
#589=DIRECTION('',(0.,0.,-1.));
#590=DIRECTION('center_axis',(0.,0.,1.));
#591=DIRECTION('ref_axis',(1.,0.,0.));
#592=DIRECTION('center_axis',(0.,0.,-1.));
#593=DIRECTION('ref_axis',(1.,0.,0.));
#594=DIRECTION('center_axis',(0.,0.,-1.));
#595=DIRECTION('ref_axis',(1.,0.,0.));
#596=DIRECTION('',(0.,0.,-1.));
#597=DIRECTION('center_axis',(0.,0.,1.));
#598=DIRECTION('ref_axis',(1.,0.,0.));
#599=DIRECTION('center_axis',(0.,0.,-1.));
#600=DIRECTION('ref_axis',(1.,0.,0.));
#601=DIRECTION('center_axis',(0.,0.,-1.));
#602=DIRECTION('ref_axis',(1.,0.,0.));
#603=DIRECTION('',(0.,0.,-1.));
#604=DIRECTION('center_axis',(0.,0.,1.));
#605=DIRECTION('ref_axis',(1.,0.,0.));
#606=DIRECTION('center_axis',(0.,0.,-1.));
#607=DIRECTION('ref_axis',(1.,0.,0.));
#608=DIRECTION('center_axis',(0.,0.,-1.));
#609=DIRECTION('ref_axis',(1.,0.,0.));
#610=DIRECTION('',(0.,0.,-1.));
#611=DIRECTION('center_axis',(0.,0.,1.));
#612=DIRECTION('ref_axis',(1.,0.,0.));
#613=DIRECTION('center_axis',(0.,0.,-1.));
#614=DIRECTION('ref_axis',(1.,0.,0.));
#615=DIRECTION('center_axis',(0.,0.,-1.));
#616=DIRECTION('ref_axis',(1.,0.,0.));
#617=DIRECTION('',(0.,0.,-1.));
#618=DIRECTION('center_axis',(0.,0.,1.));
#619=DIRECTION('ref_axis',(1.,0.,0.));
#620=DIRECTION('center_axis',(0.,0.,-1.));
#621=DIRECTION('ref_axis',(1.,0.,0.));
#622=DIRECTION('center_axis',(0.,0.,-1.));
#623=DIRECTION('ref_axis',(1.,0.,0.));
#624=DIRECTION('',(0.,0.,-1.));
#625=DIRECTION('center_axis',(0.,0.,1.));
#626=DIRECTION('ref_axis',(1.,0.,0.));
#627=DIRECTION('center_axis',(0.,0.,-1.));
#628=DIRECTION('ref_axis',(1.,0.,0.));
#629=DIRECTION('center_axis',(0.,0.,-1.));
#630=DIRECTION('ref_axis',(1.,0.,0.));
#631=DIRECTION('',(0.,0.,-1.));
#632=DIRECTION('center_axis',(0.,0.,1.));
#633=DIRECTION('ref_axis',(1.,0.,0.));
#634=DIRECTION('center_axis',(0.,0.,-1.));
#635=DIRECTION('ref_axis',(1.,0.,0.));
#636=DIRECTION('center_axis',(0.,0.,-1.));
#637=DIRECTION('ref_axis',(1.,0.,0.));
#638=DIRECTION('',(0.,0.,-1.));
#639=DIRECTION('center_axis',(0.,0.,1.));
#640=DIRECTION('ref_axis',(1.,0.,0.));
#641=DIRECTION('center_axis',(0.,0.,-1.));
#642=DIRECTION('ref_axis',(1.,0.,0.));
#643=DIRECTION('center_axis',(0.,0.,-1.));
#644=DIRECTION('ref_axis',(1.,0.,0.));
#645=DIRECTION('',(0.,0.,-1.));
#646=DIRECTION('center_axis',(0.,0.,1.));
#647=DIRECTION('ref_axis',(1.,0.,0.));
#648=DIRECTION('center_axis',(0.,0.,1.));
#649=DIRECTION('ref_axis',(-1.,0.,0.));
#650=DIRECTION('center_axis',(0.,0.,-1.));
#651=DIRECTION('ref_axis',(-1.,0.,0.));
#652=DIRECTION('',(0.,0.,-1.));
#653=DIRECTION('center_axis',(0.,0.,-1.));
#654=DIRECTION('ref_axis',(-1.,0.,0.));
#655=DIRECTION('center_axis',(0.,0.,1.));
#656=DIRECTION('ref_axis',(4.44089209850063E-16,1.,0.));
#657=DIRECTION('center_axis',(0.,0.,1.));
#658=DIRECTION('ref_axis',(4.44089209850063E-16,1.,0.));
#659=DIRECTION('',(0.,0.,1.));
#660=DIRECTION('center_axis',(0.,0.,1.));
#661=DIRECTION('ref_axis',(4.44089209850063E-16,1.,0.));
#662=DIRECTION('',(0.,0.,1.));
#663=DIRECTION('center_axis',(1.09651656753102E-16,1.,0.));
#664=DIRECTION('ref_axis',(-1.,1.09651656753102E-16,0.));
#665=DIRECTION('',(-1.,1.09651656753102E-16,0.));
#666=DIRECTION('',(-1.,1.09651656753102E-16,0.));
#667=DIRECTION('',(0.,0.,1.));
#668=DIRECTION('center_axis',(0.,0.,1.));
#669=DIRECTION('ref_axis',(1.,4.44089209850063E-16,0.));
#670=DIRECTION('center_axis',(0.,0.,1.));
#671=DIRECTION('ref_axis',(1.,4.44089209850063E-16,0.));
#672=DIRECTION('center_axis',(0.,0.,1.));
#673=DIRECTION('ref_axis',(1.,4.44089209850063E-16,0.));
#674=DIRECTION('',(0.,0.,1.));
#675=DIRECTION('center_axis',(1.,1.09651656753102E-16,0.));
#676=DIRECTION('ref_axis',(-1.09651656753102E-16,1.,0.));
#677=DIRECTION('',(-1.09651656753102E-16,1.,0.));
#678=DIRECTION('',(-1.09651656753102E-16,1.,0.));
#679=DIRECTION('',(0.,0.,1.));
#680=DIRECTION('center_axis',(0.,0.,1.));
#681=DIRECTION('ref_axis',(-3.10862446895045E-15,-1.,0.));
#682=DIRECTION('center_axis',(0.,0.,1.));
#683=DIRECTION('ref_axis',(-3.10862446895045E-15,-1.,0.));
#684=DIRECTION('center_axis',(0.,0.,1.));
#685=DIRECTION('ref_axis',(-3.10862446895045E-15,-1.,0.));
#686=DIRECTION('',(0.,0.,1.));
#687=DIRECTION('center_axis',(2.19303313506204E-16,-1.,0.));
#688=DIRECTION('ref_axis',(1.,2.19303313506204E-16,0.));
#689=DIRECTION('',(1.,2.19303313506204E-16,0.));
#690=DIRECTION('',(1.,2.19303313506204E-16,0.));
#691=DIRECTION('',(0.,0.,1.));
#692=DIRECTION('center_axis',(0.,0.,1.));
#693=DIRECTION('ref_axis',(-1.,4.44089209850063E-16,0.));
#694=DIRECTION('center_axis',(0.,0.,1.));
#695=DIRECTION('ref_axis',(-1.,4.44089209850063E-16,0.));
#696=DIRECTION('center_axis',(0.,0.,1.));
#697=DIRECTION('ref_axis',(-1.,4.44089209850063E-16,0.));
#698=DIRECTION('',(0.,0.,1.));
#699=DIRECTION('center_axis',(-1.,-2.19303313506204E-16,0.));
#700=DIRECTION('ref_axis',(2.19303313506204E-16,-1.,0.));
#701=DIRECTION('',(2.19303313506204E-16,-1.,0.));
#702=DIRECTION('',(2.19303313506204E-16,-1.,0.));
#703=DIRECTION('center_axis',(0.,0.,1.));
#704=DIRECTION('ref_axis',(1.,0.,0.));
#705=DIRECTION('center_axis',(0.,0.,1.));
#706=DIRECTION('ref_axis',(1.,0.,0.));
#707=CARTESIAN_POINT('',(0.,0.,0.));
#708=CARTESIAN_POINT('Origin',(-53.2397947765895,-37.2897338706868,7.515));
#709=CARTESIAN_POINT('',(-55.3897947765895,-37.2897338706868,7.515));
#710=CARTESIAN_POINT('Origin',(-53.2397947765895,-37.2897338706868,7.515));
#711=CARTESIAN_POINT('',(-55.3897947765895,-37.2897338706868,0.));
#712=CARTESIAN_POINT('',(-55.3897947765895,-37.2897338706868,7.515));
#713=CARTESIAN_POINT('Origin',(-53.2397947765895,-37.2897338706868,0.));
#714=CARTESIAN_POINT('Origin',(53.2397947765893,37.2897338706868,7.515));
#715=CARTESIAN_POINT('',(51.0897947765893,37.2897338706868,7.515));
#716=CARTESIAN_POINT('Origin',(53.2397947765893,37.2897338706868,7.515));
#717=CARTESIAN_POINT('',(51.0897947765893,37.2897338706868,0.));
#718=CARTESIAN_POINT('',(51.0897947765893,37.2897338706868,7.515));
#719=CARTESIAN_POINT('Origin',(53.2397947765893,37.2897338706868,0.));
#720=CARTESIAN_POINT('Origin',(48.5066179114982,-48.493381185349,7.515));
#721=CARTESIAN_POINT('',(45.8566179114982,-48.493381185349,7.515));
#722=CARTESIAN_POINT('Origin',(48.5066179114982,-48.493381185349,7.515));
#723=CARTESIAN_POINT('',(45.8566179114982,-48.493381185349,0.));
#724=CARTESIAN_POINT('',(45.8566179114982,-48.493381185349,7.515));
#725=CARTESIAN_POINT('Origin',(48.5066179114982,-48.493381185349,0.));
#726=CARTESIAN_POINT('Origin',(37.2897338706867,-53.2397947765894,7.515));
#727=CARTESIAN_POINT('',(35.1397338706867,-53.2397947765894,7.515));
#728=CARTESIAN_POINT('Origin',(37.2897338706867,-53.2397947765894,7.515));
#729=CARTESIAN_POINT('',(35.1397338706867,-53.2397947765894,0.));
#730=CARTESIAN_POINT('',(35.1397338706867,-53.2397947765894,7.515));
#731=CARTESIAN_POINT('Origin',(37.2897338706867,-53.2397947765894,0.));
#732=CARTESIAN_POINT('Origin',(-37.2897338706869,53.2397947765894,7.515));
#733=CARTESIAN_POINT('',(-39.4397338706869,53.2397947765894,7.515));
#734=CARTESIAN_POINT('Origin',(-37.2897338706869,53.2397947765894,7.515));
#735=CARTESIAN_POINT('',(-39.4397338706869,53.2397947765894,0.));
#736=CARTESIAN_POINT('',(-39.4397338706869,53.2397947765894,7.515));
#737=CARTESIAN_POINT('Origin',(-37.2897338706869,53.2397947765894,0.));
#738=CARTESIAN_POINT('Origin',(-48.4933811853626,-48.5066179115066,7.515));
#739=CARTESIAN_POINT('',(-51.1433811853626,-48.5066179115066,7.515));
#740=CARTESIAN_POINT('Origin',(-48.4933811853626,-48.5066179115066,7.515));
#741=CARTESIAN_POINT('',(-51.1433811853626,-48.5066179115066,0.));
#742=CARTESIAN_POINT('',(-51.1433811853626,-48.5066179115066,7.515));
#743=CARTESIAN_POINT('Origin',(-48.4933811853626,-48.5066179115066,0.));
#744=CARTESIAN_POINT('Origin',(-53.2499699894731,37.2752021606888,7.515));
#745=CARTESIAN_POINT('',(-55.3999699894731,37.2752021606888,7.515));
#746=CARTESIAN_POINT('Origin',(-53.2499699894731,37.2752021606888,7.515));
#747=CARTESIAN_POINT('',(-55.3999699894731,37.2752021606888,0.));
#748=CARTESIAN_POINT('',(-55.3999699894731,37.2752021606888,7.515));
#749=CARTESIAN_POINT('Origin',(-53.2499699894731,37.2752021606888,0.));
#750=CARTESIAN_POINT('Origin',(48.4933811853327,48.506617911508,7.515));
#751=CARTESIAN_POINT('',(45.8433811853327,48.506617911508,7.515));
#752=CARTESIAN_POINT('Origin',(48.4933811853327,48.506617911508,7.515));
#753=CARTESIAN_POINT('',(45.8433811853327,48.506617911508,0.));
#754=CARTESIAN_POINT('',(45.8433811853327,48.506617911508,7.515));
#755=CARTESIAN_POINT('Origin',(48.4933811853327,48.506617911508,0.));
#756=CARTESIAN_POINT('Origin',(53.2499699894729,-37.2752021606889,7.515));
#757=CARTESIAN_POINT('',(51.0999699894729,-37.2752021606889,7.515));
#758=CARTESIAN_POINT('Origin',(53.2499699894729,-37.2752021606889,7.515));
#759=CARTESIAN_POINT('',(51.0999699894729,-37.2752021606889,0.));
#760=CARTESIAN_POINT('',(51.0999699894729,-37.2752021606889,7.515));
#761=CARTESIAN_POINT('Origin',(53.2499699894729,-37.2752021606889,0.));
#762=CARTESIAN_POINT('Origin',(37.2752021606888,53.249969989473,7.515));
#763=CARTESIAN_POINT('',(35.1252021606888,53.249969989473,7.515));
#764=CARTESIAN_POINT('Origin',(37.2752021606888,53.249969989473,7.515));
#765=CARTESIAN_POINT('',(35.1252021606888,53.249969989473,0.));
#766=CARTESIAN_POINT('',(35.1252021606888,53.249969989473,7.515));
#767=CARTESIAN_POINT('Origin',(37.2752021606888,53.249969989473,0.));
#768=CARTESIAN_POINT('Origin',(-48.5066179115203,48.4933811853481,7.515));
#769=CARTESIAN_POINT('',(-51.1566179115203,48.4933811853481,7.515));
#770=CARTESIAN_POINT('Origin',(-48.5066179115203,48.4933811853481,7.515));
#771=CARTESIAN_POINT('',(-51.1566179115203,48.4933811853481,0.));
#772=CARTESIAN_POINT('',(-51.1566179115203,48.4933811853481,7.515));
#773=CARTESIAN_POINT('Origin',(-48.5066179115203,48.4933811853481,0.));
#774=CARTESIAN_POINT('Origin',(-37.275202160689,-53.249969989473,7.515));
#775=CARTESIAN_POINT('',(-39.425202160689,-53.249969989473,7.515));
#776=CARTESIAN_POINT('Origin',(-37.275202160689,-53.249969989473,7.515));
#777=CARTESIAN_POINT('',(-39.425202160689,-53.249969989473,0.));
#778=CARTESIAN_POINT('',(-39.425202160689,-53.249969989473,7.515));
#779=CARTESIAN_POINT('Origin',(-37.275202160689,-53.249969989473,0.));
#780=CARTESIAN_POINT('Origin',(0.,0.,0.));
#781=CARTESIAN_POINT('',(57.5,8.88178419700125E-15,7.515));
#782=CARTESIAN_POINT('Origin',(0.,0.,7.515));
#783=CARTESIAN_POINT('',(57.5,7.04171909509728E-15,0.));
#784=CARTESIAN_POINT('',(57.5,7.04171909509728E-15,0.));
#785=CARTESIAN_POINT('Origin',(0.,0.,0.));
#786=CARTESIAN_POINT('Origin',(-40.5,40.5,0.));
#787=CARTESIAN_POINT('',(-40.5,60.5,0.));
#788=CARTESIAN_POINT('',(-60.5,40.5,0.));
#789=CARTESIAN_POINT('Origin',(-40.5,40.5,0.));
#790=CARTESIAN_POINT('',(-60.5,40.5,7.515));
#791=CARTESIAN_POINT('',(-60.5,40.5,0.));
#792=CARTESIAN_POINT('',(-40.5,60.5,7.515));
#793=CARTESIAN_POINT('Origin',(-40.5,40.5,7.515));
#794=CARTESIAN_POINT('',(-40.5,60.5,0.));
#795=CARTESIAN_POINT('Origin',(40.5,60.5,0.));
#796=CARTESIAN_POINT('',(40.5,60.5,0.));
#797=CARTESIAN_POINT('',(40.5,60.5,0.));
#798=CARTESIAN_POINT('',(40.5,60.5,7.515));
#799=CARTESIAN_POINT('',(40.5,60.5,7.515));
#800=CARTESIAN_POINT('',(40.5,60.5,0.));
#801=CARTESIAN_POINT('Origin',(40.5,40.5,0.));
#802=CARTESIAN_POINT('',(60.5,40.5,0.));
#803=CARTESIAN_POINT('Origin',(40.5,40.5,0.));
#804=CARTESIAN_POINT('',(60.5,40.5,7.515));
#805=CARTESIAN_POINT('Origin',(40.5,40.5,7.515));
#806=CARTESIAN_POINT('',(60.5,40.5,0.));
#807=CARTESIAN_POINT('Origin',(60.5,-40.5,0.));
#808=CARTESIAN_POINT('',(60.5,-40.5,0.));
#809=CARTESIAN_POINT('',(60.5,-40.5,0.));
#810=CARTESIAN_POINT('',(60.5,-40.5,7.515));
#811=CARTESIAN_POINT('',(60.5,-40.5,7.515));
#812=CARTESIAN_POINT('',(60.5,-40.5,0.));
#813=CARTESIAN_POINT('Origin',(40.5000000000001,-40.5,0.));
#814=CARTESIAN_POINT('',(40.5,-60.5,0.));
#815=CARTESIAN_POINT('Origin',(40.5000000000001,-40.5,0.));
#816=CARTESIAN_POINT('',(40.5,-60.5,7.515));
#817=CARTESIAN_POINT('Origin',(40.5000000000001,-40.5,7.515));
#818=CARTESIAN_POINT('',(40.5,-60.5,0.));
#819=CARTESIAN_POINT('Origin',(-40.5,-60.5,0.));
#820=CARTESIAN_POINT('',(-40.5,-60.5,0.));
#821=CARTESIAN_POINT('',(-40.5,-60.5,0.));
#822=CARTESIAN_POINT('',(-40.5,-60.5,7.515));
#823=CARTESIAN_POINT('',(-40.5,-60.5,7.515));
#824=CARTESIAN_POINT('',(-40.5,-60.5,0.));
#825=CARTESIAN_POINT('Origin',(-40.5,-40.5,0.));
#826=CARTESIAN_POINT('',(-60.5,-40.5,0.));
#827=CARTESIAN_POINT('Origin',(-40.5,-40.5,0.));
#828=CARTESIAN_POINT('',(-60.5,-40.5,7.515));
#829=CARTESIAN_POINT('Origin',(-40.5,-40.5,7.515));
#830=CARTESIAN_POINT('',(-60.5,-40.5,0.));
#831=CARTESIAN_POINT('Origin',(-60.5,40.5,0.));
#832=CARTESIAN_POINT('',(-60.5,40.5,0.));
#833=CARTESIAN_POINT('',(-60.5,40.5,7.515));
#834=CARTESIAN_POINT('Origin',(0.,-4.44089209850063E-15,7.515));
#835=CARTESIAN_POINT('Origin',(0.,-4.44089209850063E-15,0.));
#836=UNCERTAINTY_MEASURE_WITH_UNIT(LENGTH_MEASURE(0.01),#840,
'DISTANCE_ACCURACY_VALUE',
'Maximum model space distance between geometric entities at asserted c
onnectivities');
#837=UNCERTAINTY_MEASURE_WITH_UNIT(LENGTH_MEASURE(0.01),#840,
'DISTANCE_ACCURACY_VALUE',
'Maximum model space distance between geometric entities at asserted c
onnectivities');
#838=(
GEOMETRIC_REPRESENTATION_CONTEXT(3)
GLOBAL_UNCERTAINTY_ASSIGNED_CONTEXT((#836))
GLOBAL_UNIT_ASSIGNED_CONTEXT((#840,#842,#843))
REPRESENTATION_CONTEXT('','3D')
);
#839=(
GEOMETRIC_REPRESENTATION_CONTEXT(3)
GLOBAL_UNCERTAINTY_ASSIGNED_CONTEXT((#837))
GLOBAL_UNIT_ASSIGNED_CONTEXT((#840,#842,#843))
REPRESENTATION_CONTEXT('','3D')
);
#840=(
LENGTH_UNIT()
NAMED_UNIT(*)
SI_UNIT(.MILLI.,.METRE.)
);
#841=(
LENGTH_UNIT()
NAMED_UNIT(*)
SI_UNIT(.CENTI.,.METRE.)
);
#842=(
NAMED_UNIT(*)
PLANE_ANGLE_UNIT()
SI_UNIT($,.RADIAN.)
);
#843=(
NAMED_UNIT(*)
SI_UNIT($,.STERADIAN.)
SOLID_ANGLE_UNIT()
);
#844=SHAPE_DEFINITION_REPRESENTATION(#845,#846);
#845=PRODUCT_DEFINITION_SHAPE('',$,#848);
#846=SHAPE_REPRESENTATION('',(#504),#838);
#847=PRODUCT_DEFINITION_CONTEXT('part definition',#852,'design');
#848=PRODUCT_DEFINITION('stator_center_01_p','stator_center_01_p',#849,
#847);
#849=PRODUCT_DEFINITION_FORMATION('',$,#854);
#850=PRODUCT_RELATED_PRODUCT_CATEGORY('stator_center_01_p',
'stator_center_01_p',(#854));
#851=APPLICATION_PROTOCOL_DEFINITION('international standard',
'automotive_design',2009,#852);
#852=APPLICATION_CONTEXT(
'Core Data for Automotive Mechanical Design Process');
#853=PRODUCT_CONTEXT('part definition',#852,'mechanical');
#854=PRODUCT('stator_center_01_p','stator_center_01_p',$,(#853));
#855=PRESENTATION_STYLE_ASSIGNMENT((#856));
#856=SURFACE_STYLE_USAGE(.BOTH.,#859);
#857=SURFACE_STYLE_RENDERING_WITH_PROPERTIES($,#863,(#858));
#858=SURFACE_STYLE_TRANSPARENT(0.);
#859=SURFACE_SIDE_STYLE('',(#860,#857));
#860=SURFACE_STYLE_FILL_AREA(#861);
#861=FILL_AREA_STYLE('',(#862));
#862=FILL_AREA_STYLE_COLOUR('',#863);
#863=COLOUR_RGB('',0.,0.,0.);
ENDSEC;
END-ISO-10303-21;
