ISO-10303-21;
HEADER;
/* Generated by software containing ST-Developer
 * from STEP Tools, Inc. (www.steptools.com) 
 */

FILE_DESCRIPTION(
/* description */ (''),
/* implementation_level */ '2;1');

FILE_NAME(
/* name */ 'charge_port_plug.stp',
/* time_stamp */ '2026-07-14T19:32:15-07:00',
/* author */ ('aaron'),
/* organization */ (''),
/* preprocessor_version */ 'ST-DEVELOPER v20.1',
/* originating_system */ 'Autodesk Inventor 2026',
/* authorisation */ '');

FILE_SCHEMA (('AUTOMOTIVE_DESIGN { 1 0 10303 214 3 1 1 }'));
ENDSEC;

DATA;
#10=MECHANICAL_DESIGN_GEOMETRIC_PRESENTATION_REPRESENTATION('',(#13),#1000);
#11=SHAPE_REPRESENTATION_RELATIONSHIP('SRR','None',#1007,#12);
#12=ADVANCED_BREP_SHAPE_REPRESENTATION('',(#14),#999);
#13=STYLED_ITEM('',(#1016),#14);
#14=MANIFOLD_SOLID_BREP('Solid1',#619);
#15=CYLINDRICAL_SURFACE('',#655,1.65);
#16=CYLINDRICAL_SURFACE('',#658,1.65);
#17=FACE_BOUND('',#69,.T.);
#18=FACE_BOUND('',#73,.T.);
#19=FACE_BOUND('',#75,.T.);
#20=FACE_BOUND('',#84,.T.);
#21=FACE_BOUND('',#88,.T.);
#22=FACE_BOUND('',#92,.T.);
#23=CIRCLE('',#654,1.65);
#24=CIRCLE('',#656,1.65);
#25=CIRCLE('',#657,1.65);
#26=CIRCLE('',#659,1.65);
#27=FACE_OUTER_BOUND('',#57,.T.);
#28=FACE_OUTER_BOUND('',#58,.T.);
#29=FACE_OUTER_BOUND('',#59,.T.);
#30=FACE_OUTER_BOUND('',#60,.T.);
#31=FACE_OUTER_BOUND('',#61,.T.);
#32=FACE_OUTER_BOUND('',#62,.T.);
#33=FACE_OUTER_BOUND('',#63,.T.);
#34=FACE_OUTER_BOUND('',#64,.T.);
#35=FACE_OUTER_BOUND('',#65,.T.);
#36=FACE_OUTER_BOUND('',#66,.T.);
#37=FACE_OUTER_BOUND('',#67,.T.);
#38=FACE_OUTER_BOUND('',#68,.T.);
#39=FACE_OUTER_BOUND('',#70,.T.);
#40=FACE_OUTER_BOUND('',#71,.T.);
#41=FACE_OUTER_BOUND('',#72,.T.);
#42=FACE_OUTER_BOUND('',#74,.T.);
#43=FACE_OUTER_BOUND('',#76,.T.);
#44=FACE_OUTER_BOUND('',#77,.T.);
#45=FACE_OUTER_BOUND('',#78,.T.);
#46=FACE_OUTER_BOUND('',#79,.T.);
#47=FACE_OUTER_BOUND('',#80,.T.);
#48=FACE_OUTER_BOUND('',#81,.T.);
#49=FACE_OUTER_BOUND('',#82,.T.);
#50=FACE_OUTER_BOUND('',#83,.T.);
#51=FACE_OUTER_BOUND('',#85,.T.);
#52=FACE_OUTER_BOUND('',#86,.T.);
#53=FACE_OUTER_BOUND('',#87,.T.);
#54=FACE_OUTER_BOUND('',#89,.T.);
#55=FACE_OUTER_BOUND('',#90,.T.);
#56=FACE_OUTER_BOUND('',#91,.T.);
#57=EDGE_LOOP('',(#393,#394,#395,#396));
#58=EDGE_LOOP('',(#397,#398,#399,#400));
#59=EDGE_LOOP('',(#401,#402,#403,#404,#405,#406,#407,#408));
#60=EDGE_LOOP('',(#409,#410,#411,#412));
#61=EDGE_LOOP('',(#413,#414,#415,#416));
#62=EDGE_LOOP('',(#417,#418,#419,#420));
#63=EDGE_LOOP('',(#421,#422,#423,#424,#425));
#64=EDGE_LOOP('',(#426,#427,#428,#429,#430));
#65=EDGE_LOOP('',(#431,#432,#433,#434));
#66=EDGE_LOOP('',(#435,#436,#437,#438,#439,#440));
#67=EDGE_LOOP('',(#441,#442,#443,#444,#445,#446,#447));
#68=EDGE_LOOP('',(#448,#449,#450,#451));
#69=EDGE_LOOP('',(#452));
#70=EDGE_LOOP('',(#453,#454,#455,#456));
#71=EDGE_LOOP('',(#457,#458,#459,#460));
#72=EDGE_LOOP('',(#461,#462,#463,#464,#465,#466));
#73=EDGE_LOOP('',(#467,#468,#469,#470));
#74=EDGE_LOOP('',(#471,#472,#473,#474,#475,#476,#477,#478,#479,#480));
#75=EDGE_LOOP('',(#481));
#76=EDGE_LOOP('',(#482,#483,#484,#485,#486,#487));
#77=EDGE_LOOP('',(#488,#489,#490,#491,#492,#493));
#78=EDGE_LOOP('',(#494,#495,#496,#497,#498,#499));
#79=EDGE_LOOP('',(#500,#501,#502,#503));
#80=EDGE_LOOP('',(#504,#505,#506,#507));
#81=EDGE_LOOP('',(#508,#509,#510,#511));
#82=EDGE_LOOP('',(#512,#513,#514,#515));
#83=EDGE_LOOP('',(#516,#517,#518,#519));
#84=EDGE_LOOP('',(#520));
#85=EDGE_LOOP('',(#521,#522,#523,#524,#525,#526,#527));
#86=EDGE_LOOP('',(#528,#529,#530,#531));
#87=EDGE_LOOP('',(#532,#533,#534,#535));
#88=EDGE_LOOP('',(#536));
#89=EDGE_LOOP('',(#537,#538,#539,#540));
#90=EDGE_LOOP('',(#541,#542,#543,#544,#545,#546));
#91=EDGE_LOOP('',(#547,#548,#549,#550,#551,#552,#553,#554,#555,#556));
#92=EDGE_LOOP('',(#557,#558,#559,#560));
#93=LINE('',#830,#173);
#94=LINE('',#832,#174);
#95=LINE('',#834,#175);
#96=LINE('',#835,#176);
#97=LINE('',#838,#177);
#98=LINE('',#840,#178);
#99=LINE('',#841,#179);
#100=LINE('',#844,#180);
#101=LINE('',#846,#181);
#102=LINE('',#848,#182);
#103=LINE('',#850,#183);
#104=LINE('',#852,#184);
#105=LINE('',#853,#185);
#106=LINE('',#856,#186);
#107=LINE('',#858,#187);
#108=LINE('',#859,#188);
#109=LINE('',#862,#189);
#110=LINE('',#863,#190);
#111=LINE('',#867,#191);
#112=LINE('',#869,#192);
#113=LINE('',#871,#193);
#114=LINE('',#872,#194);
#115=LINE('',#874,#195);
#116=LINE('',#875,#196);
#117=LINE('',#878,#197);
#118=LINE('',#880,#198);
#119=LINE('',#881,#199);
#120=LINE('',#884,#200);
#121=LINE('',#886,#201);
#122=LINE('',#887,#202);
#123=LINE('',#890,#203);
#124=LINE('',#892,#204);
#125=LINE('',#894,#205);
#126=LINE('',#896,#206);
#127=LINE('',#897,#207);
#128=LINE('',#900,#208);
#129=LINE('',#901,#209);
#130=LINE('',#905,#210);
#131=LINE('',#907,#211);
#132=LINE('',#909,#212);
#133=LINE('',#910,#213);
#134=LINE('',#917,#214);
#135=LINE('',#922,#215);
#136=LINE('',#926,#216);
#137=LINE('',#927,#217);
#138=LINE('',#928,#218);
#139=LINE('',#929,#219);
#140=LINE('',#932,#220);
#141=LINE('',#934,#221);
#142=LINE('',#936,#222);
#143=LINE('',#937,#223);
#144=LINE('',#939,#224);
#145=LINE('',#942,#225);
#146=LINE('',#944,#226);
#147=LINE('',#945,#227);
#148=LINE('',#948,#228);
#149=LINE('',#950,#229);
#150=LINE('',#951,#230);
#151=LINE('',#954,#231);
#152=LINE('',#956,#232);
#153=LINE('',#958,#233);
#154=LINE('',#959,#234);
#155=LINE('',#963,#235);
#156=LINE('',#964,#236);
#157=LINE('',#965,#237);
#158=LINE('',#968,#238);
#159=LINE('',#969,#239);
#160=LINE('',#972,#240);
#161=LINE('',#973,#241);
#162=LINE('',#975,#242);
#163=LINE('',#978,#243);
#164=LINE('',#979,#244);
#165=LINE('',#981,#245);
#166=LINE('',#984,#246);
#167=LINE('',#985,#247);
#168=LINE('',#988,#248);
#169=LINE('',#989,#249);
#170=LINE('',#992,#250);
#171=LINE('',#993,#251);
#172=LINE('',#995,#252);
#173=VECTOR('',#680,10.);
#174=VECTOR('',#681,10.);
#175=VECTOR('',#682,10.);
#176=VECTOR('',#683,10.);
#177=VECTOR('',#686,10.);
#178=VECTOR('',#687,10.);
#179=VECTOR('',#688,10.);
#180=VECTOR('',#691,10.);
#181=VECTOR('',#692,10.);
#182=VECTOR('',#693,10.);
#183=VECTOR('',#694,10.);
#184=VECTOR('',#695,10.);
#185=VECTOR('',#696,10.);
#186=VECTOR('',#699,10.);
#187=VECTOR('',#700,10.);
#188=VECTOR('',#701,10.);
#189=VECTOR('',#704,10.);
#190=VECTOR('',#705,10.);
#191=VECTOR('',#708,10.);
#192=VECTOR('',#709,10.);
#193=VECTOR('',#710,10.);
#194=VECTOR('',#711,10.);
#195=VECTOR('',#714,10.);
#196=VECTOR('',#715,10.);
#197=VECTOR('',#718,10.);
#198=VECTOR('',#719,10.);
#199=VECTOR('',#720,10.);
#200=VECTOR('',#723,10.);
#201=VECTOR('',#724,10.);
#202=VECTOR('',#725,10.);
#203=VECTOR('',#728,10.);
#204=VECTOR('',#729,10.);
#205=VECTOR('',#730,10.);
#206=VECTOR('',#731,10.);
#207=VECTOR('',#732,10.);
#208=VECTOR('',#735,10.);
#209=VECTOR('',#736,10.);
#210=VECTOR('',#739,10.);
#211=VECTOR('',#740,10.);
#212=VECTOR('',#741,10.);
#213=VECTOR('',#742,10.);
#214=VECTOR('',#749,1.65);
#215=VECTOR('',#756,1.65);
#216=VECTOR('',#759,10.);
#217=VECTOR('',#760,10.);
#218=VECTOR('',#761,10.);
#219=VECTOR('',#762,10.);
#220=VECTOR('',#763,10.);
#221=VECTOR('',#764,10.);
#222=VECTOR('',#765,10.);
#223=VECTOR('',#766,10.);
#224=VECTOR('',#769,10.);
#225=VECTOR('',#772,10.);
#226=VECTOR('',#773,10.);
#227=VECTOR('',#774,10.);
#228=VECTOR('',#777,10.);
#229=VECTOR('',#778,10.);
#230=VECTOR('',#779,10.);
#231=VECTOR('',#782,10.);
#232=VECTOR('',#783,10.);
#233=VECTOR('',#784,10.);
#234=VECTOR('',#785,10.);
#235=VECTOR('',#788,10.);
#236=VECTOR('',#789,10.);
#237=VECTOR('',#790,10.);
#238=VECTOR('',#793,10.);
#239=VECTOR('',#794,10.);
#240=VECTOR('',#797,10.);
#241=VECTOR('',#798,10.);
#242=VECTOR('',#801,10.);
#243=VECTOR('',#804,10.);
#244=VECTOR('',#805,10.);
#245=VECTOR('',#808,10.);
#246=VECTOR('',#811,10.);
#247=VECTOR('',#812,10.);
#248=VECTOR('',#815,10.);
#249=VECTOR('',#816,10.);
#250=VECTOR('',#819,10.);
#251=VECTOR('',#820,10.);
#252=VECTOR('',#823,10.);
#253=VERTEX_POINT('',#828);
#254=VERTEX_POINT('',#829);
#255=VERTEX_POINT('',#831);
#256=VERTEX_POINT('',#833);
#257=VERTEX_POINT('',#837);
#258=VERTEX_POINT('',#839);
#259=VERTEX_POINT('',#843);
#260=VERTEX_POINT('',#845);
#261=VERTEX_POINT('',#847);
#262=VERTEX_POINT('',#849);
#263=VERTEX_POINT('',#851);
#264=VERTEX_POINT('',#855);
#265=VERTEX_POINT('',#857);
#266=VERTEX_POINT('',#861);
#267=VERTEX_POINT('',#865);
#268=VERTEX_POINT('',#866);
#269=VERTEX_POINT('',#868);
#270=VERTEX_POINT('',#870);
#271=VERTEX_POINT('',#877);
#272=VERTEX_POINT('',#879);
#273=VERTEX_POINT('',#883);
#274=VERTEX_POINT('',#885);
#275=VERTEX_POINT('',#889);
#276=VERTEX_POINT('',#891);
#277=VERTEX_POINT('',#893);
#278=VERTEX_POINT('',#895);
#279=VERTEX_POINT('',#899);
#280=VERTEX_POINT('',#903);
#281=VERTEX_POINT('',#904);
#282=VERTEX_POINT('',#906);
#283=VERTEX_POINT('',#908);
#284=VERTEX_POINT('',#911);
#285=VERTEX_POINT('',#914);
#286=VERTEX_POINT('',#916);
#287=VERTEX_POINT('',#920);
#288=VERTEX_POINT('',#924);
#289=VERTEX_POINT('',#925);
#290=VERTEX_POINT('',#930);
#291=VERTEX_POINT('',#931);
#292=VERTEX_POINT('',#933);
#293=VERTEX_POINT('',#935);
#294=VERTEX_POINT('',#941);
#295=VERTEX_POINT('',#943);
#296=VERTEX_POINT('',#947);
#297=VERTEX_POINT('',#949);
#298=VERTEX_POINT('',#953);
#299=VERTEX_POINT('',#955);
#300=VERTEX_POINT('',#957);
#301=VERTEX_POINT('',#961);
#302=VERTEX_POINT('',#962);
#303=VERTEX_POINT('',#967);
#304=VERTEX_POINT('',#971);
#305=VERTEX_POINT('',#977);
#306=VERTEX_POINT('',#983);
#307=VERTEX_POINT('',#987);
#308=VERTEX_POINT('',#991);
#309=EDGE_CURVE('',#253,#254,#93,.T.);
#310=EDGE_CURVE('',#254,#255,#94,.T.);
#311=EDGE_CURVE('',#255,#256,#95,.F.);
#312=EDGE_CURVE('',#256,#253,#96,.T.);
#313=EDGE_CURVE('',#257,#254,#97,.T.);
#314=EDGE_CURVE('',#258,#257,#98,.T.);
#315=EDGE_CURVE('',#258,#255,#99,.T.);
#316=EDGE_CURVE('',#253,#259,#100,.T.);
#317=EDGE_CURVE('',#260,#259,#101,.T.);
#318=EDGE_CURVE('',#260,#261,#102,.T.);
#319=EDGE_CURVE('',#261,#262,#103,.T.);
#320=EDGE_CURVE('',#262,#263,#104,.T.);
#321=EDGE_CURVE('',#263,#257,#105,.T.);
#322=EDGE_CURVE('',#259,#264,#106,.T.);
#323=EDGE_CURVE('',#264,#265,#107,.F.);
#324=EDGE_CURVE('',#265,#260,#108,.T.);
#325=EDGE_CURVE('',#266,#265,#109,.T.);
#326=EDGE_CURVE('',#261,#266,#110,.T.);
#327=EDGE_CURVE('',#267,#268,#111,.T.);
#328=EDGE_CURVE('',#269,#267,#112,.T.);
#329=EDGE_CURVE('',#270,#269,#113,.T.);
#330=EDGE_CURVE('',#268,#270,#114,.T.);
#331=EDGE_CURVE('',#256,#267,#115,.T.);
#332=EDGE_CURVE('',#269,#258,#116,.T.);
#333=EDGE_CURVE('',#271,#264,#117,.T.);
#334=EDGE_CURVE('',#272,#271,#118,.T.);
#335=EDGE_CURVE('',#266,#272,#119,.T.);
#336=EDGE_CURVE('',#273,#271,#120,.T.);
#337=EDGE_CURVE('',#274,#273,#121,.T.);
#338=EDGE_CURVE('',#272,#274,#122,.T.);
#339=EDGE_CURVE('',#275,#270,#123,.T.);
#340=EDGE_CURVE('',#275,#276,#124,.T.);
#341=EDGE_CURVE('',#276,#277,#125,.T.);
#342=EDGE_CURVE('',#277,#278,#126,.T.);
#343=EDGE_CURVE('',#278,#268,#127,.T.);
#344=EDGE_CURVE('',#279,#263,#128,.T.);
#345=EDGE_CURVE('',#279,#275,#129,.T.);
#346=EDGE_CURVE('',#280,#281,#130,.T.);
#347=EDGE_CURVE('',#282,#280,#131,.T.);
#348=EDGE_CURVE('',#283,#282,#132,.T.);
#349=EDGE_CURVE('',#283,#281,#133,.T.);
#350=EDGE_CURVE('',#284,#284,#23,.T.);
#351=EDGE_CURVE('',#285,#285,#24,.T.);
#352=EDGE_CURVE('',#285,#286,#134,.T.);
#353=EDGE_CURVE('',#286,#286,#25,.T.);
#354=EDGE_CURVE('',#287,#287,#26,.T.);
#355=EDGE_CURVE('',#287,#284,#135,.T.);
#356=EDGE_CURVE('',#288,#289,#136,.T.);
#357=EDGE_CURVE('',#278,#288,#137,.T.);
#358=EDGE_CURVE('',#281,#277,#138,.T.);
#359=EDGE_CURVE('',#289,#283,#139,.T.);
#360=EDGE_CURVE('',#290,#291,#140,.T.);
#361=EDGE_CURVE('',#292,#290,#141,.T.);
#362=EDGE_CURVE('',#293,#292,#142,.T.);
#363=EDGE_CURVE('',#291,#293,#143,.T.);
#364=EDGE_CURVE('',#273,#288,#144,.T.);
#365=EDGE_CURVE('',#294,#289,#145,.T.);
#366=EDGE_CURVE('',#294,#295,#146,.T.);
#367=EDGE_CURVE('',#295,#274,#147,.T.);
#368=EDGE_CURVE('',#296,#282,#148,.T.);
#369=EDGE_CURVE('',#297,#296,#149,.T.);
#370=EDGE_CURVE('',#297,#294,#150,.T.);
#371=EDGE_CURVE('',#280,#298,#151,.T.);
#372=EDGE_CURVE('',#298,#299,#152,.T.);
#373=EDGE_CURVE('',#299,#300,#153,.T.);
#374=EDGE_CURVE('',#300,#296,#154,.T.);
#375=EDGE_CURVE('',#301,#302,#155,.T.);
#376=EDGE_CURVE('',#301,#290,#156,.T.);
#377=EDGE_CURVE('',#302,#291,#157,.T.);
#378=EDGE_CURVE('',#303,#301,#158,.T.);
#379=EDGE_CURVE('',#303,#292,#159,.T.);
#380=EDGE_CURVE('',#304,#303,#160,.T.);
#381=EDGE_CURVE('',#304,#293,#161,.T.);
#382=EDGE_CURVE('',#302,#304,#162,.T.);
#383=EDGE_CURVE('',#305,#279,#163,.T.);
#384=EDGE_CURVE('',#305,#262,#164,.T.);
#385=EDGE_CURVE('',#295,#305,#165,.T.);
#386=EDGE_CURVE('',#306,#297,#166,.T.);
#387=EDGE_CURVE('',#306,#300,#167,.T.);
#388=EDGE_CURVE('',#307,#306,#168,.T.);
#389=EDGE_CURVE('',#307,#299,#169,.T.);
#390=EDGE_CURVE('',#308,#307,#170,.T.);
#391=EDGE_CURVE('',#308,#298,#171,.T.);
#392=EDGE_CURVE('',#276,#308,#172,.T.);
#393=ORIENTED_EDGE('',*,*,#309,.T.);
#394=ORIENTED_EDGE('',*,*,#310,.T.);
#395=ORIENTED_EDGE('',*,*,#311,.T.);
#396=ORIENTED_EDGE('',*,*,#312,.T.);
#397=ORIENTED_EDGE('',*,*,#310,.F.);
#398=ORIENTED_EDGE('',*,*,#313,.F.);
#399=ORIENTED_EDGE('',*,*,#314,.F.);
#400=ORIENTED_EDGE('',*,*,#315,.T.);
#401=ORIENTED_EDGE('',*,*,#309,.F.);
#402=ORIENTED_EDGE('',*,*,#316,.T.);
#403=ORIENTED_EDGE('',*,*,#317,.F.);
#404=ORIENTED_EDGE('',*,*,#318,.T.);
#405=ORIENTED_EDGE('',*,*,#319,.T.);
#406=ORIENTED_EDGE('',*,*,#320,.T.);
#407=ORIENTED_EDGE('',*,*,#321,.T.);
#408=ORIENTED_EDGE('',*,*,#313,.T.);
#409=ORIENTED_EDGE('',*,*,#317,.T.);
#410=ORIENTED_EDGE('',*,*,#322,.T.);
#411=ORIENTED_EDGE('',*,*,#323,.T.);
#412=ORIENTED_EDGE('',*,*,#324,.T.);
#413=ORIENTED_EDGE('',*,*,#324,.F.);
#414=ORIENTED_EDGE('',*,*,#325,.F.);
#415=ORIENTED_EDGE('',*,*,#326,.F.);
#416=ORIENTED_EDGE('',*,*,#318,.F.);
#417=ORIENTED_EDGE('',*,*,#327,.F.);
#418=ORIENTED_EDGE('',*,*,#328,.F.);
#419=ORIENTED_EDGE('',*,*,#329,.F.);
#420=ORIENTED_EDGE('',*,*,#330,.F.);
#421=ORIENTED_EDGE('',*,*,#331,.F.);
#422=ORIENTED_EDGE('',*,*,#311,.F.);
#423=ORIENTED_EDGE('',*,*,#315,.F.);
#424=ORIENTED_EDGE('',*,*,#332,.F.);
#425=ORIENTED_EDGE('',*,*,#328,.T.);
#426=ORIENTED_EDGE('',*,*,#333,.F.);
#427=ORIENTED_EDGE('',*,*,#334,.F.);
#428=ORIENTED_EDGE('',*,*,#335,.F.);
#429=ORIENTED_EDGE('',*,*,#325,.T.);
#430=ORIENTED_EDGE('',*,*,#323,.F.);
#431=ORIENTED_EDGE('',*,*,#336,.F.);
#432=ORIENTED_EDGE('',*,*,#337,.F.);
#433=ORIENTED_EDGE('',*,*,#338,.F.);
#434=ORIENTED_EDGE('',*,*,#334,.T.);
#435=ORIENTED_EDGE('',*,*,#330,.T.);
#436=ORIENTED_EDGE('',*,*,#339,.F.);
#437=ORIENTED_EDGE('',*,*,#340,.T.);
#438=ORIENTED_EDGE('',*,*,#341,.T.);
#439=ORIENTED_EDGE('',*,*,#342,.T.);
#440=ORIENTED_EDGE('',*,*,#343,.T.);
#441=ORIENTED_EDGE('',*,*,#329,.T.);
#442=ORIENTED_EDGE('',*,*,#332,.T.);
#443=ORIENTED_EDGE('',*,*,#314,.T.);
#444=ORIENTED_EDGE('',*,*,#321,.F.);
#445=ORIENTED_EDGE('',*,*,#344,.F.);
#446=ORIENTED_EDGE('',*,*,#345,.T.);
#447=ORIENTED_EDGE('',*,*,#339,.T.);
#448=ORIENTED_EDGE('',*,*,#346,.F.);
#449=ORIENTED_EDGE('',*,*,#347,.F.);
#450=ORIENTED_EDGE('',*,*,#348,.F.);
#451=ORIENTED_EDGE('',*,*,#349,.T.);
#452=ORIENTED_EDGE('',*,*,#350,.T.);
#453=ORIENTED_EDGE('',*,*,#351,.F.);
#454=ORIENTED_EDGE('',*,*,#352,.T.);
#455=ORIENTED_EDGE('',*,*,#353,.F.);
#456=ORIENTED_EDGE('',*,*,#352,.F.);
#457=ORIENTED_EDGE('',*,*,#354,.F.);
#458=ORIENTED_EDGE('',*,*,#355,.T.);
#459=ORIENTED_EDGE('',*,*,#350,.F.);
#460=ORIENTED_EDGE('',*,*,#355,.F.);
#461=ORIENTED_EDGE('',*,*,#356,.F.);
#462=ORIENTED_EDGE('',*,*,#357,.F.);
#463=ORIENTED_EDGE('',*,*,#342,.F.);
#464=ORIENTED_EDGE('',*,*,#358,.F.);
#465=ORIENTED_EDGE('',*,*,#349,.F.);
#466=ORIENTED_EDGE('',*,*,#359,.F.);
#467=ORIENTED_EDGE('',*,*,#360,.F.);
#468=ORIENTED_EDGE('',*,*,#361,.F.);
#469=ORIENTED_EDGE('',*,*,#362,.F.);
#470=ORIENTED_EDGE('',*,*,#363,.F.);
#471=ORIENTED_EDGE('',*,*,#331,.T.);
#472=ORIENTED_EDGE('',*,*,#327,.T.);
#473=ORIENTED_EDGE('',*,*,#343,.F.);
#474=ORIENTED_EDGE('',*,*,#357,.T.);
#475=ORIENTED_EDGE('',*,*,#364,.F.);
#476=ORIENTED_EDGE('',*,*,#336,.T.);
#477=ORIENTED_EDGE('',*,*,#333,.T.);
#478=ORIENTED_EDGE('',*,*,#322,.F.);
#479=ORIENTED_EDGE('',*,*,#316,.F.);
#480=ORIENTED_EDGE('',*,*,#312,.F.);
#481=ORIENTED_EDGE('',*,*,#351,.T.);
#482=ORIENTED_EDGE('',*,*,#337,.T.);
#483=ORIENTED_EDGE('',*,*,#364,.T.);
#484=ORIENTED_EDGE('',*,*,#356,.T.);
#485=ORIENTED_EDGE('',*,*,#365,.F.);
#486=ORIENTED_EDGE('',*,*,#366,.T.);
#487=ORIENTED_EDGE('',*,*,#367,.T.);
#488=ORIENTED_EDGE('',*,*,#359,.T.);
#489=ORIENTED_EDGE('',*,*,#348,.T.);
#490=ORIENTED_EDGE('',*,*,#368,.F.);
#491=ORIENTED_EDGE('',*,*,#369,.F.);
#492=ORIENTED_EDGE('',*,*,#370,.T.);
#493=ORIENTED_EDGE('',*,*,#365,.T.);
#494=ORIENTED_EDGE('',*,*,#347,.T.);
#495=ORIENTED_EDGE('',*,*,#371,.T.);
#496=ORIENTED_EDGE('',*,*,#372,.T.);
#497=ORIENTED_EDGE('',*,*,#373,.T.);
#498=ORIENTED_EDGE('',*,*,#374,.T.);
#499=ORIENTED_EDGE('',*,*,#368,.T.);
#500=ORIENTED_EDGE('',*,*,#375,.F.);
#501=ORIENTED_EDGE('',*,*,#376,.T.);
#502=ORIENTED_EDGE('',*,*,#360,.T.);
#503=ORIENTED_EDGE('',*,*,#377,.F.);
#504=ORIENTED_EDGE('',*,*,#378,.F.);
#505=ORIENTED_EDGE('',*,*,#379,.T.);
#506=ORIENTED_EDGE('',*,*,#361,.T.);
#507=ORIENTED_EDGE('',*,*,#376,.F.);
#508=ORIENTED_EDGE('',*,*,#380,.F.);
#509=ORIENTED_EDGE('',*,*,#381,.T.);
#510=ORIENTED_EDGE('',*,*,#362,.T.);
#511=ORIENTED_EDGE('',*,*,#379,.F.);
#512=ORIENTED_EDGE('',*,*,#382,.F.);
#513=ORIENTED_EDGE('',*,*,#377,.T.);
#514=ORIENTED_EDGE('',*,*,#363,.T.);
#515=ORIENTED_EDGE('',*,*,#381,.F.);
#516=ORIENTED_EDGE('',*,*,#383,.T.);
#517=ORIENTED_EDGE('',*,*,#344,.T.);
#518=ORIENTED_EDGE('',*,*,#320,.F.);
#519=ORIENTED_EDGE('',*,*,#384,.F.);
#520=ORIENTED_EDGE('',*,*,#353,.T.);
#521=ORIENTED_EDGE('',*,*,#338,.T.);
#522=ORIENTED_EDGE('',*,*,#367,.F.);
#523=ORIENTED_EDGE('',*,*,#385,.T.);
#524=ORIENTED_EDGE('',*,*,#384,.T.);
#525=ORIENTED_EDGE('',*,*,#319,.F.);
#526=ORIENTED_EDGE('',*,*,#326,.T.);
#527=ORIENTED_EDGE('',*,*,#335,.T.);
#528=ORIENTED_EDGE('',*,*,#386,.T.);
#529=ORIENTED_EDGE('',*,*,#369,.T.);
#530=ORIENTED_EDGE('',*,*,#374,.F.);
#531=ORIENTED_EDGE('',*,*,#387,.F.);
#532=ORIENTED_EDGE('',*,*,#388,.T.);
#533=ORIENTED_EDGE('',*,*,#387,.T.);
#534=ORIENTED_EDGE('',*,*,#373,.F.);
#535=ORIENTED_EDGE('',*,*,#389,.F.);
#536=ORIENTED_EDGE('',*,*,#354,.T.);
#537=ORIENTED_EDGE('',*,*,#390,.T.);
#538=ORIENTED_EDGE('',*,*,#389,.T.);
#539=ORIENTED_EDGE('',*,*,#372,.F.);
#540=ORIENTED_EDGE('',*,*,#391,.F.);
#541=ORIENTED_EDGE('',*,*,#358,.T.);
#542=ORIENTED_EDGE('',*,*,#341,.F.);
#543=ORIENTED_EDGE('',*,*,#392,.T.);
#544=ORIENTED_EDGE('',*,*,#391,.T.);
#545=ORIENTED_EDGE('',*,*,#371,.F.);
#546=ORIENTED_EDGE('',*,*,#346,.T.);
#547=ORIENTED_EDGE('',*,*,#340,.F.);
#548=ORIENTED_EDGE('',*,*,#345,.F.);
#549=ORIENTED_EDGE('',*,*,#383,.F.);
#550=ORIENTED_EDGE('',*,*,#385,.F.);
#551=ORIENTED_EDGE('',*,*,#366,.F.);
#552=ORIENTED_EDGE('',*,*,#370,.F.);
#553=ORIENTED_EDGE('',*,*,#386,.F.);
#554=ORIENTED_EDGE('',*,*,#388,.F.);
#555=ORIENTED_EDGE('',*,*,#390,.F.);
#556=ORIENTED_EDGE('',*,*,#392,.F.);
#557=ORIENTED_EDGE('',*,*,#375,.T.);
#558=ORIENTED_EDGE('',*,*,#382,.T.);
#559=ORIENTED_EDGE('',*,*,#380,.T.);
#560=ORIENTED_EDGE('',*,*,#378,.T.);
#561=PLANE('',#642);
#562=PLANE('',#643);
#563=PLANE('',#644);
#564=PLANE('',#645);
#565=PLANE('',#646);
#566=PLANE('',#647);
#567=PLANE('',#648);
#568=PLANE('',#649);
#569=PLANE('',#650);
#570=PLANE('',#651);
#571=PLANE('',#652);
#572=PLANE('',#653);
#573=PLANE('',#660);
#574=PLANE('',#661);
#575=PLANE('',#662);
#576=PLANE('',#663);
#577=PLANE('',#664);
#578=PLANE('',#665);
#579=PLANE('',#666);
#580=PLANE('',#667);
#581=PLANE('',#668);
#582=PLANE('',#669);
#583=PLANE('',#670);
#584=PLANE('',#671);
#585=PLANE('',#672);
#586=PLANE('',#673);
#587=PLANE('',#674);
#588=PLANE('',#675);
#589=ADVANCED_FACE('',(#27),#561,.T.);
#590=ADVANCED_FACE('',(#28),#562,.F.);
#591=ADVANCED_FACE('',(#29),#563,.T.);
#592=ADVANCED_FACE('',(#30),#564,.T.);
#593=ADVANCED_FACE('',(#31),#565,.F.);
#594=ADVANCED_FACE('',(#32),#566,.F.);
#595=ADVANCED_FACE('',(#33),#567,.F.);
#596=ADVANCED_FACE('',(#34),#568,.F.);
#597=ADVANCED_FACE('',(#35),#569,.F.);
#598=ADVANCED_FACE('',(#36),#570,.T.);
#599=ADVANCED_FACE('',(#37),#571,.T.);
#600=ADVANCED_FACE('',(#38,#17),#572,.F.);
#601=ADVANCED_FACE('',(#39),#15,.F.);
#602=ADVANCED_FACE('',(#40),#16,.F.);
#603=ADVANCED_FACE('',(#41,#18),#573,.F.);
#604=ADVANCED_FACE('',(#42,#19),#574,.F.);
#605=ADVANCED_FACE('',(#43),#575,.T.);
#606=ADVANCED_FACE('',(#44),#576,.T.);
#607=ADVANCED_FACE('',(#45),#577,.T.);
#608=ADVANCED_FACE('',(#46),#578,.F.);
#609=ADVANCED_FACE('',(#47),#579,.F.);
#610=ADVANCED_FACE('',(#48),#580,.F.);
#611=ADVANCED_FACE('',(#49),#581,.F.);
#612=ADVANCED_FACE('',(#50,#20),#582,.T.);
#613=ADVANCED_FACE('',(#51),#583,.T.);
#614=ADVANCED_FACE('',(#52),#584,.T.);
#615=ADVANCED_FACE('',(#53,#21),#585,.T.);
#616=ADVANCED_FACE('',(#54),#586,.T.);
#617=ADVANCED_FACE('',(#55),#587,.T.);
#618=ADVANCED_FACE('',(#56,#22),#588,.F.);
#619=CLOSED_SHELL('',(#589,#590,#591,#592,#593,#594,#595,#596,#597,#598,
#599,#600,#601,#602,#603,#604,#605,#606,#607,#608,#609,#610,#611,#612,#613,
#614,#615,#616,#617,#618));
#620=DERIVED_UNIT_ELEMENT(#623,1.);
#621=DERIVED_UNIT_ELEMENT(#1002,-3.);
#622=DIMENSIONAL_EXPONENTS(0.,1.,0.,0.,0.,0.,0.);
#623=(
CONVERSION_BASED_UNIT('gram',#625)
MASS_UNIT()
NAMED_UNIT(#622)
);
#624=(
MASS_UNIT()
NAMED_UNIT(*)
SI_UNIT(.KILO.,.GRAM.)
);
#625=MASS_MEASURE_WITH_UNIT(MASS_MEASURE(0.001),#624);
#626=DERIVED_UNIT((#620,#621));
#627=MEASURE_REPRESENTATION_ITEM('density measure',
POSITIVE_RATIO_MEASURE(1.),#626);
#628=PROPERTY_DEFINITION_REPRESENTATION(#633,#630);
#629=PROPERTY_DEFINITION_REPRESENTATION(#634,#631);
#630=REPRESENTATION('material name',(#632),#999);
#631=REPRESENTATION('density',(#627),#999);
#632=DESCRIPTIVE_REPRESENTATION_ITEM('Generic','Generic');
#633=PROPERTY_DEFINITION('material property','material name',#1009);
#634=PROPERTY_DEFINITION('material property','density of part',#1009);
#635=DATE_TIME_ROLE('creation_date');
#636=APPLIED_DATE_AND_TIME_ASSIGNMENT(#637,#635,(#1009));
#637=DATE_AND_TIME(#638,#639);
#638=CALENDAR_DATE(2026,14,7);
#639=LOCAL_TIME(0,0,0.,#640);
#640=COORDINATED_UNIVERSAL_TIME_OFFSET(0,0,.BEHIND.);
#641=AXIS2_PLACEMENT_3D('',#826,#676,#677);
#642=AXIS2_PLACEMENT_3D('',#827,#678,#679);
#643=AXIS2_PLACEMENT_3D('',#836,#684,#685);
#644=AXIS2_PLACEMENT_3D('',#842,#689,#690);
#645=AXIS2_PLACEMENT_3D('',#854,#697,#698);
#646=AXIS2_PLACEMENT_3D('',#860,#702,#703);
#647=AXIS2_PLACEMENT_3D('',#864,#706,#707);
#648=AXIS2_PLACEMENT_3D('',#873,#712,#713);
#649=AXIS2_PLACEMENT_3D('',#876,#716,#717);
#650=AXIS2_PLACEMENT_3D('',#882,#721,#722);
#651=AXIS2_PLACEMENT_3D('',#888,#726,#727);
#652=AXIS2_PLACEMENT_3D('',#898,#733,#734);
#653=AXIS2_PLACEMENT_3D('',#902,#737,#738);
#654=AXIS2_PLACEMENT_3D('',#912,#743,#744);
#655=AXIS2_PLACEMENT_3D('',#913,#745,#746);
#656=AXIS2_PLACEMENT_3D('',#915,#747,#748);
#657=AXIS2_PLACEMENT_3D('',#918,#750,#751);
#658=AXIS2_PLACEMENT_3D('',#919,#752,#753);
#659=AXIS2_PLACEMENT_3D('',#921,#754,#755);
#660=AXIS2_PLACEMENT_3D('',#923,#757,#758);
#661=AXIS2_PLACEMENT_3D('',#938,#767,#768);
#662=AXIS2_PLACEMENT_3D('',#940,#770,#771);
#663=AXIS2_PLACEMENT_3D('',#946,#775,#776);
#664=AXIS2_PLACEMENT_3D('',#952,#780,#781);
#665=AXIS2_PLACEMENT_3D('',#960,#786,#787);
#666=AXIS2_PLACEMENT_3D('',#966,#791,#792);
#667=AXIS2_PLACEMENT_3D('',#970,#795,#796);
#668=AXIS2_PLACEMENT_3D('',#974,#799,#800);
#669=AXIS2_PLACEMENT_3D('',#976,#802,#803);
#670=AXIS2_PLACEMENT_3D('',#980,#806,#807);
#671=AXIS2_PLACEMENT_3D('',#982,#809,#810);
#672=AXIS2_PLACEMENT_3D('',#986,#813,#814);
#673=AXIS2_PLACEMENT_3D('',#990,#817,#818);
#674=AXIS2_PLACEMENT_3D('',#994,#821,#822);
#675=AXIS2_PLACEMENT_3D('',#996,#824,#825);
#676=DIRECTION('axis',(0.,0.,1.));
#677=DIRECTION('refdir',(1.,0.,0.));
#678=DIRECTION('center_axis',(-0.707106781186547,-0.707106781186548,2.24722470919603E-16));
#679=DIRECTION('ref_axis',(3.17805566144496E-16,0.,1.));
#680=DIRECTION('',(-0.707106781186548,0.707106781186547,0.));
#681=DIRECTION('',(-3.17805566144496E-16,0.,-1.));
#682=DIRECTION('',(-0.577350269189626,0.577350269189625,-0.577350269189626));
#683=DIRECTION('',(3.17805566144496E-16,0.,1.));
#684=DIRECTION('center_axis',(1.,0.,-3.17805566144496E-16));
#685=DIRECTION('ref_axis',(3.17805566144496E-16,0.,1.));
#686=DIRECTION('',(0.,-1.,0.));
#687=DIRECTION('',(3.17805566144496E-16,1.76749768730328E-16,1.));
#688=DIRECTION('',(0.,-1.,0.));
#689=DIRECTION('center_axis',(0.,0.,1.));
#690=DIRECTION('ref_axis',(1.,0.,0.));
#691=DIRECTION('',(1.,0.,0.));
#692=DIRECTION('',(-0.707106781186548,-0.707106781186546,0.));
#693=DIRECTION('',(0.,1.,0.));
#694=DIRECTION('',(-0.873934067238945,0.48604448985581,0.));
#695=DIRECTION('',(-1.,0.,0.));
#696=DIRECTION('',(-0.873934067238945,-0.48604448985581,0.));
#697=DIRECTION('center_axis',(0.707106781186547,-0.707106781186549,-1.97951177754745E-16));
#698=DIRECTION('ref_axis',(-2.79945240268488E-16,0.,-1.));
#699=DIRECTION('',(-2.79945240268488E-16,0.,-1.));
#700=DIRECTION('',(-0.577350269189626,-0.577350269189625,0.577350269189626));
#701=DIRECTION('',(2.79945240268488E-16,0.,1.));
#702=DIRECTION('center_axis',(-1.,0.,2.79945240268488E-16));
#703=DIRECTION('ref_axis',(-2.79945240268488E-16,0.,-1.));
#704=DIRECTION('',(0.,-1.,0.));
#705=DIRECTION('',(-2.79945240268488E-16,1.55693486035781E-16,-1.));
#706=DIRECTION('center_axis',(-3.45485367125747E-16,0.,-1.));
#707=DIRECTION('ref_axis',(1.,0.,-3.45485367125747E-16));
#708=DIRECTION('',(-1.,0.,3.45485367125747E-16));
#709=DIRECTION('',(0.,-1.,0.));
#710=DIRECTION('',(0.873934067238945,0.48604448985581,-3.01931432063745E-16));
#711=DIRECTION('',(0.566243171335912,0.824238236746785,-1.95628729931435E-16));
#712=DIRECTION('center_axis',(0.707106781186547,0.,-0.707106781186548));
#713=DIRECTION('ref_axis',(0.707106781186548,0.,0.707106781186547));
#714=DIRECTION('',(-0.707106781186548,0.,-0.707106781186547));
#715=DIRECTION('',(0.658049906504623,0.365979017292679,0.658049906504623));
#716=DIRECTION('center_axis',(-0.707106781186548,0.,-0.707106781186547));
#717=DIRECTION('ref_axis',(0.707106781186547,0.,-0.707106781186548));
#718=DIRECTION('',(-0.707106781186547,0.,0.707106781186548));
#719=DIRECTION('',(0.,-1.,0.));
#720=DIRECTION('',(0.658049906504623,-0.365979017292679,-0.658049906504623));
#721=DIRECTION('center_axis',(0.,0.,-1.));
#722=DIRECTION('ref_axis',(1.,0.,0.));
#723=DIRECTION('',(-1.,0.,0.));
#724=DIRECTION('',(0.566243171415679,-0.824238236691986,0.));
#725=DIRECTION('',(0.873934067238945,-0.48604448985581,0.));
#726=DIRECTION('center_axis',(-0.824238236746785,0.566243171335912,0.));
#727=DIRECTION('ref_axis',(-0.566243171335912,-0.824238236746785,0.));
#728=DIRECTION('',(0.,0.,1.));
#729=DIRECTION('',(-0.566243171335912,-0.824238236746785,0.));
#730=DIRECTION('',(0.,0.,1.));
#731=DIRECTION('',(0.566243171335912,0.824238236746785,0.));
#732=DIRECTION('',(0.,0.,1.));
#733=DIRECTION('center_axis',(-0.486044489855811,0.873934067238945,0.));
#734=DIRECTION('ref_axis',(-0.873934067238945,-0.48604448985581,0.));
#735=DIRECTION('',(0.,0.,1.));
#736=DIRECTION('',(-0.873934067238945,-0.48604448985581,0.));
#737=DIRECTION('center_axis',(-1.14777248191851E-16,-1.,0.));
#738=DIRECTION('ref_axis',(1.,-1.14777248191851E-16,0.));
#739=DIRECTION('',(0.,0.,-1.));
#740=DIRECTION('',(-1.,1.14777248191851E-16,0.));
#741=DIRECTION('',(0.,0.,1.));
#742=DIRECTION('',(-1.,1.14777248191851E-16,0.));
#743=DIRECTION('center_axis',(-1.14777248191851E-16,-1.,0.));
#744=DIRECTION('ref_axis',(1.,9.55917883284606E-12,0.));
#745=DIRECTION('center_axis',(-9.55917883284606E-12,1.,0.));
#746=DIRECTION('ref_axis',(1.,9.55917883284606E-12,0.));
#747=DIRECTION('center_axis',(0.,1.,0.));
#748=DIRECTION('ref_axis',(1.,9.55917883284606E-12,0.));
#749=DIRECTION('',(-9.55917883284606E-12,1.,0.));
#750=DIRECTION('center_axis',(0.,-1.,0.));
#751=DIRECTION('ref_axis',(1.,9.55917883284606E-12,0.));
#752=DIRECTION('center_axis',(-9.55917883284606E-12,1.,0.));
#753=DIRECTION('ref_axis',(1.,9.55917883284606E-12,0.));
#754=DIRECTION('center_axis',(-9.5591686090422E-12,1.,0.));
#755=DIRECTION('ref_axis',(1.,9.55917883284606E-12,0.));
#756=DIRECTION('',(-9.55917883284606E-12,1.,0.));
#757=DIRECTION('center_axis',(0.,0.,-1.));
#758=DIRECTION('ref_axis',(-1.,0.,0.));
#759=DIRECTION('',(0.566243171415679,-0.824238236691986,0.));
#760=DIRECTION('',(1.,0.,0.));
#761=DIRECTION('',(0.,1.,0.));
#762=DIRECTION('',(2.62310207718366E-11,-1.,0.));
#763=DIRECTION('',(-1.,0.,0.));
#764=DIRECTION('',(2.77555756156289E-16,1.,0.));
#765=DIRECTION('',(1.,-1.24744160070242E-16,0.));
#766=DIRECTION('',(0.,-1.,0.));
#767=DIRECTION('center_axis',(0.,1.,0.));
#768=DIRECTION('ref_axis',(-1.,0.,0.));
#769=DIRECTION('',(0.,0.,-1.));
#770=DIRECTION('center_axis',(0.824238236691986,0.566243171415679,0.));
#771=DIRECTION('ref_axis',(-0.566243171415679,0.824238236691986,0.));
#772=DIRECTION('',(0.,0.,1.));
#773=DIRECTION('',(-0.566243171415679,0.824238236691986,0.));
#774=DIRECTION('',(0.,0.,1.));
#775=DIRECTION('center_axis',(1.,2.62310207718366E-11,0.));
#776=DIRECTION('ref_axis',(-2.62310207718366E-11,1.,0.));
#777=DIRECTION('',(-2.62310207718366E-11,1.,0.));
#778=DIRECTION('',(0.,0.,1.));
#779=DIRECTION('',(-2.62310207718366E-11,1.,0.));
#780=DIRECTION('center_axis',(0.,0.,1.));
#781=DIRECTION('ref_axis',(1.,0.,0.));
#782=DIRECTION('',(0.,-1.,0.));
#783=DIRECTION('',(0.707106781258829,-0.707106781114266,0.));
#784=DIRECTION('',(1.,9.5591686090422E-12,0.));
#785=DIRECTION('',(0.707106781132533,0.707106781240562,0.));
#786=DIRECTION('center_axis',(0.,1.,0.));
#787=DIRECTION('ref_axis',(-1.,0.,0.));
#788=DIRECTION('',(-1.,0.,0.));
#789=DIRECTION('',(0.,0.,1.));
#790=DIRECTION('',(0.,0.,1.));
#791=DIRECTION('center_axis',(1.,-2.77555756156289E-16,0.));
#792=DIRECTION('ref_axis',(2.77555756156289E-16,1.,0.));
#793=DIRECTION('',(2.77555756156289E-16,1.,0.));
#794=DIRECTION('',(0.,0.,1.));
#795=DIRECTION('center_axis',(-1.24744160070242E-16,-1.,0.));
#796=DIRECTION('ref_axis',(1.,-1.24744160070242E-16,0.));
#797=DIRECTION('',(1.,-1.24744160070242E-16,0.));
#798=DIRECTION('',(0.,0.,1.));
#799=DIRECTION('center_axis',(-1.,0.,0.));
#800=DIRECTION('ref_axis',(0.,-1.,0.));
#801=DIRECTION('',(0.,-1.,0.));
#802=DIRECTION('center_axis',(0.,1.,0.));
#803=DIRECTION('ref_axis',(-1.,0.,0.));
#804=DIRECTION('',(-1.,0.,0.));
#805=DIRECTION('',(0.,0.,1.));
#806=DIRECTION('center_axis',(0.486044489855811,0.873934067238945,0.));
#807=DIRECTION('ref_axis',(-0.873934067238945,0.48604448985581,0.));
#808=DIRECTION('',(-0.873934067238945,0.48604448985581,0.));
#809=DIRECTION('center_axis',(0.707106781240562,-0.707106781132533,0.));
#810=DIRECTION('ref_axis',(0.707106781132533,0.707106781240562,0.));
#811=DIRECTION('',(0.707106781132533,0.707106781240562,0.));
#812=DIRECTION('',(0.,0.,1.));
#813=DIRECTION('center_axis',(9.5591686090422E-12,-1.,0.));
#814=DIRECTION('ref_axis',(1.,9.5591686090422E-12,0.));
#815=DIRECTION('',(1.,9.5591686090422E-12,0.));
#816=DIRECTION('',(0.,0.,1.));
#817=DIRECTION('center_axis',(-0.707106781114266,-0.707106781258829,0.));
#818=DIRECTION('ref_axis',(0.707106781258829,-0.707106781114266,0.));
#819=DIRECTION('',(0.707106781258829,-0.707106781114266,0.));
#820=DIRECTION('',(0.,0.,1.));
#821=DIRECTION('center_axis',(-1.,0.,0.));
#822=DIRECTION('ref_axis',(0.,-1.,0.));
#823=DIRECTION('',(0.,-1.,0.));
#824=DIRECTION('center_axis',(0.,0.,1.));
#825=DIRECTION('ref_axis',(1.,0.,0.));
#826=CARTESIAN_POINT('',(0.,0.,0.));
#827=CARTESIAN_POINT('Origin',(-12.4222136959227,6.70888431602812,8.9));
#828=CARTESIAN_POINT('',(-11.9222136959227,6.20888431602812,42.8));
#829=CARTESIAN_POINT('',(-12.9222136959227,7.20888431602812,42.8));
#830=CARTESIAN_POINT('',(-11.1861293063763,5.47279992648171,42.8));
#831=CARTESIAN_POINT('',(-12.9222136959227,7.20888431602812,13.));
#832=CARTESIAN_POINT('',(-12.9222136959227,7.20888431602812,8.9));
#833=CARTESIAN_POINT('',(-11.9222136959227,6.20888431602812,14.));
#834=CARTESIAN_POINT('',(-15.787624677214,10.0742952973194,10.1345890187087));
#835=CARTESIAN_POINT('',(-11.9222136959227,6.20888431602812,8.9));
#836=CARTESIAN_POINT('Origin',(-12.9222136959227,13.301350203776,13.));
#837=CARTESIAN_POINT('',(-12.9222136959227,12.5481795041111,42.8));
#838=CARTESIAN_POINT('',(-12.9222136959227,9.63758984991276,42.8));
#839=CARTESIAN_POINT('',(-12.9222136959227,12.5481795041111,13.));
#840=CARTESIAN_POINT('',(-12.9222136959227,12.5481795041111,6.5));
#841=CARTESIAN_POINT('',(-12.9222136959227,13.301350203776,13.));
#842=CARTESIAN_POINT('Origin',(-8.21293095771558,5.97382949604955,42.8));
#843=CARTESIAN_POINT('',(-4.50364821937288,6.20888431602812,42.8));
#844=CARTESIAN_POINT('',(0.268044072116604,6.20888431602812,42.8));
#845=CARTESIAN_POINT('',(-3.50364821937288,7.20888431602812,42.8));
#846=CARTESIAN_POINT('',(-5.2397326089532,5.47279992644781,42.8));
#847=CARTESIAN_POINT('',(-3.50364821937288,12.5481795039044,42.8));
#848=CARTESIAN_POINT('',(-3.50364821937288,9.63758984991276,42.8));
#849=CARTESIAN_POINT('',(-4.85788954254725,13.301350203776,42.8));
#850=CARTESIAN_POINT('',(3.20422632938778,8.81754857270658,42.8));
#851=CARTESIAN_POINT('',(-11.5679723731199,13.301350203776,42.8));
#852=CARTESIAN_POINT('',(-4.85788954254725,13.301350203776,42.8));
#853=CARTESIAN_POINT('',(-11.5679723731199,13.301350203776,42.8));
#854=CARTESIAN_POINT('Origin',(-4.00364821937289,6.70888431602812,24.7634313419349));
#855=CARTESIAN_POINT('',(-4.50364821937289,6.20888431602812,14.));
#856=CARTESIAN_POINT('',(-4.50364821937289,6.20888431602812,24.7634313419349));
#857=CARTESIAN_POINT('',(-3.50364821937289,7.20888431602812,13.));
#858=CARTESIAN_POINT('',(-4.61547579507073,6.09705674033028,14.1118275756978));
#859=CARTESIAN_POINT('',(-3.50364821937289,7.20888431602812,24.7634313419349));
#860=CARTESIAN_POINT('Origin',(-3.50364821937288,13.301350203776,44.7268626838698));
#861=CARTESIAN_POINT('',(-3.50364821937289,12.5481795039044,13.));
#862=CARTESIAN_POINT('',(-3.50364821937289,13.301350203776,13.));
#863=CARTESIAN_POINT('',(-3.50364821937289,12.5481795039044,22.3634313419349));
#864=CARTESIAN_POINT('Origin',(-23.3492472566296,13.301350203776,9.00000000000001));
#865=CARTESIAN_POINT('',(-16.9222136959227,6.20888431602812,9.));
#866=CARTESIAN_POINT('',(-21.4222136959227,6.20888431602812,9.));
#867=CARTESIAN_POINT('',(-7.30011407734039,6.20888431602812,9.));
#868=CARTESIAN_POINT('',(-16.9222136959227,10.3235517749672,9.));
#869=CARTESIAN_POINT('',(-16.9222136959227,13.301350203776,9.));
#870=CARTESIAN_POINT('',(-19.630088245055,8.81754857270658,9.));
#871=CARTESIAN_POINT('',(-16.0670100664731,10.7991792020018,9.));
#872=CARTESIAN_POINT('',(-19.1799893745188,9.47272415484597,9.));
#873=CARTESIAN_POINT('Origin',(-16.9222136959227,13.301350203776,9.));
#874=CARTESIAN_POINT('',(-11.5544054964548,6.20888431602812,14.3678081994679));
#875=CARTESIAN_POINT('',(-16.9944240362211,10.2833914936276,8.92778965970162));
#876=CARTESIAN_POINT('Origin',(-3.50364821937289,13.301350203776,13.));
#877=CARTESIAN_POINT('',(0.496351780627107,6.20888431602812,9.));
#878=CARTESIAN_POINT('',(1.60951861095753,6.20888431602812,7.88683316966958));
#879=CARTESIAN_POINT('',(0.496351780627107,10.3235517747606,9.));
#880=CARTESIAN_POINT('',(0.496351780627107,13.301350203776,9.));
#881=CARTESIAN_POINT('',(1.12193361310042,9.97563010191838,8.37441816752669));
#882=CARTESIAN_POINT('Origin',(0.496351780627107,13.301350203776,9.));
#883=CARTESIAN_POINT('',(4.99635178062711,6.20888431602812,9.));
#884=CARTESIAN_POINT('',(4.62268544128795,6.20888431602812,9.));
#885=CARTESIAN_POINT('',(3.20422632938778,8.81754857270658,9.));
#886=CARTESIAN_POINT('',(2.66519465875254,9.60217704357139,9.));
#887=CARTESIAN_POINT('',(1.21784808814397,9.92228660171634,9.));
#888=CARTESIAN_POINT('Origin',(-19.630088245055,8.81754857270658,0.));
#889=CARTESIAN_POINT('',(-19.630088245055,8.81754857270658,0.));
#890=CARTESIAN_POINT('',(-19.630088245055,8.81754857270658,0.));
#891=CARTESIAN_POINT('',(-21.5129309576879,6.07683391848695,0.));
#892=CARTESIAN_POINT('',(-19.630088245055,8.81754857270658,0.));
#893=CARTESIAN_POINT('',(-21.5129309576879,6.07683391848695,4.8));
#894=CARTESIAN_POINT('',(-21.5129309576879,6.07683391848695,0.));
#895=CARTESIAN_POINT('',(-21.4222136959227,6.20888431602812,4.8));
#896=CARTESIAN_POINT('',(-18.9280301273991,9.83948256552674,4.8));
#897=CARTESIAN_POINT('',(-21.4222136959227,6.20888431602812,2.4));
#898=CARTESIAN_POINT('Origin',(-11.5679723731199,13.301350203776,0.));
#899=CARTESIAN_POINT('',(-11.5679723731199,13.301350203776,0.));
#900=CARTESIAN_POINT('',(-11.5679723731199,13.301350203776,0.));
#901=CARTESIAN_POINT('',(-11.5679723731199,13.301350203776,0.));
#902=CARTESIAN_POINT('Origin',(-25.1059534418514,1.70888431602813,4.8));
#903=CARTESIAN_POINT('',(-21.5129309576879,1.70888431602812,42.8));
#904=CARTESIAN_POINT('',(-21.5129309576879,1.70888431602813,4.8));
#905=CARTESIAN_POINT('',(-21.5129309576879,1.70888431602812,2.4));
#906=CARTESIAN_POINT('',(5.08706904222583,1.70888431602812,42.8));
#907=CARTESIAN_POINT('',(-16.6594421997835,1.70888431602812,42.8));
#908=CARTESIAN_POINT('',(5.08706904222583,1.70888431602812,4.8));
#909=CARTESIAN_POINT('',(5.08706904222583,1.70888431602812,2.4));
#910=CARTESIAN_POINT('',(8.74901910194879,1.70888431602812,4.8));
#911=CARTESIAN_POINT('',(-9.86293095776564,1.70888431617384,39.8));
#912=CARTESIAN_POINT('Origin',(-8.21293095776564,1.70888431618961,39.8));
#913=CARTESIAN_POINT('Origin',(-8.21293095773636,-1.35369121156775,39.8));
#914=CARTESIAN_POINT('',(-9.86293095780866,6.20888431585021,39.8));
#915=CARTESIAN_POINT('Origin',(-8.21293095780866,6.20888431586598,39.8));
#916=CARTESIAN_POINT('',(-9.86293095787645,13.3013502037281,39.8));
#917=CARTESIAN_POINT('',(-9.86293095773636,-1.35369121158352,39.8));
#918=CARTESIAN_POINT('Origin',(-8.21293095787645,13.3013502037439,39.8));
#919=CARTESIAN_POINT('Origin',(-8.21293095773636,-1.35369121156775,39.8));
#920=CARTESIAN_POINT('',(-9.86293095773636,-1.35369121158352,39.8));
#921=CARTESIAN_POINT('Origin',(-8.21293095773636,-1.35369121156775,39.8));
#922=CARTESIAN_POINT('',(-9.86293095773636,-1.35369121158352,39.8));
#923=CARTESIAN_POINT('Origin',(-8.17846716995133,3.95888431602812,4.8));
#924=CARTESIAN_POINT('',(4.99635178062711,6.20888431602812,4.8));
#925=CARTESIAN_POINT('',(5.08706904211125,6.07683391892351,4.8));
#926=CARTESIAN_POINT('',(3.45463973777782,8.45304032502316,4.8));
#927=CARTESIAN_POINT('',(-25.1059534418514,6.20888431602812,4.8));
#928=CARTESIAN_POINT('',(-21.5129309576879,5.01785911725754,4.8));
#929=CARTESIAN_POINT('',(5.08706904221179,2.24401790888603,4.8));
#930=CARTESIAN_POINT('',(-3.69058967681374,5.95109506793063,4.8));
#931=CARTESIAN_POINT('',(-12.5905896768137,5.95109506793063,4.8));
#932=CARTESIAN_POINT('',(-12.5905896768137,5.95109506793063,4.8));
#933=CARTESIAN_POINT('',(-3.69058967681374,1.95109506793063,4.8));
#934=CARTESIAN_POINT('',(-3.69058967681374,5.95109506793063,4.8));
#935=CARTESIAN_POINT('',(-12.5905896768137,1.95109506793063,4.8));
#936=CARTESIAN_POINT('',(-3.69058967681374,1.95109506793063,4.8));
#937=CARTESIAN_POINT('',(-12.5905896768137,1.95109506793063,4.8));
#938=CARTESIAN_POINT('Origin',(8.74901910194879,6.20888431602812,4.8));
#939=CARTESIAN_POINT('',(4.99635178062711,6.20888431602812,2.4));
#940=CARTESIAN_POINT('Origin',(5.08706904211125,6.07683391892351,0.));
#941=CARTESIAN_POINT('',(5.08706904211125,6.07683391892351,0.));
#942=CARTESIAN_POINT('',(5.08706904211125,6.07683391892351,0.));
#943=CARTESIAN_POINT('',(3.20422632938778,8.81754857270658,0.));
#944=CARTESIAN_POINT('',(5.08706904211125,6.07683391892351,0.));
#945=CARTESIAN_POINT('',(3.20422632938778,8.81754857270658,0.));
#946=CARTESIAN_POINT('Origin',(5.08706904225678,0.529151501395972,0.));
#947=CARTESIAN_POINT('',(5.08706904225678,0.529151501395972,42.8));
#948=CARTESIAN_POINT('',(5.08706904225678,0.529151501395972,42.8));
#949=CARTESIAN_POINT('',(5.08706904225678,0.529151501395972,0.));
#950=CARTESIAN_POINT('',(5.08706904225678,0.529151501395972,0.));
#951=CARTESIAN_POINT('',(5.08706904225678,0.529151501395972,0.));
#952=CARTESIAN_POINT('Origin',(-8.21293095771558,5.97382949604955,42.8));
#953=CARTESIAN_POINT('',(-21.5129309576879,0.529151500668377,42.8));
#954=CARTESIAN_POINT('',(-21.5129309576879,6.07683391848695,42.8));
#955=CARTESIAN_POINT('',(-19.6300882449577,-1.35369121167689,42.8));
#956=CARTESIAN_POINT('',(-21.5129309576879,0.529151500668377,42.8));
#957=CARTESIAN_POINT('',(3.20422632968985,-1.35369121145861,42.8));
#958=CARTESIAN_POINT('',(-19.6300882449577,-1.35369121167689,42.8));
#959=CARTESIAN_POINT('',(3.20422632968985,-1.35369121145861,42.8));
#960=CARTESIAN_POINT('Origin',(-3.69058967681374,5.95109506793063,0.));
#961=CARTESIAN_POINT('',(-3.69058967681374,5.95109506793063,0.));
#962=CARTESIAN_POINT('',(-12.5905896768137,5.95109506793063,0.));
#963=CARTESIAN_POINT('',(-5.95176031726466,5.95109506793063,0.));
#964=CARTESIAN_POINT('',(-3.69058967681374,5.95109506793063,0.));
#965=CARTESIAN_POINT('',(-12.5905896768137,5.95109506793063,0.));
#966=CARTESIAN_POINT('Origin',(-3.69058967681374,1.95109506793063,0.));
#967=CARTESIAN_POINT('',(-3.69058967681374,1.95109506793063,0.));
#968=CARTESIAN_POINT('',(-3.69058967681374,3.96246228199009,0.));
#969=CARTESIAN_POINT('',(-3.69058967681374,1.95109506793063,0.));
#970=CARTESIAN_POINT('Origin',(-12.5905896768137,1.95109506793063,0.));
#971=CARTESIAN_POINT('',(-12.5905896768137,1.95109506793063,0.));
#972=CARTESIAN_POINT('',(-10.4017603172647,1.95109506793063,0.));
#973=CARTESIAN_POINT('',(-12.5905896768137,1.95109506793063,0.));
#974=CARTESIAN_POINT('Origin',(-12.5905896768137,5.95109506793063,0.));
#975=CARTESIAN_POINT('',(-12.5905896768137,5.96246228199009,0.));
#976=CARTESIAN_POINT('Origin',(-4.85788954254725,13.301350203776,0.));
#977=CARTESIAN_POINT('',(-4.85788954254725,13.301350203776,0.));
#978=CARTESIAN_POINT('',(-4.85788954254725,13.301350203776,0.));
#979=CARTESIAN_POINT('',(-4.85788954254725,13.301350203776,0.));
#980=CARTESIAN_POINT('Origin',(3.20422632938778,8.81754857270658,0.));
#981=CARTESIAN_POINT('',(3.20422632938778,8.81754857270658,0.));
#982=CARTESIAN_POINT('Origin',(3.20422632968985,-1.35369121145861,0.));
#983=CARTESIAN_POINT('',(3.20422632968985,-1.35369121145861,0.));
#984=CARTESIAN_POINT('',(3.20422632968985,-1.35369121145861,0.));
#985=CARTESIAN_POINT('',(3.20422632968985,-1.35369121145861,0.));
#986=CARTESIAN_POINT('Origin',(-19.6300882449577,-1.35369121167689,0.));
#987=CARTESIAN_POINT('',(-19.6300882449577,-1.35369121167689,0.));
#988=CARTESIAN_POINT('',(-19.6300882449577,-1.35369121167689,0.));
#989=CARTESIAN_POINT('',(-19.6300882449577,-1.35369121167689,0.));
#990=CARTESIAN_POINT('Origin',(-21.5129309576879,0.529151500668377,0.));
#991=CARTESIAN_POINT('',(-21.5129309576879,0.529151500668377,0.));
#992=CARTESIAN_POINT('',(-21.5129309576879,0.529151500668377,0.));
#993=CARTESIAN_POINT('',(-21.5129309576879,0.529151500668377,0.));
#994=CARTESIAN_POINT('Origin',(-21.5129309576879,6.07683391848695,0.));
#995=CARTESIAN_POINT('',(-21.5129309576879,6.07683391848695,0.));
#996=CARTESIAN_POINT('Origin',(-8.21293095771558,5.97382949604955,0.));
#997=UNCERTAINTY_MEASURE_WITH_UNIT(LENGTH_MEASURE(0.01),#1001,
'DISTANCE_ACCURACY_VALUE',
'Maximum model space distance between geometric entities at asserted c
onnectivities');
#998=UNCERTAINTY_MEASURE_WITH_UNIT(LENGTH_MEASURE(0.01),#1001,
'DISTANCE_ACCURACY_VALUE',
'Maximum model space distance between geometric entities at asserted c
onnectivities');
#999=(
GEOMETRIC_REPRESENTATION_CONTEXT(3)
GLOBAL_UNCERTAINTY_ASSIGNED_CONTEXT((#997))
GLOBAL_UNIT_ASSIGNED_CONTEXT((#1001,#1003,#1004))
REPRESENTATION_CONTEXT('','3D')
);
#1000=(
GEOMETRIC_REPRESENTATION_CONTEXT(3)
GLOBAL_UNCERTAINTY_ASSIGNED_CONTEXT((#998))
GLOBAL_UNIT_ASSIGNED_CONTEXT((#1001,#1003,#1004))
REPRESENTATION_CONTEXT('','3D')
);
#1001=(
LENGTH_UNIT()
NAMED_UNIT(*)
SI_UNIT(.MILLI.,.METRE.)
);
#1002=(
LENGTH_UNIT()
NAMED_UNIT(*)
SI_UNIT(.CENTI.,.METRE.)
);
#1003=(
NAMED_UNIT(*)
PLANE_ANGLE_UNIT()
SI_UNIT($,.RADIAN.)
);
#1004=(
NAMED_UNIT(*)
SI_UNIT($,.STERADIAN.)
SOLID_ANGLE_UNIT()
);
#1005=SHAPE_DEFINITION_REPRESENTATION(#1006,#1007);
#1006=PRODUCT_DEFINITION_SHAPE('',$,#1009);
#1007=SHAPE_REPRESENTATION('',(#641),#999);
#1008=PRODUCT_DEFINITION_CONTEXT('part definition',#1013,'design');
#1009=PRODUCT_DEFINITION('charge_port_plug','charge_port_plug',#1010,#1008);
#1010=PRODUCT_DEFINITION_FORMATION('',$,#1015);
#1011=PRODUCT_RELATED_PRODUCT_CATEGORY('charge_port_plug',
'charge_port_plug',(#1015));
#1012=APPLICATION_PROTOCOL_DEFINITION('international standard',
'automotive_design',2009,#1013);
#1013=APPLICATION_CONTEXT(
'Core Data for Automotive Mechanical Design Process');
#1014=PRODUCT_CONTEXT('part definition',#1013,'mechanical');
#1015=PRODUCT('charge_port_plug','charge_port_plug',$,(#1014));
#1016=PRESENTATION_STYLE_ASSIGNMENT((#1017));
#1017=SURFACE_STYLE_USAGE(.BOTH.,#1020);
#1018=SURFACE_STYLE_RENDERING_WITH_PROPERTIES($,#1024,(#1019));
#1019=SURFACE_STYLE_TRANSPARENT(0.);
#1020=SURFACE_SIDE_STYLE('',(#1021,#1018));
#1021=SURFACE_STYLE_FILL_AREA(#1022);
#1022=FILL_AREA_STYLE('',(#1023));
#1023=FILL_AREA_STYLE_COLOUR('',#1024);
#1024=COLOUR_RGB('',0.749019607843137,0.749019607843137,0.749019607843137);
ENDSEC;
END-ISO-10303-21;
