ISO-10303-21;
HEADER;
/* Generated by software containing ST-Developer
 * from STEP Tools, Inc. (www.steptools.com) 
 */

FILE_DESCRIPTION(
/* description */ (''),
/* implementation_level */ '2;1');

FILE_NAME(
/* name */ 'encoder_spacer.stp',
/* time_stamp */ '2026-07-03T14:31:38-07:00',
/* author */ ('aaron'),
/* organization */ (''),
/* preprocessor_version */ 'ST-DEVELOPER v20.1',
/* originating_system */ 'Autodesk Inventor 2026',
/* authorisation */ '');

FILE_SCHEMA (('AUTOMOTIVE_DESIGN { 1 0 10303 214 3 1 1 }'));
ENDSEC;

DATA;
#10=MECHANICAL_DESIGN_GEOMETRIC_PRESENTATION_REPRESENTATION('',(#13),#2261);
#11=SHAPE_REPRESENTATION_RELATIONSHIP('SRR','None',#2268,#12);
#12=ADVANCED_BREP_SHAPE_REPRESENTATION('',(#14),#2260);
#13=STYLED_ITEM('',(#2277),#14);
#14=MANIFOLD_SOLID_BREP('Solid1',#1309);
#15=CYLINDRICAL_SURFACE('',#1365,2.64999999999833);
#16=CYLINDRICAL_SURFACE('',#1371,2.65000000000048);
#17=CYLINDRICAL_SURFACE('',#1377,2.65000000000048);
#18=CYLINDRICAL_SURFACE('',#1383,2.65000000000048);
#19=CYLINDRICAL_SURFACE('',#1385,4.35);
#20=CYLINDRICAL_SURFACE('',#1386,4.35);
#21=CYLINDRICAL_SURFACE('',#1387,4.35);
#22=CYLINDRICAL_SURFACE('',#1388,4.35);
#23=CYLINDRICAL_SURFACE('',#1393,2.15000000000039);
#24=CYLINDRICAL_SURFACE('',#1399,2.15000000000039);
#25=CYLINDRICAL_SURFACE('',#1405,2.15000000000039);
#26=CYLINDRICAL_SURFACE('',#1411,2.15000000000039);
#27=CYLINDRICAL_SURFACE('',#1417,2.15000000000039);
#28=CYLINDRICAL_SURFACE('',#1423,2.15000000000039);
#29=CYLINDRICAL_SURFACE('',#1429,2.15000000000039);
#30=CYLINDRICAL_SURFACE('',#1431,3.6);
#31=CYLINDRICAL_SURFACE('',#1432,3.6);
#32=CYLINDRICAL_SURFACE('',#1433,3.6);
#33=CYLINDRICAL_SURFACE('',#1434,3.6);
#34=CYLINDRICAL_SURFACE('',#1435,3.6);
#35=CYLINDRICAL_SURFACE('',#1436,3.6);
#36=CYLINDRICAL_SURFACE('',#1437,3.6);
#37=CYLINDRICAL_SURFACE('',#1438,56.);
#38=CYLINDRICAL_SURFACE('',#1440,56.);
#39=CYLINDRICAL_SURFACE('',#1442,56.);
#40=CYLINDRICAL_SURFACE('',#1464,10.);
#41=CYLINDRICAL_SURFACE('',#1466,10.);
#42=CYLINDRICAL_SURFACE('',#1468,10.);
#43=CYLINDRICAL_SURFACE('',#1470,10.);
#44=CYLINDRICAL_SURFACE('',#1472,20.);
#45=CYLINDRICAL_SURFACE('',#1474,20.);
#46=CYLINDRICAL_SURFACE('',#1475,20.);
#47=CYLINDRICAL_SURFACE('',#1477,20.);
#48=CONICAL_SURFACE('',#1361,3.49999999999833,0.785398163397448);
#49=CONICAL_SURFACE('',#1367,3.50000000000048,0.785398163397448);
#50=CONICAL_SURFACE('',#1373,3.50000000000048,0.785398163397448);
#51=CONICAL_SURFACE('',#1379,3.50000000000048,0.785398163397448);
#52=CONICAL_SURFACE('',#1389,2.87500000000039,0.785398163397448);
#53=CONICAL_SURFACE('',#1395,2.87500000000039,0.785398163397447);
#54=CONICAL_SURFACE('',#1401,2.87500000000039,0.785398163397447);
#55=CONICAL_SURFACE('',#1407,2.87500000000039,0.785398163397447);
#56=CONICAL_SURFACE('',#1413,2.87500000000039,0.785398163397447);
#57=CONICAL_SURFACE('',#1419,2.87500000000039,0.785398163397448);
#58=CONICAL_SURFACE('',#1425,2.87500000000039,0.785398163397448);
#59=FACE_BOUND('',#233,.T.);
#60=FACE_BOUND('',#234,.T.);
#61=FACE_BOUND('',#235,.T.);
#62=FACE_BOUND('',#236,.T.);
#63=FACE_BOUND('',#237,.T.);
#64=FACE_BOUND('',#238,.T.);
#65=FACE_BOUND('',#239,.T.);
#66=FACE_BOUND('',#240,.T.);
#67=FACE_BOUND('',#241,.T.);
#68=FACE_BOUND('',#242,.T.);
#69=FACE_BOUND('',#243,.T.);
#70=FACE_BOUND('',#283,.T.);
#71=FACE_BOUND('',#284,.T.);
#72=FACE_BOUND('',#285,.T.);
#73=FACE_BOUND('',#286,.T.);
#74=FACE_BOUND('',#287,.T.);
#75=FACE_BOUND('',#288,.T.);
#76=FACE_BOUND('',#289,.T.);
#77=FACE_BOUND('',#290,.T.);
#78=FACE_BOUND('',#291,.T.);
#79=FACE_BOUND('',#292,.T.);
#80=FACE_BOUND('',#293,.T.);
#81=CIRCLE('',#1334,20.);
#82=CIRCLE('',#1339,10.);
#83=CIRCLE('',#1340,56.);
#84=CIRCLE('',#1341,10.);
#85=CIRCLE('',#1342,56.);
#86=CIRCLE('',#1343,10.);
#87=CIRCLE('',#1344,56.);
#88=CIRCLE('',#1345,10.);
#89=CIRCLE('',#1346,20.);
#90=CIRCLE('',#1347,20.);
#91=CIRCLE('',#1348,20.);
#92=CIRCLE('',#1349,20.);
#93=CIRCLE('',#1350,3.6);
#94=CIRCLE('',#1351,3.6);
#95=CIRCLE('',#1352,3.6);
#96=CIRCLE('',#1353,3.6);
#97=CIRCLE('',#1354,3.6);
#98=CIRCLE('',#1355,3.6);
#99=CIRCLE('',#1356,3.6);
#100=CIRCLE('',#1357,4.35);
#101=CIRCLE('',#1358,4.35);
#102=CIRCLE('',#1359,4.35);
#103=CIRCLE('',#1360,4.35);
#104=CIRCLE('',#1362,2.64999999999833);
#105=CIRCLE('',#1363,4.35);
#106=CIRCLE('',#1364,4.35);
#107=CIRCLE('',#1366,2.64999999999833);
#108=CIRCLE('',#1368,2.65000000000048);
#109=CIRCLE('',#1369,4.35);
#110=CIRCLE('',#1370,4.35);
#111=CIRCLE('',#1372,2.65000000000048);
#112=CIRCLE('',#1374,2.65000000000048);
#113=CIRCLE('',#1375,4.35);
#114=CIRCLE('',#1376,4.35);
#115=CIRCLE('',#1378,2.65000000000048);
#116=CIRCLE('',#1380,2.65000000000048);
#117=CIRCLE('',#1381,4.35);
#118=CIRCLE('',#1382,4.35);
#119=CIRCLE('',#1384,2.65000000000048);
#120=CIRCLE('',#1390,2.15000000000039);
#121=CIRCLE('',#1391,3.6);
#122=CIRCLE('',#1392,3.6);
#123=CIRCLE('',#1394,2.15000000000039);
#124=CIRCLE('',#1396,2.15000000000039);
#125=CIRCLE('',#1397,3.6);
#126=CIRCLE('',#1398,3.6);
#127=CIRCLE('',#1400,2.15000000000039);
#128=CIRCLE('',#1402,2.15000000000039);
#129=CIRCLE('',#1403,3.6);
#130=CIRCLE('',#1404,3.6);
#131=CIRCLE('',#1406,2.15000000000039);
#132=CIRCLE('',#1408,2.15000000000039);
#133=CIRCLE('',#1409,3.6);
#134=CIRCLE('',#1410,3.6);
#135=CIRCLE('',#1412,2.15000000000039);
#136=CIRCLE('',#1414,2.15000000000039);
#137=CIRCLE('',#1415,3.6);
#138=CIRCLE('',#1416,3.6);
#139=CIRCLE('',#1418,2.15000000000039);
#140=CIRCLE('',#1420,2.15000000000039);
#141=CIRCLE('',#1421,3.6);
#142=CIRCLE('',#1422,3.6);
#143=CIRCLE('',#1424,2.15000000000039);
#144=CIRCLE('',#1426,2.15000000000039);
#145=CIRCLE('',#1427,3.6);
#146=CIRCLE('',#1428,3.6);
#147=CIRCLE('',#1430,2.15000000000039);
#148=CIRCLE('',#1439,56.);
#149=CIRCLE('',#1441,56.);
#150=CIRCLE('',#1443,56.);
#151=CIRCLE('',#1447,10.);
#152=CIRCLE('',#1448,20.);
#153=CIRCLE('',#1449,20.);
#154=CIRCLE('',#1450,20.);
#155=CIRCLE('',#1451,20.);
#156=CIRCLE('',#1452,10.);
#157=CIRCLE('',#1453,10.);
#158=CIRCLE('',#1454,10.);
#159=FACE_OUTER_BOUND('',#227,.T.);
#160=FACE_OUTER_BOUND('',#228,.T.);
#161=FACE_OUTER_BOUND('',#229,.T.);
#162=FACE_OUTER_BOUND('',#230,.T.);
#163=FACE_OUTER_BOUND('',#231,.T.);
#164=FACE_OUTER_BOUND('',#232,.T.);
#165=FACE_OUTER_BOUND('',#244,.T.);
#166=FACE_OUTER_BOUND('',#245,.T.);
#167=FACE_OUTER_BOUND('',#246,.T.);
#168=FACE_OUTER_BOUND('',#247,.T.);
#169=FACE_OUTER_BOUND('',#248,.T.);
#170=FACE_OUTER_BOUND('',#249,.T.);
#171=FACE_OUTER_BOUND('',#250,.T.);
#172=FACE_OUTER_BOUND('',#251,.T.);
#173=FACE_OUTER_BOUND('',#252,.T.);
#174=FACE_OUTER_BOUND('',#253,.T.);
#175=FACE_OUTER_BOUND('',#254,.T.);
#176=FACE_OUTER_BOUND('',#255,.T.);
#177=FACE_OUTER_BOUND('',#256,.T.);
#178=FACE_OUTER_BOUND('',#257,.T.);
#179=FACE_OUTER_BOUND('',#258,.T.);
#180=FACE_OUTER_BOUND('',#259,.T.);
#181=FACE_OUTER_BOUND('',#260,.T.);
#182=FACE_OUTER_BOUND('',#261,.T.);
#183=FACE_OUTER_BOUND('',#262,.T.);
#184=FACE_OUTER_BOUND('',#263,.T.);
#185=FACE_OUTER_BOUND('',#264,.T.);
#186=FACE_OUTER_BOUND('',#265,.T.);
#187=FACE_OUTER_BOUND('',#266,.T.);
#188=FACE_OUTER_BOUND('',#267,.T.);
#189=FACE_OUTER_BOUND('',#268,.T.);
#190=FACE_OUTER_BOUND('',#269,.T.);
#191=FACE_OUTER_BOUND('',#270,.T.);
#192=FACE_OUTER_BOUND('',#271,.T.);
#193=FACE_OUTER_BOUND('',#272,.T.);
#194=FACE_OUTER_BOUND('',#273,.T.);
#195=FACE_OUTER_BOUND('',#274,.T.);
#196=FACE_OUTER_BOUND('',#275,.T.);
#197=FACE_OUTER_BOUND('',#276,.T.);
#198=FACE_OUTER_BOUND('',#277,.T.);
#199=FACE_OUTER_BOUND('',#278,.T.);
#200=FACE_OUTER_BOUND('',#279,.T.);
#201=FACE_OUTER_BOUND('',#280,.T.);
#202=FACE_OUTER_BOUND('',#281,.T.);
#203=FACE_OUTER_BOUND('',#282,.T.);
#204=FACE_OUTER_BOUND('',#294,.T.);
#205=FACE_OUTER_BOUND('',#295,.T.);
#206=FACE_OUTER_BOUND('',#296,.T.);
#207=FACE_OUTER_BOUND('',#297,.T.);
#208=FACE_OUTER_BOUND('',#298,.T.);
#209=FACE_OUTER_BOUND('',#299,.T.);
#210=FACE_OUTER_BOUND('',#300,.T.);
#211=FACE_OUTER_BOUND('',#301,.T.);
#212=FACE_OUTER_BOUND('',#302,.T.);
#213=FACE_OUTER_BOUND('',#303,.T.);
#214=FACE_OUTER_BOUND('',#304,.T.);
#215=FACE_OUTER_BOUND('',#305,.T.);
#216=FACE_OUTER_BOUND('',#306,.T.);
#217=FACE_OUTER_BOUND('',#307,.T.);
#218=FACE_OUTER_BOUND('',#308,.T.);
#219=FACE_OUTER_BOUND('',#309,.T.);
#220=FACE_OUTER_BOUND('',#310,.T.);
#221=FACE_OUTER_BOUND('',#311,.T.);
#222=FACE_OUTER_BOUND('',#312,.T.);
#223=FACE_OUTER_BOUND('',#313,.T.);
#224=FACE_OUTER_BOUND('',#314,.T.);
#225=FACE_OUTER_BOUND('',#315,.T.);
#226=FACE_OUTER_BOUND('',#316,.T.);
#227=EDGE_LOOP('',(#843,#844,#845,#846));
#228=EDGE_LOOP('',(#847,#848,#849,#850,#851,#852,#853,#854,#855));
#229=EDGE_LOOP('',(#856,#857,#858,#859,#860));
#230=EDGE_LOOP('',(#861,#862,#863,#864));
#231=EDGE_LOOP('',(#865,#866,#867,#868,#869,#870,#871));
#232=EDGE_LOOP('',(#872,#873,#874,#875,#876,#877,#878,#879,#880,#881,#882,
#883,#884,#885,#886,#887,#888,#889,#890,#891,#892,#893,#894,#895,#896,#897,
#898,#899));
#233=EDGE_LOOP('',(#900));
#234=EDGE_LOOP('',(#901));
#235=EDGE_LOOP('',(#902));
#236=EDGE_LOOP('',(#903));
#237=EDGE_LOOP('',(#904));
#238=EDGE_LOOP('',(#905));
#239=EDGE_LOOP('',(#906));
#240=EDGE_LOOP('',(#907));
#241=EDGE_LOOP('',(#908));
#242=EDGE_LOOP('',(#909));
#243=EDGE_LOOP('',(#910));
#244=EDGE_LOOP('',(#911,#912,#913,#914,#915));
#245=EDGE_LOOP('',(#916,#917,#918,#919));
#246=EDGE_LOOP('',(#920,#921,#922,#923,#924));
#247=EDGE_LOOP('',(#925,#926,#927,#928));
#248=EDGE_LOOP('',(#929,#930,#931,#932,#933));
#249=EDGE_LOOP('',(#934,#935,#936,#937));
#250=EDGE_LOOP('',(#938,#939,#940,#941,#942));
#251=EDGE_LOOP('',(#943,#944,#945,#946));
#252=EDGE_LOOP('',(#947,#948,#949,#950,#951));
#253=EDGE_LOOP('',(#952,#953,#954,#955,#956));
#254=EDGE_LOOP('',(#957,#958,#959,#960,#961));
#255=EDGE_LOOP('',(#962,#963,#964,#965,#966));
#256=EDGE_LOOP('',(#967,#968,#969,#970,#971));
#257=EDGE_LOOP('',(#972,#973,#974,#975));
#258=EDGE_LOOP('',(#976,#977,#978,#979,#980));
#259=EDGE_LOOP('',(#981,#982,#983,#984));
#260=EDGE_LOOP('',(#985,#986,#987,#988,#989));
#261=EDGE_LOOP('',(#990,#991,#992,#993));
#262=EDGE_LOOP('',(#994,#995,#996,#997,#998));
#263=EDGE_LOOP('',(#999,#1000,#1001,#1002));
#264=EDGE_LOOP('',(#1003,#1004,#1005,#1006,#1007));
#265=EDGE_LOOP('',(#1008,#1009,#1010,#1011));
#266=EDGE_LOOP('',(#1012,#1013,#1014,#1015,#1016));
#267=EDGE_LOOP('',(#1017,#1018,#1019,#1020));
#268=EDGE_LOOP('',(#1021,#1022,#1023,#1024,#1025));
#269=EDGE_LOOP('',(#1026,#1027,#1028,#1029));
#270=EDGE_LOOP('',(#1030,#1031,#1032,#1033,#1034));
#271=EDGE_LOOP('',(#1035,#1036,#1037,#1038,#1039));
#272=EDGE_LOOP('',(#1040,#1041,#1042,#1043,#1044));
#273=EDGE_LOOP('',(#1045,#1046,#1047,#1048,#1049));
#274=EDGE_LOOP('',(#1050,#1051,#1052,#1053,#1054));
#275=EDGE_LOOP('',(#1055,#1056,#1057,#1058,#1059));
#276=EDGE_LOOP('',(#1060,#1061,#1062,#1063,#1064));
#277=EDGE_LOOP('',(#1065,#1066,#1067,#1068));
#278=EDGE_LOOP('',(#1069,#1070,#1071,#1072));
#279=EDGE_LOOP('',(#1073,#1074,#1075,#1076));
#280=EDGE_LOOP('',(#1077,#1078,#1079,#1080));
#281=EDGE_LOOP('',(#1081,#1082,#1083,#1084));
#282=EDGE_LOOP('',(#1085,#1086,#1087,#1088,#1089,#1090,#1091,#1092,#1093,
#1094,#1095,#1096,#1097,#1098,#1099,#1100,#1101,#1102,#1103,#1104,#1105,
#1106,#1107,#1108,#1109,#1110,#1111));
#283=EDGE_LOOP('',(#1112));
#284=EDGE_LOOP('',(#1113));
#285=EDGE_LOOP('',(#1114));
#286=EDGE_LOOP('',(#1115));
#287=EDGE_LOOP('',(#1116));
#288=EDGE_LOOP('',(#1117));
#289=EDGE_LOOP('',(#1118));
#290=EDGE_LOOP('',(#1119));
#291=EDGE_LOOP('',(#1120));
#292=EDGE_LOOP('',(#1121));
#293=EDGE_LOOP('',(#1122));
#294=EDGE_LOOP('',(#1123,#1124,#1125,#1126));
#295=EDGE_LOOP('',(#1127,#1128,#1129,#1130));
#296=EDGE_LOOP('',(#1131,#1132,#1133,#1134));
#297=EDGE_LOOP('',(#1135,#1136,#1137,#1138));
#298=EDGE_LOOP('',(#1139,#1140,#1141,#1142));
#299=EDGE_LOOP('',(#1143,#1144,#1145,#1146));
#300=EDGE_LOOP('',(#1147,#1148,#1149,#1150));
#301=EDGE_LOOP('',(#1151,#1152,#1153,#1154));
#302=EDGE_LOOP('',(#1155,#1156,#1157,#1158));
#303=EDGE_LOOP('',(#1159,#1160,#1161,#1162));
#304=EDGE_LOOP('',(#1163,#1164,#1165,#1166));
#305=EDGE_LOOP('',(#1167,#1168,#1169,#1170));
#306=EDGE_LOOP('',(#1171,#1172,#1173,#1174));
#307=EDGE_LOOP('',(#1175,#1176,#1177,#1178));
#308=EDGE_LOOP('',(#1179,#1180,#1181,#1182));
#309=EDGE_LOOP('',(#1183,#1184,#1185,#1186));
#310=EDGE_LOOP('',(#1187,#1188,#1189,#1190));
#311=EDGE_LOOP('',(#1191,#1192,#1193,#1194));
#312=EDGE_LOOP('',(#1195,#1196,#1197,#1198));
#313=EDGE_LOOP('',(#1199,#1200,#1201,#1202,#1203,#1204));
#314=EDGE_LOOP('',(#1205,#1206,#1207,#1208));
#315=EDGE_LOOP('',(#1209,#1210,#1211,#1212));
#316=EDGE_LOOP('',(#1213,#1214,#1215,#1216));
#317=LINE('',#1885,#426);
#318=LINE('',#1887,#427);
#319=LINE('',#1889,#428);
#320=LINE('',#1890,#429);
#321=LINE('',#1893,#430);
#322=LINE('',#1895,#431);
#323=LINE('',#1897,#432);
#324=LINE('',#1901,#433);
#325=LINE('',#1903,#434);
#326=LINE('',#1905,#435);
#327=LINE('',#1906,#436);
#328=LINE('',#1909,#437);
#329=LINE('',#1911,#438);
#330=LINE('',#1912,#439);
#331=LINE('',#1915,#440);
#332=LINE('',#1916,#441);
#333=LINE('',#1919,#442);
#334=LINE('',#1921,#443);
#335=LINE('',#1923,#444);
#336=LINE('',#1924,#445);
#337=LINE('',#1929,#446);
#338=LINE('',#1933,#447);
#339=LINE('',#1937,#448);
#340=LINE('',#1941,#449);
#341=LINE('',#1945,#450);
#342=LINE('',#1949,#451);
#343=LINE('',#1953,#452);
#344=LINE('',#1955,#453);
#345=LINE('',#1957,#454);
#346=LINE('',#1961,#455);
#347=LINE('',#1965,#456);
#348=LINE('',#1969,#457);
#349=LINE('',#1973,#458);
#350=LINE('',#1974,#459);
#351=LINE('',#2001,#460);
#352=LINE('',#2008,#461);
#353=LINE('',#2013,#462);
#354=LINE('',#2020,#463);
#355=LINE('',#2025,#464);
#356=LINE('',#2032,#465);
#357=LINE('',#2037,#466);
#358=LINE('',#2044,#467);
#359=LINE('',#2046,#468);
#360=LINE('',#2048,#469);
#361=LINE('',#2050,#470);
#362=LINE('',#2052,#471);
#363=LINE('',#2057,#472);
#364=LINE('',#2064,#473);
#365=LINE('',#2069,#474);
#366=LINE('',#2076,#475);
#367=LINE('',#2081,#476);
#368=LINE('',#2088,#477);
#369=LINE('',#2093,#478);
#370=LINE('',#2100,#479);
#371=LINE('',#2105,#480);
#372=LINE('',#2112,#481);
#373=LINE('',#2117,#482);
#374=LINE('',#2124,#483);
#375=LINE('',#2129,#484);
#376=LINE('',#2136,#485);
#377=LINE('',#2138,#486);
#378=LINE('',#2140,#487);
#379=LINE('',#2142,#488);
#380=LINE('',#2144,#489);
#381=LINE('',#2146,#490);
#382=LINE('',#2148,#491);
#383=LINE('',#2150,#492);
#384=LINE('',#2155,#493);
#385=LINE('',#2156,#494);
#386=LINE('',#2161,#495);
#387=LINE('',#2162,#496);
#388=LINE('',#2167,#497);
#389=LINE('',#2168,#498);
#390=LINE('',#2171,#499);
#391=LINE('',#2172,#500);
#392=LINE('',#2175,#501);
#393=LINE('',#2176,#502);
#394=LINE('',#2180,#503);
#395=LINE('',#2182,#504);
#396=LINE('',#2184,#505);
#397=LINE('',#2188,#506);
#398=LINE('',#2192,#507);
#399=LINE('',#2196,#508);
#400=LINE('',#2200,#509);
#401=LINE('',#2202,#510);
#402=LINE('',#2204,#511);
#403=LINE('',#2207,#512);
#404=LINE('',#2209,#513);
#405=LINE('',#2212,#514);
#406=LINE('',#2215,#515);
#407=LINE('',#2217,#516);
#408=LINE('',#2219,#517);
#409=LINE('',#2220,#518);
#410=LINE('',#2222,#519);
#411=LINE('',#2224,#520);
#412=LINE('',#2226,#521);
#413=LINE('',#2228,#522);
#414=LINE('',#2230,#523);
#415=LINE('',#2232,#524);
#416=LINE('',#2234,#525);
#417=LINE('',#2236,#526);
#418=LINE('',#2239,#527);
#419=LINE('',#2242,#528);
#420=LINE('',#2246,#529);
#421=LINE('',#2247,#530);
#422=LINE('',#2249,#531);
#423=LINE('',#2251,#532);
#424=LINE('',#2254,#533);
#425=LINE('',#2256,#534);
#426=VECTOR('',#1482,10.);
#427=VECTOR('',#1483,10.);
#428=VECTOR('',#1484,10.);
#429=VECTOR('',#1485,10.);
#430=VECTOR('',#1488,10.);
#431=VECTOR('',#1489,10.);
#432=VECTOR('',#1490,10.);
#433=VECTOR('',#1493,10.);
#434=VECTOR('',#1494,10.);
#435=VECTOR('',#1495,10.);
#436=VECTOR('',#1496,10.);
#437=VECTOR('',#1499,10.);
#438=VECTOR('',#1500,10.);
#439=VECTOR('',#1501,10.);
#440=VECTOR('',#1504,10.);
#441=VECTOR('',#1505,10.);
#442=VECTOR('',#1508,10.);
#443=VECTOR('',#1509,10.);
#444=VECTOR('',#1510,10.);
#445=VECTOR('',#1511,10.);
#446=VECTOR('',#1516,10.);
#447=VECTOR('',#1519,10.);
#448=VECTOR('',#1522,10.);
#449=VECTOR('',#1525,10.);
#450=VECTOR('',#1528,10.);
#451=VECTOR('',#1531,10.);
#452=VECTOR('',#1534,10.);
#453=VECTOR('',#1535,10.);
#454=VECTOR('',#1536,10.);
#455=VECTOR('',#1539,10.);
#456=VECTOR('',#1542,10.);
#457=VECTOR('',#1545,10.);
#458=VECTOR('',#1548,10.);
#459=VECTOR('',#1549,10.);
#460=VECTOR('',#1576,3.49999999999833);
#461=VECTOR('',#1585,2.64999999999833);
#462=VECTOR('',#1590,3.50000000000048);
#463=VECTOR('',#1599,2.65000000000048);
#464=VECTOR('',#1604,3.50000000000047);
#465=VECTOR('',#1613,2.65000000000048);
#466=VECTOR('',#1618,3.50000000000048);
#467=VECTOR('',#1627,2.65000000000048);
#468=VECTOR('',#1630,4.35);
#469=VECTOR('',#1633,4.35);
#470=VECTOR('',#1636,4.35);
#471=VECTOR('',#1639,4.35);
#472=VECTOR('',#1644,2.87500000000039);
#473=VECTOR('',#1653,2.15000000000039);
#474=VECTOR('',#1658,2.87500000000039);
#475=VECTOR('',#1667,2.15000000000039);
#476=VECTOR('',#1672,2.87500000000039);
#477=VECTOR('',#1681,2.15000000000039);
#478=VECTOR('',#1686,2.87500000000039);
#479=VECTOR('',#1695,2.15000000000039);
#480=VECTOR('',#1700,2.87500000000039);
#481=VECTOR('',#1709,2.15000000000039);
#482=VECTOR('',#1714,2.87500000000039);
#483=VECTOR('',#1723,2.15000000000039);
#484=VECTOR('',#1728,2.87500000000039);
#485=VECTOR('',#1737,2.15000000000039);
#486=VECTOR('',#1740,3.6);
#487=VECTOR('',#1743,3.6);
#488=VECTOR('',#1746,3.6);
#489=VECTOR('',#1749,3.6);
#490=VECTOR('',#1752,3.6);
#491=VECTOR('',#1755,3.6);
#492=VECTOR('',#1758,3.6);
#493=VECTOR('',#1763,10.);
#494=VECTOR('',#1764,10.);
#495=VECTOR('',#1769,10.);
#496=VECTOR('',#1770,10.);
#497=VECTOR('',#1775,10.);
#498=VECTOR('',#1776,10.);
#499=VECTOR('',#1779,10.);
#500=VECTOR('',#1780,10.);
#501=VECTOR('',#1783,10.);
#502=VECTOR('',#1784,10.);
#503=VECTOR('',#1789,10.);
#504=VECTOR('',#1790,10.);
#505=VECTOR('',#1791,10.);
#506=VECTOR('',#1794,10.);
#507=VECTOR('',#1797,10.);
#508=VECTOR('',#1800,10.);
#509=VECTOR('',#1803,10.);
#510=VECTOR('',#1804,10.);
#511=VECTOR('',#1805,10.);
#512=VECTOR('',#1808,10.);
#513=VECTOR('',#1809,10.);
#514=VECTOR('',#1812,10.);
#515=VECTOR('',#1815,10.);
#516=VECTOR('',#1818,10.);
#517=VECTOR('',#1821,10.);
#518=VECTOR('',#1822,10.);
#519=VECTOR('',#1825,10.);
#520=VECTOR('',#1828,10.);
#521=VECTOR('',#1831,10.);
#522=VECTOR('',#1834,10.);
#523=VECTOR('',#1837,10.);
#524=VECTOR('',#1840,10.);
#525=VECTOR('',#1843,10.);
#526=VECTOR('',#1846,10.);
#527=VECTOR('',#1851,10.);
#528=VECTOR('',#1856,10.);
#529=VECTOR('',#1863,10.);
#530=VECTOR('',#1864,10.);
#531=VECTOR('',#1867,10.);
#532=VECTOR('',#1870,10.);
#533=VECTOR('',#1875,10.);
#534=VECTOR('',#1878,10.);
#535=VERTEX_POINT('',#1883);
#536=VERTEX_POINT('',#1884);
#537=VERTEX_POINT('',#1886);
#538=VERTEX_POINT('',#1888);
#539=VERTEX_POINT('',#1892);
#540=VERTEX_POINT('',#1894);
#541=VERTEX_POINT('',#1896);
#542=VERTEX_POINT('',#1898);
#543=VERTEX_POINT('',#1900);
#544=VERTEX_POINT('',#1902);
#545=VERTEX_POINT('',#1904);
#546=VERTEX_POINT('',#1908);
#547=VERTEX_POINT('',#1910);
#548=VERTEX_POINT('',#1914);
#549=VERTEX_POINT('',#1918);
#550=VERTEX_POINT('',#1920);
#551=VERTEX_POINT('',#1922);
#552=VERTEX_POINT('',#1926);
#553=VERTEX_POINT('',#1928);
#554=VERTEX_POINT('',#1930);
#555=VERTEX_POINT('',#1932);
#556=VERTEX_POINT('',#1934);
#557=VERTEX_POINT('',#1936);
#558=VERTEX_POINT('',#1938);
#559=VERTEX_POINT('',#1940);
#560=VERTEX_POINT('',#1942);
#561=VERTEX_POINT('',#1944);
#562=VERTEX_POINT('',#1946);
#563=VERTEX_POINT('',#1948);
#564=VERTEX_POINT('',#1950);
#565=VERTEX_POINT('',#1952);
#566=VERTEX_POINT('',#1954);
#567=VERTEX_POINT('',#1956);
#568=VERTEX_POINT('',#1958);
#569=VERTEX_POINT('',#1960);
#570=VERTEX_POINT('',#1962);
#571=VERTEX_POINT('',#1964);
#572=VERTEX_POINT('',#1966);
#573=VERTEX_POINT('',#1968);
#574=VERTEX_POINT('',#1970);
#575=VERTEX_POINT('',#1972);
#576=VERTEX_POINT('',#1975);
#577=VERTEX_POINT('',#1977);
#578=VERTEX_POINT('',#1979);
#579=VERTEX_POINT('',#1981);
#580=VERTEX_POINT('',#1983);
#581=VERTEX_POINT('',#1985);
#582=VERTEX_POINT('',#1987);
#583=VERTEX_POINT('',#1989);
#584=VERTEX_POINT('',#1991);
#585=VERTEX_POINT('',#1993);
#586=VERTEX_POINT('',#1995);
#587=VERTEX_POINT('',#1998);
#588=VERTEX_POINT('',#2000);
#589=VERTEX_POINT('',#2002);
#590=VERTEX_POINT('',#2006);
#591=VERTEX_POINT('',#2010);
#592=VERTEX_POINT('',#2012);
#593=VERTEX_POINT('',#2014);
#594=VERTEX_POINT('',#2018);
#595=VERTEX_POINT('',#2022);
#596=VERTEX_POINT('',#2024);
#597=VERTEX_POINT('',#2026);
#598=VERTEX_POINT('',#2030);
#599=VERTEX_POINT('',#2034);
#600=VERTEX_POINT('',#2036);
#601=VERTEX_POINT('',#2038);
#602=VERTEX_POINT('',#2042);
#603=VERTEX_POINT('',#2054);
#604=VERTEX_POINT('',#2056);
#605=VERTEX_POINT('',#2058);
#606=VERTEX_POINT('',#2062);
#607=VERTEX_POINT('',#2066);
#608=VERTEX_POINT('',#2068);
#609=VERTEX_POINT('',#2070);
#610=VERTEX_POINT('',#2074);
#611=VERTEX_POINT('',#2078);
#612=VERTEX_POINT('',#2080);
#613=VERTEX_POINT('',#2082);
#614=VERTEX_POINT('',#2086);
#615=VERTEX_POINT('',#2090);
#616=VERTEX_POINT('',#2092);
#617=VERTEX_POINT('',#2094);
#618=VERTEX_POINT('',#2098);
#619=VERTEX_POINT('',#2102);
#620=VERTEX_POINT('',#2104);
#621=VERTEX_POINT('',#2106);
#622=VERTEX_POINT('',#2110);
#623=VERTEX_POINT('',#2114);
#624=VERTEX_POINT('',#2116);
#625=VERTEX_POINT('',#2118);
#626=VERTEX_POINT('',#2122);
#627=VERTEX_POINT('',#2126);
#628=VERTEX_POINT('',#2128);
#629=VERTEX_POINT('',#2130);
#630=VERTEX_POINT('',#2134);
#631=VERTEX_POINT('',#2152);
#632=VERTEX_POINT('',#2153);
#633=VERTEX_POINT('',#2158);
#634=VERTEX_POINT('',#2159);
#635=VERTEX_POINT('',#2164);
#636=VERTEX_POINT('',#2165);
#637=VERTEX_POINT('',#2170);
#638=VERTEX_POINT('',#2174);
#639=VERTEX_POINT('',#2179);
#640=VERTEX_POINT('',#2181);
#641=VERTEX_POINT('',#2183);
#642=VERTEX_POINT('',#2185);
#643=VERTEX_POINT('',#2187);
#644=VERTEX_POINT('',#2189);
#645=VERTEX_POINT('',#2191);
#646=VERTEX_POINT('',#2193);
#647=VERTEX_POINT('',#2195);
#648=VERTEX_POINT('',#2197);
#649=VERTEX_POINT('',#2199);
#650=VERTEX_POINT('',#2201);
#651=VERTEX_POINT('',#2203);
#652=VERTEX_POINT('',#2205);
#653=VERTEX_POINT('',#2208);
#654=VERTEX_POINT('',#2210);
#655=VERTEX_POINT('',#2213);
#656=EDGE_CURVE('',#535,#536,#317,.T.);
#657=EDGE_CURVE('',#537,#535,#318,.T.);
#658=EDGE_CURVE('',#538,#537,#319,.T.);
#659=EDGE_CURVE('',#536,#538,#320,.T.);
#660=EDGE_CURVE('',#537,#539,#321,.T.);
#661=EDGE_CURVE('',#539,#540,#322,.T.);
#662=EDGE_CURVE('',#540,#541,#323,.T.);
#663=EDGE_CURVE('',#541,#542,#81,.T.);
#664=EDGE_CURVE('',#542,#543,#324,.T.);
#665=EDGE_CURVE('',#543,#544,#325,.T.);
#666=EDGE_CURVE('',#544,#545,#326,.T.);
#667=EDGE_CURVE('',#545,#538,#327,.T.);
#668=EDGE_CURVE('',#546,#535,#328,.T.);
#669=EDGE_CURVE('',#547,#546,#329,.T.);
#670=EDGE_CURVE('',#539,#547,#330,.T.);
#671=EDGE_CURVE('',#536,#548,#331,.T.);
#672=EDGE_CURVE('',#548,#546,#332,.T.);
#673=EDGE_CURVE('',#549,#545,#333,.T.);
#674=EDGE_CURVE('',#550,#549,#334,.T.);
#675=EDGE_CURVE('',#551,#550,#335,.T.);
#676=EDGE_CURVE('',#548,#551,#336,.T.);
#677=EDGE_CURVE('',#551,#552,#82,.T.);
#678=EDGE_CURVE('',#552,#553,#337,.T.);
#679=EDGE_CURVE('',#553,#554,#83,.T.);
#680=EDGE_CURVE('',#554,#555,#338,.T.);
#681=EDGE_CURVE('',#555,#556,#84,.T.);
#682=EDGE_CURVE('',#556,#557,#339,.T.);
#683=EDGE_CURVE('',#557,#558,#85,.T.);
#684=EDGE_CURVE('',#558,#559,#340,.T.);
#685=EDGE_CURVE('',#559,#560,#86,.T.);
#686=EDGE_CURVE('',#560,#561,#341,.T.);
#687=EDGE_CURVE('',#561,#562,#87,.T.);
#688=EDGE_CURVE('',#562,#563,#342,.T.);
#689=EDGE_CURVE('',#563,#564,#88,.T.);
#690=EDGE_CURVE('',#564,#565,#343,.T.);
#691=EDGE_CURVE('',#565,#566,#344,.T.);
#692=EDGE_CURVE('',#566,#567,#345,.T.);
#693=EDGE_CURVE('',#567,#568,#89,.T.);
#694=EDGE_CURVE('',#568,#569,#346,.T.);
#695=EDGE_CURVE('',#569,#570,#90,.T.);
#696=EDGE_CURVE('',#570,#571,#347,.T.);
#697=EDGE_CURVE('',#571,#572,#91,.T.);
#698=EDGE_CURVE('',#572,#573,#348,.T.);
#699=EDGE_CURVE('',#573,#574,#92,.T.);
#700=EDGE_CURVE('',#574,#575,#349,.T.);
#701=EDGE_CURVE('',#575,#547,#350,.T.);
#702=EDGE_CURVE('',#576,#576,#93,.T.);
#703=EDGE_CURVE('',#577,#577,#94,.T.);
#704=EDGE_CURVE('',#578,#578,#95,.T.);
#705=EDGE_CURVE('',#579,#579,#96,.T.);
#706=EDGE_CURVE('',#580,#580,#97,.T.);
#707=EDGE_CURVE('',#581,#581,#98,.T.);
#708=EDGE_CURVE('',#582,#582,#99,.T.);
#709=EDGE_CURVE('',#583,#583,#100,.T.);
#710=EDGE_CURVE('',#584,#584,#101,.T.);
#711=EDGE_CURVE('',#585,#585,#102,.T.);
#712=EDGE_CURVE('',#586,#586,#103,.T.);
#713=EDGE_CURVE('',#587,#587,#104,.T.);
#714=EDGE_CURVE('',#587,#588,#351,.T.);
#715=EDGE_CURVE('',#589,#588,#105,.T.);
#716=EDGE_CURVE('',#588,#589,#106,.T.);
#717=EDGE_CURVE('',#590,#590,#107,.T.);
#718=EDGE_CURVE('',#590,#587,#352,.T.);
#719=EDGE_CURVE('',#591,#591,#108,.T.);
#720=EDGE_CURVE('',#591,#592,#353,.T.);
#721=EDGE_CURVE('',#593,#592,#109,.T.);
#722=EDGE_CURVE('',#592,#593,#110,.T.);
#723=EDGE_CURVE('',#594,#594,#111,.T.);
#724=EDGE_CURVE('',#594,#591,#354,.T.);
#725=EDGE_CURVE('',#595,#595,#112,.T.);
#726=EDGE_CURVE('',#595,#596,#355,.T.);
#727=EDGE_CURVE('',#597,#596,#113,.T.);
#728=EDGE_CURVE('',#596,#597,#114,.T.);
#729=EDGE_CURVE('',#598,#598,#115,.T.);
#730=EDGE_CURVE('',#598,#595,#356,.T.);
#731=EDGE_CURVE('',#599,#599,#116,.T.);
#732=EDGE_CURVE('',#599,#600,#357,.T.);
#733=EDGE_CURVE('',#601,#600,#117,.T.);
#734=EDGE_CURVE('',#600,#601,#118,.T.);
#735=EDGE_CURVE('',#602,#602,#119,.T.);
#736=EDGE_CURVE('',#602,#599,#358,.T.);
#737=EDGE_CURVE('',#586,#601,#359,.T.);
#738=EDGE_CURVE('',#585,#593,#360,.T.);
#739=EDGE_CURVE('',#584,#597,#361,.T.);
#740=EDGE_CURVE('',#583,#589,#362,.T.);
#741=EDGE_CURVE('',#603,#603,#120,.T.);
#742=EDGE_CURVE('',#603,#604,#363,.T.);
#743=EDGE_CURVE('',#605,#604,#121,.T.);
#744=EDGE_CURVE('',#604,#605,#122,.T.);
#745=EDGE_CURVE('',#606,#606,#123,.T.);
#746=EDGE_CURVE('',#606,#603,#364,.T.);
#747=EDGE_CURVE('',#607,#607,#124,.T.);
#748=EDGE_CURVE('',#607,#608,#365,.T.);
#749=EDGE_CURVE('',#609,#608,#125,.T.);
#750=EDGE_CURVE('',#608,#609,#126,.T.);
#751=EDGE_CURVE('',#610,#610,#127,.T.);
#752=EDGE_CURVE('',#610,#607,#366,.T.);
#753=EDGE_CURVE('',#611,#611,#128,.T.);
#754=EDGE_CURVE('',#611,#612,#367,.T.);
#755=EDGE_CURVE('',#613,#612,#129,.T.);
#756=EDGE_CURVE('',#612,#613,#130,.T.);
#757=EDGE_CURVE('',#614,#614,#131,.T.);
#758=EDGE_CURVE('',#614,#611,#368,.T.);
#759=EDGE_CURVE('',#615,#615,#132,.T.);
#760=EDGE_CURVE('',#615,#616,#369,.T.);
#761=EDGE_CURVE('',#617,#616,#133,.T.);
#762=EDGE_CURVE('',#616,#617,#134,.T.);
#763=EDGE_CURVE('',#618,#618,#135,.T.);
#764=EDGE_CURVE('',#618,#615,#370,.T.);
#765=EDGE_CURVE('',#619,#619,#136,.T.);
#766=EDGE_CURVE('',#619,#620,#371,.T.);
#767=EDGE_CURVE('',#621,#620,#137,.T.);
#768=EDGE_CURVE('',#620,#621,#138,.T.);
#769=EDGE_CURVE('',#622,#622,#139,.T.);
#770=EDGE_CURVE('',#622,#619,#372,.T.);
#771=EDGE_CURVE('',#623,#623,#140,.T.);
#772=EDGE_CURVE('',#623,#624,#373,.T.);
#773=EDGE_CURVE('',#625,#624,#141,.T.);
#774=EDGE_CURVE('',#624,#625,#142,.T.);
#775=EDGE_CURVE('',#626,#626,#143,.T.);
#776=EDGE_CURVE('',#626,#623,#374,.T.);
#777=EDGE_CURVE('',#627,#627,#144,.T.);
#778=EDGE_CURVE('',#627,#628,#375,.T.);
#779=EDGE_CURVE('',#629,#628,#145,.T.);
#780=EDGE_CURVE('',#628,#629,#146,.T.);
#781=EDGE_CURVE('',#630,#630,#147,.T.);
#782=EDGE_CURVE('',#630,#627,#376,.T.);
#783=EDGE_CURVE('',#582,#621,#377,.T.);
#784=EDGE_CURVE('',#581,#605,#378,.T.);
#785=EDGE_CURVE('',#580,#617,#379,.T.);
#786=EDGE_CURVE('',#579,#629,#380,.T.);
#787=EDGE_CURVE('',#578,#609,#381,.T.);
#788=EDGE_CURVE('',#577,#613,#382,.T.);
#789=EDGE_CURVE('',#576,#625,#383,.T.);
#790=EDGE_CURVE('',#631,#632,#148,.T.);
#791=EDGE_CURVE('',#554,#631,#384,.T.);
#792=EDGE_CURVE('',#632,#553,#385,.T.);
#793=EDGE_CURVE('',#633,#634,#149,.T.);
#794=EDGE_CURVE('',#558,#633,#386,.T.);
#795=EDGE_CURVE('',#634,#557,#387,.T.);
#796=EDGE_CURVE('',#635,#636,#150,.T.);
#797=EDGE_CURVE('',#562,#635,#388,.T.);
#798=EDGE_CURVE('',#636,#561,#389,.T.);
#799=EDGE_CURVE('',#637,#552,#390,.T.);
#800=EDGE_CURVE('',#632,#637,#391,.T.);
#801=EDGE_CURVE('',#638,#556,#392,.T.);
#802=EDGE_CURVE('',#634,#638,#393,.T.);
#803=EDGE_CURVE('',#550,#637,#151,.T.);
#804=EDGE_CURVE('',#549,#639,#394,.T.);
#805=EDGE_CURVE('',#639,#640,#395,.T.);
#806=EDGE_CURVE('',#640,#641,#396,.T.);
#807=EDGE_CURVE('',#641,#642,#152,.T.);
#808=EDGE_CURVE('',#642,#643,#397,.T.);
#809=EDGE_CURVE('',#643,#644,#153,.T.);
#810=EDGE_CURVE('',#644,#645,#398,.T.);
#811=EDGE_CURVE('',#645,#646,#154,.T.);
#812=EDGE_CURVE('',#646,#647,#399,.T.);
#813=EDGE_CURVE('',#647,#648,#155,.T.);
#814=EDGE_CURVE('',#648,#649,#400,.T.);
#815=EDGE_CURVE('',#649,#650,#401,.T.);
#816=EDGE_CURVE('',#650,#651,#402,.T.);
#817=EDGE_CURVE('',#652,#651,#156,.T.);
#818=EDGE_CURVE('',#652,#635,#403,.T.);
#819=EDGE_CURVE('',#636,#653,#404,.T.);
#820=EDGE_CURVE('',#654,#653,#157,.T.);
#821=EDGE_CURVE('',#654,#633,#405,.T.);
#822=EDGE_CURVE('',#655,#638,#158,.T.);
#823=EDGE_CURVE('',#655,#631,#406,.T.);
#824=EDGE_CURVE('',#653,#560,#407,.T.);
#825=EDGE_CURVE('',#566,#649,#408,.T.);
#826=EDGE_CURVE('',#650,#565,#409,.T.);
#827=EDGE_CURVE('',#651,#564,#410,.T.);
#828=EDGE_CURVE('',#540,#575,#411,.T.);
#829=EDGE_CURVE('',#541,#574,#412,.T.);
#830=EDGE_CURVE('',#648,#567,#413,.T.);
#831=EDGE_CURVE('',#639,#544,#414,.T.);
#832=EDGE_CURVE('',#640,#543,#415,.T.);
#833=EDGE_CURVE('',#641,#542,#416,.T.);
#834=EDGE_CURVE('',#563,#652,#417,.T.);
#835=EDGE_CURVE('',#559,#654,#418,.T.);
#836=EDGE_CURVE('',#555,#655,#419,.T.);
#837=EDGE_CURVE('',#645,#570,#420,.T.);
#838=EDGE_CURVE('',#644,#571,#421,.T.);
#839=EDGE_CURVE('',#643,#572,#422,.T.);
#840=EDGE_CURVE('',#642,#573,#423,.T.);
#841=EDGE_CURVE('',#647,#568,#424,.T.);
#842=EDGE_CURVE('',#569,#646,#425,.T.);
#843=ORIENTED_EDGE('',*,*,#656,.F.);
#844=ORIENTED_EDGE('',*,*,#657,.F.);
#845=ORIENTED_EDGE('',*,*,#658,.F.);
#846=ORIENTED_EDGE('',*,*,#659,.F.);
#847=ORIENTED_EDGE('',*,*,#658,.T.);
#848=ORIENTED_EDGE('',*,*,#660,.T.);
#849=ORIENTED_EDGE('',*,*,#661,.T.);
#850=ORIENTED_EDGE('',*,*,#662,.T.);
#851=ORIENTED_EDGE('',*,*,#663,.T.);
#852=ORIENTED_EDGE('',*,*,#664,.T.);
#853=ORIENTED_EDGE('',*,*,#665,.T.);
#854=ORIENTED_EDGE('',*,*,#666,.T.);
#855=ORIENTED_EDGE('',*,*,#667,.T.);
#856=ORIENTED_EDGE('',*,*,#657,.T.);
#857=ORIENTED_EDGE('',*,*,#668,.F.);
#858=ORIENTED_EDGE('',*,*,#669,.F.);
#859=ORIENTED_EDGE('',*,*,#670,.F.);
#860=ORIENTED_EDGE('',*,*,#660,.F.);
#861=ORIENTED_EDGE('',*,*,#656,.T.);
#862=ORIENTED_EDGE('',*,*,#671,.T.);
#863=ORIENTED_EDGE('',*,*,#672,.T.);
#864=ORIENTED_EDGE('',*,*,#668,.T.);
#865=ORIENTED_EDGE('',*,*,#659,.T.);
#866=ORIENTED_EDGE('',*,*,#667,.F.);
#867=ORIENTED_EDGE('',*,*,#673,.F.);
#868=ORIENTED_EDGE('',*,*,#674,.F.);
#869=ORIENTED_EDGE('',*,*,#675,.F.);
#870=ORIENTED_EDGE('',*,*,#676,.F.);
#871=ORIENTED_EDGE('',*,*,#671,.F.);
#872=ORIENTED_EDGE('',*,*,#672,.F.);
#873=ORIENTED_EDGE('',*,*,#676,.T.);
#874=ORIENTED_EDGE('',*,*,#677,.T.);
#875=ORIENTED_EDGE('',*,*,#678,.T.);
#876=ORIENTED_EDGE('',*,*,#679,.T.);
#877=ORIENTED_EDGE('',*,*,#680,.T.);
#878=ORIENTED_EDGE('',*,*,#681,.T.);
#879=ORIENTED_EDGE('',*,*,#682,.T.);
#880=ORIENTED_EDGE('',*,*,#683,.T.);
#881=ORIENTED_EDGE('',*,*,#684,.T.);
#882=ORIENTED_EDGE('',*,*,#685,.T.);
#883=ORIENTED_EDGE('',*,*,#686,.T.);
#884=ORIENTED_EDGE('',*,*,#687,.T.);
#885=ORIENTED_EDGE('',*,*,#688,.T.);
#886=ORIENTED_EDGE('',*,*,#689,.T.);
#887=ORIENTED_EDGE('',*,*,#690,.T.);
#888=ORIENTED_EDGE('',*,*,#691,.T.);
#889=ORIENTED_EDGE('',*,*,#692,.T.);
#890=ORIENTED_EDGE('',*,*,#693,.T.);
#891=ORIENTED_EDGE('',*,*,#694,.T.);
#892=ORIENTED_EDGE('',*,*,#695,.T.);
#893=ORIENTED_EDGE('',*,*,#696,.T.);
#894=ORIENTED_EDGE('',*,*,#697,.T.);
#895=ORIENTED_EDGE('',*,*,#698,.T.);
#896=ORIENTED_EDGE('',*,*,#699,.T.);
#897=ORIENTED_EDGE('',*,*,#700,.T.);
#898=ORIENTED_EDGE('',*,*,#701,.T.);
#899=ORIENTED_EDGE('',*,*,#669,.T.);
#900=ORIENTED_EDGE('',*,*,#702,.T.);
#901=ORIENTED_EDGE('',*,*,#703,.T.);
#902=ORIENTED_EDGE('',*,*,#704,.T.);
#903=ORIENTED_EDGE('',*,*,#705,.T.);
#904=ORIENTED_EDGE('',*,*,#706,.T.);
#905=ORIENTED_EDGE('',*,*,#707,.T.);
#906=ORIENTED_EDGE('',*,*,#708,.T.);
#907=ORIENTED_EDGE('',*,*,#709,.T.);
#908=ORIENTED_EDGE('',*,*,#710,.T.);
#909=ORIENTED_EDGE('',*,*,#711,.T.);
#910=ORIENTED_EDGE('',*,*,#712,.T.);
#911=ORIENTED_EDGE('',*,*,#713,.T.);
#912=ORIENTED_EDGE('',*,*,#714,.T.);
#913=ORIENTED_EDGE('',*,*,#715,.F.);
#914=ORIENTED_EDGE('',*,*,#716,.F.);
#915=ORIENTED_EDGE('',*,*,#714,.F.);
#916=ORIENTED_EDGE('',*,*,#717,.F.);
#917=ORIENTED_EDGE('',*,*,#718,.T.);
#918=ORIENTED_EDGE('',*,*,#713,.F.);
#919=ORIENTED_EDGE('',*,*,#718,.F.);
#920=ORIENTED_EDGE('',*,*,#719,.T.);
#921=ORIENTED_EDGE('',*,*,#720,.T.);
#922=ORIENTED_EDGE('',*,*,#721,.F.);
#923=ORIENTED_EDGE('',*,*,#722,.F.);
#924=ORIENTED_EDGE('',*,*,#720,.F.);
#925=ORIENTED_EDGE('',*,*,#723,.F.);
#926=ORIENTED_EDGE('',*,*,#724,.T.);
#927=ORIENTED_EDGE('',*,*,#719,.F.);
#928=ORIENTED_EDGE('',*,*,#724,.F.);
#929=ORIENTED_EDGE('',*,*,#725,.T.);
#930=ORIENTED_EDGE('',*,*,#726,.T.);
#931=ORIENTED_EDGE('',*,*,#727,.F.);
#932=ORIENTED_EDGE('',*,*,#728,.F.);
#933=ORIENTED_EDGE('',*,*,#726,.F.);
#934=ORIENTED_EDGE('',*,*,#729,.F.);
#935=ORIENTED_EDGE('',*,*,#730,.T.);
#936=ORIENTED_EDGE('',*,*,#725,.F.);
#937=ORIENTED_EDGE('',*,*,#730,.F.);
#938=ORIENTED_EDGE('',*,*,#731,.T.);
#939=ORIENTED_EDGE('',*,*,#732,.T.);
#940=ORIENTED_EDGE('',*,*,#733,.F.);
#941=ORIENTED_EDGE('',*,*,#734,.F.);
#942=ORIENTED_EDGE('',*,*,#732,.F.);
#943=ORIENTED_EDGE('',*,*,#735,.F.);
#944=ORIENTED_EDGE('',*,*,#736,.T.);
#945=ORIENTED_EDGE('',*,*,#731,.F.);
#946=ORIENTED_EDGE('',*,*,#736,.F.);
#947=ORIENTED_EDGE('',*,*,#712,.F.);
#948=ORIENTED_EDGE('',*,*,#737,.T.);
#949=ORIENTED_EDGE('',*,*,#733,.T.);
#950=ORIENTED_EDGE('',*,*,#734,.T.);
#951=ORIENTED_EDGE('',*,*,#737,.F.);
#952=ORIENTED_EDGE('',*,*,#711,.F.);
#953=ORIENTED_EDGE('',*,*,#738,.T.);
#954=ORIENTED_EDGE('',*,*,#721,.T.);
#955=ORIENTED_EDGE('',*,*,#722,.T.);
#956=ORIENTED_EDGE('',*,*,#738,.F.);
#957=ORIENTED_EDGE('',*,*,#710,.F.);
#958=ORIENTED_EDGE('',*,*,#739,.T.);
#959=ORIENTED_EDGE('',*,*,#727,.T.);
#960=ORIENTED_EDGE('',*,*,#728,.T.);
#961=ORIENTED_EDGE('',*,*,#739,.F.);
#962=ORIENTED_EDGE('',*,*,#709,.F.);
#963=ORIENTED_EDGE('',*,*,#740,.T.);
#964=ORIENTED_EDGE('',*,*,#715,.T.);
#965=ORIENTED_EDGE('',*,*,#716,.T.);
#966=ORIENTED_EDGE('',*,*,#740,.F.);
#967=ORIENTED_EDGE('',*,*,#741,.T.);
#968=ORIENTED_EDGE('',*,*,#742,.T.);
#969=ORIENTED_EDGE('',*,*,#743,.F.);
#970=ORIENTED_EDGE('',*,*,#744,.F.);
#971=ORIENTED_EDGE('',*,*,#742,.F.);
#972=ORIENTED_EDGE('',*,*,#745,.F.);
#973=ORIENTED_EDGE('',*,*,#746,.T.);
#974=ORIENTED_EDGE('',*,*,#741,.F.);
#975=ORIENTED_EDGE('',*,*,#746,.F.);
#976=ORIENTED_EDGE('',*,*,#747,.T.);
#977=ORIENTED_EDGE('',*,*,#748,.T.);
#978=ORIENTED_EDGE('',*,*,#749,.F.);
#979=ORIENTED_EDGE('',*,*,#750,.F.);
#980=ORIENTED_EDGE('',*,*,#748,.F.);
#981=ORIENTED_EDGE('',*,*,#751,.F.);
#982=ORIENTED_EDGE('',*,*,#752,.T.);
#983=ORIENTED_EDGE('',*,*,#747,.F.);
#984=ORIENTED_EDGE('',*,*,#752,.F.);
#985=ORIENTED_EDGE('',*,*,#753,.T.);
#986=ORIENTED_EDGE('',*,*,#754,.T.);
#987=ORIENTED_EDGE('',*,*,#755,.F.);
#988=ORIENTED_EDGE('',*,*,#756,.F.);
#989=ORIENTED_EDGE('',*,*,#754,.F.);
#990=ORIENTED_EDGE('',*,*,#757,.F.);
#991=ORIENTED_EDGE('',*,*,#758,.T.);
#992=ORIENTED_EDGE('',*,*,#753,.F.);
#993=ORIENTED_EDGE('',*,*,#758,.F.);
#994=ORIENTED_EDGE('',*,*,#759,.T.);
#995=ORIENTED_EDGE('',*,*,#760,.T.);
#996=ORIENTED_EDGE('',*,*,#761,.F.);
#997=ORIENTED_EDGE('',*,*,#762,.F.);
#998=ORIENTED_EDGE('',*,*,#760,.F.);
#999=ORIENTED_EDGE('',*,*,#763,.F.);
#1000=ORIENTED_EDGE('',*,*,#764,.T.);
#1001=ORIENTED_EDGE('',*,*,#759,.F.);
#1002=ORIENTED_EDGE('',*,*,#764,.F.);
#1003=ORIENTED_EDGE('',*,*,#765,.T.);
#1004=ORIENTED_EDGE('',*,*,#766,.T.);
#1005=ORIENTED_EDGE('',*,*,#767,.F.);
#1006=ORIENTED_EDGE('',*,*,#768,.F.);
#1007=ORIENTED_EDGE('',*,*,#766,.F.);
#1008=ORIENTED_EDGE('',*,*,#769,.F.);
#1009=ORIENTED_EDGE('',*,*,#770,.T.);
#1010=ORIENTED_EDGE('',*,*,#765,.F.);
#1011=ORIENTED_EDGE('',*,*,#770,.F.);
#1012=ORIENTED_EDGE('',*,*,#771,.T.);
#1013=ORIENTED_EDGE('',*,*,#772,.T.);
#1014=ORIENTED_EDGE('',*,*,#773,.F.);
#1015=ORIENTED_EDGE('',*,*,#774,.F.);
#1016=ORIENTED_EDGE('',*,*,#772,.F.);
#1017=ORIENTED_EDGE('',*,*,#775,.F.);
#1018=ORIENTED_EDGE('',*,*,#776,.T.);
#1019=ORIENTED_EDGE('',*,*,#771,.F.);
#1020=ORIENTED_EDGE('',*,*,#776,.F.);
#1021=ORIENTED_EDGE('',*,*,#777,.T.);
#1022=ORIENTED_EDGE('',*,*,#778,.T.);
#1023=ORIENTED_EDGE('',*,*,#779,.F.);
#1024=ORIENTED_EDGE('',*,*,#780,.F.);
#1025=ORIENTED_EDGE('',*,*,#778,.F.);
#1026=ORIENTED_EDGE('',*,*,#781,.F.);
#1027=ORIENTED_EDGE('',*,*,#782,.T.);
#1028=ORIENTED_EDGE('',*,*,#777,.F.);
#1029=ORIENTED_EDGE('',*,*,#782,.F.);
#1030=ORIENTED_EDGE('',*,*,#708,.F.);
#1031=ORIENTED_EDGE('',*,*,#783,.T.);
#1032=ORIENTED_EDGE('',*,*,#767,.T.);
#1033=ORIENTED_EDGE('',*,*,#768,.T.);
#1034=ORIENTED_EDGE('',*,*,#783,.F.);
#1035=ORIENTED_EDGE('',*,*,#707,.F.);
#1036=ORIENTED_EDGE('',*,*,#784,.T.);
#1037=ORIENTED_EDGE('',*,*,#743,.T.);
#1038=ORIENTED_EDGE('',*,*,#744,.T.);
#1039=ORIENTED_EDGE('',*,*,#784,.F.);
#1040=ORIENTED_EDGE('',*,*,#706,.F.);
#1041=ORIENTED_EDGE('',*,*,#785,.T.);
#1042=ORIENTED_EDGE('',*,*,#761,.T.);
#1043=ORIENTED_EDGE('',*,*,#762,.T.);
#1044=ORIENTED_EDGE('',*,*,#785,.F.);
#1045=ORIENTED_EDGE('',*,*,#705,.F.);
#1046=ORIENTED_EDGE('',*,*,#786,.T.);
#1047=ORIENTED_EDGE('',*,*,#779,.T.);
#1048=ORIENTED_EDGE('',*,*,#780,.T.);
#1049=ORIENTED_EDGE('',*,*,#786,.F.);
#1050=ORIENTED_EDGE('',*,*,#704,.F.);
#1051=ORIENTED_EDGE('',*,*,#787,.T.);
#1052=ORIENTED_EDGE('',*,*,#749,.T.);
#1053=ORIENTED_EDGE('',*,*,#750,.T.);
#1054=ORIENTED_EDGE('',*,*,#787,.F.);
#1055=ORIENTED_EDGE('',*,*,#703,.F.);
#1056=ORIENTED_EDGE('',*,*,#788,.T.);
#1057=ORIENTED_EDGE('',*,*,#755,.T.);
#1058=ORIENTED_EDGE('',*,*,#756,.T.);
#1059=ORIENTED_EDGE('',*,*,#788,.F.);
#1060=ORIENTED_EDGE('',*,*,#702,.F.);
#1061=ORIENTED_EDGE('',*,*,#789,.T.);
#1062=ORIENTED_EDGE('',*,*,#773,.T.);
#1063=ORIENTED_EDGE('',*,*,#774,.T.);
#1064=ORIENTED_EDGE('',*,*,#789,.F.);
#1065=ORIENTED_EDGE('',*,*,#790,.F.);
#1066=ORIENTED_EDGE('',*,*,#791,.F.);
#1067=ORIENTED_EDGE('',*,*,#679,.F.);
#1068=ORIENTED_EDGE('',*,*,#792,.F.);
#1069=ORIENTED_EDGE('',*,*,#793,.F.);
#1070=ORIENTED_EDGE('',*,*,#794,.F.);
#1071=ORIENTED_EDGE('',*,*,#683,.F.);
#1072=ORIENTED_EDGE('',*,*,#795,.F.);
#1073=ORIENTED_EDGE('',*,*,#796,.F.);
#1074=ORIENTED_EDGE('',*,*,#797,.F.);
#1075=ORIENTED_EDGE('',*,*,#687,.F.);
#1076=ORIENTED_EDGE('',*,*,#798,.F.);
#1077=ORIENTED_EDGE('',*,*,#792,.T.);
#1078=ORIENTED_EDGE('',*,*,#678,.F.);
#1079=ORIENTED_EDGE('',*,*,#799,.F.);
#1080=ORIENTED_EDGE('',*,*,#800,.F.);
#1081=ORIENTED_EDGE('',*,*,#795,.T.);
#1082=ORIENTED_EDGE('',*,*,#682,.F.);
#1083=ORIENTED_EDGE('',*,*,#801,.F.);
#1084=ORIENTED_EDGE('',*,*,#802,.F.);
#1085=ORIENTED_EDGE('',*,*,#790,.T.);
#1086=ORIENTED_EDGE('',*,*,#800,.T.);
#1087=ORIENTED_EDGE('',*,*,#803,.F.);
#1088=ORIENTED_EDGE('',*,*,#674,.T.);
#1089=ORIENTED_EDGE('',*,*,#804,.T.);
#1090=ORIENTED_EDGE('',*,*,#805,.T.);
#1091=ORIENTED_EDGE('',*,*,#806,.T.);
#1092=ORIENTED_EDGE('',*,*,#807,.T.);
#1093=ORIENTED_EDGE('',*,*,#808,.T.);
#1094=ORIENTED_EDGE('',*,*,#809,.T.);
#1095=ORIENTED_EDGE('',*,*,#810,.T.);
#1096=ORIENTED_EDGE('',*,*,#811,.T.);
#1097=ORIENTED_EDGE('',*,*,#812,.T.);
#1098=ORIENTED_EDGE('',*,*,#813,.T.);
#1099=ORIENTED_EDGE('',*,*,#814,.T.);
#1100=ORIENTED_EDGE('',*,*,#815,.T.);
#1101=ORIENTED_EDGE('',*,*,#816,.T.);
#1102=ORIENTED_EDGE('',*,*,#817,.F.);
#1103=ORIENTED_EDGE('',*,*,#818,.T.);
#1104=ORIENTED_EDGE('',*,*,#796,.T.);
#1105=ORIENTED_EDGE('',*,*,#819,.T.);
#1106=ORIENTED_EDGE('',*,*,#820,.F.);
#1107=ORIENTED_EDGE('',*,*,#821,.T.);
#1108=ORIENTED_EDGE('',*,*,#793,.T.);
#1109=ORIENTED_EDGE('',*,*,#802,.T.);
#1110=ORIENTED_EDGE('',*,*,#822,.F.);
#1111=ORIENTED_EDGE('',*,*,#823,.T.);
#1112=ORIENTED_EDGE('',*,*,#757,.T.);
#1113=ORIENTED_EDGE('',*,*,#775,.T.);
#1114=ORIENTED_EDGE('',*,*,#729,.T.);
#1115=ORIENTED_EDGE('',*,*,#769,.T.);
#1116=ORIENTED_EDGE('',*,*,#723,.T.);
#1117=ORIENTED_EDGE('',*,*,#745,.T.);
#1118=ORIENTED_EDGE('',*,*,#735,.T.);
#1119=ORIENTED_EDGE('',*,*,#763,.T.);
#1120=ORIENTED_EDGE('',*,*,#781,.T.);
#1121=ORIENTED_EDGE('',*,*,#717,.T.);
#1122=ORIENTED_EDGE('',*,*,#751,.T.);
#1123=ORIENTED_EDGE('',*,*,#798,.T.);
#1124=ORIENTED_EDGE('',*,*,#686,.F.);
#1125=ORIENTED_EDGE('',*,*,#824,.F.);
#1126=ORIENTED_EDGE('',*,*,#819,.F.);
#1127=ORIENTED_EDGE('',*,*,#815,.F.);
#1128=ORIENTED_EDGE('',*,*,#825,.F.);
#1129=ORIENTED_EDGE('',*,*,#691,.F.);
#1130=ORIENTED_EDGE('',*,*,#826,.F.);
#1131=ORIENTED_EDGE('',*,*,#826,.T.);
#1132=ORIENTED_EDGE('',*,*,#690,.F.);
#1133=ORIENTED_EDGE('',*,*,#827,.F.);
#1134=ORIENTED_EDGE('',*,*,#816,.F.);
#1135=ORIENTED_EDGE('',*,*,#828,.F.);
#1136=ORIENTED_EDGE('',*,*,#661,.F.);
#1137=ORIENTED_EDGE('',*,*,#670,.T.);
#1138=ORIENTED_EDGE('',*,*,#701,.F.);
#1139=ORIENTED_EDGE('',*,*,#828,.T.);
#1140=ORIENTED_EDGE('',*,*,#700,.F.);
#1141=ORIENTED_EDGE('',*,*,#829,.F.);
#1142=ORIENTED_EDGE('',*,*,#662,.F.);
#1143=ORIENTED_EDGE('',*,*,#825,.T.);
#1144=ORIENTED_EDGE('',*,*,#814,.F.);
#1145=ORIENTED_EDGE('',*,*,#830,.T.);
#1146=ORIENTED_EDGE('',*,*,#692,.F.);
#1147=ORIENTED_EDGE('',*,*,#804,.F.);
#1148=ORIENTED_EDGE('',*,*,#673,.T.);
#1149=ORIENTED_EDGE('',*,*,#666,.F.);
#1150=ORIENTED_EDGE('',*,*,#831,.F.);
#1151=ORIENTED_EDGE('',*,*,#805,.F.);
#1152=ORIENTED_EDGE('',*,*,#831,.T.);
#1153=ORIENTED_EDGE('',*,*,#665,.F.);
#1154=ORIENTED_EDGE('',*,*,#832,.F.);
#1155=ORIENTED_EDGE('',*,*,#806,.F.);
#1156=ORIENTED_EDGE('',*,*,#832,.T.);
#1157=ORIENTED_EDGE('',*,*,#664,.F.);
#1158=ORIENTED_EDGE('',*,*,#833,.F.);
#1159=ORIENTED_EDGE('',*,*,#834,.T.);
#1160=ORIENTED_EDGE('',*,*,#817,.T.);
#1161=ORIENTED_EDGE('',*,*,#827,.T.);
#1162=ORIENTED_EDGE('',*,*,#689,.F.);
#1163=ORIENTED_EDGE('',*,*,#797,.T.);
#1164=ORIENTED_EDGE('',*,*,#818,.F.);
#1165=ORIENTED_EDGE('',*,*,#834,.F.);
#1166=ORIENTED_EDGE('',*,*,#688,.F.);
#1167=ORIENTED_EDGE('',*,*,#835,.T.);
#1168=ORIENTED_EDGE('',*,*,#820,.T.);
#1169=ORIENTED_EDGE('',*,*,#824,.T.);
#1170=ORIENTED_EDGE('',*,*,#685,.F.);
#1171=ORIENTED_EDGE('',*,*,#794,.T.);
#1172=ORIENTED_EDGE('',*,*,#821,.F.);
#1173=ORIENTED_EDGE('',*,*,#835,.F.);
#1174=ORIENTED_EDGE('',*,*,#684,.F.);
#1175=ORIENTED_EDGE('',*,*,#836,.T.);
#1176=ORIENTED_EDGE('',*,*,#822,.T.);
#1177=ORIENTED_EDGE('',*,*,#801,.T.);
#1178=ORIENTED_EDGE('',*,*,#681,.F.);
#1179=ORIENTED_EDGE('',*,*,#791,.T.);
#1180=ORIENTED_EDGE('',*,*,#823,.F.);
#1181=ORIENTED_EDGE('',*,*,#836,.F.);
#1182=ORIENTED_EDGE('',*,*,#680,.F.);
#1183=ORIENTED_EDGE('',*,*,#675,.T.);
#1184=ORIENTED_EDGE('',*,*,#803,.T.);
#1185=ORIENTED_EDGE('',*,*,#799,.T.);
#1186=ORIENTED_EDGE('',*,*,#677,.F.);
#1187=ORIENTED_EDGE('',*,*,#837,.F.);
#1188=ORIENTED_EDGE('',*,*,#810,.F.);
#1189=ORIENTED_EDGE('',*,*,#838,.T.);
#1190=ORIENTED_EDGE('',*,*,#696,.F.);
#1191=ORIENTED_EDGE('',*,*,#838,.F.);
#1192=ORIENTED_EDGE('',*,*,#809,.F.);
#1193=ORIENTED_EDGE('',*,*,#839,.T.);
#1194=ORIENTED_EDGE('',*,*,#697,.F.);
#1195=ORIENTED_EDGE('',*,*,#839,.F.);
#1196=ORIENTED_EDGE('',*,*,#808,.F.);
#1197=ORIENTED_EDGE('',*,*,#840,.T.);
#1198=ORIENTED_EDGE('',*,*,#698,.F.);
#1199=ORIENTED_EDGE('',*,*,#840,.F.);
#1200=ORIENTED_EDGE('',*,*,#807,.F.);
#1201=ORIENTED_EDGE('',*,*,#833,.T.);
#1202=ORIENTED_EDGE('',*,*,#663,.F.);
#1203=ORIENTED_EDGE('',*,*,#829,.T.);
#1204=ORIENTED_EDGE('',*,*,#699,.F.);
#1205=ORIENTED_EDGE('',*,*,#830,.F.);
#1206=ORIENTED_EDGE('',*,*,#813,.F.);
#1207=ORIENTED_EDGE('',*,*,#841,.T.);
#1208=ORIENTED_EDGE('',*,*,#693,.F.);
#1209=ORIENTED_EDGE('',*,*,#841,.F.);
#1210=ORIENTED_EDGE('',*,*,#812,.F.);
#1211=ORIENTED_EDGE('',*,*,#842,.F.);
#1212=ORIENTED_EDGE('',*,*,#694,.F.);
#1213=ORIENTED_EDGE('',*,*,#842,.T.);
#1214=ORIENTED_EDGE('',*,*,#811,.F.);
#1215=ORIENTED_EDGE('',*,*,#837,.T.);
#1216=ORIENTED_EDGE('',*,*,#695,.F.);
#1217=PLANE('',#1332);
#1218=PLANE('',#1333);
#1219=PLANE('',#1335);
#1220=PLANE('',#1336);
#1221=PLANE('',#1337);
#1222=PLANE('',#1338);
#1223=PLANE('',#1444);
#1224=PLANE('',#1445);
#1225=PLANE('',#1446);
#1226=PLANE('',#1455);
#1227=PLANE('',#1456);
#1228=PLANE('',#1457);
#1229=PLANE('',#1458);
#1230=PLANE('',#1459);
#1231=PLANE('',#1460);
#1232=PLANE('',#1461);
#1233=PLANE('',#1462);
#1234=PLANE('',#1463);
#1235=PLANE('',#1465);
#1236=PLANE('',#1467);
#1237=PLANE('',#1469);
#1238=PLANE('',#1471);
#1239=PLANE('',#1473);
#1240=PLANE('',#1476);
#1241=ADVANCED_FACE('',(#159),#1217,.F.);
#1242=ADVANCED_FACE('',(#160),#1218,.T.);
#1243=ADVANCED_FACE('',(#161),#1219,.F.);
#1244=ADVANCED_FACE('',(#162),#1220,.T.);
#1245=ADVANCED_FACE('',(#163),#1221,.F.);
#1246=ADVANCED_FACE('',(#164,#59,#60,#61,#62,#63,#64,#65,#66,#67,#68,#69),
#1222,.T.);
#1247=ADVANCED_FACE('',(#165),#48,.F.);
#1248=ADVANCED_FACE('',(#166),#15,.F.);
#1249=ADVANCED_FACE('',(#167),#49,.F.);
#1250=ADVANCED_FACE('',(#168),#16,.F.);
#1251=ADVANCED_FACE('',(#169),#50,.F.);
#1252=ADVANCED_FACE('',(#170),#17,.F.);
#1253=ADVANCED_FACE('',(#171),#51,.F.);
#1254=ADVANCED_FACE('',(#172),#18,.F.);
#1255=ADVANCED_FACE('',(#173),#19,.F.);
#1256=ADVANCED_FACE('',(#174),#20,.F.);
#1257=ADVANCED_FACE('',(#175),#21,.F.);
#1258=ADVANCED_FACE('',(#176),#22,.F.);
#1259=ADVANCED_FACE('',(#177),#52,.F.);
#1260=ADVANCED_FACE('',(#178),#23,.F.);
#1261=ADVANCED_FACE('',(#179),#53,.F.);
#1262=ADVANCED_FACE('',(#180),#24,.F.);
#1263=ADVANCED_FACE('',(#181),#54,.F.);
#1264=ADVANCED_FACE('',(#182),#25,.F.);
#1265=ADVANCED_FACE('',(#183),#55,.F.);
#1266=ADVANCED_FACE('',(#184),#26,.F.);
#1267=ADVANCED_FACE('',(#185),#56,.F.);
#1268=ADVANCED_FACE('',(#186),#27,.F.);
#1269=ADVANCED_FACE('',(#187),#57,.F.);
#1270=ADVANCED_FACE('',(#188),#28,.F.);
#1271=ADVANCED_FACE('',(#189),#58,.F.);
#1272=ADVANCED_FACE('',(#190),#29,.F.);
#1273=ADVANCED_FACE('',(#191),#30,.F.);
#1274=ADVANCED_FACE('',(#192),#31,.F.);
#1275=ADVANCED_FACE('',(#193),#32,.F.);
#1276=ADVANCED_FACE('',(#194),#33,.F.);
#1277=ADVANCED_FACE('',(#195),#34,.F.);
#1278=ADVANCED_FACE('',(#196),#35,.F.);
#1279=ADVANCED_FACE('',(#197),#36,.F.);
#1280=ADVANCED_FACE('',(#198),#37,.F.);
#1281=ADVANCED_FACE('',(#199),#38,.F.);
#1282=ADVANCED_FACE('',(#200),#39,.F.);
#1283=ADVANCED_FACE('',(#201),#1223,.F.);
#1284=ADVANCED_FACE('',(#202),#1224,.F.);
#1285=ADVANCED_FACE('',(#203,#70,#71,#72,#73,#74,#75,#76,#77,#78,#79,#80),
#1225,.F.);
#1286=ADVANCED_FACE('',(#204),#1226,.F.);
#1287=ADVANCED_FACE('',(#205),#1227,.F.);
#1288=ADVANCED_FACE('',(#206),#1228,.F.);
#1289=ADVANCED_FACE('',(#207),#1229,.F.);
#1290=ADVANCED_FACE('',(#208),#1230,.T.);
#1291=ADVANCED_FACE('',(#209),#1231,.T.);
#1292=ADVANCED_FACE('',(#210),#1232,.T.);
#1293=ADVANCED_FACE('',(#211),#1233,.T.);
#1294=ADVANCED_FACE('',(#212),#1234,.T.);
#1295=ADVANCED_FACE('',(#213),#40,.F.);
#1296=ADVANCED_FACE('',(#214),#1235,.F.);
#1297=ADVANCED_FACE('',(#215),#41,.F.);
#1298=ADVANCED_FACE('',(#216),#1236,.F.);
#1299=ADVANCED_FACE('',(#217),#42,.F.);
#1300=ADVANCED_FACE('',(#218),#1237,.F.);
#1301=ADVANCED_FACE('',(#219),#43,.F.);
#1302=ADVANCED_FACE('',(#220),#1238,.T.);
#1303=ADVANCED_FACE('',(#221),#44,.T.);
#1304=ADVANCED_FACE('',(#222),#1239,.T.);
#1305=ADVANCED_FACE('',(#223),#45,.T.);
#1306=ADVANCED_FACE('',(#224),#46,.T.);
#1307=ADVANCED_FACE('',(#225),#1240,.T.);
#1308=ADVANCED_FACE('',(#226),#47,.T.);
#1309=CLOSED_SHELL('',(#1241,#1242,#1243,#1244,#1245,#1246,#1247,#1248,
#1249,#1250,#1251,#1252,#1253,#1254,#1255,#1256,#1257,#1258,#1259,#1260,
#1261,#1262,#1263,#1264,#1265,#1266,#1267,#1268,#1269,#1270,#1271,#1272,
#1273,#1274,#1275,#1276,#1277,#1278,#1279,#1280,#1281,#1282,#1283,#1284,
#1285,#1286,#1287,#1288,#1289,#1290,#1291,#1292,#1293,#1294,#1295,#1296,
#1297,#1298,#1299,#1300,#1301,#1302,#1303,#1304,#1305,#1306,#1307,#1308));
#1310=DERIVED_UNIT_ELEMENT(#1313,1.);
#1311=DERIVED_UNIT_ELEMENT(#2263,-3.);
#1312=DIMENSIONAL_EXPONENTS(0.,1.,0.,0.,0.,0.,0.);
#1313=(
CONVERSION_BASED_UNIT('gram',#1315)
MASS_UNIT()
NAMED_UNIT(#1312)
);
#1314=(
MASS_UNIT()
NAMED_UNIT(*)
SI_UNIT(.KILO.,.GRAM.)
);
#1315=MASS_MEASURE_WITH_UNIT(MASS_MEASURE(0.001),#1314);
#1316=DERIVED_UNIT((#1310,#1311));
#1317=MEASURE_REPRESENTATION_ITEM('density measure',
POSITIVE_RATIO_MEASURE(1.06),#1316);
#1318=PROPERTY_DEFINITION_REPRESENTATION(#1323,#1320);
#1319=PROPERTY_DEFINITION_REPRESENTATION(#1324,#1321);
#1320=REPRESENTATION('material name',(#1322),#2260);
#1321=REPRESENTATION('density',(#1317),#2260);
#1322=DESCRIPTIVE_REPRESENTATION_ITEM('ABS Plastic','ABS Plastic');
#1323=PROPERTY_DEFINITION('material property','material name',#2270);
#1324=PROPERTY_DEFINITION('material property','density of part',#2270);
#1325=DATE_TIME_ROLE('creation_date');
#1326=APPLIED_DATE_AND_TIME_ASSIGNMENT(#1327,#1325,(#2270));
#1327=DATE_AND_TIME(#1328,#1329);
#1328=CALENDAR_DATE(2026,19,5);
#1329=LOCAL_TIME(0,0,0.,#1330);
#1330=COORDINATED_UNIVERSAL_TIME_OFFSET(0,0,.BEHIND.);
#1331=AXIS2_PLACEMENT_3D('',#1881,#1478,#1479);
#1332=AXIS2_PLACEMENT_3D('',#1882,#1480,#1481);
#1333=AXIS2_PLACEMENT_3D('',#1891,#1486,#1487);
#1334=AXIS2_PLACEMENT_3D('',#1899,#1491,#1492);
#1335=AXIS2_PLACEMENT_3D('',#1907,#1497,#1498);
#1336=AXIS2_PLACEMENT_3D('',#1913,#1502,#1503);
#1337=AXIS2_PLACEMENT_3D('',#1917,#1506,#1507);
#1338=AXIS2_PLACEMENT_3D('',#1925,#1512,#1513);
#1339=AXIS2_PLACEMENT_3D('',#1927,#1514,#1515);
#1340=AXIS2_PLACEMENT_3D('',#1931,#1517,#1518);
#1341=AXIS2_PLACEMENT_3D('',#1935,#1520,#1521);
#1342=AXIS2_PLACEMENT_3D('',#1939,#1523,#1524);
#1343=AXIS2_PLACEMENT_3D('',#1943,#1526,#1527);
#1344=AXIS2_PLACEMENT_3D('',#1947,#1529,#1530);
#1345=AXIS2_PLACEMENT_3D('',#1951,#1532,#1533);
#1346=AXIS2_PLACEMENT_3D('',#1959,#1537,#1538);
#1347=AXIS2_PLACEMENT_3D('',#1963,#1540,#1541);
#1348=AXIS2_PLACEMENT_3D('',#1967,#1543,#1544);
#1349=AXIS2_PLACEMENT_3D('',#1971,#1546,#1547);
#1350=AXIS2_PLACEMENT_3D('',#1976,#1550,#1551);
#1351=AXIS2_PLACEMENT_3D('',#1978,#1552,#1553);
#1352=AXIS2_PLACEMENT_3D('',#1980,#1554,#1555);
#1353=AXIS2_PLACEMENT_3D('',#1982,#1556,#1557);
#1354=AXIS2_PLACEMENT_3D('',#1984,#1558,#1559);
#1355=AXIS2_PLACEMENT_3D('',#1986,#1560,#1561);
#1356=AXIS2_PLACEMENT_3D('',#1988,#1562,#1563);
#1357=AXIS2_PLACEMENT_3D('',#1990,#1564,#1565);
#1358=AXIS2_PLACEMENT_3D('',#1992,#1566,#1567);
#1359=AXIS2_PLACEMENT_3D('',#1994,#1568,#1569);
#1360=AXIS2_PLACEMENT_3D('',#1996,#1570,#1571);
#1361=AXIS2_PLACEMENT_3D('',#1997,#1572,#1573);
#1362=AXIS2_PLACEMENT_3D('',#1999,#1574,#1575);
#1363=AXIS2_PLACEMENT_3D('',#2003,#1577,#1578);
#1364=AXIS2_PLACEMENT_3D('',#2004,#1579,#1580);
#1365=AXIS2_PLACEMENT_3D('',#2005,#1581,#1582);
#1366=AXIS2_PLACEMENT_3D('',#2007,#1583,#1584);
#1367=AXIS2_PLACEMENT_3D('',#2009,#1586,#1587);
#1368=AXIS2_PLACEMENT_3D('',#2011,#1588,#1589);
#1369=AXIS2_PLACEMENT_3D('',#2015,#1591,#1592);
#1370=AXIS2_PLACEMENT_3D('',#2016,#1593,#1594);
#1371=AXIS2_PLACEMENT_3D('',#2017,#1595,#1596);
#1372=AXIS2_PLACEMENT_3D('',#2019,#1597,#1598);
#1373=AXIS2_PLACEMENT_3D('',#2021,#1600,#1601);
#1374=AXIS2_PLACEMENT_3D('',#2023,#1602,#1603);
#1375=AXIS2_PLACEMENT_3D('',#2027,#1605,#1606);
#1376=AXIS2_PLACEMENT_3D('',#2028,#1607,#1608);
#1377=AXIS2_PLACEMENT_3D('',#2029,#1609,#1610);
#1378=AXIS2_PLACEMENT_3D('',#2031,#1611,#1612);
#1379=AXIS2_PLACEMENT_3D('',#2033,#1614,#1615);
#1380=AXIS2_PLACEMENT_3D('',#2035,#1616,#1617);
#1381=AXIS2_PLACEMENT_3D('',#2039,#1619,#1620);
#1382=AXIS2_PLACEMENT_3D('',#2040,#1621,#1622);
#1383=AXIS2_PLACEMENT_3D('',#2041,#1623,#1624);
#1384=AXIS2_PLACEMENT_3D('',#2043,#1625,#1626);
#1385=AXIS2_PLACEMENT_3D('',#2045,#1628,#1629);
#1386=AXIS2_PLACEMENT_3D('',#2047,#1631,#1632);
#1387=AXIS2_PLACEMENT_3D('',#2049,#1634,#1635);
#1388=AXIS2_PLACEMENT_3D('',#2051,#1637,#1638);
#1389=AXIS2_PLACEMENT_3D('',#2053,#1640,#1641);
#1390=AXIS2_PLACEMENT_3D('',#2055,#1642,#1643);
#1391=AXIS2_PLACEMENT_3D('',#2059,#1645,#1646);
#1392=AXIS2_PLACEMENT_3D('',#2060,#1647,#1648);
#1393=AXIS2_PLACEMENT_3D('',#2061,#1649,#1650);
#1394=AXIS2_PLACEMENT_3D('',#2063,#1651,#1652);
#1395=AXIS2_PLACEMENT_3D('',#2065,#1654,#1655);
#1396=AXIS2_PLACEMENT_3D('',#2067,#1656,#1657);
#1397=AXIS2_PLACEMENT_3D('',#2071,#1659,#1660);
#1398=AXIS2_PLACEMENT_3D('',#2072,#1661,#1662);
#1399=AXIS2_PLACEMENT_3D('',#2073,#1663,#1664);
#1400=AXIS2_PLACEMENT_3D('',#2075,#1665,#1666);
#1401=AXIS2_PLACEMENT_3D('',#2077,#1668,#1669);
#1402=AXIS2_PLACEMENT_3D('',#2079,#1670,#1671);
#1403=AXIS2_PLACEMENT_3D('',#2083,#1673,#1674);
#1404=AXIS2_PLACEMENT_3D('',#2084,#1675,#1676);
#1405=AXIS2_PLACEMENT_3D('',#2085,#1677,#1678);
#1406=AXIS2_PLACEMENT_3D('',#2087,#1679,#1680);
#1407=AXIS2_PLACEMENT_3D('',#2089,#1682,#1683);
#1408=AXIS2_PLACEMENT_3D('',#2091,#1684,#1685);
#1409=AXIS2_PLACEMENT_3D('',#2095,#1687,#1688);
#1410=AXIS2_PLACEMENT_3D('',#2096,#1689,#1690);
#1411=AXIS2_PLACEMENT_3D('',#2097,#1691,#1692);
#1412=AXIS2_PLACEMENT_3D('',#2099,#1693,#1694);
#1413=AXIS2_PLACEMENT_3D('',#2101,#1696,#1697);
#1414=AXIS2_PLACEMENT_3D('',#2103,#1698,#1699);
#1415=AXIS2_PLACEMENT_3D('',#2107,#1701,#1702);
#1416=AXIS2_PLACEMENT_3D('',#2108,#1703,#1704);
#1417=AXIS2_PLACEMENT_3D('',#2109,#1705,#1706);
#1418=AXIS2_PLACEMENT_3D('',#2111,#1707,#1708);
#1419=AXIS2_PLACEMENT_3D('',#2113,#1710,#1711);
#1420=AXIS2_PLACEMENT_3D('',#2115,#1712,#1713);
#1421=AXIS2_PLACEMENT_3D('',#2119,#1715,#1716);
#1422=AXIS2_PLACEMENT_3D('',#2120,#1717,#1718);
#1423=AXIS2_PLACEMENT_3D('',#2121,#1719,#1720);
#1424=AXIS2_PLACEMENT_3D('',#2123,#1721,#1722);
#1425=AXIS2_PLACEMENT_3D('',#2125,#1724,#1725);
#1426=AXIS2_PLACEMENT_3D('',#2127,#1726,#1727);
#1427=AXIS2_PLACEMENT_3D('',#2131,#1729,#1730);
#1428=AXIS2_PLACEMENT_3D('',#2132,#1731,#1732);
#1429=AXIS2_PLACEMENT_3D('',#2133,#1733,#1734);
#1430=AXIS2_PLACEMENT_3D('',#2135,#1735,#1736);
#1431=AXIS2_PLACEMENT_3D('',#2137,#1738,#1739);
#1432=AXIS2_PLACEMENT_3D('',#2139,#1741,#1742);
#1433=AXIS2_PLACEMENT_3D('',#2141,#1744,#1745);
#1434=AXIS2_PLACEMENT_3D('',#2143,#1747,#1748);
#1435=AXIS2_PLACEMENT_3D('',#2145,#1750,#1751);
#1436=AXIS2_PLACEMENT_3D('',#2147,#1753,#1754);
#1437=AXIS2_PLACEMENT_3D('',#2149,#1756,#1757);
#1438=AXIS2_PLACEMENT_3D('',#2151,#1759,#1760);
#1439=AXIS2_PLACEMENT_3D('',#2154,#1761,#1762);
#1440=AXIS2_PLACEMENT_3D('',#2157,#1765,#1766);
#1441=AXIS2_PLACEMENT_3D('',#2160,#1767,#1768);
#1442=AXIS2_PLACEMENT_3D('',#2163,#1771,#1772);
#1443=AXIS2_PLACEMENT_3D('',#2166,#1773,#1774);
#1444=AXIS2_PLACEMENT_3D('',#2169,#1777,#1778);
#1445=AXIS2_PLACEMENT_3D('',#2173,#1781,#1782);
#1446=AXIS2_PLACEMENT_3D('',#2177,#1785,#1786);
#1447=AXIS2_PLACEMENT_3D('',#2178,#1787,#1788);
#1448=AXIS2_PLACEMENT_3D('',#2186,#1792,#1793);
#1449=AXIS2_PLACEMENT_3D('',#2190,#1795,#1796);
#1450=AXIS2_PLACEMENT_3D('',#2194,#1798,#1799);
#1451=AXIS2_PLACEMENT_3D('',#2198,#1801,#1802);
#1452=AXIS2_PLACEMENT_3D('',#2206,#1806,#1807);
#1453=AXIS2_PLACEMENT_3D('',#2211,#1810,#1811);
#1454=AXIS2_PLACEMENT_3D('',#2214,#1813,#1814);
#1455=AXIS2_PLACEMENT_3D('',#2216,#1816,#1817);
#1456=AXIS2_PLACEMENT_3D('',#2218,#1819,#1820);
#1457=AXIS2_PLACEMENT_3D('',#2221,#1823,#1824);
#1458=AXIS2_PLACEMENT_3D('',#2223,#1826,#1827);
#1459=AXIS2_PLACEMENT_3D('',#2225,#1829,#1830);
#1460=AXIS2_PLACEMENT_3D('',#2227,#1832,#1833);
#1461=AXIS2_PLACEMENT_3D('',#2229,#1835,#1836);
#1462=AXIS2_PLACEMENT_3D('',#2231,#1838,#1839);
#1463=AXIS2_PLACEMENT_3D('',#2233,#1841,#1842);
#1464=AXIS2_PLACEMENT_3D('',#2235,#1844,#1845);
#1465=AXIS2_PLACEMENT_3D('',#2237,#1847,#1848);
#1466=AXIS2_PLACEMENT_3D('',#2238,#1849,#1850);
#1467=AXIS2_PLACEMENT_3D('',#2240,#1852,#1853);
#1468=AXIS2_PLACEMENT_3D('',#2241,#1854,#1855);
#1469=AXIS2_PLACEMENT_3D('',#2243,#1857,#1858);
#1470=AXIS2_PLACEMENT_3D('',#2244,#1859,#1860);
#1471=AXIS2_PLACEMENT_3D('',#2245,#1861,#1862);
#1472=AXIS2_PLACEMENT_3D('',#2248,#1865,#1866);
#1473=AXIS2_PLACEMENT_3D('',#2250,#1868,#1869);
#1474=AXIS2_PLACEMENT_3D('',#2252,#1871,#1872);
#1475=AXIS2_PLACEMENT_3D('',#2253,#1873,#1874);
#1476=AXIS2_PLACEMENT_3D('',#2255,#1876,#1877);
#1477=AXIS2_PLACEMENT_3D('',#2257,#1879,#1880);
#1478=DIRECTION('axis',(0.,0.,1.));
#1479=DIRECTION('refdir',(1.,0.,0.));
#1480=DIRECTION('center_axis',(0.,1.,0.));
#1481=DIRECTION('ref_axis',(0.,0.,1.));
#1482=DIRECTION('',(1.,0.,-2.96059473233375E-16));
#1483=DIRECTION('',(0.,0.,1.));
#1484=DIRECTION('',(-1.,0.,0.));
#1485=DIRECTION('',(0.,0.,-1.));
#1486=DIRECTION('center_axis',(0.,0.,-1.));
#1487=DIRECTION('ref_axis',(-1.,0.,0.));
#1488=DIRECTION('',(0.,1.,0.));
#1489=DIRECTION('',(-1.,0.,0.));
#1490=DIRECTION('',(-2.19303313506204E-16,1.,0.));
#1491=DIRECTION('center_axis',(0.,0.,-1.));
#1492=DIRECTION('ref_axis',(-1.,-8.88178419700126E-16,0.));
#1493=DIRECTION('',(0.698309686973656,-0.715795767715034,0.));
#1494=DIRECTION('',(0.999999990689184,0.000136461099217052,0.));
#1495=DIRECTION('',(0.000136461099207841,-0.999999990689184,0.));
#1496=DIRECTION('',(5.1488604040587E-16,-1.,0.));
#1497=DIRECTION('center_axis',(1.,0.,0.));
#1498=DIRECTION('ref_axis',(0.,0.,-1.));
#1499=DIRECTION('',(0.,-0.707106781186548,-0.707106781186547));
#1500=DIRECTION('',(3.22973970800046E-16,-1.,0.));
#1501=DIRECTION('',(0.,0.,1.));
#1502=DIRECTION('center_axis',(2.09345661157837E-16,-0.707106781186547,
0.707106781186548));
#1503=DIRECTION('ref_axis',(1.,0.,-2.96059473233375E-16));
#1504=DIRECTION('',(-3.52829765996354E-16,0.707106781186548,0.707106781186547));
#1505=DIRECTION('',(-1.,-2.96059473233375E-16,0.));
#1506=DIRECTION('center_axis',(-1.,-4.98976640280969E-16,0.));
#1507=DIRECTION('ref_axis',(-4.98976640280969E-16,1.,0.));
#1508=DIRECTION('',(0.,0.,-1.));
#1509=DIRECTION('',(4.98976640280969E-16,-1.,0.));
#1510=DIRECTION('',(0.,0.,-1.));
#1511=DIRECTION('',(-5.32907051820076E-16,1.,0.));
#1512=DIRECTION('center_axis',(0.,0.,1.));
#1513=DIRECTION('ref_axis',(1.,0.,0.));
#1514=DIRECTION('center_axis',(0.,0.,-1.));
#1515=DIRECTION('ref_axis',(4.44089209850063E-16,-1.,0.));
#1516=DIRECTION('',(1.,0.,0.));
#1517=DIRECTION('center_axis',(0.,0.,-1.));
#1518=DIRECTION('ref_axis',(-0.607077202332484,-0.794642857142857,0.));
#1519=DIRECTION('',(1.,-3.52678007020628E-14,0.));
#1520=DIRECTION('center_axis',(0.,0.,-1.));
#1521=DIRECTION('ref_axis',(-1.,0.,0.));
#1522=DIRECTION('',(3.52678007020615E-14,-1.,0.));
#1523=DIRECTION('center_axis',(0.,0.,-1.));
#1524=DIRECTION('ref_axis',(-0.794642857142857,0.607077202332485,0.));
#1525=DIRECTION('',(3.52678007020631E-14,-1.,0.));
#1526=DIRECTION('center_axis',(0.,0.,-1.));
#1527=DIRECTION('ref_axis',(0.,1.,0.));
#1528=DIRECTION('',(-1.,2.20423754387884E-14,0.));
#1529=DIRECTION('center_axis',(0.,0.,-1.));
#1530=DIRECTION('ref_axis',(0.607077202332485,0.794642857142857,0.));
#1531=DIRECTION('',(-1.,-4.40847508775781E-15,0.));
#1532=DIRECTION('center_axis',(0.,0.,-1.));
#1533=DIRECTION('ref_axis',(1.,4.44089209850063E-16,0.));
#1534=DIRECTION('',(0.,1.,0.));
#1535=DIRECTION('',(-1.,-2.77555756156289E-16,0.));
#1536=DIRECTION('',(3.0154205607103E-16,-1.,0.));
#1537=DIRECTION('center_axis',(0.,0.,1.));
#1538=DIRECTION('ref_axis',(-1.,-2.22044604925031E-16,0.));
#1539=DIRECTION('',(1.,0.,0.));
#1540=DIRECTION('center_axis',(0.,0.,1.));
#1541=DIRECTION('ref_axis',(-8.88178419700126E-16,-1.,0.));
#1542=DIRECTION('',(-4.38606627012407E-16,1.,0.));
#1543=DIRECTION('center_axis',(0.,0.,1.));
#1544=DIRECTION('ref_axis',(1.,8.88178419700124E-16,0.));
#1545=DIRECTION('',(-1.,-2.19303313506204E-16,0.));
#1546=DIRECTION('center_axis',(0.,0.,1.));
#1547=DIRECTION('ref_axis',(4.44089209850063E-16,1.,0.));
#1548=DIRECTION('',(3.01542056071031E-16,-1.,0.));
#1549=DIRECTION('',(1.,0.,0.));
#1550=DIRECTION('center_axis',(0.,0.,-1.));
#1551=DIRECTION('ref_axis',(-1.,0.,0.));
#1552=DIRECTION('center_axis',(0.,0.,-1.));
#1553=DIRECTION('ref_axis',(-1.,0.,0.));
#1554=DIRECTION('center_axis',(0.,0.,-1.));
#1555=DIRECTION('ref_axis',(-1.,0.,0.));
#1556=DIRECTION('center_axis',(0.,0.,-1.));
#1557=DIRECTION('ref_axis',(-1.,0.,0.));
#1558=DIRECTION('center_axis',(0.,0.,-1.));
#1559=DIRECTION('ref_axis',(-1.,0.,0.));
#1560=DIRECTION('center_axis',(0.,0.,-1.));
#1561=DIRECTION('ref_axis',(-1.,0.,0.));
#1562=DIRECTION('center_axis',(0.,0.,-1.));
#1563=DIRECTION('ref_axis',(-1.,0.,0.));
#1564=DIRECTION('center_axis',(0.,0.,-1.));
#1565=DIRECTION('ref_axis',(-1.,0.,0.));
#1566=DIRECTION('center_axis',(0.,0.,-1.));
#1567=DIRECTION('ref_axis',(-1.,0.,0.));
#1568=DIRECTION('center_axis',(0.,0.,-1.));
#1569=DIRECTION('ref_axis',(-1.,0.,0.));
#1570=DIRECTION('center_axis',(0.,0.,-1.));
#1571=DIRECTION('ref_axis',(-1.,0.,0.));
#1572=DIRECTION('center_axis',(0.,0.,1.));
#1573=DIRECTION('ref_axis',(-1.,0.,0.));
#1574=DIRECTION('center_axis',(0.,0.,-1.));
#1575=DIRECTION('ref_axis',(-1.,0.,0.));
#1576=DIRECTION('',(0.707106781186548,-8.65956056235493E-17,0.707106781186548));
#1577=DIRECTION('center_axis',(0.,0.,-1.));
#1578=DIRECTION('ref_axis',(1.,0.,0.));
#1579=DIRECTION('center_axis',(0.,0.,-1.));
#1580=DIRECTION('ref_axis',(1.,0.,0.));
#1581=DIRECTION('center_axis',(0.,0.,1.));
#1582=DIRECTION('ref_axis',(-1.,0.,0.));
#1583=DIRECTION('center_axis',(0.,0.,1.));
#1584=DIRECTION('ref_axis',(-1.,0.,0.));
#1585=DIRECTION('',(0.,0.,1.));
#1586=DIRECTION('center_axis',(0.,0.,1.));
#1587=DIRECTION('ref_axis',(-1.,0.,0.));
#1588=DIRECTION('center_axis',(0.,0.,-1.));
#1589=DIRECTION('ref_axis',(-1.,0.,0.));
#1590=DIRECTION('',(0.707106781186547,-8.65956056235493E-17,0.707106781186548));
#1591=DIRECTION('center_axis',(0.,0.,-1.));
#1592=DIRECTION('ref_axis',(1.,0.,0.));
#1593=DIRECTION('center_axis',(0.,0.,-1.));
#1594=DIRECTION('ref_axis',(1.,0.,0.));
#1595=DIRECTION('center_axis',(0.,0.,1.));
#1596=DIRECTION('ref_axis',(-1.,0.,0.));
#1597=DIRECTION('center_axis',(0.,0.,1.));
#1598=DIRECTION('ref_axis',(-1.,0.,0.));
#1599=DIRECTION('',(0.,0.,1.));
#1600=DIRECTION('center_axis',(0.,0.,1.));
#1601=DIRECTION('ref_axis',(-1.,0.,0.));
#1602=DIRECTION('center_axis',(0.,0.,-1.));
#1603=DIRECTION('ref_axis',(-1.,0.,0.));
#1604=DIRECTION('',(0.707106781186547,-8.65956056235493E-17,0.707106781186548));
#1605=DIRECTION('center_axis',(0.,0.,-1.));
#1606=DIRECTION('ref_axis',(1.,0.,0.));
#1607=DIRECTION('center_axis',(0.,0.,-1.));
#1608=DIRECTION('ref_axis',(1.,0.,0.));
#1609=DIRECTION('center_axis',(0.,0.,1.));
#1610=DIRECTION('ref_axis',(-1.,0.,0.));
#1611=DIRECTION('center_axis',(0.,0.,1.));
#1612=DIRECTION('ref_axis',(-1.,0.,0.));
#1613=DIRECTION('',(0.,0.,1.));
#1614=DIRECTION('center_axis',(0.,0.,1.));
#1615=DIRECTION('ref_axis',(-1.,0.,0.));
#1616=DIRECTION('center_axis',(0.,0.,-1.));
#1617=DIRECTION('ref_axis',(-1.,0.,0.));
#1618=DIRECTION('',(0.707106781186547,-8.65956056235493E-17,0.707106781186547));
#1619=DIRECTION('center_axis',(0.,0.,-1.));
#1620=DIRECTION('ref_axis',(1.,0.,0.));
#1621=DIRECTION('center_axis',(0.,0.,-1.));
#1622=DIRECTION('ref_axis',(1.,0.,0.));
#1623=DIRECTION('center_axis',(0.,0.,1.));
#1624=DIRECTION('ref_axis',(-1.,0.,0.));
#1625=DIRECTION('center_axis',(0.,0.,1.));
#1626=DIRECTION('ref_axis',(-1.,0.,0.));
#1627=DIRECTION('',(0.,0.,1.));
#1628=DIRECTION('center_axis',(0.,0.,-1.));
#1629=DIRECTION('ref_axis',(1.,0.,0.));
#1630=DIRECTION('',(0.,0.,-1.));
#1631=DIRECTION('center_axis',(0.,0.,-1.));
#1632=DIRECTION('ref_axis',(1.,0.,0.));
#1633=DIRECTION('',(0.,0.,-1.));
#1634=DIRECTION('center_axis',(0.,0.,-1.));
#1635=DIRECTION('ref_axis',(1.,0.,0.));
#1636=DIRECTION('',(0.,0.,-1.));
#1637=DIRECTION('center_axis',(0.,0.,-1.));
#1638=DIRECTION('ref_axis',(1.,0.,0.));
#1639=DIRECTION('',(0.,0.,-1.));
#1640=DIRECTION('center_axis',(0.,0.,1.));
#1641=DIRECTION('ref_axis',(-1.,0.,0.));
#1642=DIRECTION('center_axis',(0.,0.,-1.));
#1643=DIRECTION('ref_axis',(-1.,0.,0.));
#1644=DIRECTION('',(0.707106781186547,-8.65956056235493E-17,0.707106781186547));
#1645=DIRECTION('center_axis',(0.,0.,-1.));
#1646=DIRECTION('ref_axis',(1.,0.,0.));
#1647=DIRECTION('center_axis',(0.,0.,-1.));
#1648=DIRECTION('ref_axis',(1.,0.,0.));
#1649=DIRECTION('center_axis',(0.,0.,1.));
#1650=DIRECTION('ref_axis',(-1.,0.,0.));
#1651=DIRECTION('center_axis',(0.,0.,1.));
#1652=DIRECTION('ref_axis',(-1.,0.,0.));
#1653=DIRECTION('',(0.,0.,1.));
#1654=DIRECTION('center_axis',(0.,0.,1.));
#1655=DIRECTION('ref_axis',(-1.,0.,0.));
#1656=DIRECTION('center_axis',(0.,0.,-1.));
#1657=DIRECTION('ref_axis',(-1.,0.,0.));
#1658=DIRECTION('',(0.707106781186546,-8.65956056235492E-17,0.707106781186549));
#1659=DIRECTION('center_axis',(0.,0.,-1.));
#1660=DIRECTION('ref_axis',(1.,0.,0.));
#1661=DIRECTION('center_axis',(0.,0.,-1.));
#1662=DIRECTION('ref_axis',(1.,0.,0.));
#1663=DIRECTION('center_axis',(0.,0.,1.));
#1664=DIRECTION('ref_axis',(-1.,0.,0.));
#1665=DIRECTION('center_axis',(0.,0.,1.));
#1666=DIRECTION('ref_axis',(-1.,0.,0.));
#1667=DIRECTION('',(0.,0.,1.));
#1668=DIRECTION('center_axis',(0.,0.,1.));
#1669=DIRECTION('ref_axis',(-1.,0.,0.));
#1670=DIRECTION('center_axis',(0.,0.,-1.));
#1671=DIRECTION('ref_axis',(-1.,0.,0.));
#1672=DIRECTION('',(0.707106781186546,-8.65956056235492E-17,0.707106781186549));
#1673=DIRECTION('center_axis',(0.,0.,-1.));
#1674=DIRECTION('ref_axis',(1.,0.,0.));
#1675=DIRECTION('center_axis',(0.,0.,-1.));
#1676=DIRECTION('ref_axis',(1.,0.,0.));
#1677=DIRECTION('center_axis',(0.,0.,1.));
#1678=DIRECTION('ref_axis',(-1.,0.,0.));
#1679=DIRECTION('center_axis',(0.,0.,1.));
#1680=DIRECTION('ref_axis',(-1.,0.,0.));
#1681=DIRECTION('',(0.,0.,1.));
#1682=DIRECTION('center_axis',(0.,0.,1.));
#1683=DIRECTION('ref_axis',(-1.,0.,0.));
#1684=DIRECTION('center_axis',(0.,0.,-1.));
#1685=DIRECTION('ref_axis',(-1.,0.,0.));
#1686=DIRECTION('',(0.707106781186547,-8.65956056235492E-17,0.707106781186549));
#1687=DIRECTION('center_axis',(0.,0.,-1.));
#1688=DIRECTION('ref_axis',(1.,0.,0.));
#1689=DIRECTION('center_axis',(0.,0.,-1.));
#1690=DIRECTION('ref_axis',(1.,0.,0.));
#1691=DIRECTION('center_axis',(0.,0.,1.));
#1692=DIRECTION('ref_axis',(-1.,0.,0.));
#1693=DIRECTION('center_axis',(0.,0.,1.));
#1694=DIRECTION('ref_axis',(-1.,0.,0.));
#1695=DIRECTION('',(0.,0.,1.));
#1696=DIRECTION('center_axis',(0.,0.,1.));
#1697=DIRECTION('ref_axis',(-1.,0.,0.));
#1698=DIRECTION('center_axis',(0.,0.,-1.));
#1699=DIRECTION('ref_axis',(-1.,0.,0.));
#1700=DIRECTION('',(0.707106781186546,-8.65956056235492E-17,0.707106781186549));
#1701=DIRECTION('center_axis',(0.,0.,-1.));
#1702=DIRECTION('ref_axis',(1.,0.,0.));
#1703=DIRECTION('center_axis',(0.,0.,-1.));
#1704=DIRECTION('ref_axis',(1.,0.,0.));
#1705=DIRECTION('center_axis',(0.,0.,1.));
#1706=DIRECTION('ref_axis',(-1.,0.,0.));
#1707=DIRECTION('center_axis',(0.,0.,1.));
#1708=DIRECTION('ref_axis',(-1.,0.,0.));
#1709=DIRECTION('',(0.,0.,1.));
#1710=DIRECTION('center_axis',(0.,0.,1.));
#1711=DIRECTION('ref_axis',(-1.,0.,0.));
#1712=DIRECTION('center_axis',(0.,0.,-1.));
#1713=DIRECTION('ref_axis',(-1.,0.,0.));
#1714=DIRECTION('',(0.707106781186548,-8.65956056235493E-17,0.707106781186548));
#1715=DIRECTION('center_axis',(0.,0.,-1.));
#1716=DIRECTION('ref_axis',(1.,0.,0.));
#1717=DIRECTION('center_axis',(0.,0.,-1.));
#1718=DIRECTION('ref_axis',(1.,0.,0.));
#1719=DIRECTION('center_axis',(0.,0.,1.));
#1720=DIRECTION('ref_axis',(-1.,0.,0.));
#1721=DIRECTION('center_axis',(0.,0.,1.));
#1722=DIRECTION('ref_axis',(-1.,0.,0.));
#1723=DIRECTION('',(0.,0.,1.));
#1724=DIRECTION('center_axis',(0.,0.,1.));
#1725=DIRECTION('ref_axis',(-1.,0.,0.));
#1726=DIRECTION('center_axis',(0.,0.,-1.));
#1727=DIRECTION('ref_axis',(-1.,0.,0.));
#1728=DIRECTION('',(0.707106781186548,-8.65956056235493E-17,0.707106781186548));
#1729=DIRECTION('center_axis',(0.,0.,-1.));
#1730=DIRECTION('ref_axis',(1.,0.,0.));
#1731=DIRECTION('center_axis',(0.,0.,-1.));
#1732=DIRECTION('ref_axis',(1.,0.,0.));
#1733=DIRECTION('center_axis',(0.,0.,1.));
#1734=DIRECTION('ref_axis',(-1.,0.,0.));
#1735=DIRECTION('center_axis',(0.,0.,1.));
#1736=DIRECTION('ref_axis',(-1.,0.,0.));
#1737=DIRECTION('',(0.,0.,1.));
#1738=DIRECTION('center_axis',(0.,0.,-1.));
#1739=DIRECTION('ref_axis',(1.,0.,0.));
#1740=DIRECTION('',(0.,0.,-1.));
#1741=DIRECTION('center_axis',(0.,0.,-1.));
#1742=DIRECTION('ref_axis',(1.,0.,0.));
#1743=DIRECTION('',(0.,0.,-1.));
#1744=DIRECTION('center_axis',(0.,0.,-1.));
#1745=DIRECTION('ref_axis',(1.,0.,0.));
#1746=DIRECTION('',(0.,0.,-1.));
#1747=DIRECTION('center_axis',(0.,0.,-1.));
#1748=DIRECTION('ref_axis',(1.,0.,0.));
#1749=DIRECTION('',(0.,0.,-1.));
#1750=DIRECTION('center_axis',(0.,0.,-1.));
#1751=DIRECTION('ref_axis',(1.,0.,0.));
#1752=DIRECTION('',(0.,0.,-1.));
#1753=DIRECTION('center_axis',(0.,0.,-1.));
#1754=DIRECTION('ref_axis',(1.,0.,0.));
#1755=DIRECTION('',(0.,0.,-1.));
#1756=DIRECTION('center_axis',(0.,0.,-1.));
#1757=DIRECTION('ref_axis',(1.,0.,0.));
#1758=DIRECTION('',(0.,0.,-1.));
#1759=DIRECTION('center_axis',(0.,0.,-1.));
#1760=DIRECTION('ref_axis',(1.,0.,0.));
#1761=DIRECTION('center_axis',(0.,0.,1.));
#1762=DIRECTION('ref_axis',(1.,0.,0.));
#1763=DIRECTION('',(0.,0.,-1.));
#1764=DIRECTION('',(0.,0.,1.));
#1765=DIRECTION('center_axis',(0.,0.,-1.));
#1766=DIRECTION('ref_axis',(1.,0.,0.));
#1767=DIRECTION('center_axis',(0.,0.,1.));
#1768=DIRECTION('ref_axis',(1.,0.,0.));
#1769=DIRECTION('',(0.,0.,-1.));
#1770=DIRECTION('',(0.,0.,1.));
#1771=DIRECTION('center_axis',(0.,0.,-1.));
#1772=DIRECTION('ref_axis',(1.,0.,0.));
#1773=DIRECTION('center_axis',(0.,0.,1.));
#1774=DIRECTION('ref_axis',(1.,0.,0.));
#1775=DIRECTION('',(0.,0.,-1.));
#1776=DIRECTION('',(0.,0.,1.));
#1777=DIRECTION('center_axis',(-3.99181312224775E-16,1.,0.));
#1778=DIRECTION('ref_axis',(1.,3.99181312224775E-16,0.));
#1779=DIRECTION('',(0.,0.,1.));
#1780=DIRECTION('',(-1.,-3.99181312224775E-16,0.));
#1781=DIRECTION('center_axis',(1.,5.98771968337163E-16,0.));
#1782=DIRECTION('ref_axis',(5.98771968337163E-16,-1.,0.));
#1783=DIRECTION('',(0.,0.,1.));
#1784=DIRECTION('',(-5.98771968337163E-16,1.,0.));
#1785=DIRECTION('center_axis',(0.,0.,1.));
#1786=DIRECTION('ref_axis',(1.,0.,0.));
#1787=DIRECTION('center_axis',(0.,0.,-1.));
#1788=DIRECTION('ref_axis',(-0.707106781186548,0.707106781186547,0.));
#1789=DIRECTION('',(-0.000136461099207841,0.999999990689184,0.));
#1790=DIRECTION('',(-0.999999990689184,-0.000136461099217052,0.));
#1791=DIRECTION('',(-0.698309686973656,0.715795767715034,0.));
#1792=DIRECTION('center_axis',(0.,0.,-1.));
#1793=DIRECTION('ref_axis',(4.44089209850063E-16,1.,0.));
#1794=DIRECTION('',(1.,2.19303313506204E-16,0.));
#1795=DIRECTION('center_axis',(0.,0.,-1.));
#1796=DIRECTION('ref_axis',(1.,8.88178419700124E-16,0.));
#1797=DIRECTION('',(4.38606627012407E-16,-1.,0.));
#1798=DIRECTION('center_axis',(0.,0.,-1.));
#1799=DIRECTION('ref_axis',(-8.88178419700126E-16,-1.,0.));
#1800=DIRECTION('',(-1.,0.,0.));
#1801=DIRECTION('center_axis',(0.,0.,-1.));
#1802=DIRECTION('ref_axis',(-1.,-2.22044604925031E-16,0.));
#1803=DIRECTION('',(-3.0154205607103E-16,1.,0.));
#1804=DIRECTION('',(1.,2.96059473233375E-16,0.));
#1805=DIRECTION('',(4.98976640280969E-16,-1.,0.));
#1806=DIRECTION('center_axis',(0.,0.,-1.));
#1807=DIRECTION('ref_axis',(-0.707106781186547,-0.707106781186547,0.));
#1808=DIRECTION('',(1.,1.24744160070242E-16,0.));
#1809=DIRECTION('',(1.,1.24744160070242E-16,0.));
#1810=DIRECTION('center_axis',(0.,0.,-1.));
#1811=DIRECTION('ref_axis',(0.707106781186547,-0.707106781186547,0.));
#1812=DIRECTION('',(-5.98771968337163E-16,1.,0.));
#1813=DIRECTION('center_axis',(0.,0.,-1.));
#1814=DIRECTION('ref_axis',(0.707106781186547,0.707106781186547,0.));
#1815=DIRECTION('',(-1.,-3.99181312224775E-16,0.));
#1816=DIRECTION('center_axis',(1.24744160070242E-16,-1.,0.));
#1817=DIRECTION('ref_axis',(-1.,-1.24744160070242E-16,0.));
#1818=DIRECTION('',(0.,0.,1.));
#1819=DIRECTION('center_axis',(2.96059473233375E-16,-1.,2.27190586573269E-16));
#1820=DIRECTION('ref_axis',(6.8507516595287E-32,-2.27190586573269E-16,-1.));
#1821=DIRECTION('',(6.85075165952871E-32,-2.27190586573269E-16,-1.));
#1822=DIRECTION('',(-1.13362795591793E-31,2.27190586573269E-16,1.));
#1823=DIRECTION('center_axis',(-1.,-4.98976640280969E-16,0.));
#1824=DIRECTION('ref_axis',(-4.98976640280969E-16,1.,0.));
#1825=DIRECTION('',(0.,0.,1.));
#1826=DIRECTION('center_axis',(0.,1.,0.));
#1827=DIRECTION('ref_axis',(0.,0.,1.));
#1828=DIRECTION('',(0.,0.,1.));
#1829=DIRECTION('center_axis',(-1.,-3.0154205607103E-16,0.));
#1830=DIRECTION('ref_axis',(-3.0154205607103E-16,1.,0.));
#1831=DIRECTION('',(0.,0.,1.));
#1832=DIRECTION('center_axis',(-1.,-3.0154205607103E-16,0.));
#1833=DIRECTION('ref_axis',(-3.0154205607103E-16,1.,0.));
#1834=DIRECTION('',(0.,0.,1.));
#1835=DIRECTION('center_axis',(0.999999990689184,0.000136461099207841,0.));
#1836=DIRECTION('ref_axis',(0.000136461099207841,-0.999999990689184,0.));
#1837=DIRECTION('',(0.,0.,-1.));
#1838=DIRECTION('center_axis',(-0.000136461099217052,0.999999990689184,
0.));
#1839=DIRECTION('ref_axis',(0.999999990689184,0.000136461099217052,0.));
#1840=DIRECTION('',(0.,0.,-1.));
#1841=DIRECTION('center_axis',(0.715795767715034,0.698309686973656,0.));
#1842=DIRECTION('ref_axis',(0.698309686973656,-0.715795767715034,0.));
#1843=DIRECTION('',(0.,0.,-1.));
#1844=DIRECTION('center_axis',(0.,0.,-1.));
#1845=DIRECTION('ref_axis',(-0.707106781186547,-0.707106781186547,0.));
#1846=DIRECTION('',(0.,0.,-1.));
#1847=DIRECTION('center_axis',(1.24744160070242E-16,-1.,0.));
#1848=DIRECTION('ref_axis',(-1.,-1.24744160070242E-16,0.));
#1849=DIRECTION('center_axis',(0.,0.,-1.));
#1850=DIRECTION('ref_axis',(0.707106781186547,-0.707106781186547,0.));
#1851=DIRECTION('',(0.,0.,-1.));
#1852=DIRECTION('center_axis',(1.,5.98771968337163E-16,0.));
#1853=DIRECTION('ref_axis',(5.98771968337163E-16,-1.,0.));
#1854=DIRECTION('center_axis',(0.,0.,-1.));
#1855=DIRECTION('ref_axis',(0.707106781186547,0.707106781186547,0.));
#1856=DIRECTION('',(0.,0.,-1.));
#1857=DIRECTION('center_axis',(-3.99181312224775E-16,1.,0.));
#1858=DIRECTION('ref_axis',(1.,3.99181312224775E-16,0.));
#1859=DIRECTION('center_axis',(0.,0.,-1.));
#1860=DIRECTION('ref_axis',(-0.707106781186548,0.707106781186547,0.));
#1861=DIRECTION('center_axis',(1.,4.38606627012407E-16,0.));
#1862=DIRECTION('ref_axis',(4.38606627012407E-16,-1.,0.));
#1863=DIRECTION('',(0.,0.,1.));
#1864=DIRECTION('',(0.,0.,1.));
#1865=DIRECTION('center_axis',(0.,0.,-1.));
#1866=DIRECTION('ref_axis',(1.,8.88178419700124E-16,0.));
#1867=DIRECTION('',(0.,0.,1.));
#1868=DIRECTION('center_axis',(-2.19303313506204E-16,1.,0.));
#1869=DIRECTION('ref_axis',(1.,2.19303313506204E-16,0.));
#1870=DIRECTION('',(0.,0.,1.));
#1871=DIRECTION('center_axis',(0.,0.,-1.));
#1872=DIRECTION('ref_axis',(4.44089209850063E-16,1.,0.));
#1873=DIRECTION('center_axis',(0.,0.,-1.));
#1874=DIRECTION('ref_axis',(-1.,-2.22044604925031E-16,0.));
#1875=DIRECTION('',(0.,0.,1.));
#1876=DIRECTION('center_axis',(0.,-1.,0.));
#1877=DIRECTION('ref_axis',(-1.,0.,0.));
#1878=DIRECTION('',(0.,0.,-1.));
#1879=DIRECTION('center_axis',(0.,0.,-1.));
#1880=DIRECTION('ref_axis',(-8.88178419700126E-16,-1.,0.));
#1881=CARTESIAN_POINT('',(0.,0.,0.));
#1882=CARTESIAN_POINT('Origin',(9.87953713416735,49.,-5.86329037978778));
#1883=CARTESIAN_POINT('',(11.35,49.,-5.99999999999998));
#1884=CARTESIAN_POINT('',(16.,49.,-5.99999999999999));
#1885=CARTESIAN_POINT('',(20.0647685670837,49.,-5.99999999999998));
#1886=CARTESIAN_POINT('',(11.35,49.,-15.18));
#1887=CARTESIAN_POINT('',(11.35,49.,-4.10914518989389));
#1888=CARTESIAN_POINT('',(16.,49.,-15.18));
#1889=CARTESIAN_POINT('',(8.93976856708367,49.,-15.18));
#1890=CARTESIAN_POINT('',(16.,49.,-2.93164518989389));
#1891=CARTESIAN_POINT('Origin',(7.99999999999998,65.4890281123832,-15.18));
#1892=CARTESIAN_POINT('',(11.35,100.,-15.18));
#1893=CARTESIAN_POINT('',(11.35,68.9945140561916,-15.18));
#1894=CARTESIAN_POINT('',(-2.63438105349327E-14,100.,-15.18));
#1895=CARTESIAN_POINT('',(3.99999999999998,100.,-15.18));
#1896=CARTESIAN_POINT('',(-1.77635683940025E-14,101.,-15.18));
#1897=CARTESIAN_POINT('',(0.,20.,-15.18));
#1898=CARTESIAN_POINT('',(0.0243350804543807,101.986311827991,-15.18));
#1899=CARTESIAN_POINT('Origin',(20.,101.,-15.18));
#1900=CARTESIAN_POINT('',(0.994473881127629,100.991880187457,-15.18));
#1901=CARTESIAN_POINT('',(0.0193374717449402,101.99143457973,-15.18));
#1902=CARTESIAN_POINT('',(15.9944737414536,100.993927103946,-15.18));
#1903=CARTESIAN_POINT('',(0.994473881127629,100.991880187457,-15.18));
#1904=CARTESIAN_POINT('',(16.,60.4969757601931,-15.18));
#1905=CARTESIAN_POINT('',(15.9944737414536,100.993927103946,-15.18));
#1906=CARTESIAN_POINT('',(16.,95.,-15.18));
#1907=CARTESIAN_POINT('Origin',(11.35,72.5,-2.355));
#1908=CARTESIAN_POINT('',(11.35,59.,4.));
#1909=CARTESIAN_POINT('',(11.35,57.28625,2.28625000000001));
#1910=CARTESIAN_POINT('',(11.35,100.,4.));
#1911=CARTESIAN_POINT('',(11.35,100.,4.));
#1912=CARTESIAN_POINT('',(11.35,100.,0.));
#1913=CARTESIAN_POINT('Origin',(30.25,52.,-3.));
#1914=CARTESIAN_POINT('',(16.,59.,4.));
#1915=CARTESIAN_POINT('',(16.,43.75,-11.25));
#1916=CARTESIAN_POINT('',(30.25,59.,4.));
#1917=CARTESIAN_POINT('Origin',(16.,16.,0.));
#1918=CARTESIAN_POINT('',(16.,60.4969757601931,-12.));
#1919=CARTESIAN_POINT('',(16.,60.4969757601931,-12.));
#1920=CARTESIAN_POINT('',(16.,95.,-12.));
#1921=CARTESIAN_POINT('',(16.,38.25,-12.));
#1922=CARTESIAN_POINT('',(16.,95.,4.));
#1923=CARTESIAN_POINT('',(16.,95.,0.));
#1924=CARTESIAN_POINT('',(16.,45.,4.));
#1925=CARTESIAN_POINT('Origin',(60.5,60.5,4.));
#1926=CARTESIAN_POINT('',(26.,105.,4.));
#1927=CARTESIAN_POINT('Origin',(26.,95.,4.));
#1928=CARTESIAN_POINT('',(26.5036766693808,105.,4.));
#1929=CARTESIAN_POINT('',(26.,105.,4.));
#1930=CARTESIAN_POINT('',(94.4963233306191,105.,4.));
#1931=CARTESIAN_POINT('Origin',(60.5,60.5,4.));
#1932=CARTESIAN_POINT('',(95.,105.,4.));
#1933=CARTESIAN_POINT('',(94.4963233306191,105.,4.));
#1934=CARTESIAN_POINT('',(105.,95.,4.));
#1935=CARTESIAN_POINT('Origin',(95.,95.,4.));
#1936=CARTESIAN_POINT('',(105.,94.4963233306192,4.));
#1937=CARTESIAN_POINT('',(105.,95.,4.));
#1938=CARTESIAN_POINT('',(105.,26.5036766693809,4.));
#1939=CARTESIAN_POINT('Origin',(60.5,60.5,4.));
#1940=CARTESIAN_POINT('',(105.,26.,4.));
#1941=CARTESIAN_POINT('',(105.,26.5036766693809,4.));
#1942=CARTESIAN_POINT('',(95.,16.,4.));
#1943=CARTESIAN_POINT('Origin',(95.,26.,4.));
#1944=CARTESIAN_POINT('',(94.4963233306192,16.,4.));
#1945=CARTESIAN_POINT('',(95.,16.,4.));
#1946=CARTESIAN_POINT('',(26.5036766693808,16.,4.));
#1947=CARTESIAN_POINT('Origin',(60.5,60.5,4.));
#1948=CARTESIAN_POINT('',(26.,16.,4.));
#1949=CARTESIAN_POINT('',(26.5036766693808,16.,4.));
#1950=CARTESIAN_POINT('',(16.,26.,4.));
#1951=CARTESIAN_POINT('Origin',(26.,26.,4.));
#1952=CARTESIAN_POINT('',(16.,28.8173808789017,4.));
#1953=CARTESIAN_POINT('',(16.,26.,4.));
#1954=CARTESIAN_POINT('',(0.,28.8173808789017,4.));
#1955=CARTESIAN_POINT('',(16.,28.8173808789017,4.));
#1956=CARTESIAN_POINT('',(0.,20.,4.));
#1957=CARTESIAN_POINT('',(-4.87925720863571E-15,28.8173808789017,4.));
#1958=CARTESIAN_POINT('',(20.,0.,4.));
#1959=CARTESIAN_POINT('Origin',(20.,20.,4.));
#1960=CARTESIAN_POINT('',(101.,0.,4.));
#1961=CARTESIAN_POINT('',(20.,0.,4.));
#1962=CARTESIAN_POINT('',(121.,20.,4.));
#1963=CARTESIAN_POINT('Origin',(101.,20.,4.));
#1964=CARTESIAN_POINT('',(121.,101.,4.));
#1965=CARTESIAN_POINT('',(121.,20.,4.));
#1966=CARTESIAN_POINT('',(101.,121.,4.));
#1967=CARTESIAN_POINT('Origin',(101.,101.,4.));
#1968=CARTESIAN_POINT('',(20.,121.,4.));
#1969=CARTESIAN_POINT('',(101.,121.,4.));
#1970=CARTESIAN_POINT('',(-3.5527136788005E-14,101.,4.));
#1971=CARTESIAN_POINT('Origin',(20.,101.,4.));
#1972=CARTESIAN_POINT('',(-1.77635683940025E-14,100.,4.));
#1973=CARTESIAN_POINT('',(-2.66453525910038E-14,101.,4.));
#1974=CARTESIAN_POINT('',(-2.63438105349327E-14,100.,4.));
#1975=CARTESIAN_POINT('',(3.65511712119607,23.2175316371928,4.));
#1976=CARTESIAN_POINT('Origin',(7.25511712119607,23.2175316371928,4.));
#1977=CARTESIAN_POINT('',(110.144882878798,97.7824683628114,4.));
#1978=CARTESIAN_POINT('Origin',(113.744882878798,97.7824683628114,4.));
#1979=CARTESIAN_POINT('',(94.1824683628316,113.744882878781,4.));
#1980=CARTESIAN_POINT('Origin',(97.7824683628316,113.744882878781,4.));
#1981=CARTESIAN_POINT('',(19.6175316371625,7.25511712122311,4.));
#1982=CARTESIAN_POINT('Origin',(23.2175316371625,7.25511712122311,4.));
#1983=CARTESIAN_POINT('',(110.144882878784,23.2175316371737,4.));
#1984=CARTESIAN_POINT('Origin',(113.744882878784,23.2175316371737,4.));
#1985=CARTESIAN_POINT('',(19.6175316371821,113.744882878794,4.));
#1986=CARTESIAN_POINT('Origin',(23.2175316371821,113.744882878794,4.));
#1987=CARTESIAN_POINT('',(94.1824683628119,7.25511712120974,4.));
#1988=CARTESIAN_POINT('Origin',(97.7824683628119,7.25511712120974,4.));
#1989=CARTESIAN_POINT('',(7.64338208989791,108.993381185068,4.));
#1990=CARTESIAN_POINT('Origin',(11.9933820898979,108.993381185068,4.));
#1991=CARTESIAN_POINT('',(104.649999999992,11.9999999999974,4.));
#1992=CARTESIAN_POINT('Origin',(108.999999999992,11.9999999999974,4.));
#1993=CARTESIAN_POINT('',(104.65,109.000000000006,4.));
#1994=CARTESIAN_POINT('Origin',(109.,109.000000000006,4.));
#1995=CARTESIAN_POINT('',(7.64999999997215,11.9999999999994,4.));
#1996=CARTESIAN_POINT('Origin',(11.9999999999721,11.9999999999994,4.));
#1997=CARTESIAN_POINT('Origin',(11.9933820898979,108.993381185068,-6.05));
#1998=CARTESIAN_POINT('',(14.6433820898962,108.993381185068,-6.9));
#1999=CARTESIAN_POINT('Origin',(11.9933820898979,108.993381185068,-6.9));
#2000=CARTESIAN_POINT('',(16.3433820898979,108.993381185068,-5.2));
#2001=CARTESIAN_POINT('',(15.4933820898962,108.993381185068,-6.05));
#2002=CARTESIAN_POINT('',(7.64338208989791,108.993381185068,-5.2));
#2003=CARTESIAN_POINT('Origin',(11.9933820898979,108.993381185068,-5.2));
#2004=CARTESIAN_POINT('Origin',(11.9933820898979,108.993381185068,-5.2));
#2005=CARTESIAN_POINT('Origin',(11.9933820898979,108.993381185068,-12.));
#2006=CARTESIAN_POINT('',(14.6433820898962,108.993381185068,-12.));
#2007=CARTESIAN_POINT('Origin',(11.9933820898979,108.993381185068,-12.));
#2008=CARTESIAN_POINT('',(14.6433820898962,108.993381185068,-12.));
#2009=CARTESIAN_POINT('Origin',(109.,109.000000000006,-6.05));
#2010=CARTESIAN_POINT('',(111.65,109.000000000006,-6.9));
#2011=CARTESIAN_POINT('Origin',(109.,109.000000000006,-6.9));
#2012=CARTESIAN_POINT('',(113.35,109.000000000006,-5.2));
#2013=CARTESIAN_POINT('',(112.5,109.000000000006,-6.05));
#2014=CARTESIAN_POINT('',(104.65,109.000000000006,-5.2));
#2015=CARTESIAN_POINT('Origin',(109.,109.000000000006,-5.2));
#2016=CARTESIAN_POINT('Origin',(109.,109.000000000006,-5.2));
#2017=CARTESIAN_POINT('Origin',(109.,109.000000000006,-12.));
#2018=CARTESIAN_POINT('',(111.65,109.000000000006,-12.));
#2019=CARTESIAN_POINT('Origin',(109.,109.000000000006,-12.));
#2020=CARTESIAN_POINT('',(111.65,109.000000000006,-12.));
#2021=CARTESIAN_POINT('Origin',(108.999999999992,11.9999999999974,-6.05));
#2022=CARTESIAN_POINT('',(111.649999999992,11.9999999999974,-6.9));
#2023=CARTESIAN_POINT('Origin',(108.999999999992,11.9999999999974,-6.9));
#2024=CARTESIAN_POINT('',(113.349999999992,11.9999999999974,-5.2));
#2025=CARTESIAN_POINT('',(112.499999999992,11.9999999999974,-6.05));
#2026=CARTESIAN_POINT('',(104.649999999992,11.9999999999974,-5.2));
#2027=CARTESIAN_POINT('Origin',(108.999999999992,11.9999999999974,-5.2));
#2028=CARTESIAN_POINT('Origin',(108.999999999992,11.9999999999974,-5.2));
#2029=CARTESIAN_POINT('Origin',(108.999999999992,11.9999999999974,-12.));
#2030=CARTESIAN_POINT('',(111.649999999992,11.9999999999974,-12.));
#2031=CARTESIAN_POINT('Origin',(108.999999999992,11.9999999999974,-12.));
#2032=CARTESIAN_POINT('',(111.649999999992,11.9999999999974,-12.));
#2033=CARTESIAN_POINT('Origin',(11.9999999999721,11.9999999999994,-6.05));
#2034=CARTESIAN_POINT('',(14.6499999999726,11.9999999999994,-6.9));
#2035=CARTESIAN_POINT('Origin',(11.9999999999721,11.9999999999994,-6.9));
#2036=CARTESIAN_POINT('',(16.3499999999721,11.9999999999994,-5.2));
#2037=CARTESIAN_POINT('',(15.4999999999726,11.9999999999994,-6.05));
#2038=CARTESIAN_POINT('',(7.64999999997215,11.9999999999994,-5.2));
#2039=CARTESIAN_POINT('Origin',(11.9999999999721,11.9999999999994,-5.2));
#2040=CARTESIAN_POINT('Origin',(11.9999999999721,11.9999999999994,-5.2));
#2041=CARTESIAN_POINT('Origin',(11.9999999999721,11.9999999999994,-12.));
#2042=CARTESIAN_POINT('',(14.6499999999726,11.9999999999994,-12.));
#2043=CARTESIAN_POINT('Origin',(11.9999999999721,11.9999999999994,-12.));
#2044=CARTESIAN_POINT('',(14.6499999999726,11.9999999999994,-12.));
#2045=CARTESIAN_POINT('Origin',(11.9999999999721,11.9999999999994,0.));
#2046=CARTESIAN_POINT('',(7.64999999997215,11.9999999999994,0.));
#2047=CARTESIAN_POINT('Origin',(109.,109.000000000006,0.));
#2048=CARTESIAN_POINT('',(104.65,109.000000000006,0.));
#2049=CARTESIAN_POINT('Origin',(108.999999999992,11.9999999999974,0.));
#2050=CARTESIAN_POINT('',(104.649999999992,11.9999999999974,0.));
#2051=CARTESIAN_POINT('Origin',(11.9933820898979,108.993381185068,0.));
#2052=CARTESIAN_POINT('',(7.64338208989791,108.993381185068,0.));
#2053=CARTESIAN_POINT('Origin',(23.2175316371821,113.744882878794,-4.725));
#2054=CARTESIAN_POINT('',(25.3675316371825,113.744882878794,-5.45));
#2055=CARTESIAN_POINT('Origin',(23.2175316371821,113.744882878794,-5.45));
#2056=CARTESIAN_POINT('',(26.8175316371821,113.744882878794,-4.));
#2057=CARTESIAN_POINT('',(26.0925316371825,113.744882878794,-4.725));
#2058=CARTESIAN_POINT('',(19.6175316371821,113.744882878794,-4.));
#2059=CARTESIAN_POINT('Origin',(23.2175316371821,113.744882878794,-4.));
#2060=CARTESIAN_POINT('Origin',(23.2175316371821,113.744882878794,-4.));
#2061=CARTESIAN_POINT('Origin',(23.2175316371821,113.744882878794,-12.));
#2062=CARTESIAN_POINT('',(25.3675316371825,113.744882878794,-12.));
#2063=CARTESIAN_POINT('Origin',(23.2175316371821,113.744882878794,-12.));
#2064=CARTESIAN_POINT('',(25.3675316371825,113.744882878794,-12.));
#2065=CARTESIAN_POINT('Origin',(97.7824683628316,113.744882878781,-4.725));
#2066=CARTESIAN_POINT('',(99.9324683628319,113.744882878781,-5.45));
#2067=CARTESIAN_POINT('Origin',(97.7824683628316,113.744882878781,-5.45));
#2068=CARTESIAN_POINT('',(101.382468362832,113.744882878781,-4.));
#2069=CARTESIAN_POINT('',(100.657468362832,113.744882878781,-4.725));
#2070=CARTESIAN_POINT('',(94.1824683628316,113.744882878781,-4.));
#2071=CARTESIAN_POINT('Origin',(97.7824683628316,113.744882878781,-4.));
#2072=CARTESIAN_POINT('Origin',(97.7824683628316,113.744882878781,-4.));
#2073=CARTESIAN_POINT('Origin',(97.7824683628316,113.744882878781,-12.));
#2074=CARTESIAN_POINT('',(99.9324683628319,113.744882878781,-12.));
#2075=CARTESIAN_POINT('Origin',(97.7824683628316,113.744882878781,-12.));
#2076=CARTESIAN_POINT('',(99.9324683628319,113.744882878781,-12.));
#2077=CARTESIAN_POINT('Origin',(113.744882878798,97.7824683628114,-4.725));
#2078=CARTESIAN_POINT('',(115.894882878798,97.7824683628114,-5.45));
#2079=CARTESIAN_POINT('Origin',(113.744882878798,97.7824683628114,-5.45));
#2080=CARTESIAN_POINT('',(117.344882878798,97.7824683628114,-4.));
#2081=CARTESIAN_POINT('',(116.619882878798,97.7824683628114,-4.725));
#2082=CARTESIAN_POINT('',(110.144882878798,97.7824683628114,-4.));
#2083=CARTESIAN_POINT('Origin',(113.744882878798,97.7824683628114,-4.));
#2084=CARTESIAN_POINT('Origin',(113.744882878798,97.7824683628114,-4.));
#2085=CARTESIAN_POINT('Origin',(113.744882878798,97.7824683628114,-12.));
#2086=CARTESIAN_POINT('',(115.894882878798,97.7824683628114,-12.));
#2087=CARTESIAN_POINT('Origin',(113.744882878798,97.7824683628114,-12.));
#2088=CARTESIAN_POINT('',(115.894882878798,97.7824683628114,-12.));
#2089=CARTESIAN_POINT('Origin',(113.744882878784,23.2175316371737,-4.725));
#2090=CARTESIAN_POINT('',(115.894882878785,23.2175316371737,-5.45));
#2091=CARTESIAN_POINT('Origin',(113.744882878784,23.2175316371737,-5.45));
#2092=CARTESIAN_POINT('',(117.344882878784,23.2175316371737,-4.));
#2093=CARTESIAN_POINT('',(116.619882878785,23.2175316371737,-4.725));
#2094=CARTESIAN_POINT('',(110.144882878784,23.2175316371737,-4.));
#2095=CARTESIAN_POINT('Origin',(113.744882878784,23.2175316371737,-4.));
#2096=CARTESIAN_POINT('Origin',(113.744882878784,23.2175316371737,-4.));
#2097=CARTESIAN_POINT('Origin',(113.744882878784,23.2175316371737,-12.));
#2098=CARTESIAN_POINT('',(115.894882878785,23.2175316371737,-12.));
#2099=CARTESIAN_POINT('Origin',(113.744882878784,23.2175316371737,-12.));
#2100=CARTESIAN_POINT('',(115.894882878785,23.2175316371737,-12.));
#2101=CARTESIAN_POINT('Origin',(97.7824683628119,7.25511712120974,-4.725));
#2102=CARTESIAN_POINT('',(99.9324683628123,7.25511712120974,-5.45));
#2103=CARTESIAN_POINT('Origin',(97.7824683628119,7.25511712120974,-5.45));
#2104=CARTESIAN_POINT('',(101.382468362812,7.25511712120974,-4.));
#2105=CARTESIAN_POINT('',(100.657468362812,7.25511712120974,-4.725));
#2106=CARTESIAN_POINT('',(94.1824683628119,7.25511712120974,-4.));
#2107=CARTESIAN_POINT('Origin',(97.7824683628119,7.25511712120974,-4.));
#2108=CARTESIAN_POINT('Origin',(97.7824683628119,7.25511712120974,-4.));
#2109=CARTESIAN_POINT('Origin',(97.7824683628119,7.25511712120974,-12.));
#2110=CARTESIAN_POINT('',(99.9324683628123,7.25511712120974,-12.));
#2111=CARTESIAN_POINT('Origin',(97.7824683628119,7.25511712120974,-12.));
#2112=CARTESIAN_POINT('',(99.9324683628123,7.25511712120974,-12.));
#2113=CARTESIAN_POINT('Origin',(7.25511712119607,23.2175316371928,-4.725));
#2114=CARTESIAN_POINT('',(9.40511712119646,23.2175316371928,-5.45));
#2115=CARTESIAN_POINT('Origin',(7.25511712119607,23.2175316371928,-5.45));
#2116=CARTESIAN_POINT('',(10.8551171211961,23.2175316371928,-4.));
#2117=CARTESIAN_POINT('',(10.1301171211965,23.2175316371928,-4.725));
#2118=CARTESIAN_POINT('',(3.65511712119607,23.2175316371928,-4.));
#2119=CARTESIAN_POINT('Origin',(7.25511712119607,23.2175316371928,-4.));
#2120=CARTESIAN_POINT('Origin',(7.25511712119607,23.2175316371928,-4.));
#2121=CARTESIAN_POINT('Origin',(7.25511712119607,23.2175316371928,-12.));
#2122=CARTESIAN_POINT('',(9.40511712119646,23.2175316371928,-12.));
#2123=CARTESIAN_POINT('Origin',(7.25511712119607,23.2175316371928,-12.));
#2124=CARTESIAN_POINT('',(9.40511712119646,23.2175316371928,-12.));
#2125=CARTESIAN_POINT('Origin',(23.2175316371625,7.25511712122311,-4.725));
#2126=CARTESIAN_POINT('',(25.3675316371629,7.25511712122311,-5.45));
#2127=CARTESIAN_POINT('Origin',(23.2175316371625,7.25511712122311,-5.45));
#2128=CARTESIAN_POINT('',(26.8175316371625,7.25511712122311,-4.));
#2129=CARTESIAN_POINT('',(26.0925316371629,7.25511712122311,-4.725));
#2130=CARTESIAN_POINT('',(19.6175316371625,7.25511712122311,-4.));
#2131=CARTESIAN_POINT('Origin',(23.2175316371625,7.25511712122311,-4.));
#2132=CARTESIAN_POINT('Origin',(23.2175316371625,7.25511712122311,-4.));
#2133=CARTESIAN_POINT('Origin',(23.2175316371625,7.25511712122311,-12.));
#2134=CARTESIAN_POINT('',(25.3675316371629,7.25511712122311,-12.));
#2135=CARTESIAN_POINT('Origin',(23.2175316371625,7.25511712122311,-12.));
#2136=CARTESIAN_POINT('',(25.3675316371629,7.25511712122311,-12.));
#2137=CARTESIAN_POINT('Origin',(97.7824683628119,7.25511712120974,0.));
#2138=CARTESIAN_POINT('',(94.1824683628119,7.25511712120974,0.));
#2139=CARTESIAN_POINT('Origin',(23.2175316371821,113.744882878794,0.));
#2140=CARTESIAN_POINT('',(19.6175316371821,113.744882878794,0.));
#2141=CARTESIAN_POINT('Origin',(113.744882878784,23.2175316371737,0.));
#2142=CARTESIAN_POINT('',(110.144882878784,23.2175316371737,0.));
#2143=CARTESIAN_POINT('Origin',(23.2175316371625,7.25511712122311,0.));
#2144=CARTESIAN_POINT('',(19.6175316371625,7.25511712122311,0.));
#2145=CARTESIAN_POINT('Origin',(97.7824683628316,113.744882878781,0.));
#2146=CARTESIAN_POINT('',(94.1824683628316,113.744882878781,0.));
#2147=CARTESIAN_POINT('Origin',(113.744882878798,97.7824683628114,0.));
#2148=CARTESIAN_POINT('',(110.144882878798,97.7824683628114,0.));
#2149=CARTESIAN_POINT('Origin',(7.25511712119607,23.2175316371928,0.));
#2150=CARTESIAN_POINT('',(3.65511712119607,23.2175316371928,0.));
#2151=CARTESIAN_POINT('Origin',(60.5,60.5,0.));
#2152=CARTESIAN_POINT('',(94.4963233306191,105.,-12.));
#2153=CARTESIAN_POINT('',(26.5036766693808,105.,-12.));
#2154=CARTESIAN_POINT('Origin',(60.5,60.5,-12.));
#2155=CARTESIAN_POINT('',(94.4963233306191,105.,0.));
#2156=CARTESIAN_POINT('',(26.5036766693808,105.,0.));
#2157=CARTESIAN_POINT('Origin',(60.5,60.5,0.));
#2158=CARTESIAN_POINT('',(105.,26.5036766693809,-12.));
#2159=CARTESIAN_POINT('',(105.,94.4963233306192,-12.));
#2160=CARTESIAN_POINT('Origin',(60.5,60.5,-12.));
#2161=CARTESIAN_POINT('',(105.,26.5036766693809,0.));
#2162=CARTESIAN_POINT('',(105.,94.4963233306192,0.));
#2163=CARTESIAN_POINT('Origin',(60.5,60.5,0.));
#2164=CARTESIAN_POINT('',(26.5036766693808,16.,-12.));
#2165=CARTESIAN_POINT('',(94.4963233306192,16.,-12.));
#2166=CARTESIAN_POINT('Origin',(60.5,60.5,-12.));
#2167=CARTESIAN_POINT('',(26.5036766693808,16.,0.));
#2168=CARTESIAN_POINT('',(94.4963233306192,16.,0.));
#2169=CARTESIAN_POINT('Origin',(16.,105.,0.));
#2170=CARTESIAN_POINT('',(26.,105.,-12.));
#2171=CARTESIAN_POINT('',(26.,105.,0.));
#2172=CARTESIAN_POINT('',(38.25,105.,-12.));
#2173=CARTESIAN_POINT('Origin',(105.,105.,0.));
#2174=CARTESIAN_POINT('',(105.,95.,-12.));
#2175=CARTESIAN_POINT('',(105.,95.,0.));
#2176=CARTESIAN_POINT('',(105.,82.75,-12.));
#2177=CARTESIAN_POINT('Origin',(60.5,60.5,-12.));
#2178=CARTESIAN_POINT('Origin',(26.,95.,-12.));
#2179=CARTESIAN_POINT('',(15.9944737414536,100.993927103946,-12.));
#2180=CARTESIAN_POINT('',(15.9972370787125,80.7439272925155,-12.));
#2181=CARTESIAN_POINT('',(0.994473881127629,100.991880187457,-12.));
#2182=CARTESIAN_POINT('',(30.7444736033047,100.995939905159,-12.));
#2183=CARTESIAN_POINT('',(0.0243350804543807,101.986311827991,-12.));
#2184=CARTESIAN_POINT('',(25.1378101290813,76.2439807566161,-12.));
#2185=CARTESIAN_POINT('',(20.,121.,-12.));
#2186=CARTESIAN_POINT('Origin',(20.,101.,-12.));
#2187=CARTESIAN_POINT('',(101.,121.,-12.));
#2188=CARTESIAN_POINT('',(101.,121.,-12.));
#2189=CARTESIAN_POINT('',(121.,101.,-12.));
#2190=CARTESIAN_POINT('Origin',(101.,101.,-12.));
#2191=CARTESIAN_POINT('',(121.,20.,-12.));
#2192=CARTESIAN_POINT('',(121.,20.,-12.));
#2193=CARTESIAN_POINT('',(101.,0.,-12.));
#2194=CARTESIAN_POINT('Origin',(101.,20.,-12.));
#2195=CARTESIAN_POINT('',(20.,0.,-12.));
#2196=CARTESIAN_POINT('',(20.,0.,-12.));
#2197=CARTESIAN_POINT('',(0.,20.,-12.));
#2198=CARTESIAN_POINT('Origin',(20.,20.,-12.));
#2199=CARTESIAN_POINT('',(-4.87925720863571E-15,28.8173808789017,-12.));
#2200=CARTESIAN_POINT('',(-2.66453525910038E-14,101.,-12.));
#2201=CARTESIAN_POINT('',(16.,28.8173808789017,-12.));
#2202=CARTESIAN_POINT('',(30.25,28.8173808789017,-12.));
#2203=CARTESIAN_POINT('',(16.,26.,-12.));
#2204=CARTESIAN_POINT('',(16.,38.25,-12.));
#2205=CARTESIAN_POINT('',(26.,16.,-12.));
#2206=CARTESIAN_POINT('Origin',(26.,26.,-12.));
#2207=CARTESIAN_POINT('',(82.75,16.,-12.));
#2208=CARTESIAN_POINT('',(95.,16.,-12.));
#2209=CARTESIAN_POINT('',(82.75,16.,-12.));
#2210=CARTESIAN_POINT('',(105.,26.,-12.));
#2211=CARTESIAN_POINT('Origin',(95.,26.,-12.));
#2212=CARTESIAN_POINT('',(105.,82.75,-12.));
#2213=CARTESIAN_POINT('',(95.,105.,-12.));
#2214=CARTESIAN_POINT('Origin',(95.,95.,-12.));
#2215=CARTESIAN_POINT('',(38.25,105.,-12.));
#2216=CARTESIAN_POINT('Origin',(105.,16.,0.));
#2217=CARTESIAN_POINT('',(95.,16.,0.));
#2218=CARTESIAN_POINT('Origin',(-4.87925720863571E-15,28.8173808789017,
6.66133814775094E-15));
#2219=CARTESIAN_POINT('',(-4.87925720863571E-15,28.8173808789017,2.32905610691667E-15));
#2220=CARTESIAN_POINT('',(16.,28.8173808789017,1.87467493377013E-15));
#2221=CARTESIAN_POINT('Origin',(16.,16.,0.));
#2222=CARTESIAN_POINT('',(16.,26.,0.));
#2223=CARTESIAN_POINT('Origin',(-2.63438105349327E-14,100.,-15.18));
#2224=CARTESIAN_POINT('',(-2.63438105349327E-14,100.,-7.59));
#2225=CARTESIAN_POINT('Origin',(-2.22044604925031E-15,20.,0.));
#2226=CARTESIAN_POINT('',(-2.66453525910038E-14,101.,0.));
#2227=CARTESIAN_POINT('Origin',(-2.22044604925031E-15,20.,0.));
#2228=CARTESIAN_POINT('',(-2.22044604925031E-15,20.,0.));
#2229=CARTESIAN_POINT('Origin',(15.9944737414536,100.993927103946,-12.));
#2230=CARTESIAN_POINT('',(15.9944737414536,100.993927103946,-12.));
#2231=CARTESIAN_POINT('Origin',(0.994473881127629,100.991880187457,-12.));
#2232=CARTESIAN_POINT('',(0.994473881127629,100.991880187457,-12.));
#2233=CARTESIAN_POINT('Origin',(0.0243350804543866,101.986311827991,-12.));
#2234=CARTESIAN_POINT('',(0.0243350804543807,101.986311827991,-12.));
#2235=CARTESIAN_POINT('Origin',(26.,26.,0.));
#2236=CARTESIAN_POINT('',(26.,16.,0.));
#2237=CARTESIAN_POINT('Origin',(105.,16.,0.));
#2238=CARTESIAN_POINT('Origin',(95.,26.,0.));
#2239=CARTESIAN_POINT('',(105.,26.,0.));
#2240=CARTESIAN_POINT('Origin',(105.,105.,0.));
#2241=CARTESIAN_POINT('Origin',(95.,95.,0.));
#2242=CARTESIAN_POINT('',(95.,105.,0.));
#2243=CARTESIAN_POINT('Origin',(16.,105.,0.));
#2244=CARTESIAN_POINT('Origin',(26.,95.,0.));
#2245=CARTESIAN_POINT('Origin',(121.,101.,0.));
#2246=CARTESIAN_POINT('',(121.,20.,0.));
#2247=CARTESIAN_POINT('',(121.,101.,0.));
#2248=CARTESIAN_POINT('Origin',(101.,101.,0.));
#2249=CARTESIAN_POINT('',(101.,121.,0.));
#2250=CARTESIAN_POINT('Origin',(20.,121.,0.));
#2251=CARTESIAN_POINT('',(20.,121.,0.));
#2252=CARTESIAN_POINT('Origin',(20.,101.,0.));
#2253=CARTESIAN_POINT('Origin',(20.,20.,0.));
#2254=CARTESIAN_POINT('',(20.,0.,0.));
#2255=CARTESIAN_POINT('Origin',(101.,0.,0.));
#2256=CARTESIAN_POINT('',(101.,0.,0.));
#2257=CARTESIAN_POINT('Origin',(101.,20.,0.));
#2258=UNCERTAINTY_MEASURE_WITH_UNIT(LENGTH_MEASURE(0.01),#2262,
'DISTANCE_ACCURACY_VALUE',
'Maximum model space distance between geometric entities at asserted c
onnectivities');
#2259=UNCERTAINTY_MEASURE_WITH_UNIT(LENGTH_MEASURE(0.01),#2262,
'DISTANCE_ACCURACY_VALUE',
'Maximum model space distance between geometric entities at asserted c
onnectivities');
#2260=(
GEOMETRIC_REPRESENTATION_CONTEXT(3)
GLOBAL_UNCERTAINTY_ASSIGNED_CONTEXT((#2258))
GLOBAL_UNIT_ASSIGNED_CONTEXT((#2262,#2264,#2265))
REPRESENTATION_CONTEXT('','3D')
);
#2261=(
GEOMETRIC_REPRESENTATION_CONTEXT(3)
GLOBAL_UNCERTAINTY_ASSIGNED_CONTEXT((#2259))
GLOBAL_UNIT_ASSIGNED_CONTEXT((#2262,#2264,#2265))
REPRESENTATION_CONTEXT('','3D')
);
#2262=(
LENGTH_UNIT()
NAMED_UNIT(*)
SI_UNIT(.MILLI.,.METRE.)
);
#2263=(
LENGTH_UNIT()
NAMED_UNIT(*)
SI_UNIT(.CENTI.,.METRE.)
);
#2264=(
NAMED_UNIT(*)
PLANE_ANGLE_UNIT()
SI_UNIT($,.RADIAN.)
);
#2265=(
NAMED_UNIT(*)
SI_UNIT($,.STERADIAN.)
SOLID_ANGLE_UNIT()
);
#2266=SHAPE_DEFINITION_REPRESENTATION(#2267,#2268);
#2267=PRODUCT_DEFINITION_SHAPE('',$,#2270);
#2268=SHAPE_REPRESENTATION('',(#1331),#2260);
#2269=PRODUCT_DEFINITION_CONTEXT('part definition',#2274,'design');
#2270=PRODUCT_DEFINITION('encoder_spacer','encoder_spacer',#2271,#2269);
#2271=PRODUCT_DEFINITION_FORMATION('',$,#2276);
#2272=PRODUCT_RELATED_PRODUCT_CATEGORY('encoder_spacer',
'encoder_spacer',(#2276));
#2273=APPLICATION_PROTOCOL_DEFINITION('international standard',
'automotive_design',2009,#2274);
#2274=APPLICATION_CONTEXT(
'Core Data for Automotive Mechanical Design Process');
#2275=PRODUCT_CONTEXT('part definition',#2274,'mechanical');
#2276=PRODUCT('encoder_spacer','encoder_spacer',$,(#2275));
#2277=PRESENTATION_STYLE_ASSIGNMENT((#2278));
#2278=SURFACE_STYLE_USAGE(.BOTH.,#2281);
#2279=SURFACE_STYLE_RENDERING_WITH_PROPERTIES($,#2285,(#2280));
#2280=SURFACE_STYLE_TRANSPARENT(0.);
#2281=SURFACE_SIDE_STYLE('',(#2282,#2279));
#2282=SURFACE_STYLE_FILL_AREA(#2283);
#2283=FILL_AREA_STYLE('',(#2284));
#2284=FILL_AREA_STYLE_COLOUR('',#2285);
#2285=COLOUR_RGB('',0.0470588235294118,0.0470588235294118,0.0470588235294118);
ENDSEC;
END-ISO-10303-21;
