ISO-10303-21;
HEADER;
/* Generated by software containing ST-Developer
 * from STEP Tools, Inc. (www.steptools.com) 
 */

FILE_DESCRIPTION(
/* description */ (''),
/* implementation_level */ '2;1');

FILE_NAME(
/* name */ 'encoder_magnet_holder.stp',
/* time_stamp */ '2026-07-03T13:13:48-07:00',
/* author */ ('aaron'),
/* organization */ (''),
/* preprocessor_version */ 'ST-DEVELOPER v20.1',
/* originating_system */ 'Autodesk Inventor 2026',
/* authorisation */ '');

FILE_SCHEMA (('AUTOMOTIVE_DESIGN { 1 0 10303 214 3 1 1 }'));
ENDSEC;

DATA;
#10=MECHANICAL_DESIGN_GEOMETRIC_PRESENTATION_REPRESENTATION('',(#13),#280);
#11=SHAPE_REPRESENTATION_RELATIONSHIP('SRR','None',#287,#12);
#12=ADVANCED_BREP_SHAPE_REPRESENTATION('',(#14),#279);
#13=STYLED_ITEM('',(#296),#14);
#14=MANIFOLD_SOLID_BREP('Solid1',#144);
#15=CYLINDRICAL_SURFACE('',#173,3.05);
#16=CYLINDRICAL_SURFACE('',#179,7.475);
#17=CYLINDRICAL_SURFACE('',#184,9.);
#18=FACE_BOUND('',#36,.T.);
#19=FACE_BOUND('',#45,.T.);
#20=PLANE('',#171);
#21=PLANE('',#178);
#22=PLANE('',#186);
#23=PLANE('',#187);
#24=FACE_OUTER_BOUND('',#34,.T.);
#25=FACE_OUTER_BOUND('',#35,.T.);
#26=FACE_OUTER_BOUND('',#37,.T.);
#27=FACE_OUTER_BOUND('',#38,.T.);
#28=FACE_OUTER_BOUND('',#39,.T.);
#29=FACE_OUTER_BOUND('',#40,.T.);
#30=FACE_OUTER_BOUND('',#41,.T.);
#31=FACE_OUTER_BOUND('',#42,.T.);
#32=FACE_OUTER_BOUND('',#43,.T.);
#33=FACE_OUTER_BOUND('',#44,.T.);
#34=EDGE_LOOP('',(#97,#98,#99,#100,#101));
#35=EDGE_LOOP('',(#102));
#36=EDGE_LOOP('',(#103));
#37=EDGE_LOOP('',(#104,#105,#106,#107,#108));
#38=EDGE_LOOP('',(#109,#110,#111,#112));
#39=EDGE_LOOP('',(#113));
#40=EDGE_LOOP('',(#114,#115,#116,#117));
#41=EDGE_LOOP('',(#118,#119,#120,#121,#122));
#42=EDGE_LOOP('',(#123,#124,#125,#126,#127));
#43=EDGE_LOOP('',(#128));
#44=EDGE_LOOP('',(#129));
#45=EDGE_LOOP('',(#130));
#46=LINE('',#243,#52);
#47=LINE('',#252,#53);
#48=LINE('',#258,#54);
#49=LINE('',#263,#55);
#50=LINE('',#267,#56);
#51=LINE('',#273,#57);
#52=VECTOR('',#194,3.2);
#53=VECTOR('',#205,3.05);
#54=VECTOR('',#212,7.325);
#55=VECTOR('',#219,7.475);
#56=VECTOR('',#224,8.25);
#57=VECTOR('',#231,9.);
#58=CIRCLE('',#168,3.35);
#59=CIRCLE('',#169,3.05);
#60=CIRCLE('',#170,3.05);
#61=CIRCLE('',#172,7.5);
#62=CIRCLE('',#174,3.05);
#63=CIRCLE('',#176,7.175);
#64=CIRCLE('',#177,7.475);
#65=CIRCLE('',#180,7.475);
#66=CIRCLE('',#182,9.);
#67=CIRCLE('',#183,9.);
#68=CIRCLE('',#185,9.);
#69=VERTEX_POINT('',#240);
#70=VERTEX_POINT('',#242);
#71=VERTEX_POINT('',#244);
#72=VERTEX_POINT('',#248);
#73=VERTEX_POINT('',#251);
#74=VERTEX_POINT('',#255);
#75=VERTEX_POINT('',#257);
#76=VERTEX_POINT('',#262);
#77=VERTEX_POINT('',#266);
#78=VERTEX_POINT('',#268);
#79=VERTEX_POINT('',#272);
#80=EDGE_CURVE('',#69,#69,#58,.T.);
#81=EDGE_CURVE('',#69,#70,#46,.T.);
#82=EDGE_CURVE('',#70,#71,#59,.T.);
#83=EDGE_CURVE('',#71,#70,#60,.T.);
#84=EDGE_CURVE('',#72,#72,#61,.T.);
#85=EDGE_CURVE('',#71,#73,#47,.T.);
#86=EDGE_CURVE('',#73,#73,#62,.T.);
#87=EDGE_CURVE('',#74,#74,#63,.T.);
#88=EDGE_CURVE('',#74,#75,#48,.T.);
#89=EDGE_CURVE('',#75,#75,#64,.T.);
#90=EDGE_CURVE('',#75,#76,#49,.T.);
#91=EDGE_CURVE('',#76,#76,#65,.T.);
#92=EDGE_CURVE('',#72,#77,#50,.T.);
#93=EDGE_CURVE('',#77,#78,#66,.T.);
#94=EDGE_CURVE('',#78,#77,#67,.T.);
#95=EDGE_CURVE('',#78,#79,#51,.T.);
#96=EDGE_CURVE('',#79,#79,#68,.T.);
#97=ORIENTED_EDGE('',*,*,#80,.T.);
#98=ORIENTED_EDGE('',*,*,#81,.T.);
#99=ORIENTED_EDGE('',*,*,#82,.T.);
#100=ORIENTED_EDGE('',*,*,#83,.T.);
#101=ORIENTED_EDGE('',*,*,#81,.F.);
#102=ORIENTED_EDGE('',*,*,#84,.F.);
#103=ORIENTED_EDGE('',*,*,#80,.F.);
#104=ORIENTED_EDGE('',*,*,#82,.F.);
#105=ORIENTED_EDGE('',*,*,#83,.F.);
#106=ORIENTED_EDGE('',*,*,#85,.T.);
#107=ORIENTED_EDGE('',*,*,#86,.T.);
#108=ORIENTED_EDGE('',*,*,#85,.F.);
#109=ORIENTED_EDGE('',*,*,#87,.T.);
#110=ORIENTED_EDGE('',*,*,#88,.T.);
#111=ORIENTED_EDGE('',*,*,#89,.T.);
#112=ORIENTED_EDGE('',*,*,#88,.F.);
#113=ORIENTED_EDGE('',*,*,#87,.F.);
#114=ORIENTED_EDGE('',*,*,#89,.F.);
#115=ORIENTED_EDGE('',*,*,#90,.T.);
#116=ORIENTED_EDGE('',*,*,#91,.T.);
#117=ORIENTED_EDGE('',*,*,#90,.F.);
#118=ORIENTED_EDGE('',*,*,#84,.T.);
#119=ORIENTED_EDGE('',*,*,#92,.T.);
#120=ORIENTED_EDGE('',*,*,#93,.T.);
#121=ORIENTED_EDGE('',*,*,#94,.T.);
#122=ORIENTED_EDGE('',*,*,#92,.F.);
#123=ORIENTED_EDGE('',*,*,#93,.F.);
#124=ORIENTED_EDGE('',*,*,#94,.F.);
#125=ORIENTED_EDGE('',*,*,#95,.T.);
#126=ORIENTED_EDGE('',*,*,#96,.T.);
#127=ORIENTED_EDGE('',*,*,#95,.F.);
#128=ORIENTED_EDGE('',*,*,#86,.F.);
#129=ORIENTED_EDGE('',*,*,#96,.F.);
#130=ORIENTED_EDGE('',*,*,#91,.F.);
#131=CONICAL_SURFACE('',#167,3.2,0.785398163397448);
#132=CONICAL_SURFACE('',#175,7.325,0.785398163397448);
#133=CONICAL_SURFACE('',#181,8.25,0.785398163397448);
#134=ADVANCED_FACE('',(#24),#131,.F.);
#135=ADVANCED_FACE('',(#25,#18),#20,.T.);
#136=ADVANCED_FACE('',(#26),#15,.F.);
#137=ADVANCED_FACE('',(#27),#132,.T.);
#138=ADVANCED_FACE('',(#28),#21,.T.);
#139=ADVANCED_FACE('',(#29),#16,.T.);
#140=ADVANCED_FACE('',(#30),#133,.T.);
#141=ADVANCED_FACE('',(#31),#17,.T.);
#142=ADVANCED_FACE('',(#32),#22,.T.);
#143=ADVANCED_FACE('',(#33,#19),#23,.T.);
#144=CLOSED_SHELL('',(#134,#135,#136,#137,#138,#139,#140,#141,#142,#143));
#145=DERIVED_UNIT_ELEMENT(#148,1.);
#146=DERIVED_UNIT_ELEMENT(#282,-3.);
#147=DIMENSIONAL_EXPONENTS(0.,1.,0.,0.,0.,0.,0.);
#148=(
CONVERSION_BASED_UNIT('gram',#150)
MASS_UNIT()
NAMED_UNIT(#147)
);
#149=(
MASS_UNIT()
NAMED_UNIT(*)
SI_UNIT(.KILO.,.GRAM.)
);
#150=MASS_MEASURE_WITH_UNIT(MASS_MEASURE(0.001),#149);
#151=DERIVED_UNIT((#145,#146));
#152=MEASURE_REPRESENTATION_ITEM('density measure',
POSITIVE_RATIO_MEASURE(1.541),#151);
#153=PROPERTY_DEFINITION_REPRESENTATION(#158,#155);
#154=PROPERTY_DEFINITION_REPRESENTATION(#159,#156);
#155=REPRESENTATION('material name',(#157),#279);
#156=REPRESENTATION('density',(#152),#279);
#157=DESCRIPTIVE_REPRESENTATION_ITEM('PET Plastic','PET Plastic');
#158=PROPERTY_DEFINITION('material property','material name',#289);
#159=PROPERTY_DEFINITION('material property','density of part',#289);
#160=DATE_TIME_ROLE('creation_date');
#161=APPLIED_DATE_AND_TIME_ASSIGNMENT(#162,#160,(#289));
#162=DATE_AND_TIME(#163,#164);
#163=CALENDAR_DATE(2026,27,4);
#164=LOCAL_TIME(0,0,0.,#165);
#165=COORDINATED_UNIVERSAL_TIME_OFFSET(0,0,.BEHIND.);
#166=AXIS2_PLACEMENT_3D('',#238,#188,#189);
#167=AXIS2_PLACEMENT_3D('',#239,#190,#191);
#168=AXIS2_PLACEMENT_3D('',#241,#192,#193);
#169=AXIS2_PLACEMENT_3D('',#245,#195,#196);
#170=AXIS2_PLACEMENT_3D('',#246,#197,#198);
#171=AXIS2_PLACEMENT_3D('',#247,#199,#200);
#172=AXIS2_PLACEMENT_3D('',#249,#201,#202);
#173=AXIS2_PLACEMENT_3D('',#250,#203,#204);
#174=AXIS2_PLACEMENT_3D('',#253,#206,#207);
#175=AXIS2_PLACEMENT_3D('',#254,#208,#209);
#176=AXIS2_PLACEMENT_3D('',#256,#210,#211);
#177=AXIS2_PLACEMENT_3D('',#259,#213,#214);
#178=AXIS2_PLACEMENT_3D('',#260,#215,#216);
#179=AXIS2_PLACEMENT_3D('',#261,#217,#218);
#180=AXIS2_PLACEMENT_3D('',#264,#220,#221);
#181=AXIS2_PLACEMENT_3D('',#265,#222,#223);
#182=AXIS2_PLACEMENT_3D('',#269,#225,#226);
#183=AXIS2_PLACEMENT_3D('',#270,#227,#228);
#184=AXIS2_PLACEMENT_3D('',#271,#229,#230);
#185=AXIS2_PLACEMENT_3D('',#274,#232,#233);
#186=AXIS2_PLACEMENT_3D('',#275,#234,#235);
#187=AXIS2_PLACEMENT_3D('',#276,#236,#237);
#188=DIRECTION('axis',(0.,0.,1.));
#189=DIRECTION('refdir',(1.,0.,0.));
#190=DIRECTION('center_axis',(0.,0.,1.));
#191=DIRECTION('ref_axis',(-1.,0.,0.));
#192=DIRECTION('center_axis',(0.,0.,1.));
#193=DIRECTION('ref_axis',(-1.,0.,0.));
#194=DIRECTION('',(-0.707106781186547,-8.65956056235493E-17,-0.707106781186547));
#195=DIRECTION('center_axis',(0.,0.,-1.));
#196=DIRECTION('ref_axis',(-1.,0.,0.));
#197=DIRECTION('center_axis',(0.,0.,-1.));
#198=DIRECTION('ref_axis',(-1.,0.,0.));
#199=DIRECTION('center_axis',(0.,0.,1.));
#200=DIRECTION('ref_axis',(1.,0.,0.));
#201=DIRECTION('center_axis',(0.,0.,-1.));
#202=DIRECTION('ref_axis',(-1.,0.,0.));
#203=DIRECTION('center_axis',(0.,0.,-1.));
#204=DIRECTION('ref_axis',(1.,0.,0.));
#205=DIRECTION('',(0.,0.,-1.));
#206=DIRECTION('center_axis',(0.,0.,-1.));
#207=DIRECTION('ref_axis',(1.,0.,0.));
#208=DIRECTION('center_axis',(0.,0.,1.));
#209=DIRECTION('ref_axis',(1.,0.,0.));
#210=DIRECTION('center_axis',(0.,0.,1.));
#211=DIRECTION('ref_axis',(1.,0.,0.));
#212=DIRECTION('',(-0.707106781186548,8.65956056235493E-17,0.707106781186548));
#213=DIRECTION('center_axis',(0.,0.,-1.));
#214=DIRECTION('ref_axis',(1.,0.,0.));
#215=DIRECTION('center_axis',(0.,0.,-1.));
#216=DIRECTION('ref_axis',(-1.,0.,0.));
#217=DIRECTION('center_axis',(0.,0.,1.));
#218=DIRECTION('ref_axis',(1.,0.,0.));
#219=DIRECTION('',(0.,0.,1.));
#220=DIRECTION('center_axis',(0.,0.,-1.));
#221=DIRECTION('ref_axis',(1.,0.,0.));
#222=DIRECTION('center_axis',(0.,0.,-1.));
#223=DIRECTION('ref_axis',(-1.,0.,0.));
#224=DIRECTION('',(0.707106781186547,8.65956056235493E-17,-0.707106781186547));
#225=DIRECTION('center_axis',(0.,0.,1.));
#226=DIRECTION('ref_axis',(-1.,0.,0.));
#227=DIRECTION('center_axis',(0.,0.,1.));
#228=DIRECTION('ref_axis',(-1.,0.,0.));
#229=DIRECTION('center_axis',(0.,0.,1.));
#230=DIRECTION('ref_axis',(1.,0.,0.));
#231=DIRECTION('',(0.,0.,-1.));
#232=DIRECTION('center_axis',(0.,0.,1.));
#233=DIRECTION('ref_axis',(1.,0.,0.));
#234=DIRECTION('center_axis',(0.,0.,1.));
#235=DIRECTION('ref_axis',(1.,0.,0.));
#236=DIRECTION('center_axis',(0.,0.,-1.));
#237=DIRECTION('ref_axis',(-1.,0.,0.));
#238=CARTESIAN_POINT('',(0.,0.,0.));
#239=CARTESIAN_POINT('Origin',(0.,0.,7.85));
#240=CARTESIAN_POINT('',(3.35,4.10256677714363E-16,8.));
#241=CARTESIAN_POINT('Origin',(0.,0.,8.));
#242=CARTESIAN_POINT('',(3.05,-3.73517273739943E-16,7.7));
#243=CARTESIAN_POINT('',(3.2,3.91886975727153E-16,7.85));
#244=CARTESIAN_POINT('',(-3.05,3.73517273739943E-16,7.7));
#245=CARTESIAN_POINT('Origin',(0.,0.,7.7));
#246=CARTESIAN_POINT('Origin',(0.,0.,7.7));
#247=CARTESIAN_POINT('Origin',(0.,0.,8.));
#248=CARTESIAN_POINT('',(7.5,-9.18485099360515E-16,8.));
#249=CARTESIAN_POINT('Origin',(0.,0.,8.));
#250=CARTESIAN_POINT('Origin',(0.,0.,4.));
#251=CARTESIAN_POINT('',(-3.05,3.73517273739943E-16,5.5));
#252=CARTESIAN_POINT('',(-3.05,3.73517273739943E-16,4.));
#253=CARTESIAN_POINT('Origin',(0.,0.,5.5));
#254=CARTESIAN_POINT('Origin',(0.,0.,-2.85));
#255=CARTESIAN_POINT('',(-7.175,-8.78684078388226E-16,-3.));
#256=CARTESIAN_POINT('Origin',(0.,0.,-3.));
#257=CARTESIAN_POINT('',(-7.475,9.15423482362646E-16,-2.7));
#258=CARTESIAN_POINT('',(-7.325,8.97053780375436E-16,-2.85));
#259=CARTESIAN_POINT('Origin',(0.,0.,-2.7));
#260=CARTESIAN_POINT('Origin',(0.,0.,-3.));
#261=CARTESIAN_POINT('Origin',(0.,0.,0.));
#262=CARTESIAN_POINT('',(-7.475,9.15423482362646E-16,3.5));
#263=CARTESIAN_POINT('',(-7.475,-9.15423482362646E-16,0.));
#264=CARTESIAN_POINT('Origin',(0.,0.,3.5));
#265=CARTESIAN_POINT('Origin',(0.,0.,7.25));
#266=CARTESIAN_POINT('',(9.,1.10218211923262E-15,6.5));
#267=CARTESIAN_POINT('',(8.25,1.01033360929657E-15,7.25));
#268=CARTESIAN_POINT('',(-9.,-1.10218211923262E-15,6.5));
#269=CARTESIAN_POINT('Origin',(0.,0.,6.5));
#270=CARTESIAN_POINT('Origin',(0.,0.,6.5));
#271=CARTESIAN_POINT('Origin',(0.,0.,0.));
#272=CARTESIAN_POINT('',(-9.,0.,3.5));
#273=CARTESIAN_POINT('',(-9.,-1.10218211923262E-15,0.));
#274=CARTESIAN_POINT('Origin',(0.,0.,3.5));
#275=CARTESIAN_POINT('Origin',(0.,0.,5.5));
#276=CARTESIAN_POINT('Origin',(0.,0.,3.5));
#277=UNCERTAINTY_MEASURE_WITH_UNIT(LENGTH_MEASURE(0.01),#281,
'DISTANCE_ACCURACY_VALUE',
'Maximum model space distance between geometric entities at asserted c
onnectivities');
#278=UNCERTAINTY_MEASURE_WITH_UNIT(LENGTH_MEASURE(0.01),#281,
'DISTANCE_ACCURACY_VALUE',
'Maximum model space distance between geometric entities at asserted c
onnectivities');
#279=(
GEOMETRIC_REPRESENTATION_CONTEXT(3)
GLOBAL_UNCERTAINTY_ASSIGNED_CONTEXT((#277))
GLOBAL_UNIT_ASSIGNED_CONTEXT((#281,#283,#284))
REPRESENTATION_CONTEXT('','3D')
);
#280=(
GEOMETRIC_REPRESENTATION_CONTEXT(3)
GLOBAL_UNCERTAINTY_ASSIGNED_CONTEXT((#278))
GLOBAL_UNIT_ASSIGNED_CONTEXT((#281,#283,#284))
REPRESENTATION_CONTEXT('','3D')
);
#281=(
LENGTH_UNIT()
NAMED_UNIT(*)
SI_UNIT(.MILLI.,.METRE.)
);
#282=(
LENGTH_UNIT()
NAMED_UNIT(*)
SI_UNIT(.CENTI.,.METRE.)
);
#283=(
NAMED_UNIT(*)
PLANE_ANGLE_UNIT()
SI_UNIT($,.RADIAN.)
);
#284=(
NAMED_UNIT(*)
SI_UNIT($,.STERADIAN.)
SOLID_ANGLE_UNIT()
);
#285=SHAPE_DEFINITION_REPRESENTATION(#286,#287);
#286=PRODUCT_DEFINITION_SHAPE('',$,#289);
#287=SHAPE_REPRESENTATION('',(#166),#279);
#288=PRODUCT_DEFINITION_CONTEXT('part definition',#293,'design');
#289=PRODUCT_DEFINITION('encoder_magnet_holder','encoder_magnet_holder',
#290,#288);
#290=PRODUCT_DEFINITION_FORMATION('',$,#295);
#291=PRODUCT_RELATED_PRODUCT_CATEGORY('encoder_magnet_holder',
'encoder_magnet_holder',(#295));
#292=APPLICATION_PROTOCOL_DEFINITION('international standard',
'automotive_design',2009,#293);
#293=APPLICATION_CONTEXT(
'Core Data for Automotive Mechanical Design Process');
#294=PRODUCT_CONTEXT('part definition',#293,'mechanical');
#295=PRODUCT('encoder_magnet_holder','encoder_magnet_holder',$,(#294));
#296=PRESENTATION_STYLE_ASSIGNMENT((#297));
#297=SURFACE_STYLE_USAGE(.BOTH.,#300);
#298=SURFACE_STYLE_RENDERING_WITH_PROPERTIES($,#304,(#299));
#299=SURFACE_STYLE_TRANSPARENT(0.);
#300=SURFACE_SIDE_STYLE('',(#301,#298));
#301=SURFACE_STYLE_FILL_AREA(#302);
#302=FILL_AREA_STYLE('',(#303));
#303=FILL_AREA_STYLE_COLOUR('',#304);
#304=COLOUR_RGB('',0.152941176470588,0.152941176470588,0.152941176470588);
ENDSEC;
END-ISO-10303-21;
