ISO-10303-21;
HEADER;
/* Generated by software containing ST-Developer
 * from STEP Tools, Inc. (www.steptools.com) 
 */

FILE_DESCRIPTION(
/* description */ (''),
/* implementation_level */ '2;1');

FILE_NAME(
/* name */ 'handle_insert.stp',
/* time_stamp */ '2026-05-14T11:21:51-07:00',
/* author */ ('aaron'),
/* organization */ (''),
/* preprocessor_version */ 'ST-DEVELOPER v20.1',
/* originating_system */ 'Autodesk Inventor 2026',
/* authorisation */ '');

FILE_SCHEMA (('AUTOMOTIVE_DESIGN { 1 0 10303 214 3 1 1 }'));
ENDSEC;

DATA;
#10=MECHANICAL_DESIGN_GEOMETRIC_PRESENTATION_REPRESENTATION('',(#20,#21),
#547);
#11=SHAPE_REPRESENTATION_RELATIONSHIP('SRR','None',#554,#12);
#12=ADVANCED_BREP_SHAPE_REPRESENTATION('',(#13),#546);
#13=MANIFOLD_SOLID_BREP('Solid1',#290);
#14=FACE_BOUND('',#77,.T.);
#15=FACE_BOUND('',#78,.T.);
#16=FACE_BOUND('',#79,.T.);
#17=FACE_BOUND('',#80,.T.);
#18=FACE_BOUND('',#81,.T.);
#19=FACE_BOUND('',#82,.T.);
#20=STYLED_ITEM('',(#564),#289);
#21=STYLED_ITEM('',(#563),#13);
#22=B_SPLINE_CURVE_WITH_KNOTS('',3,(#495,#496,#497,#498,#499,#500),
 .UNSPECIFIED.,.F.,.F.,(4,2,4),(0.242635940248031,0.339772107247415,0.453085986595192),
 .UNSPECIFIED.);
#23=B_SPLINE_CURVE_WITH_KNOTS('',3,(#503,#504,#505,#506,#507,#508),
 .UNSPECIFIED.,.F.,.F.,(4,2,4),(1.37557258241651,1.48888646176429,1.58602262876367),
 .UNSPECIFIED.);
#24=B_SPLINE_CURVE_WITH_KNOTS('',3,(#520,#521,#522,#523,#524,#525),
 .UNSPECIFIED.,.F.,.F.,(4,2,4),(0.461240167407596,0.574554046755373,0.671690213754756),
 .UNSPECIFIED.);
#25=B_SPLINE_CURVE_WITH_KNOTS('',3,(#528,#529,#530,#531,#532,#533),
 .UNSPECIFIED.,.F.,.F.,(4,2,4),(-0.671690213754755,-0.574554046755373,-0.461240167407596),
 .UNSPECIFIED.);
#26=PLANE('',#316);
#27=PLANE('',#320);
#28=PLANE('',#324);
#29=PLANE('',#328);
#30=PLANE('',#332);
#31=PLANE('',#336);
#32=PLANE('',#340);
#33=PLANE('',#345);
#34=PLANE('',#348);
#35=PLANE('',#349);
#36=PLANE('',#350);
#37=FACE_OUTER_BOUND('',#57,.T.);
#38=FACE_OUTER_BOUND('',#58,.T.);
#39=FACE_OUTER_BOUND('',#59,.T.);
#40=FACE_OUTER_BOUND('',#60,.T.);
#41=FACE_OUTER_BOUND('',#61,.T.);
#42=FACE_OUTER_BOUND('',#62,.T.);
#43=FACE_OUTER_BOUND('',#63,.T.);
#44=FACE_OUTER_BOUND('',#64,.T.);
#45=FACE_OUTER_BOUND('',#65,.T.);
#46=FACE_OUTER_BOUND('',#66,.T.);
#47=FACE_OUTER_BOUND('',#67,.T.);
#48=FACE_OUTER_BOUND('',#68,.T.);
#49=FACE_OUTER_BOUND('',#69,.T.);
#50=FACE_OUTER_BOUND('',#70,.T.);
#51=FACE_OUTER_BOUND('',#71,.T.);
#52=FACE_OUTER_BOUND('',#72,.T.);
#53=FACE_OUTER_BOUND('',#73,.T.);
#54=FACE_OUTER_BOUND('',#74,.T.);
#55=FACE_OUTER_BOUND('',#75,.T.);
#56=FACE_OUTER_BOUND('',#76,.T.);
#57=EDGE_LOOP('',(#189,#190,#191,#192));
#58=EDGE_LOOP('',(#193));
#59=EDGE_LOOP('',(#194,#195,#196,#197));
#60=EDGE_LOOP('',(#198));
#61=EDGE_LOOP('',(#199,#200,#201,#202));
#62=EDGE_LOOP('',(#203));
#63=EDGE_LOOP('',(#204,#205,#206,#207));
#64=EDGE_LOOP('',(#208));
#65=EDGE_LOOP('',(#209,#210,#211,#212));
#66=EDGE_LOOP('',(#213));
#67=EDGE_LOOP('',(#214,#215,#216,#217));
#68=EDGE_LOOP('',(#218));
#69=EDGE_LOOP('',(#219,#220,#221,#222,#223,#224));
#70=EDGE_LOOP('',(#225,#226,#227,#228));
#71=EDGE_LOOP('',(#229,#230,#231,#232,#233,#234,#235,#236));
#72=EDGE_LOOP('',(#237,#238));
#73=EDGE_LOOP('',(#239,#240,#241,#242,#243,#244));
#74=EDGE_LOOP('',(#245,#246));
#75=EDGE_LOOP('',(#247,#248,#249,#250));
#76=EDGE_LOOP('',(#251,#252,#253,#254));
#77=EDGE_LOOP('',(#255));
#78=EDGE_LOOP('',(#256));
#79=EDGE_LOOP('',(#257));
#80=EDGE_LOOP('',(#258));
#81=EDGE_LOOP('',(#259));
#82=EDGE_LOOP('',(#260));
#83=LINE('',#448,#97);
#84=LINE('',#455,#98);
#85=LINE('',#462,#99);
#86=LINE('',#469,#100);
#87=LINE('',#476,#101);
#88=LINE('',#483,#102);
#89=LINE('',#491,#103);
#90=LINE('',#502,#104);
#91=LINE('',#511,#105);
#92=LINE('',#514,#106);
#93=LINE('',#518,#107);
#94=LINE('',#538,#108);
#95=LINE('',#539,#109);
#96=LINE('',#542,#110);
#97=VECTOR('',#357,2.15);
#98=VECTOR('',#366,2.15);
#99=VECTOR('',#375,2.15);
#100=VECTOR('',#384,2.15);
#101=VECTOR('',#393,2.15);
#102=VECTOR('',#402,2.15);
#103=VECTOR('',#411,10.);
#104=VECTOR('',#414,10.);
#105=VECTOR('',#417,10.);
#106=VECTOR('',#420,10.);
#107=VECTOR('',#425,10.);
#108=VECTOR('',#434,10.);
#109=VECTOR('',#435,10.);
#110=VECTOR('',#440,10.);
#111=CIRCLE('',#314,2.15);
#112=CIRCLE('',#315,2.15);
#113=CIRCLE('',#318,2.15);
#114=CIRCLE('',#319,2.15);
#115=CIRCLE('',#322,2.15);
#116=CIRCLE('',#323,2.15);
#117=CIRCLE('',#326,2.15);
#118=CIRCLE('',#327,2.15);
#119=CIRCLE('',#330,2.15);
#120=CIRCLE('',#331,2.15);
#121=CIRCLE('',#334,2.15);
#122=CIRCLE('',#335,2.15);
#123=CIRCLE('',#338,3.);
#124=CIRCLE('',#339,3.);
#125=CIRCLE('',#341,3.);
#126=CIRCLE('',#343,12.5);
#127=CIRCLE('',#344,12.5);
#128=CIRCLE('',#347,3.);
#129=VERTEX_POINT('',#445);
#130=VERTEX_POINT('',#447);
#131=VERTEX_POINT('',#452);
#132=VERTEX_POINT('',#454);
#133=VERTEX_POINT('',#459);
#134=VERTEX_POINT('',#461);
#135=VERTEX_POINT('',#466);
#136=VERTEX_POINT('',#468);
#137=VERTEX_POINT('',#473);
#138=VERTEX_POINT('',#475);
#139=VERTEX_POINT('',#480);
#140=VERTEX_POINT('',#482);
#141=VERTEX_POINT('',#487);
#142=VERTEX_POINT('',#488);
#143=VERTEX_POINT('',#490);
#144=VERTEX_POINT('',#492);
#145=VERTEX_POINT('',#494);
#146=VERTEX_POINT('',#501);
#147=VERTEX_POINT('',#510);
#148=VERTEX_POINT('',#512);
#149=VERTEX_POINT('',#517);
#150=VERTEX_POINT('',#519);
#151=VERTEX_POINT('',#526);
#152=VERTEX_POINT('',#536);
#153=EDGE_CURVE('',#129,#129,#111,.T.);
#154=EDGE_CURVE('',#129,#130,#83,.T.);
#155=EDGE_CURVE('',#130,#130,#112,.T.);
#156=EDGE_CURVE('',#131,#131,#113,.T.);
#157=EDGE_CURVE('',#131,#132,#84,.T.);
#158=EDGE_CURVE('',#132,#132,#114,.T.);
#159=EDGE_CURVE('',#133,#133,#115,.T.);
#160=EDGE_CURVE('',#133,#134,#85,.T.);
#161=EDGE_CURVE('',#134,#134,#116,.T.);
#162=EDGE_CURVE('',#135,#135,#117,.T.);
#163=EDGE_CURVE('',#135,#136,#86,.T.);
#164=EDGE_CURVE('',#136,#136,#118,.T.);
#165=EDGE_CURVE('',#137,#137,#119,.T.);
#166=EDGE_CURVE('',#137,#138,#87,.T.);
#167=EDGE_CURVE('',#138,#138,#120,.T.);
#168=EDGE_CURVE('',#139,#139,#121,.T.);
#169=EDGE_CURVE('',#139,#140,#88,.T.);
#170=EDGE_CURVE('',#140,#140,#122,.T.);
#171=EDGE_CURVE('',#141,#142,#123,.T.);
#172=EDGE_CURVE('',#142,#143,#89,.T.);
#173=EDGE_CURVE('',#143,#144,#124,.T.);
#174=EDGE_CURVE('',#144,#145,#22,.T.);
#175=EDGE_CURVE('',#145,#146,#90,.T.);
#176=EDGE_CURVE('',#146,#141,#23,.T.);
#177=EDGE_CURVE('',#141,#147,#91,.T.);
#178=EDGE_CURVE('',#148,#147,#125,.T.);
#179=EDGE_CURVE('',#142,#148,#92,.T.);
#180=EDGE_CURVE('',#146,#145,#126,.T.);
#181=EDGE_CURVE('',#149,#144,#93,.T.);
#182=EDGE_CURVE('',#150,#149,#24,.T.);
#183=EDGE_CURVE('',#150,#151,#127,.T.);
#184=EDGE_CURVE('',#147,#151,#25,.T.);
#185=EDGE_CURVE('',#149,#152,#128,.T.);
#186=EDGE_CURVE('',#152,#148,#94,.T.);
#187=EDGE_CURVE('',#151,#150,#95,.T.);
#188=EDGE_CURVE('',#152,#143,#96,.T.);
#189=ORIENTED_EDGE('',*,*,#153,.F.);
#190=ORIENTED_EDGE('',*,*,#154,.T.);
#191=ORIENTED_EDGE('',*,*,#155,.T.);
#192=ORIENTED_EDGE('',*,*,#154,.F.);
#193=ORIENTED_EDGE('',*,*,#155,.F.);
#194=ORIENTED_EDGE('',*,*,#156,.F.);
#195=ORIENTED_EDGE('',*,*,#157,.T.);
#196=ORIENTED_EDGE('',*,*,#158,.T.);
#197=ORIENTED_EDGE('',*,*,#157,.F.);
#198=ORIENTED_EDGE('',*,*,#158,.F.);
#199=ORIENTED_EDGE('',*,*,#159,.F.);
#200=ORIENTED_EDGE('',*,*,#160,.T.);
#201=ORIENTED_EDGE('',*,*,#161,.T.);
#202=ORIENTED_EDGE('',*,*,#160,.F.);
#203=ORIENTED_EDGE('',*,*,#161,.F.);
#204=ORIENTED_EDGE('',*,*,#162,.F.);
#205=ORIENTED_EDGE('',*,*,#163,.T.);
#206=ORIENTED_EDGE('',*,*,#164,.T.);
#207=ORIENTED_EDGE('',*,*,#163,.F.);
#208=ORIENTED_EDGE('',*,*,#164,.F.);
#209=ORIENTED_EDGE('',*,*,#165,.F.);
#210=ORIENTED_EDGE('',*,*,#166,.T.);
#211=ORIENTED_EDGE('',*,*,#167,.T.);
#212=ORIENTED_EDGE('',*,*,#166,.F.);
#213=ORIENTED_EDGE('',*,*,#167,.F.);
#214=ORIENTED_EDGE('',*,*,#168,.F.);
#215=ORIENTED_EDGE('',*,*,#169,.T.);
#216=ORIENTED_EDGE('',*,*,#170,.T.);
#217=ORIENTED_EDGE('',*,*,#169,.F.);
#218=ORIENTED_EDGE('',*,*,#170,.F.);
#219=ORIENTED_EDGE('',*,*,#171,.T.);
#220=ORIENTED_EDGE('',*,*,#172,.T.);
#221=ORIENTED_EDGE('',*,*,#173,.T.);
#222=ORIENTED_EDGE('',*,*,#174,.T.);
#223=ORIENTED_EDGE('',*,*,#175,.T.);
#224=ORIENTED_EDGE('',*,*,#176,.T.);
#225=ORIENTED_EDGE('',*,*,#171,.F.);
#226=ORIENTED_EDGE('',*,*,#177,.T.);
#227=ORIENTED_EDGE('',*,*,#178,.F.);
#228=ORIENTED_EDGE('',*,*,#179,.F.);
#229=ORIENTED_EDGE('',*,*,#176,.F.);
#230=ORIENTED_EDGE('',*,*,#180,.T.);
#231=ORIENTED_EDGE('',*,*,#174,.F.);
#232=ORIENTED_EDGE('',*,*,#181,.F.);
#233=ORIENTED_EDGE('',*,*,#182,.F.);
#234=ORIENTED_EDGE('',*,*,#183,.T.);
#235=ORIENTED_EDGE('',*,*,#184,.F.);
#236=ORIENTED_EDGE('',*,*,#177,.F.);
#237=ORIENTED_EDGE('',*,*,#175,.F.);
#238=ORIENTED_EDGE('',*,*,#180,.F.);
#239=ORIENTED_EDGE('',*,*,#185,.T.);
#240=ORIENTED_EDGE('',*,*,#186,.T.);
#241=ORIENTED_EDGE('',*,*,#178,.T.);
#242=ORIENTED_EDGE('',*,*,#184,.T.);
#243=ORIENTED_EDGE('',*,*,#187,.T.);
#244=ORIENTED_EDGE('',*,*,#182,.T.);
#245=ORIENTED_EDGE('',*,*,#187,.F.);
#246=ORIENTED_EDGE('',*,*,#183,.F.);
#247=ORIENTED_EDGE('',*,*,#173,.F.);
#248=ORIENTED_EDGE('',*,*,#188,.F.);
#249=ORIENTED_EDGE('',*,*,#185,.F.);
#250=ORIENTED_EDGE('',*,*,#181,.T.);
#251=ORIENTED_EDGE('',*,*,#172,.F.);
#252=ORIENTED_EDGE('',*,*,#179,.T.);
#253=ORIENTED_EDGE('',*,*,#186,.F.);
#254=ORIENTED_EDGE('',*,*,#188,.T.);
#255=ORIENTED_EDGE('',*,*,#153,.T.);
#256=ORIENTED_EDGE('',*,*,#156,.T.);
#257=ORIENTED_EDGE('',*,*,#159,.T.);
#258=ORIENTED_EDGE('',*,*,#162,.T.);
#259=ORIENTED_EDGE('',*,*,#165,.T.);
#260=ORIENTED_EDGE('',*,*,#168,.T.);
#261=CYLINDRICAL_SURFACE('',#313,2.15);
#262=CYLINDRICAL_SURFACE('',#317,2.15);
#263=CYLINDRICAL_SURFACE('',#321,2.15);
#264=CYLINDRICAL_SURFACE('',#325,2.15);
#265=CYLINDRICAL_SURFACE('',#329,2.15);
#266=CYLINDRICAL_SURFACE('',#333,2.15);
#267=CYLINDRICAL_SURFACE('',#337,3.);
#268=CYLINDRICAL_SURFACE('',#342,12.5);
#269=CYLINDRICAL_SURFACE('',#346,3.);
#270=ADVANCED_FACE('',(#37),#261,.F.);
#271=ADVANCED_FACE('',(#38),#26,.T.);
#272=ADVANCED_FACE('',(#39),#262,.F.);
#273=ADVANCED_FACE('',(#40),#27,.T.);
#274=ADVANCED_FACE('',(#41),#263,.F.);
#275=ADVANCED_FACE('',(#42),#28,.T.);
#276=ADVANCED_FACE('',(#43),#264,.F.);
#277=ADVANCED_FACE('',(#44),#29,.T.);
#278=ADVANCED_FACE('',(#45),#265,.F.);
#279=ADVANCED_FACE('',(#46),#30,.T.);
#280=ADVANCED_FACE('',(#47),#266,.F.);
#281=ADVANCED_FACE('',(#48),#31,.T.);
#282=ADVANCED_FACE('',(#49),#267,.T.);
#283=ADVANCED_FACE('',(#50),#32,.T.);
#284=ADVANCED_FACE('',(#51),#268,.T.);
#285=ADVANCED_FACE('',(#52),#33,.T.);
#286=ADVANCED_FACE('',(#53),#269,.T.);
#287=ADVANCED_FACE('',(#54),#34,.T.);
#288=ADVANCED_FACE('',(#55),#35,.T.);
#289=ADVANCED_FACE('',(#56,#14,#15,#16,#17,#18,#19),#36,.T.);
#290=CLOSED_SHELL('',(#270,#271,#272,#273,#274,#275,#276,#277,#278,#279,
#280,#281,#282,#283,#284,#285,#286,#287,#288,#289));
#291=DERIVED_UNIT_ELEMENT(#294,1.);
#292=DERIVED_UNIT_ELEMENT(#549,-3.);
#293=DIMENSIONAL_EXPONENTS(0.,1.,0.,0.,0.,0.,0.);
#294=(
CONVERSION_BASED_UNIT('gram',#296)
MASS_UNIT()
NAMED_UNIT(#293)
);
#295=(
MASS_UNIT()
NAMED_UNIT(*)
SI_UNIT(.KILO.,.GRAM.)
);
#296=MASS_MEASURE_WITH_UNIT(MASS_MEASURE(0.001),#295);
#297=DERIVED_UNIT((#291,#292));
#298=MEASURE_REPRESENTATION_ITEM('density measure',
POSITIVE_RATIO_MEASURE(1.),#297);
#299=PROPERTY_DEFINITION_REPRESENTATION(#304,#301);
#300=PROPERTY_DEFINITION_REPRESENTATION(#305,#302);
#301=REPRESENTATION('material name',(#303),#546);
#302=REPRESENTATION('density',(#298),#546);
#303=DESCRIPTIVE_REPRESENTATION_ITEM('Generic','Generic');
#304=PROPERTY_DEFINITION('material property','material name',#556);
#305=PROPERTY_DEFINITION('material property','density of part',#556);
#306=DATE_TIME_ROLE('creation_date');
#307=APPLIED_DATE_AND_TIME_ASSIGNMENT(#308,#306,(#556));
#308=DATE_AND_TIME(#309,#310);
#309=CALENDAR_DATE(2026,5,5);
#310=LOCAL_TIME(0,0,0.,#311);
#311=COORDINATED_UNIVERSAL_TIME_OFFSET(0,0,.BEHIND.);
#312=AXIS2_PLACEMENT_3D('',#443,#351,#352);
#313=AXIS2_PLACEMENT_3D('',#444,#353,#354);
#314=AXIS2_PLACEMENT_3D('',#446,#355,#356);
#315=AXIS2_PLACEMENT_3D('',#449,#358,#359);
#316=AXIS2_PLACEMENT_3D('',#450,#360,#361);
#317=AXIS2_PLACEMENT_3D('',#451,#362,#363);
#318=AXIS2_PLACEMENT_3D('',#453,#364,#365);
#319=AXIS2_PLACEMENT_3D('',#456,#367,#368);
#320=AXIS2_PLACEMENT_3D('',#457,#369,#370);
#321=AXIS2_PLACEMENT_3D('',#458,#371,#372);
#322=AXIS2_PLACEMENT_3D('',#460,#373,#374);
#323=AXIS2_PLACEMENT_3D('',#463,#376,#377);
#324=AXIS2_PLACEMENT_3D('',#464,#378,#379);
#325=AXIS2_PLACEMENT_3D('',#465,#380,#381);
#326=AXIS2_PLACEMENT_3D('',#467,#382,#383);
#327=AXIS2_PLACEMENT_3D('',#470,#385,#386);
#328=AXIS2_PLACEMENT_3D('',#471,#387,#388);
#329=AXIS2_PLACEMENT_3D('',#472,#389,#390);
#330=AXIS2_PLACEMENT_3D('',#474,#391,#392);
#331=AXIS2_PLACEMENT_3D('',#477,#394,#395);
#332=AXIS2_PLACEMENT_3D('',#478,#396,#397);
#333=AXIS2_PLACEMENT_3D('',#479,#398,#399);
#334=AXIS2_PLACEMENT_3D('',#481,#400,#401);
#335=AXIS2_PLACEMENT_3D('',#484,#403,#404);
#336=AXIS2_PLACEMENT_3D('',#485,#405,#406);
#337=AXIS2_PLACEMENT_3D('',#486,#407,#408);
#338=AXIS2_PLACEMENT_3D('',#489,#409,#410);
#339=AXIS2_PLACEMENT_3D('',#493,#412,#413);
#340=AXIS2_PLACEMENT_3D('',#509,#415,#416);
#341=AXIS2_PLACEMENT_3D('',#513,#418,#419);
#342=AXIS2_PLACEMENT_3D('',#515,#421,#422);
#343=AXIS2_PLACEMENT_3D('',#516,#423,#424);
#344=AXIS2_PLACEMENT_3D('',#527,#426,#427);
#345=AXIS2_PLACEMENT_3D('',#534,#428,#429);
#346=AXIS2_PLACEMENT_3D('',#535,#430,#431);
#347=AXIS2_PLACEMENT_3D('',#537,#432,#433);
#348=AXIS2_PLACEMENT_3D('',#540,#436,#437);
#349=AXIS2_PLACEMENT_3D('',#541,#438,#439);
#350=AXIS2_PLACEMENT_3D('',#543,#441,#442);
#351=DIRECTION('axis',(0.,0.,1.));
#352=DIRECTION('refdir',(1.,0.,0.));
#353=DIRECTION('center_axis',(0.,0.,-1.));
#354=DIRECTION('ref_axis',(1.,0.,0.));
#355=DIRECTION('center_axis',(0.,0.,-1.));
#356=DIRECTION('ref_axis',(1.,0.,0.));
#357=DIRECTION('',(0.,0.,-1.));
#358=DIRECTION('center_axis',(0.,0.,-1.));
#359=DIRECTION('ref_axis',(1.,0.,0.));
#360=DIRECTION('center_axis',(0.,0.,1.));
#361=DIRECTION('ref_axis',(1.,0.,0.));
#362=DIRECTION('center_axis',(0.,0.,-1.));
#363=DIRECTION('ref_axis',(1.,0.,0.));
#364=DIRECTION('center_axis',(0.,0.,-1.));
#365=DIRECTION('ref_axis',(1.,0.,0.));
#366=DIRECTION('',(0.,0.,-1.));
#367=DIRECTION('center_axis',(0.,0.,-1.));
#368=DIRECTION('ref_axis',(1.,0.,0.));
#369=DIRECTION('center_axis',(0.,0.,1.));
#370=DIRECTION('ref_axis',(1.,0.,0.));
#371=DIRECTION('center_axis',(0.,0.,-1.));
#372=DIRECTION('ref_axis',(1.,0.,0.));
#373=DIRECTION('center_axis',(0.,0.,-1.));
#374=DIRECTION('ref_axis',(1.,0.,0.));
#375=DIRECTION('',(0.,0.,-1.));
#376=DIRECTION('center_axis',(0.,0.,-1.));
#377=DIRECTION('ref_axis',(1.,0.,0.));
#378=DIRECTION('center_axis',(0.,0.,1.));
#379=DIRECTION('ref_axis',(1.,0.,0.));
#380=DIRECTION('center_axis',(0.,0.,-1.));
#381=DIRECTION('ref_axis',(1.,0.,0.));
#382=DIRECTION('center_axis',(0.,0.,-1.));
#383=DIRECTION('ref_axis',(1.,0.,0.));
#384=DIRECTION('',(0.,0.,-1.));
#385=DIRECTION('center_axis',(0.,0.,-1.));
#386=DIRECTION('ref_axis',(1.,0.,0.));
#387=DIRECTION('center_axis',(0.,0.,1.));
#388=DIRECTION('ref_axis',(1.,0.,0.));
#389=DIRECTION('center_axis',(0.,0.,-1.));
#390=DIRECTION('ref_axis',(1.,0.,0.));
#391=DIRECTION('center_axis',(0.,0.,-1.));
#392=DIRECTION('ref_axis',(1.,0.,0.));
#393=DIRECTION('',(0.,0.,-1.));
#394=DIRECTION('center_axis',(0.,0.,-1.));
#395=DIRECTION('ref_axis',(1.,0.,0.));
#396=DIRECTION('center_axis',(0.,0.,1.));
#397=DIRECTION('ref_axis',(1.,0.,0.));
#398=DIRECTION('center_axis',(0.,0.,-1.));
#399=DIRECTION('ref_axis',(1.,0.,0.));
#400=DIRECTION('center_axis',(0.,0.,-1.));
#401=DIRECTION('ref_axis',(1.,0.,0.));
#402=DIRECTION('',(0.,0.,-1.));
#403=DIRECTION('center_axis',(0.,0.,-1.));
#404=DIRECTION('ref_axis',(1.,0.,0.));
#405=DIRECTION('center_axis',(0.,0.,1.));
#406=DIRECTION('ref_axis',(1.,0.,0.));
#407=DIRECTION('center_axis',(-7.105427357601E-16,1.,0.));
#408=DIRECTION('ref_axis',(0.707106781186548,1.04672830578918E-15,0.707106781186547));
#409=DIRECTION('center_axis',(1.1686558153949E-16,-1.,0.));
#410=DIRECTION('ref_axis',(0.707106781186548,1.04672830578918E-15,0.707106781186547));
#411=DIRECTION('',(7.105427357601E-16,-1.,0.));
#412=DIRECTION('center_axis',(4.32489531371169E-33,1.,0.));
#413=DIRECTION('ref_axis',(0.707106781186548,1.04672830578918E-15,0.707106781186547));
#414=DIRECTION('',(-7.105427357601E-16,1.,0.));
#415=DIRECTION('center_axis',(-1.1686558153949E-16,1.,0.));
#416=DIRECTION('ref_axis',(-1.,-1.1686558153949E-16,0.));
#417=DIRECTION('',(-1.,-1.1686558153949E-16,0.));
#418=DIRECTION('center_axis',(1.1686558153949E-16,-1.,0.));
#419=DIRECTION('ref_axis',(-0.707106781186548,0.,0.707106781186547));
#420=DIRECTION('',(-1.,-1.1686558153949E-16,0.));
#421=DIRECTION('center_axis',(1.,1.1686558153949E-16,0.));
#422=DIRECTION('ref_axis',(0.,0.707106781186547,-0.707106781186547));
#423=DIRECTION('center_axis',(-1.,-7.105427357601E-16,0.));
#424=DIRECTION('ref_axis',(0.,-0.707106781186547,-0.707106781186547));
#425=DIRECTION('',(1.,-4.32489531371169E-33,0.));
#426=DIRECTION('center_axis',(1.,3.06161699786838E-16,0.));
#427=DIRECTION('ref_axis',(0.,0.707106781186547,-0.707106781186547));
#428=DIRECTION('center_axis',(1.,7.105427357601E-16,0.));
#429=DIRECTION('ref_axis',(7.105427357601E-16,-1.,0.));
#430=DIRECTION('center_axis',(3.06161699786838E-16,-1.,0.));
#431=DIRECTION('ref_axis',(-0.707106781186548,0.,0.707106781186547));
#432=DIRECTION('center_axis',(4.32489531371169E-33,1.,0.));
#433=DIRECTION('ref_axis',(-0.707106781186548,0.,0.707106781186547));
#434=DIRECTION('',(-3.06161699786838E-16,1.,0.));
#435=DIRECTION('',(3.06161699786838E-16,-1.,0.));
#436=DIRECTION('center_axis',(-1.,-3.06161699786838E-16,0.));
#437=DIRECTION('ref_axis',(-3.06161699786838E-16,1.,0.));
#438=DIRECTION('center_axis',(-4.32489531371169E-33,-1.,0.));
#439=DIRECTION('ref_axis',(1.,-4.32489531371169E-33,0.));
#440=DIRECTION('',(1.,-4.32489531371169E-33,0.));
#441=DIRECTION('center_axis',(0.,0.,1.));
#442=DIRECTION('ref_axis',(1.,0.,0.));
#443=CARTESIAN_POINT('',(0.,0.,0.));
#444=CARTESIAN_POINT('Origin',(40.8800000000002,12.4999999999999,1.));
#445=CARTESIAN_POINT('',(38.7300000000002,12.4999999999999,1.));
#446=CARTESIAN_POINT('Origin',(40.8800000000002,12.4999999999999,1.));
#447=CARTESIAN_POINT('',(38.7300000000002,12.4999999999999,-5.));
#448=CARTESIAN_POINT('',(38.7300000000002,12.4999999999999,1.));
#449=CARTESIAN_POINT('Origin',(40.8800000000002,12.4999999999999,-5.));
#450=CARTESIAN_POINT('Origin',(40.8800000000002,12.4999999999999,-5.));
#451=CARTESIAN_POINT('Origin',(101.38,6.00000000000001,1.));
#452=CARTESIAN_POINT('',(99.23,6.00000000000001,1.));
#453=CARTESIAN_POINT('Origin',(101.38,6.00000000000001,1.));
#454=CARTESIAN_POINT('',(99.23,6.00000000000001,-5.));
#455=CARTESIAN_POINT('',(99.23,6.00000000000001,1.));
#456=CARTESIAN_POINT('Origin',(101.38,6.00000000000001,-5.));
#457=CARTESIAN_POINT('Origin',(101.38,6.00000000000001,-5.));
#458=CARTESIAN_POINT('Origin',(12.3800000000003,5.9999999999998,1.));
#459=CARTESIAN_POINT('',(10.2300000000003,5.9999999999998,1.));
#460=CARTESIAN_POINT('Origin',(12.3800000000003,5.9999999999998,1.));
#461=CARTESIAN_POINT('',(10.2300000000003,5.9999999999998,-5.));
#462=CARTESIAN_POINT('',(10.2300000000003,5.9999999999998,1.));
#463=CARTESIAN_POINT('Origin',(12.3800000000003,5.9999999999998,-5.));
#464=CARTESIAN_POINT('Origin',(12.3800000000003,5.9999999999998,-5.));
#465=CARTESIAN_POINT('Origin',(72.8800000000001,12.5,1.));
#466=CARTESIAN_POINT('',(70.7300000000001,12.5,1.));
#467=CARTESIAN_POINT('Origin',(72.8800000000001,12.5,1.));
#468=CARTESIAN_POINT('',(70.7300000000001,12.5,-5.));
#469=CARTESIAN_POINT('',(70.7300000000001,12.5,1.));
#470=CARTESIAN_POINT('Origin',(72.8800000000001,12.5,-5.));
#471=CARTESIAN_POINT('Origin',(72.8800000000001,12.5,-5.));
#472=CARTESIAN_POINT('Origin',(101.38,19.0000000000001,1.));
#473=CARTESIAN_POINT('',(99.23,19.0000000000001,1.));
#474=CARTESIAN_POINT('Origin',(101.38,19.0000000000001,1.));
#475=CARTESIAN_POINT('',(99.23,19.0000000000001,-5.));
#476=CARTESIAN_POINT('',(99.23,19.0000000000001,1.));
#477=CARTESIAN_POINT('Origin',(101.38,19.0000000000001,-5.));
#478=CARTESIAN_POINT('Origin',(101.38,19.0000000000001,-5.));
#479=CARTESIAN_POINT('Origin',(12.3800000000003,18.9999999999998,1.));
#480=CARTESIAN_POINT('',(10.2300000000003,18.9999999999998,1.));
#481=CARTESIAN_POINT('Origin',(12.3800000000003,18.9999999999998,1.));
#482=CARTESIAN_POINT('',(10.2300000000003,18.9999999999998,-5.));
#483=CARTESIAN_POINT('',(10.2300000000003,18.9999999999998,1.));
#484=CARTESIAN_POINT('Origin',(12.3800000000003,18.9999999999998,-5.));
#485=CARTESIAN_POINT('Origin',(12.3800000000003,18.9999999999998,-5.));
#486=CARTESIAN_POINT('Origin',(111.,18.75,-2.));
#487=CARTESIAN_POINT('',(113.2360679775,25.,0.));
#488=CARTESIAN_POINT('',(111.,25.,1.));
#489=CARTESIAN_POINT('Origin',(111.,25.,-2.));
#490=CARTESIAN_POINT('',(111.,-4.80063379821997E-31,1.));
#491=CARTESIAN_POINT('',(111.,18.75,1.));
#492=CARTESIAN_POINT('',(113.2360679775,0.,0.));
#493=CARTESIAN_POINT('Origin',(111.,7.99360577730113E-14,-2.));
#494=CARTESIAN_POINT('',(114.,0.161037320746935,-2.));
#495=CARTESIAN_POINT('Ctrl Pts',(113.2360679775,1.42269009073548E-14,-1.87350135405495E-15));
#496=CARTESIAN_POINT('Ctrl Pts',(113.455671806856,1.42617251478019E-14,
-0.245524545279761));
#497=CARTESIAN_POINT('Ctrl Pts',(113.643196132159,0.00764126054394818,-0.540221941323516));
#498=CARTESIAN_POINT('Ctrl Pts',(113.926055396122,0.0548201685300017,-1.22668718103771));
#499=CARTESIAN_POINT('Ctrl Pts',(114.,0.100603251761468,-1.62715313911637));
#500=CARTESIAN_POINT('Ctrl Pts',(114.,0.161037320746949,-2.));
#501=CARTESIAN_POINT('',(114.,24.8389626792531,-2.));
#502=CARTESIAN_POINT('',(114.,18.75,-2.));
#503=CARTESIAN_POINT('Ctrl Pts',(114.,24.8389626792531,-2.));
#504=CARTESIAN_POINT('Ctrl Pts',(114.,24.8993967482386,-1.62715313911637));
#505=CARTESIAN_POINT('Ctrl Pts',(113.926055396122,24.94517983147,-1.22668718103771));
#506=CARTESIAN_POINT('Ctrl Pts',(113.643196132159,24.9923587394561,-0.54022194132351));
#507=CARTESIAN_POINT('Ctrl Pts',(113.455671806856,25.,-0.245524545279773));
#508=CARTESIAN_POINT('Ctrl Pts',(113.2360679775,25.,5.55111512312578E-15));
#509=CARTESIAN_POINT('Origin',(114.,25.,0.));
#510=CARTESIAN_POINT('',(0.763932022500206,25.,0.));
#511=CARTESIAN_POINT('',(114.,25.,0.));
#512=CARTESIAN_POINT('',(3.00000000000001,25.,1.));
#513=CARTESIAN_POINT('Origin',(3.,25.,-2.));
#514=CARTESIAN_POINT('',(114.,25.,1.));
#515=CARTESIAN_POINT('Origin',(28.5,12.5,0.));
#516=CARTESIAN_POINT('Origin',(114.,12.5,0.));
#517=CARTESIAN_POINT('',(0.763932022500214,0.,0.));
#518=CARTESIAN_POINT('',(0.,0.,0.));
#519=CARTESIAN_POINT('',(3.77771778748648E-15,0.161037320746935,-2.));
#520=CARTESIAN_POINT('Ctrl Pts',(3.72965547335014E-15,0.161037320746937,
-2.));
#521=CARTESIAN_POINT('Ctrl Pts',(3.78207367245909E-15,0.100603251761456,
-1.62715313911637));
#522=CARTESIAN_POINT('Ctrl Pts',(0.0739446038780245,0.0548201685299928,
-1.22668718103771));
#523=CARTESIAN_POINT('Ctrl Pts',(0.356803867840547,0.00764126054393947,
-0.540221941323516));
#524=CARTESIAN_POINT('Ctrl Pts',(0.544328193144097,3.91537961788565E-15,
-0.245524545279772));
#525=CARTESIAN_POINT('Ctrl Pts',(0.763932022500214,3.87493856446319E-15,
-3.46944695195361E-16));
#526=CARTESIAN_POINT('',(-3.77771778748648E-15,24.8389626792531,-2.));
#527=CARTESIAN_POINT('Origin',(0.,12.5,0.));
#528=CARTESIAN_POINT('Ctrl Pts',(0.763932022500207,25.,-5.55111512312578E-16));
#529=CARTESIAN_POINT('Ctrl Pts',(0.54432819314409,25.,-0.245524545279772));
#530=CARTESIAN_POINT('Ctrl Pts',(0.356803867840539,24.9923587394561,-0.540221941323517));
#531=CARTESIAN_POINT('Ctrl Pts',(0.0739446038780171,24.94517983147,-1.22668718103771));
#532=CARTESIAN_POINT('Ctrl Pts',(-3.63953084608441E-15,24.8993967482386,
-1.62715313911637));
#533=CARTESIAN_POINT('Ctrl Pts',(-4.11129463806503E-15,24.8389626792531,
-2.));
#534=CARTESIAN_POINT('Origin',(114.,25.,0.));
#535=CARTESIAN_POINT('Origin',(3.,6.25,-2.));
#536=CARTESIAN_POINT('',(3.,-1.29746859411351E-32,1.));
#537=CARTESIAN_POINT('Origin',(3.,1.11022302462516E-15,-2.));
#538=CARTESIAN_POINT('',(3.,6.25,1.));
#539=CARTESIAN_POINT('',(-1.66533453693773E-15,6.24999999999999,-2.));
#540=CARTESIAN_POINT('Origin',(0.,0.,0.));
#541=CARTESIAN_POINT('Origin',(0.,0.,0.));
#542=CARTESIAN_POINT('',(0.,0.,1.));
#543=CARTESIAN_POINT('Origin',(57.,12.5,1.));
#544=UNCERTAINTY_MEASURE_WITH_UNIT(LENGTH_MEASURE(0.01),#548,
'DISTANCE_ACCURACY_VALUE',
'Maximum model space distance between geometric entities at asserted c
onnectivities');
#545=UNCERTAINTY_MEASURE_WITH_UNIT(LENGTH_MEASURE(0.01),#548,
'DISTANCE_ACCURACY_VALUE',
'Maximum model space distance between geometric entities at asserted c
onnectivities');
#546=(
GEOMETRIC_REPRESENTATION_CONTEXT(3)
GLOBAL_UNCERTAINTY_ASSIGNED_CONTEXT((#544))
GLOBAL_UNIT_ASSIGNED_CONTEXT((#548,#550,#551))
REPRESENTATION_CONTEXT('','3D')
);
#547=(
GEOMETRIC_REPRESENTATION_CONTEXT(3)
GLOBAL_UNCERTAINTY_ASSIGNED_CONTEXT((#545))
GLOBAL_UNIT_ASSIGNED_CONTEXT((#548,#550,#551))
REPRESENTATION_CONTEXT('','3D')
);
#548=(
LENGTH_UNIT()
NAMED_UNIT(*)
SI_UNIT(.MILLI.,.METRE.)
);
#549=(
LENGTH_UNIT()
NAMED_UNIT(*)
SI_UNIT(.CENTI.,.METRE.)
);
#550=(
NAMED_UNIT(*)
PLANE_ANGLE_UNIT()
SI_UNIT($,.RADIAN.)
);
#551=(
NAMED_UNIT(*)
SI_UNIT($,.STERADIAN.)
SOLID_ANGLE_UNIT()
);
#552=SHAPE_DEFINITION_REPRESENTATION(#553,#554);
#553=PRODUCT_DEFINITION_SHAPE('',$,#556);
#554=SHAPE_REPRESENTATION('',(#312),#546);
#555=PRODUCT_DEFINITION_CONTEXT('part definition',#560,'design');
#556=PRODUCT_DEFINITION('handle_insert','handle_insert',#557,#555);
#557=PRODUCT_DEFINITION_FORMATION('',$,#562);
#558=PRODUCT_RELATED_PRODUCT_CATEGORY('handle_insert','handle_insert',(#562));
#559=APPLICATION_PROTOCOL_DEFINITION('international standard',
'automotive_design',2009,#560);
#560=APPLICATION_CONTEXT(
'Core Data for Automotive Mechanical Design Process');
#561=PRODUCT_CONTEXT('part definition',#560,'mechanical');
#562=PRODUCT('handle_insert','handle_insert',$,(#561));
#563=PRESENTATION_STYLE_ASSIGNMENT((#565));
#564=PRESENTATION_STYLE_ASSIGNMENT((#566));
#565=SURFACE_STYLE_USAGE(.BOTH.,#571);
#566=SURFACE_STYLE_USAGE(.BOTH.,#572);
#567=SURFACE_STYLE_RENDERING_WITH_PROPERTIES($,#579,(#569));
#568=SURFACE_STYLE_RENDERING_WITH_PROPERTIES($,#580,(#570));
#569=SURFACE_STYLE_TRANSPARENT(0.);
#570=SURFACE_STYLE_TRANSPARENT(0.);
#571=SURFACE_SIDE_STYLE('',(#573,#567));
#572=SURFACE_SIDE_STYLE('',(#574,#568));
#573=SURFACE_STYLE_FILL_AREA(#575);
#574=SURFACE_STYLE_FILL_AREA(#576);
#575=FILL_AREA_STYLE('',(#577));
#576=FILL_AREA_STYLE('',(#578));
#577=FILL_AREA_STYLE_COLOUR('',#579);
#578=FILL_AREA_STYLE_COLOUR('',#580);
#579=COLOUR_RGB('',0.180392156862745,0.180392156862745,0.180392156862745);
#580=COLOUR_RGB('',0.92156862745098,0.92156862745098,0.92156862745098);
ENDSEC;
END-ISO-10303-21;
