ISO-10303-21;
HEADER;
/* Generated by software containing ST-Developer
 * from STEP Tools, Inc. (www.steptools.com) 
 */

FILE_DESCRIPTION(
/* description */ (''),
/* implementation_level */ '2;1');

FILE_NAME(
/* name */ 'rotor_hub_glue_alignment.stp',
/* time_stamp */ '2026-05-14T18:51:28-07:00',
/* author */ ('aaron'),
/* organization */ (''),
/* preprocessor_version */ 'ST-DEVELOPER v20.1',
/* originating_system */ 'Autodesk Inventor 2026',
/* authorisation */ '');

FILE_SCHEMA (('AUTOMOTIVE_DESIGN { 1 0 10303 214 3 1 1 }'));
ENDSEC;

DATA;
#10=MECHANICAL_DESIGN_GEOMETRIC_PRESENTATION_REPRESENTATION('',(#13),#1736);
#11=SHAPE_REPRESENTATION_RELATIONSHIP('SRR','None',#1743,#12);
#12=ADVANCED_BREP_SHAPE_REPRESENTATION('',(#14),#1735);
#13=STYLED_ITEM('',(#1752),#14);
#14=MANIFOLD_SOLID_BREP('Solid1',#986);
#15=CONICAL_SURFACE('',#1059,41.6,0.785398163397452);
#16=CONICAL_SURFACE('',#1064,36.5,0.785398163397449);
#17=CONICAL_SURFACE('',#1069,10.5,0.78539816339745);
#18=CONICAL_SURFACE('',#1072,41.6,0.785398163397452);
#19=CONICAL_SURFACE('',#1075,10.5,0.785398163397451);
#20=CONICAL_SURFACE('',#1091,29.,0.785398163397448);
#21=CONICAL_SURFACE('',#1098,7.05,0.785398163397448);
#22=B_SPLINE_CURVE_WITH_KNOTS('',3,(#1527,#1528,#1529,#1530,#1531,#1532,
#1533,#1534,#1535,#1536,#1537,#1538,#1539,#1540,#1541,#1542,#1543,#1544,
#1545,#1546,#1547,#1548,#1549,#1550,#1551,#1552,#1553,#1554,#1555,#1556,
#1557,#1558,#1559,#1560),.UNSPECIFIED.,.T.,.F.,(4,2,2,2,2,2,2,2,2,2,2,2,
2,2,2,2,4),(0.,0.107390981946092,0.214781963892185,0.322172869459795,0.429563775027405,
0.536954680595015,0.644345586162625,0.751736568108718,0.85912755005481,
0.966518532000903,1.073909513947,1.18130041951461,1.28869132508222,1.39608223064983,
1.50347313621744,1.61086411816353,1.71825510010962),.UNSPECIFIED.);
#23=B_SPLINE_CURVE_WITH_KNOTS('',3,(#1586,#1587,#1588,#1589),
 .UNSPECIFIED.,.F.,.F.,(4,4),(0.,0.148704942182811),.UNSPECIFIED.);
#24=B_SPLINE_CURVE_WITH_KNOTS('',3,(#1599,#1600,#1601,#1602),
 .UNSPECIFIED.,.F.,.F.,(4,4),(-0.17399619451126,0.),.UNSPECIFIED.);
#25=B_SPLINE_CURVE_WITH_KNOTS('',3,(#1607,#1608,#1609,#1610),
 .UNSPECIFIED.,.F.,.F.,(4,4),(-0.173996194511478,0.),.UNSPECIFIED.);
#26=B_SPLINE_CURVE_WITH_KNOTS('',3,(#1622,#1623,#1624,#1625),
 .UNSPECIFIED.,.F.,.F.,(4,4),(0.,0.148704942182141),.UNSPECIFIED.);
#27=FACE_BOUND('',#145,.T.);
#28=FACE_BOUND('',#172,.T.);
#29=FACE_BOUND('',#178,.T.);
#30=FACE_BOUND('',#179,.T.);
#31=FACE_BOUND('',#180,.T.);
#32=FACE_BOUND('',#181,.T.);
#33=FACE_BOUND('',#182,.T.);
#34=FACE_BOUND('',#183,.T.);
#35=FACE_BOUND('',#184,.T.);
#36=FACE_BOUND('',#188,.T.);
#37=FACE_BOUND('',#189,.T.);
#38=FACE_BOUND('',#190,.T.);
#39=FACE_BOUND('',#191,.T.);
#40=FACE_BOUND('',#192,.T.);
#41=FACE_BOUND('',#193,.T.);
#42=FACE_BOUND('',#194,.T.);
#43=FACE_BOUND('',#205,.T.);
#44=ELLIPSE('',#1028,52.3259018078045,37.);
#45=ELLIPSE('',#1029,59.5383909759073,42.1);
#46=ELLIPSE('',#1041,52.3259018078045,37.);
#47=ELLIPSE('',#1042,59.5383909759073,42.1);
#48=ELLIPSE('',#1049,52.3259018078045,37.);
#49=ELLIPSE('',#1051,52.3259018078045,37.);
#50=ELLIPSE('',#1055,59.5383909759073,42.1);
#51=ELLIPSE('',#1057,59.5383909759073,42.1);
#52=PLANE('',#1027);
#53=PLANE('',#1030);
#54=PLANE('',#1040);
#55=PLANE('',#1043);
#56=PLANE('',#1044);
#57=PLANE('',#1045);
#58=PLANE('',#1054);
#59=PLANE('',#1056);
#60=PLANE('',#1058);
#61=PLANE('',#1062);
#62=PLANE('',#1063);
#63=PLANE('',#1066);
#64=PLANE('',#1067);
#65=PLANE('',#1068);
#66=PLANE('',#1078);
#67=PLANE('',#1079);
#68=PLANE('',#1080);
#69=PLANE('',#1081);
#70=PLANE('',#1082);
#71=PLANE('',#1083);
#72=PLANE('',#1084);
#73=PLANE('',#1085);
#74=PLANE('',#1089);
#75=PLANE('',#1095);
#76=PLANE('',#1097);
#77=PLANE('',#1103);
#78=PLANE('',#1104);
#79=PLANE('',#1105);
#80=PLANE('',#1107);
#81=PLANE('',#1108);
#82=PLANE('',#1113);
#83=FACE_OUTER_BOUND('',#137,.T.);
#84=FACE_OUTER_BOUND('',#138,.T.);
#85=FACE_OUTER_BOUND('',#139,.T.);
#86=FACE_OUTER_BOUND('',#140,.T.);
#87=FACE_OUTER_BOUND('',#141,.T.);
#88=FACE_OUTER_BOUND('',#142,.T.);
#89=FACE_OUTER_BOUND('',#143,.T.);
#90=FACE_OUTER_BOUND('',#144,.T.);
#91=FACE_OUTER_BOUND('',#146,.T.);
#92=FACE_OUTER_BOUND('',#147,.T.);
#93=FACE_OUTER_BOUND('',#148,.T.);
#94=FACE_OUTER_BOUND('',#149,.T.);
#95=FACE_OUTER_BOUND('',#150,.T.);
#96=FACE_OUTER_BOUND('',#151,.T.);
#97=FACE_OUTER_BOUND('',#152,.T.);
#98=FACE_OUTER_BOUND('',#153,.T.);
#99=FACE_OUTER_BOUND('',#154,.T.);
#100=FACE_OUTER_BOUND('',#155,.T.);
#101=FACE_OUTER_BOUND('',#156,.T.);
#102=FACE_OUTER_BOUND('',#157,.T.);
#103=FACE_OUTER_BOUND('',#158,.T.);
#104=FACE_OUTER_BOUND('',#159,.T.);
#105=FACE_OUTER_BOUND('',#160,.T.);
#106=FACE_OUTER_BOUND('',#161,.T.);
#107=FACE_OUTER_BOUND('',#162,.T.);
#108=FACE_OUTER_BOUND('',#163,.T.);
#109=FACE_OUTER_BOUND('',#164,.T.);
#110=FACE_OUTER_BOUND('',#165,.T.);
#111=FACE_OUTER_BOUND('',#166,.T.);
#112=FACE_OUTER_BOUND('',#167,.T.);
#113=FACE_OUTER_BOUND('',#168,.T.);
#114=FACE_OUTER_BOUND('',#169,.T.);
#115=FACE_OUTER_BOUND('',#170,.T.);
#116=FACE_OUTER_BOUND('',#171,.T.);
#117=FACE_OUTER_BOUND('',#173,.T.);
#118=FACE_OUTER_BOUND('',#174,.T.);
#119=FACE_OUTER_BOUND('',#175,.T.);
#120=FACE_OUTER_BOUND('',#176,.T.);
#121=FACE_OUTER_BOUND('',#177,.T.);
#122=FACE_OUTER_BOUND('',#185,.T.);
#123=FACE_OUTER_BOUND('',#186,.T.);
#124=FACE_OUTER_BOUND('',#187,.T.);
#125=FACE_OUTER_BOUND('',#195,.T.);
#126=FACE_OUTER_BOUND('',#196,.T.);
#127=FACE_OUTER_BOUND('',#197,.T.);
#128=FACE_OUTER_BOUND('',#198,.T.);
#129=FACE_OUTER_BOUND('',#199,.T.);
#130=FACE_OUTER_BOUND('',#200,.T.);
#131=FACE_OUTER_BOUND('',#201,.T.);
#132=FACE_OUTER_BOUND('',#202,.T.);
#133=FACE_OUTER_BOUND('',#203,.T.);
#134=FACE_OUTER_BOUND('',#204,.T.);
#135=FACE_OUTER_BOUND('',#206,.T.);
#136=FACE_OUTER_BOUND('',#207,.T.);
#137=EDGE_LOOP('',(#640,#641,#642,#643));
#138=EDGE_LOOP('',(#644,#645,#646,#647));
#139=EDGE_LOOP('',(#648,#649,#650,#651));
#140=EDGE_LOOP('',(#652,#653,#654,#655));
#141=EDGE_LOOP('',(#656,#657,#658,#659));
#142=EDGE_LOOP('',(#660,#661,#662,#663));
#143=EDGE_LOOP('',(#664,#665,#666,#667));
#144=EDGE_LOOP('',(#668,#669,#670,#671,#672,#673,#674,#675,#676,#677,#678,
#679,#680,#681,#682,#683));
#145=EDGE_LOOP('',(#684));
#146=EDGE_LOOP('',(#685,#686,#687,#688));
#147=EDGE_LOOP('',(#689,#690,#691,#692));
#148=EDGE_LOOP('',(#693,#694,#695,#696));
#149=EDGE_LOOP('',(#697,#698,#699,#700));
#150=EDGE_LOOP('',(#701,#702,#703,#704));
#151=EDGE_LOOP('',(#705,#706,#707,#708,#709,#710,#711,#712));
#152=EDGE_LOOP('',(#713,#714,#715,#716));
#153=EDGE_LOOP('',(#717,#718,#719,#720));
#154=EDGE_LOOP('',(#721,#722,#723,#724));
#155=EDGE_LOOP('',(#725,#726,#727,#728));
#156=EDGE_LOOP('',(#729,#730,#731,#732));
#157=EDGE_LOOP('',(#733,#734,#735,#736));
#158=EDGE_LOOP('',(#737,#738,#739,#740));
#159=EDGE_LOOP('',(#741,#742,#743,#744));
#160=EDGE_LOOP('',(#745,#746,#747,#748));
#161=EDGE_LOOP('',(#749,#750,#751,#752));
#162=EDGE_LOOP('',(#753,#754,#755,#756));
#163=EDGE_LOOP('',(#757,#758,#759,#760));
#164=EDGE_LOOP('',(#761,#762,#763,#764));
#165=EDGE_LOOP('',(#765,#766,#767,#768));
#166=EDGE_LOOP('',(#769,#770,#771,#772));
#167=EDGE_LOOP('',(#773,#774,#775,#776));
#168=EDGE_LOOP('',(#777,#778,#779,#780));
#169=EDGE_LOOP('',(#781,#782,#783,#784));
#170=EDGE_LOOP('',(#785,#786,#787,#788));
#171=EDGE_LOOP('',(#789,#790,#791,#792));
#172=EDGE_LOOP('',(#793));
#173=EDGE_LOOP('',(#794,#795,#796,#797));
#174=EDGE_LOOP('',(#798,#799,#800,#801));
#175=EDGE_LOOP('',(#802,#803,#804,#805,#806,#807));
#176=EDGE_LOOP('',(#808,#809,#810,#811));
#177=EDGE_LOOP('',(#812,#813,#814,#815,#816,#817,#818,#819,#820,#821,#822,
#823,#824,#825));
#178=EDGE_LOOP('',(#826));
#179=EDGE_LOOP('',(#827));
#180=EDGE_LOOP('',(#828));
#181=EDGE_LOOP('',(#829));
#182=EDGE_LOOP('',(#830));
#183=EDGE_LOOP('',(#831));
#184=EDGE_LOOP('',(#832,#833,#834,#835));
#185=EDGE_LOOP('',(#836,#837,#838,#839));
#186=EDGE_LOOP('',(#840,#841,#842,#843));
#187=EDGE_LOOP('',(#844));
#188=EDGE_LOOP('',(#845));
#189=EDGE_LOOP('',(#846));
#190=EDGE_LOOP('',(#847));
#191=EDGE_LOOP('',(#848));
#192=EDGE_LOOP('',(#849));
#193=EDGE_LOOP('',(#850));
#194=EDGE_LOOP('',(#851));
#195=EDGE_LOOP('',(#852,#853,#854,#855));
#196=EDGE_LOOP('',(#856,#857,#858,#859,#860));
#197=EDGE_LOOP('',(#861,#862,#863,#864,#865));
#198=EDGE_LOOP('',(#866));
#199=EDGE_LOOP('',(#867,#868,#869,#870));
#200=EDGE_LOOP('',(#871,#872,#873,#874));
#201=EDGE_LOOP('',(#875,#876,#877,#878));
#202=EDGE_LOOP('',(#879,#880,#881,#882));
#203=EDGE_LOOP('',(#883,#884,#885,#886,#887,#888,#889,#890,#891,#892));
#204=EDGE_LOOP('',(#893,#894,#895,#896,#897,#898,#899,#900,#901,#902,#903,
#904));
#205=EDGE_LOOP('',(#905));
#206=EDGE_LOOP('',(#906,#907,#908,#909,#910,#911));
#207=EDGE_LOOP('',(#912,#913,#914,#915));
#208=LINE('',#1413,#290);
#209=LINE('',#1419,#291);
#210=LINE('',#1425,#292);
#211=LINE('',#1431,#293);
#212=LINE('',#1437,#294);
#213=LINE('',#1443,#295);
#214=LINE('',#1450,#296);
#215=LINE('',#1453,#297);
#216=LINE('',#1458,#298);
#217=LINE('',#1462,#299);
#218=LINE('',#1468,#300);
#219=LINE('',#1470,#301);
#220=LINE('',#1474,#302);
#221=LINE('',#1476,#303);
#222=LINE('',#1482,#304);
#223=LINE('',#1490,#305);
#224=LINE('',#1494,#306);
#225=LINE('',#1496,#307);
#226=LINE('',#1497,#308);
#227=LINE('',#1500,#309);
#228=LINE('',#1502,#310);
#229=LINE('',#1503,#311);
#230=LINE('',#1506,#312);
#231=LINE('',#1508,#313);
#232=LINE('',#1509,#314);
#233=LINE('',#1512,#315);
#234=LINE('',#1514,#316);
#235=LINE('',#1526,#317);
#236=LINE('',#1564,#318);
#237=LINE('',#1568,#319);
#238=LINE('',#1572,#320);
#239=LINE('',#1574,#321);
#240=LINE('',#1576,#322);
#241=LINE('',#1577,#323);
#242=LINE('',#1583,#324);
#243=LINE('',#1592,#325);
#244=LINE('',#1594,#326);
#245=LINE('',#1595,#327);
#246=LINE('',#1598,#328);
#247=LINE('',#1603,#329);
#248=LINE('',#1613,#330);
#249=LINE('',#1615,#331);
#250=LINE('',#1616,#332);
#251=LINE('',#1619,#333);
#252=LINE('',#1621,#334);
#253=LINE('',#1628,#335);
#254=LINE('',#1630,#336);
#255=LINE('',#1631,#337);
#256=LINE('',#1635,#338);
#257=LINE('',#1644,#339);
#258=LINE('',#1649,#340);
#259=LINE('',#1651,#341);
#260=LINE('',#1652,#342);
#261=LINE('',#1655,#343);
#262=LINE('',#1657,#344);
#263=LINE('',#1658,#345);
#264=LINE('',#1660,#346);
#265=LINE('',#1661,#347);
#266=LINE('',#1664,#348);
#267=LINE('',#1666,#349);
#268=LINE('',#1667,#350);
#269=LINE('',#1670,#351);
#270=LINE('',#1671,#352);
#271=LINE('',#1674,#353);
#272=LINE('',#1675,#354);
#273=LINE('',#1678,#355);
#274=LINE('',#1679,#356);
#275=LINE('',#1682,#357);
#276=LINE('',#1683,#358);
#277=LINE('',#1685,#359);
#278=LINE('',#1687,#360);
#279=LINE('',#1690,#361);
#280=LINE('',#1697,#362);
#281=LINE('',#1700,#363);
#282=LINE('',#1705,#364);
#283=LINE('',#1710,#365);
#284=LINE('',#1715,#366);
#285=LINE('',#1719,#367);
#286=LINE('',#1720,#368);
#287=LINE('',#1722,#369);
#288=LINE('',#1725,#370);
#289=LINE('',#1726,#371);
#290=VECTOR('',#1120,2.15);
#291=VECTOR('',#1127,2.15);
#292=VECTOR('',#1134,2.15);
#293=VECTOR('',#1141,2.15);
#294=VECTOR('',#1148,2.15);
#295=VECTOR('',#1155,2.15);
#296=VECTOR('',#1162,10.);
#297=VECTOR('',#1165,10.);
#298=VECTOR('',#1170,10.);
#299=VECTOR('',#1173,10.);
#300=VECTOR('',#1178,10.);
#301=VECTOR('',#1179,10.);
#302=VECTOR('',#1182,10.);
#303=VECTOR('',#1183,10.);
#304=VECTOR('',#1188,10.);
#305=VECTOR('',#1197,10.);
#306=VECTOR('',#1202,10.);
#307=VECTOR('',#1203,10.);
#308=VECTOR('',#1204,10.);
#309=VECTOR('',#1207,10.);
#310=VECTOR('',#1208,10.);
#311=VECTOR('',#1209,10.);
#312=VECTOR('',#1212,10.);
#313=VECTOR('',#1213,10.);
#314=VECTOR('',#1214,10.);
#315=VECTOR('',#1217,10.);
#316=VECTOR('',#1218,10.);
#317=VECTOR('',#1233,2.85);
#318=VECTOR('',#1238,10.);
#319=VECTOR('',#1243,10.);
#320=VECTOR('',#1246,10.);
#321=VECTOR('',#1247,10.);
#322=VECTOR('',#1248,10.);
#323=VECTOR('',#1249,10.);
#324=VECTOR('',#1254,10.);
#325=VECTOR('',#1259,10.);
#326=VECTOR('',#1260,10.);
#327=VECTOR('',#1261,10.);
#328=VECTOR('',#1264,10.);
#329=VECTOR('',#1265,10.);
#330=VECTOR('',#1272,10.);
#331=VECTOR('',#1273,10.);
#332=VECTOR('',#1274,10.);
#333=VECTOR('',#1277,10.);
#334=VECTOR('',#1278,10.);
#335=VECTOR('',#1281,10.);
#336=VECTOR('',#1282,10.);
#337=VECTOR('',#1283,10.);
#338=VECTOR('',#1286,10.);
#339=VECTOR('',#1299,10.);
#340=VECTOR('',#1306,10.);
#341=VECTOR('',#1307,10.);
#342=VECTOR('',#1308,10.);
#343=VECTOR('',#1311,10.);
#344=VECTOR('',#1312,10.);
#345=VECTOR('',#1313,10.);
#346=VECTOR('',#1316,10.);
#347=VECTOR('',#1317,10.);
#348=VECTOR('',#1320,10.);
#349=VECTOR('',#1321,10.);
#350=VECTOR('',#1322,10.);
#351=VECTOR('',#1325,10.);
#352=VECTOR('',#1326,10.);
#353=VECTOR('',#1329,10.);
#354=VECTOR('',#1330,10.);
#355=VECTOR('',#1333,10.);
#356=VECTOR('',#1334,10.);
#357=VECTOR('',#1337,10.);
#358=VECTOR('',#1338,10.);
#359=VECTOR('',#1341,10.);
#360=VECTOR('',#1342,10.);
#361=VECTOR('',#1347,10.);
#362=VECTOR('',#1356,29.);
#363=VECTOR('',#1361,31.);
#364=VECTOR('',#1368,10.);
#365=VECTOR('',#1373,7.05);
#366=VECTOR('',#1380,7.55);
#367=VECTOR('',#1387,10.);
#368=VECTOR('',#1388,10.);
#369=VECTOR('',#1391,10.);
#370=VECTOR('',#1394,10.);
#371=VECTOR('',#1395,10.);
#372=CIRCLE('',#1010,2.15);
#373=CIRCLE('',#1011,2.15);
#374=CIRCLE('',#1013,2.15);
#375=CIRCLE('',#1014,2.15);
#376=CIRCLE('',#1016,2.15);
#377=CIRCLE('',#1017,2.15);
#378=CIRCLE('',#1019,2.15);
#379=CIRCLE('',#1020,2.15);
#380=CIRCLE('',#1022,2.15);
#381=CIRCLE('',#1023,2.15);
#382=CIRCLE('',#1025,2.15);
#383=CIRCLE('',#1026,2.15);
#384=CIRCLE('',#1031,37.);
#385=CIRCLE('',#1032,42.1);
#386=CIRCLE('',#1033,10.);
#387=CIRCLE('',#1034,42.1);
#388=CIRCLE('',#1035,37.);
#389=CIRCLE('',#1036,42.1);
#390=CIRCLE('',#1037,10.);
#391=CIRCLE('',#1038,42.1);
#392=CIRCLE('',#1039,31.);
#393=CIRCLE('',#1047,37.);
#394=CIRCLE('',#1050,37.);
#395=CIRCLE('',#1053,2.85);
#396=CIRCLE('',#1060,42.1);
#397=CIRCLE('',#1061,41.1);
#398=CIRCLE('',#1065,36.);
#399=CIRCLE('',#1070,11.);
#400=CIRCLE('',#1071,10.);
#401=CIRCLE('',#1073,41.1);
#402=CIRCLE('',#1074,42.1);
#403=CIRCLE('',#1076,11.);
#404=CIRCLE('',#1077,10.);
#405=CIRCLE('',#1087,10.);
#406=CIRCLE('',#1090,42.1);
#407=CIRCLE('',#1092,27.);
#408=CIRCLE('',#1093,31.);
#409=CIRCLE('',#1096,7.55);
#410=CIRCLE('',#1099,6.55);
#411=CIRCLE('',#1100,7.55);
#412=CIRCLE('',#1101,7.55);
#413=CIRCLE('',#1109,42.1);
#414=CIRCLE('',#1110,10.);
#415=VERTEX_POINT('',#1410);
#416=VERTEX_POINT('',#1412);
#417=VERTEX_POINT('',#1416);
#418=VERTEX_POINT('',#1418);
#419=VERTEX_POINT('',#1422);
#420=VERTEX_POINT('',#1424);
#421=VERTEX_POINT('',#1428);
#422=VERTEX_POINT('',#1430);
#423=VERTEX_POINT('',#1434);
#424=VERTEX_POINT('',#1436);
#425=VERTEX_POINT('',#1440);
#426=VERTEX_POINT('',#1442);
#427=VERTEX_POINT('',#1446);
#428=VERTEX_POINT('',#1447);
#429=VERTEX_POINT('',#1449);
#430=VERTEX_POINT('',#1451);
#431=VERTEX_POINT('',#1455);
#432=VERTEX_POINT('',#1457);
#433=VERTEX_POINT('',#1459);
#434=VERTEX_POINT('',#1461);
#435=VERTEX_POINT('',#1463);
#436=VERTEX_POINT('',#1465);
#437=VERTEX_POINT('',#1467);
#438=VERTEX_POINT('',#1469);
#439=VERTEX_POINT('',#1471);
#440=VERTEX_POINT('',#1473);
#441=VERTEX_POINT('',#1475);
#442=VERTEX_POINT('',#1477);
#443=VERTEX_POINT('',#1479);
#444=VERTEX_POINT('',#1481);
#445=VERTEX_POINT('',#1484);
#446=VERTEX_POINT('',#1487);
#447=VERTEX_POINT('',#1489);
#448=VERTEX_POINT('',#1493);
#449=VERTEX_POINT('',#1495);
#450=VERTEX_POINT('',#1499);
#451=VERTEX_POINT('',#1501);
#452=VERTEX_POINT('',#1505);
#453=VERTEX_POINT('',#1507);
#454=VERTEX_POINT('',#1511);
#455=VERTEX_POINT('',#1513);
#456=VERTEX_POINT('',#1517);
#457=VERTEX_POINT('',#1519);
#458=VERTEX_POINT('',#1523);
#459=VERTEX_POINT('',#1525);
#460=VERTEX_POINT('',#1562);
#461=VERTEX_POINT('',#1566);
#462=VERTEX_POINT('',#1570);
#463=VERTEX_POINT('',#1571);
#464=VERTEX_POINT('',#1573);
#465=VERTEX_POINT('',#1575);
#466=VERTEX_POINT('',#1579);
#467=VERTEX_POINT('',#1580);
#468=VERTEX_POINT('',#1582);
#469=VERTEX_POINT('',#1584);
#470=VERTEX_POINT('',#1591);
#471=VERTEX_POINT('',#1593);
#472=VERTEX_POINT('',#1597);
#473=VERTEX_POINT('',#1605);
#474=VERTEX_POINT('',#1612);
#475=VERTEX_POINT('',#1614);
#476=VERTEX_POINT('',#1618);
#477=VERTEX_POINT('',#1620);
#478=VERTEX_POINT('',#1627);
#479=VERTEX_POINT('',#1629);
#480=VERTEX_POINT('',#1633);
#481=VERTEX_POINT('',#1634);
#482=VERTEX_POINT('',#1642);
#483=VERTEX_POINT('',#1643);
#484=VERTEX_POINT('',#1648);
#485=VERTEX_POINT('',#1650);
#486=VERTEX_POINT('',#1654);
#487=VERTEX_POINT('',#1656);
#488=VERTEX_POINT('',#1663);
#489=VERTEX_POINT('',#1665);
#490=VERTEX_POINT('',#1669);
#491=VERTEX_POINT('',#1673);
#492=VERTEX_POINT('',#1677);
#493=VERTEX_POINT('',#1681);
#494=VERTEX_POINT('',#1686);
#495=VERTEX_POINT('',#1694);
#496=VERTEX_POINT('',#1696);
#497=VERTEX_POINT('',#1702);
#498=VERTEX_POINT('',#1707);
#499=VERTEX_POINT('',#1709);
#500=VERTEX_POINT('',#1711);
#501=VERTEX_POINT('',#1724);
#502=EDGE_CURVE('',#415,#415,#372,.T.);
#503=EDGE_CURVE('',#415,#416,#208,.T.);
#504=EDGE_CURVE('',#416,#416,#373,.T.);
#505=EDGE_CURVE('',#417,#417,#374,.T.);
#506=EDGE_CURVE('',#417,#418,#209,.T.);
#507=EDGE_CURVE('',#418,#418,#375,.T.);
#508=EDGE_CURVE('',#419,#419,#376,.T.);
#509=EDGE_CURVE('',#419,#420,#210,.T.);
#510=EDGE_CURVE('',#420,#420,#377,.T.);
#511=EDGE_CURVE('',#421,#421,#378,.T.);
#512=EDGE_CURVE('',#421,#422,#211,.T.);
#513=EDGE_CURVE('',#422,#422,#379,.T.);
#514=EDGE_CURVE('',#423,#423,#380,.T.);
#515=EDGE_CURVE('',#423,#424,#212,.T.);
#516=EDGE_CURVE('',#424,#424,#381,.T.);
#517=EDGE_CURVE('',#425,#425,#382,.T.);
#518=EDGE_CURVE('',#425,#426,#213,.T.);
#519=EDGE_CURVE('',#426,#426,#383,.T.);
#520=EDGE_CURVE('',#427,#428,#44,.F.);
#521=EDGE_CURVE('',#428,#429,#214,.T.);
#522=EDGE_CURVE('',#429,#430,#45,.F.);
#523=EDGE_CURVE('',#430,#427,#215,.T.);
#524=EDGE_CURVE('',#428,#431,#384,.T.);
#525=EDGE_CURVE('',#432,#431,#216,.T.);
#526=EDGE_CURVE('',#433,#432,#385,.T.);
#527=EDGE_CURVE('',#434,#433,#217,.T.);
#528=EDGE_CURVE('',#435,#434,#386,.T.);
#529=EDGE_CURVE('',#436,#435,#387,.T.);
#530=EDGE_CURVE('',#437,#436,#218,.T.);
#531=EDGE_CURVE('',#438,#437,#219,.T.);
#532=EDGE_CURVE('',#438,#439,#388,.T.);
#533=EDGE_CURVE('',#440,#439,#220,.T.);
#534=EDGE_CURVE('',#441,#440,#221,.T.);
#535=EDGE_CURVE('',#442,#441,#389,.T.);
#536=EDGE_CURVE('',#443,#442,#390,.T.);
#537=EDGE_CURVE('',#444,#443,#222,.T.);
#538=EDGE_CURVE('',#429,#444,#391,.T.);
#539=EDGE_CURVE('',#445,#445,#392,.T.);
#540=EDGE_CURVE('',#431,#446,#46,.F.);
#541=EDGE_CURVE('',#446,#447,#223,.T.);
#542=EDGE_CURVE('',#447,#432,#47,.F.);
#543=EDGE_CURVE('',#448,#446,#224,.T.);
#544=EDGE_CURVE('',#448,#449,#225,.T.);
#545=EDGE_CURVE('',#447,#449,#226,.T.);
#546=EDGE_CURVE('',#450,#430,#227,.T.);
#547=EDGE_CURVE('',#450,#451,#228,.T.);
#548=EDGE_CURVE('',#427,#451,#229,.T.);
#549=EDGE_CURVE('',#443,#452,#230,.T.);
#550=EDGE_CURVE('',#452,#453,#231,.T.);
#551=EDGE_CURVE('',#453,#444,#232,.T.);
#552=EDGE_CURVE('',#439,#454,#233,.T.);
#553=EDGE_CURVE('',#438,#455,#234,.T.);
#554=EDGE_CURVE('',#454,#455,#393,.T.);
#555=EDGE_CURVE('',#456,#451,#48,.F.);
#556=EDGE_CURVE('',#457,#456,#394,.T.);
#557=EDGE_CURVE('',#448,#457,#49,.F.);
#558=EDGE_CURVE('',#458,#458,#395,.T.);
#559=EDGE_CURVE('',#458,#459,#235,.T.);
#560=EDGE_CURVE('',#459,#459,#22,.T.);
#561=EDGE_CURVE('',#460,#449,#50,.F.);
#562=EDGE_CURVE('',#457,#460,#236,.T.);
#563=EDGE_CURVE('',#450,#461,#51,.F.);
#564=EDGE_CURVE('',#461,#456,#237,.T.);
#565=EDGE_CURVE('',#462,#463,#238,.T.);
#566=EDGE_CURVE('',#463,#464,#239,.T.);
#567=EDGE_CURVE('',#464,#465,#240,.T.);
#568=EDGE_CURVE('',#462,#465,#241,.T.);
#569=EDGE_CURVE('',#466,#467,#396,.T.);
#570=EDGE_CURVE('',#467,#468,#242,.T.);
#571=EDGE_CURVE('',#468,#469,#397,.T.);
#572=EDGE_CURVE('',#469,#466,#23,.T.);
#573=EDGE_CURVE('',#469,#470,#243,.T.);
#574=EDGE_CURVE('',#470,#471,#244,.T.);
#575=EDGE_CURVE('',#471,#466,#245,.T.);
#576=EDGE_CURVE('',#470,#472,#246,.T.);
#577=EDGE_CURVE('',#472,#455,#24,.T.);
#578=EDGE_CURVE('',#455,#471,#247,.T.);
#579=EDGE_CURVE('',#472,#473,#398,.T.);
#580=EDGE_CURVE('',#473,#454,#25,.T.);
#581=EDGE_CURVE('',#474,#454,#248,.T.);
#582=EDGE_CURVE('',#473,#475,#249,.T.);
#583=EDGE_CURVE('',#475,#474,#250,.T.);
#584=EDGE_CURVE('',#476,#474,#251,.T.);
#585=EDGE_CURVE('',#475,#477,#252,.T.);
#586=EDGE_CURVE('',#477,#476,#26,.T.);
#587=EDGE_CURVE('',#463,#478,#253,.T.);
#588=EDGE_CURVE('',#478,#479,#254,.T.);
#589=EDGE_CURVE('',#479,#464,#255,.T.);
#590=EDGE_CURVE('',#480,#481,#256,.T.);
#591=EDGE_CURVE('',#481,#479,#399,.T.);
#592=EDGE_CURVE('',#478,#480,#400,.T.);
#593=EDGE_CURVE('',#477,#481,#401,.T.);
#594=EDGE_CURVE('',#480,#476,#402,.T.);
#595=EDGE_CURVE('',#482,#483,#257,.T.);
#596=EDGE_CURVE('',#483,#468,#403,.T.);
#597=EDGE_CURVE('',#467,#482,#404,.T.);
#598=EDGE_CURVE('',#484,#483,#258,.T.);
#599=EDGE_CURVE('',#482,#485,#259,.T.);
#600=EDGE_CURVE('',#485,#484,#260,.T.);
#601=EDGE_CURVE('',#486,#484,#261,.T.);
#602=EDGE_CURVE('',#485,#487,#262,.T.);
#603=EDGE_CURVE('',#487,#486,#263,.T.);
#604=EDGE_CURVE('',#465,#486,#264,.T.);
#605=EDGE_CURVE('',#487,#462,#265,.T.);
#606=EDGE_CURVE('',#463,#488,#266,.T.);
#607=EDGE_CURVE('',#489,#488,#267,.T.);
#608=EDGE_CURVE('',#478,#489,#268,.T.);
#609=EDGE_CURVE('',#462,#490,#269,.T.);
#610=EDGE_CURVE('',#488,#490,#270,.T.);
#611=EDGE_CURVE('',#487,#491,#271,.T.);
#612=EDGE_CURVE('',#490,#491,#272,.T.);
#613=EDGE_CURVE('',#485,#492,#273,.T.);
#614=EDGE_CURVE('',#491,#492,#274,.T.);
#615=EDGE_CURVE('',#482,#493,#275,.T.);
#616=EDGE_CURVE('',#492,#493,#276,.T.);
#617=EDGE_CURVE('',#467,#435,#277,.T.);
#618=EDGE_CURVE('',#494,#434,#278,.T.);
#619=EDGE_CURVE('',#493,#494,#405,.T.);
#620=EDGE_CURVE('',#466,#436,#279,.T.);
#621=EDGE_CURVE('',#461,#460,#406,.T.);
#622=EDGE_CURVE('',#495,#495,#407,.T.);
#623=EDGE_CURVE('',#495,#496,#280,.T.);
#624=EDGE_CURVE('',#496,#496,#408,.T.);
#625=EDGE_CURVE('',#445,#496,#281,.T.);
#626=EDGE_CURVE('',#497,#497,#409,.T.);
#627=EDGE_CURVE('',#471,#437,#282,.T.);
#628=EDGE_CURVE('',#498,#498,#410,.T.);
#629=EDGE_CURVE('',#498,#499,#283,.T.);
#630=EDGE_CURVE('',#499,#500,#411,.T.);
#631=EDGE_CURVE('',#500,#499,#412,.T.);
#632=EDGE_CURVE('',#500,#497,#284,.T.);
#633=EDGE_CURVE('',#476,#441,#285,.T.);
#634=EDGE_CURVE('',#474,#440,#286,.T.);
#635=EDGE_CURVE('',#480,#442,#287,.T.);
#636=EDGE_CURVE('',#433,#501,#288,.T.);
#637=EDGE_CURVE('',#501,#494,#289,.T.);
#638=EDGE_CURVE('',#501,#453,#413,.T.);
#639=EDGE_CURVE('',#452,#489,#414,.T.);
#640=ORIENTED_EDGE('',*,*,#502,.F.);
#641=ORIENTED_EDGE('',*,*,#503,.T.);
#642=ORIENTED_EDGE('',*,*,#504,.F.);
#643=ORIENTED_EDGE('',*,*,#503,.F.);
#644=ORIENTED_EDGE('',*,*,#505,.F.);
#645=ORIENTED_EDGE('',*,*,#506,.T.);
#646=ORIENTED_EDGE('',*,*,#507,.F.);
#647=ORIENTED_EDGE('',*,*,#506,.F.);
#648=ORIENTED_EDGE('',*,*,#508,.F.);
#649=ORIENTED_EDGE('',*,*,#509,.T.);
#650=ORIENTED_EDGE('',*,*,#510,.F.);
#651=ORIENTED_EDGE('',*,*,#509,.F.);
#652=ORIENTED_EDGE('',*,*,#511,.F.);
#653=ORIENTED_EDGE('',*,*,#512,.T.);
#654=ORIENTED_EDGE('',*,*,#513,.F.);
#655=ORIENTED_EDGE('',*,*,#512,.F.);
#656=ORIENTED_EDGE('',*,*,#514,.F.);
#657=ORIENTED_EDGE('',*,*,#515,.T.);
#658=ORIENTED_EDGE('',*,*,#516,.F.);
#659=ORIENTED_EDGE('',*,*,#515,.F.);
#660=ORIENTED_EDGE('',*,*,#517,.F.);
#661=ORIENTED_EDGE('',*,*,#518,.T.);
#662=ORIENTED_EDGE('',*,*,#519,.F.);
#663=ORIENTED_EDGE('',*,*,#518,.F.);
#664=ORIENTED_EDGE('',*,*,#520,.T.);
#665=ORIENTED_EDGE('',*,*,#521,.T.);
#666=ORIENTED_EDGE('',*,*,#522,.T.);
#667=ORIENTED_EDGE('',*,*,#523,.T.);
#668=ORIENTED_EDGE('',*,*,#521,.F.);
#669=ORIENTED_EDGE('',*,*,#524,.T.);
#670=ORIENTED_EDGE('',*,*,#525,.F.);
#671=ORIENTED_EDGE('',*,*,#526,.F.);
#672=ORIENTED_EDGE('',*,*,#527,.F.);
#673=ORIENTED_EDGE('',*,*,#528,.F.);
#674=ORIENTED_EDGE('',*,*,#529,.F.);
#675=ORIENTED_EDGE('',*,*,#530,.F.);
#676=ORIENTED_EDGE('',*,*,#531,.F.);
#677=ORIENTED_EDGE('',*,*,#532,.T.);
#678=ORIENTED_EDGE('',*,*,#533,.F.);
#679=ORIENTED_EDGE('',*,*,#534,.F.);
#680=ORIENTED_EDGE('',*,*,#535,.F.);
#681=ORIENTED_EDGE('',*,*,#536,.F.);
#682=ORIENTED_EDGE('',*,*,#537,.F.);
#683=ORIENTED_EDGE('',*,*,#538,.F.);
#684=ORIENTED_EDGE('',*,*,#539,.T.);
#685=ORIENTED_EDGE('',*,*,#540,.T.);
#686=ORIENTED_EDGE('',*,*,#541,.T.);
#687=ORIENTED_EDGE('',*,*,#542,.T.);
#688=ORIENTED_EDGE('',*,*,#525,.T.);
#689=ORIENTED_EDGE('',*,*,#541,.F.);
#690=ORIENTED_EDGE('',*,*,#543,.F.);
#691=ORIENTED_EDGE('',*,*,#544,.T.);
#692=ORIENTED_EDGE('',*,*,#545,.F.);
#693=ORIENTED_EDGE('',*,*,#523,.F.);
#694=ORIENTED_EDGE('',*,*,#546,.F.);
#695=ORIENTED_EDGE('',*,*,#547,.T.);
#696=ORIENTED_EDGE('',*,*,#548,.F.);
#697=ORIENTED_EDGE('',*,*,#537,.T.);
#698=ORIENTED_EDGE('',*,*,#549,.T.);
#699=ORIENTED_EDGE('',*,*,#550,.T.);
#700=ORIENTED_EDGE('',*,*,#551,.T.);
#701=ORIENTED_EDGE('',*,*,#552,.F.);
#702=ORIENTED_EDGE('',*,*,#532,.F.);
#703=ORIENTED_EDGE('',*,*,#553,.T.);
#704=ORIENTED_EDGE('',*,*,#554,.F.);
#705=ORIENTED_EDGE('',*,*,#548,.T.);
#706=ORIENTED_EDGE('',*,*,#555,.F.);
#707=ORIENTED_EDGE('',*,*,#556,.F.);
#708=ORIENTED_EDGE('',*,*,#557,.F.);
#709=ORIENTED_EDGE('',*,*,#543,.T.);
#710=ORIENTED_EDGE('',*,*,#540,.F.);
#711=ORIENTED_EDGE('',*,*,#524,.F.);
#712=ORIENTED_EDGE('',*,*,#520,.F.);
#713=ORIENTED_EDGE('',*,*,#558,.F.);
#714=ORIENTED_EDGE('',*,*,#559,.T.);
#715=ORIENTED_EDGE('',*,*,#560,.F.);
#716=ORIENTED_EDGE('',*,*,#559,.F.);
#717=ORIENTED_EDGE('',*,*,#561,.T.);
#718=ORIENTED_EDGE('',*,*,#544,.F.);
#719=ORIENTED_EDGE('',*,*,#557,.T.);
#720=ORIENTED_EDGE('',*,*,#562,.T.);
#721=ORIENTED_EDGE('',*,*,#555,.T.);
#722=ORIENTED_EDGE('',*,*,#547,.F.);
#723=ORIENTED_EDGE('',*,*,#563,.T.);
#724=ORIENTED_EDGE('',*,*,#564,.T.);
#725=ORIENTED_EDGE('',*,*,#565,.T.);
#726=ORIENTED_EDGE('',*,*,#566,.T.);
#727=ORIENTED_EDGE('',*,*,#567,.T.);
#728=ORIENTED_EDGE('',*,*,#568,.F.);
#729=ORIENTED_EDGE('',*,*,#569,.T.);
#730=ORIENTED_EDGE('',*,*,#570,.T.);
#731=ORIENTED_EDGE('',*,*,#571,.T.);
#732=ORIENTED_EDGE('',*,*,#572,.T.);
#733=ORIENTED_EDGE('',*,*,#573,.T.);
#734=ORIENTED_EDGE('',*,*,#574,.T.);
#735=ORIENTED_EDGE('',*,*,#575,.T.);
#736=ORIENTED_EDGE('',*,*,#572,.F.);
#737=ORIENTED_EDGE('',*,*,#576,.T.);
#738=ORIENTED_EDGE('',*,*,#577,.T.);
#739=ORIENTED_EDGE('',*,*,#578,.T.);
#740=ORIENTED_EDGE('',*,*,#574,.F.);
#741=ORIENTED_EDGE('',*,*,#579,.T.);
#742=ORIENTED_EDGE('',*,*,#580,.T.);
#743=ORIENTED_EDGE('',*,*,#554,.T.);
#744=ORIENTED_EDGE('',*,*,#577,.F.);
#745=ORIENTED_EDGE('',*,*,#581,.T.);
#746=ORIENTED_EDGE('',*,*,#580,.F.);
#747=ORIENTED_EDGE('',*,*,#582,.T.);
#748=ORIENTED_EDGE('',*,*,#583,.T.);
#749=ORIENTED_EDGE('',*,*,#584,.T.);
#750=ORIENTED_EDGE('',*,*,#583,.F.);
#751=ORIENTED_EDGE('',*,*,#585,.T.);
#752=ORIENTED_EDGE('',*,*,#586,.T.);
#753=ORIENTED_EDGE('',*,*,#587,.T.);
#754=ORIENTED_EDGE('',*,*,#588,.T.);
#755=ORIENTED_EDGE('',*,*,#589,.T.);
#756=ORIENTED_EDGE('',*,*,#566,.F.);
#757=ORIENTED_EDGE('',*,*,#590,.T.);
#758=ORIENTED_EDGE('',*,*,#591,.T.);
#759=ORIENTED_EDGE('',*,*,#588,.F.);
#760=ORIENTED_EDGE('',*,*,#592,.T.);
#761=ORIENTED_EDGE('',*,*,#593,.T.);
#762=ORIENTED_EDGE('',*,*,#590,.F.);
#763=ORIENTED_EDGE('',*,*,#594,.T.);
#764=ORIENTED_EDGE('',*,*,#586,.F.);
#765=ORIENTED_EDGE('',*,*,#595,.T.);
#766=ORIENTED_EDGE('',*,*,#596,.T.);
#767=ORIENTED_EDGE('',*,*,#570,.F.);
#768=ORIENTED_EDGE('',*,*,#597,.T.);
#769=ORIENTED_EDGE('',*,*,#598,.T.);
#770=ORIENTED_EDGE('',*,*,#595,.F.);
#771=ORIENTED_EDGE('',*,*,#599,.T.);
#772=ORIENTED_EDGE('',*,*,#600,.T.);
#773=ORIENTED_EDGE('',*,*,#601,.T.);
#774=ORIENTED_EDGE('',*,*,#600,.F.);
#775=ORIENTED_EDGE('',*,*,#602,.T.);
#776=ORIENTED_EDGE('',*,*,#603,.T.);
#777=ORIENTED_EDGE('',*,*,#604,.T.);
#778=ORIENTED_EDGE('',*,*,#603,.F.);
#779=ORIENTED_EDGE('',*,*,#605,.T.);
#780=ORIENTED_EDGE('',*,*,#568,.T.);
#781=ORIENTED_EDGE('',*,*,#587,.F.);
#782=ORIENTED_EDGE('',*,*,#606,.T.);
#783=ORIENTED_EDGE('',*,*,#607,.F.);
#784=ORIENTED_EDGE('',*,*,#608,.F.);
#785=ORIENTED_EDGE('',*,*,#565,.F.);
#786=ORIENTED_EDGE('',*,*,#609,.T.);
#787=ORIENTED_EDGE('',*,*,#610,.F.);
#788=ORIENTED_EDGE('',*,*,#606,.F.);
#789=ORIENTED_EDGE('',*,*,#605,.F.);
#790=ORIENTED_EDGE('',*,*,#611,.T.);
#791=ORIENTED_EDGE('',*,*,#612,.F.);
#792=ORIENTED_EDGE('',*,*,#609,.F.);
#793=ORIENTED_EDGE('',*,*,#558,.T.);
#794=ORIENTED_EDGE('',*,*,#602,.F.);
#795=ORIENTED_EDGE('',*,*,#613,.T.);
#796=ORIENTED_EDGE('',*,*,#614,.F.);
#797=ORIENTED_EDGE('',*,*,#611,.F.);
#798=ORIENTED_EDGE('',*,*,#599,.F.);
#799=ORIENTED_EDGE('',*,*,#615,.T.);
#800=ORIENTED_EDGE('',*,*,#616,.F.);
#801=ORIENTED_EDGE('',*,*,#613,.F.);
#802=ORIENTED_EDGE('',*,*,#597,.F.);
#803=ORIENTED_EDGE('',*,*,#617,.T.);
#804=ORIENTED_EDGE('',*,*,#528,.T.);
#805=ORIENTED_EDGE('',*,*,#618,.F.);
#806=ORIENTED_EDGE('',*,*,#619,.F.);
#807=ORIENTED_EDGE('',*,*,#615,.F.);
#808=ORIENTED_EDGE('',*,*,#569,.F.);
#809=ORIENTED_EDGE('',*,*,#620,.T.);
#810=ORIENTED_EDGE('',*,*,#529,.T.);
#811=ORIENTED_EDGE('',*,*,#617,.F.);
#812=ORIENTED_EDGE('',*,*,#571,.F.);
#813=ORIENTED_EDGE('',*,*,#596,.F.);
#814=ORIENTED_EDGE('',*,*,#598,.F.);
#815=ORIENTED_EDGE('',*,*,#601,.F.);
#816=ORIENTED_EDGE('',*,*,#604,.F.);
#817=ORIENTED_EDGE('',*,*,#567,.F.);
#818=ORIENTED_EDGE('',*,*,#589,.F.);
#819=ORIENTED_EDGE('',*,*,#591,.F.);
#820=ORIENTED_EDGE('',*,*,#593,.F.);
#821=ORIENTED_EDGE('',*,*,#585,.F.);
#822=ORIENTED_EDGE('',*,*,#582,.F.);
#823=ORIENTED_EDGE('',*,*,#579,.F.);
#824=ORIENTED_EDGE('',*,*,#576,.F.);
#825=ORIENTED_EDGE('',*,*,#573,.F.);
#826=ORIENTED_EDGE('',*,*,#502,.T.);
#827=ORIENTED_EDGE('',*,*,#505,.T.);
#828=ORIENTED_EDGE('',*,*,#508,.T.);
#829=ORIENTED_EDGE('',*,*,#511,.T.);
#830=ORIENTED_EDGE('',*,*,#514,.T.);
#831=ORIENTED_EDGE('',*,*,#517,.T.);
#832=ORIENTED_EDGE('',*,*,#556,.T.);
#833=ORIENTED_EDGE('',*,*,#564,.F.);
#834=ORIENTED_EDGE('',*,*,#621,.T.);
#835=ORIENTED_EDGE('',*,*,#562,.F.);
#836=ORIENTED_EDGE('',*,*,#622,.T.);
#837=ORIENTED_EDGE('',*,*,#623,.T.);
#838=ORIENTED_EDGE('',*,*,#624,.T.);
#839=ORIENTED_EDGE('',*,*,#623,.F.);
#840=ORIENTED_EDGE('',*,*,#539,.F.);
#841=ORIENTED_EDGE('',*,*,#625,.T.);
#842=ORIENTED_EDGE('',*,*,#624,.F.);
#843=ORIENTED_EDGE('',*,*,#625,.F.);
#844=ORIENTED_EDGE('',*,*,#622,.F.);
#845=ORIENTED_EDGE('',*,*,#504,.T.);
#846=ORIENTED_EDGE('',*,*,#507,.T.);
#847=ORIENTED_EDGE('',*,*,#510,.T.);
#848=ORIENTED_EDGE('',*,*,#513,.T.);
#849=ORIENTED_EDGE('',*,*,#516,.T.);
#850=ORIENTED_EDGE('',*,*,#519,.T.);
#851=ORIENTED_EDGE('',*,*,#626,.T.);
#852=ORIENTED_EDGE('',*,*,#578,.F.);
#853=ORIENTED_EDGE('',*,*,#553,.F.);
#854=ORIENTED_EDGE('',*,*,#531,.T.);
#855=ORIENTED_EDGE('',*,*,#627,.F.);
#856=ORIENTED_EDGE('',*,*,#628,.T.);
#857=ORIENTED_EDGE('',*,*,#629,.T.);
#858=ORIENTED_EDGE('',*,*,#630,.T.);
#859=ORIENTED_EDGE('',*,*,#631,.T.);
#860=ORIENTED_EDGE('',*,*,#629,.F.);
#861=ORIENTED_EDGE('',*,*,#630,.F.);
#862=ORIENTED_EDGE('',*,*,#631,.F.);
#863=ORIENTED_EDGE('',*,*,#632,.T.);
#864=ORIENTED_EDGE('',*,*,#626,.F.);
#865=ORIENTED_EDGE('',*,*,#632,.F.);
#866=ORIENTED_EDGE('',*,*,#628,.F.);
#867=ORIENTED_EDGE('',*,*,#575,.F.);
#868=ORIENTED_EDGE('',*,*,#627,.T.);
#869=ORIENTED_EDGE('',*,*,#530,.T.);
#870=ORIENTED_EDGE('',*,*,#620,.F.);
#871=ORIENTED_EDGE('',*,*,#584,.F.);
#872=ORIENTED_EDGE('',*,*,#633,.T.);
#873=ORIENTED_EDGE('',*,*,#534,.T.);
#874=ORIENTED_EDGE('',*,*,#634,.F.);
#875=ORIENTED_EDGE('',*,*,#594,.F.);
#876=ORIENTED_EDGE('',*,*,#635,.T.);
#877=ORIENTED_EDGE('',*,*,#535,.T.);
#878=ORIENTED_EDGE('',*,*,#633,.F.);
#879=ORIENTED_EDGE('',*,*,#527,.T.);
#880=ORIENTED_EDGE('',*,*,#636,.T.);
#881=ORIENTED_EDGE('',*,*,#637,.T.);
#882=ORIENTED_EDGE('',*,*,#618,.T.);
#883=ORIENTED_EDGE('',*,*,#637,.F.);
#884=ORIENTED_EDGE('',*,*,#638,.T.);
#885=ORIENTED_EDGE('',*,*,#550,.F.);
#886=ORIENTED_EDGE('',*,*,#639,.T.);
#887=ORIENTED_EDGE('',*,*,#607,.T.);
#888=ORIENTED_EDGE('',*,*,#610,.T.);
#889=ORIENTED_EDGE('',*,*,#612,.T.);
#890=ORIENTED_EDGE('',*,*,#614,.T.);
#891=ORIENTED_EDGE('',*,*,#616,.T.);
#892=ORIENTED_EDGE('',*,*,#619,.T.);
#893=ORIENTED_EDGE('',*,*,#538,.T.);
#894=ORIENTED_EDGE('',*,*,#551,.F.);
#895=ORIENTED_EDGE('',*,*,#638,.F.);
#896=ORIENTED_EDGE('',*,*,#636,.F.);
#897=ORIENTED_EDGE('',*,*,#526,.T.);
#898=ORIENTED_EDGE('',*,*,#542,.F.);
#899=ORIENTED_EDGE('',*,*,#545,.T.);
#900=ORIENTED_EDGE('',*,*,#561,.F.);
#901=ORIENTED_EDGE('',*,*,#621,.F.);
#902=ORIENTED_EDGE('',*,*,#563,.F.);
#903=ORIENTED_EDGE('',*,*,#546,.T.);
#904=ORIENTED_EDGE('',*,*,#522,.F.);
#905=ORIENTED_EDGE('',*,*,#560,.T.);
#906=ORIENTED_EDGE('',*,*,#592,.F.);
#907=ORIENTED_EDGE('',*,*,#608,.T.);
#908=ORIENTED_EDGE('',*,*,#639,.F.);
#909=ORIENTED_EDGE('',*,*,#549,.F.);
#910=ORIENTED_EDGE('',*,*,#536,.T.);
#911=ORIENTED_EDGE('',*,*,#635,.F.);
#912=ORIENTED_EDGE('',*,*,#581,.F.);
#913=ORIENTED_EDGE('',*,*,#634,.T.);
#914=ORIENTED_EDGE('',*,*,#533,.T.);
#915=ORIENTED_EDGE('',*,*,#552,.T.);
#916=CYLINDRICAL_SURFACE('',#1009,2.15);
#917=CYLINDRICAL_SURFACE('',#1012,2.15);
#918=CYLINDRICAL_SURFACE('',#1015,2.15);
#919=CYLINDRICAL_SURFACE('',#1018,2.15);
#920=CYLINDRICAL_SURFACE('',#1021,2.15);
#921=CYLINDRICAL_SURFACE('',#1024,2.15);
#922=CYLINDRICAL_SURFACE('',#1046,37.);
#923=CYLINDRICAL_SURFACE('',#1048,37.);
#924=CYLINDRICAL_SURFACE('',#1052,2.85);
#925=CYLINDRICAL_SURFACE('',#1086,10.);
#926=CYLINDRICAL_SURFACE('',#1088,42.1);
#927=CYLINDRICAL_SURFACE('',#1094,31.);
#928=CYLINDRICAL_SURFACE('',#1102,7.55);
#929=CYLINDRICAL_SURFACE('',#1106,42.1);
#930=CYLINDRICAL_SURFACE('',#1111,42.1);
#931=CYLINDRICAL_SURFACE('',#1112,10.);
#932=ADVANCED_FACE('',(#83),#916,.F.);
#933=ADVANCED_FACE('',(#84),#917,.F.);
#934=ADVANCED_FACE('',(#85),#918,.F.);
#935=ADVANCED_FACE('',(#86),#919,.F.);
#936=ADVANCED_FACE('',(#87),#920,.F.);
#937=ADVANCED_FACE('',(#88),#921,.F.);
#938=ADVANCED_FACE('',(#89),#52,.T.);
#939=ADVANCED_FACE('',(#90,#27),#53,.T.);
#940=ADVANCED_FACE('',(#91),#54,.T.);
#941=ADVANCED_FACE('',(#92),#55,.T.);
#942=ADVANCED_FACE('',(#93),#56,.T.);
#943=ADVANCED_FACE('',(#94),#57,.T.);
#944=ADVANCED_FACE('',(#95),#922,.T.);
#945=ADVANCED_FACE('',(#96),#923,.T.);
#946=ADVANCED_FACE('',(#97),#924,.F.);
#947=ADVANCED_FACE('',(#98),#58,.T.);
#948=ADVANCED_FACE('',(#99),#59,.T.);
#949=ADVANCED_FACE('',(#100),#60,.T.);
#950=ADVANCED_FACE('',(#101),#15,.T.);
#951=ADVANCED_FACE('',(#102),#61,.T.);
#952=ADVANCED_FACE('',(#103),#62,.T.);
#953=ADVANCED_FACE('',(#104),#16,.T.);
#954=ADVANCED_FACE('',(#105),#63,.T.);
#955=ADVANCED_FACE('',(#106),#64,.T.);
#956=ADVANCED_FACE('',(#107),#65,.T.);
#957=ADVANCED_FACE('',(#108),#17,.F.);
#958=ADVANCED_FACE('',(#109),#18,.T.);
#959=ADVANCED_FACE('',(#110),#19,.F.);
#960=ADVANCED_FACE('',(#111),#66,.T.);
#961=ADVANCED_FACE('',(#112),#67,.T.);
#962=ADVANCED_FACE('',(#113),#68,.T.);
#963=ADVANCED_FACE('',(#114),#69,.T.);
#964=ADVANCED_FACE('',(#115),#70,.T.);
#965=ADVANCED_FACE('',(#116,#28),#71,.T.);
#966=ADVANCED_FACE('',(#117),#72,.T.);
#967=ADVANCED_FACE('',(#118),#73,.T.);
#968=ADVANCED_FACE('',(#119),#925,.F.);
#969=ADVANCED_FACE('',(#120),#926,.T.);
#970=ADVANCED_FACE('',(#121,#29,#30,#31,#32,#33,#34,#35),#74,.F.);
#971=ADVANCED_FACE('',(#122),#20,.F.);
#972=ADVANCED_FACE('',(#123),#927,.F.);
#973=ADVANCED_FACE('',(#124,#36,#37,#38,#39,#40,#41,#42),#75,.T.);
#974=ADVANCED_FACE('',(#125),#76,.T.);
#975=ADVANCED_FACE('',(#126),#21,.T.);
#976=ADVANCED_FACE('',(#127),#928,.T.);
#977=ADVANCED_FACE('',(#128),#77,.T.);
#978=ADVANCED_FACE('',(#129),#78,.T.);
#979=ADVANCED_FACE('',(#130),#79,.T.);
#980=ADVANCED_FACE('',(#131),#929,.T.);
#981=ADVANCED_FACE('',(#132),#80,.T.);
#982=ADVANCED_FACE('',(#133),#81,.T.);
#983=ADVANCED_FACE('',(#134,#43),#930,.F.);
#984=ADVANCED_FACE('',(#135),#931,.F.);
#985=ADVANCED_FACE('',(#136),#82,.T.);
#986=CLOSED_SHELL('',(#932,#933,#934,#935,#936,#937,#938,#939,#940,#941,
#942,#943,#944,#945,#946,#947,#948,#949,#950,#951,#952,#953,#954,#955,#956,
#957,#958,#959,#960,#961,#962,#963,#964,#965,#966,#967,#968,#969,#970,#971,
#972,#973,#974,#975,#976,#977,#978,#979,#980,#981,#982,#983,#984,#985));
#987=DERIVED_UNIT_ELEMENT(#990,1.);
#988=DERIVED_UNIT_ELEMENT(#1738,-3.);
#989=DIMENSIONAL_EXPONENTS(0.,1.,0.,0.,0.,0.,0.);
#990=(
CONVERSION_BASED_UNIT('gram',#992)
MASS_UNIT()
NAMED_UNIT(#989)
);
#991=(
MASS_UNIT()
NAMED_UNIT(*)
SI_UNIT(.KILO.,.GRAM.)
);
#992=MASS_MEASURE_WITH_UNIT(MASS_MEASURE(0.001),#991);
#993=DERIVED_UNIT((#987,#988));
#994=MEASURE_REPRESENTATION_ITEM('density measure',
POSITIVE_RATIO_MEASURE(1.),#993);
#995=PROPERTY_DEFINITION_REPRESENTATION(#1000,#997);
#996=PROPERTY_DEFINITION_REPRESENTATION(#1001,#998);
#997=REPRESENTATION('material name',(#999),#1735);
#998=REPRESENTATION('density',(#994),#1735);
#999=DESCRIPTIVE_REPRESENTATION_ITEM('Generic','Generic');
#1000=PROPERTY_DEFINITION('material property','material name',#1745);
#1001=PROPERTY_DEFINITION('material property','density of part',#1745);
#1002=DATE_TIME_ROLE('creation_date');
#1003=APPLIED_DATE_AND_TIME_ASSIGNMENT(#1004,#1002,(#1745));
#1004=DATE_AND_TIME(#1005,#1006);
#1005=CALENDAR_DATE(2026,14,5);
#1006=LOCAL_TIME(0,0,0.,#1007);
#1007=COORDINATED_UNIVERSAL_TIME_OFFSET(0,0,.BEHIND.);
#1008=AXIS2_PLACEMENT_3D('',#1408,#1114,#1115);
#1009=AXIS2_PLACEMENT_3D('',#1409,#1116,#1117);
#1010=AXIS2_PLACEMENT_3D('',#1411,#1118,#1119);
#1011=AXIS2_PLACEMENT_3D('',#1414,#1121,#1122);
#1012=AXIS2_PLACEMENT_3D('',#1415,#1123,#1124);
#1013=AXIS2_PLACEMENT_3D('',#1417,#1125,#1126);
#1014=AXIS2_PLACEMENT_3D('',#1420,#1128,#1129);
#1015=AXIS2_PLACEMENT_3D('',#1421,#1130,#1131);
#1016=AXIS2_PLACEMENT_3D('',#1423,#1132,#1133);
#1017=AXIS2_PLACEMENT_3D('',#1426,#1135,#1136);
#1018=AXIS2_PLACEMENT_3D('',#1427,#1137,#1138);
#1019=AXIS2_PLACEMENT_3D('',#1429,#1139,#1140);
#1020=AXIS2_PLACEMENT_3D('',#1432,#1142,#1143);
#1021=AXIS2_PLACEMENT_3D('',#1433,#1144,#1145);
#1022=AXIS2_PLACEMENT_3D('',#1435,#1146,#1147);
#1023=AXIS2_PLACEMENT_3D('',#1438,#1149,#1150);
#1024=AXIS2_PLACEMENT_3D('',#1439,#1151,#1152);
#1025=AXIS2_PLACEMENT_3D('',#1441,#1153,#1154);
#1026=AXIS2_PLACEMENT_3D('',#1444,#1156,#1157);
#1027=AXIS2_PLACEMENT_3D('',#1445,#1158,#1159);
#1028=AXIS2_PLACEMENT_3D('',#1448,#1160,#1161);
#1029=AXIS2_PLACEMENT_3D('',#1452,#1163,#1164);
#1030=AXIS2_PLACEMENT_3D('',#1454,#1166,#1167);
#1031=AXIS2_PLACEMENT_3D('',#1456,#1168,#1169);
#1032=AXIS2_PLACEMENT_3D('',#1460,#1171,#1172);
#1033=AXIS2_PLACEMENT_3D('',#1464,#1174,#1175);
#1034=AXIS2_PLACEMENT_3D('',#1466,#1176,#1177);
#1035=AXIS2_PLACEMENT_3D('',#1472,#1180,#1181);
#1036=AXIS2_PLACEMENT_3D('',#1478,#1184,#1185);
#1037=AXIS2_PLACEMENT_3D('',#1480,#1186,#1187);
#1038=AXIS2_PLACEMENT_3D('',#1483,#1189,#1190);
#1039=AXIS2_PLACEMENT_3D('',#1485,#1191,#1192);
#1040=AXIS2_PLACEMENT_3D('',#1486,#1193,#1194);
#1041=AXIS2_PLACEMENT_3D('',#1488,#1195,#1196);
#1042=AXIS2_PLACEMENT_3D('',#1491,#1198,#1199);
#1043=AXIS2_PLACEMENT_3D('',#1492,#1200,#1201);
#1044=AXIS2_PLACEMENT_3D('',#1498,#1205,#1206);
#1045=AXIS2_PLACEMENT_3D('',#1504,#1210,#1211);
#1046=AXIS2_PLACEMENT_3D('',#1510,#1215,#1216);
#1047=AXIS2_PLACEMENT_3D('',#1515,#1219,#1220);
#1048=AXIS2_PLACEMENT_3D('',#1516,#1221,#1222);
#1049=AXIS2_PLACEMENT_3D('',#1518,#1223,#1224);
#1050=AXIS2_PLACEMENT_3D('',#1520,#1225,#1226);
#1051=AXIS2_PLACEMENT_3D('',#1521,#1227,#1228);
#1052=AXIS2_PLACEMENT_3D('',#1522,#1229,#1230);
#1053=AXIS2_PLACEMENT_3D('',#1524,#1231,#1232);
#1054=AXIS2_PLACEMENT_3D('',#1561,#1234,#1235);
#1055=AXIS2_PLACEMENT_3D('',#1563,#1236,#1237);
#1056=AXIS2_PLACEMENT_3D('',#1565,#1239,#1240);
#1057=AXIS2_PLACEMENT_3D('',#1567,#1241,#1242);
#1058=AXIS2_PLACEMENT_3D('',#1569,#1244,#1245);
#1059=AXIS2_PLACEMENT_3D('',#1578,#1250,#1251);
#1060=AXIS2_PLACEMENT_3D('',#1581,#1252,#1253);
#1061=AXIS2_PLACEMENT_3D('',#1585,#1255,#1256);
#1062=AXIS2_PLACEMENT_3D('',#1590,#1257,#1258);
#1063=AXIS2_PLACEMENT_3D('',#1596,#1262,#1263);
#1064=AXIS2_PLACEMENT_3D('',#1604,#1266,#1267);
#1065=AXIS2_PLACEMENT_3D('',#1606,#1268,#1269);
#1066=AXIS2_PLACEMENT_3D('',#1611,#1270,#1271);
#1067=AXIS2_PLACEMENT_3D('',#1617,#1275,#1276);
#1068=AXIS2_PLACEMENT_3D('',#1626,#1279,#1280);
#1069=AXIS2_PLACEMENT_3D('',#1632,#1284,#1285);
#1070=AXIS2_PLACEMENT_3D('',#1636,#1287,#1288);
#1071=AXIS2_PLACEMENT_3D('',#1637,#1289,#1290);
#1072=AXIS2_PLACEMENT_3D('',#1638,#1291,#1292);
#1073=AXIS2_PLACEMENT_3D('',#1639,#1293,#1294);
#1074=AXIS2_PLACEMENT_3D('',#1640,#1295,#1296);
#1075=AXIS2_PLACEMENT_3D('',#1641,#1297,#1298);
#1076=AXIS2_PLACEMENT_3D('',#1645,#1300,#1301);
#1077=AXIS2_PLACEMENT_3D('',#1646,#1302,#1303);
#1078=AXIS2_PLACEMENT_3D('',#1647,#1304,#1305);
#1079=AXIS2_PLACEMENT_3D('',#1653,#1309,#1310);
#1080=AXIS2_PLACEMENT_3D('',#1659,#1314,#1315);
#1081=AXIS2_PLACEMENT_3D('',#1662,#1318,#1319);
#1082=AXIS2_PLACEMENT_3D('',#1668,#1323,#1324);
#1083=AXIS2_PLACEMENT_3D('',#1672,#1327,#1328);
#1084=AXIS2_PLACEMENT_3D('',#1676,#1331,#1332);
#1085=AXIS2_PLACEMENT_3D('',#1680,#1335,#1336);
#1086=AXIS2_PLACEMENT_3D('',#1684,#1339,#1340);
#1087=AXIS2_PLACEMENT_3D('',#1688,#1343,#1344);
#1088=AXIS2_PLACEMENT_3D('',#1689,#1345,#1346);
#1089=AXIS2_PLACEMENT_3D('',#1691,#1348,#1349);
#1090=AXIS2_PLACEMENT_3D('',#1692,#1350,#1351);
#1091=AXIS2_PLACEMENT_3D('',#1693,#1352,#1353);
#1092=AXIS2_PLACEMENT_3D('',#1695,#1354,#1355);
#1093=AXIS2_PLACEMENT_3D('',#1698,#1357,#1358);
#1094=AXIS2_PLACEMENT_3D('',#1699,#1359,#1360);
#1095=AXIS2_PLACEMENT_3D('',#1701,#1362,#1363);
#1096=AXIS2_PLACEMENT_3D('',#1703,#1364,#1365);
#1097=AXIS2_PLACEMENT_3D('',#1704,#1366,#1367);
#1098=AXIS2_PLACEMENT_3D('',#1706,#1369,#1370);
#1099=AXIS2_PLACEMENT_3D('',#1708,#1371,#1372);
#1100=AXIS2_PLACEMENT_3D('',#1712,#1374,#1375);
#1101=AXIS2_PLACEMENT_3D('',#1713,#1376,#1377);
#1102=AXIS2_PLACEMENT_3D('',#1714,#1378,#1379);
#1103=AXIS2_PLACEMENT_3D('',#1716,#1381,#1382);
#1104=AXIS2_PLACEMENT_3D('',#1717,#1383,#1384);
#1105=AXIS2_PLACEMENT_3D('',#1718,#1385,#1386);
#1106=AXIS2_PLACEMENT_3D('',#1721,#1389,#1390);
#1107=AXIS2_PLACEMENT_3D('',#1723,#1392,#1393);
#1108=AXIS2_PLACEMENT_3D('',#1727,#1396,#1397);
#1109=AXIS2_PLACEMENT_3D('',#1728,#1398,#1399);
#1110=AXIS2_PLACEMENT_3D('',#1729,#1400,#1401);
#1111=AXIS2_PLACEMENT_3D('',#1730,#1402,#1403);
#1112=AXIS2_PLACEMENT_3D('',#1731,#1404,#1405);
#1113=AXIS2_PLACEMENT_3D('',#1732,#1406,#1407);
#1114=DIRECTION('axis',(0.,0.,1.));
#1115=DIRECTION('refdir',(1.,0.,0.));
#1116=DIRECTION('center_axis',(0.,1.,0.));
#1117=DIRECTION('ref_axis',(1.,0.,0.));
#1118=DIRECTION('center_axis',(0.,1.,0.));
#1119=DIRECTION('ref_axis',(1.,0.,0.));
#1120=DIRECTION('',(0.,1.,0.));
#1121=DIRECTION('center_axis',(0.,-1.,0.));
#1122=DIRECTION('ref_axis',(1.,0.,0.));
#1123=DIRECTION('center_axis',(0.,1.,0.));
#1124=DIRECTION('ref_axis',(1.,0.,0.));
#1125=DIRECTION('center_axis',(0.,1.,0.));
#1126=DIRECTION('ref_axis',(1.,0.,0.));
#1127=DIRECTION('',(0.,1.,0.));
#1128=DIRECTION('center_axis',(0.,-1.,0.));
#1129=DIRECTION('ref_axis',(1.,0.,0.));
#1130=DIRECTION('center_axis',(0.,1.,0.));
#1131=DIRECTION('ref_axis',(1.,0.,0.));
#1132=DIRECTION('center_axis',(0.,1.,0.));
#1133=DIRECTION('ref_axis',(1.,0.,0.));
#1134=DIRECTION('',(0.,1.,0.));
#1135=DIRECTION('center_axis',(0.,-1.,0.));
#1136=DIRECTION('ref_axis',(1.,0.,0.));
#1137=DIRECTION('center_axis',(0.,1.,0.));
#1138=DIRECTION('ref_axis',(1.,0.,0.));
#1139=DIRECTION('center_axis',(0.,1.,0.));
#1140=DIRECTION('ref_axis',(1.,0.,0.));
#1141=DIRECTION('',(0.,1.,0.));
#1142=DIRECTION('center_axis',(0.,-1.,0.));
#1143=DIRECTION('ref_axis',(1.,0.,0.));
#1144=DIRECTION('center_axis',(0.,1.,0.));
#1145=DIRECTION('ref_axis',(1.,0.,0.));
#1146=DIRECTION('center_axis',(0.,1.,0.));
#1147=DIRECTION('ref_axis',(1.,0.,0.));
#1148=DIRECTION('',(0.,1.,0.));
#1149=DIRECTION('center_axis',(0.,-1.,0.));
#1150=DIRECTION('ref_axis',(1.,0.,0.));
#1151=DIRECTION('center_axis',(0.,1.,0.));
#1152=DIRECTION('ref_axis',(1.,0.,0.));
#1153=DIRECTION('center_axis',(0.,1.,0.));
#1154=DIRECTION('ref_axis',(1.,0.,0.));
#1155=DIRECTION('',(0.,1.,0.));
#1156=DIRECTION('center_axis',(0.,-1.,0.));
#1157=DIRECTION('ref_axis',(1.,0.,0.));
#1158=DIRECTION('center_axis',(-1.53485291901108E-16,0.707106781186548,
0.707106781186548));
#1159=DIRECTION('ref_axis',(1.,0.,2.17060981431341E-16));
#1160=DIRECTION('center_axis',(-1.53485291901108E-16,0.707106781186548,
0.707106781186548));
#1161=DIRECTION('ref_axis',(0.,-0.707106781186547,0.707106781186547));
#1162=DIRECTION('',(-1.,0.,-2.17060981431341E-16));
#1163=DIRECTION('center_axis',(1.53485291901108E-16,-0.707106781186548,
-0.707106781186548));
#1164=DIRECTION('ref_axis',(0.,-0.707106781186548,0.707106781186548));
#1165=DIRECTION('',(1.,0.,2.17060981431341E-16));
#1166=DIRECTION('center_axis',(0.,1.,0.));
#1167=DIRECTION('ref_axis',(0.,0.,1.));
#1168=DIRECTION('center_axis',(0.,1.,0.));
#1169=DIRECTION('ref_axis',(1.,0.,0.));
#1170=DIRECTION('',(1.,0.,-8.68243925725365E-16));
#1171=DIRECTION('center_axis',(0.,-1.,0.));
#1172=DIRECTION('ref_axis',(-1.,0.,0.));
#1173=DIRECTION('',(0.872413244918298,0.,-0.488768994609035));
#1174=DIRECTION('center_axis',(0.,1.,0.));
#1175=DIRECTION('ref_axis',(-0.92338417062501,0.,0.383877159309019));
#1176=DIRECTION('center_axis',(0.,-1.,0.));
#1177=DIRECTION('ref_axis',(-0.923384170625009,0.,0.383877159309022));
#1178=DIRECTION('',(-0.959503687716575,0.,-0.281696065393704));
#1179=DIRECTION('',(-0.86602540378444,0.,0.499999999999998));
#1180=DIRECTION('center_axis',(0.,1.,0.));
#1181=DIRECTION('ref_axis',(1.,0.,0.));
#1182=DIRECTION('',(0.866025403784437,0.,0.500000000000002));
#1183=DIRECTION('',(0.959503687716575,0.,-0.281696065393702));
#1184=DIRECTION('center_axis',(0.,-1.,0.));
#1185=DIRECTION('ref_axis',(-0.909568788907874,0.,-0.415553387959554));
#1186=DIRECTION('center_axis',(0.,1.,0.));
#1187=DIRECTION('ref_axis',(-0.537457737436435,0.,-0.84329068562964));
#1188=DIRECTION('',(-0.872413244918295,0.,-0.488768994609039));
#1189=DIRECTION('center_axis',(0.,-1.,0.));
#1190=DIRECTION('ref_axis',(-1.,0.,0.));
#1191=DIRECTION('center_axis',(0.,-1.,0.));
#1192=DIRECTION('ref_axis',(-1.,0.,0.));
#1193=DIRECTION('center_axis',(-6.13941167604434E-16,0.707106781186547,
-0.707106781186548));
#1194=DIRECTION('ref_axis',(-1.,0.,8.68243925725365E-16));
#1195=DIRECTION('center_axis',(-6.13941167604434E-16,0.707106781186547,
-0.707106781186548));
#1196=DIRECTION('ref_axis',(0.,0.707106781186548,0.707106781186547));
#1197=DIRECTION('',(-1.,0.,8.68243925725365E-16));
#1198=DIRECTION('center_axis',(6.13941167604434E-16,-0.707106781186547,
0.707106781186548));
#1199=DIRECTION('ref_axis',(0.,0.707106781186548,0.707106781186547));
#1200=DIRECTION('center_axis',(-8.68243925725365E-16,0.,-1.));
#1201=DIRECTION('ref_axis',(-1.,0.,8.68243925725365E-16));
#1202=DIRECTION('',(0.,1.,0.));
#1203=DIRECTION('',(-1.,0.,0.));
#1204=DIRECTION('',(0.,-1.,0.));
#1205=DIRECTION('center_axis',(-2.17060981431341E-16,0.,1.));
#1206=DIRECTION('ref_axis',(1.,0.,2.17060981431341E-16));
#1207=DIRECTION('',(0.,1.,0.));
#1208=DIRECTION('',(1.,0.,-1.22784898877187E-16));
#1209=DIRECTION('',(0.,-1.,0.));
#1210=DIRECTION('center_axis',(0.48876899460904,0.,-0.872413244918295));
#1211=DIRECTION('ref_axis',(-0.872413244918295,0.,-0.48876899460904));
#1212=DIRECTION('',(0.,1.,0.));
#1213=DIRECTION('',(0.872413244918295,0.,0.48876899460904));
#1214=DIRECTION('',(0.,-1.,0.));
#1215=DIRECTION('center_axis',(0.,-1.,0.));
#1216=DIRECTION('ref_axis',(1.,0.,0.));
#1217=DIRECTION('',(0.,-1.,0.));
#1218=DIRECTION('',(0.,-1.,0.));
#1219=DIRECTION('center_axis',(0.,-1.,0.));
#1220=DIRECTION('ref_axis',(1.,0.,0.));
#1221=DIRECTION('center_axis',(0.,-1.,0.));
#1222=DIRECTION('ref_axis',(-1.,0.,-1.22464679914735E-16));
#1223=DIRECTION('center_axis',(8.68220346233634E-17,-0.707106781186548,
0.707106781186547));
#1224=DIRECTION('ref_axis',(0.,0.707106781186547,0.707106781186548));
#1225=DIRECTION('center_axis',(0.,-1.,0.));
#1226=DIRECTION('ref_axis',(0.866025403784438,0.,0.5));
#1227=DIRECTION('center_axis',(0.,-0.707106781186548,-0.707106781186548));
#1228=DIRECTION('ref_axis',(0.,-0.707106781186547,0.707106781186547));
#1229=DIRECTION('center_axis',(1.,0.,0.));
#1230=DIRECTION('ref_axis',(0.,0.,1.));
#1231=DIRECTION('center_axis',(1.,0.,0.));
#1232=DIRECTION('ref_axis',(0.,0.,1.));
#1233=DIRECTION('',(1.,0.,0.));
#1234=DIRECTION('center_axis',(0.,-0.707106781186548,-0.707106781186548));
#1235=DIRECTION('ref_axis',(-1.,0.,0.));
#1236=DIRECTION('center_axis',(0.,0.707106781186548,0.707106781186548));
#1237=DIRECTION('ref_axis',(0.,-0.707106781186548,0.707106781186548));
#1238=DIRECTION('',(-1.,0.,0.));
#1239=DIRECTION('center_axis',(8.68220346233634E-17,-0.707106781186548,
0.707106781186547));
#1240=DIRECTION('ref_axis',(1.,0.,-1.22784898877187E-16));
#1241=DIRECTION('center_axis',(-8.68220346233634E-17,0.707106781186548,
-0.707106781186547));
#1242=DIRECTION('ref_axis',(0.,0.707106781186547,0.707106781186548));
#1243=DIRECTION('',(1.,0.,-1.22784898877187E-16));
#1244=DIRECTION('center_axis',(-0.5,-0.707106781186547,-0.500000000000001));
#1245=DIRECTION('ref_axis',(-0.707106781186548,0.,0.707106781186547));
#1246=DIRECTION('',(0.707106781186548,0.,-0.707106781186547));
#1247=DIRECTION('',(0.281084637714815,-0.678598344545848,0.678598344545848));
#1248=DIRECTION('',(-0.707106781186548,0.,0.707106781186547));
#1249=DIRECTION('',(0.678598344545846,-0.678598344545848,0.28108463771482));
#1250=DIRECTION('center_axis',(0.,1.,0.));
#1251=DIRECTION('ref_axis',(-0.92338417062501,0.,-0.38387715930902));
#1252=DIRECTION('center_axis',(0.,-1.,0.));
#1253=DIRECTION('ref_axis',(-0.92338417062501,0.,-0.38387715930902));
#1254=DIRECTION('',(0.652931208689259,-0.707106781186547,-0.27144214249004));
#1255=DIRECTION('center_axis',(0.,1.,0.));
#1256=DIRECTION('ref_axis',(-0.92338417062501,0.,-0.38387715930902));
#1257=DIRECTION('center_axis',(-0.199189198073456,-0.707106781186549,0.678471564157888));
#1258=DIRECTION('ref_axis',(0.959503687716575,0.,0.281696065393703));
#1259=DIRECTION('',(0.959503687716575,0.,0.281696065393703));
#1260=DIRECTION('',(0.087414820541505,0.676764529220956,0.730991396076612));
#1261=DIRECTION('',(-0.959503687716575,0.,-0.281696065393703));
#1262=DIRECTION('center_axis',(0.353553390593275,-0.707106781186545,0.612372435695797));
#1263=DIRECTION('ref_axis',(0.866025403784439,0.,-0.5));
#1264=DIRECTION('',(0.866025403784439,0.,-0.5));
#1265=DIRECTION('',(-0.866025403784439,0.,0.5));
#1266=DIRECTION('center_axis',(0.,1.,0.));
#1267=DIRECTION('ref_axis',(1.,0.,0.));
#1268=DIRECTION('center_axis',(0.,1.,0.));
#1269=DIRECTION('ref_axis',(1.,0.,0.));
#1270=DIRECTION('center_axis',(0.353553390593275,-0.707106781186547,-0.612372435695795));
#1271=DIRECTION('ref_axis',(-0.866025403784438,0.,-0.5));
#1272=DIRECTION('',(0.866025403784438,0.,0.5));
#1273=DIRECTION('',(-0.866025403784438,0.,-0.5));
#1274=DIRECTION('',(0.0874148205415077,0.676764529220954,-0.730991396076614));
#1275=DIRECTION('center_axis',(-0.199189198073455,-0.70710678118655,-0.678471564157887));
#1276=DIRECTION('ref_axis',(-0.959503687716575,0.,0.281696065393702));
#1277=DIRECTION('',(0.959503687716575,0.,-0.281696065393702));
#1278=DIRECTION('',(-0.959503687716575,0.,0.281696065393702));
#1279=DIRECTION('center_axis',(0.,-0.707106781186547,-0.707106781186548));
#1280=DIRECTION('ref_axis',(-1.,0.,0.));
#1281=DIRECTION('',(1.,0.,0.));
#1282=DIRECTION('',(0.,-0.707106781186548,0.707106781186547));
#1283=DIRECTION('',(-1.,0.,0.));
#1284=DIRECTION('center_axis',(0.,-1.,0.));
#1285=DIRECTION('ref_axis',(0.923384170625008,0.,0.383877159309024));
#1286=DIRECTION('',(0.652931208689261,-0.707106781186546,0.27144214249004));
#1287=DIRECTION('center_axis',(0.,-1.,0.));
#1288=DIRECTION('ref_axis',(0.923384170625008,0.,0.383877159309024));
#1289=DIRECTION('center_axis',(0.,1.,0.));
#1290=DIRECTION('ref_axis',(0.923384170625008,0.,0.383877159309024));
#1291=DIRECTION('center_axis',(0.,1.,0.));
#1292=DIRECTION('ref_axis',(-0.92338417062501,0.,-0.38387715930902));
#1293=DIRECTION('center_axis',(0.,1.,0.));
#1294=DIRECTION('ref_axis',(-0.92338417062501,0.,-0.38387715930902));
#1295=DIRECTION('center_axis',(0.,-1.,0.));
#1296=DIRECTION('ref_axis',(-0.92338417062501,0.,-0.38387715930902));
#1297=DIRECTION('center_axis',(0.,-1.,0.));
#1298=DIRECTION('ref_axis',(0.,0.,-1.));
#1299=DIRECTION('',(0.,-0.707106781186546,-0.707106781186549));
#1300=DIRECTION('center_axis',(0.,-1.,0.));
#1301=DIRECTION('ref_axis',(0.,0.,-1.));
#1302=DIRECTION('center_axis',(0.,1.,0.));
#1303=DIRECTION('ref_axis',(0.,0.,-1.));
#1304=DIRECTION('center_axis',(0.,-0.707106781186547,0.707106781186548));
#1305=DIRECTION('ref_axis',(1.,0.,0.));
#1306=DIRECTION('',(1.,0.,0.));
#1307=DIRECTION('',(-1.,0.,0.));
#1308=DIRECTION('',(0.281084637714821,-0.678598344545848,-0.678598344545846));
#1309=DIRECTION('center_axis',(-0.500000000000002,-0.707106781186546,0.5));
#1310=DIRECTION('ref_axis',(0.707106781186546,0.,0.707106781186549));
#1311=DIRECTION('',(0.707106781186546,0.,0.707106781186549));
#1312=DIRECTION('',(-0.707106781186546,0.,-0.707106781186549));
#1313=DIRECTION('',(0.678598344545846,-0.678598344545849,-0.281084637714818));
#1314=DIRECTION('center_axis',(-0.707106781186549,-0.707106781186546,0.));
#1315=DIRECTION('ref_axis',(0.,0.,1.));
#1316=DIRECTION('',(0.,0.,1.));
#1317=DIRECTION('',(0.,0.,-1.));
#1318=DIRECTION('center_axis',(0.,0.,-1.));
#1319=DIRECTION('ref_axis',(-1.,0.,0.));
#1320=DIRECTION('',(0.,1.,0.));
#1321=DIRECTION('',(-1.,0.,0.));
#1322=DIRECTION('',(0.,1.,0.));
#1323=DIRECTION('center_axis',(-0.707106781186547,0.,-0.707106781186548));
#1324=DIRECTION('ref_axis',(-0.707106781186548,0.,0.707106781186547));
#1325=DIRECTION('',(0.,1.,0.));
#1326=DIRECTION('',(-0.707106781186548,0.,0.707106781186547));
#1327=DIRECTION('center_axis',(-1.,0.,0.));
#1328=DIRECTION('ref_axis',(0.,0.,1.));
#1329=DIRECTION('',(0.,1.,0.));
#1330=DIRECTION('',(0.,0.,1.));
#1331=DIRECTION('center_axis',(-0.707106781186549,0.,0.707106781186546));
#1332=DIRECTION('ref_axis',(0.707106781186546,0.,0.707106781186549));
#1333=DIRECTION('',(0.,1.,0.));
#1334=DIRECTION('',(0.707106781186546,0.,0.707106781186549));
#1335=DIRECTION('center_axis',(0.,0.,1.));
#1336=DIRECTION('ref_axis',(1.,0.,0.));
#1337=DIRECTION('',(0.,1.,0.));
#1338=DIRECTION('',(1.,0.,0.));
#1339=DIRECTION('center_axis',(0.,1.,0.));
#1340=DIRECTION('ref_axis',(0.,0.,1.));
#1341=DIRECTION('',(0.,1.,0.));
#1342=DIRECTION('',(0.,-1.,0.));
#1343=DIRECTION('center_axis',(0.,-1.,0.));
#1344=DIRECTION('ref_axis',(-0.92338417062501,0.,0.383877159309019));
#1345=DIRECTION('center_axis',(0.,1.,0.));
#1346=DIRECTION('ref_axis',(-0.92338417062501,0.,-0.38387715930902));
#1347=DIRECTION('',(0.,1.,0.));
#1348=DIRECTION('center_axis',(0.,1.,0.));
#1349=DIRECTION('ref_axis',(0.,0.,1.));
#1350=DIRECTION('center_axis',(0.,1.,0.));
#1351=DIRECTION('ref_axis',(-0.968576846157977,0.,-0.248714481055421));
#1352=DIRECTION('center_axis',(0.,1.,0.));
#1353=DIRECTION('ref_axis',(-1.,0.,0.));
#1354=DIRECTION('center_axis',(0.,-1.,0.));
#1355=DIRECTION('ref_axis',(-1.,0.,0.));
#1356=DIRECTION('',(0.707106781186547,0.707106781186547,8.65956056235493E-17));
#1357=DIRECTION('center_axis',(0.,1.,0.));
#1358=DIRECTION('ref_axis',(-1.,0.,0.));
#1359=DIRECTION('center_axis',(0.,1.,0.));
#1360=DIRECTION('ref_axis',(-1.,0.,0.));
#1361=DIRECTION('',(0.,-1.,0.));
#1362=DIRECTION('center_axis',(0.,1.,0.));
#1363=DIRECTION('ref_axis',(0.,0.,1.));
#1364=DIRECTION('center_axis',(0.,-1.,0.));
#1365=DIRECTION('ref_axis',(1.,0.,0.));
#1366=DIRECTION('center_axis',(0.5,0.,0.866025403784439));
#1367=DIRECTION('ref_axis',(0.866025403784439,0.,-0.5));
#1368=DIRECTION('',(0.,1.,0.));
#1369=DIRECTION('center_axis',(0.,-1.,0.));
#1370=DIRECTION('ref_axis',(-1.,0.,0.));
#1371=DIRECTION('center_axis',(0.,-1.,0.));
#1372=DIRECTION('ref_axis',(-1.,0.,0.));
#1373=DIRECTION('',(0.707106781186547,-0.707106781186548,-8.65956056235493E-17));
#1374=DIRECTION('center_axis',(0.,1.,0.));
#1375=DIRECTION('ref_axis',(-1.,0.,0.));
#1376=DIRECTION('center_axis',(0.,1.,0.));
#1377=DIRECTION('ref_axis',(-1.,0.,0.));
#1378=DIRECTION('center_axis',(0.,1.,0.));
#1379=DIRECTION('ref_axis',(1.,0.,0.));
#1380=DIRECTION('',(0.,-1.,0.));
#1381=DIRECTION('center_axis',(0.,1.,0.));
#1382=DIRECTION('ref_axis',(0.,0.,1.));
#1383=DIRECTION('center_axis',(-0.281696065393703,0.,0.959503687716575));
#1384=DIRECTION('ref_axis',(0.959503687716575,0.,0.281696065393703));
#1385=DIRECTION('center_axis',(-0.281696065393702,0.,-0.959503687716575));
#1386=DIRECTION('ref_axis',(-0.959503687716575,0.,0.281696065393702));
#1387=DIRECTION('',(0.,1.,0.));
#1388=DIRECTION('',(0.,1.,0.));
#1389=DIRECTION('center_axis',(0.,1.,0.));
#1390=DIRECTION('ref_axis',(-0.92338417062501,0.,-0.38387715930902));
#1391=DIRECTION('',(0.,1.,0.));
#1392=DIRECTION('center_axis',(0.488768994609035,0.,0.872413244918298));
#1393=DIRECTION('ref_axis',(0.872413244918298,0.,-0.488768994609035));
#1394=DIRECTION('',(0.,1.,0.));
#1395=DIRECTION('',(-0.872413244918298,0.,0.488768994609035));
#1396=DIRECTION('center_axis',(0.,1.,0.));
#1397=DIRECTION('ref_axis',(0.,0.,1.));
#1398=DIRECTION('center_axis',(0.,-1.,0.));
#1399=DIRECTION('ref_axis',(-1.,0.,0.));
#1400=DIRECTION('center_axis',(0.,-1.,0.));
#1401=DIRECTION('ref_axis',(1.77635683940025E-15,0.,-1.));
#1402=DIRECTION('center_axis',(0.,1.,0.));
#1403=DIRECTION('ref_axis',(-1.,0.,0.));
#1404=DIRECTION('center_axis',(0.,1.,0.));
#1405=DIRECTION('ref_axis',(-0.923384170625008,0.,-0.383877159309024));
#1406=DIRECTION('center_axis',(0.5,0.,-0.866025403784438));
#1407=DIRECTION('ref_axis',(-0.866025403784438,0.,-0.5));
#1408=CARTESIAN_POINT('',(0.,0.,0.));
#1409=CARTESIAN_POINT('Origin',(14.9389382152816,0.,-8.625));
#1410=CARTESIAN_POINT('',(12.7889382152816,0.,-8.625));
#1411=CARTESIAN_POINT('Origin',(14.9389382152816,0.,-8.625));
#1412=CARTESIAN_POINT('',(12.7889382152816,6.,-8.625));
#1413=CARTESIAN_POINT('',(12.7889382152816,0.,-8.625));
#1414=CARTESIAN_POINT('Origin',(14.9389382152816,6.,-8.625));
#1415=CARTESIAN_POINT('Origin',(-14.9389382152816,0.,8.62500000000001));
#1416=CARTESIAN_POINT('',(-17.0889382152816,0.,8.62500000000001));
#1417=CARTESIAN_POINT('Origin',(-14.9389382152816,0.,8.62500000000001));
#1418=CARTESIAN_POINT('',(-17.0889382152816,6.,8.62500000000001));
#1419=CARTESIAN_POINT('',(-17.0889382152816,0.,8.62500000000001));
#1420=CARTESIAN_POINT('Origin',(-14.9389382152816,6.,8.62500000000001));
#1421=CARTESIAN_POINT('Origin',(6.66133814775094E-15,0.,-17.25));
#1422=CARTESIAN_POINT('',(-2.14999999999999,0.,-17.25));
#1423=CARTESIAN_POINT('Origin',(6.66133814775094E-15,0.,-17.25));
#1424=CARTESIAN_POINT('',(-2.14999999999999,6.,-17.25));
#1425=CARTESIAN_POINT('',(-2.14999999999999,0.,-17.25));
#1426=CARTESIAN_POINT('Origin',(6.66133814775094E-15,6.,-17.25));
#1427=CARTESIAN_POINT('Origin',(14.9389382152816,0.,8.62500000000001));
#1428=CARTESIAN_POINT('',(12.7889382152816,0.,8.62500000000001));
#1429=CARTESIAN_POINT('Origin',(14.9389382152816,0.,8.62500000000001));
#1430=CARTESIAN_POINT('',(12.7889382152816,6.,8.62500000000001));
#1431=CARTESIAN_POINT('',(12.7889382152816,0.,8.62500000000001));
#1432=CARTESIAN_POINT('Origin',(14.9389382152816,6.,8.62500000000001));
#1433=CARTESIAN_POINT('Origin',(0.,0.,17.25));
#1434=CARTESIAN_POINT('',(-2.15,0.,17.25));
#1435=CARTESIAN_POINT('Origin',(0.,0.,17.25));
#1436=CARTESIAN_POINT('',(-2.15,6.,17.25));
#1437=CARTESIAN_POINT('',(-2.15,0.,17.25));
#1438=CARTESIAN_POINT('Origin',(0.,6.,17.25));
#1439=CARTESIAN_POINT('Origin',(-14.9389382152816,0.,-8.62500000000001));
#1440=CARTESIAN_POINT('',(-17.0889382152816,0.,-8.62500000000001));
#1441=CARTESIAN_POINT('Origin',(-14.9389382152816,0.,-8.62500000000001));
#1442=CARTESIAN_POINT('',(-17.0889382152816,6.,-8.62500000000001));
#1443=CARTESIAN_POINT('',(-17.0889382152816,0.,-8.62500000000001));
#1444=CARTESIAN_POINT('Origin',(-14.9389382152816,6.,-8.62500000000001));
#1445=CARTESIAN_POINT('Origin',(-20.9964878015348,10.,-4.99999999999999));
#1446=CARTESIAN_POINT('',(-36.8781778291715,8.,-3.));
#1447=CARTESIAN_POINT('',(-36.3318042491699,12.,-7.));
#1448=CARTESIAN_POINT('Origin',(0.,5.00000000000001,0.));
#1449=CARTESIAN_POINT('',(-41.5139735510828,12.,-7.));
#1450=CARTESIAN_POINT('',(-20.9964878015348,12.,-6.99999999999999));
#1451=CARTESIAN_POINT('',(-41.9929756030696,8.,-3.));
#1452=CARTESIAN_POINT('Origin',(0.,5.00000000000001,0.));
#1453=CARTESIAN_POINT('',(-20.9964878015348,8.,-2.99999999999999));
#1454=CARTESIAN_POINT('Origin',(0.,12.,0.));
#1455=CARTESIAN_POINT('',(-36.3318042491699,12.,7.));
#1456=CARTESIAN_POINT('Origin',(0.,12.,0.));
#1457=CARTESIAN_POINT('',(-41.5139735510828,12.,7.00000000000001));
#1458=CARTESIAN_POINT('',(-18.4390889145858,12.,6.99999999999999));
#1459=CARTESIAN_POINT('',(-40.7770852232508,12.,10.4708796524333));
#1460=CARTESIAN_POINT('Origin',(0.,12.,0.));
#1461=CARTESIAN_POINT('',(-42.7337379151986,12.,11.5670931437036));
#1462=CARTESIAN_POINT('',(-37.7442164653393,12.,8.77171675890751));
#1463=CARTESIAN_POINT('',(-38.8744735833129,12.,16.1612284069098));
#1464=CARTESIAN_POINT('Origin',(-48.108315289563,12.,20.));
#1465=CARTESIAN_POINT('',(-38.2928460130215,12.,17.4947976330972));
#1466=CARTESIAN_POINT('Origin',(0.,12.,0.));
#1467=CARTESIAN_POINT('',(-32.9955678841871,12.,19.05));
#1468=CARTESIAN_POINT('',(-40.2408005468266,12.,16.9229070455325));
#1469=CARTESIAN_POINT('',(-32.0429399400242,12.,18.5));
#1470=CARTESIAN_POINT('',(-30.5184110399479,12.,17.6198128291535));
#1471=CARTESIAN_POINT('',(-32.0429399400242,12.,-18.5));
#1472=CARTESIAN_POINT('Origin',(0.,12.,0.));
#1473=CARTESIAN_POINT('',(-32.9955678841871,12.,-19.05));
#1474=CARTESIAN_POINT('',(-30.0420970678664,12.,-17.3448128291535));
#1475=CARTESIAN_POINT('',(-38.2928460130215,12.,-17.4947976330972));
#1476=CARTESIAN_POINT('',(-37.5921614824094,12.,-17.7005082289839));
#1477=CARTESIAN_POINT('',(-38.8744735833129,12.,-16.1612284069098));
#1478=CARTESIAN_POINT('Origin',(0.,12.,0.));
#1479=CARTESIAN_POINT('',(-42.7337379151986,12.,-11.5670931437036));
#1480=CARTESIAN_POINT('Origin',(-48.108315289563,12.,-20.));
#1481=CARTESIAN_POINT('',(-40.7770852232508,12.,-10.4708796524332));
#1482=CARTESIAN_POINT('',(-37.7442164653393,12.,-8.77171675890746));
#1483=CARTESIAN_POINT('Origin',(0.,12.,0.));
#1484=CARTESIAN_POINT('',(31.,12.,-3.7964050773568E-15));
#1485=CARTESIAN_POINT('Origin',(0.,12.,0.));
#1486=CARTESIAN_POINT('Origin',(-18.4390889145858,10.,4.99999999999999));
#1487=CARTESIAN_POINT('',(-36.8781778291715,8.,3.));
#1488=CARTESIAN_POINT('Origin',(0.,5.00000000000003,0.));
#1489=CARTESIAN_POINT('',(-41.9929756030696,8.,3.00000000000001));
#1490=CARTESIAN_POINT('',(-18.4390889145858,8.,2.99999999999999));
#1491=CARTESIAN_POINT('Origin',(0.,5.00000000000003,0.));
#1492=CARTESIAN_POINT('Origin',(-36.8781778291715,6.,3.));
#1493=CARTESIAN_POINT('',(-36.8781778291715,6.,3.));
#1494=CARTESIAN_POINT('',(-36.8781778291715,6.,3.));
#1495=CARTESIAN_POINT('',(-41.9929756030696,6.,3.00000000000001));
#1496=CARTESIAN_POINT('',(-18.4390889145858,6.,3.00000000000001));
#1497=CARTESIAN_POINT('',(-41.9929756030696,6.,3.00000000000001));
#1498=CARTESIAN_POINT('Origin',(-41.9929756030696,6.,-3.));
#1499=CARTESIAN_POINT('',(-41.9929756030696,6.,-3.));
#1500=CARTESIAN_POINT('',(-41.9929756030696,6.,-3.));
#1501=CARTESIAN_POINT('',(-36.8781778291715,6.,-3.));
#1502=CARTESIAN_POINT('',(-20.9964878015348,6.,-3.));
#1503=CARTESIAN_POINT('',(-36.8781778291715,6.,-3.));
#1504=CARTESIAN_POINT('Origin',(-41.7554115692247,6.,-11.0189863980684));
#1505=CARTESIAN_POINT('',(-42.7337379151986,20.,-11.5670931437036));
#1506=CARTESIAN_POINT('',(-42.7337379151986,6.,-11.5670931437036));
#1507=CARTESIAN_POINT('',(-40.7770852232508,20.,-10.4708796524332));
#1508=CARTESIAN_POINT('',(-40.4266917112468,20.,-10.2745718985364));
#1509=CARTESIAN_POINT('',(-40.7770852232508,6.,-10.4708796524332));
#1510=CARTESIAN_POINT('Origin',(0.,6.,0.));
#1511=CARTESIAN_POINT('',(-32.0429399400242,1.,-18.5));
#1512=CARTESIAN_POINT('',(-32.0429399400242,6.,-18.5));
#1513=CARTESIAN_POINT('',(-32.0429399400242,1.,18.5));
#1514=CARTESIAN_POINT('',(-32.0429399400242,6.,18.5));
#1515=CARTESIAN_POINT('Origin',(0.,1.,0.));
#1516=CARTESIAN_POINT('Origin',(0.,6.,0.));
#1517=CARTESIAN_POINT('',(-35.8887168898527,0.,-9.));
#1518=CARTESIAN_POINT('Origin',(0.,9.,0.));
#1519=CARTESIAN_POINT('',(-35.8887168898527,0.,9.00000000000001));
#1520=CARTESIAN_POINT('Origin',(0.,0.,0.));
#1521=CARTESIAN_POINT('Origin',(0.,9.00000000000001,0.));
#1522=CARTESIAN_POINT('Origin',(-50.,15.,3.33066907387547E-15));
#1523=CARTESIAN_POINT('',(-50.,15.,-2.85));
#1524=CARTESIAN_POINT('Origin',(-50.,15.,3.33066907387547E-15));
#1525=CARTESIAN_POINT('',(-42.0034224796028,15.,-2.85));
#1526=CARTESIAN_POINT('',(-50.,15.,-2.85));
#1527=CARTESIAN_POINT('Ctrl Pts',(-42.0034224796028,15.,-2.85));
#1528=CARTESIAN_POINT('Ctrl Pts',(-42.0034224796028,14.6420300601797,-2.85));
#1529=CARTESIAN_POINT('Ctrl Pts',(-42.0084696650312,14.2602745978693,-2.77843720387038));
#1530=CARTESIAN_POINT('Ctrl Pts',(-42.0266978317941,13.5581259385561,-2.48755024204432));
#1531=CARTESIAN_POINT('Ctrl Pts',(-42.0396154586561,13.2377234378618,-2.26823209062514));
#1532=CARTESIAN_POINT('Ctrl Pts',(-42.0638624631852,12.7317680892974,-1.76227674206071));
#1533=CARTESIAN_POINT('Ctrl Pts',(-42.0767671640599,12.51244979979,-1.44187416105263));
#1534=CARTESIAN_POINT('Ctrl Pts',(-42.0949657636575,12.2215627282365,-0.739725239620699));
#1535=CARTESIAN_POINT('Ctrl Pts',(-42.1,12.15,-0.357969685225364));
#1536=CARTESIAN_POINT('Ctrl Pts',(-42.1,12.15,0.35796968522537));
#1537=CARTESIAN_POINT('Ctrl Pts',(-42.0949657636575,12.2215627282365,0.739725239620705));
#1538=CARTESIAN_POINT('Ctrl Pts',(-42.0767671640599,12.51244979979,1.44187416105264));
#1539=CARTESIAN_POINT('Ctrl Pts',(-42.0638624631852,12.7317680892974,1.76227674206072));
#1540=CARTESIAN_POINT('Ctrl Pts',(-42.039615458656,13.2377234378618,2.26823209062514));
#1541=CARTESIAN_POINT('Ctrl Pts',(-42.0266978317941,13.5581259385561,2.48755024204433));
#1542=CARTESIAN_POINT('Ctrl Pts',(-42.0084696650312,14.2602745978693,2.77843720387038));
#1543=CARTESIAN_POINT('Ctrl Pts',(-42.0034224796028,14.6420300601797,2.85));
#1544=CARTESIAN_POINT('Ctrl Pts',(-42.0034224796028,15.3579699398203,2.85));
#1545=CARTESIAN_POINT('Ctrl Pts',(-42.0084696650312,15.7397254021307,2.77843720387039));
#1546=CARTESIAN_POINT('Ctrl Pts',(-42.0266978317941,16.4418740614439,2.48755024204433));
#1547=CARTESIAN_POINT('Ctrl Pts',(-42.0396154586561,16.7622765621382,2.26823209062515));
#1548=CARTESIAN_POINT('Ctrl Pts',(-42.0638624631852,17.2682319107026,1.76227674206072));
#1549=CARTESIAN_POINT('Ctrl Pts',(-42.0767671640599,17.48755020021,1.44187416105264));
#1550=CARTESIAN_POINT('Ctrl Pts',(-42.0949657636575,17.7784372717635,0.739725239620706));
#1551=CARTESIAN_POINT('Ctrl Pts',(-42.1,17.85,0.35796968522537));
#1552=CARTESIAN_POINT('Ctrl Pts',(-42.1,17.85,-0.357969685225364));
#1553=CARTESIAN_POINT('Ctrl Pts',(-42.0949657636575,17.7784372717635,-0.739725239620701));
#1554=CARTESIAN_POINT('Ctrl Pts',(-42.0767671640599,17.48755020021,-1.44187416105263));
#1555=CARTESIAN_POINT('Ctrl Pts',(-42.0638624631852,17.2682319107026,-1.76227674206071));
#1556=CARTESIAN_POINT('Ctrl Pts',(-42.0396154586561,16.7622765621382,-2.26823209062514));
#1557=CARTESIAN_POINT('Ctrl Pts',(-42.0266978317941,16.4418740614439,-2.48755024204432));
#1558=CARTESIAN_POINT('Ctrl Pts',(-42.0084696650312,15.7397254021307,-2.77843720387038));
#1559=CARTESIAN_POINT('Ctrl Pts',(-42.0034224796028,15.3579699398203,-2.85));
#1560=CARTESIAN_POINT('Ctrl Pts',(-42.0034224796028,15.,-2.85));
#1561=CARTESIAN_POINT('Origin',(-18.4390889145858,3.,6.00000000000001));
#1562=CARTESIAN_POINT('',(-41.1267552816898,0.,9.00000000000001));
#1563=CARTESIAN_POINT('Origin',(0.,9.00000000000001,0.));
#1564=CARTESIAN_POINT('',(-18.4390889145858,0.,9.00000000000001));
#1565=CARTESIAN_POINT('Origin',(-20.9964878015348,3.,-6.));
#1566=CARTESIAN_POINT('',(-41.1267552816898,0.,-9.));
#1567=CARTESIAN_POINT('Origin',(0.,9.,0.));
#1568=CARTESIAN_POINT('',(-20.9964878015348,0.,-9.));
#1569=CARTESIAN_POINT('Origin',(-38.8964466094067,0.5,-19.3964466094067));
#1570=CARTESIAN_POINT('',(-50.,1.,-9.00000000000001));
#1571=CARTESIAN_POINT('',(-49.,1.,-10.));
#1572=CARTESIAN_POINT('',(-39.25,1.,-19.75));
#1573=CARTESIAN_POINT('',(-48.5857864376269,0.,-8.99999999999999));
#1574=CARTESIAN_POINT('',(-49.,1.,-10.));
#1575=CARTESIAN_POINT('',(-49.,0.,-8.58578643762691));
#1576=CARTESIAN_POINT('',(-38.5428932188134,0.,-19.0428932188135));
#1577=CARTESIAN_POINT('',(-50.,1.,-9.00000000000001));
#1578=CARTESIAN_POINT('Origin',(0.,0.5,0.));
#1579=CARTESIAN_POINT('',(-38.2928460130215,1.,17.4947976330972));
#1580=CARTESIAN_POINT('',(-38.8744735833129,1.,16.1612284069098));
#1581=CARTESIAN_POINT('Origin',(0.,1.,0.));
#1582=CARTESIAN_POINT('',(-37.9510894126879,0.,15.7773512476008));
#1583=CARTESIAN_POINT('',(-38.8744735833129,1.,16.1612284069098));
#1584=CARTESIAN_POINT('',(-37.5698353582731,0.,16.6648573696942));
#1585=CARTESIAN_POINT('Origin',(0.,0.,0.));
#1586=CARTESIAN_POINT('Ctrl Pts',(-37.5698353582731,2.63677968348475E-15,
16.6648573696942));
#1587=CARTESIAN_POINT('Ctrl Pts',(-37.8117350453496,0.33308159212059,16.9409786659882));
#1588=CARTESIAN_POINT('Ctrl Pts',(-38.0527528430288,0.666454139315517,17.2176621069144));
#1589=CARTESIAN_POINT('Ctrl Pts',(-38.2928460130215,1.00000000000001,17.4947976330972));
#1590=CARTESIAN_POINT('Origin',(-21.564895839412,0.5,21.8847732006033));
#1591=CARTESIAN_POINT('',(-33.1247336675093,0.,17.9698733613919));
#1592=CARTESIAN_POINT('',(-21.4240478067152,0.,21.405021356745));
#1593=CARTESIAN_POINT('',(-32.9955678841871,1.,19.05));
#1594=CARTESIAN_POINT('',(-33.1247336675093,0.,17.9698733613919));
#1595=CARTESIAN_POINT('',(-21.7057438721089,1.,22.3645250444616));
#1596=CARTESIAN_POINT('Origin',(-18.4798347496624,0.5,10.0919872981078));
#1597=CARTESIAN_POINT('',(-31.6648840844948,0.,17.1270288116621));
#1598=CARTESIAN_POINT('',(-18.7298347496624,0.,9.65897459621556));
#1599=CARTESIAN_POINT('Ctrl Pts',(-31.6648840844948,2.84494650060196E-15,
17.1270288116621));
#1600=CARTESIAN_POINT('Ctrl Pts',(-31.7943927372545,0.3317117670783,17.5848284232273));
#1601=CARTESIAN_POINT('Ctrl Pts',(-31.9203741987372,0.665144167536514,18.0425784262495));
#1602=CARTESIAN_POINT('Ctrl Pts',(-32.0429399400242,1.,18.5));
#1603=CARTESIAN_POINT('',(-18.2298347496624,1.,10.525));
#1604=CARTESIAN_POINT('Origin',(0.,0.5,0.));
#1605=CARTESIAN_POINT('',(-31.6648840844948,0.,-17.1270288116622));
#1606=CARTESIAN_POINT('Origin',(0.,0.,0.));
#1607=CARTESIAN_POINT('Ctrl Pts',(-31.6648840844948,1.45716771982052E-15,
-17.1270288116622));
#1608=CARTESIAN_POINT('Ctrl Pts',(-31.7943927372544,0.331711767078104,-17.5848284232271));
#1609=CARTESIAN_POINT('Ctrl Pts',(-31.920374198737,0.665144167536099,-18.0425784262489));
#1610=CARTESIAN_POINT('Ctrl Pts',(-32.0429399400242,1.00000000000001,-18.5));
#1611=CARTESIAN_POINT('Origin',(-9.99278579257493,0.5,-5.19198729810779));
#1612=CARTESIAN_POINT('',(-32.9955678841871,1.,-19.05));
#1613=CARTESIAN_POINT('',(-9.74278579257493,1.,-5.62500000000001));
#1614=CARTESIAN_POINT('',(-33.1247336675093,0.,-17.9698733613919));
#1615=CARTESIAN_POINT('',(-10.2427857925749,0.,-4.75897459621557));
#1616=CARTESIAN_POINT('',(-33.1247336675093,0.,-17.9698733613919));
#1617=CARTESIAN_POINT('Origin',(-21.564895839412,0.5,-21.8847732006033));
#1618=CARTESIAN_POINT('',(-38.2928460130215,1.,-17.4947976330972));
#1619=CARTESIAN_POINT('',(-21.7057438721088,1.,-22.3645250444616));
#1620=CARTESIAN_POINT('',(-37.5698353582731,0.,-16.6648573696942));
#1621=CARTESIAN_POINT('',(-21.4240478067151,0.,-21.405021356745));
#1622=CARTESIAN_POINT('Ctrl Pts',(-37.5698353582731,-2.56739074444567E-15,
-16.6648573696942));
#1623=CARTESIAN_POINT('Ctrl Pts',(-37.8117350453485,0.333081592119082,-16.940978665987));
#1624=CARTESIAN_POINT('Ctrl Pts',(-38.0527528430266,0.666454139312395,-17.2176621069119));
#1625=CARTESIAN_POINT('Ctrl Pts',(-38.2928460130215,0.999999999999999,-17.4947976330973));
#1626=CARTESIAN_POINT('Origin',(-24.0541576447815,0.5,-9.5));
#1627=CARTESIAN_POINT('',(-48.108315289563,1.,-10.));
#1628=CARTESIAN_POINT('',(-24.0541576447815,1.,-10.));
#1629=CARTESIAN_POINT('',(-48.108315289563,0.,-9.));
#1630=CARTESIAN_POINT('',(-48.108315289563,1.,-10.));
#1631=CARTESIAN_POINT('',(-24.0541576447815,0.,-9.));
#1632=CARTESIAN_POINT('Origin',(-48.108315289563,0.5,-20.));
#1633=CARTESIAN_POINT('',(-38.8744735833129,1.,-16.1612284069098));
#1634=CARTESIAN_POINT('',(-37.9510894126879,0.,-15.7773512476007));
#1635=CARTESIAN_POINT('',(-38.8744735833129,1.,-16.1612284069098));
#1636=CARTESIAN_POINT('Origin',(-48.108315289563,0.,-20.));
#1637=CARTESIAN_POINT('Origin',(-48.108315289563,1.,-20.));
#1638=CARTESIAN_POINT('Origin',(0.,0.5,0.));
#1639=CARTESIAN_POINT('Origin',(0.,0.,0.));
#1640=CARTESIAN_POINT('Origin',(0.,1.,0.));
#1641=CARTESIAN_POINT('Origin',(-48.108315289563,0.5,20.));
#1642=CARTESIAN_POINT('',(-48.108315289563,1.,10.));
#1643=CARTESIAN_POINT('',(-48.108315289563,0.,8.99999999999999));
#1644=CARTESIAN_POINT('',(-48.108315289563,1.,10.));
#1645=CARTESIAN_POINT('Origin',(-48.108315289563,0.,20.));
#1646=CARTESIAN_POINT('Origin',(-48.108315289563,1.,20.));
#1647=CARTESIAN_POINT('Origin',(-24.5,0.5,9.49999999999999));
#1648=CARTESIAN_POINT('',(-48.5857864376269,0.,9.));
#1649=CARTESIAN_POINT('',(-24.5,0.,9.));
#1650=CARTESIAN_POINT('',(-49.,1.,10.));
#1651=CARTESIAN_POINT('',(-24.5,1.,10.));
#1652=CARTESIAN_POINT('',(-49.,1.,10.));
#1653=CARTESIAN_POINT('Origin',(-39.3964466094068,0.5,18.8964466094067));
#1654=CARTESIAN_POINT('',(-49.,0.,8.5857864376269));
#1655=CARTESIAN_POINT('',(-39.0428932188135,0.,18.5428932188134));
#1656=CARTESIAN_POINT('',(-50.,1.,8.99999999999999));
#1657=CARTESIAN_POINT('',(-39.7500000000001,1.,19.25));
#1658=CARTESIAN_POINT('',(-50.,1.,8.99999999999999));
#1659=CARTESIAN_POINT('Origin',(-49.5,0.5,-4.5));
#1660=CARTESIAN_POINT('',(-49.,0.,-4.5));
#1661=CARTESIAN_POINT('',(-50.,1.,-4.5));
#1662=CARTESIAN_POINT('Origin',(-48.108315289563,0.,-10.));
#1663=CARTESIAN_POINT('',(-49.,20.,-10.));
#1664=CARTESIAN_POINT('',(-49.,0.,-10.));
#1665=CARTESIAN_POINT('',(-48.108315289563,20.,-10.));
#1666=CARTESIAN_POINT('',(-48.108315289563,20.,-10.));
#1667=CARTESIAN_POINT('',(-48.108315289563,0.,-10.));
#1668=CARTESIAN_POINT('Origin',(-49.,0.,-10.));
#1669=CARTESIAN_POINT('',(-50.,20.,-9.00000000000001));
#1670=CARTESIAN_POINT('',(-50.,0.,-9.00000000000001));
#1671=CARTESIAN_POINT('',(-49.,20.,-10.));
#1672=CARTESIAN_POINT('Origin',(-50.,0.,-9.00000000000001));
#1673=CARTESIAN_POINT('',(-50.,20.,8.99999999999999));
#1674=CARTESIAN_POINT('',(-50.,0.,8.99999999999999));
#1675=CARTESIAN_POINT('',(-50.,20.,-9.00000000000001));
#1676=CARTESIAN_POINT('Origin',(-50.,0.,8.99999999999999));
#1677=CARTESIAN_POINT('',(-49.,20.,10.));
#1678=CARTESIAN_POINT('',(-49.,6.,10.));
#1679=CARTESIAN_POINT('',(-50.,20.,8.99999999999999));
#1680=CARTESIAN_POINT('Origin',(-49.,0.,10.));
#1681=CARTESIAN_POINT('',(-48.108315289563,20.,10.));
#1682=CARTESIAN_POINT('',(-48.108315289563,0.,10.));
#1683=CARTESIAN_POINT('',(-49.,20.,10.));
#1684=CARTESIAN_POINT('Origin',(-48.108315289563,0.,20.));
#1685=CARTESIAN_POINT('',(-38.8744735833129,0.,16.1612284069098));
#1686=CARTESIAN_POINT('',(-42.7337379151986,20.,11.5670931437036));
#1687=CARTESIAN_POINT('',(-42.7337379151986,0.,11.5670931437036));
#1688=CARTESIAN_POINT('Origin',(-48.108315289563,20.,20.));
#1689=CARTESIAN_POINT('Origin',(0.,0.,0.));
#1690=CARTESIAN_POINT('',(-38.2928460130215,6.,17.4947976330972));
#1691=CARTESIAN_POINT('Origin',(0.,0.,0.));
#1692=CARTESIAN_POINT('Origin',(0.,0.,0.));
#1693=CARTESIAN_POINT('Origin',(0.,8.,0.));
#1694=CARTESIAN_POINT('',(27.,6.,3.30654635769785E-15));
#1695=CARTESIAN_POINT('Origin',(0.,6.,0.));
#1696=CARTESIAN_POINT('',(31.,10.,-3.7964050773568E-15));
#1697=CARTESIAN_POINT('',(29.,8.,3.55147571752732E-15));
#1698=CARTESIAN_POINT('Origin',(0.,10.,0.));
#1699=CARTESIAN_POINT('Origin',(0.,6.,0.));
#1700=CARTESIAN_POINT('',(31.,6.,-3.7964050773568E-15));
#1701=CARTESIAN_POINT('Origin',(0.,6.,0.));
#1702=CARTESIAN_POINT('',(-7.55,6.,9.24608333356252E-16));
#1703=CARTESIAN_POINT('Origin',(0.,6.,0.));
#1704=CARTESIAN_POINT('Origin',(-36.4596694993249,0.,21.05));
#1705=CARTESIAN_POINT('',(-32.9955678841871,6.,19.05));
#1706=CARTESIAN_POINT('Origin',(0.,11.5,0.));
#1707=CARTESIAN_POINT('',(6.55,12.,8.02143653441516E-16));
#1708=CARTESIAN_POINT('Origin',(0.,12.,0.));
#1709=CARTESIAN_POINT('',(7.55,11.,-9.24608333356252E-16));
#1710=CARTESIAN_POINT('',(7.05,11.5,-8.63375993398884E-16));
#1711=CARTESIAN_POINT('',(-7.55,11.,9.24608333356252E-16));
#1712=CARTESIAN_POINT('Origin',(0.,11.,0.));
#1713=CARTESIAN_POINT('Origin',(0.,11.,0.));
#1714=CARTESIAN_POINT('Origin',(0.,6.,0.));
#1715=CARTESIAN_POINT('',(-7.55,6.,9.24608333356252E-16));
#1716=CARTESIAN_POINT('Origin',(0.,12.,0.));
#1717=CARTESIAN_POINT('Origin',(-35.6442069486043,0.,18.2723988165486));
#1718=CARTESIAN_POINT('Origin',(-35.6442069486043,0.,-18.2723988165486));
#1719=CARTESIAN_POINT('',(-38.2928460130215,0.,-17.4947976330972));
#1720=CARTESIAN_POINT('',(-32.9955678841871,6.,-19.05));
#1721=CARTESIAN_POINT('Origin',(0.,0.,0.));
#1722=CARTESIAN_POINT('',(-38.8744735833129,0.,-16.1612284069098));
#1723=CARTESIAN_POINT('Origin',(-41.7554115692247,0.,11.0189863980684));
#1724=CARTESIAN_POINT('',(-40.7770852232508,20.,10.4708796524333));
#1725=CARTESIAN_POINT('',(-40.7770852232508,0.,10.4708796524333));
#1726=CARTESIAN_POINT('',(-40.4266917112468,20.,10.2745718985364));
#1727=CARTESIAN_POINT('Origin',(-44.4372367916564,20.,2.22044604925031E-14));
#1728=CARTESIAN_POINT('Origin',(0.,20.,0.));
#1729=CARTESIAN_POINT('Origin',(-48.108315289563,20.,-20.));
#1730=CARTESIAN_POINT('Origin',(0.,6.,0.));
#1731=CARTESIAN_POINT('Origin',(-48.108315289563,0.,-20.));
#1732=CARTESIAN_POINT('Origin',(-19.4855715851499,0.,-11.25));
#1733=UNCERTAINTY_MEASURE_WITH_UNIT(LENGTH_MEASURE(0.01),#1737,
'DISTANCE_ACCURACY_VALUE',
'Maximum model space distance between geometric entities at asserted c
onnectivities');
#1734=UNCERTAINTY_MEASURE_WITH_UNIT(LENGTH_MEASURE(0.01),#1737,
'DISTANCE_ACCURACY_VALUE',
'Maximum model space distance between geometric entities at asserted c
onnectivities');
#1735=(
GEOMETRIC_REPRESENTATION_CONTEXT(3)
GLOBAL_UNCERTAINTY_ASSIGNED_CONTEXT((#1733))
GLOBAL_UNIT_ASSIGNED_CONTEXT((#1737,#1739,#1740))
REPRESENTATION_CONTEXT('','3D')
);
#1736=(
GEOMETRIC_REPRESENTATION_CONTEXT(3)
GLOBAL_UNCERTAINTY_ASSIGNED_CONTEXT((#1734))
GLOBAL_UNIT_ASSIGNED_CONTEXT((#1737,#1739,#1740))
REPRESENTATION_CONTEXT('','3D')
);
#1737=(
LENGTH_UNIT()
NAMED_UNIT(*)
SI_UNIT(.MILLI.,.METRE.)
);
#1738=(
LENGTH_UNIT()
NAMED_UNIT(*)
SI_UNIT(.CENTI.,.METRE.)
);
#1739=(
NAMED_UNIT(*)
PLANE_ANGLE_UNIT()
SI_UNIT($,.RADIAN.)
);
#1740=(
NAMED_UNIT(*)
SI_UNIT($,.STERADIAN.)
SOLID_ANGLE_UNIT()
);
#1741=SHAPE_DEFINITION_REPRESENTATION(#1742,#1743);
#1742=PRODUCT_DEFINITION_SHAPE('',$,#1745);
#1743=SHAPE_REPRESENTATION('',(#1008),#1735);
#1744=PRODUCT_DEFINITION_CONTEXT('part definition',#1749,'design');
#1745=PRODUCT_DEFINITION('rotor_hub_glue_alignment',
'rotor_hub_glue_alignment',#1746,#1744);
#1746=PRODUCT_DEFINITION_FORMATION('',$,#1751);
#1747=PRODUCT_RELATED_PRODUCT_CATEGORY('rotor_hub_glue_alignment',
'rotor_hub_glue_alignment',(#1751));
#1748=APPLICATION_PROTOCOL_DEFINITION('international standard',
'automotive_design',2009,#1749);
#1749=APPLICATION_CONTEXT(
'Core Data for Automotive Mechanical Design Process');
#1750=PRODUCT_CONTEXT('part definition',#1749,'mechanical');
#1751=PRODUCT('rotor_hub_glue_alignment','rotor_hub_glue_alignment',$,(#1750));
#1752=PRESENTATION_STYLE_ASSIGNMENT((#1753));
#1753=SURFACE_STYLE_USAGE(.BOTH.,#1756);
#1754=SURFACE_STYLE_RENDERING_WITH_PROPERTIES($,#1760,(#1755));
#1755=SURFACE_STYLE_TRANSPARENT(0.);
#1756=SURFACE_SIDE_STYLE('',(#1757,#1754));
#1757=SURFACE_STYLE_FILL_AREA(#1758);
#1758=FILL_AREA_STYLE('',(#1759));
#1759=FILL_AREA_STYLE_COLOUR('',#1760);
#1760=COLOUR_RGB('',0.749019607843137,0.749019607843137,0.749019607843137);
ENDSEC;
END-ISO-10303-21;
