ISO-10303-21;
HEADER;
/* Generated by software containing ST-Developer
 * from STEP Tools, Inc. (www.steptools.com) 
 */

FILE_DESCRIPTION(
/* description */ (''),
/* implementation_level */ '2;1');

FILE_NAME(
/* name */ 'spool_center.stp',
/* time_stamp */ '2026-05-18T19:18:42-07:00',
/* author */ ('aaron'),
/* organization */ (''),
/* preprocessor_version */ 'ST-DEVELOPER v20.1',
/* originating_system */ 'Autodesk Inventor 2026',
/* authorisation */ '');

FILE_SCHEMA (('AUTOMOTIVE_DESIGN { 1 0 10303 214 3 1 1 }'));
ENDSEC;

DATA;
#10=MECHANICAL_DESIGN_GEOMETRIC_PRESENTATION_REPRESENTATION('',(#13),#1492);
#11=SHAPE_REPRESENTATION_RELATIONSHIP('SRR','None',#1499,#12);
#12=ADVANCED_BREP_SHAPE_REPRESENTATION('',(#14),#1491);
#13=STYLED_ITEM('',(#1508),#14);
#14=MANIFOLD_SOLID_BREP('Solid2',#812);
#15=FACE_BOUND('',#172,.T.);
#16=FACE_BOUND('',#175,.T.);
#17=FACE_BOUND('',#181,.T.);
#18=FACE_BOUND('',#183,.T.);
#19=FACE_BOUND('',#184,.T.);
#20=FACE_BOUND('',#185,.T.);
#21=FACE_BOUND('',#186,.T.);
#22=FACE_BOUND('',#187,.T.);
#23=FACE_BOUND('',#188,.T.);
#24=FACE_BOUND('',#189,.T.);
#25=FACE_BOUND('',#191,.T.);
#26=FACE_BOUND('',#192,.T.);
#27=FACE_BOUND('',#193,.T.);
#28=FACE_BOUND('',#194,.T.);
#29=FACE_BOUND('',#195,.T.);
#30=FACE_BOUND('',#196,.T.);
#31=FACE_BOUND('',#197,.T.);
#32=B_SPLINE_CURVE_WITH_KNOTS('',3,(#1387,#1388,#1389,#1390,#1391,#1392,
#1393,#1394,#1395,#1396,#1397,#1398,#1399,#1400,#1401,#1402,#1403,#1404),
 .UNSPECIFIED.,.F.,.F.,(4,2,2,2,2,2,2,2,4),(0.,0.12446334520458,0.24892669040916,
0.373388740387003,0.497850790364846,0.622312840423303,0.746774890481759,
0.871238235694987,0.995701580908216),.UNSPECIFIED.);
#33=B_SPLINE_CURVE_WITH_KNOTS('',3,(#1405,#1406,#1407,#1408,#1409,#1410,
#1411,#1412,#1413,#1414,#1415,#1416,#1417,#1418,#1419,#1420,#1421,#1422),
 .UNSPECIFIED.,.F.,.F.,(4,2,2,2,2,2,2,2,4),(0.995701580908216,1.12016492612144,
1.24462827133467,1.36909032139313,1.49355237145159,1.61801442142943,1.74247647140727,
1.86693981661185,1.99140316181643),.UNSPECIFIED.);
#34=B_SPLINE_CURVE_WITH_KNOTS('',3,(#1457,#1458,#1459,#1460,#1461,#1462),
 .UNSPECIFIED.,.F.,.F.,(4,2,4),(0.352676773478219,0.438024928508492,0.523373083538764),
 .UNSPECIFIED.);
#35=B_SPLINE_CURVE_WITH_KNOTS('',3,(#1466,#1467,#1468,#1469,#1470,#1471),
 .UNSPECIFIED.,.F.,.F.,(4,2,4),(1.2287266304952,1.31407478552548,1.39942294055575),
 .UNSPECIFIED.);
#36=CYLINDRICAL_SURFACE('',#847,3.55);
#37=CYLINDRICAL_SURFACE('',#853,3.55);
#38=CYLINDRICAL_SURFACE('',#859,3.55);
#39=CYLINDRICAL_SURFACE('',#865,3.55);
#40=CYLINDRICAL_SURFACE('',#871,3.55);
#41=CYLINDRICAL_SURFACE('',#877,3.55);
#42=CYLINDRICAL_SURFACE('',#883,3.55);
#43=CYLINDRICAL_SURFACE('',#889,3.55);
#44=CYLINDRICAL_SURFACE('',#895,3.55);
#45=CYLINDRICAL_SURFACE('',#901,3.55);
#46=CYLINDRICAL_SURFACE('',#907,3.55);
#47=CYLINDRICAL_SURFACE('',#913,3.55);
#48=CYLINDRICAL_SURFACE('',#917,3.3);
#49=CYLINDRICAL_SURFACE('',#925,25.);
#50=CYLINDRICAL_SURFACE('',#927,7.55);
#51=CYLINDRICAL_SURFACE('',#934,2.875);
#52=PLANE('',#846);
#53=PLANE('',#852);
#54=PLANE('',#858);
#55=PLANE('',#864);
#56=PLANE('',#870);
#57=PLANE('',#876);
#58=PLANE('',#882);
#59=PLANE('',#888);
#60=PLANE('',#894);
#61=PLANE('',#900);
#62=PLANE('',#906);
#63=PLANE('',#912);
#64=PLANE('',#915);
#65=PLANE('',#922);
#66=PLANE('',#923);
#67=PLANE('',#924);
#68=PLANE('',#926);
#69=PLANE('',#930);
#70=PLANE('',#931);
#71=PLANE('',#937);
#72=PLANE('',#938);
#73=PLANE('',#939);
#74=PLANE('',#940);
#75=FACE_OUTER_BOUND('',#128,.T.);
#76=FACE_OUTER_BOUND('',#129,.T.);
#77=FACE_OUTER_BOUND('',#130,.T.);
#78=FACE_OUTER_BOUND('',#131,.T.);
#79=FACE_OUTER_BOUND('',#132,.T.);
#80=FACE_OUTER_BOUND('',#133,.T.);
#81=FACE_OUTER_BOUND('',#134,.T.);
#82=FACE_OUTER_BOUND('',#135,.T.);
#83=FACE_OUTER_BOUND('',#136,.T.);
#84=FACE_OUTER_BOUND('',#137,.T.);
#85=FACE_OUTER_BOUND('',#138,.T.);
#86=FACE_OUTER_BOUND('',#139,.T.);
#87=FACE_OUTER_BOUND('',#140,.T.);
#88=FACE_OUTER_BOUND('',#141,.T.);
#89=FACE_OUTER_BOUND('',#142,.T.);
#90=FACE_OUTER_BOUND('',#143,.T.);
#91=FACE_OUTER_BOUND('',#144,.T.);
#92=FACE_OUTER_BOUND('',#145,.T.);
#93=FACE_OUTER_BOUND('',#146,.T.);
#94=FACE_OUTER_BOUND('',#147,.T.);
#95=FACE_OUTER_BOUND('',#148,.T.);
#96=FACE_OUTER_BOUND('',#149,.T.);
#97=FACE_OUTER_BOUND('',#150,.T.);
#98=FACE_OUTER_BOUND('',#151,.T.);
#99=FACE_OUTER_BOUND('',#152,.T.);
#100=FACE_OUTER_BOUND('',#153,.T.);
#101=FACE_OUTER_BOUND('',#154,.T.);
#102=FACE_OUTER_BOUND('',#155,.T.);
#103=FACE_OUTER_BOUND('',#156,.T.);
#104=FACE_OUTER_BOUND('',#157,.T.);
#105=FACE_OUTER_BOUND('',#158,.T.);
#106=FACE_OUTER_BOUND('',#159,.T.);
#107=FACE_OUTER_BOUND('',#160,.T.);
#108=FACE_OUTER_BOUND('',#161,.T.);
#109=FACE_OUTER_BOUND('',#162,.T.);
#110=FACE_OUTER_BOUND('',#163,.T.);
#111=FACE_OUTER_BOUND('',#164,.T.);
#112=FACE_OUTER_BOUND('',#165,.T.);
#113=FACE_OUTER_BOUND('',#166,.T.);
#114=FACE_OUTER_BOUND('',#167,.T.);
#115=FACE_OUTER_BOUND('',#168,.T.);
#116=FACE_OUTER_BOUND('',#169,.T.);
#117=FACE_OUTER_BOUND('',#170,.T.);
#118=FACE_OUTER_BOUND('',#171,.T.);
#119=FACE_OUTER_BOUND('',#173,.T.);
#120=FACE_OUTER_BOUND('',#174,.T.);
#121=FACE_OUTER_BOUND('',#176,.T.);
#122=FACE_OUTER_BOUND('',#177,.T.);
#123=FACE_OUTER_BOUND('',#178,.T.);
#124=FACE_OUTER_BOUND('',#179,.T.);
#125=FACE_OUTER_BOUND('',#180,.T.);
#126=FACE_OUTER_BOUND('',#182,.T.);
#127=FACE_OUTER_BOUND('',#190,.T.);
#128=EDGE_LOOP('',(#527,#528,#529,#530,#531,#532,#533,#534));
#129=EDGE_LOOP('',(#535,#536,#537,#538,#539,#540,#541,#542));
#130=EDGE_LOOP('',(#543,#544,#545,#546));
#131=EDGE_LOOP('',(#547));
#132=EDGE_LOOP('',(#548,#549,#550,#551));
#133=EDGE_LOOP('',(#552,#553,#554,#555));
#134=EDGE_LOOP('',(#556));
#135=EDGE_LOOP('',(#557,#558,#559,#560));
#136=EDGE_LOOP('',(#561,#562,#563,#564));
#137=EDGE_LOOP('',(#565));
#138=EDGE_LOOP('',(#566,#567,#568,#569));
#139=EDGE_LOOP('',(#570,#571,#572,#573));
#140=EDGE_LOOP('',(#574));
#141=EDGE_LOOP('',(#575,#576,#577,#578));
#142=EDGE_LOOP('',(#579,#580,#581,#582));
#143=EDGE_LOOP('',(#583));
#144=EDGE_LOOP('',(#584,#585,#586,#587));
#145=EDGE_LOOP('',(#588,#589,#590,#591));
#146=EDGE_LOOP('',(#592));
#147=EDGE_LOOP('',(#593,#594,#595,#596));
#148=EDGE_LOOP('',(#597,#598,#599,#600));
#149=EDGE_LOOP('',(#601));
#150=EDGE_LOOP('',(#602,#603,#604,#605));
#151=EDGE_LOOP('',(#606,#607,#608,#609));
#152=EDGE_LOOP('',(#610));
#153=EDGE_LOOP('',(#611,#612,#613,#614));
#154=EDGE_LOOP('',(#615,#616,#617,#618));
#155=EDGE_LOOP('',(#619));
#156=EDGE_LOOP('',(#620,#621,#622,#623));
#157=EDGE_LOOP('',(#624,#625,#626,#627));
#158=EDGE_LOOP('',(#628));
#159=EDGE_LOOP('',(#629,#630,#631,#632));
#160=EDGE_LOOP('',(#633,#634,#635,#636));
#161=EDGE_LOOP('',(#637));
#162=EDGE_LOOP('',(#638,#639,#640,#641));
#163=EDGE_LOOP('',(#642,#643,#644,#645));
#164=EDGE_LOOP('',(#646));
#165=EDGE_LOOP('',(#647,#648,#649,#650));
#166=EDGE_LOOP('',(#651,#652));
#167=EDGE_LOOP('',(#653,#654,#655,#656,#657,#658,#659,#660,#661));
#168=EDGE_LOOP('',(#662,#663,#664));
#169=EDGE_LOOP('',(#665,#666,#667,#668));
#170=EDGE_LOOP('',(#669,#670,#671,#672));
#171=EDGE_LOOP('',(#673,#674,#675,#676,#677,#678));
#172=EDGE_LOOP('',(#679,#680));
#173=EDGE_LOOP('',(#681,#682,#683,#684,#685,#686));
#174=EDGE_LOOP('',(#687,#688,#689,#690));
#175=EDGE_LOOP('',(#691,#692,#693,#694));
#176=EDGE_LOOP('',(#695,#696,#697,#698,#699,#700));
#177=EDGE_LOOP('',(#701,#702,#703));
#178=EDGE_LOOP('',(#704,#705,#706,#707,#708,#709,#710,#711));
#179=EDGE_LOOP('',(#712,#713));
#180=EDGE_LOOP('',(#714,#715,#716,#717,#718,#719,#720,#721));
#181=EDGE_LOOP('',(#722));
#182=EDGE_LOOP('',(#723));
#183=EDGE_LOOP('',(#724));
#184=EDGE_LOOP('',(#725));
#185=EDGE_LOOP('',(#726));
#186=EDGE_LOOP('',(#727));
#187=EDGE_LOOP('',(#728));
#188=EDGE_LOOP('',(#729));
#189=EDGE_LOOP('',(#730,#731,#732,#733));
#190=EDGE_LOOP('',(#734));
#191=EDGE_LOOP('',(#735));
#192=EDGE_LOOP('',(#736));
#193=EDGE_LOOP('',(#737));
#194=EDGE_LOOP('',(#738));
#195=EDGE_LOOP('',(#739));
#196=EDGE_LOOP('',(#740));
#197=EDGE_LOOP('',(#741,#742,#743,#744));
#198=(
BOUNDED_CURVE()
B_SPLINE_CURVE(2,(#1210,#1211,#1212),.UNSPECIFIED.,.F.,.F.)
B_SPLINE_CURVE_WITH_KNOTS((3,3),(3.73672402130909,4.18880819930454),
 .UNSPECIFIED.)
CURVE()
GEOMETRIC_REPRESENTATION_ITEM()
RATIONAL_B_SPLINE_CURVE((1.60855263157895,1.62795522922872,1.64314516128893))
REPRESENTATION_ITEM('')
);
#199=(
BOUNDED_CURVE()
B_SPLINE_CURVE(2,(#1214,#1215,#1216),.UNSPECIFIED.,.F.,.F.)
B_SPLINE_CURVE_WITH_KNOTS((3,3),(1.11328808601127,3.12935260110802),
 .UNSPECIFIED.)
CURVE()
GEOMETRIC_REPRESENTATION_ITEM()
RATIONAL_B_SPLINE_CURVE((1.12903225806452,1.20430107526882,1.12903225806452))
REPRESENTATION_ITEM('')
);
#200=(
BOUNDED_CURVE()
B_SPLINE_CURVE(2,(#1218,#1219,#1220),.UNSPECIFIED.,.F.,.F.)
B_SPLINE_CURVE_WITH_KNOTS((3,3),(7.4490375259575,7.90112170395297),
 .UNSPECIFIED.)
CURVE()
GEOMETRIC_REPRESENTATION_ITEM()
RATIONAL_B_SPLINE_CURVE((1.64314516128893,1.62795522922872,1.60855263157895))
REPRESENTATION_ITEM('')
);
#201=(
BOUNDED_CURVE()
B_SPLINE_CURVE(2,(#1230,#1231,#1232),.UNSPECIFIED.,.F.,.F.)
B_SPLINE_CURVE_WITH_KNOTS((3,3),(3.73672402130909,4.18880819930454),
 .UNSPECIFIED.)
CURVE()
GEOMETRIC_REPRESENTATION_ITEM()
RATIONAL_B_SPLINE_CURVE((1.60855263157895,1.62795522922872,1.64314516128892))
REPRESENTATION_ITEM('')
);
#202=(
BOUNDED_CURVE()
B_SPLINE_CURVE(2,(#1234,#1235,#1236),.UNSPECIFIED.,.F.,.F.)
B_SPLINE_CURVE_WITH_KNOTS((3,3),(1.11328808601127,3.12935260110801),
 .UNSPECIFIED.)
CURVE()
GEOMETRIC_REPRESENTATION_ITEM()
RATIONAL_B_SPLINE_CURVE((1.12903225806452,1.20430107526882,1.12903225806452))
REPRESENTATION_ITEM('')
);
#203=(
BOUNDED_CURVE()
B_SPLINE_CURVE(2,(#1238,#1239,#1240),.UNSPECIFIED.,.F.,.F.)
B_SPLINE_CURVE_WITH_KNOTS((3,3),(7.4490375259575,7.90112170395296),
 .UNSPECIFIED.)
CURVE()
GEOMETRIC_REPRESENTATION_ITEM()
RATIONAL_B_SPLINE_CURVE((1.64314516128892,1.62795522922872,1.60855263157895))
REPRESENTATION_ITEM('')
);
#204=LINE('',#1206,#250);
#205=LINE('',#1226,#251);
#206=LINE('',#1246,#252);
#207=LINE('',#1252,#253);
#208=LINE('',#1257,#254);
#209=LINE('',#1263,#255);
#210=LINE('',#1268,#256);
#211=LINE('',#1274,#257);
#212=LINE('',#1279,#258);
#213=LINE('',#1285,#259);
#214=LINE('',#1290,#260);
#215=LINE('',#1296,#261);
#216=LINE('',#1301,#262);
#217=LINE('',#1307,#263);
#218=LINE('',#1312,#264);
#219=LINE('',#1317,#265);
#220=LINE('',#1323,#266);
#221=LINE('',#1328,#267);
#222=LINE('',#1334,#268);
#223=LINE('',#1339,#269);
#224=LINE('',#1345,#270);
#225=LINE('',#1350,#271);
#226=LINE('',#1356,#272);
#227=LINE('',#1361,#273);
#228=LINE('',#1367,#274);
#229=LINE('',#1372,#275);
#230=LINE('',#1377,#276);
#231=LINE('',#1385,#277);
#232=LINE('',#1427,#278);
#233=LINE('',#1430,#279);
#234=LINE('',#1432,#280);
#235=LINE('',#1433,#281);
#236=LINE('',#1436,#282);
#237=LINE('',#1438,#283);
#238=LINE('',#1439,#284);
#239=LINE('',#1441,#285);
#240=LINE('',#1442,#286);
#241=LINE('',#1445,#287);
#242=LINE('',#1447,#288);
#243=LINE('',#1448,#289);
#244=LINE('',#1453,#290);
#245=LINE('',#1464,#291);
#246=LINE('',#1472,#292);
#247=LINE('',#1474,#293);
#248=LINE('',#1475,#294);
#249=LINE('',#1483,#295);
#250=VECTOR('',#947,22.5);
#251=VECTOR('',#956,22.5);
#252=VECTOR('',#965,2.05);
#253=VECTOR('',#974,3.55);
#254=VECTOR('',#979,2.05);
#255=VECTOR('',#988,3.55);
#256=VECTOR('',#993,2.05);
#257=VECTOR('',#1002,3.55);
#258=VECTOR('',#1007,2.05);
#259=VECTOR('',#1016,3.55);
#260=VECTOR('',#1021,2.05);
#261=VECTOR('',#1030,3.55);
#262=VECTOR('',#1035,2.05);
#263=VECTOR('',#1044,3.55);
#264=VECTOR('',#1049,2.05);
#265=VECTOR('',#1056,3.55);
#266=VECTOR('',#1063,2.05);
#267=VECTOR('',#1070,3.55);
#268=VECTOR('',#1077,2.05);
#269=VECTOR('',#1084,3.55);
#270=VECTOR('',#1091,2.05);
#271=VECTOR('',#1098,3.55);
#272=VECTOR('',#1105,2.05);
#273=VECTOR('',#1112,3.55);
#274=VECTOR('',#1119,2.05);
#275=VECTOR('',#1126,3.55);
#276=VECTOR('',#1131,10.);
#277=VECTOR('',#1140,3.3);
#278=VECTOR('',#1147,10.);
#279=VECTOR('',#1150,10.);
#280=VECTOR('',#1151,10.);
#281=VECTOR('',#1152,10.);
#282=VECTOR('',#1155,10.);
#283=VECTOR('',#1156,10.);
#284=VECTOR('',#1157,10.);
#285=VECTOR('',#1160,10.);
#286=VECTOR('',#1161,10.);
#287=VECTOR('',#1164,10.);
#288=VECTOR('',#1165,10.);
#289=VECTOR('',#1166,10.);
#290=VECTOR('',#1171,10.);
#291=VECTOR('',#1174,10.);
#292=VECTOR('',#1175,10.);
#293=VECTOR('',#1178,10.);
#294=VECTOR('',#1179,10.);
#295=VECTOR('',#1190,2.875);
#296=CIRCLE('',#836,21.);
#297=CIRCLE('',#837,25.);
#298=CIRCLE('',#838,25.);
#299=CIRCLE('',#840,21.);
#300=CIRCLE('',#841,25.);
#301=CIRCLE('',#842,25.);
#302=CIRCLE('',#844,3.55);
#303=CIRCLE('',#845,0.549999999999999);
#304=CIRCLE('',#848,3.55);
#305=CIRCLE('',#850,3.55);
#306=CIRCLE('',#851,0.549999999999999);
#307=CIRCLE('',#854,3.55);
#308=CIRCLE('',#856,3.55);
#309=CIRCLE('',#857,0.549999999999999);
#310=CIRCLE('',#860,3.55);
#311=CIRCLE('',#862,3.55);
#312=CIRCLE('',#863,0.549999999999999);
#313=CIRCLE('',#866,3.55);
#314=CIRCLE('',#868,3.55);
#315=CIRCLE('',#869,0.549999999999999);
#316=CIRCLE('',#872,3.55);
#317=CIRCLE('',#874,3.55);
#318=CIRCLE('',#875,0.549999999999999);
#319=CIRCLE('',#878,3.55);
#320=CIRCLE('',#880,3.55);
#321=CIRCLE('',#881,0.549999999999999);
#322=CIRCLE('',#884,3.55);
#323=CIRCLE('',#886,3.55);
#324=CIRCLE('',#887,0.549999999999999);
#325=CIRCLE('',#890,3.55);
#326=CIRCLE('',#892,3.55);
#327=CIRCLE('',#893,0.549999999999999);
#328=CIRCLE('',#896,3.55);
#329=CIRCLE('',#898,3.55);
#330=CIRCLE('',#899,0.549999999999999);
#331=CIRCLE('',#902,3.55);
#332=CIRCLE('',#904,3.55);
#333=CIRCLE('',#905,0.549999999999999);
#334=CIRCLE('',#908,3.55);
#335=CIRCLE('',#910,3.55);
#336=CIRCLE('',#911,0.549999999999999);
#337=CIRCLE('',#914,3.55);
#338=CIRCLE('',#916,3.3);
#339=CIRCLE('',#918,3.3);
#340=CIRCLE('',#919,3.3);
#341=CIRCLE('',#920,3.3);
#342=CIRCLE('',#921,3.3);
#343=CIRCLE('',#928,7.55);
#344=CIRCLE('',#929,7.55);
#345=CIRCLE('',#932,2.875);
#346=CIRCLE('',#933,2.875);
#347=CIRCLE('',#935,2.875);
#348=CIRCLE('',#936,2.875);
#349=VERTEX_POINT('',#1203);
#350=VERTEX_POINT('',#1205);
#351=VERTEX_POINT('',#1207);
#352=VERTEX_POINT('',#1209);
#353=VERTEX_POINT('',#1213);
#354=VERTEX_POINT('',#1217);
#355=VERTEX_POINT('',#1223);
#356=VERTEX_POINT('',#1225);
#357=VERTEX_POINT('',#1227);
#358=VERTEX_POINT('',#1229);
#359=VERTEX_POINT('',#1233);
#360=VERTEX_POINT('',#1237);
#361=VERTEX_POINT('',#1243);
#362=VERTEX_POINT('',#1245);
#363=VERTEX_POINT('',#1250);
#364=VERTEX_POINT('',#1254);
#365=VERTEX_POINT('',#1256);
#366=VERTEX_POINT('',#1261);
#367=VERTEX_POINT('',#1265);
#368=VERTEX_POINT('',#1267);
#369=VERTEX_POINT('',#1272);
#370=VERTEX_POINT('',#1276);
#371=VERTEX_POINT('',#1278);
#372=VERTEX_POINT('',#1283);
#373=VERTEX_POINT('',#1287);
#374=VERTEX_POINT('',#1289);
#375=VERTEX_POINT('',#1294);
#376=VERTEX_POINT('',#1298);
#377=VERTEX_POINT('',#1300);
#378=VERTEX_POINT('',#1305);
#379=VERTEX_POINT('',#1309);
#380=VERTEX_POINT('',#1311);
#381=VERTEX_POINT('',#1316);
#382=VERTEX_POINT('',#1320);
#383=VERTEX_POINT('',#1322);
#384=VERTEX_POINT('',#1327);
#385=VERTEX_POINT('',#1331);
#386=VERTEX_POINT('',#1333);
#387=VERTEX_POINT('',#1338);
#388=VERTEX_POINT('',#1342);
#389=VERTEX_POINT('',#1344);
#390=VERTEX_POINT('',#1349);
#391=VERTEX_POINT('',#1353);
#392=VERTEX_POINT('',#1355);
#393=VERTEX_POINT('',#1360);
#394=VERTEX_POINT('',#1364);
#395=VERTEX_POINT('',#1366);
#396=VERTEX_POINT('',#1371);
#397=VERTEX_POINT('',#1375);
#398=VERTEX_POINT('',#1376);
#399=VERTEX_POINT('',#1380);
#400=VERTEX_POINT('',#1382);
#401=VERTEX_POINT('',#1384);
#402=VERTEX_POINT('',#1386);
#403=VERTEX_POINT('',#1423);
#404=VERTEX_POINT('',#1429);
#405=VERTEX_POINT('',#1431);
#406=VERTEX_POINT('',#1435);
#407=VERTEX_POINT('',#1437);
#408=VERTEX_POINT('',#1444);
#409=VERTEX_POINT('',#1446);
#410=VERTEX_POINT('',#1450);
#411=VERTEX_POINT('',#1452);
#412=VERTEX_POINT('',#1455);
#413=VERTEX_POINT('',#1456);
#414=VERTEX_POINT('',#1463);
#415=VERTEX_POINT('',#1465);
#416=VERTEX_POINT('',#1477);
#417=VERTEX_POINT('',#1481);
#418=EDGE_CURVE('',#349,#349,#296,.T.);
#419=EDGE_CURVE('',#349,#350,#204,.T.);
#420=EDGE_CURVE('',#350,#351,#297,.T.);
#421=EDGE_CURVE('',#351,#352,#198,.T.);
#422=EDGE_CURVE('',#353,#352,#199,.F.);
#423=EDGE_CURVE('',#353,#354,#200,.T.);
#424=EDGE_CURVE('',#354,#350,#298,.T.);
#425=EDGE_CURVE('',#355,#355,#299,.T.);
#426=EDGE_CURVE('',#355,#356,#205,.T.);
#427=EDGE_CURVE('',#356,#357,#300,.T.);
#428=EDGE_CURVE('',#357,#358,#201,.T.);
#429=EDGE_CURVE('',#359,#358,#202,.F.);
#430=EDGE_CURVE('',#359,#360,#203,.T.);
#431=EDGE_CURVE('',#360,#356,#301,.T.);
#432=EDGE_CURVE('',#361,#361,#302,.T.);
#433=EDGE_CURVE('',#361,#362,#206,.T.);
#434=EDGE_CURVE('',#362,#362,#303,.T.);
#435=EDGE_CURVE('',#363,#363,#304,.T.);
#436=EDGE_CURVE('',#363,#361,#207,.T.);
#437=EDGE_CURVE('',#364,#364,#305,.T.);
#438=EDGE_CURVE('',#364,#365,#208,.T.);
#439=EDGE_CURVE('',#365,#365,#306,.T.);
#440=EDGE_CURVE('',#366,#366,#307,.T.);
#441=EDGE_CURVE('',#366,#364,#209,.T.);
#442=EDGE_CURVE('',#367,#367,#308,.T.);
#443=EDGE_CURVE('',#367,#368,#210,.T.);
#444=EDGE_CURVE('',#368,#368,#309,.T.);
#445=EDGE_CURVE('',#369,#369,#310,.T.);
#446=EDGE_CURVE('',#369,#367,#211,.T.);
#447=EDGE_CURVE('',#370,#370,#311,.T.);
#448=EDGE_CURVE('',#370,#371,#212,.T.);
#449=EDGE_CURVE('',#371,#371,#312,.T.);
#450=EDGE_CURVE('',#372,#372,#313,.T.);
#451=EDGE_CURVE('',#372,#370,#213,.T.);
#452=EDGE_CURVE('',#373,#373,#314,.T.);
#453=EDGE_CURVE('',#373,#374,#214,.T.);
#454=EDGE_CURVE('',#374,#374,#315,.T.);
#455=EDGE_CURVE('',#375,#375,#316,.T.);
#456=EDGE_CURVE('',#375,#373,#215,.T.);
#457=EDGE_CURVE('',#376,#376,#317,.T.);
#458=EDGE_CURVE('',#376,#377,#216,.T.);
#459=EDGE_CURVE('',#377,#377,#318,.T.);
#460=EDGE_CURVE('',#378,#378,#319,.T.);
#461=EDGE_CURVE('',#378,#376,#217,.T.);
#462=EDGE_CURVE('',#379,#379,#320,.T.);
#463=EDGE_CURVE('',#379,#380,#218,.T.);
#464=EDGE_CURVE('',#380,#380,#321,.T.);
#465=EDGE_CURVE('',#379,#381,#219,.T.);
#466=EDGE_CURVE('',#381,#381,#322,.T.);
#467=EDGE_CURVE('',#382,#382,#323,.T.);
#468=EDGE_CURVE('',#382,#383,#220,.T.);
#469=EDGE_CURVE('',#383,#383,#324,.T.);
#470=EDGE_CURVE('',#382,#384,#221,.T.);
#471=EDGE_CURVE('',#384,#384,#325,.T.);
#472=EDGE_CURVE('',#385,#385,#326,.T.);
#473=EDGE_CURVE('',#385,#386,#222,.T.);
#474=EDGE_CURVE('',#386,#386,#327,.T.);
#475=EDGE_CURVE('',#385,#387,#223,.T.);
#476=EDGE_CURVE('',#387,#387,#328,.T.);
#477=EDGE_CURVE('',#388,#388,#329,.T.);
#478=EDGE_CURVE('',#388,#389,#224,.T.);
#479=EDGE_CURVE('',#389,#389,#330,.T.);
#480=EDGE_CURVE('',#388,#390,#225,.T.);
#481=EDGE_CURVE('',#390,#390,#331,.T.);
#482=EDGE_CURVE('',#391,#391,#332,.T.);
#483=EDGE_CURVE('',#391,#392,#226,.T.);
#484=EDGE_CURVE('',#392,#392,#333,.T.);
#485=EDGE_CURVE('',#391,#393,#227,.T.);
#486=EDGE_CURVE('',#393,#393,#334,.T.);
#487=EDGE_CURVE('',#394,#394,#335,.T.);
#488=EDGE_CURVE('',#394,#395,#228,.T.);
#489=EDGE_CURVE('',#395,#395,#336,.T.);
#490=EDGE_CURVE('',#394,#396,#229,.T.);
#491=EDGE_CURVE('',#396,#396,#337,.T.);
#492=EDGE_CURVE('',#397,#398,#230,.T.);
#493=EDGE_CURVE('',#397,#398,#338,.T.);
#494=EDGE_CURVE('',#399,#398,#339,.T.);
#495=EDGE_CURVE('',#399,#400,#340,.T.);
#496=EDGE_CURVE('',#400,#401,#231,.T.);
#497=EDGE_CURVE('',#402,#401,#32,.T.);
#498=EDGE_CURVE('',#401,#402,#33,.T.);
#499=EDGE_CURVE('',#400,#403,#341,.T.);
#500=EDGE_CURVE('',#397,#403,#342,.T.);
#501=EDGE_CURVE('',#403,#399,#232,.T.);
#502=EDGE_CURVE('',#404,#403,#233,.T.);
#503=EDGE_CURVE('',#405,#404,#234,.T.);
#504=EDGE_CURVE('',#405,#397,#235,.T.);
#505=EDGE_CURVE('',#398,#406,#236,.T.);
#506=EDGE_CURVE('',#407,#406,#237,.T.);
#507=EDGE_CURVE('',#399,#407,#238,.T.);
#508=EDGE_CURVE('',#351,#360,#239,.T.);
#509=EDGE_CURVE('',#354,#357,#240,.T.);
#510=EDGE_CURVE('',#408,#407,#241,.T.);
#511=EDGE_CURVE('',#409,#408,#242,.T.);
#512=EDGE_CURVE('',#404,#409,#243,.T.);
#513=EDGE_CURVE('',#410,#408,#343,.T.);
#514=EDGE_CURVE('',#411,#410,#244,.T.);
#515=EDGE_CURVE('',#409,#411,#344,.T.);
#516=EDGE_CURVE('',#412,#413,#34,.T.);
#517=EDGE_CURVE('',#414,#412,#245,.T.);
#518=EDGE_CURVE('',#415,#414,#35,.T.);
#519=EDGE_CURVE('',#413,#415,#246,.T.);
#520=EDGE_CURVE('',#406,#410,#247,.T.);
#521=EDGE_CURVE('',#411,#405,#248,.T.);
#522=EDGE_CURVE('',#416,#412,#345,.T.);
#523=EDGE_CURVE('',#414,#416,#346,.T.);
#524=EDGE_CURVE('',#417,#417,#347,.T.);
#525=EDGE_CURVE('',#417,#416,#249,.T.);
#526=EDGE_CURVE('',#413,#415,#348,.T.);
#527=ORIENTED_EDGE('',*,*,#418,.F.);
#528=ORIENTED_EDGE('',*,*,#419,.T.);
#529=ORIENTED_EDGE('',*,*,#420,.T.);
#530=ORIENTED_EDGE('',*,*,#421,.T.);
#531=ORIENTED_EDGE('',*,*,#422,.F.);
#532=ORIENTED_EDGE('',*,*,#423,.T.);
#533=ORIENTED_EDGE('',*,*,#424,.T.);
#534=ORIENTED_EDGE('',*,*,#419,.F.);
#535=ORIENTED_EDGE('',*,*,#425,.F.);
#536=ORIENTED_EDGE('',*,*,#426,.T.);
#537=ORIENTED_EDGE('',*,*,#427,.T.);
#538=ORIENTED_EDGE('',*,*,#428,.T.);
#539=ORIENTED_EDGE('',*,*,#429,.F.);
#540=ORIENTED_EDGE('',*,*,#430,.T.);
#541=ORIENTED_EDGE('',*,*,#431,.T.);
#542=ORIENTED_EDGE('',*,*,#426,.F.);
#543=ORIENTED_EDGE('',*,*,#432,.T.);
#544=ORIENTED_EDGE('',*,*,#433,.T.);
#545=ORIENTED_EDGE('',*,*,#434,.T.);
#546=ORIENTED_EDGE('',*,*,#433,.F.);
#547=ORIENTED_EDGE('',*,*,#434,.F.);
#548=ORIENTED_EDGE('',*,*,#435,.F.);
#549=ORIENTED_EDGE('',*,*,#436,.T.);
#550=ORIENTED_EDGE('',*,*,#432,.F.);
#551=ORIENTED_EDGE('',*,*,#436,.F.);
#552=ORIENTED_EDGE('',*,*,#437,.T.);
#553=ORIENTED_EDGE('',*,*,#438,.T.);
#554=ORIENTED_EDGE('',*,*,#439,.T.);
#555=ORIENTED_EDGE('',*,*,#438,.F.);
#556=ORIENTED_EDGE('',*,*,#439,.F.);
#557=ORIENTED_EDGE('',*,*,#440,.F.);
#558=ORIENTED_EDGE('',*,*,#441,.T.);
#559=ORIENTED_EDGE('',*,*,#437,.F.);
#560=ORIENTED_EDGE('',*,*,#441,.F.);
#561=ORIENTED_EDGE('',*,*,#442,.T.);
#562=ORIENTED_EDGE('',*,*,#443,.T.);
#563=ORIENTED_EDGE('',*,*,#444,.T.);
#564=ORIENTED_EDGE('',*,*,#443,.F.);
#565=ORIENTED_EDGE('',*,*,#444,.F.);
#566=ORIENTED_EDGE('',*,*,#445,.F.);
#567=ORIENTED_EDGE('',*,*,#446,.T.);
#568=ORIENTED_EDGE('',*,*,#442,.F.);
#569=ORIENTED_EDGE('',*,*,#446,.F.);
#570=ORIENTED_EDGE('',*,*,#447,.T.);
#571=ORIENTED_EDGE('',*,*,#448,.T.);
#572=ORIENTED_EDGE('',*,*,#449,.T.);
#573=ORIENTED_EDGE('',*,*,#448,.F.);
#574=ORIENTED_EDGE('',*,*,#449,.F.);
#575=ORIENTED_EDGE('',*,*,#450,.F.);
#576=ORIENTED_EDGE('',*,*,#451,.T.);
#577=ORIENTED_EDGE('',*,*,#447,.F.);
#578=ORIENTED_EDGE('',*,*,#451,.F.);
#579=ORIENTED_EDGE('',*,*,#452,.T.);
#580=ORIENTED_EDGE('',*,*,#453,.T.);
#581=ORIENTED_EDGE('',*,*,#454,.T.);
#582=ORIENTED_EDGE('',*,*,#453,.F.);
#583=ORIENTED_EDGE('',*,*,#454,.F.);
#584=ORIENTED_EDGE('',*,*,#455,.F.);
#585=ORIENTED_EDGE('',*,*,#456,.T.);
#586=ORIENTED_EDGE('',*,*,#452,.F.);
#587=ORIENTED_EDGE('',*,*,#456,.F.);
#588=ORIENTED_EDGE('',*,*,#457,.T.);
#589=ORIENTED_EDGE('',*,*,#458,.T.);
#590=ORIENTED_EDGE('',*,*,#459,.T.);
#591=ORIENTED_EDGE('',*,*,#458,.F.);
#592=ORIENTED_EDGE('',*,*,#459,.F.);
#593=ORIENTED_EDGE('',*,*,#460,.F.);
#594=ORIENTED_EDGE('',*,*,#461,.T.);
#595=ORIENTED_EDGE('',*,*,#457,.F.);
#596=ORIENTED_EDGE('',*,*,#461,.F.);
#597=ORIENTED_EDGE('',*,*,#462,.T.);
#598=ORIENTED_EDGE('',*,*,#463,.T.);
#599=ORIENTED_EDGE('',*,*,#464,.T.);
#600=ORIENTED_EDGE('',*,*,#463,.F.);
#601=ORIENTED_EDGE('',*,*,#464,.F.);
#602=ORIENTED_EDGE('',*,*,#462,.F.);
#603=ORIENTED_EDGE('',*,*,#465,.T.);
#604=ORIENTED_EDGE('',*,*,#466,.F.);
#605=ORIENTED_EDGE('',*,*,#465,.F.);
#606=ORIENTED_EDGE('',*,*,#467,.T.);
#607=ORIENTED_EDGE('',*,*,#468,.T.);
#608=ORIENTED_EDGE('',*,*,#469,.T.);
#609=ORIENTED_EDGE('',*,*,#468,.F.);
#610=ORIENTED_EDGE('',*,*,#469,.F.);
#611=ORIENTED_EDGE('',*,*,#467,.F.);
#612=ORIENTED_EDGE('',*,*,#470,.T.);
#613=ORIENTED_EDGE('',*,*,#471,.F.);
#614=ORIENTED_EDGE('',*,*,#470,.F.);
#615=ORIENTED_EDGE('',*,*,#472,.T.);
#616=ORIENTED_EDGE('',*,*,#473,.T.);
#617=ORIENTED_EDGE('',*,*,#474,.T.);
#618=ORIENTED_EDGE('',*,*,#473,.F.);
#619=ORIENTED_EDGE('',*,*,#474,.F.);
#620=ORIENTED_EDGE('',*,*,#472,.F.);
#621=ORIENTED_EDGE('',*,*,#475,.T.);
#622=ORIENTED_EDGE('',*,*,#476,.F.);
#623=ORIENTED_EDGE('',*,*,#475,.F.);
#624=ORIENTED_EDGE('',*,*,#477,.T.);
#625=ORIENTED_EDGE('',*,*,#478,.T.);
#626=ORIENTED_EDGE('',*,*,#479,.T.);
#627=ORIENTED_EDGE('',*,*,#478,.F.);
#628=ORIENTED_EDGE('',*,*,#479,.F.);
#629=ORIENTED_EDGE('',*,*,#477,.F.);
#630=ORIENTED_EDGE('',*,*,#480,.T.);
#631=ORIENTED_EDGE('',*,*,#481,.F.);
#632=ORIENTED_EDGE('',*,*,#480,.F.);
#633=ORIENTED_EDGE('',*,*,#482,.T.);
#634=ORIENTED_EDGE('',*,*,#483,.T.);
#635=ORIENTED_EDGE('',*,*,#484,.T.);
#636=ORIENTED_EDGE('',*,*,#483,.F.);
#637=ORIENTED_EDGE('',*,*,#484,.F.);
#638=ORIENTED_EDGE('',*,*,#482,.F.);
#639=ORIENTED_EDGE('',*,*,#485,.T.);
#640=ORIENTED_EDGE('',*,*,#486,.F.);
#641=ORIENTED_EDGE('',*,*,#485,.F.);
#642=ORIENTED_EDGE('',*,*,#487,.T.);
#643=ORIENTED_EDGE('',*,*,#488,.T.);
#644=ORIENTED_EDGE('',*,*,#489,.T.);
#645=ORIENTED_EDGE('',*,*,#488,.F.);
#646=ORIENTED_EDGE('',*,*,#489,.F.);
#647=ORIENTED_EDGE('',*,*,#487,.F.);
#648=ORIENTED_EDGE('',*,*,#490,.T.);
#649=ORIENTED_EDGE('',*,*,#491,.F.);
#650=ORIENTED_EDGE('',*,*,#490,.F.);
#651=ORIENTED_EDGE('',*,*,#492,.T.);
#652=ORIENTED_EDGE('',*,*,#493,.F.);
#653=ORIENTED_EDGE('',*,*,#493,.T.);
#654=ORIENTED_EDGE('',*,*,#494,.F.);
#655=ORIENTED_EDGE('',*,*,#495,.T.);
#656=ORIENTED_EDGE('',*,*,#496,.T.);
#657=ORIENTED_EDGE('',*,*,#497,.F.);
#658=ORIENTED_EDGE('',*,*,#498,.F.);
#659=ORIENTED_EDGE('',*,*,#496,.F.);
#660=ORIENTED_EDGE('',*,*,#499,.T.);
#661=ORIENTED_EDGE('',*,*,#500,.F.);
#662=ORIENTED_EDGE('',*,*,#501,.F.);
#663=ORIENTED_EDGE('',*,*,#499,.F.);
#664=ORIENTED_EDGE('',*,*,#495,.F.);
#665=ORIENTED_EDGE('',*,*,#500,.T.);
#666=ORIENTED_EDGE('',*,*,#502,.F.);
#667=ORIENTED_EDGE('',*,*,#503,.F.);
#668=ORIENTED_EDGE('',*,*,#504,.T.);
#669=ORIENTED_EDGE('',*,*,#494,.T.);
#670=ORIENTED_EDGE('',*,*,#505,.T.);
#671=ORIENTED_EDGE('',*,*,#506,.F.);
#672=ORIENTED_EDGE('',*,*,#507,.F.);
#673=ORIENTED_EDGE('',*,*,#431,.F.);
#674=ORIENTED_EDGE('',*,*,#508,.F.);
#675=ORIENTED_EDGE('',*,*,#420,.F.);
#676=ORIENTED_EDGE('',*,*,#424,.F.);
#677=ORIENTED_EDGE('',*,*,#509,.T.);
#678=ORIENTED_EDGE('',*,*,#427,.F.);
#679=ORIENTED_EDGE('',*,*,#497,.T.);
#680=ORIENTED_EDGE('',*,*,#498,.T.);
#681=ORIENTED_EDGE('',*,*,#510,.F.);
#682=ORIENTED_EDGE('',*,*,#511,.F.);
#683=ORIENTED_EDGE('',*,*,#512,.F.);
#684=ORIENTED_EDGE('',*,*,#502,.T.);
#685=ORIENTED_EDGE('',*,*,#501,.T.);
#686=ORIENTED_EDGE('',*,*,#507,.T.);
#687=ORIENTED_EDGE('',*,*,#513,.F.);
#688=ORIENTED_EDGE('',*,*,#514,.F.);
#689=ORIENTED_EDGE('',*,*,#515,.F.);
#690=ORIENTED_EDGE('',*,*,#511,.T.);
#691=ORIENTED_EDGE('',*,*,#516,.F.);
#692=ORIENTED_EDGE('',*,*,#517,.F.);
#693=ORIENTED_EDGE('',*,*,#518,.F.);
#694=ORIENTED_EDGE('',*,*,#519,.F.);
#695=ORIENTED_EDGE('',*,*,#520,.F.);
#696=ORIENTED_EDGE('',*,*,#505,.F.);
#697=ORIENTED_EDGE('',*,*,#492,.F.);
#698=ORIENTED_EDGE('',*,*,#504,.F.);
#699=ORIENTED_EDGE('',*,*,#521,.F.);
#700=ORIENTED_EDGE('',*,*,#514,.T.);
#701=ORIENTED_EDGE('',*,*,#517,.T.);
#702=ORIENTED_EDGE('',*,*,#522,.F.);
#703=ORIENTED_EDGE('',*,*,#523,.F.);
#704=ORIENTED_EDGE('',*,*,#524,.F.);
#705=ORIENTED_EDGE('',*,*,#525,.T.);
#706=ORIENTED_EDGE('',*,*,#522,.T.);
#707=ORIENTED_EDGE('',*,*,#516,.T.);
#708=ORIENTED_EDGE('',*,*,#526,.T.);
#709=ORIENTED_EDGE('',*,*,#518,.T.);
#710=ORIENTED_EDGE('',*,*,#523,.T.);
#711=ORIENTED_EDGE('',*,*,#525,.F.);
#712=ORIENTED_EDGE('',*,*,#519,.T.);
#713=ORIENTED_EDGE('',*,*,#526,.F.);
#714=ORIENTED_EDGE('',*,*,#430,.F.);
#715=ORIENTED_EDGE('',*,*,#429,.T.);
#716=ORIENTED_EDGE('',*,*,#428,.F.);
#717=ORIENTED_EDGE('',*,*,#509,.F.);
#718=ORIENTED_EDGE('',*,*,#423,.F.);
#719=ORIENTED_EDGE('',*,*,#422,.T.);
#720=ORIENTED_EDGE('',*,*,#421,.F.);
#721=ORIENTED_EDGE('',*,*,#508,.T.);
#722=ORIENTED_EDGE('',*,*,#524,.T.);
#723=ORIENTED_EDGE('',*,*,#425,.T.);
#724=ORIENTED_EDGE('',*,*,#435,.T.);
#725=ORIENTED_EDGE('',*,*,#450,.T.);
#726=ORIENTED_EDGE('',*,*,#440,.T.);
#727=ORIENTED_EDGE('',*,*,#460,.T.);
#728=ORIENTED_EDGE('',*,*,#455,.T.);
#729=ORIENTED_EDGE('',*,*,#445,.T.);
#730=ORIENTED_EDGE('',*,*,#503,.T.);
#731=ORIENTED_EDGE('',*,*,#512,.T.);
#732=ORIENTED_EDGE('',*,*,#515,.T.);
#733=ORIENTED_EDGE('',*,*,#521,.T.);
#734=ORIENTED_EDGE('',*,*,#418,.T.);
#735=ORIENTED_EDGE('',*,*,#491,.T.);
#736=ORIENTED_EDGE('',*,*,#476,.T.);
#737=ORIENTED_EDGE('',*,*,#466,.T.);
#738=ORIENTED_EDGE('',*,*,#486,.T.);
#739=ORIENTED_EDGE('',*,*,#481,.T.);
#740=ORIENTED_EDGE('',*,*,#471,.T.);
#741=ORIENTED_EDGE('',*,*,#506,.T.);
#742=ORIENTED_EDGE('',*,*,#520,.T.);
#743=ORIENTED_EDGE('',*,*,#513,.T.);
#744=ORIENTED_EDGE('',*,*,#510,.T.);
#745=CONICAL_SURFACE('',#835,22.5,0.785398163397449);
#746=CONICAL_SURFACE('',#839,22.5,0.785398163397449);
#747=CONICAL_SURFACE('',#843,2.05,0.785398163397448);
#748=CONICAL_SURFACE('',#849,2.05,0.785398163397448);
#749=CONICAL_SURFACE('',#855,2.05,0.785398163397448);
#750=CONICAL_SURFACE('',#861,2.05,0.785398163397448);
#751=CONICAL_SURFACE('',#867,2.05,0.785398163397448);
#752=CONICAL_SURFACE('',#873,2.05,0.785398163397448);
#753=CONICAL_SURFACE('',#879,2.05,0.785398163397448);
#754=CONICAL_SURFACE('',#885,2.05,0.785398163397448);
#755=CONICAL_SURFACE('',#891,2.05,0.785398163397448);
#756=CONICAL_SURFACE('',#897,2.05,0.785398163397448);
#757=CONICAL_SURFACE('',#903,2.05,0.785398163397448);
#758=CONICAL_SURFACE('',#909,2.05,0.785398163397448);
#759=ADVANCED_FACE('',(#75),#745,.T.);
#760=ADVANCED_FACE('',(#76),#746,.T.);
#761=ADVANCED_FACE('',(#77),#747,.F.);
#762=ADVANCED_FACE('',(#78),#52,.F.);
#763=ADVANCED_FACE('',(#79),#36,.F.);
#764=ADVANCED_FACE('',(#80),#748,.F.);
#765=ADVANCED_FACE('',(#81),#53,.F.);
#766=ADVANCED_FACE('',(#82),#37,.F.);
#767=ADVANCED_FACE('',(#83),#749,.F.);
#768=ADVANCED_FACE('',(#84),#54,.F.);
#769=ADVANCED_FACE('',(#85),#38,.F.);
#770=ADVANCED_FACE('',(#86),#750,.F.);
#771=ADVANCED_FACE('',(#87),#55,.F.);
#772=ADVANCED_FACE('',(#88),#39,.F.);
#773=ADVANCED_FACE('',(#89),#751,.F.);
#774=ADVANCED_FACE('',(#90),#56,.F.);
#775=ADVANCED_FACE('',(#91),#40,.F.);
#776=ADVANCED_FACE('',(#92),#752,.F.);
#777=ADVANCED_FACE('',(#93),#57,.F.);
#778=ADVANCED_FACE('',(#94),#41,.F.);
#779=ADVANCED_FACE('',(#95),#753,.F.);
#780=ADVANCED_FACE('',(#96),#58,.T.);
#781=ADVANCED_FACE('',(#97),#42,.F.);
#782=ADVANCED_FACE('',(#98),#754,.F.);
#783=ADVANCED_FACE('',(#99),#59,.T.);
#784=ADVANCED_FACE('',(#100),#43,.F.);
#785=ADVANCED_FACE('',(#101),#755,.F.);
#786=ADVANCED_FACE('',(#102),#60,.T.);
#787=ADVANCED_FACE('',(#103),#44,.F.);
#788=ADVANCED_FACE('',(#104),#756,.F.);
#789=ADVANCED_FACE('',(#105),#61,.T.);
#790=ADVANCED_FACE('',(#106),#45,.F.);
#791=ADVANCED_FACE('',(#107),#757,.F.);
#792=ADVANCED_FACE('',(#108),#62,.T.);
#793=ADVANCED_FACE('',(#109),#46,.F.);
#794=ADVANCED_FACE('',(#110),#758,.F.);
#795=ADVANCED_FACE('',(#111),#63,.T.);
#796=ADVANCED_FACE('',(#112),#47,.F.);
#797=ADVANCED_FACE('',(#113),#64,.F.);
#798=ADVANCED_FACE('',(#114),#48,.F.);
#799=ADVANCED_FACE('',(#115),#65,.F.);
#800=ADVANCED_FACE('',(#116),#66,.F.);
#801=ADVANCED_FACE('',(#117),#67,.F.);
#802=ADVANCED_FACE('',(#118,#15),#49,.T.);
#803=ADVANCED_FACE('',(#119),#68,.F.);
#804=ADVANCED_FACE('',(#120,#16),#50,.F.);
#805=ADVANCED_FACE('',(#121),#69,.F.);
#806=ADVANCED_FACE('',(#122),#70,.T.);
#807=ADVANCED_FACE('',(#123),#51,.F.);
#808=ADVANCED_FACE('',(#124),#71,.T.);
#809=ADVANCED_FACE('',(#125,#17),#72,.T.);
#810=ADVANCED_FACE('',(#126,#18,#19,#20,#21,#22,#23,#24),#73,.T.);
#811=ADVANCED_FACE('',(#127,#25,#26,#27,#28,#29,#30,#31),#74,.F.);
#812=CLOSED_SHELL('',(#759,#760,#761,#762,#763,#764,#765,#766,#767,#768,
#769,#770,#771,#772,#773,#774,#775,#776,#777,#778,#779,#780,#781,#782,#783,
#784,#785,#786,#787,#788,#789,#790,#791,#792,#793,#794,#795,#796,#797,#798,
#799,#800,#801,#802,#803,#804,#805,#806,#807,#808,#809,#810,#811));
#813=DERIVED_UNIT_ELEMENT(#816,1.);
#814=DERIVED_UNIT_ELEMENT(#1494,-3.);
#815=DIMENSIONAL_EXPONENTS(0.,1.,0.,0.,0.,0.,0.);
#816=(
CONVERSION_BASED_UNIT('gram',#818)
MASS_UNIT()
NAMED_UNIT(#815)
);
#817=(
MASS_UNIT()
NAMED_UNIT(*)
SI_UNIT(.KILO.,.GRAM.)
);
#818=MASS_MEASURE_WITH_UNIT(MASS_MEASURE(0.001),#817);
#819=DERIVED_UNIT((#813,#814));
#820=MEASURE_REPRESENTATION_ITEM('density measure',
POSITIVE_RATIO_MEASURE(1.),#819);
#821=PROPERTY_DEFINITION_REPRESENTATION(#826,#823);
#822=PROPERTY_DEFINITION_REPRESENTATION(#827,#824);
#823=REPRESENTATION('material name',(#825),#1491);
#824=REPRESENTATION('density',(#820),#1491);
#825=DESCRIPTIVE_REPRESENTATION_ITEM('Generic','Generic');
#826=PROPERTY_DEFINITION('material property','material name',#1501);
#827=PROPERTY_DEFINITION('material property','density of part',#1501);
#828=DATE_TIME_ROLE('creation_date');
#829=APPLIED_DATE_AND_TIME_ASSIGNMENT(#830,#828,(#1501));
#830=DATE_AND_TIME(#831,#832);
#831=CALENDAR_DATE(2023,23,11);
#832=LOCAL_TIME(0,0,0.,#833);
#833=COORDINATED_UNIVERSAL_TIME_OFFSET(0,0,.BEHIND.);
#834=AXIS2_PLACEMENT_3D('',#1201,#941,#942);
#835=AXIS2_PLACEMENT_3D('',#1202,#943,#944);
#836=AXIS2_PLACEMENT_3D('',#1204,#945,#946);
#837=AXIS2_PLACEMENT_3D('',#1208,#948,#949);
#838=AXIS2_PLACEMENT_3D('',#1221,#950,#951);
#839=AXIS2_PLACEMENT_3D('',#1222,#952,#953);
#840=AXIS2_PLACEMENT_3D('',#1224,#954,#955);
#841=AXIS2_PLACEMENT_3D('',#1228,#957,#958);
#842=AXIS2_PLACEMENT_3D('',#1241,#959,#960);
#843=AXIS2_PLACEMENT_3D('',#1242,#961,#962);
#844=AXIS2_PLACEMENT_3D('',#1244,#963,#964);
#845=AXIS2_PLACEMENT_3D('',#1247,#966,#967);
#846=AXIS2_PLACEMENT_3D('',#1248,#968,#969);
#847=AXIS2_PLACEMENT_3D('',#1249,#970,#971);
#848=AXIS2_PLACEMENT_3D('',#1251,#972,#973);
#849=AXIS2_PLACEMENT_3D('',#1253,#975,#976);
#850=AXIS2_PLACEMENT_3D('',#1255,#977,#978);
#851=AXIS2_PLACEMENT_3D('',#1258,#980,#981);
#852=AXIS2_PLACEMENT_3D('',#1259,#982,#983);
#853=AXIS2_PLACEMENT_3D('',#1260,#984,#985);
#854=AXIS2_PLACEMENT_3D('',#1262,#986,#987);
#855=AXIS2_PLACEMENT_3D('',#1264,#989,#990);
#856=AXIS2_PLACEMENT_3D('',#1266,#991,#992);
#857=AXIS2_PLACEMENT_3D('',#1269,#994,#995);
#858=AXIS2_PLACEMENT_3D('',#1270,#996,#997);
#859=AXIS2_PLACEMENT_3D('',#1271,#998,#999);
#860=AXIS2_PLACEMENT_3D('',#1273,#1000,#1001);
#861=AXIS2_PLACEMENT_3D('',#1275,#1003,#1004);
#862=AXIS2_PLACEMENT_3D('',#1277,#1005,#1006);
#863=AXIS2_PLACEMENT_3D('',#1280,#1008,#1009);
#864=AXIS2_PLACEMENT_3D('',#1281,#1010,#1011);
#865=AXIS2_PLACEMENT_3D('',#1282,#1012,#1013);
#866=AXIS2_PLACEMENT_3D('',#1284,#1014,#1015);
#867=AXIS2_PLACEMENT_3D('',#1286,#1017,#1018);
#868=AXIS2_PLACEMENT_3D('',#1288,#1019,#1020);
#869=AXIS2_PLACEMENT_3D('',#1291,#1022,#1023);
#870=AXIS2_PLACEMENT_3D('',#1292,#1024,#1025);
#871=AXIS2_PLACEMENT_3D('',#1293,#1026,#1027);
#872=AXIS2_PLACEMENT_3D('',#1295,#1028,#1029);
#873=AXIS2_PLACEMENT_3D('',#1297,#1031,#1032);
#874=AXIS2_PLACEMENT_3D('',#1299,#1033,#1034);
#875=AXIS2_PLACEMENT_3D('',#1302,#1036,#1037);
#876=AXIS2_PLACEMENT_3D('',#1303,#1038,#1039);
#877=AXIS2_PLACEMENT_3D('',#1304,#1040,#1041);
#878=AXIS2_PLACEMENT_3D('',#1306,#1042,#1043);
#879=AXIS2_PLACEMENT_3D('',#1308,#1045,#1046);
#880=AXIS2_PLACEMENT_3D('',#1310,#1047,#1048);
#881=AXIS2_PLACEMENT_3D('',#1313,#1050,#1051);
#882=AXIS2_PLACEMENT_3D('',#1314,#1052,#1053);
#883=AXIS2_PLACEMENT_3D('',#1315,#1054,#1055);
#884=AXIS2_PLACEMENT_3D('',#1318,#1057,#1058);
#885=AXIS2_PLACEMENT_3D('',#1319,#1059,#1060);
#886=AXIS2_PLACEMENT_3D('',#1321,#1061,#1062);
#887=AXIS2_PLACEMENT_3D('',#1324,#1064,#1065);
#888=AXIS2_PLACEMENT_3D('',#1325,#1066,#1067);
#889=AXIS2_PLACEMENT_3D('',#1326,#1068,#1069);
#890=AXIS2_PLACEMENT_3D('',#1329,#1071,#1072);
#891=AXIS2_PLACEMENT_3D('',#1330,#1073,#1074);
#892=AXIS2_PLACEMENT_3D('',#1332,#1075,#1076);
#893=AXIS2_PLACEMENT_3D('',#1335,#1078,#1079);
#894=AXIS2_PLACEMENT_3D('',#1336,#1080,#1081);
#895=AXIS2_PLACEMENT_3D('',#1337,#1082,#1083);
#896=AXIS2_PLACEMENT_3D('',#1340,#1085,#1086);
#897=AXIS2_PLACEMENT_3D('',#1341,#1087,#1088);
#898=AXIS2_PLACEMENT_3D('',#1343,#1089,#1090);
#899=AXIS2_PLACEMENT_3D('',#1346,#1092,#1093);
#900=AXIS2_PLACEMENT_3D('',#1347,#1094,#1095);
#901=AXIS2_PLACEMENT_3D('',#1348,#1096,#1097);
#902=AXIS2_PLACEMENT_3D('',#1351,#1099,#1100);
#903=AXIS2_PLACEMENT_3D('',#1352,#1101,#1102);
#904=AXIS2_PLACEMENT_3D('',#1354,#1103,#1104);
#905=AXIS2_PLACEMENT_3D('',#1357,#1106,#1107);
#906=AXIS2_PLACEMENT_3D('',#1358,#1108,#1109);
#907=AXIS2_PLACEMENT_3D('',#1359,#1110,#1111);
#908=AXIS2_PLACEMENT_3D('',#1362,#1113,#1114);
#909=AXIS2_PLACEMENT_3D('',#1363,#1115,#1116);
#910=AXIS2_PLACEMENT_3D('',#1365,#1117,#1118);
#911=AXIS2_PLACEMENT_3D('',#1368,#1120,#1121);
#912=AXIS2_PLACEMENT_3D('',#1369,#1122,#1123);
#913=AXIS2_PLACEMENT_3D('',#1370,#1124,#1125);
#914=AXIS2_PLACEMENT_3D('',#1373,#1127,#1128);
#915=AXIS2_PLACEMENT_3D('',#1374,#1129,#1130);
#916=AXIS2_PLACEMENT_3D('',#1378,#1132,#1133);
#917=AXIS2_PLACEMENT_3D('',#1379,#1134,#1135);
#918=AXIS2_PLACEMENT_3D('',#1381,#1136,#1137);
#919=AXIS2_PLACEMENT_3D('',#1383,#1138,#1139);
#920=AXIS2_PLACEMENT_3D('',#1424,#1141,#1142);
#921=AXIS2_PLACEMENT_3D('',#1425,#1143,#1144);
#922=AXIS2_PLACEMENT_3D('',#1426,#1145,#1146);
#923=AXIS2_PLACEMENT_3D('',#1428,#1148,#1149);
#924=AXIS2_PLACEMENT_3D('',#1434,#1153,#1154);
#925=AXIS2_PLACEMENT_3D('',#1440,#1158,#1159);
#926=AXIS2_PLACEMENT_3D('',#1443,#1162,#1163);
#927=AXIS2_PLACEMENT_3D('',#1449,#1167,#1168);
#928=AXIS2_PLACEMENT_3D('',#1451,#1169,#1170);
#929=AXIS2_PLACEMENT_3D('',#1454,#1172,#1173);
#930=AXIS2_PLACEMENT_3D('',#1473,#1176,#1177);
#931=AXIS2_PLACEMENT_3D('',#1476,#1180,#1181);
#932=AXIS2_PLACEMENT_3D('',#1478,#1182,#1183);
#933=AXIS2_PLACEMENT_3D('',#1479,#1184,#1185);
#934=AXIS2_PLACEMENT_3D('',#1480,#1186,#1187);
#935=AXIS2_PLACEMENT_3D('',#1482,#1188,#1189);
#936=AXIS2_PLACEMENT_3D('',#1484,#1191,#1192);
#937=AXIS2_PLACEMENT_3D('',#1485,#1193,#1194);
#938=AXIS2_PLACEMENT_3D('',#1486,#1195,#1196);
#939=AXIS2_PLACEMENT_3D('',#1487,#1197,#1198);
#940=AXIS2_PLACEMENT_3D('',#1488,#1199,#1200);
#941=DIRECTION('axis',(0.,0.,1.));
#942=DIRECTION('refdir',(1.,0.,0.));
#943=DIRECTION('center_axis',(0.,0.,1.));
#944=DIRECTION('ref_axis',(1.,0.,0.));
#945=DIRECTION('center_axis',(0.,0.,-1.));
#946=DIRECTION('ref_axis',(1.,0.,0.));
#947=DIRECTION('',(-0.707106781186548,8.65956056235494E-17,0.707106781186547));
#948=DIRECTION('center_axis',(0.,0.,-1.));
#949=DIRECTION('ref_axis',(1.,0.,0.));
#950=DIRECTION('center_axis',(0.,0.,-1.));
#951=DIRECTION('ref_axis',(1.,0.,0.));
#952=DIRECTION('center_axis',(0.,0.,-1.));
#953=DIRECTION('ref_axis',(-1.,0.,0.));
#954=DIRECTION('center_axis',(0.,0.,1.));
#955=DIRECTION('ref_axis',(-1.,0.,0.));
#956=DIRECTION('',(0.707106781186548,8.65956056235494E-17,-0.707106781186547));
#957=DIRECTION('center_axis',(0.,0.,1.));
#958=DIRECTION('ref_axis',(1.,0.,0.));
#959=DIRECTION('center_axis',(0.,0.,1.));
#960=DIRECTION('ref_axis',(1.,0.,0.));
#961=DIRECTION('center_axis',(0.,0.,1.));
#962=DIRECTION('ref_axis',(1.,0.,0.));
#963=DIRECTION('center_axis',(0.,0.,1.));
#964=DIRECTION('ref_axis',(1.,0.,0.));
#965=DIRECTION('',(0.707106781186547,8.65956056235493E-17,-0.707106781186548));
#966=DIRECTION('center_axis',(0.,0.,-1.));
#967=DIRECTION('ref_axis',(1.,0.,0.));
#968=DIRECTION('center_axis',(0.,0.,-1.));
#969=DIRECTION('ref_axis',(-1.,0.,0.));
#970=DIRECTION('center_axis',(0.,0.,-1.));
#971=DIRECTION('ref_axis',(1.,0.,0.));
#972=DIRECTION('center_axis',(0.,0.,-1.));
#973=DIRECTION('ref_axis',(1.,0.,0.));
#974=DIRECTION('',(0.,0.,-1.));
#975=DIRECTION('center_axis',(0.,0.,1.));
#976=DIRECTION('ref_axis',(1.,0.,0.));
#977=DIRECTION('center_axis',(0.,0.,1.));
#978=DIRECTION('ref_axis',(1.,0.,0.));
#979=DIRECTION('',(0.707106781186547,8.65956056235493E-17,-0.707106781186548));
#980=DIRECTION('center_axis',(0.,0.,-1.));
#981=DIRECTION('ref_axis',(1.,0.,0.));
#982=DIRECTION('center_axis',(0.,0.,-1.));
#983=DIRECTION('ref_axis',(-1.,0.,0.));
#984=DIRECTION('center_axis',(0.,0.,-1.));
#985=DIRECTION('ref_axis',(1.,0.,0.));
#986=DIRECTION('center_axis',(0.,0.,-1.));
#987=DIRECTION('ref_axis',(1.,0.,0.));
#988=DIRECTION('',(0.,0.,-1.));
#989=DIRECTION('center_axis',(0.,0.,1.));
#990=DIRECTION('ref_axis',(1.,0.,0.));
#991=DIRECTION('center_axis',(0.,0.,1.));
#992=DIRECTION('ref_axis',(1.,0.,0.));
#993=DIRECTION('',(0.707106781186547,8.65956056235493E-17,-0.707106781186548));
#994=DIRECTION('center_axis',(0.,0.,-1.));
#995=DIRECTION('ref_axis',(1.,0.,0.));
#996=DIRECTION('center_axis',(0.,0.,-1.));
#997=DIRECTION('ref_axis',(-1.,0.,0.));
#998=DIRECTION('center_axis',(0.,0.,-1.));
#999=DIRECTION('ref_axis',(1.,0.,0.));
#1000=DIRECTION('center_axis',(0.,0.,-1.));
#1001=DIRECTION('ref_axis',(1.,0.,0.));
#1002=DIRECTION('',(0.,0.,-1.));
#1003=DIRECTION('center_axis',(0.,0.,1.));
#1004=DIRECTION('ref_axis',(1.,0.,0.));
#1005=DIRECTION('center_axis',(0.,0.,1.));
#1006=DIRECTION('ref_axis',(1.,0.,0.));
#1007=DIRECTION('',(0.707106781186547,8.65956056235493E-17,-0.707106781186548));
#1008=DIRECTION('center_axis',(0.,0.,-1.));
#1009=DIRECTION('ref_axis',(1.,0.,0.));
#1010=DIRECTION('center_axis',(0.,0.,-1.));
#1011=DIRECTION('ref_axis',(-1.,0.,0.));
#1012=DIRECTION('center_axis',(0.,0.,-1.));
#1013=DIRECTION('ref_axis',(1.,0.,0.));
#1014=DIRECTION('center_axis',(0.,0.,-1.));
#1015=DIRECTION('ref_axis',(1.,0.,0.));
#1016=DIRECTION('',(0.,0.,-1.));
#1017=DIRECTION('center_axis',(0.,0.,1.));
#1018=DIRECTION('ref_axis',(1.,0.,0.));
#1019=DIRECTION('center_axis',(0.,0.,1.));
#1020=DIRECTION('ref_axis',(1.,0.,0.));
#1021=DIRECTION('',(0.707106781186547,8.65956056235493E-17,-0.707106781186548));
#1022=DIRECTION('center_axis',(0.,0.,-1.));
#1023=DIRECTION('ref_axis',(1.,0.,0.));
#1024=DIRECTION('center_axis',(0.,0.,-1.));
#1025=DIRECTION('ref_axis',(-1.,0.,0.));
#1026=DIRECTION('center_axis',(0.,0.,-1.));
#1027=DIRECTION('ref_axis',(1.,0.,0.));
#1028=DIRECTION('center_axis',(0.,0.,-1.));
#1029=DIRECTION('ref_axis',(1.,0.,0.));
#1030=DIRECTION('',(0.,0.,-1.));
#1031=DIRECTION('center_axis',(0.,0.,1.));
#1032=DIRECTION('ref_axis',(1.,0.,0.));
#1033=DIRECTION('center_axis',(0.,0.,1.));
#1034=DIRECTION('ref_axis',(1.,0.,0.));
#1035=DIRECTION('',(0.707106781186547,8.65956056235493E-17,-0.707106781186548));
#1036=DIRECTION('center_axis',(0.,0.,-1.));
#1037=DIRECTION('ref_axis',(1.,0.,0.));
#1038=DIRECTION('center_axis',(0.,0.,-1.));
#1039=DIRECTION('ref_axis',(-1.,0.,0.));
#1040=DIRECTION('center_axis',(0.,0.,-1.));
#1041=DIRECTION('ref_axis',(1.,0.,0.));
#1042=DIRECTION('center_axis',(0.,0.,-1.));
#1043=DIRECTION('ref_axis',(1.,0.,0.));
#1044=DIRECTION('',(0.,0.,-1.));
#1045=DIRECTION('center_axis',(0.,0.,-1.));
#1046=DIRECTION('ref_axis',(1.,0.,0.));
#1047=DIRECTION('center_axis',(0.,0.,-1.));
#1048=DIRECTION('ref_axis',(1.,0.,0.));
#1049=DIRECTION('',(0.707106781186547,-8.65956056235493E-17,0.707106781186548));
#1050=DIRECTION('center_axis',(0.,0.,1.));
#1051=DIRECTION('ref_axis',(1.,0.,0.));
#1052=DIRECTION('center_axis',(0.,0.,-1.));
#1053=DIRECTION('ref_axis',(-1.,0.,0.));
#1054=DIRECTION('center_axis',(0.,0.,-1.));
#1055=DIRECTION('ref_axis',(1.,0.,0.));
#1056=DIRECTION('',(0.,0.,-1.));
#1057=DIRECTION('center_axis',(0.,0.,1.));
#1058=DIRECTION('ref_axis',(1.,0.,0.));
#1059=DIRECTION('center_axis',(0.,0.,-1.));
#1060=DIRECTION('ref_axis',(1.,0.,0.));
#1061=DIRECTION('center_axis',(0.,0.,-1.));
#1062=DIRECTION('ref_axis',(1.,0.,0.));
#1063=DIRECTION('',(0.707106781186547,-8.65956056235493E-17,0.707106781186548));
#1064=DIRECTION('center_axis',(0.,0.,1.));
#1065=DIRECTION('ref_axis',(1.,0.,0.));
#1066=DIRECTION('center_axis',(0.,0.,-1.));
#1067=DIRECTION('ref_axis',(-1.,0.,0.));
#1068=DIRECTION('center_axis',(0.,0.,-1.));
#1069=DIRECTION('ref_axis',(1.,0.,0.));
#1070=DIRECTION('',(0.,0.,-1.));
#1071=DIRECTION('center_axis',(0.,0.,1.));
#1072=DIRECTION('ref_axis',(1.,0.,0.));
#1073=DIRECTION('center_axis',(0.,0.,-1.));
#1074=DIRECTION('ref_axis',(1.,0.,0.));
#1075=DIRECTION('center_axis',(0.,0.,-1.));
#1076=DIRECTION('ref_axis',(1.,0.,0.));
#1077=DIRECTION('',(0.707106781186547,-8.65956056235493E-17,0.707106781186548));
#1078=DIRECTION('center_axis',(0.,0.,1.));
#1079=DIRECTION('ref_axis',(1.,0.,0.));
#1080=DIRECTION('center_axis',(0.,0.,-1.));
#1081=DIRECTION('ref_axis',(-1.,0.,0.));
#1082=DIRECTION('center_axis',(0.,0.,-1.));
#1083=DIRECTION('ref_axis',(1.,0.,0.));
#1084=DIRECTION('',(0.,0.,-1.));
#1085=DIRECTION('center_axis',(0.,0.,1.));
#1086=DIRECTION('ref_axis',(1.,0.,0.));
#1087=DIRECTION('center_axis',(0.,0.,-1.));
#1088=DIRECTION('ref_axis',(1.,0.,0.));
#1089=DIRECTION('center_axis',(0.,0.,-1.));
#1090=DIRECTION('ref_axis',(1.,0.,0.));
#1091=DIRECTION('',(0.707106781186547,-8.65956056235493E-17,0.707106781186548));
#1092=DIRECTION('center_axis',(0.,0.,1.));
#1093=DIRECTION('ref_axis',(1.,0.,0.));
#1094=DIRECTION('center_axis',(0.,0.,-1.));
#1095=DIRECTION('ref_axis',(-1.,0.,0.));
#1096=DIRECTION('center_axis',(0.,0.,-1.));
#1097=DIRECTION('ref_axis',(1.,0.,0.));
#1098=DIRECTION('',(0.,0.,-1.));
#1099=DIRECTION('center_axis',(0.,0.,1.));
#1100=DIRECTION('ref_axis',(1.,0.,0.));
#1101=DIRECTION('center_axis',(0.,0.,-1.));
#1102=DIRECTION('ref_axis',(1.,0.,0.));
#1103=DIRECTION('center_axis',(0.,0.,-1.));
#1104=DIRECTION('ref_axis',(1.,0.,0.));
#1105=DIRECTION('',(0.707106781186547,-8.65956056235493E-17,0.707106781186548));
#1106=DIRECTION('center_axis',(0.,0.,1.));
#1107=DIRECTION('ref_axis',(1.,0.,0.));
#1108=DIRECTION('center_axis',(0.,0.,-1.));
#1109=DIRECTION('ref_axis',(-1.,0.,0.));
#1110=DIRECTION('center_axis',(0.,0.,-1.));
#1111=DIRECTION('ref_axis',(1.,0.,0.));
#1112=DIRECTION('',(0.,0.,-1.));
#1113=DIRECTION('center_axis',(0.,0.,1.));
#1114=DIRECTION('ref_axis',(1.,0.,0.));
#1115=DIRECTION('center_axis',(0.,0.,-1.));
#1116=DIRECTION('ref_axis',(1.,0.,0.));
#1117=DIRECTION('center_axis',(0.,0.,-1.));
#1118=DIRECTION('ref_axis',(1.,0.,0.));
#1119=DIRECTION('',(0.707106781186547,-8.65956056235493E-17,0.707106781186548));
#1120=DIRECTION('center_axis',(0.,0.,1.));
#1121=DIRECTION('ref_axis',(1.,0.,0.));
#1122=DIRECTION('center_axis',(0.,0.,-1.));
#1123=DIRECTION('ref_axis',(-1.,0.,0.));
#1124=DIRECTION('center_axis',(0.,0.,-1.));
#1125=DIRECTION('ref_axis',(1.,0.,0.));
#1126=DIRECTION('',(0.,0.,-1.));
#1127=DIRECTION('center_axis',(0.,0.,1.));
#1128=DIRECTION('ref_axis',(1.,0.,0.));
#1129=DIRECTION('center_axis',(6.98131702020915E-9,1.,0.));
#1130=DIRECTION('ref_axis',(0.,0.,1.));
#1131=DIRECTION('',(0.,0.,-1.));
#1132=DIRECTION('center_axis',(6.98131702020915E-9,1.,0.));
#1133=DIRECTION('ref_axis',(1.,-6.98131702020915E-9,0.));
#1134=DIRECTION('center_axis',(-6.98131702650736E-9,-1.,0.));
#1135=DIRECTION('ref_axis',(1.,-6.98131702650736E-9,0.));
#1136=DIRECTION('center_axis',(-6.98131702020915E-9,-1.,0.));
#1137=DIRECTION('ref_axis',(1.,-6.98131702650736E-9,0.));
#1138=DIRECTION('center_axis',(6.98131702020915E-9,1.,0.));
#1139=DIRECTION('ref_axis',(1.,-6.98131702020915E-9,0.));
#1140=DIRECTION('',(-6.98131702650736E-9,-1.,0.));
#1141=DIRECTION('center_axis',(6.98131702020915E-9,1.,0.));
#1142=DIRECTION('ref_axis',(1.,-6.98131702020915E-9,0.));
#1143=DIRECTION('center_axis',(-6.98131702020915E-9,-1.,0.));
#1144=DIRECTION('ref_axis',(1.,-6.98131702650736E-9,0.));
#1145=DIRECTION('center_axis',(6.98131702020915E-9,1.,0.));
#1146=DIRECTION('ref_axis',(0.,0.,1.));
#1147=DIRECTION('',(0.,0.,-1.));
#1148=DIRECTION('center_axis',(-6.98131702020915E-9,-1.,0.));
#1149=DIRECTION('ref_axis',(-1.,6.98131702020915E-9,0.));
#1150=DIRECTION('',(0.,0.,-1.));
#1151=DIRECTION('',(-1.,6.98131702020915E-9,0.));
#1152=DIRECTION('',(0.,0.,-1.));
#1153=DIRECTION('center_axis',(-6.98131702020915E-9,-1.,0.));
#1154=DIRECTION('ref_axis',(-1.,6.98131702020915E-9,0.));
#1155=DIRECTION('',(0.,0.,-1.));
#1156=DIRECTION('',(1.,-6.98131702020915E-9,0.));
#1157=DIRECTION('',(0.,0.,-1.));
#1158=DIRECTION('center_axis',(0.,0.,1.));
#1159=DIRECTION('ref_axis',(-1.83697019872103E-16,-1.,0.));
#1160=DIRECTION('',(0.,0.,1.));
#1161=DIRECTION('',(0.,0.,1.));
#1162=DIRECTION('center_axis',(-1.,-1.9198621188973E-8,0.));
#1163=DIRECTION('ref_axis',(-1.9198621188973E-8,1.,0.));
#1164=DIRECTION('',(1.9198621188973E-8,-1.,0.));
#1165=DIRECTION('',(0.,0.,-1.));
#1166=DIRECTION('',(-1.9198621188973E-8,1.,0.));
#1167=DIRECTION('center_axis',(0.,0.,-1.));
#1168=DIRECTION('ref_axis',(-3.04243759681141E-9,1.,0.));
#1169=DIRECTION('center_axis',(0.,0.,1.));
#1170=DIRECTION('ref_axis',(1.,0.,0.));
#1171=DIRECTION('',(0.,0.,-1.));
#1172=DIRECTION('center_axis',(0.,0.,-1.));
#1173=DIRECTION('ref_axis',(1.,0.,0.));
#1174=DIRECTION('',(0.,0.,-1.));
#1175=DIRECTION('',(0.,0.,1.));
#1176=DIRECTION('center_axis',(1.,0.,0.));
#1177=DIRECTION('ref_axis',(0.,-1.,0.));
#1178=DIRECTION('',(0.,1.,0.));
#1179=DIRECTION('',(0.,-1.,0.));
#1180=DIRECTION('center_axis',(0.,1.,0.));
#1181=DIRECTION('ref_axis',(0.,0.,1.));
#1182=DIRECTION('center_axis',(0.,-1.,0.));
#1183=DIRECTION('ref_axis',(1.,0.,0.));
#1184=DIRECTION('center_axis',(0.,-1.,0.));
#1185=DIRECTION('ref_axis',(1.,0.,0.));
#1186=DIRECTION('center_axis',(0.,-1.,0.));
#1187=DIRECTION('ref_axis',(1.,0.,0.));
#1188=DIRECTION('center_axis',(0.,-1.,0.));
#1189=DIRECTION('ref_axis',(1.,0.,0.));
#1190=DIRECTION('',(0.,-1.,0.));
#1191=DIRECTION('center_axis',(0.,-1.,0.));
#1192=DIRECTION('ref_axis',(1.,0.,0.));
#1193=DIRECTION('center_axis',(0.,1.,0.));
#1194=DIRECTION('ref_axis',(0.,0.,1.));
#1195=DIRECTION('center_axis',(0.,1.,0.));
#1196=DIRECTION('ref_axis',(-1.,0.,0.));
#1197=DIRECTION('center_axis',(0.,0.,1.));
#1198=DIRECTION('ref_axis',(1.,0.,0.));
#1199=DIRECTION('center_axis',(0.,0.,1.));
#1200=DIRECTION('ref_axis',(1.,0.,0.));
#1201=CARTESIAN_POINT('',(0.,0.,0.));
#1202=CARTESIAN_POINT('Origin',(0.,0.,1.5));
#1203=CARTESIAN_POINT('',(-21.,2.57175827820944E-15,0.));
#1204=CARTESIAN_POINT('Origin',(0.,0.,0.));
#1205=CARTESIAN_POINT('',(-25.,3.06161699786838E-15,4.));
#1206=CARTESIAN_POINT('',(-22.5,2.75545529808154E-15,1.5));
#1207=CARTESIAN_POINT('',(-10.8972473588517,22.5,4.));
#1208=CARTESIAN_POINT('Origin',(0.,0.,4.));
#1209=CARTESIAN_POINT('',(-8.35164654424504,22.5,3.));
#1210=CARTESIAN_POINT('Ctrl Pts',(-10.8972473588517,22.5,4.));
#1211=CARTESIAN_POINT('Ctrl Pts',(-9.5984714329772,22.5,3.43387669889097));
#1212=CARTESIAN_POINT('Ctrl Pts',(-8.35164654424504,22.5,3.));
#1213=CARTESIAN_POINT('',(8.35164654424504,22.5,3.));
#1214=CARTESIAN_POINT('Ctrl Pts',(-8.35164654424504,22.5,3.));
#1215=CARTESIAN_POINT('Ctrl Pts',(1.33226762955019E-15,22.5,0.0937500000000002));
#1216=CARTESIAN_POINT('Ctrl Pts',(8.35164654424504,22.5,3.));
#1217=CARTESIAN_POINT('',(10.8972473588517,22.5,4.));
#1218=CARTESIAN_POINT('Ctrl Pts',(8.35164654424504,22.5,3.));
#1219=CARTESIAN_POINT('Ctrl Pts',(9.59847143309188,22.5,3.43387669892979));
#1220=CARTESIAN_POINT('Ctrl Pts',(10.8972473588517,22.5,4.));
#1221=CARTESIAN_POINT('Origin',(0.,0.,4.));
#1222=CARTESIAN_POINT('Origin',(0.,0.,31.5));
#1223=CARTESIAN_POINT('',(21.,2.57175827820944E-15,33.));
#1224=CARTESIAN_POINT('Origin',(0.,0.,33.));
#1225=CARTESIAN_POINT('',(25.,3.06161699786838E-15,29.));
#1226=CARTESIAN_POINT('',(22.5,2.75545529808154E-15,31.5));
#1227=CARTESIAN_POINT('',(10.8972473588517,22.5,29.));
#1228=CARTESIAN_POINT('Origin',(0.,0.,29.));
#1229=CARTESIAN_POINT('',(8.35164654424504,22.5,30.));
#1230=CARTESIAN_POINT('Ctrl Pts',(10.8972473588517,22.5,29.));
#1231=CARTESIAN_POINT('Ctrl Pts',(9.5984714329772,22.5,29.566123301109));
#1232=CARTESIAN_POINT('Ctrl Pts',(8.35164654424504,22.5,30.));
#1233=CARTESIAN_POINT('',(-8.35164654424504,22.5,30.));
#1234=CARTESIAN_POINT('Ctrl Pts',(8.35164654424504,22.5,30.));
#1235=CARTESIAN_POINT('Ctrl Pts',(5.77315972805081E-15,22.5,32.90625));
#1236=CARTESIAN_POINT('Ctrl Pts',(-8.35164654424502,22.5,30.));
#1237=CARTESIAN_POINT('',(-10.8972473588517,22.5,29.));
#1238=CARTESIAN_POINT('Ctrl Pts',(-8.35164654424504,22.5,30.));
#1239=CARTESIAN_POINT('Ctrl Pts',(-9.59847143309193,22.5,29.5661233010702));
#1240=CARTESIAN_POINT('Ctrl Pts',(-10.8972473588517,22.5,29.));
#1241=CARTESIAN_POINT('Origin',(0.,0.,29.));
#1242=CARTESIAN_POINT('Origin',(-8.625,-14.9389382152816,25.));
#1243=CARTESIAN_POINT('',(-12.175,-14.9389382152816,26.5));
#1244=CARTESIAN_POINT('Origin',(-8.625,-14.9389382152816,26.5));
#1245=CARTESIAN_POINT('',(-9.175,-14.9389382152816,23.5));
#1246=CARTESIAN_POINT('',(-10.675,-14.9389382152816,25.));
#1247=CARTESIAN_POINT('Origin',(-8.625,-14.9389382152816,23.5));
#1248=CARTESIAN_POINT('Origin',(-8.625,-14.9389382152816,23.5));
#1249=CARTESIAN_POINT('Origin',(-8.625,-14.9389382152816,33.));
#1250=CARTESIAN_POINT('',(-12.175,-14.9389382152816,33.));
#1251=CARTESIAN_POINT('Origin',(-8.625,-14.9389382152816,33.));
#1252=CARTESIAN_POINT('',(-12.175,-14.9389382152816,33.));
#1253=CARTESIAN_POINT('Origin',(-17.25,-3.94009801260868E-16,25.));
#1254=CARTESIAN_POINT('',(-20.8,-8.28759414958179E-16,26.5));
#1255=CARTESIAN_POINT('Origin',(-17.25,-3.94009801260868E-16,26.5));
#1256=CARTESIAN_POINT('',(-17.8,-3.26654227307764E-16,23.5));
#1257=CARTESIAN_POINT('',(-19.3,-6.45062395086076E-16,25.));
#1258=CARTESIAN_POINT('Origin',(-17.25,-3.94009801260868E-16,23.5));
#1259=CARTESIAN_POINT('Origin',(-17.25,-5.55111512312578E-16,23.5));
#1260=CARTESIAN_POINT('Origin',(-17.25,-3.94009801260868E-16,33.));
#1261=CARTESIAN_POINT('',(-20.8,4.07398124364421E-17,33.));
#1262=CARTESIAN_POINT('Origin',(-17.25,-3.94009801260868E-16,33.));
#1263=CARTESIAN_POINT('',(-20.8,4.07398124364421E-17,33.));
#1264=CARTESIAN_POINT('Origin',(-8.62500000000001,14.9389382152816,25.));
#1265=CARTESIAN_POINT('',(-12.175,14.9389382152816,26.5));
#1266=CARTESIAN_POINT('Origin',(-8.62500000000001,14.9389382152816,26.5));
#1267=CARTESIAN_POINT('',(-9.17500000000001,14.9389382152816,23.5));
#1268=CARTESIAN_POINT('',(-10.675,14.9389382152816,25.));
#1269=CARTESIAN_POINT('Origin',(-8.62500000000001,14.9389382152816,23.5));
#1270=CARTESIAN_POINT('Origin',(-8.62500000000001,14.9389382152816,23.5));
#1271=CARTESIAN_POINT('Origin',(-8.62500000000001,14.9389382152816,33.));
#1272=CARTESIAN_POINT('',(-12.175,14.9389382152816,33.));
#1273=CARTESIAN_POINT('Origin',(-8.62500000000001,14.9389382152816,33.));
#1274=CARTESIAN_POINT('',(-12.175,14.9389382152816,33.));
#1275=CARTESIAN_POINT('Origin',(8.625,14.9389382152816,25.));
#1276=CARTESIAN_POINT('',(5.075,14.9389382152816,26.5));
#1277=CARTESIAN_POINT('Origin',(8.625,14.9389382152816,26.5));
#1278=CARTESIAN_POINT('',(8.075,14.9389382152816,23.5));
#1279=CARTESIAN_POINT('',(6.575,14.9389382152816,25.));
#1280=CARTESIAN_POINT('Origin',(8.625,14.9389382152816,23.5));
#1281=CARTESIAN_POINT('Origin',(8.625,14.9389382152816,23.5));
#1282=CARTESIAN_POINT('Origin',(8.625,14.9389382152816,33.));
#1283=CARTESIAN_POINT('',(5.075,14.9389382152816,33.));
#1284=CARTESIAN_POINT('Origin',(8.625,14.9389382152816,33.));
#1285=CARTESIAN_POINT('',(5.075,14.9389382152816,33.));
#1286=CARTESIAN_POINT('Origin',(17.25,-8.15713758243615E-15,25.));
#1287=CARTESIAN_POINT('',(13.7,-8.59188719613346E-15,26.5));
#1288=CARTESIAN_POINT('Origin',(17.25,-8.15713758243615E-15,26.5));
#1289=CARTESIAN_POINT('',(16.7,-8.08978200848304E-15,23.5));
#1290=CARTESIAN_POINT('',(15.2,-8.40819017626135E-15,25.));
#1291=CARTESIAN_POINT('Origin',(17.25,-8.15713758243615E-15,23.5));
#1292=CARTESIAN_POINT('Origin',(17.25,-8.32667268468867E-15,23.5));
#1293=CARTESIAN_POINT('Origin',(17.25,-8.15713758243615E-15,33.));
#1294=CARTESIAN_POINT('',(13.7,-7.72238796873884E-15,33.));
#1295=CARTESIAN_POINT('Origin',(17.25,-8.15713758243615E-15,33.));
#1296=CARTESIAN_POINT('',(13.7,-7.72238796873884E-15,33.));
#1297=CARTESIAN_POINT('Origin',(8.625,-14.9389382152816,25.));
#1298=CARTESIAN_POINT('',(5.075,-14.9389382152816,26.5));
#1299=CARTESIAN_POINT('Origin',(8.625,-14.9389382152816,26.5));
#1300=CARTESIAN_POINT('',(8.075,-14.9389382152816,23.5));
#1301=CARTESIAN_POINT('',(6.575,-14.9389382152816,25.));
#1302=CARTESIAN_POINT('Origin',(8.625,-14.9389382152816,23.5));
#1303=CARTESIAN_POINT('Origin',(8.625,-14.9389382152816,23.5));
#1304=CARTESIAN_POINT('Origin',(8.625,-14.9389382152816,33.));
#1305=CARTESIAN_POINT('',(5.075,-14.9389382152816,33.));
#1306=CARTESIAN_POINT('Origin',(8.625,-14.9389382152816,33.));
#1307=CARTESIAN_POINT('',(5.075,-14.9389382152816,33.));
#1308=CARTESIAN_POINT('Origin',(-17.25,-3.94009801260868E-16,8.));
#1309=CARTESIAN_POINT('',(-20.8,4.07398124364421E-17,6.5));
#1310=CARTESIAN_POINT('Origin',(-17.25,-3.94009801260868E-16,6.5));
#1311=CARTESIAN_POINT('',(-17.8,-4.61365375213973E-16,9.5));
#1312=CARTESIAN_POINT('',(-19.3,-1.42957207435661E-16,8.));
#1313=CARTESIAN_POINT('Origin',(-17.25,-3.94009801260868E-16,9.5));
#1314=CARTESIAN_POINT('Origin',(-17.25,-5.55111512312578E-16,9.5));
#1315=CARTESIAN_POINT('Origin',(-17.25,-3.94009801260868E-16,33.));
#1316=CARTESIAN_POINT('',(-20.8,-8.28759414958179E-16,0.));
#1317=CARTESIAN_POINT('',(-20.8,4.07398124364421E-17,33.));
#1318=CARTESIAN_POINT('Origin',(-17.25,-3.94009801260868E-16,0.));
#1319=CARTESIAN_POINT('Origin',(-8.62500000000001,14.9389382152816,8.));
#1320=CARTESIAN_POINT('',(-12.175,14.9389382152816,6.5));
#1321=CARTESIAN_POINT('Origin',(-8.62500000000001,14.9389382152816,6.5));
#1322=CARTESIAN_POINT('',(-9.17500000000001,14.9389382152816,9.5));
#1323=CARTESIAN_POINT('',(-10.675,14.9389382152816,8.));
#1324=CARTESIAN_POINT('Origin',(-8.62500000000001,14.9389382152816,9.5));
#1325=CARTESIAN_POINT('Origin',(-8.62500000000001,14.9389382152816,9.5));
#1326=CARTESIAN_POINT('Origin',(-8.62500000000001,14.9389382152816,33.));
#1327=CARTESIAN_POINT('',(-12.175,14.9389382152816,0.));
#1328=CARTESIAN_POINT('',(-12.175,14.9389382152816,33.));
#1329=CARTESIAN_POINT('Origin',(-8.62500000000001,14.9389382152816,0.));
#1330=CARTESIAN_POINT('Origin',(8.625,14.9389382152816,8.));
#1331=CARTESIAN_POINT('',(5.075,14.9389382152816,6.5));
#1332=CARTESIAN_POINT('Origin',(8.625,14.9389382152816,6.5));
#1333=CARTESIAN_POINT('',(8.075,14.9389382152816,9.5));
#1334=CARTESIAN_POINT('',(6.575,14.9389382152816,8.));
#1335=CARTESIAN_POINT('Origin',(8.625,14.9389382152816,9.5));
#1336=CARTESIAN_POINT('Origin',(8.625,14.9389382152816,9.5));
#1337=CARTESIAN_POINT('Origin',(8.625,14.9389382152816,33.));
#1338=CARTESIAN_POINT('',(5.075,14.9389382152816,0.));
#1339=CARTESIAN_POINT('',(5.075,14.9389382152816,33.));
#1340=CARTESIAN_POINT('Origin',(8.625,14.9389382152816,0.));
#1341=CARTESIAN_POINT('Origin',(17.25,-8.15713758243615E-15,8.));
#1342=CARTESIAN_POINT('',(13.7,-7.72238796873884E-15,6.5));
#1343=CARTESIAN_POINT('Origin',(17.25,-8.15713758243615E-15,6.5));
#1344=CARTESIAN_POINT('',(16.7,-8.22449315638925E-15,9.5));
#1345=CARTESIAN_POINT('',(15.2,-7.90608498861094E-15,8.));
#1346=CARTESIAN_POINT('Origin',(17.25,-8.15713758243615E-15,9.5));
#1347=CARTESIAN_POINT('Origin',(17.25,-8.32667268468867E-15,9.5));
#1348=CARTESIAN_POINT('Origin',(17.25,-8.15713758243615E-15,33.));
#1349=CARTESIAN_POINT('',(13.7,-8.59188719613346E-15,0.));
#1350=CARTESIAN_POINT('',(13.7,-7.72238796873884E-15,33.));
#1351=CARTESIAN_POINT('Origin',(17.25,-8.15713758243615E-15,0.));
#1352=CARTESIAN_POINT('Origin',(8.625,-14.9389382152816,8.));
#1353=CARTESIAN_POINT('',(5.075,-14.9389382152816,6.5));
#1354=CARTESIAN_POINT('Origin',(8.625,-14.9389382152816,6.5));
#1355=CARTESIAN_POINT('',(8.075,-14.9389382152816,9.5));
#1356=CARTESIAN_POINT('',(6.575,-14.9389382152816,8.));
#1357=CARTESIAN_POINT('Origin',(8.625,-14.9389382152816,9.5));
#1358=CARTESIAN_POINT('Origin',(8.625,-14.9389382152816,9.5));
#1359=CARTESIAN_POINT('Origin',(8.625,-14.9389382152816,33.));
#1360=CARTESIAN_POINT('',(5.075,-14.9389382152816,0.));
#1361=CARTESIAN_POINT('',(5.075,-14.9389382152816,33.));
#1362=CARTESIAN_POINT('Origin',(8.625,-14.9389382152816,0.));
#1363=CARTESIAN_POINT('Origin',(-8.625,-14.9389382152816,8.));
#1364=CARTESIAN_POINT('',(-12.175,-14.9389382152816,6.5));
#1365=CARTESIAN_POINT('Origin',(-8.625,-14.9389382152816,6.5));
#1366=CARTESIAN_POINT('',(-9.175,-14.9389382152816,9.5));
#1367=CARTESIAN_POINT('',(-10.675,-14.9389382152816,8.));
#1368=CARTESIAN_POINT('Origin',(-8.625,-14.9389382152816,9.5));
#1369=CARTESIAN_POINT('Origin',(-8.625,-14.9389382152816,9.5));
#1370=CARTESIAN_POINT('Origin',(-8.625,-14.9389382152816,33.));
#1371=CARTESIAN_POINT('',(-12.175,-14.9389382152816,0.));
#1372=CARTESIAN_POINT('',(-12.175,-14.9389382152816,33.));
#1373=CARTESIAN_POINT('Origin',(-8.625,-14.9389382152816,0.));
#1374=CARTESIAN_POINT('Origin',(-2.23611584249106E-7,-9.52999999999999,
16.5));
#1375=CARTESIAN_POINT('',(2.60000004500504,-9.53000001815142,18.5322397996284));
#1376=CARTESIAN_POINT('',(2.60000004500504,-9.53000001815142,14.4677602003716));
#1377=CARTESIAN_POINT('',(2.60000004500504,-9.53000001815142,33.));
#1378=CARTESIAN_POINT('Origin',(-2.23611584249106E-7,-9.52999999999999,
16.5));
#1379=CARTESIAN_POINT('Origin',(-2.23611584249106E-7,-9.52999999999999,
16.5));
#1380=CARTESIAN_POINT('',(-2.59999995499496,-9.52999998184857,14.4677595130481));
#1381=CARTESIAN_POINT('Origin',(-2.23611584249106E-7,-9.53,16.5));
#1382=CARTESIAN_POINT('',(-3.30000022361158,-9.52999997696165,16.5));
#1383=CARTESIAN_POINT('Origin',(-2.23611584249106E-7,-9.52999999999999,
16.5));
#1384=CARTESIAN_POINT('',(-3.30000033008535,-24.7812428627266,16.5));
#1385=CARTESIAN_POINT('',(-3.30000022361158,-9.52999997696165,16.5));
#1386=CARTESIAN_POINT('',(3.29999966991465,-24.7812429506384,16.5));
#1387=CARTESIAN_POINT('Ctrl Pts',(3.29999966991465,-24.7812429506384,16.5));
#1388=CARTESIAN_POINT('Ctrl Pts',(3.29999966991465,-24.7812429506384,16.0851221826514));
#1389=CARTESIAN_POINT('Ctrl Pts',(3.21698698070803,-24.7927369029411,15.642925617678));
#1390=CARTESIAN_POINT('Ctrl Pts',(2.88006030389203,-24.8341309652747,14.8300195048637));
#1391=CARTESIAN_POINT('Ctrl Pts',(2.62617252188175,-24.8634200425503,14.4592680966618));
#1392=CARTESIAN_POINT('Ctrl Pts',(2.04073461806007,-24.9183032878766,13.8738301933189));
#1393=CARTESIAN_POINT('Ctrl Pts',(1.66998188824631,-24.9474806240759,13.619940023836));
#1394=CARTESIAN_POINT('Ctrl Pts',(0.857071289257375,-24.9886185651686,13.2830116010637));
#1395=CARTESIAN_POINT('Ctrl Pts',(0.414873168313585,-25.0000000055031,13.2));
#1396=CARTESIAN_POINT('Ctrl Pts',(-0.414873831807413,-24.9999999944969,
13.2));
#1397=CARTESIAN_POINT('Ctrl Pts',(-0.857071952716493,-24.9886185424177,
13.2830116011599));
#1398=CARTESIAN_POINT('Ctrl Pts',(-1.66998255119872,-24.9474805797027,13.6199400240936));
#1399=CARTESIAN_POINT('Ctrl Pts',(-2.0407352805579,-24.9183032336237,13.8738301936367));
#1400=CARTESIAN_POINT('Ctrl Pts',(-2.62617318337968,-24.863419972682,14.4592680969372));
#1401=CARTESIAN_POINT('Ctrl Pts',(-2.88006096487603,-24.8341308886206,14.830019505016));
#1402=CARTESIAN_POINT('Ctrl Pts',(-3.21698764102646,-24.7927368172629,15.6429256176755));
#1403=CARTESIAN_POINT('Ctrl Pts',(-3.30000033008535,-24.7812428627266,16.0851221826226));
#1404=CARTESIAN_POINT('Ctrl Pts',(-3.30000033008535,-24.7812428627266,16.5));
#1405=CARTESIAN_POINT('Ctrl Pts',(-3.30000033008535,-24.7812428627266,16.5));
#1406=CARTESIAN_POINT('Ctrl Pts',(-3.30000033008535,-24.7812428627266,16.9148778173774));
#1407=CARTESIAN_POINT('Ctrl Pts',(-3.21698764102646,-24.7927368172629,17.3570743823245));
#1408=CARTESIAN_POINT('Ctrl Pts',(-2.88006096487603,-24.8341308886206,18.169980494984));
#1409=CARTESIAN_POINT('Ctrl Pts',(-2.62617318337968,-24.863419972682,18.5407319030628));
#1410=CARTESIAN_POINT('Ctrl Pts',(-2.0407352805579,-24.9183032336237,19.1261698063633));
#1411=CARTESIAN_POINT('Ctrl Pts',(-1.66998255119872,-24.9474805797027,19.3800599759064));
#1412=CARTESIAN_POINT('Ctrl Pts',(-0.857071952716494,-24.9886185424177,
19.7169883988401));
#1413=CARTESIAN_POINT('Ctrl Pts',(-0.414873831807413,-24.9999999944969,
19.8));
#1414=CARTESIAN_POINT('Ctrl Pts',(0.414873168313584,-25.0000000055031,19.8));
#1415=CARTESIAN_POINT('Ctrl Pts',(0.857071289257376,-24.9886185651686,19.7169883989363));
#1416=CARTESIAN_POINT('Ctrl Pts',(1.66998188824631,-24.9474806240759,19.380059976164));
#1417=CARTESIAN_POINT('Ctrl Pts',(2.04073461806007,-24.9183032878766,19.1261698066811));
#1418=CARTESIAN_POINT('Ctrl Pts',(2.62617252188175,-24.8634200425503,18.5407319033382));
#1419=CARTESIAN_POINT('Ctrl Pts',(2.88006030389203,-24.8341309652747,18.1699804951363));
#1420=CARTESIAN_POINT('Ctrl Pts',(3.21698698070803,-24.7927369029411,17.357074382322));
#1421=CARTESIAN_POINT('Ctrl Pts',(3.29999966991465,-24.7812429506384,16.9148778173486));
#1422=CARTESIAN_POINT('Ctrl Pts',(3.29999966991465,-24.7812429506384,16.5));
#1423=CARTESIAN_POINT('',(-2.59999995499496,-9.52999998184857,18.5322404869519));
#1424=CARTESIAN_POINT('Origin',(-2.23611584249106E-7,-9.52999999999999,
16.5));
#1425=CARTESIAN_POINT('Origin',(-2.23611584249106E-7,-9.53,16.5));
#1426=CARTESIAN_POINT('Origin',(-2.23611584249106E-7,-9.52999999999999,
16.5));
#1427=CARTESIAN_POINT('',(-2.59999995499496,-9.52999998184857,33.));
#1428=CARTESIAN_POINT('Origin',(2.60000004500504,-9.53000001815142,33.));
#1429=CARTESIAN_POINT('',(-2.59999995499496,-9.52999998184857,33.));
#1430=CARTESIAN_POINT('',(-2.59999995499496,-9.52999998184857,33.));
#1431=CARTESIAN_POINT('',(2.60000004500504,-9.53000001815142,33.));
#1432=CARTESIAN_POINT('',(1.29999999359987,-9.53000000907571,33.));
#1433=CARTESIAN_POINT('',(2.60000004500504,-9.53000001815142,33.));
#1434=CARTESIAN_POINT('Origin',(2.60000004500504,-9.53000001815142,33.));
#1435=CARTESIAN_POINT('',(2.60000004500504,-9.53000001815142,0.));
#1436=CARTESIAN_POINT('',(2.60000004500504,-9.53000001815142,33.));
#1437=CARTESIAN_POINT('',(-2.59999995499496,-9.52999998184857,0.));
#1438=CARTESIAN_POINT('',(1.29999999359987,-9.53000000907571,0.));
#1439=CARTESIAN_POINT('',(-2.59999995499496,-9.52999998184857,33.));
#1440=CARTESIAN_POINT('Origin',(0.,0.,0.));
#1441=CARTESIAN_POINT('',(-10.8972473588517,22.5,0.));
#1442=CARTESIAN_POINT('',(10.8972473588517,22.5,0.));
#1443=CARTESIAN_POINT('Origin',(-2.59999995499496,-9.52999998184857,33.));
#1444=CARTESIAN_POINT('',(-2.60000000187426,-7.0881944097389,0.));
#1445=CARTESIAN_POINT('',(-2.60000003447725,-5.39000001588249,2.22044604925031E-15));
#1446=CARTESIAN_POINT('',(-2.60000000187426,-7.0881944097389,33.));
#1447=CARTESIAN_POINT('',(-2.60000000187426,-7.0881944097389,33.));
#1448=CARTESIAN_POINT('',(-2.60000003447725,-5.39000001588249,33.));
#1449=CARTESIAN_POINT('Origin',(-2.22044604925031E-15,3.33066907387547E-15,
33.));
#1450=CARTESIAN_POINT('',(2.60000004500504,-7.08819439391822,0.));
#1451=CARTESIAN_POINT('Origin',(-2.22044604925031E-15,3.33066907387547E-15,
0.));
#1452=CARTESIAN_POINT('',(2.60000004500504,-7.08819439391822,33.));
#1453=CARTESIAN_POINT('',(2.60000004500504,-7.08819439391822,33.));
#1454=CARTESIAN_POINT('Origin',(-2.22044604925031E-15,3.33066907387547E-15,
33.));
#1455=CARTESIAN_POINT('',(-0.867467578644902,7.5,13.758991973744));
#1456=CARTESIAN_POINT('',(0.867467578644898,7.5,13.758991973744));
#1457=CARTESIAN_POINT('Ctrl Pts',(-0.867467578644902,7.5,13.758991973744));
#1458=CARTESIAN_POINT('Ctrl Pts',(-0.582649357180751,7.53294274305699,13.6688533931339));
#1459=CARTESIAN_POINT('Ctrl Pts',(-0.284493850100909,7.55,13.625));
#1460=CARTESIAN_POINT('Ctrl Pts',(0.284493850100907,7.55,13.625));
#1461=CARTESIAN_POINT('Ctrl Pts',(0.582649357180748,7.53294274305699,13.6688533931339));
#1462=CARTESIAN_POINT('Ctrl Pts',(0.867467578644898,7.5,13.758991973744));
#1463=CARTESIAN_POINT('',(-0.867467578644902,7.5,19.241008026256));
#1464=CARTESIAN_POINT('',(-0.867467578644902,7.5,33.));
#1465=CARTESIAN_POINT('',(0.867467578644898,7.5,19.241008026256));
#1466=CARTESIAN_POINT('Ctrl Pts',(0.867467578644897,7.5,19.241008026256));
#1467=CARTESIAN_POINT('Ctrl Pts',(0.582649357180748,7.53294274305699,19.3311466068661));
#1468=CARTESIAN_POINT('Ctrl Pts',(0.284493850100907,7.55,19.375));
#1469=CARTESIAN_POINT('Ctrl Pts',(-0.284493850100908,7.55,19.375));
#1470=CARTESIAN_POINT('Ctrl Pts',(-0.582649357180752,7.53294274305699,19.3311466068661));
#1471=CARTESIAN_POINT('Ctrl Pts',(-0.867467578644902,7.5,19.241008026256));
#1472=CARTESIAN_POINT('',(0.867467578644897,7.5,33.));
#1473=CARTESIAN_POINT('Origin',(2.60000004500504,-7.08819439391822,33.));
#1474=CARTESIAN_POINT('',(2.60000004500504,-4.16909719695911,0.));
#1475=CARTESIAN_POINT('',(2.60000004500504,-4.16909719695911,33.));
#1476=CARTESIAN_POINT('Origin',(0.,7.5,16.5));
#1477=CARTESIAN_POINT('',(-2.875,7.5,16.5));
#1478=CARTESIAN_POINT('Origin',(0.,7.5,16.5));
#1479=CARTESIAN_POINT('Origin',(0.,7.5,16.5));
#1480=CARTESIAN_POINT('Origin',(0.,22.5,16.5));
#1481=CARTESIAN_POINT('',(-2.875,22.5,16.5));
#1482=CARTESIAN_POINT('Origin',(0.,22.5,16.5));
#1483=CARTESIAN_POINT('',(-2.875,22.5,16.5));
#1484=CARTESIAN_POINT('Origin',(0.,7.5,16.5));
#1485=CARTESIAN_POINT('Origin',(0.,7.5,16.5));
#1486=CARTESIAN_POINT('Origin',(10.8972473588517,22.5,0.));
#1487=CARTESIAN_POINT('Origin',(0.,-1.25,33.));
#1488=CARTESIAN_POINT('Origin',(0.,-1.25,0.));
#1489=UNCERTAINTY_MEASURE_WITH_UNIT(LENGTH_MEASURE(0.01),#1493,
'DISTANCE_ACCURACY_VALUE',
'Maximum model space distance between geometric entities at asserted c
onnectivities');
#1490=UNCERTAINTY_MEASURE_WITH_UNIT(LENGTH_MEASURE(0.01),#1493,
'DISTANCE_ACCURACY_VALUE',
'Maximum model space distance between geometric entities at asserted c
onnectivities');
#1491=(
GEOMETRIC_REPRESENTATION_CONTEXT(3)
GLOBAL_UNCERTAINTY_ASSIGNED_CONTEXT((#1489))
GLOBAL_UNIT_ASSIGNED_CONTEXT((#1493,#1495,#1496))
REPRESENTATION_CONTEXT('','3D')
);
#1492=(
GEOMETRIC_REPRESENTATION_CONTEXT(3)
GLOBAL_UNCERTAINTY_ASSIGNED_CONTEXT((#1490))
GLOBAL_UNIT_ASSIGNED_CONTEXT((#1493,#1495,#1496))
REPRESENTATION_CONTEXT('','3D')
);
#1493=(
LENGTH_UNIT()
NAMED_UNIT(*)
SI_UNIT(.MILLI.,.METRE.)
);
#1494=(
LENGTH_UNIT()
NAMED_UNIT(*)
SI_UNIT(.CENTI.,.METRE.)
);
#1495=(
NAMED_UNIT(*)
PLANE_ANGLE_UNIT()
SI_UNIT($,.RADIAN.)
);
#1496=(
NAMED_UNIT(*)
SI_UNIT($,.STERADIAN.)
SOLID_ANGLE_UNIT()
);
#1497=SHAPE_DEFINITION_REPRESENTATION(#1498,#1499);
#1498=PRODUCT_DEFINITION_SHAPE('',$,#1501);
#1499=SHAPE_REPRESENTATION('',(#834),#1491);
#1500=PRODUCT_DEFINITION_CONTEXT('part definition',#1505,'design');
#1501=PRODUCT_DEFINITION('spool_center','spool_center',#1502,#1500);
#1502=PRODUCT_DEFINITION_FORMATION('',$,#1507);
#1503=PRODUCT_RELATED_PRODUCT_CATEGORY('spool_center','spool_center',(#1507));
#1504=APPLICATION_PROTOCOL_DEFINITION('international standard',
'automotive_design',2009,#1505);
#1505=APPLICATION_CONTEXT(
'Core Data for Automotive Mechanical Design Process');
#1506=PRODUCT_CONTEXT('part definition',#1505,'mechanical');
#1507=PRODUCT('spool_center','spool_center',$,(#1506));
#1508=PRESENTATION_STYLE_ASSIGNMENT((#1509));
#1509=SURFACE_STYLE_USAGE(.BOTH.,#1512);
#1510=SURFACE_STYLE_RENDERING_WITH_PROPERTIES($,#1516,(#1511));
#1511=SURFACE_STYLE_TRANSPARENT(0.);
#1512=SURFACE_SIDE_STYLE('',(#1513,#1510));
#1513=SURFACE_STYLE_FILL_AREA(#1514);
#1514=FILL_AREA_STYLE('',(#1515));
#1515=FILL_AREA_STYLE_COLOUR('',#1516);
#1516=COLOUR_RGB('',0.749019607843137,0.749019607843137,0.749019607843137);
ENDSEC;
END-ISO-10303-21;
