ISO-10303-21;
HEADER;
/* Generated by software containing ST-Developer
 * from STEP Tools, Inc. (www.steptools.com) 
 */

FILE_DESCRIPTION(
/* description */ (''),
/* implementation_level */ '2;1');

FILE_NAME(
/* name */ 'spool_side.stp',
/* time_stamp */ '2026-05-18T19:19:20-07:00',
/* author */ ('aaron'),
/* organization */ (''),
/* preprocessor_version */ 'ST-DEVELOPER v20.1',
/* originating_system */ 'Autodesk Inventor 2026',
/* authorisation */ '');

FILE_SCHEMA (('AUTOMOTIVE_DESIGN { 1 0 10303 214 3 1 1 }'));
ENDSEC;

DATA;
#10=MECHANICAL_DESIGN_GEOMETRIC_PRESENTATION_REPRESENTATION('',(#19,#20,
#21,#22,#23,#24),#209);
#11=SHAPE_REPRESENTATION_RELATIONSHIP('SRR','None',#216,#12);
#12=ADVANCED_BREP_SHAPE_REPRESENTATION('',(#13),#208);
#13=MANIFOLD_SOLID_BREP('Solid1',#108);
#14=CYLINDRICAL_SURFACE('',#139,60.);
#15=FACE_BOUND('',#33,.T.);
#16=FACE_BOUND('',#38,.T.);
#17=PLANE('',#134);
#18=PLANE('',#144);
#19=STYLED_ITEM('',(#226),#103);
#20=STYLED_ITEM('',(#226),#104);
#21=STYLED_ITEM('',(#226),#105);
#22=STYLED_ITEM('',(#226),#106);
#23=STYLED_ITEM('',(#226),#107);
#24=STYLED_ITEM('',(#225),#13);
#25=FACE_OUTER_BOUND('',#31,.T.);
#26=FACE_OUTER_BOUND('',#32,.T.);
#27=FACE_OUTER_BOUND('',#34,.T.);
#28=FACE_OUTER_BOUND('',#35,.T.);
#29=FACE_OUTER_BOUND('',#36,.T.);
#30=FACE_OUTER_BOUND('',#37,.T.);
#31=EDGE_LOOP('',(#75,#76,#77,#78));
#32=EDGE_LOOP('',(#79));
#33=EDGE_LOOP('',(#80));
#34=EDGE_LOOP('',(#81,#82,#83,#84,#85));
#35=EDGE_LOOP('',(#86,#87,#88,#89,#90,#91));
#36=EDGE_LOOP('',(#92,#93,#94,#95,#96));
#37=EDGE_LOOP('',(#97));
#38=EDGE_LOOP('',(#98));
#39=LINE('',#184,#43);
#40=LINE('',#194,#44);
#41=LINE('',#200,#45);
#42=LINE('',#204,#46);
#43=VECTOR('',#151,22.55);
#44=VECTOR('',#164,59.75);
#45=VECTOR('',#171,60.);
#46=VECTOR('',#176,59.75);
#47=CIRCLE('',#132,24.05);
#48=CIRCLE('',#133,21.05);
#49=CIRCLE('',#135,59.5);
#50=CIRCLE('',#137,60.);
#51=CIRCLE('',#138,60.);
#52=CIRCLE('',#140,60.);
#53=CIRCLE('',#141,60.);
#54=CIRCLE('',#143,59.5);
#55=VERTEX_POINT('',#181);
#56=VERTEX_POINT('',#183);
#57=VERTEX_POINT('',#187);
#58=VERTEX_POINT('',#190);
#59=VERTEX_POINT('',#191);
#60=VERTEX_POINT('',#196);
#61=VERTEX_POINT('',#197);
#62=VERTEX_POINT('',#202);
#63=EDGE_CURVE('',#55,#55,#47,.T.);
#64=EDGE_CURVE('',#55,#56,#39,.T.);
#65=EDGE_CURVE('',#56,#56,#48,.T.);
#66=EDGE_CURVE('',#57,#57,#49,.T.);
#67=EDGE_CURVE('',#58,#59,#50,.T.);
#68=EDGE_CURVE('',#59,#58,#51,.T.);
#69=EDGE_CURVE('',#58,#57,#40,.T.);
#70=EDGE_CURVE('',#60,#61,#52,.T.);
#71=EDGE_CURVE('',#61,#60,#53,.T.);
#72=EDGE_CURVE('',#61,#59,#41,.T.);
#73=EDGE_CURVE('',#62,#62,#54,.T.);
#74=EDGE_CURVE('',#62,#60,#42,.T.);
#75=ORIENTED_EDGE('',*,*,#63,.T.);
#76=ORIENTED_EDGE('',*,*,#64,.T.);
#77=ORIENTED_EDGE('',*,*,#65,.F.);
#78=ORIENTED_EDGE('',*,*,#64,.F.);
#79=ORIENTED_EDGE('',*,*,#66,.F.);
#80=ORIENTED_EDGE('',*,*,#63,.F.);
#81=ORIENTED_EDGE('',*,*,#67,.T.);
#82=ORIENTED_EDGE('',*,*,#68,.T.);
#83=ORIENTED_EDGE('',*,*,#69,.T.);
#84=ORIENTED_EDGE('',*,*,#66,.T.);
#85=ORIENTED_EDGE('',*,*,#69,.F.);
#86=ORIENTED_EDGE('',*,*,#70,.F.);
#87=ORIENTED_EDGE('',*,*,#71,.F.);
#88=ORIENTED_EDGE('',*,*,#72,.T.);
#89=ORIENTED_EDGE('',*,*,#67,.F.);
#90=ORIENTED_EDGE('',*,*,#68,.F.);
#91=ORIENTED_EDGE('',*,*,#72,.F.);
#92=ORIENTED_EDGE('',*,*,#73,.T.);
#93=ORIENTED_EDGE('',*,*,#74,.T.);
#94=ORIENTED_EDGE('',*,*,#70,.T.);
#95=ORIENTED_EDGE('',*,*,#71,.T.);
#96=ORIENTED_EDGE('',*,*,#74,.F.);
#97=ORIENTED_EDGE('',*,*,#73,.F.);
#98=ORIENTED_EDGE('',*,*,#65,.T.);
#99=CONICAL_SURFACE('',#131,22.55,0.785398163397449);
#100=CONICAL_SURFACE('',#136,59.75,0.785398163397447);
#101=CONICAL_SURFACE('',#142,59.75,0.785398163397447);
#102=ADVANCED_FACE('',(#25),#99,.F.);
#103=ADVANCED_FACE('',(#26,#15),#17,.F.);
#104=ADVANCED_FACE('',(#27),#100,.T.);
#105=ADVANCED_FACE('',(#28),#14,.T.);
#106=ADVANCED_FACE('',(#29),#101,.T.);
#107=ADVANCED_FACE('',(#30,#16),#18,.T.);
#108=CLOSED_SHELL('',(#102,#103,#104,#105,#106,#107));
#109=DERIVED_UNIT_ELEMENT(#112,1.);
#110=DERIVED_UNIT_ELEMENT(#211,-3.);
#111=DIMENSIONAL_EXPONENTS(0.,1.,0.,0.,0.,0.,0.);
#112=(
CONVERSION_BASED_UNIT('gram',#114)
MASS_UNIT()
NAMED_UNIT(#111)
);
#113=(
MASS_UNIT()
NAMED_UNIT(*)
SI_UNIT(.KILO.,.GRAM.)
);
#114=MASS_MEASURE_WITH_UNIT(MASS_MEASURE(0.001),#113);
#115=DERIVED_UNIT((#109,#110));
#116=MEASURE_REPRESENTATION_ITEM('density measure',
POSITIVE_RATIO_MEASURE(1.),#115);
#117=PROPERTY_DEFINITION_REPRESENTATION(#122,#119);
#118=PROPERTY_DEFINITION_REPRESENTATION(#123,#120);
#119=REPRESENTATION('material name',(#121),#208);
#120=REPRESENTATION('density',(#116),#208);
#121=DESCRIPTIVE_REPRESENTATION_ITEM('Generic','Generic');
#122=PROPERTY_DEFINITION('material property','material name',#218);
#123=PROPERTY_DEFINITION('material property','density of part',#218);
#124=DATE_TIME_ROLE('creation_date');
#125=APPLIED_DATE_AND_TIME_ASSIGNMENT(#126,#124,(#218));
#126=DATE_AND_TIME(#127,#128);
#127=CALENDAR_DATE(2023,23,11);
#128=LOCAL_TIME(0,0,0.,#129);
#129=COORDINATED_UNIVERSAL_TIME_OFFSET(0,0,.BEHIND.);
#130=AXIS2_PLACEMENT_3D('',#179,#145,#146);
#131=AXIS2_PLACEMENT_3D('',#180,#147,#148);
#132=AXIS2_PLACEMENT_3D('',#182,#149,#150);
#133=AXIS2_PLACEMENT_3D('',#185,#152,#153);
#134=AXIS2_PLACEMENT_3D('',#186,#154,#155);
#135=AXIS2_PLACEMENT_3D('',#188,#156,#157);
#136=AXIS2_PLACEMENT_3D('',#189,#158,#159);
#137=AXIS2_PLACEMENT_3D('',#192,#160,#161);
#138=AXIS2_PLACEMENT_3D('',#193,#162,#163);
#139=AXIS2_PLACEMENT_3D('',#195,#165,#166);
#140=AXIS2_PLACEMENT_3D('',#198,#167,#168);
#141=AXIS2_PLACEMENT_3D('',#199,#169,#170);
#142=AXIS2_PLACEMENT_3D('',#201,#172,#173);
#143=AXIS2_PLACEMENT_3D('',#203,#174,#175);
#144=AXIS2_PLACEMENT_3D('',#205,#177,#178);
#145=DIRECTION('axis',(0.,0.,1.));
#146=DIRECTION('refdir',(1.,0.,0.));
#147=DIRECTION('center_axis',(0.,0.,-1.));
#148=DIRECTION('ref_axis',(1.,0.,0.));
#149=DIRECTION('center_axis',(0.,0.,-1.));
#150=DIRECTION('ref_axis',(1.,0.,0.));
#151=DIRECTION('',(0.707106781186548,-8.65956056235494E-17,0.707106781186547));
#152=DIRECTION('center_axis',(0.,0.,-1.));
#153=DIRECTION('ref_axis',(1.,0.,0.));
#154=DIRECTION('center_axis',(0.,0.,1.));
#155=DIRECTION('ref_axis',(1.,0.,0.));
#156=DIRECTION('center_axis',(0.,0.,1.));
#157=DIRECTION('ref_axis',(-1.,0.,0.));
#158=DIRECTION('center_axis',(0.,0.,1.));
#159=DIRECTION('ref_axis',(-1.,0.,0.));
#160=DIRECTION('center_axis',(0.,0.,-1.));
#161=DIRECTION('ref_axis',(-1.,0.,0.));
#162=DIRECTION('center_axis',(0.,0.,-1.));
#163=DIRECTION('ref_axis',(-1.,0.,0.));
#164=DIRECTION('',(-0.707106781186546,-8.65956056235492E-17,-0.707106781186549));
#165=DIRECTION('center_axis',(0.,0.,1.));
#166=DIRECTION('ref_axis',(1.,0.,0.));
#167=DIRECTION('center_axis',(0.,0.,1.));
#168=DIRECTION('ref_axis',(-1.,0.,0.));
#169=DIRECTION('center_axis',(0.,0.,1.));
#170=DIRECTION('ref_axis',(-1.,0.,0.));
#171=DIRECTION('',(0.,0.,-1.));
#172=DIRECTION('center_axis',(0.,0.,-1.));
#173=DIRECTION('ref_axis',(-1.,0.,0.));
#174=DIRECTION('center_axis',(0.,0.,-1.));
#175=DIRECTION('ref_axis',(-1.,0.,0.));
#176=DIRECTION('',(0.707106781186546,8.65956056235492E-17,-0.707106781186549));
#177=DIRECTION('center_axis',(0.,0.,1.));
#178=DIRECTION('ref_axis',(1.,0.,0.));
#179=CARTESIAN_POINT('',(0.,0.,0.));
#180=CARTESIAN_POINT('Origin',(0.,0.,1.5));
#181=CARTESIAN_POINT('',(-24.05,2.94527555194938E-15,0.));
#182=CARTESIAN_POINT('Origin',(0.,0.,0.));
#183=CARTESIAN_POINT('',(-21.05,-2.57788151220518E-15,3.));
#184=CARTESIAN_POINT('',(-22.55,2.76157853207728E-15,1.5));
#185=CARTESIAN_POINT('Origin',(0.,0.,3.));
#186=CARTESIAN_POINT('Origin',(0.,0.,0.));
#187=CARTESIAN_POINT('',(59.5,7.28664845492675E-15,0.));
#188=CARTESIAN_POINT('Origin',(0.,0.,0.));
#189=CARTESIAN_POINT('Origin',(0.,0.,0.25));
#190=CARTESIAN_POINT('',(60.,-7.34788079488412E-15,0.5));
#191=CARTESIAN_POINT('',(-60.,-7.34788079488412E-15,0.5));
#192=CARTESIAN_POINT('Origin',(0.,0.,0.5));
#193=CARTESIAN_POINT('Origin',(0.,0.,0.5));
#194=CARTESIAN_POINT('',(59.75,7.31726462490543E-15,0.25));
#195=CARTESIAN_POINT('Origin',(0.,0.,0.));
#196=CARTESIAN_POINT('',(60.,7.34788079488412E-15,2.5));
#197=CARTESIAN_POINT('',(-60.,-7.34788079488412E-15,2.5));
#198=CARTESIAN_POINT('Origin',(0.,0.,2.5));
#199=CARTESIAN_POINT('Origin',(0.,0.,2.5));
#200=CARTESIAN_POINT('',(-60.,-7.34788079488412E-15,0.));
#201=CARTESIAN_POINT('Origin',(0.,0.,2.75));
#202=CARTESIAN_POINT('',(59.5,-7.28664845492675E-15,3.));
#203=CARTESIAN_POINT('Origin',(0.,0.,3.));
#204=CARTESIAN_POINT('',(59.75,7.31726462490543E-15,2.75));
#205=CARTESIAN_POINT('Origin',(0.,0.,3.));
#206=UNCERTAINTY_MEASURE_WITH_UNIT(LENGTH_MEASURE(0.01),#210,
'DISTANCE_ACCURACY_VALUE',
'Maximum model space distance between geometric entities at asserted c
onnectivities');
#207=UNCERTAINTY_MEASURE_WITH_UNIT(LENGTH_MEASURE(0.01),#210,
'DISTANCE_ACCURACY_VALUE',
'Maximum model space distance between geometric entities at asserted c
onnectivities');
#208=(
GEOMETRIC_REPRESENTATION_CONTEXT(3)
GLOBAL_UNCERTAINTY_ASSIGNED_CONTEXT((#206))
GLOBAL_UNIT_ASSIGNED_CONTEXT((#210,#212,#213))
REPRESENTATION_CONTEXT('','3D')
);
#209=(
GEOMETRIC_REPRESENTATION_CONTEXT(3)
GLOBAL_UNCERTAINTY_ASSIGNED_CONTEXT((#207))
GLOBAL_UNIT_ASSIGNED_CONTEXT((#210,#212,#213))
REPRESENTATION_CONTEXT('','3D')
);
#210=(
LENGTH_UNIT()
NAMED_UNIT(*)
SI_UNIT(.MILLI.,.METRE.)
);
#211=(
LENGTH_UNIT()
NAMED_UNIT(*)
SI_UNIT(.CENTI.,.METRE.)
);
#212=(
NAMED_UNIT(*)
PLANE_ANGLE_UNIT()
SI_UNIT($,.RADIAN.)
);
#213=(
NAMED_UNIT(*)
SI_UNIT($,.STERADIAN.)
SOLID_ANGLE_UNIT()
);
#214=SHAPE_DEFINITION_REPRESENTATION(#215,#216);
#215=PRODUCT_DEFINITION_SHAPE('',$,#218);
#216=SHAPE_REPRESENTATION('',(#130),#208);
#217=PRODUCT_DEFINITION_CONTEXT('part definition',#222,'design');
#218=PRODUCT_DEFINITION('spool_side','spool_side',#219,#217);
#219=PRODUCT_DEFINITION_FORMATION('',$,#224);
#220=PRODUCT_RELATED_PRODUCT_CATEGORY('spool_side','spool_side',(#224));
#221=APPLICATION_PROTOCOL_DEFINITION('international standard',
'automotive_design',2009,#222);
#222=APPLICATION_CONTEXT(
'Core Data for Automotive Mechanical Design Process');
#223=PRODUCT_CONTEXT('part definition',#222,'mechanical');
#224=PRODUCT('spool_side','spool_side',$,(#223));
#225=PRESENTATION_STYLE_ASSIGNMENT((#227));
#226=PRESENTATION_STYLE_ASSIGNMENT((#228));
#227=SURFACE_STYLE_USAGE(.BOTH.,#233);
#228=SURFACE_STYLE_USAGE(.BOTH.,#234);
#229=SURFACE_STYLE_RENDERING_WITH_PROPERTIES($,#241,(#231));
#230=SURFACE_STYLE_RENDERING_WITH_PROPERTIES($,#242,(#232));
#231=SURFACE_STYLE_TRANSPARENT(0.);
#232=SURFACE_STYLE_TRANSPARENT(0.);
#233=SURFACE_SIDE_STYLE('',(#235,#229));
#234=SURFACE_SIDE_STYLE('',(#236,#230));
#235=SURFACE_STYLE_FILL_AREA(#237);
#236=SURFACE_STYLE_FILL_AREA(#238);
#237=FILL_AREA_STYLE('',(#239));
#238=FILL_AREA_STYLE('',(#240));
#239=FILL_AREA_STYLE_COLOUR('',#241);
#240=FILL_AREA_STYLE_COLOUR('',#242);
#241=COLOUR_RGB('',0.749019607843137,0.749019607843137,0.749019607843137);
#242=COLOUR_RGB('',0.301960784313725,0.301960784313725,0.301960784313725);
ENDSEC;
END-ISO-10303-21;
