ISO-10303-21;
HEADER;
/* Generated by software containing ST-Developer
 * from STEP Tools, Inc. (www.steptools.com) 
 */

FILE_DESCRIPTION(
/* description */ (''),
/* implementation_level */ '2;1');

FILE_NAME(
/* name */ 'stamp.stp',
/* time_stamp */ '2026-07-17T20:44:13-07:00',
/* author */ ('aaron'),
/* organization */ (''),
/* preprocessor_version */ 'ST-DEVELOPER v20.1',
/* originating_system */ 'Autodesk Inventor 2026',
/* authorisation */ '');

FILE_SCHEMA (('AUTOMOTIVE_DESIGN { 1 0 10303 214 3 1 1 }'));
ENDSEC;

DATA;
#10=MECHANICAL_DESIGN_GEOMETRIC_PRESENTATION_REPRESENTATION('',(#13),#1132);
#11=SHAPE_REPRESENTATION_RELATIONSHIP('SRR','None',#1139,#12);
#12=ADVANCED_BREP_SHAPE_REPRESENTATION('',(#14),#1131);
#13=STYLED_ITEM('',(#1148),#14);
#14=MANIFOLD_SOLID_BREP('Solid1',#692);
#15=TOROIDAL_SURFACE('',#732,2.8141714534052,2.);
#16=CYLINDRICAL_SURFACE('',#720,4.8141714534052);
#17=FACE_BOUND('',#93,.T.);
#18=PLANE('',#719);
#19=PLANE('',#722);
#20=PLANE('',#723);
#21=PLANE('',#724);
#22=PLANE('',#725);
#23=PLANE('',#726);
#24=PLANE('',#727);
#25=PLANE('',#728);
#26=PLANE('',#729);
#27=PLANE('',#730);
#28=PLANE('',#731);
#29=PLANE('',#735);
#30=PLANE('',#736);
#31=PLANE('',#737);
#32=PLANE('',#738);
#33=PLANE('',#739);
#34=PLANE('',#740);
#35=PLANE('',#741);
#36=PLANE('',#742);
#37=PLANE('',#743);
#38=PLANE('',#744);
#39=PLANE('',#745);
#40=PLANE('',#746);
#41=PLANE('',#747);
#42=PLANE('',#748);
#43=PLANE('',#749);
#44=PLANE('',#750);
#45=PLANE('',#751);
#46=PLANE('',#752);
#47=PLANE('',#753);
#48=PLANE('',#754);
#49=PLANE('',#755);
#50=PLANE('',#756);
#51=PLANE('',#757);
#52=PLANE('',#758);
#53=FACE_OUTER_BOUND('',#91,.T.);
#54=FACE_OUTER_BOUND('',#92,.T.);
#55=FACE_OUTER_BOUND('',#94,.T.);
#56=FACE_OUTER_BOUND('',#95,.T.);
#57=FACE_OUTER_BOUND('',#96,.T.);
#58=FACE_OUTER_BOUND('',#97,.T.);
#59=FACE_OUTER_BOUND('',#98,.T.);
#60=FACE_OUTER_BOUND('',#99,.T.);
#61=FACE_OUTER_BOUND('',#100,.T.);
#62=FACE_OUTER_BOUND('',#101,.T.);
#63=FACE_OUTER_BOUND('',#102,.T.);
#64=FACE_OUTER_BOUND('',#103,.T.);
#65=FACE_OUTER_BOUND('',#104,.T.);
#66=FACE_OUTER_BOUND('',#105,.T.);
#67=FACE_OUTER_BOUND('',#106,.T.);
#68=FACE_OUTER_BOUND('',#107,.T.);
#69=FACE_OUTER_BOUND('',#108,.T.);
#70=FACE_OUTER_BOUND('',#109,.T.);
#71=FACE_OUTER_BOUND('',#110,.T.);
#72=FACE_OUTER_BOUND('',#111,.T.);
#73=FACE_OUTER_BOUND('',#112,.T.);
#74=FACE_OUTER_BOUND('',#113,.T.);
#75=FACE_OUTER_BOUND('',#114,.T.);
#76=FACE_OUTER_BOUND('',#115,.T.);
#77=FACE_OUTER_BOUND('',#116,.T.);
#78=FACE_OUTER_BOUND('',#117,.T.);
#79=FACE_OUTER_BOUND('',#118,.T.);
#80=FACE_OUTER_BOUND('',#119,.T.);
#81=FACE_OUTER_BOUND('',#120,.T.);
#82=FACE_OUTER_BOUND('',#121,.T.);
#83=FACE_OUTER_BOUND('',#122,.T.);
#84=FACE_OUTER_BOUND('',#123,.T.);
#85=FACE_OUTER_BOUND('',#124,.T.);
#86=FACE_OUTER_BOUND('',#125,.T.);
#87=FACE_OUTER_BOUND('',#126,.T.);
#88=FACE_OUTER_BOUND('',#127,.T.);
#89=FACE_OUTER_BOUND('',#128,.T.);
#90=FACE_OUTER_BOUND('',#129,.T.);
#91=EDGE_LOOP('',(#465,#466,#467,#468,#469));
#92=EDGE_LOOP('',(#470,#471,#472,#473,#474,#475));
#93=EDGE_LOOP('',(#476));
#94=EDGE_LOOP('',(#477,#478,#479,#480,#481));
#95=EDGE_LOOP('',(#482,#483,#484,#485,#486));
#96=EDGE_LOOP('',(#487,#488,#489,#490,#491));
#97=EDGE_LOOP('',(#492,#493,#494,#495));
#98=EDGE_LOOP('',(#496,#497,#498,#499));
#99=EDGE_LOOP('',(#500,#501,#502,#503));
#100=EDGE_LOOP('',(#504,#505,#506,#507));
#101=EDGE_LOOP('',(#508,#509,#510,#511,#512,#513,#514,#515,#516,#517));
#102=EDGE_LOOP('',(#518,#519,#520,#521,#522));
#103=EDGE_LOOP('',(#523,#524,#525,#526,#527));
#104=EDGE_LOOP('',(#528,#529,#530,#531,#532,#533));
#105=EDGE_LOOP('',(#534,#535,#536,#537));
#106=EDGE_LOOP('',(#538));
#107=EDGE_LOOP('',(#539,#540,#541,#542));
#108=EDGE_LOOP('',(#543,#544,#545,#546,#547,#548,#549,#550,#551,#552,#553,
#554,#555));
#109=EDGE_LOOP('',(#556,#557,#558,#559));
#110=EDGE_LOOP('',(#560,#561,#562,#563,#564));
#111=EDGE_LOOP('',(#565,#566,#567,#568));
#112=EDGE_LOOP('',(#569,#570,#571,#572));
#113=EDGE_LOOP('',(#573,#574,#575,#576,#577,#578));
#114=EDGE_LOOP('',(#579,#580,#581,#582));
#115=EDGE_LOOP('',(#583,#584,#585,#586));
#116=EDGE_LOOP('',(#587,#588,#589,#590));
#117=EDGE_LOOP('',(#591,#592,#593,#594,#595));
#118=EDGE_LOOP('',(#596,#597,#598,#599));
#119=EDGE_LOOP('',(#600,#601,#602,#603,#604,#605,#606,#607,#608,#609));
#120=EDGE_LOOP('',(#610,#611,#612,#613));
#121=EDGE_LOOP('',(#614,#615,#616,#617));
#122=EDGE_LOOP('',(#618,#619,#620,#621));
#123=EDGE_LOOP('',(#622,#623,#624,#625));
#124=EDGE_LOOP('',(#626,#627,#628,#629));
#125=EDGE_LOOP('',(#630,#631,#632,#633));
#126=EDGE_LOOP('',(#634,#635,#636,#637));
#127=EDGE_LOOP('',(#638,#639,#640,#641));
#128=EDGE_LOOP('',(#642,#643,#644,#645));
#129=EDGE_LOOP('',(#646,#647,#648,#649,#650,#651,#652));
#130=LINE('',#942,#218);
#131=LINE('',#949,#219);
#132=LINE('',#951,#220);
#133=LINE('',#953,#221);
#134=LINE('',#955,#222);
#135=LINE('',#957,#223);
#136=LINE('',#958,#224);
#137=LINE('',#962,#225);
#138=LINE('',#965,#226);
#139=LINE('',#967,#227);
#140=LINE('',#969,#228);
#141=LINE('',#970,#229);
#142=LINE('',#973,#230);
#143=LINE('',#975,#231);
#144=LINE('',#976,#232);
#145=LINE('',#979,#233);
#146=LINE('',#980,#234);
#147=LINE('',#983,#235);
#148=LINE('',#984,#236);
#149=LINE('',#987,#237);
#150=LINE('',#988,#238);
#151=LINE('',#990,#239);
#152=LINE('',#993,#240);
#153=LINE('',#995,#241);
#154=LINE('',#997,#242);
#155=LINE('',#999,#243);
#156=LINE('',#1001,#244);
#157=LINE('',#1003,#245);
#158=LINE('',#1005,#246);
#159=LINE('',#1007,#247);
#160=LINE('',#1008,#248);
#161=LINE('',#1011,#249);
#162=LINE('',#1013,#250);
#163=LINE('',#1014,#251);
#164=LINE('',#1017,#252);
#165=LINE('',#1019,#253);
#166=LINE('',#1020,#254);
#167=LINE('',#1023,#255);
#168=LINE('',#1025,#256);
#169=LINE('',#1027,#257);
#170=LINE('',#1028,#258);
#171=LINE('',#1036,#259);
#172=LINE('',#1038,#260);
#173=LINE('',#1039,#261);
#174=LINE('',#1042,#262);
#175=LINE('',#1043,#263);
#176=LINE('',#1045,#264);
#177=LINE('',#1047,#265);
#178=LINE('',#1049,#266);
#179=LINE('',#1051,#267);
#180=LINE('',#1053,#268);
#181=LINE('',#1054,#269);
#182=LINE('',#1056,#270);
#183=LINE('',#1057,#271);
#184=LINE('',#1060,#272);
#185=LINE('',#1062,#273);
#186=LINE('',#1063,#274);
#187=LINE('',#1067,#275);
#188=LINE('',#1068,#276);
#189=LINE('',#1069,#277);
#190=LINE('',#1072,#278);
#191=LINE('',#1073,#279);
#192=LINE('',#1076,#280);
#193=LINE('',#1077,#281);
#194=LINE('',#1080,#282);
#195=LINE('',#1081,#283);
#196=LINE('',#1084,#284);
#197=LINE('',#1085,#285);
#198=LINE('',#1087,#286);
#199=LINE('',#1090,#287);
#200=LINE('',#1091,#288);
#201=LINE('',#1094,#289);
#202=LINE('',#1095,#290);
#203=LINE('',#1097,#291);
#204=LINE('',#1101,#292);
#205=LINE('',#1102,#293);
#206=LINE('',#1104,#294);
#207=LINE('',#1109,#295);
#208=LINE('',#1110,#296);
#209=LINE('',#1111,#297);
#210=LINE('',#1114,#298);
#211=LINE('',#1115,#299);
#212=LINE('',#1117,#300);
#213=LINE('',#1120,#301);
#214=LINE('',#1121,#302);
#215=LINE('',#1124,#303);
#216=LINE('',#1125,#304);
#217=LINE('',#1127,#305);
#218=VECTOR('',#765,5.3141714534052);
#219=VECTOR('',#772,10.);
#220=VECTOR('',#773,10.);
#221=VECTOR('',#774,10.);
#222=VECTOR('',#775,10.);
#223=VECTOR('',#776,10.);
#224=VECTOR('',#777,10.);
#225=VECTOR('',#782,4.8141714534052);
#226=VECTOR('',#785,10.);
#227=VECTOR('',#786,10.);
#228=VECTOR('',#787,10.);
#229=VECTOR('',#788,10.);
#230=VECTOR('',#791,10.);
#231=VECTOR('',#792,10.);
#232=VECTOR('',#793,10.);
#233=VECTOR('',#796,10.);
#234=VECTOR('',#797,10.);
#235=VECTOR('',#800,10.);
#236=VECTOR('',#801,10.);
#237=VECTOR('',#804,10.);
#238=VECTOR('',#805,10.);
#239=VECTOR('',#808,10.);
#240=VECTOR('',#811,10.);
#241=VECTOR('',#812,10.);
#242=VECTOR('',#813,10.);
#243=VECTOR('',#814,10.);
#244=VECTOR('',#815,10.);
#245=VECTOR('',#816,10.);
#246=VECTOR('',#817,10.);
#247=VECTOR('',#818,10.);
#248=VECTOR('',#819,10.);
#249=VECTOR('',#822,10.);
#250=VECTOR('',#823,10.);
#251=VECTOR('',#824,10.);
#252=VECTOR('',#827,10.);
#253=VECTOR('',#828,10.);
#254=VECTOR('',#829,10.);
#255=VECTOR('',#832,10.);
#256=VECTOR('',#833,10.);
#257=VECTOR('',#834,10.);
#258=VECTOR('',#835,10.);
#259=VECTOR('',#846,10.);
#260=VECTOR('',#847,10.);
#261=VECTOR('',#848,10.);
#262=VECTOR('',#851,10.);
#263=VECTOR('',#852,10.);
#264=VECTOR('',#853,10.);
#265=VECTOR('',#854,10.);
#266=VECTOR('',#855,10.);
#267=VECTOR('',#856,10.);
#268=VECTOR('',#857,10.);
#269=VECTOR('',#858,10.);
#270=VECTOR('',#859,10.);
#271=VECTOR('',#860,10.);
#272=VECTOR('',#863,10.);
#273=VECTOR('',#864,10.);
#274=VECTOR('',#865,10.);
#275=VECTOR('',#868,10.);
#276=VECTOR('',#869,10.);
#277=VECTOR('',#870,10.);
#278=VECTOR('',#873,10.);
#279=VECTOR('',#874,10.);
#280=VECTOR('',#877,10.);
#281=VECTOR('',#878,10.);
#282=VECTOR('',#881,10.);
#283=VECTOR('',#882,10.);
#284=VECTOR('',#885,10.);
#285=VECTOR('',#886,10.);
#286=VECTOR('',#889,10.);
#287=VECTOR('',#892,10.);
#288=VECTOR('',#893,10.);
#289=VECTOR('',#896,10.);
#290=VECTOR('',#897,10.);
#291=VECTOR('',#900,10.);
#292=VECTOR('',#905,10.);
#293=VECTOR('',#906,10.);
#294=VECTOR('',#909,10.);
#295=VECTOR('',#914,10.);
#296=VECTOR('',#915,10.);
#297=VECTOR('',#916,10.);
#298=VECTOR('',#919,10.);
#299=VECTOR('',#920,10.);
#300=VECTOR('',#923,10.);
#301=VECTOR('',#926,10.);
#302=VECTOR('',#927,10.);
#303=VECTOR('',#930,10.);
#304=VECTOR('',#931,10.);
#305=VECTOR('',#934,10.);
#306=CIRCLE('',#716,5.8141714534052);
#307=CIRCLE('',#717,4.8141714534052);
#308=CIRCLE('',#718,4.8141714534052);
#309=CIRCLE('',#721,4.8141714534052);
#310=CIRCLE('',#733,2.8141714534052);
#311=CIRCLE('',#734,2.);
#312=VERTEX_POINT('',#939);
#313=VERTEX_POINT('',#941);
#314=VERTEX_POINT('',#943);
#315=VERTEX_POINT('',#947);
#316=VERTEX_POINT('',#948);
#317=VERTEX_POINT('',#950);
#318=VERTEX_POINT('',#952);
#319=VERTEX_POINT('',#954);
#320=VERTEX_POINT('',#956);
#321=VERTEX_POINT('',#960);
#322=VERTEX_POINT('',#964);
#323=VERTEX_POINT('',#966);
#324=VERTEX_POINT('',#968);
#325=VERTEX_POINT('',#972);
#326=VERTEX_POINT('',#974);
#327=VERTEX_POINT('',#978);
#328=VERTEX_POINT('',#982);
#329=VERTEX_POINT('',#986);
#330=VERTEX_POINT('',#992);
#331=VERTEX_POINT('',#994);
#332=VERTEX_POINT('',#996);
#333=VERTEX_POINT('',#998);
#334=VERTEX_POINT('',#1000);
#335=VERTEX_POINT('',#1002);
#336=VERTEX_POINT('',#1004);
#337=VERTEX_POINT('',#1006);
#338=VERTEX_POINT('',#1010);
#339=VERTEX_POINT('',#1012);
#340=VERTEX_POINT('',#1016);
#341=VERTEX_POINT('',#1018);
#342=VERTEX_POINT('',#1022);
#343=VERTEX_POINT('',#1024);
#344=VERTEX_POINT('',#1026);
#345=VERTEX_POINT('',#1030);
#346=VERTEX_POINT('',#1035);
#347=VERTEX_POINT('',#1037);
#348=VERTEX_POINT('',#1041);
#349=VERTEX_POINT('',#1044);
#350=VERTEX_POINT('',#1046);
#351=VERTEX_POINT('',#1048);
#352=VERTEX_POINT('',#1050);
#353=VERTEX_POINT('',#1052);
#354=VERTEX_POINT('',#1055);
#355=VERTEX_POINT('',#1059);
#356=VERTEX_POINT('',#1061);
#357=VERTEX_POINT('',#1065);
#358=VERTEX_POINT('',#1066);
#359=VERTEX_POINT('',#1071);
#360=VERTEX_POINT('',#1075);
#361=VERTEX_POINT('',#1079);
#362=VERTEX_POINT('',#1083);
#363=VERTEX_POINT('',#1089);
#364=VERTEX_POINT('',#1093);
#365=VERTEX_POINT('',#1100);
#366=VERTEX_POINT('',#1107);
#367=VERTEX_POINT('',#1108);
#368=VERTEX_POINT('',#1113);
#369=VERTEX_POINT('',#1119);
#370=VERTEX_POINT('',#1123);
#371=EDGE_CURVE('',#312,#312,#306,.T.);
#372=EDGE_CURVE('',#312,#313,#130,.T.);
#373=EDGE_CURVE('',#313,#314,#307,.T.);
#374=EDGE_CURVE('',#314,#313,#308,.T.);
#375=EDGE_CURVE('',#315,#316,#131,.T.);
#376=EDGE_CURVE('',#317,#315,#132,.T.);
#377=EDGE_CURVE('',#318,#317,#133,.T.);
#378=EDGE_CURVE('',#319,#318,#134,.T.);
#379=EDGE_CURVE('',#320,#319,#135,.T.);
#380=EDGE_CURVE('',#316,#320,#136,.T.);
#381=EDGE_CURVE('',#321,#321,#309,.T.);
#382=EDGE_CURVE('',#321,#314,#137,.T.);
#383=EDGE_CURVE('',#322,#316,#138,.T.);
#384=EDGE_CURVE('',#322,#323,#139,.T.);
#385=EDGE_CURVE('',#323,#324,#140,.T.);
#386=EDGE_CURVE('',#315,#324,#141,.T.);
#387=EDGE_CURVE('',#320,#325,#142,.T.);
#388=EDGE_CURVE('',#325,#326,#143,.T.);
#389=EDGE_CURVE('',#326,#322,#144,.T.);
#390=EDGE_CURVE('',#319,#327,#145,.T.);
#391=EDGE_CURVE('',#327,#325,#146,.T.);
#392=EDGE_CURVE('',#318,#328,#147,.T.);
#393=EDGE_CURVE('',#328,#327,#148,.T.);
#394=EDGE_CURVE('',#329,#328,#149,.T.);
#395=EDGE_CURVE('',#317,#329,#150,.T.);
#396=EDGE_CURVE('',#324,#329,#151,.T.);
#397=EDGE_CURVE('',#330,#328,#152,.T.);
#398=EDGE_CURVE('',#330,#331,#153,.T.);
#399=EDGE_CURVE('',#332,#331,#154,.T.);
#400=EDGE_CURVE('',#332,#333,#155,.T.);
#401=EDGE_CURVE('',#333,#334,#156,.T.);
#402=EDGE_CURVE('',#334,#335,#157,.T.);
#403=EDGE_CURVE('',#336,#335,#158,.T.);
#404=EDGE_CURVE('',#336,#337,#159,.T.);
#405=EDGE_CURVE('',#337,#327,#160,.T.);
#406=EDGE_CURVE('',#338,#329,#161,.T.);
#407=EDGE_CURVE('',#338,#339,#162,.T.);
#408=EDGE_CURVE('',#339,#330,#163,.T.);
#409=EDGE_CURVE('',#340,#324,#164,.T.);
#410=EDGE_CURVE('',#341,#340,#165,.T.);
#411=EDGE_CURVE('',#341,#338,#166,.T.);
#412=EDGE_CURVE('',#342,#323,#167,.T.);
#413=EDGE_CURVE('',#342,#343,#168,.T.);
#414=EDGE_CURVE('',#344,#343,#169,.T.);
#415=EDGE_CURVE('',#344,#340,#170,.T.);
#416=EDGE_CURVE('',#345,#345,#310,.T.);
#417=EDGE_CURVE('',#345,#321,#311,.T.);
#418=EDGE_CURVE('',#346,#343,#171,.T.);
#419=EDGE_CURVE('',#342,#347,#172,.T.);
#420=EDGE_CURVE('',#347,#346,#173,.T.);
#421=EDGE_CURVE('',#344,#348,#174,.T.);
#422=EDGE_CURVE('',#348,#335,#175,.T.);
#423=EDGE_CURVE('',#334,#349,#176,.T.);
#424=EDGE_CURVE('',#349,#350,#177,.T.);
#425=EDGE_CURVE('',#350,#351,#178,.T.);
#426=EDGE_CURVE('',#351,#352,#179,.T.);
#427=EDGE_CURVE('',#352,#353,#180,.T.);
#428=EDGE_CURVE('',#353,#331,#181,.T.);
#429=EDGE_CURVE('',#330,#354,#182,.T.);
#430=EDGE_CURVE('',#354,#340,#183,.T.);
#431=EDGE_CURVE('',#343,#355,#184,.T.);
#432=EDGE_CURVE('',#355,#356,#185,.T.);
#433=EDGE_CURVE('',#356,#344,#186,.T.);
#434=EDGE_CURVE('',#357,#358,#187,.T.);
#435=EDGE_CURVE('',#358,#355,#188,.T.);
#436=EDGE_CURVE('',#357,#346,#189,.T.);
#437=EDGE_CURVE('',#359,#357,#190,.T.);
#438=EDGE_CURVE('',#359,#347,#191,.T.);
#439=EDGE_CURVE('',#360,#359,#192,.T.);
#440=EDGE_CURVE('',#360,#342,#193,.T.);
#441=EDGE_CURVE('',#361,#326,#194,.T.);
#442=EDGE_CURVE('',#361,#360,#195,.T.);
#443=EDGE_CURVE('',#362,#325,#196,.T.);
#444=EDGE_CURVE('',#362,#361,#197,.T.);
#445=EDGE_CURVE('',#337,#362,#198,.T.);
#446=EDGE_CURVE('',#363,#336,#199,.T.);
#447=EDGE_CURVE('',#363,#348,#200,.T.);
#448=EDGE_CURVE('',#364,#363,#201,.T.);
#449=EDGE_CURVE('',#364,#356,#202,.T.);
#450=EDGE_CURVE('',#358,#364,#203,.T.);
#451=EDGE_CURVE('',#339,#365,#204,.T.);
#452=EDGE_CURVE('',#365,#354,#205,.T.);
#453=EDGE_CURVE('',#365,#341,#206,.T.);
#454=EDGE_CURVE('',#366,#367,#207,.T.);
#455=EDGE_CURVE('',#367,#351,#208,.T.);
#456=EDGE_CURVE('',#366,#350,#209,.T.);
#457=EDGE_CURVE('',#368,#366,#210,.T.);
#458=EDGE_CURVE('',#368,#349,#211,.T.);
#459=EDGE_CURVE('',#333,#368,#212,.T.);
#460=EDGE_CURVE('',#369,#332,#213,.T.);
#461=EDGE_CURVE('',#369,#353,#214,.T.);
#462=EDGE_CURVE('',#370,#369,#215,.T.);
#463=EDGE_CURVE('',#370,#352,#216,.T.);
#464=EDGE_CURVE('',#367,#370,#217,.T.);
#465=ORIENTED_EDGE('',*,*,#371,.T.);
#466=ORIENTED_EDGE('',*,*,#372,.T.);
#467=ORIENTED_EDGE('',*,*,#373,.T.);
#468=ORIENTED_EDGE('',*,*,#374,.T.);
#469=ORIENTED_EDGE('',*,*,#372,.F.);
#470=ORIENTED_EDGE('',*,*,#375,.F.);
#471=ORIENTED_EDGE('',*,*,#376,.F.);
#472=ORIENTED_EDGE('',*,*,#377,.F.);
#473=ORIENTED_EDGE('',*,*,#378,.F.);
#474=ORIENTED_EDGE('',*,*,#379,.F.);
#475=ORIENTED_EDGE('',*,*,#380,.F.);
#476=ORIENTED_EDGE('',*,*,#371,.F.);
#477=ORIENTED_EDGE('',*,*,#381,.F.);
#478=ORIENTED_EDGE('',*,*,#382,.T.);
#479=ORIENTED_EDGE('',*,*,#373,.F.);
#480=ORIENTED_EDGE('',*,*,#374,.F.);
#481=ORIENTED_EDGE('',*,*,#382,.F.);
#482=ORIENTED_EDGE('',*,*,#383,.F.);
#483=ORIENTED_EDGE('',*,*,#384,.T.);
#484=ORIENTED_EDGE('',*,*,#385,.T.);
#485=ORIENTED_EDGE('',*,*,#386,.F.);
#486=ORIENTED_EDGE('',*,*,#375,.T.);
#487=ORIENTED_EDGE('',*,*,#383,.T.);
#488=ORIENTED_EDGE('',*,*,#380,.T.);
#489=ORIENTED_EDGE('',*,*,#387,.T.);
#490=ORIENTED_EDGE('',*,*,#388,.T.);
#491=ORIENTED_EDGE('',*,*,#389,.T.);
#492=ORIENTED_EDGE('',*,*,#379,.T.);
#493=ORIENTED_EDGE('',*,*,#390,.T.);
#494=ORIENTED_EDGE('',*,*,#391,.T.);
#495=ORIENTED_EDGE('',*,*,#387,.F.);
#496=ORIENTED_EDGE('',*,*,#378,.T.);
#497=ORIENTED_EDGE('',*,*,#392,.T.);
#498=ORIENTED_EDGE('',*,*,#393,.T.);
#499=ORIENTED_EDGE('',*,*,#390,.F.);
#500=ORIENTED_EDGE('',*,*,#394,.T.);
#501=ORIENTED_EDGE('',*,*,#392,.F.);
#502=ORIENTED_EDGE('',*,*,#377,.T.);
#503=ORIENTED_EDGE('',*,*,#395,.T.);
#504=ORIENTED_EDGE('',*,*,#396,.T.);
#505=ORIENTED_EDGE('',*,*,#395,.F.);
#506=ORIENTED_EDGE('',*,*,#376,.T.);
#507=ORIENTED_EDGE('',*,*,#386,.T.);
#508=ORIENTED_EDGE('',*,*,#393,.F.);
#509=ORIENTED_EDGE('',*,*,#397,.F.);
#510=ORIENTED_EDGE('',*,*,#398,.T.);
#511=ORIENTED_EDGE('',*,*,#399,.F.);
#512=ORIENTED_EDGE('',*,*,#400,.T.);
#513=ORIENTED_EDGE('',*,*,#401,.T.);
#514=ORIENTED_EDGE('',*,*,#402,.T.);
#515=ORIENTED_EDGE('',*,*,#403,.F.);
#516=ORIENTED_EDGE('',*,*,#404,.T.);
#517=ORIENTED_EDGE('',*,*,#405,.T.);
#518=ORIENTED_EDGE('',*,*,#394,.F.);
#519=ORIENTED_EDGE('',*,*,#406,.F.);
#520=ORIENTED_EDGE('',*,*,#407,.T.);
#521=ORIENTED_EDGE('',*,*,#408,.T.);
#522=ORIENTED_EDGE('',*,*,#397,.T.);
#523=ORIENTED_EDGE('',*,*,#396,.F.);
#524=ORIENTED_EDGE('',*,*,#409,.F.);
#525=ORIENTED_EDGE('',*,*,#410,.F.);
#526=ORIENTED_EDGE('',*,*,#411,.T.);
#527=ORIENTED_EDGE('',*,*,#406,.T.);
#528=ORIENTED_EDGE('',*,*,#385,.F.);
#529=ORIENTED_EDGE('',*,*,#412,.F.);
#530=ORIENTED_EDGE('',*,*,#413,.T.);
#531=ORIENTED_EDGE('',*,*,#414,.F.);
#532=ORIENTED_EDGE('',*,*,#415,.T.);
#533=ORIENTED_EDGE('',*,*,#409,.T.);
#534=ORIENTED_EDGE('',*,*,#416,.T.);
#535=ORIENTED_EDGE('',*,*,#417,.T.);
#536=ORIENTED_EDGE('',*,*,#381,.T.);
#537=ORIENTED_EDGE('',*,*,#417,.F.);
#538=ORIENTED_EDGE('',*,*,#416,.F.);
#539=ORIENTED_EDGE('',*,*,#418,.T.);
#540=ORIENTED_EDGE('',*,*,#413,.F.);
#541=ORIENTED_EDGE('',*,*,#419,.T.);
#542=ORIENTED_EDGE('',*,*,#420,.T.);
#543=ORIENTED_EDGE('',*,*,#421,.T.);
#544=ORIENTED_EDGE('',*,*,#422,.T.);
#545=ORIENTED_EDGE('',*,*,#402,.F.);
#546=ORIENTED_EDGE('',*,*,#423,.T.);
#547=ORIENTED_EDGE('',*,*,#424,.T.);
#548=ORIENTED_EDGE('',*,*,#425,.T.);
#549=ORIENTED_EDGE('',*,*,#426,.T.);
#550=ORIENTED_EDGE('',*,*,#427,.T.);
#551=ORIENTED_EDGE('',*,*,#428,.T.);
#552=ORIENTED_EDGE('',*,*,#398,.F.);
#553=ORIENTED_EDGE('',*,*,#429,.T.);
#554=ORIENTED_EDGE('',*,*,#430,.T.);
#555=ORIENTED_EDGE('',*,*,#415,.F.);
#556=ORIENTED_EDGE('',*,*,#414,.T.);
#557=ORIENTED_EDGE('',*,*,#431,.T.);
#558=ORIENTED_EDGE('',*,*,#432,.T.);
#559=ORIENTED_EDGE('',*,*,#433,.T.);
#560=ORIENTED_EDGE('',*,*,#434,.T.);
#561=ORIENTED_EDGE('',*,*,#435,.T.);
#562=ORIENTED_EDGE('',*,*,#431,.F.);
#563=ORIENTED_EDGE('',*,*,#418,.F.);
#564=ORIENTED_EDGE('',*,*,#436,.F.);
#565=ORIENTED_EDGE('',*,*,#437,.T.);
#566=ORIENTED_EDGE('',*,*,#436,.T.);
#567=ORIENTED_EDGE('',*,*,#420,.F.);
#568=ORIENTED_EDGE('',*,*,#438,.F.);
#569=ORIENTED_EDGE('',*,*,#439,.T.);
#570=ORIENTED_EDGE('',*,*,#438,.T.);
#571=ORIENTED_EDGE('',*,*,#419,.F.);
#572=ORIENTED_EDGE('',*,*,#440,.F.);
#573=ORIENTED_EDGE('',*,*,#389,.F.);
#574=ORIENTED_EDGE('',*,*,#441,.F.);
#575=ORIENTED_EDGE('',*,*,#442,.T.);
#576=ORIENTED_EDGE('',*,*,#440,.T.);
#577=ORIENTED_EDGE('',*,*,#412,.T.);
#578=ORIENTED_EDGE('',*,*,#384,.F.);
#579=ORIENTED_EDGE('',*,*,#388,.F.);
#580=ORIENTED_EDGE('',*,*,#443,.F.);
#581=ORIENTED_EDGE('',*,*,#444,.T.);
#582=ORIENTED_EDGE('',*,*,#441,.T.);
#583=ORIENTED_EDGE('',*,*,#391,.F.);
#584=ORIENTED_EDGE('',*,*,#405,.F.);
#585=ORIENTED_EDGE('',*,*,#445,.T.);
#586=ORIENTED_EDGE('',*,*,#443,.T.);
#587=ORIENTED_EDGE('',*,*,#446,.T.);
#588=ORIENTED_EDGE('',*,*,#403,.T.);
#589=ORIENTED_EDGE('',*,*,#422,.F.);
#590=ORIENTED_EDGE('',*,*,#447,.F.);
#591=ORIENTED_EDGE('',*,*,#448,.T.);
#592=ORIENTED_EDGE('',*,*,#447,.T.);
#593=ORIENTED_EDGE('',*,*,#421,.F.);
#594=ORIENTED_EDGE('',*,*,#433,.F.);
#595=ORIENTED_EDGE('',*,*,#449,.F.);
#596=ORIENTED_EDGE('',*,*,#450,.T.);
#597=ORIENTED_EDGE('',*,*,#449,.T.);
#598=ORIENTED_EDGE('',*,*,#432,.F.);
#599=ORIENTED_EDGE('',*,*,#435,.F.);
#600=ORIENTED_EDGE('',*,*,#450,.F.);
#601=ORIENTED_EDGE('',*,*,#434,.F.);
#602=ORIENTED_EDGE('',*,*,#437,.F.);
#603=ORIENTED_EDGE('',*,*,#439,.F.);
#604=ORIENTED_EDGE('',*,*,#442,.F.);
#605=ORIENTED_EDGE('',*,*,#444,.F.);
#606=ORIENTED_EDGE('',*,*,#445,.F.);
#607=ORIENTED_EDGE('',*,*,#404,.F.);
#608=ORIENTED_EDGE('',*,*,#446,.F.);
#609=ORIENTED_EDGE('',*,*,#448,.F.);
#610=ORIENTED_EDGE('',*,*,#451,.T.);
#611=ORIENTED_EDGE('',*,*,#452,.T.);
#612=ORIENTED_EDGE('',*,*,#429,.F.);
#613=ORIENTED_EDGE('',*,*,#408,.F.);
#614=ORIENTED_EDGE('',*,*,#453,.T.);
#615=ORIENTED_EDGE('',*,*,#410,.T.);
#616=ORIENTED_EDGE('',*,*,#430,.F.);
#617=ORIENTED_EDGE('',*,*,#452,.F.);
#618=ORIENTED_EDGE('',*,*,#453,.F.);
#619=ORIENTED_EDGE('',*,*,#451,.F.);
#620=ORIENTED_EDGE('',*,*,#407,.F.);
#621=ORIENTED_EDGE('',*,*,#411,.F.);
#622=ORIENTED_EDGE('',*,*,#454,.T.);
#623=ORIENTED_EDGE('',*,*,#455,.T.);
#624=ORIENTED_EDGE('',*,*,#425,.F.);
#625=ORIENTED_EDGE('',*,*,#456,.F.);
#626=ORIENTED_EDGE('',*,*,#457,.T.);
#627=ORIENTED_EDGE('',*,*,#456,.T.);
#628=ORIENTED_EDGE('',*,*,#424,.F.);
#629=ORIENTED_EDGE('',*,*,#458,.F.);
#630=ORIENTED_EDGE('',*,*,#459,.T.);
#631=ORIENTED_EDGE('',*,*,#458,.T.);
#632=ORIENTED_EDGE('',*,*,#423,.F.);
#633=ORIENTED_EDGE('',*,*,#401,.F.);
#634=ORIENTED_EDGE('',*,*,#460,.T.);
#635=ORIENTED_EDGE('',*,*,#399,.T.);
#636=ORIENTED_EDGE('',*,*,#428,.F.);
#637=ORIENTED_EDGE('',*,*,#461,.F.);
#638=ORIENTED_EDGE('',*,*,#462,.T.);
#639=ORIENTED_EDGE('',*,*,#461,.T.);
#640=ORIENTED_EDGE('',*,*,#427,.F.);
#641=ORIENTED_EDGE('',*,*,#463,.F.);
#642=ORIENTED_EDGE('',*,*,#464,.T.);
#643=ORIENTED_EDGE('',*,*,#463,.T.);
#644=ORIENTED_EDGE('',*,*,#426,.F.);
#645=ORIENTED_EDGE('',*,*,#455,.F.);
#646=ORIENTED_EDGE('',*,*,#464,.F.);
#647=ORIENTED_EDGE('',*,*,#454,.F.);
#648=ORIENTED_EDGE('',*,*,#457,.F.);
#649=ORIENTED_EDGE('',*,*,#459,.F.);
#650=ORIENTED_EDGE('',*,*,#400,.F.);
#651=ORIENTED_EDGE('',*,*,#460,.F.);
#652=ORIENTED_EDGE('',*,*,#462,.F.);
#653=CONICAL_SURFACE('',#715,5.3141714534052,0.785398163397448);
#654=ADVANCED_FACE('',(#53),#653,.T.);
#655=ADVANCED_FACE('',(#54,#17),#18,.T.);
#656=ADVANCED_FACE('',(#55),#16,.T.);
#657=ADVANCED_FACE('',(#56),#19,.T.);
#658=ADVANCED_FACE('',(#57),#20,.T.);
#659=ADVANCED_FACE('',(#58),#21,.T.);
#660=ADVANCED_FACE('',(#59),#22,.T.);
#661=ADVANCED_FACE('',(#60),#23,.T.);
#662=ADVANCED_FACE('',(#61),#24,.T.);
#663=ADVANCED_FACE('',(#62),#25,.T.);
#664=ADVANCED_FACE('',(#63),#26,.T.);
#665=ADVANCED_FACE('',(#64),#27,.T.);
#666=ADVANCED_FACE('',(#65),#28,.T.);
#667=ADVANCED_FACE('',(#66),#15,.T.);
#668=ADVANCED_FACE('',(#67),#29,.T.);
#669=ADVANCED_FACE('',(#68),#30,.F.);
#670=ADVANCED_FACE('',(#69),#31,.F.);
#671=ADVANCED_FACE('',(#70),#32,.T.);
#672=ADVANCED_FACE('',(#71),#33,.T.);
#673=ADVANCED_FACE('',(#72),#34,.T.);
#674=ADVANCED_FACE('',(#73),#35,.T.);
#675=ADVANCED_FACE('',(#74),#36,.T.);
#676=ADVANCED_FACE('',(#75),#37,.T.);
#677=ADVANCED_FACE('',(#76),#38,.T.);
#678=ADVANCED_FACE('',(#77),#39,.T.);
#679=ADVANCED_FACE('',(#78),#40,.T.);
#680=ADVANCED_FACE('',(#79),#41,.T.);
#681=ADVANCED_FACE('',(#80),#42,.F.);
#682=ADVANCED_FACE('',(#81),#43,.T.);
#683=ADVANCED_FACE('',(#82),#44,.T.);
#684=ADVANCED_FACE('',(#83),#45,.F.);
#685=ADVANCED_FACE('',(#84),#46,.T.);
#686=ADVANCED_FACE('',(#85),#47,.T.);
#687=ADVANCED_FACE('',(#86),#48,.T.);
#688=ADVANCED_FACE('',(#87),#49,.T.);
#689=ADVANCED_FACE('',(#88),#50,.T.);
#690=ADVANCED_FACE('',(#89),#51,.T.);
#691=ADVANCED_FACE('',(#90),#52,.F.);
#692=CLOSED_SHELL('',(#654,#655,#656,#657,#658,#659,#660,#661,#662,#663,
#664,#665,#666,#667,#668,#669,#670,#671,#672,#673,#674,#675,#676,#677,#678,
#679,#680,#681,#682,#683,#684,#685,#686,#687,#688,#689,#690,#691));
#693=DERIVED_UNIT_ELEMENT(#696,1.);
#694=DERIVED_UNIT_ELEMENT(#1134,-3.);
#695=DIMENSIONAL_EXPONENTS(0.,1.,0.,0.,0.,0.,0.);
#696=(
CONVERSION_BASED_UNIT('gram',#698)
MASS_UNIT()
NAMED_UNIT(#695)
);
#697=(
MASS_UNIT()
NAMED_UNIT(*)
SI_UNIT(.KILO.,.GRAM.)
);
#698=MASS_MEASURE_WITH_UNIT(MASS_MEASURE(0.001),#697);
#699=DERIVED_UNIT((#693,#694));
#700=MEASURE_REPRESENTATION_ITEM('density measure',
POSITIVE_RATIO_MEASURE(1.),#699);
#701=PROPERTY_DEFINITION_REPRESENTATION(#706,#703);
#702=PROPERTY_DEFINITION_REPRESENTATION(#707,#704);
#703=REPRESENTATION('material name',(#705),#1131);
#704=REPRESENTATION('density',(#700),#1131);
#705=DESCRIPTIVE_REPRESENTATION_ITEM('Generic','Generic');
#706=PROPERTY_DEFINITION('material property','material name',#1141);
#707=PROPERTY_DEFINITION('material property','density of part',#1141);
#708=DATE_TIME_ROLE('creation_date');
#709=APPLIED_DATE_AND_TIME_ASSIGNMENT(#710,#708,(#1141));
#710=DATE_AND_TIME(#711,#712);
#711=CALENDAR_DATE(2026,17,7);
#712=LOCAL_TIME(0,0,0.,#713);
#713=COORDINATED_UNIVERSAL_TIME_OFFSET(0,0,.BEHIND.);
#714=AXIS2_PLACEMENT_3D('',#937,#759,#760);
#715=AXIS2_PLACEMENT_3D('',#938,#761,#762);
#716=AXIS2_PLACEMENT_3D('',#940,#763,#764);
#717=AXIS2_PLACEMENT_3D('',#944,#766,#767);
#718=AXIS2_PLACEMENT_3D('',#945,#768,#769);
#719=AXIS2_PLACEMENT_3D('',#946,#770,#771);
#720=AXIS2_PLACEMENT_3D('',#959,#778,#779);
#721=AXIS2_PLACEMENT_3D('',#961,#780,#781);
#722=AXIS2_PLACEMENT_3D('',#963,#783,#784);
#723=AXIS2_PLACEMENT_3D('',#971,#789,#790);
#724=AXIS2_PLACEMENT_3D('',#977,#794,#795);
#725=AXIS2_PLACEMENT_3D('',#981,#798,#799);
#726=AXIS2_PLACEMENT_3D('',#985,#802,#803);
#727=AXIS2_PLACEMENT_3D('',#989,#806,#807);
#728=AXIS2_PLACEMENT_3D('',#991,#809,#810);
#729=AXIS2_PLACEMENT_3D('',#1009,#820,#821);
#730=AXIS2_PLACEMENT_3D('',#1015,#825,#826);
#731=AXIS2_PLACEMENT_3D('',#1021,#830,#831);
#732=AXIS2_PLACEMENT_3D('',#1029,#836,#837);
#733=AXIS2_PLACEMENT_3D('',#1031,#838,#839);
#734=AXIS2_PLACEMENT_3D('',#1032,#840,#841);
#735=AXIS2_PLACEMENT_3D('',#1033,#842,#843);
#736=AXIS2_PLACEMENT_3D('',#1034,#844,#845);
#737=AXIS2_PLACEMENT_3D('',#1040,#849,#850);
#738=AXIS2_PLACEMENT_3D('',#1058,#861,#862);
#739=AXIS2_PLACEMENT_3D('',#1064,#866,#867);
#740=AXIS2_PLACEMENT_3D('',#1070,#871,#872);
#741=AXIS2_PLACEMENT_3D('',#1074,#875,#876);
#742=AXIS2_PLACEMENT_3D('',#1078,#879,#880);
#743=AXIS2_PLACEMENT_3D('',#1082,#883,#884);
#744=AXIS2_PLACEMENT_3D('',#1086,#887,#888);
#745=AXIS2_PLACEMENT_3D('',#1088,#890,#891);
#746=AXIS2_PLACEMENT_3D('',#1092,#894,#895);
#747=AXIS2_PLACEMENT_3D('',#1096,#898,#899);
#748=AXIS2_PLACEMENT_3D('',#1098,#901,#902);
#749=AXIS2_PLACEMENT_3D('',#1099,#903,#904);
#750=AXIS2_PLACEMENT_3D('',#1103,#907,#908);
#751=AXIS2_PLACEMENT_3D('',#1105,#910,#911);
#752=AXIS2_PLACEMENT_3D('',#1106,#912,#913);
#753=AXIS2_PLACEMENT_3D('',#1112,#917,#918);
#754=AXIS2_PLACEMENT_3D('',#1116,#921,#922);
#755=AXIS2_PLACEMENT_3D('',#1118,#924,#925);
#756=AXIS2_PLACEMENT_3D('',#1122,#928,#929);
#757=AXIS2_PLACEMENT_3D('',#1126,#932,#933);
#758=AXIS2_PLACEMENT_3D('',#1128,#935,#936);
#759=DIRECTION('axis',(0.,0.,1.));
#760=DIRECTION('refdir',(1.,0.,0.));
#761=DIRECTION('center_axis',(0.,0.,-1.));
#762=DIRECTION('ref_axis',(-1.,0.,0.));
#763=DIRECTION('center_axis',(0.,0.,1.));
#764=DIRECTION('ref_axis',(-1.,0.,0.));
#765=DIRECTION('',(-0.707106781186547,8.65956056235493E-17,0.707106781186548));
#766=DIRECTION('center_axis',(0.,0.,-1.));
#767=DIRECTION('ref_axis',(-1.,0.,0.));
#768=DIRECTION('center_axis',(0.,0.,-1.));
#769=DIRECTION('ref_axis',(-1.,0.,0.));
#770=DIRECTION('center_axis',(0.,0.,1.));
#771=DIRECTION('ref_axis',(1.,0.,0.));
#772=DIRECTION('',(0.00249795690602439,-0.999996880100781,0.));
#773=DIRECTION('',(0.906161671665488,-0.422931465848083,0.));
#774=DIRECTION('',(0.923134441424654,0.38447731149652,0.));
#775=DIRECTION('',(0.,1.,0.));
#776=DIRECTION('',(-0.903655716458545,0.428259671358154,0.));
#777=DIRECTION('',(-0.923721014589702,-0.383065904519539,0.));
#778=DIRECTION('center_axis',(0.,0.,1.));
#779=DIRECTION('ref_axis',(1.,0.,0.));
#780=DIRECTION('center_axis',(0.,0.,1.));
#781=DIRECTION('ref_axis',(-1.,1.1530779858701E-16,0.));
#782=DIRECTION('',(0.,0.,-1.));
#783=DIRECTION('center_axis',(0.707104575084654,0.00176632226736161,0.707106781186547));
#784=DIRECTION('ref_axis',(0.707107884238355,0.,-0.70710567813302));
#785=DIRECTION('',(-0.640141857312008,0.426382262397557,0.639074775616965));
#786=DIRECTION('',(0.,0.999996880120248,-0.00249794911269922));
#787=DIRECTION('',(-0.00249795690602439,0.999996880100781,0.));
#788=DIRECTION('',(0.644026170978104,0.411264968455642,-0.645051483849516));
#789=DIRECTION('center_axis',(0.270868498727124,-0.653169393340896,0.707106781186547));
#790=DIRECTION('ref_axis',(0.933829557995349,0.,-0.357718264300569));
#791=DIRECTION('',(-0.0182498692608942,-0.73792004439734,-0.674641349421));
#792=DIRECTION('',(0.923721014589702,0.383065904519539,0.));
#793=DIRECTION('',(0.,0.734567591642485,0.67853552103671));
#794=DIRECTION('center_axis',(-0.302825317726073,-0.638981084965826,0.707106781186547));
#795=DIRECTION('ref_axis',(0.919248760735172,0.,0.393677172168835));
#796=DIRECTION('',(-0.645456133147164,-0.408378207505518,-0.645456133147165));
#797=DIRECTION('',(0.903655716458545,-0.428259671358154,0.));
#798=DIRECTION('center_axis',(-0.707106781186548,0.,0.707106781186547));
#799=DIRECTION('ref_axis',(0.707106781186547,0.,0.707106781186548));
#800=DIRECTION('',(-0.639583303696006,0.426457964243375,-0.639583303696007));
#801=DIRECTION('',(0.,-1.,0.));
#802=DIRECTION('center_axis',(-0.271866514171562,0.652754623478229,0.707106781186547));
#803=DIRECTION('ref_axis',(0.933388779520482,0.,0.358866808531054));
#804=DIRECTION('',(-0.923134441424654,-0.38447731149652,0.));
#805=DIRECTION('',(0.0155065278165604,0.737658428346211,-0.674995993088012));
#806=DIRECTION('center_axis',(0.299057707478346,0.640753062886005,0.707106781186547));
#807=DIRECTION('ref_axis',(0.921015318016155,0.,-0.389526358517111));
#808=DIRECTION('',(-0.906161671665488,0.422931465848083,0.));
#809=DIRECTION('center_axis',(-1.,0.,0.));
#810=DIRECTION('ref_axis',(0.,-1.,0.));
#811=DIRECTION('',(0.,0.,1.));
#812=DIRECTION('',(0.,-1.,0.));
#813=DIRECTION('',(0.,0.,1.));
#814=DIRECTION('',(0.,-1.,0.));
#815=DIRECTION('',(0.,0.,1.));
#816=DIRECTION('',(0.,-1.,0.));
#817=DIRECTION('',(0.,0.,1.));
#818=DIRECTION('',(0.,-1.,0.));
#819=DIRECTION('',(0.,0.,1.));
#820=DIRECTION('center_axis',(-0.38447731149652,0.923134441424654,0.));
#821=DIRECTION('ref_axis',(-0.923134441424654,-0.38447731149652,0.));
#822=DIRECTION('',(0.,0.,1.));
#823=DIRECTION('',(-0.923134441424654,-0.38447731149652,0.));
#824=DIRECTION('',(0.,0.,1.));
#825=DIRECTION('center_axis',(0.422931465848083,0.906161671665488,0.));
#826=DIRECTION('ref_axis',(-0.906161671665488,0.422931465848083,0.));
#827=DIRECTION('',(0.,0.,1.));
#828=DIRECTION('',(0.,0.,1.));
#829=DIRECTION('',(-0.906161671665488,0.422931465848083,0.));
#830=DIRECTION('center_axis',(0.999996880100781,0.00249795690602439,0.));
#831=DIRECTION('ref_axis',(-0.00249795690602439,0.999996880100781,0.));
#832=DIRECTION('',(0.,0.,1.));
#833=DIRECTION('',(-0.00249795690602439,0.999996880100781,0.));
#834=DIRECTION('',(0.00249795690602439,-0.999996880100781,0.));
#835=DIRECTION('',(-0.00249795690602439,0.999996880100781,0.));
#836=DIRECTION('center_axis',(0.,0.,1.));
#837=DIRECTION('ref_axis',(1.,0.,0.));
#838=DIRECTION('center_axis',(0.,0.,-1.));
#839=DIRECTION('ref_axis',(-1.,1.1530779858701E-16,0.));
#840=DIRECTION('center_axis',(1.1530779858701E-16,-1.,0.));
#841=DIRECTION('ref_axis',(-1.,-1.1530779858701E-16,0.));
#842=DIRECTION('center_axis',(0.,0.,1.));
#843=DIRECTION('ref_axis',(1.,0.,0.));
#844=DIRECTION('center_axis',(0.,0.,1.));
#845=DIRECTION('ref_axis',(1.,0.,0.));
#846=DIRECTION('',(0.923721014589683,0.383065904519582,0.));
#847=DIRECTION('',(-0.923721014589701,-0.383065904519541,0.));
#848=DIRECTION('',(0.,1.,0.));
#849=DIRECTION('center_axis',(0.,0.,1.));
#850=DIRECTION('ref_axis',(1.,0.,0.));
#851=DIRECTION('',(-0.92326884041797,-0.38415445892669,0.));
#852=DIRECTION('',(-0.906706638936456,0.421761865166298,0.));
#853=DIRECTION('',(0.906161671665471,-0.42293146584812,0.));
#854=DIRECTION('',(0.,1.,0.));
#855=DIRECTION('',(0.923134441424654,0.384477311496521,0.));
#856=DIRECTION('',(0.,1.,0.));
#857=DIRECTION('',(-0.923134441424654,-0.38447731149652,0.));
#858=DIRECTION('',(-0.906161671665478,0.422931465848104,0.));
#859=DIRECTION('',(0.906161671665484,-0.422931465848091,0.));
#860=DIRECTION('',(0.923134441424654,0.38447731149652,0.));
#861=DIRECTION('center_axis',(0.,0.,1.));
#862=DIRECTION('ref_axis',(1.,0.,0.));
#863=DIRECTION('',(0.923721014589683,0.383065904519582,0.));
#864=DIRECTION('',(0.,1.,0.));
#865=DIRECTION('',(-0.92326884041797,-0.38415445892669,0.));
#866=DIRECTION('center_axis',(0.383065904519582,-0.923721014589684,0.));
#867=DIRECTION('ref_axis',(0.923721014589683,0.383065904519582,0.));
#868=DIRECTION('',(0.923721014589683,0.383065904519582,0.));
#869=DIRECTION('',(0.,0.,1.));
#870=DIRECTION('',(0.,0.,1.));
#871=DIRECTION('center_axis',(1.,0.,0.));
#872=DIRECTION('ref_axis',(0.,1.,0.));
#873=DIRECTION('',(0.,1.,0.));
#874=DIRECTION('',(0.,0.,1.));
#875=DIRECTION('center_axis',(-0.383065904519541,0.923721014589701,0.));
#876=DIRECTION('ref_axis',(-0.923721014589701,-0.383065904519541,0.));
#877=DIRECTION('',(-0.923721014589701,-0.383065904519541,0.));
#878=DIRECTION('',(0.,0.,1.));
#879=DIRECTION('center_axis',(1.,0.,0.));
#880=DIRECTION('ref_axis',(0.,1.,0.));
#881=DIRECTION('',(0.,0.,1.));
#882=DIRECTION('',(0.,1.,0.));
#883=DIRECTION('center_axis',(0.383065904519539,-0.923721014589702,0.));
#884=DIRECTION('ref_axis',(0.923721014589702,0.383065904519539,0.));
#885=DIRECTION('',(0.,0.,1.));
#886=DIRECTION('',(0.923721014589702,0.383065904519539,0.));
#887=DIRECTION('center_axis',(-0.428259671358154,-0.903655716458545,0.));
#888=DIRECTION('ref_axis',(0.903655716458545,-0.428259671358154,0.));
#889=DIRECTION('',(0.903655716458545,-0.428259671358154,0.));
#890=DIRECTION('center_axis',(0.421761865166298,0.906706638936456,0.));
#891=DIRECTION('ref_axis',(-0.906706638936456,0.421761865166298,0.));
#892=DIRECTION('',(-0.906706638936456,0.421761865166298,0.));
#893=DIRECTION('',(0.,0.,1.));
#894=DIRECTION('center_axis',(-0.38415445892669,0.92326884041797,0.));
#895=DIRECTION('ref_axis',(-0.92326884041797,-0.38415445892669,0.));
#896=DIRECTION('',(-0.92326884041797,-0.38415445892669,0.));
#897=DIRECTION('',(0.,0.,1.));
#898=DIRECTION('center_axis',(1.,0.,0.));
#899=DIRECTION('ref_axis',(0.,1.,0.));
#900=DIRECTION('',(0.,1.,0.));
#901=DIRECTION('center_axis',(0.,0.,1.));
#902=DIRECTION('ref_axis',(1.,0.,0.));
#903=DIRECTION('center_axis',(-0.422931465848091,-0.906161671665485,0.));
#904=DIRECTION('ref_axis',(0.906161671665484,-0.422931465848091,0.));
#905=DIRECTION('',(0.906161671665484,-0.422931465848091,0.));
#906=DIRECTION('',(0.,0.,1.));
#907=DIRECTION('center_axis',(0.38447731149652,-0.923134441424654,0.));
#908=DIRECTION('ref_axis',(0.923134441424654,0.38447731149652,0.));
#909=DIRECTION('',(0.923134441424654,0.38447731149652,0.));
#910=DIRECTION('center_axis',(0.,0.,1.));
#911=DIRECTION('ref_axis',(1.,0.,0.));
#912=DIRECTION('center_axis',(0.384477311496521,-0.923134441424654,0.));
#913=DIRECTION('ref_axis',(0.923134441424654,0.384477311496521,0.));
#914=DIRECTION('',(0.923134441424654,0.384477311496521,0.));
#915=DIRECTION('',(0.,0.,1.));
#916=DIRECTION('',(0.,0.,1.));
#917=DIRECTION('center_axis',(1.,0.,0.));
#918=DIRECTION('ref_axis',(0.,1.,0.));
#919=DIRECTION('',(0.,1.,0.));
#920=DIRECTION('',(0.,0.,1.));
#921=DIRECTION('center_axis',(-0.42293146584812,-0.906161671665471,0.));
#922=DIRECTION('ref_axis',(0.906161671665471,-0.42293146584812,0.));
#923=DIRECTION('',(0.906161671665471,-0.42293146584812,0.));
#924=DIRECTION('center_axis',(0.422931465848104,0.906161671665478,0.));
#925=DIRECTION('ref_axis',(-0.906161671665478,0.422931465848104,0.));
#926=DIRECTION('',(-0.906161671665478,0.422931465848104,0.));
#927=DIRECTION('',(0.,0.,1.));
#928=DIRECTION('center_axis',(-0.38447731149652,0.923134441424654,0.));
#929=DIRECTION('ref_axis',(-0.923134441424654,-0.38447731149652,0.));
#930=DIRECTION('',(-0.923134441424654,-0.38447731149652,0.));
#931=DIRECTION('',(0.,0.,1.));
#932=DIRECTION('center_axis',(1.,0.,0.));
#933=DIRECTION('ref_axis',(0.,1.,0.));
#934=DIRECTION('',(0.,1.,0.));
#935=DIRECTION('center_axis',(0.,0.,1.));
#936=DIRECTION('ref_axis',(1.,0.,0.));
#937=CARTESIAN_POINT('',(0.,0.,0.));
#938=CARTESIAN_POINT('Origin',(-0.202900733599825,3.59687344103375,11.5));
#939=CARTESIAN_POINT('',(5.61127071980537,3.59687344103375,11.));
#940=CARTESIAN_POINT('Origin',(-0.202900733599825,3.59687344103375,11.));
#941=CARTESIAN_POINT('',(4.61127071980537,3.59687344103375,12.));
#942=CARTESIAN_POINT('',(5.11127071980537,3.59687344103375,11.5));
#943=CARTESIAN_POINT('',(-5.01707218700502,3.59687344103375,12.));
#944=CARTESIAN_POINT('Origin',(-0.202900733599825,3.59687344103375,12.));
#945=CARTESIAN_POINT('Origin',(-0.202900733599825,3.59687344103375,12.));
#946=CARTESIAN_POINT('Origin',(-0.549592929317799,3.15822403589833,11.));
#947=CARTESIAN_POINT('',(6.71362377057575,10.0231463260014,11.));
#948=CARTESIAN_POINT('',(6.74877390834162,-4.04836468213896,11.));
#949=CARTESIAN_POINT('',(6.73938221077236,-0.288624774111718,11.));
#950=CARTESIAN_POINT('',(-0.541129124217479,13.4091461669803,11.));
#951=CARTESIAN_POINT('',(5.33481555641762,10.6666753974368,11.));
#952=CARTESIAN_POINT('',(-7.84722048409989,10.3662238822691,11.));
#953=CARTESIAN_POINT('',(-2.16016082954398,12.7348338140246,11.));
#954=CARTESIAN_POINT('',(-7.84722048409989,-3.65239057355589,11.));
#955=CARTESIAN_POINT('',(-7.84722048409989,2.13075410814292,11.));
#956=CARTESIAN_POINT('',(-0.589978648378108,-7.09173583185087,11.));
#957=CARTESIAN_POINT('',(-6.47134401731345,-4.30444466092956,11.));
#958=CARTESIAN_POINT('',(1.03564634356275,-6.41759125993812,11.));
#959=CARTESIAN_POINT('Origin',(-0.202900733599825,3.59687344103375,11.));
#960=CARTESIAN_POINT('',(-5.01707218700502,3.59687344103375,21.));
#961=CARTESIAN_POINT('Origin',(-0.202900733599825,3.59687344103375,21.));
#962=CARTESIAN_POINT('',(-5.01707218700502,3.59687344103375,11.));
#963=CARTESIAN_POINT('Origin',(7.23938065082275,-0.287375795658706,10.5));
#964=CARTESIAN_POINT('',(7.74803462546429,-4.71394691274148,10.0024049961995));
#965=CARTESIAN_POINT('',(5.79561395650042,-3.41348900255235,11.9515710859899));
#966=CARTESIAN_POINT('',(7.74803462546429,-3.7511616085908,10.));
#967=CARTESIAN_POINT('',(7.74803462546429,-2.4901057255434,9.99684993674806));
#968=CARTESIAN_POINT('',(7.71203426509118,10.6607155414093,10.));
#969=CARTESIAN_POINT('',(7.73937909087314,-0.286126817205694,10.));
#970=CARTESIAN_POINT('',(6.71362377057575,10.0231463260014,11.));
#971=CARTESIAN_POINT('Origin',(1.22717929582251,-6.87945176723297,10.5));
#972=CARTESIAN_POINT('',(-0.617029864963863,-8.18553188367997,10.));
#973=CARTESIAN_POINT('',(-0.589978648378107,-7.09173583185087,11.));
#974=CARTESIAN_POINT('',(7.74803462546429,-4.71655050859081,10.));
#975=CARTESIAN_POINT('',(1.41871224808228,-7.34131227452782,10.));
#976=CARTESIAN_POINT('',(7.74803462546429,-7.66763343021147,7.27402268950223));
#977=CARTESIAN_POINT('Origin',(-6.68547385299253,-4.75627251915883,10.5));
#978=CARTESIAN_POINT('',(-8.84722048409989,-4.28508764859074,10.));
#979=CARTESIAN_POINT('',(-7.84722048409989,-3.65239057355589,11.));
#980=CARTESIAN_POINT('',(-6.89960368867161,-5.2081003773881,10.));
#981=CARTESIAN_POINT('Origin',(-8.34722048409989,2.13075410814292,10.5));
#982=CARTESIAN_POINT('',(-8.84722048409989,11.0329985803873,10.));
#983=CARTESIAN_POINT('',(-7.84722048409989,10.3662238822691,11.));
#984=CARTESIAN_POINT('',(-8.84722048409989,2.13075410814292,10.));
#985=CARTESIAN_POINT('Origin',(-2.35239948529223,13.1964010347369,10.5));
#986=CARTESIAN_POINT('',(-0.518156354044992,14.5019799554766,10.));
#987=CARTESIAN_POINT('',(-2.54463814104049,13.6579682554492,10.));
#988=CARTESIAN_POINT('',(-0.541129124217479,13.4091461669803,11.));
#989=CARTESIAN_POINT('Origin',(5.54628128934166,11.1197562332696,10.5));
#990=CARTESIAN_POINT('',(5.7577470222657,11.5728370691023,10.));
#991=CARTESIAN_POINT('Origin',(-8.84722048409989,1.10328418038751,0.));
#992=CARTESIAN_POINT('',(-8.84722048409989,11.0329985803873,1.));
#993=CARTESIAN_POINT('',(-8.84722048409989,11.0329985803873,1.));
#994=CARTESIAN_POINT('',(-8.84722048409989,6.55083583038742,1.));
#995=CARTESIAN_POINT('',(-8.84722048409989,11.0329985803873,1.));
#996=CARTESIAN_POINT('',(-8.84722048409989,6.55083583038742,0.));
#997=CARTESIAN_POINT('',(-8.84722048409989,6.55083583038742,0.));
#998=CARTESIAN_POINT('',(-8.84722048409989,2.06867308038751,0.));
#999=CARTESIAN_POINT('',(-8.84722048409989,6.55083583038742,0.));
#1000=CARTESIAN_POINT('',(-8.84722048409989,2.06867308038751,1.));
#1001=CARTESIAN_POINT('',(-8.84722048409989,2.06867308038751,0.));
#1002=CARTESIAN_POINT('',(-8.84722048409989,1.10328418038751,1.));
#1003=CARTESIAN_POINT('',(-8.84722048409989,11.0329985803873,1.));
#1004=CARTESIAN_POINT('',(-8.84722048409989,1.10328418038751,0.));
#1005=CARTESIAN_POINT('',(-8.84722048409989,1.10328418038751,0.));
#1006=CARTESIAN_POINT('',(-8.84722048409989,-4.28508764859074,0.));
#1007=CARTESIAN_POINT('',(-8.84722048409989,1.10328418038751,0.));
#1008=CARTESIAN_POINT('',(-8.84722048409989,-4.28508764859074,0.));
#1009=CARTESIAN_POINT('Origin',(-0.518156354044992,14.5019799554766,0.));
#1010=CARTESIAN_POINT('',(-0.518156354044992,14.5019799554766,0.));
#1011=CARTESIAN_POINT('',(-0.518156354044992,14.5019799554766,0.));
#1012=CARTESIAN_POINT('',(-8.84722048409989,11.0329985803873,0.));
#1013=CARTESIAN_POINT('',(-0.518156354044992,14.5019799554766,0.));
#1014=CARTESIAN_POINT('',(-8.84722048409989,11.0329985803873,0.));
#1015=CARTESIAN_POINT('Origin',(7.71203426509118,10.6607155414093,0.));
#1016=CARTESIAN_POINT('',(7.71203426509118,10.6607155414093,1.));
#1017=CARTESIAN_POINT('',(7.71203426509118,10.6607155414093,1.));
#1018=CARTESIAN_POINT('',(7.71203426509118,10.6607155414093,0.));
#1019=CARTESIAN_POINT('',(7.71203426509118,10.6607155414093,0.));
#1020=CARTESIAN_POINT('',(7.71203426509118,10.6607155414093,0.));
#1021=CARTESIAN_POINT('Origin',(7.74803462546429,-3.7511616085908,1.));
#1022=CARTESIAN_POINT('',(7.74803462546429,-3.7511616085908,1.));
#1023=CARTESIAN_POINT('',(7.74803462546429,-3.7511616085908,1.));
#1024=CARTESIAN_POINT('',(7.73925893928828,-0.23802702424518,1.));
#1025=CARTESIAN_POINT('',(7.74803462546429,-3.7511616085908,1.));
#1026=CARTESIAN_POINT('',(7.73684996597181,0.726347419083355,1.));
#1027=CARTESIAN_POINT('',(7.74774640592866,-3.63577985972034,1.));
#1028=CARTESIAN_POINT('',(7.74803462546429,-3.7511616085908,1.));
#1029=CARTESIAN_POINT('Origin',(-0.202900733599825,3.59687344103375,21.));
#1030=CARTESIAN_POINT('',(-3.01707218700502,3.59687344103375,23.));
#1031=CARTESIAN_POINT('Origin',(-0.202900733599825,3.59687344103375,23.));
#1032=CARTESIAN_POINT('Origin',(-3.01707218700502,3.59687344103375,21.));
#1033=CARTESIAN_POINT('Origin',(-0.202900733599825,3.59687344103375,23.));
#1034=CARTESIAN_POINT('Origin',(-0.549592929317799,3.15822403589833,1.));
#1035=CARTESIAN_POINT('',(-0.617029864963863,-3.70336913368023,1.));
#1036=CARTESIAN_POINT('',(-0.617029864963863,-3.70336913368023,1.));
#1037=CARTESIAN_POINT('',(-0.617029864963863,-7.22014298367998,1.));
#1038=CARTESIAN_POINT('',(7.74803462546429,-3.7511616085908,1.));
#1039=CARTESIAN_POINT('',(-0.617029864963863,-7.22014298367998,1.));
#1040=CARTESIAN_POINT('Origin',(-0.549592929317799,3.15822403589833,1.));
#1041=CARTESIAN_POINT('',(-0.589243094958256,-2.73798023368014,1.));
#1042=CARTESIAN_POINT('',(7.74803462546429,0.731001141409418,1.));
#1043=CARTESIAN_POINT('',(-0.589243094958256,-2.73798023368014,1.));
#1044=CARTESIAN_POINT('',(-0.617029864963863,-1.77259133368016,1.));
#1045=CARTESIAN_POINT('',(-8.84722048409989,2.06867308038751,1.));
#1046=CARTESIAN_POINT('',(-0.617029864963863,1.74418251631992,1.));
#1047=CARTESIAN_POINT('',(-0.617029864963863,-1.77259133368016,1.));
#1048=CARTESIAN_POINT('',(7.71203426509118,5.21316389140931,1.));
#1049=CARTESIAN_POINT('',(-0.617029864963863,1.74418251631992,1.));
#1050=CARTESIAN_POINT('',(7.71203426509118,6.1785527914093,1.));
#1051=CARTESIAN_POINT('',(7.71203426509118,5.21316389140931,1.));
#1052=CARTESIAN_POINT('',(-0.617029864963863,2.70957141631992,1.));
#1053=CARTESIAN_POINT('',(7.71203426509118,6.1785527914093,1.));
#1054=CARTESIAN_POINT('',(-0.617029864963863,2.70957141631992,1.));
#1055=CARTESIAN_POINT('',(-0.61702986496381,7.19173416631995,1.));
#1056=CARTESIAN_POINT('',(-8.84722048409989,11.0329985803873,1.));
#1057=CARTESIAN_POINT('',(-0.61702986496381,7.19173416631995,1.));
#1058=CARTESIAN_POINT('Origin',(-0.549592929317799,-3.54112385164623,1.));
#1059=CARTESIAN_POINT('',(7.74803462546429,-0.234387758590615,1.));
#1060=CARTESIAN_POINT('',(-0.617029864963863,-3.70336913368023,1.));
#1061=CARTESIAN_POINT('',(7.74803462546429,0.731001141409418,1.));
#1062=CARTESIAN_POINT('',(7.74803462546429,-0.234387758590615,1.));
#1063=CARTESIAN_POINT('',(7.74803462546429,0.731001141409418,1.));
#1064=CARTESIAN_POINT('Origin',(-0.617029864963863,-3.70336913368023,0.));
#1065=CARTESIAN_POINT('',(-0.617029864963863,-3.70336913368023,0.));
#1066=CARTESIAN_POINT('',(7.74803462546429,-0.234387758590615,0.));
#1067=CARTESIAN_POINT('',(-0.617029864963863,-3.70336913368023,0.));
#1068=CARTESIAN_POINT('',(7.74803462546429,-0.234387758590615,0.));
#1069=CARTESIAN_POINT('',(-0.617029864963863,-3.70336913368023,0.));
#1070=CARTESIAN_POINT('Origin',(-0.617029864963863,-7.22014298367998,0.));
#1071=CARTESIAN_POINT('',(-0.617029864963863,-7.22014298367998,0.));
#1072=CARTESIAN_POINT('',(-0.617029864963863,-7.22014298367998,0.));
#1073=CARTESIAN_POINT('',(-0.617029864963863,-7.22014298367998,0.));
#1074=CARTESIAN_POINT('Origin',(7.74803462546429,-3.7511616085908,0.));
#1075=CARTESIAN_POINT('',(7.74803462546429,-3.7511616085908,0.));
#1076=CARTESIAN_POINT('',(7.74803462546429,-3.7511616085908,0.));
#1077=CARTESIAN_POINT('',(7.74803462546429,-3.7511616085908,0.));
#1078=CARTESIAN_POINT('Origin',(7.74803462546429,-4.71655050859081,0.));
#1079=CARTESIAN_POINT('',(7.74803462546429,-4.71655050859081,0.));
#1080=CARTESIAN_POINT('',(7.74803462546429,-4.71655050859081,0.));
#1081=CARTESIAN_POINT('',(7.74803462546429,-4.71655050859081,0.));
#1082=CARTESIAN_POINT('Origin',(-0.617029864963863,-8.18553188367997,0.));
#1083=CARTESIAN_POINT('',(-0.617029864963863,-8.18553188367997,0.));
#1084=CARTESIAN_POINT('',(-0.617029864963863,-8.18553188367997,0.));
#1085=CARTESIAN_POINT('',(-0.617029864963863,-8.18553188367997,0.));
#1086=CARTESIAN_POINT('Origin',(-8.84722048409989,-4.28508764859074,0.));
#1087=CARTESIAN_POINT('',(-8.84722048409989,-4.28508764859074,0.));
#1088=CARTESIAN_POINT('Origin',(-0.589243094958256,-2.73798023368014,0.));
#1089=CARTESIAN_POINT('',(-0.589243094958256,-2.73798023368014,0.));
#1090=CARTESIAN_POINT('',(-0.589243094958256,-2.73798023368014,0.));
#1091=CARTESIAN_POINT('',(-0.589243094958256,-2.73798023368014,0.));
#1092=CARTESIAN_POINT('Origin',(7.74803462546429,0.731001141409418,0.));
#1093=CARTESIAN_POINT('',(7.74803462546429,0.731001141409418,0.));
#1094=CARTESIAN_POINT('',(7.74803462546429,0.731001141409418,0.));
#1095=CARTESIAN_POINT('',(7.74803462546429,0.731001141409418,0.));
#1096=CARTESIAN_POINT('Origin',(7.74803462546429,-0.234387758590615,0.));
#1097=CARTESIAN_POINT('',(7.74803462546429,-0.234387758590615,0.));
#1098=CARTESIAN_POINT('Origin',(-0.549592929317799,-3.54112385164623,0.));
#1099=CARTESIAN_POINT('Origin',(-8.84722048409989,11.0329985803873,0.));
#1100=CARTESIAN_POINT('',(-0.61702986496381,7.19173416631995,0.));
#1101=CARTESIAN_POINT('',(-8.84722048409989,11.0329985803873,0.));
#1102=CARTESIAN_POINT('',(-0.61702986496381,7.19173416631995,0.));
#1103=CARTESIAN_POINT('Origin',(-0.61702986496381,7.19173416631995,0.));
#1104=CARTESIAN_POINT('',(-0.61702986496381,7.19173416631995,0.));
#1105=CARTESIAN_POINT('Origin',(-0.567593109504357,10.8468570608983,0.));
#1106=CARTESIAN_POINT('Origin',(-0.617029864963863,1.74418251631992,0.));
#1107=CARTESIAN_POINT('',(-0.617029864963863,1.74418251631992,0.));
#1108=CARTESIAN_POINT('',(7.71203426509118,5.21316389140931,0.));
#1109=CARTESIAN_POINT('',(-0.617029864963863,1.74418251631992,0.));
#1110=CARTESIAN_POINT('',(7.71203426509118,5.21316389140931,0.));
#1111=CARTESIAN_POINT('',(-0.617029864963863,1.74418251631992,0.));
#1112=CARTESIAN_POINT('Origin',(-0.617029864963863,-1.77259133368016,0.));
#1113=CARTESIAN_POINT('',(-0.617029864963863,-1.77259133368016,0.));
#1114=CARTESIAN_POINT('',(-0.617029864963863,-1.77259133368016,0.));
#1115=CARTESIAN_POINT('',(-0.617029864963863,-1.77259133368016,0.));
#1116=CARTESIAN_POINT('Origin',(-8.84722048409989,2.06867308038751,0.));
#1117=CARTESIAN_POINT('',(-8.84722048409989,2.06867308038751,0.));
#1118=CARTESIAN_POINT('Origin',(-0.617029864963863,2.70957141631992,0.));
#1119=CARTESIAN_POINT('',(-0.617029864963863,2.70957141631992,0.));
#1120=CARTESIAN_POINT('',(-0.617029864963863,2.70957141631992,0.));
#1121=CARTESIAN_POINT('',(-0.617029864963863,2.70957141631992,0.));
#1122=CARTESIAN_POINT('Origin',(7.71203426509118,6.1785527914093,0.));
#1123=CARTESIAN_POINT('',(7.71203426509118,6.1785527914093,0.));
#1124=CARTESIAN_POINT('',(7.71203426509118,6.1785527914093,0.));
#1125=CARTESIAN_POINT('',(7.71203426509118,6.1785527914093,0.));
#1126=CARTESIAN_POINT('Origin',(7.71203426509118,5.21316389140931,0.));
#1127=CARTESIAN_POINT('',(7.71203426509118,5.21316389140931,0.));
#1128=CARTESIAN_POINT('Origin',(-0.567593109504356,2.38912224835363,0.));
#1129=UNCERTAINTY_MEASURE_WITH_UNIT(LENGTH_MEASURE(0.01),#1133,
'DISTANCE_ACCURACY_VALUE',
'Maximum model space distance between geometric entities at asserted c
onnectivities');
#1130=UNCERTAINTY_MEASURE_WITH_UNIT(LENGTH_MEASURE(0.01),#1133,
'DISTANCE_ACCURACY_VALUE',
'Maximum model space distance between geometric entities at asserted c
onnectivities');
#1131=(
GEOMETRIC_REPRESENTATION_CONTEXT(3)
GLOBAL_UNCERTAINTY_ASSIGNED_CONTEXT((#1129))
GLOBAL_UNIT_ASSIGNED_CONTEXT((#1133,#1135,#1136))
REPRESENTATION_CONTEXT('','3D')
);
#1132=(
GEOMETRIC_REPRESENTATION_CONTEXT(3)
GLOBAL_UNCERTAINTY_ASSIGNED_CONTEXT((#1130))
GLOBAL_UNIT_ASSIGNED_CONTEXT((#1133,#1135,#1136))
REPRESENTATION_CONTEXT('','3D')
);
#1133=(
LENGTH_UNIT()
NAMED_UNIT(*)
SI_UNIT(.MILLI.,.METRE.)
);
#1134=(
LENGTH_UNIT()
NAMED_UNIT(*)
SI_UNIT(.CENTI.,.METRE.)
);
#1135=(
NAMED_UNIT(*)
PLANE_ANGLE_UNIT()
SI_UNIT($,.RADIAN.)
);
#1136=(
NAMED_UNIT(*)
SI_UNIT($,.STERADIAN.)
SOLID_ANGLE_UNIT()
);
#1137=SHAPE_DEFINITION_REPRESENTATION(#1138,#1139);
#1138=PRODUCT_DEFINITION_SHAPE('',$,#1141);
#1139=SHAPE_REPRESENTATION('',(#714),#1131);
#1140=PRODUCT_DEFINITION_CONTEXT('part definition',#1145,'design');
#1141=PRODUCT_DEFINITION('stamp','stamp',#1142,#1140);
#1142=PRODUCT_DEFINITION_FORMATION('',$,#1147);
#1143=PRODUCT_RELATED_PRODUCT_CATEGORY('stamp','stamp',(#1147));
#1144=APPLICATION_PROTOCOL_DEFINITION('international standard',
'automotive_design',2009,#1145);
#1145=APPLICATION_CONTEXT(
'Core Data for Automotive Mechanical Design Process');
#1146=PRODUCT_CONTEXT('part definition',#1145,'mechanical');
#1147=PRODUCT('stamp','stamp',$,(#1146));
#1148=PRESENTATION_STYLE_ASSIGNMENT((#1149));
#1149=SURFACE_STYLE_USAGE(.BOTH.,#1152);
#1150=SURFACE_STYLE_RENDERING_WITH_PROPERTIES($,#1156,(#1151));
#1151=SURFACE_STYLE_TRANSPARENT(0.);
#1152=SURFACE_SIDE_STYLE('',(#1153,#1150));
#1153=SURFACE_STYLE_FILL_AREA(#1154);
#1154=FILL_AREA_STYLE('',(#1155));
#1155=FILL_AREA_STYLE_COLOUR('',#1156);
#1156=COLOUR_RGB('',0.749019607843137,0.749019607843137,0.749019607843137);
ENDSEC;
END-ISO-10303-21;
