ISO-10303-21;
HEADER;
/* Generated by software containing ST-Developer
 * from STEP Tools, Inc. (www.steptools.com) 
 */

FILE_DESCRIPTION(
/* description */ (''),
/* implementation_level */ '2;1');

FILE_NAME(
/* name */ 'stator_center_00_alu.stp',
/* time_stamp */ '2026-04-14T16:34:38-07:00',
/* author */ ('aaron'),
/* organization */ (''),
/* preprocessor_version */ 'ST-DEVELOPER v20.1',
/* originating_system */ 'Autodesk Inventor 2026',
/* authorisation */ '');

FILE_SCHEMA (('AUTOMOTIVE_DESIGN { 1 0 10303 214 3 1 1 }'));
ENDSEC;

DATA;
#10=MECHANICAL_DESIGN_GEOMETRIC_PRESENTATION_REPRESENTATION('',(#13),#371);
#11=SHAPE_REPRESENTATION_RELATIONSHIP('SRR','None',#378,#12);
#12=ADVANCED_BREP_SHAPE_REPRESENTATION('',(#14),#370);
#13=STYLED_ITEM('',(#387),#14);
#14=MANIFOLD_SOLID_BREP('Solid1',#206);
#15=FACE_BOUND('',#44,.T.);
#16=FACE_BOUND('',#46,.T.);
#17=PLANE('',#235);
#18=PLANE('',#239);
#19=PLANE('',#243);
#20=PLANE('',#247);
#21=PLANE('',#248);
#22=PLANE('',#249);
#23=FACE_OUTER_BOUND('',#34,.T.);
#24=FACE_OUTER_BOUND('',#35,.T.);
#25=FACE_OUTER_BOUND('',#36,.T.);
#26=FACE_OUTER_BOUND('',#37,.T.);
#27=FACE_OUTER_BOUND('',#38,.T.);
#28=FACE_OUTER_BOUND('',#39,.T.);
#29=FACE_OUTER_BOUND('',#40,.T.);
#30=FACE_OUTER_BOUND('',#41,.T.);
#31=FACE_OUTER_BOUND('',#42,.T.);
#32=FACE_OUTER_BOUND('',#43,.T.);
#33=FACE_OUTER_BOUND('',#45,.T.);
#34=EDGE_LOOP('',(#136,#137,#138,#139));
#35=EDGE_LOOP('',(#140,#141,#142,#143));
#36=EDGE_LOOP('',(#144,#145,#146,#147));
#37=EDGE_LOOP('',(#148,#149,#150,#151));
#38=EDGE_LOOP('',(#152,#153,#154,#155));
#39=EDGE_LOOP('',(#156,#157,#158,#159));
#40=EDGE_LOOP('',(#160,#161,#162,#163));
#41=EDGE_LOOP('',(#164,#165,#166,#167));
#42=EDGE_LOOP('',(#168,#169,#170,#171));
#43=EDGE_LOOP('',(#172,#173,#174,#175,#176,#177,#178,#179));
#44=EDGE_LOOP('',(#180));
#45=EDGE_LOOP('',(#181,#182,#183,#184,#185,#186,#187,#188));
#46=EDGE_LOOP('',(#189));
#47=LINE('',#316,#64);
#48=LINE('',#323,#65);
#49=LINE('',#326,#66);
#50=LINE('',#329,#67);
#51=LINE('',#331,#68);
#52=LINE('',#332,#69);
#53=LINE('',#338,#70);
#54=LINE('',#341,#71);
#55=LINE('',#343,#72);
#56=LINE('',#344,#73);
#57=LINE('',#350,#74);
#58=LINE('',#353,#75);
#59=LINE('',#355,#76);
#60=LINE('',#356,#77);
#61=LINE('',#362,#78);
#62=LINE('',#364,#79);
#63=LINE('',#365,#80);
#64=VECTOR('',#256,57.5);
#65=VECTOR('',#263,10.);
#66=VECTOR('',#266,10.);
#67=VECTOR('',#269,10.);
#68=VECTOR('',#270,10.);
#69=VECTOR('',#271,10.);
#70=VECTOR('',#278,10.);
#71=VECTOR('',#281,10.);
#72=VECTOR('',#282,10.);
#73=VECTOR('',#283,10.);
#74=VECTOR('',#290,10.);
#75=VECTOR('',#293,10.);
#76=VECTOR('',#294,10.);
#77=VECTOR('',#295,10.);
#78=VECTOR('',#302,10.);
#79=VECTOR('',#305,10.);
#80=VECTOR('',#306,10.);
#81=CIRCLE('',#230,57.5);
#82=CIRCLE('',#231,57.5);
#83=CIRCLE('',#233,20.);
#84=CIRCLE('',#234,20.);
#85=CIRCLE('',#237,20.);
#86=CIRCLE('',#238,20.);
#87=CIRCLE('',#241,19.9999999999999);
#88=CIRCLE('',#242,19.9999999999999);
#89=CIRCLE('',#245,20.);
#90=CIRCLE('',#246,20.);
#91=VERTEX_POINT('',#313);
#92=VERTEX_POINT('',#315);
#93=VERTEX_POINT('',#319);
#94=VERTEX_POINT('',#320);
#95=VERTEX_POINT('',#322);
#96=VERTEX_POINT('',#324);
#97=VERTEX_POINT('',#328);
#98=VERTEX_POINT('',#330);
#99=VERTEX_POINT('',#334);
#100=VERTEX_POINT('',#336);
#101=VERTEX_POINT('',#340);
#102=VERTEX_POINT('',#342);
#103=VERTEX_POINT('',#346);
#104=VERTEX_POINT('',#348);
#105=VERTEX_POINT('',#352);
#106=VERTEX_POINT('',#354);
#107=VERTEX_POINT('',#358);
#108=VERTEX_POINT('',#360);
#109=EDGE_CURVE('',#91,#91,#81,.T.);
#110=EDGE_CURVE('',#91,#92,#47,.T.);
#111=EDGE_CURVE('',#92,#92,#82,.T.);
#112=EDGE_CURVE('',#93,#94,#83,.T.);
#113=EDGE_CURVE('',#94,#95,#48,.T.);
#114=EDGE_CURVE('',#96,#95,#84,.T.);
#115=EDGE_CURVE('',#93,#96,#49,.T.);
#116=EDGE_CURVE('',#97,#93,#50,.T.);
#117=EDGE_CURVE('',#98,#96,#51,.T.);
#118=EDGE_CURVE('',#97,#98,#52,.T.);
#119=EDGE_CURVE('',#99,#97,#85,.T.);
#120=EDGE_CURVE('',#100,#98,#86,.T.);
#121=EDGE_CURVE('',#99,#100,#53,.T.);
#122=EDGE_CURVE('',#101,#99,#54,.T.);
#123=EDGE_CURVE('',#102,#100,#55,.T.);
#124=EDGE_CURVE('',#101,#102,#56,.T.);
#125=EDGE_CURVE('',#103,#101,#87,.T.);
#126=EDGE_CURVE('',#104,#102,#88,.T.);
#127=EDGE_CURVE('',#103,#104,#57,.T.);
#128=EDGE_CURVE('',#105,#103,#58,.T.);
#129=EDGE_CURVE('',#106,#104,#59,.T.);
#130=EDGE_CURVE('',#105,#106,#60,.T.);
#131=EDGE_CURVE('',#107,#105,#89,.T.);
#132=EDGE_CURVE('',#108,#106,#90,.T.);
#133=EDGE_CURVE('',#107,#108,#61,.T.);
#134=EDGE_CURVE('',#94,#107,#62,.T.);
#135=EDGE_CURVE('',#95,#108,#63,.T.);
#136=ORIENTED_EDGE('',*,*,#109,.F.);
#137=ORIENTED_EDGE('',*,*,#110,.T.);
#138=ORIENTED_EDGE('',*,*,#111,.T.);
#139=ORIENTED_EDGE('',*,*,#110,.F.);
#140=ORIENTED_EDGE('',*,*,#112,.T.);
#141=ORIENTED_EDGE('',*,*,#113,.T.);
#142=ORIENTED_EDGE('',*,*,#114,.F.);
#143=ORIENTED_EDGE('',*,*,#115,.F.);
#144=ORIENTED_EDGE('',*,*,#116,.T.);
#145=ORIENTED_EDGE('',*,*,#115,.T.);
#146=ORIENTED_EDGE('',*,*,#117,.F.);
#147=ORIENTED_EDGE('',*,*,#118,.F.);
#148=ORIENTED_EDGE('',*,*,#119,.T.);
#149=ORIENTED_EDGE('',*,*,#118,.T.);
#150=ORIENTED_EDGE('',*,*,#120,.F.);
#151=ORIENTED_EDGE('',*,*,#121,.F.);
#152=ORIENTED_EDGE('',*,*,#122,.T.);
#153=ORIENTED_EDGE('',*,*,#121,.T.);
#154=ORIENTED_EDGE('',*,*,#123,.F.);
#155=ORIENTED_EDGE('',*,*,#124,.F.);
#156=ORIENTED_EDGE('',*,*,#125,.T.);
#157=ORIENTED_EDGE('',*,*,#124,.T.);
#158=ORIENTED_EDGE('',*,*,#126,.F.);
#159=ORIENTED_EDGE('',*,*,#127,.F.);
#160=ORIENTED_EDGE('',*,*,#128,.T.);
#161=ORIENTED_EDGE('',*,*,#127,.T.);
#162=ORIENTED_EDGE('',*,*,#129,.F.);
#163=ORIENTED_EDGE('',*,*,#130,.F.);
#164=ORIENTED_EDGE('',*,*,#131,.T.);
#165=ORIENTED_EDGE('',*,*,#130,.T.);
#166=ORIENTED_EDGE('',*,*,#132,.F.);
#167=ORIENTED_EDGE('',*,*,#133,.F.);
#168=ORIENTED_EDGE('',*,*,#134,.T.);
#169=ORIENTED_EDGE('',*,*,#133,.T.);
#170=ORIENTED_EDGE('',*,*,#135,.F.);
#171=ORIENTED_EDGE('',*,*,#113,.F.);
#172=ORIENTED_EDGE('',*,*,#135,.T.);
#173=ORIENTED_EDGE('',*,*,#132,.T.);
#174=ORIENTED_EDGE('',*,*,#129,.T.);
#175=ORIENTED_EDGE('',*,*,#126,.T.);
#176=ORIENTED_EDGE('',*,*,#123,.T.);
#177=ORIENTED_EDGE('',*,*,#120,.T.);
#178=ORIENTED_EDGE('',*,*,#117,.T.);
#179=ORIENTED_EDGE('',*,*,#114,.T.);
#180=ORIENTED_EDGE('',*,*,#109,.T.);
#181=ORIENTED_EDGE('',*,*,#134,.F.);
#182=ORIENTED_EDGE('',*,*,#112,.F.);
#183=ORIENTED_EDGE('',*,*,#116,.F.);
#184=ORIENTED_EDGE('',*,*,#119,.F.);
#185=ORIENTED_EDGE('',*,*,#122,.F.);
#186=ORIENTED_EDGE('',*,*,#125,.F.);
#187=ORIENTED_EDGE('',*,*,#128,.F.);
#188=ORIENTED_EDGE('',*,*,#131,.F.);
#189=ORIENTED_EDGE('',*,*,#111,.F.);
#190=CYLINDRICAL_SURFACE('',#229,57.5);
#191=CYLINDRICAL_SURFACE('',#232,20.);
#192=CYLINDRICAL_SURFACE('',#236,20.);
#193=CYLINDRICAL_SURFACE('',#240,19.9999999999999);
#194=CYLINDRICAL_SURFACE('',#244,20.);
#195=ADVANCED_FACE('',(#23),#190,.F.);
#196=ADVANCED_FACE('',(#24),#191,.T.);
#197=ADVANCED_FACE('',(#25),#17,.T.);
#198=ADVANCED_FACE('',(#26),#192,.T.);
#199=ADVANCED_FACE('',(#27),#18,.T.);
#200=ADVANCED_FACE('',(#28),#193,.T.);
#201=ADVANCED_FACE('',(#29),#19,.T.);
#202=ADVANCED_FACE('',(#30),#194,.T.);
#203=ADVANCED_FACE('',(#31),#20,.T.);
#204=ADVANCED_FACE('',(#32,#15),#21,.T.);
#205=ADVANCED_FACE('',(#33,#16),#22,.F.);
#206=CLOSED_SHELL('',(#195,#196,#197,#198,#199,#200,#201,#202,#203,#204,
#205));
#207=DERIVED_UNIT_ELEMENT(#210,1.);
#208=DERIVED_UNIT_ELEMENT(#373,-3.);
#209=DIMENSIONAL_EXPONENTS(0.,1.,0.,0.,0.,0.,0.);
#210=(
CONVERSION_BASED_UNIT('gram',#212)
MASS_UNIT()
NAMED_UNIT(#209)
);
#211=(
MASS_UNIT()
NAMED_UNIT(*)
SI_UNIT(.KILO.,.GRAM.)
);
#212=MASS_MEASURE_WITH_UNIT(MASS_MEASURE(0.001),#211);
#213=DERIVED_UNIT((#207,#208));
#214=MEASURE_REPRESENTATION_ITEM('density measure',
POSITIVE_RATIO_MEASURE(1.),#213);
#215=PROPERTY_DEFINITION_REPRESENTATION(#220,#217);
#216=PROPERTY_DEFINITION_REPRESENTATION(#221,#218);
#217=REPRESENTATION('material name',(#219),#370);
#218=REPRESENTATION('density',(#214),#370);
#219=DESCRIPTIVE_REPRESENTATION_ITEM('Generic','Generic');
#220=PROPERTY_DEFINITION('material property','material name',#380);
#221=PROPERTY_DEFINITION('material property','density of part',#380);
#222=DATE_TIME_ROLE('creation_date');
#223=APPLIED_DATE_AND_TIME_ASSIGNMENT(#224,#222,(#380));
#224=DATE_AND_TIME(#225,#226);
#225=CALENDAR_DATE(2026,12,4);
#226=LOCAL_TIME(0,0,0.,#227);
#227=COORDINATED_UNIVERSAL_TIME_OFFSET(0,0,.BEHIND.);
#228=AXIS2_PLACEMENT_3D('',#311,#250,#251);
#229=AXIS2_PLACEMENT_3D('',#312,#252,#253);
#230=AXIS2_PLACEMENT_3D('',#314,#254,#255);
#231=AXIS2_PLACEMENT_3D('',#317,#257,#258);
#232=AXIS2_PLACEMENT_3D('',#318,#259,#260);
#233=AXIS2_PLACEMENT_3D('',#321,#261,#262);
#234=AXIS2_PLACEMENT_3D('',#325,#264,#265);
#235=AXIS2_PLACEMENT_3D('',#327,#267,#268);
#236=AXIS2_PLACEMENT_3D('',#333,#272,#273);
#237=AXIS2_PLACEMENT_3D('',#335,#274,#275);
#238=AXIS2_PLACEMENT_3D('',#337,#276,#277);
#239=AXIS2_PLACEMENT_3D('',#339,#279,#280);
#240=AXIS2_PLACEMENT_3D('',#345,#284,#285);
#241=AXIS2_PLACEMENT_3D('',#347,#286,#287);
#242=AXIS2_PLACEMENT_3D('',#349,#288,#289);
#243=AXIS2_PLACEMENT_3D('',#351,#291,#292);
#244=AXIS2_PLACEMENT_3D('',#357,#296,#297);
#245=AXIS2_PLACEMENT_3D('',#359,#298,#299);
#246=AXIS2_PLACEMENT_3D('',#361,#300,#301);
#247=AXIS2_PLACEMENT_3D('',#363,#303,#304);
#248=AXIS2_PLACEMENT_3D('',#366,#307,#308);
#249=AXIS2_PLACEMENT_3D('',#367,#309,#310);
#250=DIRECTION('axis',(0.,0.,1.));
#251=DIRECTION('refdir',(1.,0.,0.));
#252=DIRECTION('center_axis',(0.,0.,1.));
#253=DIRECTION('ref_axis',(-1.,0.,0.));
#254=DIRECTION('center_axis',(0.,0.,-1.));
#255=DIRECTION('ref_axis',(-1.,0.,0.));
#256=DIRECTION('',(0.,0.,-1.));
#257=DIRECTION('center_axis',(0.,0.,-1.));
#258=DIRECTION('ref_axis',(-1.,0.,0.));
#259=DIRECTION('center_axis',(0.,0.,1.));
#260=DIRECTION('ref_axis',(4.44089209850063E-16,1.,0.));
#261=DIRECTION('center_axis',(0.,0.,1.));
#262=DIRECTION('ref_axis',(4.44089209850063E-16,1.,0.));
#263=DIRECTION('',(0.,0.,1.));
#264=DIRECTION('center_axis',(0.,0.,1.));
#265=DIRECTION('ref_axis',(4.44089209850063E-16,1.,0.));
#266=DIRECTION('',(0.,0.,1.));
#267=DIRECTION('center_axis',(1.09651656753102E-16,1.,0.));
#268=DIRECTION('ref_axis',(-1.,1.09651656753102E-16,0.));
#269=DIRECTION('',(-1.,1.09651656753102E-16,0.));
#270=DIRECTION('',(-1.,1.09651656753102E-16,0.));
#271=DIRECTION('',(0.,0.,1.));
#272=DIRECTION('center_axis',(0.,0.,1.));
#273=DIRECTION('ref_axis',(1.,4.44089209850063E-16,0.));
#274=DIRECTION('center_axis',(0.,0.,1.));
#275=DIRECTION('ref_axis',(1.,4.44089209850063E-16,0.));
#276=DIRECTION('center_axis',(0.,0.,1.));
#277=DIRECTION('ref_axis',(1.,4.44089209850063E-16,0.));
#278=DIRECTION('',(0.,0.,1.));
#279=DIRECTION('center_axis',(1.,1.09651656753102E-16,0.));
#280=DIRECTION('ref_axis',(-1.09651656753102E-16,1.,0.));
#281=DIRECTION('',(-1.09651656753102E-16,1.,0.));
#282=DIRECTION('',(-1.09651656753102E-16,1.,0.));
#283=DIRECTION('',(0.,0.,1.));
#284=DIRECTION('center_axis',(0.,0.,1.));
#285=DIRECTION('ref_axis',(-3.10862446895045E-15,-1.,0.));
#286=DIRECTION('center_axis',(0.,0.,1.));
#287=DIRECTION('ref_axis',(-3.10862446895045E-15,-1.,0.));
#288=DIRECTION('center_axis',(0.,0.,1.));
#289=DIRECTION('ref_axis',(-3.10862446895045E-15,-1.,0.));
#290=DIRECTION('',(0.,0.,1.));
#291=DIRECTION('center_axis',(2.19303313506204E-16,-1.,0.));
#292=DIRECTION('ref_axis',(1.,2.19303313506204E-16,0.));
#293=DIRECTION('',(1.,2.19303313506204E-16,0.));
#294=DIRECTION('',(1.,2.19303313506204E-16,0.));
#295=DIRECTION('',(0.,0.,1.));
#296=DIRECTION('center_axis',(0.,0.,1.));
#297=DIRECTION('ref_axis',(-1.,4.44089209850063E-16,0.));
#298=DIRECTION('center_axis',(0.,0.,1.));
#299=DIRECTION('ref_axis',(-1.,4.44089209850063E-16,0.));
#300=DIRECTION('center_axis',(0.,0.,1.));
#301=DIRECTION('ref_axis',(-1.,4.44089209850063E-16,0.));
#302=DIRECTION('',(0.,0.,1.));
#303=DIRECTION('center_axis',(-1.,-2.19303313506204E-16,0.));
#304=DIRECTION('ref_axis',(2.19303313506204E-16,-1.,0.));
#305=DIRECTION('',(2.19303313506204E-16,-1.,0.));
#306=DIRECTION('',(2.19303313506204E-16,-1.,0.));
#307=DIRECTION('center_axis',(0.,0.,1.));
#308=DIRECTION('ref_axis',(1.,0.,0.));
#309=DIRECTION('center_axis',(0.,0.,1.));
#310=DIRECTION('ref_axis',(1.,0.,0.));
#311=CARTESIAN_POINT('',(0.,0.,0.));
#312=CARTESIAN_POINT('Origin',(0.,0.,0.));
#313=CARTESIAN_POINT('',(57.5,8.88178419700125E-15,6.35));
#314=CARTESIAN_POINT('Origin',(0.,0.,6.35));
#315=CARTESIAN_POINT('',(57.5,7.04171909509728E-15,0.));
#316=CARTESIAN_POINT('',(57.5,7.04171909509728E-15,0.));
#317=CARTESIAN_POINT('Origin',(0.,0.,0.));
#318=CARTESIAN_POINT('Origin',(-40.5,40.5,0.));
#319=CARTESIAN_POINT('',(-40.5,60.5,0.));
#320=CARTESIAN_POINT('',(-60.5,40.5,0.));
#321=CARTESIAN_POINT('Origin',(-40.5,40.5,0.));
#322=CARTESIAN_POINT('',(-60.5,40.5,6.35));
#323=CARTESIAN_POINT('',(-60.5,40.5,0.));
#324=CARTESIAN_POINT('',(-40.5,60.5,6.35));
#325=CARTESIAN_POINT('Origin',(-40.5,40.5,6.35));
#326=CARTESIAN_POINT('',(-40.5,60.5,0.));
#327=CARTESIAN_POINT('Origin',(40.5,60.5,0.));
#328=CARTESIAN_POINT('',(40.5,60.5,0.));
#329=CARTESIAN_POINT('',(40.5,60.5,0.));
#330=CARTESIAN_POINT('',(40.5,60.5,6.35));
#331=CARTESIAN_POINT('',(40.5,60.5,6.35));
#332=CARTESIAN_POINT('',(40.5,60.5,0.));
#333=CARTESIAN_POINT('Origin',(40.5,40.5,0.));
#334=CARTESIAN_POINT('',(60.5,40.5,0.));
#335=CARTESIAN_POINT('Origin',(40.5,40.5,0.));
#336=CARTESIAN_POINT('',(60.5,40.5,6.35));
#337=CARTESIAN_POINT('Origin',(40.5,40.5,6.35));
#338=CARTESIAN_POINT('',(60.5,40.5,0.));
#339=CARTESIAN_POINT('Origin',(60.5,-40.5,0.));
#340=CARTESIAN_POINT('',(60.5,-40.5,0.));
#341=CARTESIAN_POINT('',(60.5,-40.5,0.));
#342=CARTESIAN_POINT('',(60.5,-40.5,6.35));
#343=CARTESIAN_POINT('',(60.5,-40.5,6.35));
#344=CARTESIAN_POINT('',(60.5,-40.5,0.));
#345=CARTESIAN_POINT('Origin',(40.5000000000001,-40.5,0.));
#346=CARTESIAN_POINT('',(40.5,-60.5,0.));
#347=CARTESIAN_POINT('Origin',(40.5000000000001,-40.5,0.));
#348=CARTESIAN_POINT('',(40.5,-60.5,6.35));
#349=CARTESIAN_POINT('Origin',(40.5000000000001,-40.5,6.35));
#350=CARTESIAN_POINT('',(40.5,-60.5,0.));
#351=CARTESIAN_POINT('Origin',(-40.5,-60.5,0.));
#352=CARTESIAN_POINT('',(-40.5,-60.5,0.));
#353=CARTESIAN_POINT('',(-40.5,-60.5,0.));
#354=CARTESIAN_POINT('',(-40.5,-60.5,6.35));
#355=CARTESIAN_POINT('',(-40.5,-60.5,6.35));
#356=CARTESIAN_POINT('',(-40.5,-60.5,0.));
#357=CARTESIAN_POINT('Origin',(-40.5,-40.5,0.));
#358=CARTESIAN_POINT('',(-60.5,-40.5,0.));
#359=CARTESIAN_POINT('Origin',(-40.5,-40.5,0.));
#360=CARTESIAN_POINT('',(-60.5,-40.5,6.35));
#361=CARTESIAN_POINT('Origin',(-40.5,-40.5,6.35));
#362=CARTESIAN_POINT('',(-60.5,-40.5,0.));
#363=CARTESIAN_POINT('Origin',(-60.5,40.5,0.));
#364=CARTESIAN_POINT('',(-60.5,40.5,0.));
#365=CARTESIAN_POINT('',(-60.5,40.5,6.35));
#366=CARTESIAN_POINT('Origin',(0.,-4.44089209850063E-15,6.35));
#367=CARTESIAN_POINT('Origin',(0.,-4.44089209850063E-15,0.));
#368=UNCERTAINTY_MEASURE_WITH_UNIT(LENGTH_MEASURE(0.01),#372,
'DISTANCE_ACCURACY_VALUE',
'Maximum model space distance between geometric entities at asserted c
onnectivities');
#369=UNCERTAINTY_MEASURE_WITH_UNIT(LENGTH_MEASURE(0.01),#372,
'DISTANCE_ACCURACY_VALUE',
'Maximum model space distance between geometric entities at asserted c
onnectivities');
#370=(
GEOMETRIC_REPRESENTATION_CONTEXT(3)
GLOBAL_UNCERTAINTY_ASSIGNED_CONTEXT((#368))
GLOBAL_UNIT_ASSIGNED_CONTEXT((#372,#374,#375))
REPRESENTATION_CONTEXT('','3D')
);
#371=(
GEOMETRIC_REPRESENTATION_CONTEXT(3)
GLOBAL_UNCERTAINTY_ASSIGNED_CONTEXT((#369))
GLOBAL_UNIT_ASSIGNED_CONTEXT((#372,#374,#375))
REPRESENTATION_CONTEXT('','3D')
);
#372=(
LENGTH_UNIT()
NAMED_UNIT(*)
SI_UNIT(.MILLI.,.METRE.)
);
#373=(
LENGTH_UNIT()
NAMED_UNIT(*)
SI_UNIT(.CENTI.,.METRE.)
);
#374=(
NAMED_UNIT(*)
PLANE_ANGLE_UNIT()
SI_UNIT($,.RADIAN.)
);
#375=(
NAMED_UNIT(*)
SI_UNIT($,.STERADIAN.)
SOLID_ANGLE_UNIT()
);
#376=SHAPE_DEFINITION_REPRESENTATION(#377,#378);
#377=PRODUCT_DEFINITION_SHAPE('',$,#380);
#378=SHAPE_REPRESENTATION('',(#228),#370);
#379=PRODUCT_DEFINITION_CONTEXT('part definition',#384,'design');
#380=PRODUCT_DEFINITION('stator_center_00_alu','stator_center_00_alu',#381,
#379);
#381=PRODUCT_DEFINITION_FORMATION('',$,#386);
#382=PRODUCT_RELATED_PRODUCT_CATEGORY('stator_center_00_alu',
'stator_center_00_alu',(#386));
#383=APPLICATION_PROTOCOL_DEFINITION('international standard',
'automotive_design',2009,#384);
#384=APPLICATION_CONTEXT(
'Core Data for Automotive Mechanical Design Process');
#385=PRODUCT_CONTEXT('part definition',#384,'mechanical');
#386=PRODUCT('stator_center_00_alu','stator_center_00_alu',$,(#385));
#387=PRESENTATION_STYLE_ASSIGNMENT((#388));
#388=SURFACE_STYLE_USAGE(.BOTH.,#391);
#389=SURFACE_STYLE_RENDERING_WITH_PROPERTIES($,#395,(#390));
#390=SURFACE_STYLE_TRANSPARENT(0.);
#391=SURFACE_SIDE_STYLE('',(#392,#389));
#392=SURFACE_STYLE_FILL_AREA(#393);
#393=FILL_AREA_STYLE('',(#394));
#394=FILL_AREA_STYLE_COLOUR('',#395);
#395=COLOUR_RGB('',0.749019607843137,0.749019607843137,0.749019607843137);
ENDSEC;
END-ISO-10303-21;
