ISO-10303-21;
HEADER;
/* Generated by software containing ST-Developer
 * from STEP Tools, Inc. (www.steptools.com) 
 */

FILE_DESCRIPTION(
/* description */ (''),
/* implementation_level */ '2;1');

FILE_NAME(
/* name */ 'stator_center_01_back_p.stp',
/* time_stamp */ '2026-05-02T14:31:16-07:00',
/* author */ ('aaron'),
/* organization */ (''),
/* preprocessor_version */ 'ST-DEVELOPER v20.1',
/* originating_system */ 'Autodesk Inventor 2026',
/* authorisation */ '');

FILE_SCHEMA (('AUTOMOTIVE_DESIGN { 1 0 10303 214 3 1 1 }'));
ENDSEC;

DATA;
#10=MECHANICAL_DESIGN_GEOMETRIC_PRESENTATION_REPRESENTATION('',(#13),#1889);
#11=SHAPE_REPRESENTATION_RELATIONSHIP('SRR','None',#1896,#12);
#12=ADVANCED_BREP_SHAPE_REPRESENTATION('',(#14),#1888);
#13=STYLED_ITEM('',(#1905),#14);
#14=MANIFOLD_SOLID_BREP('Solid1',#1024);
#15=CONICAL_SURFACE('',#1135,31.5,0.785398163397449);
#16=B_SPLINE_CURVE_WITH_KNOTS('',3,(#1638,#1639,#1640,#1641,#1642,#1643,
#1644,#1645,#1646,#1647,#1648,#1649,#1650,#1651),.UNSPECIFIED.,.F.,.F.,
(4,2,2,2,2,2,4),(0.131611848580597,0.184703557045825,0.24745949866895,0.310215440292075,
0.3729713819152,0.435727323538324,0.488819032003552),.UNSPECIFIED.);
#17=B_SPLINE_CURVE_WITH_KNOTS('',3,(#1661,#1662,#1663,#1664,#1665,#1666,
#1667,#1668,#1669,#1670,#1671,#1672,#1673,#1674),.UNSPECIFIED.,.F.,.F.,
(4,2,2,2,2,2,4),(0.131611848580597,0.184703557045825,0.247459498668949,
0.310215440292074,0.372971381915199,0.435727323538324,0.488819032003551),
 .UNSPECIFIED.);
#18=B_SPLINE_CURVE_WITH_KNOTS('',3,(#1684,#1685,#1686,#1687,#1688,#1689,
#1690,#1691,#1692,#1693,#1694,#1695,#1696,#1697),.UNSPECIFIED.,.F.,.F.,
(4,2,2,2,2,2,4),(0.131611848580597,0.184703557045825,0.24745949866895,0.310215440292074,
0.3729713819152,0.435727323538324,0.488819032003552),.UNSPECIFIED.);
#19=B_SPLINE_CURVE_WITH_KNOTS('',3,(#1707,#1708,#1709,#1710,#1711,#1712,
#1713,#1714,#1715,#1716),.UNSPECIFIED.,.F.,.F.,(4,2,2,2,4),(0.300049126121138,
0.310215440292075,0.3729713819152,0.435727323538325,0.488819032003552),
 .UNSPECIFIED.);
#20=B_SPLINE_CURVE_WITH_KNOTS('',3,(#1718,#1719,#1720,#1721,#1722,#1723,
#1724,#1725),.UNSPECIFIED.,.F.,.F.,(4,2,2,4),(0.131611848580598,0.184703557045825,
0.24745949866895,0.300049126121138),.UNSPECIFIED.);
#21=B_SPLINE_CURVE_WITH_KNOTS('',3,(#1735,#1736,#1737,#1738,#1739,#1740,
#1741,#1742,#1743,#1744,#1745,#1746,#1747,#1748),.UNSPECIFIED.,.F.,.F.,
(4,2,2,2,2,2,4),(0.131611848580598,0.184703557045825,0.247459498668949,
0.310215440292074,0.372971381915199,0.435727323538324,0.488819032003551),
 .UNSPECIFIED.);
#22=B_SPLINE_CURVE_WITH_KNOTS('',3,(#1756,#1757,#1758,#1759,#1760,#1761,
#1762,#1763,#1764,#1765),.UNSPECIFIED.,.F.,.F.,(4,2,2,2,4),(0.131611848580598,
0.184703557045825,0.24745949866895,0.310215440292075,0.310786812531342),
 .UNSPECIFIED.);
#23=B_SPLINE_CURVE_WITH_KNOTS('',3,(#1768,#1769,#1770,#1771,#1772,#1773,
#1774,#1775),.UNSPECIFIED.,.F.,.F.,(4,2,2,4),(0.310786812531342,0.3729713819152,
0.435727323538325,0.488819032003552),.UNSPECIFIED.);
#24=FACE_BOUND('',#157,.T.);
#25=FACE_BOUND('',#158,.T.);
#26=FACE_BOUND('',#159,.T.);
#27=FACE_BOUND('',#160,.T.);
#28=FACE_BOUND('',#161,.T.);
#29=FACE_BOUND('',#162,.T.);
#30=FACE_BOUND('',#163,.T.);
#31=FACE_BOUND('',#164,.T.);
#32=FACE_BOUND('',#165,.T.);
#33=FACE_BOUND('',#166,.T.);
#34=FACE_BOUND('',#167,.T.);
#35=FACE_BOUND('',#168,.T.);
#36=FACE_BOUND('',#169,.T.);
#37=FACE_BOUND('',#178,.T.);
#38=FACE_BOUND('',#181,.T.);
#39=FACE_BOUND('',#186,.T.);
#40=FACE_BOUND('',#189,.T.);
#41=FACE_BOUND('',#190,.T.);
#42=FACE_BOUND('',#191,.T.);
#43=FACE_BOUND('',#192,.T.);
#44=FACE_BOUND('',#193,.T.);
#45=FACE_BOUND('',#194,.T.);
#46=FACE_BOUND('',#195,.T.);
#47=FACE_BOUND('',#196,.T.);
#48=FACE_BOUND('',#197,.T.);
#49=FACE_BOUND('',#198,.T.);
#50=FACE_BOUND('',#199,.T.);
#51=FACE_BOUND('',#200,.T.);
#52=FACE_BOUND('',#201,.T.);
#53=FACE_BOUND('',#202,.T.);
#54=FACE_BOUND('',#203,.T.);
#55=FACE_BOUND('',#204,.T.);
#56=FACE_BOUND('',#205,.T.);
#57=FACE_BOUND('',#206,.T.);
#58=FACE_BOUND('',#207,.T.);
#59=FACE_BOUND('',#222,.T.);
#60=FACE_BOUND('',#223,.T.);
#61=FACE_BOUND('',#226,.T.);
#62=FACE_BOUND('',#227,.T.);
#63=FACE_BOUND('',#230,.T.);
#64=FACE_BOUND('',#231,.T.);
#65=FACE_BOUND('',#234,.T.);
#66=FACE_BOUND('',#235,.T.);
#67=PLANE('',#1050);
#68=PLANE('',#1054);
#69=PLANE('',#1058);
#70=PLANE('',#1062);
#71=PLANE('',#1066);
#72=PLANE('',#1070);
#73=PLANE('',#1074);
#74=PLANE('',#1078);
#75=PLANE('',#1084);
#76=PLANE('',#1127);
#77=PLANE('',#1137);
#78=PLANE('',#1144);
#79=PLANE('',#1145);
#80=PLANE('',#1148);
#81=PLANE('',#1178);
#82=PLANE('',#1180);
#83=PLANE('',#1182);
#84=PLANE('',#1184);
#85=FACE_OUTER_BOUND('',#139,.T.);
#86=FACE_OUTER_BOUND('',#140,.T.);
#87=FACE_OUTER_BOUND('',#141,.T.);
#88=FACE_OUTER_BOUND('',#142,.T.);
#89=FACE_OUTER_BOUND('',#143,.T.);
#90=FACE_OUTER_BOUND('',#144,.T.);
#91=FACE_OUTER_BOUND('',#145,.T.);
#92=FACE_OUTER_BOUND('',#146,.T.);
#93=FACE_OUTER_BOUND('',#147,.T.);
#94=FACE_OUTER_BOUND('',#148,.T.);
#95=FACE_OUTER_BOUND('',#149,.T.);
#96=FACE_OUTER_BOUND('',#150,.T.);
#97=FACE_OUTER_BOUND('',#151,.T.);
#98=FACE_OUTER_BOUND('',#152,.T.);
#99=FACE_OUTER_BOUND('',#153,.T.);
#100=FACE_OUTER_BOUND('',#154,.T.);
#101=FACE_OUTER_BOUND('',#155,.T.);
#102=FACE_OUTER_BOUND('',#156,.T.);
#103=FACE_OUTER_BOUND('',#170,.T.);
#104=FACE_OUTER_BOUND('',#171,.T.);
#105=FACE_OUTER_BOUND('',#172,.T.);
#106=FACE_OUTER_BOUND('',#173,.T.);
#107=FACE_OUTER_BOUND('',#174,.T.);
#108=FACE_OUTER_BOUND('',#175,.T.);
#109=FACE_OUTER_BOUND('',#176,.T.);
#110=FACE_OUTER_BOUND('',#177,.T.);
#111=FACE_OUTER_BOUND('',#179,.T.);
#112=FACE_OUTER_BOUND('',#180,.T.);
#113=FACE_OUTER_BOUND('',#182,.T.);
#114=FACE_OUTER_BOUND('',#183,.T.);
#115=FACE_OUTER_BOUND('',#184,.T.);
#116=FACE_OUTER_BOUND('',#185,.T.);
#117=FACE_OUTER_BOUND('',#187,.T.);
#118=FACE_OUTER_BOUND('',#188,.T.);
#119=FACE_OUTER_BOUND('',#208,.T.);
#120=FACE_OUTER_BOUND('',#209,.T.);
#121=FACE_OUTER_BOUND('',#210,.T.);
#122=FACE_OUTER_BOUND('',#211,.T.);
#123=FACE_OUTER_BOUND('',#212,.T.);
#124=FACE_OUTER_BOUND('',#213,.T.);
#125=FACE_OUTER_BOUND('',#214,.T.);
#126=FACE_OUTER_BOUND('',#215,.T.);
#127=FACE_OUTER_BOUND('',#216,.T.);
#128=FACE_OUTER_BOUND('',#217,.T.);
#129=FACE_OUTER_BOUND('',#218,.T.);
#130=FACE_OUTER_BOUND('',#219,.T.);
#131=FACE_OUTER_BOUND('',#220,.T.);
#132=FACE_OUTER_BOUND('',#221,.T.);
#133=FACE_OUTER_BOUND('',#224,.T.);
#134=FACE_OUTER_BOUND('',#225,.T.);
#135=FACE_OUTER_BOUND('',#228,.T.);
#136=FACE_OUTER_BOUND('',#229,.T.);
#137=FACE_OUTER_BOUND('',#232,.T.);
#138=FACE_OUTER_BOUND('',#233,.T.);
#139=EDGE_LOOP('',(#653,#654,#655,#656));
#140=EDGE_LOOP('',(#657));
#141=EDGE_LOOP('',(#658,#659,#660,#661));
#142=EDGE_LOOP('',(#662));
#143=EDGE_LOOP('',(#663,#664,#665,#666));
#144=EDGE_LOOP('',(#667));
#145=EDGE_LOOP('',(#668,#669,#670,#671));
#146=EDGE_LOOP('',(#672));
#147=EDGE_LOOP('',(#673,#674,#675,#676));
#148=EDGE_LOOP('',(#677));
#149=EDGE_LOOP('',(#678,#679,#680,#681));
#150=EDGE_LOOP('',(#682));
#151=EDGE_LOOP('',(#683,#684,#685,#686));
#152=EDGE_LOOP('',(#687));
#153=EDGE_LOOP('',(#688,#689,#690,#691));
#154=EDGE_LOOP('',(#692));
#155=EDGE_LOOP('',(#693,#694,#695,#696,#697,#698,#699,#700));
#156=EDGE_LOOP('',(#701,#702,#703,#704,#705,#706,#707,#708));
#157=EDGE_LOOP('',(#709,#710));
#158=EDGE_LOOP('',(#711));
#159=EDGE_LOOP('',(#712));
#160=EDGE_LOOP('',(#713));
#161=EDGE_LOOP('',(#714));
#162=EDGE_LOOP('',(#715));
#163=EDGE_LOOP('',(#716));
#164=EDGE_LOOP('',(#717));
#165=EDGE_LOOP('',(#718));
#166=EDGE_LOOP('',(#719));
#167=EDGE_LOOP('',(#720));
#168=EDGE_LOOP('',(#721));
#169=EDGE_LOOP('',(#722));
#170=EDGE_LOOP('',(#723,#724,#725,#726));
#171=EDGE_LOOP('',(#727,#728,#729,#730,#731,#732));
#172=EDGE_LOOP('',(#733,#734,#735,#736,#737,#738));
#173=EDGE_LOOP('',(#739,#740,#741,#742,#743,#744));
#174=EDGE_LOOP('',(#745,#746,#747,#748,#749,#750,#751));
#175=EDGE_LOOP('',(#752,#753,#754,#755,#756,#757));
#176=EDGE_LOOP('',(#758,#759,#760,#761,#762,#763));
#177=EDGE_LOOP('',(#764));
#178=EDGE_LOOP('',(#765,#766,#767,#768,#769,#770,#771,#772,#773,#774,#775,
#776,#777,#778,#779,#780,#781));
#179=EDGE_LOOP('',(#782,#783,#784,#785,#786,#787,#788,#789,#790,#791,#792,
#793,#794,#795,#796,#797,#798));
#180=EDGE_LOOP('',(#799));
#181=EDGE_LOOP('',(#800));
#182=EDGE_LOOP('',(#801,#802,#803,#804));
#183=EDGE_LOOP('',(#805,#806,#807,#808));
#184=EDGE_LOOP('',(#809,#810,#811,#812));
#185=EDGE_LOOP('',(#813,#814));
#186=EDGE_LOOP('',(#815));
#187=EDGE_LOOP('',(#816,#817,#818,#819));
#188=EDGE_LOOP('',(#820,#821,#822,#823,#824,#825,#826,#827));
#189=EDGE_LOOP('',(#828));
#190=EDGE_LOOP('',(#829));
#191=EDGE_LOOP('',(#830));
#192=EDGE_LOOP('',(#831));
#193=EDGE_LOOP('',(#832));
#194=EDGE_LOOP('',(#833));
#195=EDGE_LOOP('',(#834));
#196=EDGE_LOOP('',(#835));
#197=EDGE_LOOP('',(#836));
#198=EDGE_LOOP('',(#837));
#199=EDGE_LOOP('',(#838));
#200=EDGE_LOOP('',(#839));
#201=EDGE_LOOP('',(#840));
#202=EDGE_LOOP('',(#841));
#203=EDGE_LOOP('',(#842));
#204=EDGE_LOOP('',(#843));
#205=EDGE_LOOP('',(#844));
#206=EDGE_LOOP('',(#845));
#207=EDGE_LOOP('',(#846));
#208=EDGE_LOOP('',(#847,#848,#849,#850));
#209=EDGE_LOOP('',(#851,#852,#853,#854));
#210=EDGE_LOOP('',(#855,#856,#857,#858));
#211=EDGE_LOOP('',(#859,#860,#861,#862));
#212=EDGE_LOOP('',(#863,#864,#865,#866));
#213=EDGE_LOOP('',(#867,#868,#869,#870));
#214=EDGE_LOOP('',(#871,#872,#873,#874));
#215=EDGE_LOOP('',(#875,#876,#877,#878));
#216=EDGE_LOOP('',(#879,#880,#881,#882));
#217=EDGE_LOOP('',(#883,#884,#885,#886));
#218=EDGE_LOOP('',(#887,#888,#889,#890));
#219=EDGE_LOOP('',(#891,#892,#893,#894));
#220=EDGE_LOOP('',(#895,#896,#897,#898));
#221=EDGE_LOOP('',(#899,#900,#901,#902));
#222=EDGE_LOOP('',(#903));
#223=EDGE_LOOP('',(#904));
#224=EDGE_LOOP('',(#905,#906,#907,#908));
#225=EDGE_LOOP('',(#909,#910,#911,#912));
#226=EDGE_LOOP('',(#913));
#227=EDGE_LOOP('',(#914));
#228=EDGE_LOOP('',(#915,#916,#917,#918));
#229=EDGE_LOOP('',(#919,#920,#921,#922));
#230=EDGE_LOOP('',(#923));
#231=EDGE_LOOP('',(#924));
#232=EDGE_LOOP('',(#925,#926,#927,#928));
#233=EDGE_LOOP('',(#929,#930,#931,#932));
#234=EDGE_LOOP('',(#933));
#235=EDGE_LOOP('',(#934));
#236=LINE('',#1517,#285);
#237=LINE('',#1524,#286);
#238=LINE('',#1531,#287);
#239=LINE('',#1538,#288);
#240=LINE('',#1545,#289);
#241=LINE('',#1552,#290);
#242=LINE('',#1559,#291);
#243=LINE('',#1566,#292);
#244=LINE('',#1572,#293);
#245=LINE('',#1576,#294);
#246=LINE('',#1580,#295);
#247=LINE('',#1584,#296);
#248=LINE('',#1589,#297);
#249=LINE('',#1593,#298);
#250=LINE('',#1597,#299);
#251=LINE('',#1601,#300);
#252=LINE('',#1634,#301);
#253=LINE('',#1657,#302);
#254=LINE('',#1680,#303);
#255=LINE('',#1703,#304);
#256=LINE('',#1731,#305);
#257=LINE('',#1754,#306);
#258=LINE('',#1787,#307);
#259=LINE('',#1794,#308);
#260=LINE('',#1804,#309);
#261=LINE('',#1808,#310);
#262=LINE('',#1812,#311);
#263=LINE('',#1816,#312);
#264=LINE('',#1820,#313);
#265=LINE('',#1847,#314);
#266=LINE('',#1849,#315);
#267=LINE('',#1851,#316);
#268=LINE('',#1853,#317);
#269=LINE('',#1855,#318);
#270=LINE('',#1857,#319);
#271=LINE('',#1859,#320);
#272=LINE('',#1861,#321);
#273=LINE('',#1863,#322);
#274=LINE('',#1865,#323);
#275=LINE('',#1867,#324);
#276=LINE('',#1869,#325);
#277=LINE('',#1871,#326);
#278=LINE('',#1872,#327);
#279=LINE('',#1874,#328);
#280=LINE('',#1876,#329);
#281=LINE('',#1878,#330);
#282=LINE('',#1880,#331);
#283=LINE('',#1882,#332);
#284=LINE('',#1884,#333);
#285=VECTOR('',#1191,2.15);
#286=VECTOR('',#1200,2.15);
#287=VECTOR('',#1209,2.15);
#288=VECTOR('',#1218,2.15);
#289=VECTOR('',#1227,2.15);
#290=VECTOR('',#1236,2.15);
#291=VECTOR('',#1245,2.15);
#292=VECTOR('',#1254,2.15);
#293=VECTOR('',#1261,10.);
#294=VECTOR('',#1264,10.);
#295=VECTOR('',#1267,10.);
#296=VECTOR('',#1270,10.);
#297=VECTOR('',#1275,10.);
#298=VECTOR('',#1278,10.);
#299=VECTOR('',#1281,10.);
#300=VECTOR('',#1284,10.);
#301=VECTOR('',#1321,1.75);
#302=VECTOR('',#1330,1.75);
#303=VECTOR('',#1339,1.75);
#304=VECTOR('',#1348,1.75);
#305=VECTOR('',#1357,1.75);
#306=VECTOR('',#1366,1.75);
#307=VECTOR('',#1387,31.5);
#308=VECTOR('',#1396,35.);
#309=VECTOR('',#1413,29.);
#310=VECTOR('',#1416,10.);
#311=VECTOR('',#1419,10.);
#312=VECTOR('',#1422,10.);
#313=VECTOR('',#1425,10.);
#314=VECTOR('',#1454,2.15);
#315=VECTOR('',#1457,2.15);
#316=VECTOR('',#1460,2.65);
#317=VECTOR('',#1463,2.15);
#318=VECTOR('',#1466,2.15);
#319=VECTOR('',#1469,2.65);
#320=VECTOR('',#1472,2.15);
#321=VECTOR('',#1475,2.65);
#322=VECTOR('',#1478,2.15);
#323=VECTOR('',#1481,2.15);
#324=VECTOR('',#1484,2.65);
#325=VECTOR('',#1487,2.15);
#326=VECTOR('',#1490,10.);
#327=VECTOR('',#1491,10.);
#328=VECTOR('',#1494,10.);
#329=VECTOR('',#1497,10.);
#330=VECTOR('',#1500,10.);
#331=VECTOR('',#1503,10.);
#332=VECTOR('',#1506,10.);
#333=VECTOR('',#1509,10.);
#334=CIRCLE('',#1048,2.15);
#335=CIRCLE('',#1049,2.15);
#336=CIRCLE('',#1052,2.15);
#337=CIRCLE('',#1053,2.15);
#338=CIRCLE('',#1056,2.15);
#339=CIRCLE('',#1057,2.15);
#340=CIRCLE('',#1060,2.15);
#341=CIRCLE('',#1061,2.15);
#342=CIRCLE('',#1064,2.15);
#343=CIRCLE('',#1065,2.15);
#344=CIRCLE('',#1068,2.15);
#345=CIRCLE('',#1069,2.15);
#346=CIRCLE('',#1072,2.15);
#347=CIRCLE('',#1073,2.15);
#348=CIRCLE('',#1076,2.15);
#349=CIRCLE('',#1077,2.15);
#350=CIRCLE('',#1080,0.9);
#351=CIRCLE('',#1081,0.9);
#352=CIRCLE('',#1082,0.9);
#353=CIRCLE('',#1083,0.9);
#354=CIRCLE('',#1085,20.);
#355=CIRCLE('',#1086,19.9999999999999);
#356=CIRCLE('',#1087,20.);
#357=CIRCLE('',#1088,20.);
#358=CIRCLE('',#1089,57.5);
#359=CIRCLE('',#1090,2.15);
#360=CIRCLE('',#1091,2.65);
#361=CIRCLE('',#1092,2.15);
#362=CIRCLE('',#1093,2.15);
#363=CIRCLE('',#1094,2.65);
#364=CIRCLE('',#1095,2.15);
#365=CIRCLE('',#1096,2.65);
#366=CIRCLE('',#1097,2.15);
#367=CIRCLE('',#1098,2.15);
#368=CIRCLE('',#1099,2.65);
#369=CIRCLE('',#1100,2.15);
#370=CIRCLE('',#1101,2.15);
#371=CIRCLE('',#1103,57.5);
#372=CIRCLE('',#1105,1.75);
#373=CIRCLE('',#1106,1.75);
#374=CIRCLE('',#1107,1.75);
#375=CIRCLE('',#1109,1.75);
#376=CIRCLE('',#1110,1.75);
#377=CIRCLE('',#1111,1.75);
#378=CIRCLE('',#1113,1.75);
#379=CIRCLE('',#1114,1.75);
#380=CIRCLE('',#1115,1.75);
#381=CIRCLE('',#1117,1.75);
#382=CIRCLE('',#1118,1.75);
#383=CIRCLE('',#1119,1.75);
#384=CIRCLE('',#1121,1.75);
#385=CIRCLE('',#1122,1.75);
#386=CIRCLE('',#1123,1.75);
#387=CIRCLE('',#1125,1.75);
#388=CIRCLE('',#1126,1.75);
#389=CIRCLE('',#1128,35.);
#390=CIRCLE('',#1129,32.);
#391=CIRCLE('',#1130,32.);
#392=CIRCLE('',#1131,32.);
#393=CIRCLE('',#1132,32.);
#394=CIRCLE('',#1133,32.);
#395=CIRCLE('',#1134,32.);
#396=CIRCLE('',#1136,31.);
#397=CIRCLE('',#1138,29.);
#398=CIRCLE('',#1140,35.);
#399=CIRCLE('',#1142,56.75);
#400=CIRCLE('',#1143,56.75);
#401=CIRCLE('',#1147,29.);
#402=CIRCLE('',#1149,19.9999999999999);
#403=CIRCLE('',#1150,20.);
#404=CIRCLE('',#1151,20.);
#405=CIRCLE('',#1152,20.);
#406=CIRCLE('',#1153,2.15);
#407=CIRCLE('',#1154,2.65);
#408=CIRCLE('',#1155,2.15);
#409=CIRCLE('',#1156,2.15);
#410=CIRCLE('',#1157,2.64999999999999);
#411=CIRCLE('',#1158,2.15);
#412=CIRCLE('',#1159,2.65);
#413=CIRCLE('',#1160,2.15);
#414=CIRCLE('',#1161,2.15);
#415=CIRCLE('',#1162,2.65);
#416=CIRCLE('',#1163,2.15);
#417=CIRCLE('',#1164,2.15);
#418=VERTEX_POINT('',#1514);
#419=VERTEX_POINT('',#1516);
#420=VERTEX_POINT('',#1521);
#421=VERTEX_POINT('',#1523);
#422=VERTEX_POINT('',#1528);
#423=VERTEX_POINT('',#1530);
#424=VERTEX_POINT('',#1535);
#425=VERTEX_POINT('',#1537);
#426=VERTEX_POINT('',#1542);
#427=VERTEX_POINT('',#1544);
#428=VERTEX_POINT('',#1549);
#429=VERTEX_POINT('',#1551);
#430=VERTEX_POINT('',#1556);
#431=VERTEX_POINT('',#1558);
#432=VERTEX_POINT('',#1563);
#433=VERTEX_POINT('',#1565);
#434=VERTEX_POINT('',#1570);
#435=VERTEX_POINT('',#1571);
#436=VERTEX_POINT('',#1573);
#437=VERTEX_POINT('',#1575);
#438=VERTEX_POINT('',#1577);
#439=VERTEX_POINT('',#1579);
#440=VERTEX_POINT('',#1581);
#441=VERTEX_POINT('',#1583);
#442=VERTEX_POINT('',#1587);
#443=VERTEX_POINT('',#1588);
#444=VERTEX_POINT('',#1590);
#445=VERTEX_POINT('',#1592);
#446=VERTEX_POINT('',#1594);
#447=VERTEX_POINT('',#1596);
#448=VERTEX_POINT('',#1598);
#449=VERTEX_POINT('',#1600);
#450=VERTEX_POINT('',#1604);
#451=VERTEX_POINT('',#1606);
#452=VERTEX_POINT('',#1608);
#453=VERTEX_POINT('',#1610);
#454=VERTEX_POINT('',#1612);
#455=VERTEX_POINT('',#1614);
#456=VERTEX_POINT('',#1616);
#457=VERTEX_POINT('',#1618);
#458=VERTEX_POINT('',#1620);
#459=VERTEX_POINT('',#1622);
#460=VERTEX_POINT('',#1624);
#461=VERTEX_POINT('',#1626);
#462=VERTEX_POINT('',#1631);
#463=VERTEX_POINT('',#1633);
#464=VERTEX_POINT('',#1635);
#465=VERTEX_POINT('',#1637);
#466=VERTEX_POINT('',#1654);
#467=VERTEX_POINT('',#1656);
#468=VERTEX_POINT('',#1658);
#469=VERTEX_POINT('',#1660);
#470=VERTEX_POINT('',#1677);
#471=VERTEX_POINT('',#1679);
#472=VERTEX_POINT('',#1681);
#473=VERTEX_POINT('',#1683);
#474=VERTEX_POINT('',#1700);
#475=VERTEX_POINT('',#1702);
#476=VERTEX_POINT('',#1704);
#477=VERTEX_POINT('',#1706);
#478=VERTEX_POINT('',#1717);
#479=VERTEX_POINT('',#1728);
#480=VERTEX_POINT('',#1730);
#481=VERTEX_POINT('',#1732);
#482=VERTEX_POINT('',#1734);
#483=VERTEX_POINT('',#1751);
#484=VERTEX_POINT('',#1753);
#485=VERTEX_POINT('',#1755);
#486=VERTEX_POINT('',#1766);
#487=VERTEX_POINT('',#1777);
#488=VERTEX_POINT('',#1786);
#489=VERTEX_POINT('',#1790);
#490=VERTEX_POINT('',#1793);
#491=VERTEX_POINT('',#1802);
#492=VERTEX_POINT('',#1806);
#493=VERTEX_POINT('',#1807);
#494=VERTEX_POINT('',#1809);
#495=VERTEX_POINT('',#1811);
#496=VERTEX_POINT('',#1813);
#497=VERTEX_POINT('',#1815);
#498=VERTEX_POINT('',#1817);
#499=VERTEX_POINT('',#1819);
#500=VERTEX_POINT('',#1822);
#501=VERTEX_POINT('',#1824);
#502=VERTEX_POINT('',#1826);
#503=VERTEX_POINT('',#1828);
#504=VERTEX_POINT('',#1830);
#505=VERTEX_POINT('',#1832);
#506=VERTEX_POINT('',#1834);
#507=VERTEX_POINT('',#1836);
#508=VERTEX_POINT('',#1838);
#509=VERTEX_POINT('',#1840);
#510=VERTEX_POINT('',#1842);
#511=VERTEX_POINT('',#1844);
#512=EDGE_CURVE('',#418,#418,#334,.T.);
#513=EDGE_CURVE('',#418,#419,#236,.T.);
#514=EDGE_CURVE('',#419,#419,#335,.T.);
#515=EDGE_CURVE('',#420,#420,#336,.T.);
#516=EDGE_CURVE('',#420,#421,#237,.T.);
#517=EDGE_CURVE('',#421,#421,#337,.T.);
#518=EDGE_CURVE('',#422,#422,#338,.T.);
#519=EDGE_CURVE('',#422,#423,#238,.T.);
#520=EDGE_CURVE('',#423,#423,#339,.T.);
#521=EDGE_CURVE('',#424,#424,#340,.T.);
#522=EDGE_CURVE('',#424,#425,#239,.T.);
#523=EDGE_CURVE('',#425,#425,#341,.T.);
#524=EDGE_CURVE('',#426,#426,#342,.T.);
#525=EDGE_CURVE('',#426,#427,#240,.T.);
#526=EDGE_CURVE('',#427,#427,#343,.T.);
#527=EDGE_CURVE('',#428,#428,#344,.T.);
#528=EDGE_CURVE('',#428,#429,#241,.T.);
#529=EDGE_CURVE('',#429,#429,#345,.T.);
#530=EDGE_CURVE('',#430,#430,#346,.T.);
#531=EDGE_CURVE('',#430,#431,#242,.T.);
#532=EDGE_CURVE('',#431,#431,#347,.T.);
#533=EDGE_CURVE('',#432,#432,#348,.T.);
#534=EDGE_CURVE('',#432,#433,#243,.T.);
#535=EDGE_CURVE('',#433,#433,#349,.T.);
#536=EDGE_CURVE('',#434,#435,#244,.T.);
#537=EDGE_CURVE('',#436,#434,#350,.T.);
#538=EDGE_CURVE('',#437,#436,#245,.T.);
#539=EDGE_CURVE('',#438,#437,#351,.T.);
#540=EDGE_CURVE('',#439,#438,#246,.T.);
#541=EDGE_CURVE('',#440,#439,#352,.T.);
#542=EDGE_CURVE('',#441,#440,#247,.T.);
#543=EDGE_CURVE('',#435,#441,#353,.T.);
#544=EDGE_CURVE('',#442,#443,#248,.T.);
#545=EDGE_CURVE('',#443,#444,#354,.T.);
#546=EDGE_CURVE('',#444,#445,#249,.T.);
#547=EDGE_CURVE('',#445,#446,#355,.T.);
#548=EDGE_CURVE('',#446,#447,#250,.T.);
#549=EDGE_CURVE('',#447,#448,#356,.T.);
#550=EDGE_CURVE('',#448,#449,#251,.T.);
#551=EDGE_CURVE('',#449,#442,#357,.T.);
#552=EDGE_CURVE('',#441,#435,#358,.T.);
#553=EDGE_CURVE('',#450,#450,#359,.T.);
#554=EDGE_CURVE('',#451,#451,#360,.T.);
#555=EDGE_CURVE('',#452,#452,#361,.T.);
#556=EDGE_CURVE('',#453,#453,#362,.T.);
#557=EDGE_CURVE('',#454,#454,#363,.T.);
#558=EDGE_CURVE('',#455,#455,#364,.T.);
#559=EDGE_CURVE('',#456,#456,#365,.T.);
#560=EDGE_CURVE('',#457,#457,#366,.T.);
#561=EDGE_CURVE('',#458,#458,#367,.T.);
#562=EDGE_CURVE('',#459,#459,#368,.T.);
#563=EDGE_CURVE('',#460,#460,#369,.T.);
#564=EDGE_CURVE('',#461,#461,#370,.T.);
#565=EDGE_CURVE('',#440,#434,#371,.T.);
#566=EDGE_CURVE('',#462,#462,#372,.T.);
#567=EDGE_CURVE('',#462,#463,#252,.T.);
#568=EDGE_CURVE('',#464,#463,#373,.T.);
#569=EDGE_CURVE('',#465,#464,#16,.T.);
#570=EDGE_CURVE('',#463,#465,#374,.T.);
#571=EDGE_CURVE('',#466,#466,#375,.T.);
#572=EDGE_CURVE('',#466,#467,#253,.T.);
#573=EDGE_CURVE('',#468,#467,#376,.T.);
#574=EDGE_CURVE('',#469,#468,#17,.T.);
#575=EDGE_CURVE('',#467,#469,#377,.T.);
#576=EDGE_CURVE('',#470,#470,#378,.T.);
#577=EDGE_CURVE('',#470,#471,#254,.T.);
#578=EDGE_CURVE('',#472,#471,#379,.T.);
#579=EDGE_CURVE('',#473,#472,#18,.T.);
#580=EDGE_CURVE('',#471,#473,#380,.T.);
#581=EDGE_CURVE('',#474,#474,#381,.T.);
#582=EDGE_CURVE('',#474,#475,#255,.T.);
#583=EDGE_CURVE('',#476,#475,#382,.T.);
#584=EDGE_CURVE('',#477,#476,#19,.T.);
#585=EDGE_CURVE('',#478,#477,#20,.T.);
#586=EDGE_CURVE('',#475,#478,#383,.T.);
#587=EDGE_CURVE('',#479,#479,#384,.T.);
#588=EDGE_CURVE('',#479,#480,#256,.T.);
#589=EDGE_CURVE('',#481,#480,#385,.T.);
#590=EDGE_CURVE('',#482,#481,#21,.T.);
#591=EDGE_CURVE('',#480,#482,#386,.T.);
#592=EDGE_CURVE('',#483,#483,#387,.T.);
#593=EDGE_CURVE('',#483,#484,#257,.T.);
#594=EDGE_CURVE('',#485,#484,#22,.T.);
#595=EDGE_CURVE('',#486,#485,#388,.T.);
#596=EDGE_CURVE('',#484,#486,#23,.T.);
#597=EDGE_CURVE('',#487,#487,#389,.T.);
#598=EDGE_CURVE('',#476,#465,#390,.T.);
#599=EDGE_CURVE('',#481,#478,#391,.T.);
#600=EDGE_CURVE('',#468,#482,#392,.T.);
#601=EDGE_CURVE('',#486,#469,#393,.T.);
#602=EDGE_CURVE('',#472,#485,#394,.T.);
#603=EDGE_CURVE('',#464,#473,#395,.T.);
#604=EDGE_CURVE('',#477,#488,#258,.T.);
#605=EDGE_CURVE('',#488,#488,#396,.T.);
#606=EDGE_CURVE('',#489,#489,#397,.T.);
#607=EDGE_CURVE('',#487,#490,#259,.T.);
#608=EDGE_CURVE('',#490,#490,#398,.T.);
#609=EDGE_CURVE('',#439,#436,#399,.T.);
#610=EDGE_CURVE('',#437,#438,#400,.T.);
#611=EDGE_CURVE('',#491,#491,#401,.T.);
#612=EDGE_CURVE('',#491,#489,#260,.T.);
#613=EDGE_CURVE('',#492,#493,#261,.T.);
#614=EDGE_CURVE('',#493,#494,#402,.T.);
#615=EDGE_CURVE('',#494,#495,#262,.T.);
#616=EDGE_CURVE('',#495,#496,#403,.T.);
#617=EDGE_CURVE('',#496,#497,#263,.T.);
#618=EDGE_CURVE('',#497,#498,#404,.T.);
#619=EDGE_CURVE('',#498,#499,#264,.T.);
#620=EDGE_CURVE('',#499,#492,#405,.T.);
#621=EDGE_CURVE('',#500,#500,#406,.T.);
#622=EDGE_CURVE('',#501,#501,#407,.T.);
#623=EDGE_CURVE('',#502,#502,#408,.T.);
#624=EDGE_CURVE('',#503,#503,#409,.T.);
#625=EDGE_CURVE('',#504,#504,#410,.T.);
#626=EDGE_CURVE('',#505,#505,#411,.T.);
#627=EDGE_CURVE('',#506,#506,#412,.T.);
#628=EDGE_CURVE('',#507,#507,#413,.T.);
#629=EDGE_CURVE('',#508,#508,#414,.T.);
#630=EDGE_CURVE('',#509,#509,#415,.T.);
#631=EDGE_CURVE('',#510,#510,#416,.T.);
#632=EDGE_CURVE('',#511,#511,#417,.T.);
#633=EDGE_CURVE('',#461,#511,#265,.T.);
#634=EDGE_CURVE('',#460,#510,#266,.T.);
#635=EDGE_CURVE('',#459,#509,#267,.T.);
#636=EDGE_CURVE('',#458,#508,#268,.T.);
#637=EDGE_CURVE('',#457,#507,#269,.T.);
#638=EDGE_CURVE('',#456,#506,#270,.T.);
#639=EDGE_CURVE('',#455,#505,#271,.T.);
#640=EDGE_CURVE('',#454,#504,#272,.T.);
#641=EDGE_CURVE('',#453,#503,#273,.T.);
#642=EDGE_CURVE('',#452,#502,#274,.T.);
#643=EDGE_CURVE('',#451,#501,#275,.T.);
#644=EDGE_CURVE('',#450,#500,#276,.T.);
#645=EDGE_CURVE('',#442,#497,#277,.T.);
#646=EDGE_CURVE('',#498,#449,#278,.T.);
#647=EDGE_CURVE('',#499,#448,#279,.T.);
#648=EDGE_CURVE('',#492,#447,#280,.T.);
#649=EDGE_CURVE('',#493,#446,#281,.T.);
#650=EDGE_CURVE('',#494,#445,#282,.T.);
#651=EDGE_CURVE('',#495,#444,#283,.T.);
#652=EDGE_CURVE('',#496,#443,#284,.T.);
#653=ORIENTED_EDGE('',*,*,#512,.F.);
#654=ORIENTED_EDGE('',*,*,#513,.T.);
#655=ORIENTED_EDGE('',*,*,#514,.T.);
#656=ORIENTED_EDGE('',*,*,#513,.F.);
#657=ORIENTED_EDGE('',*,*,#514,.F.);
#658=ORIENTED_EDGE('',*,*,#515,.F.);
#659=ORIENTED_EDGE('',*,*,#516,.T.);
#660=ORIENTED_EDGE('',*,*,#517,.T.);
#661=ORIENTED_EDGE('',*,*,#516,.F.);
#662=ORIENTED_EDGE('',*,*,#517,.F.);
#663=ORIENTED_EDGE('',*,*,#518,.F.);
#664=ORIENTED_EDGE('',*,*,#519,.T.);
#665=ORIENTED_EDGE('',*,*,#520,.T.);
#666=ORIENTED_EDGE('',*,*,#519,.F.);
#667=ORIENTED_EDGE('',*,*,#520,.F.);
#668=ORIENTED_EDGE('',*,*,#521,.F.);
#669=ORIENTED_EDGE('',*,*,#522,.T.);
#670=ORIENTED_EDGE('',*,*,#523,.T.);
#671=ORIENTED_EDGE('',*,*,#522,.F.);
#672=ORIENTED_EDGE('',*,*,#523,.F.);
#673=ORIENTED_EDGE('',*,*,#524,.F.);
#674=ORIENTED_EDGE('',*,*,#525,.T.);
#675=ORIENTED_EDGE('',*,*,#526,.T.);
#676=ORIENTED_EDGE('',*,*,#525,.F.);
#677=ORIENTED_EDGE('',*,*,#526,.F.);
#678=ORIENTED_EDGE('',*,*,#527,.F.);
#679=ORIENTED_EDGE('',*,*,#528,.T.);
#680=ORIENTED_EDGE('',*,*,#529,.T.);
#681=ORIENTED_EDGE('',*,*,#528,.F.);
#682=ORIENTED_EDGE('',*,*,#529,.F.);
#683=ORIENTED_EDGE('',*,*,#530,.F.);
#684=ORIENTED_EDGE('',*,*,#531,.T.);
#685=ORIENTED_EDGE('',*,*,#532,.T.);
#686=ORIENTED_EDGE('',*,*,#531,.F.);
#687=ORIENTED_EDGE('',*,*,#532,.F.);
#688=ORIENTED_EDGE('',*,*,#533,.F.);
#689=ORIENTED_EDGE('',*,*,#534,.T.);
#690=ORIENTED_EDGE('',*,*,#535,.T.);
#691=ORIENTED_EDGE('',*,*,#534,.F.);
#692=ORIENTED_EDGE('',*,*,#535,.F.);
#693=ORIENTED_EDGE('',*,*,#536,.F.);
#694=ORIENTED_EDGE('',*,*,#537,.F.);
#695=ORIENTED_EDGE('',*,*,#538,.F.);
#696=ORIENTED_EDGE('',*,*,#539,.F.);
#697=ORIENTED_EDGE('',*,*,#540,.F.);
#698=ORIENTED_EDGE('',*,*,#541,.F.);
#699=ORIENTED_EDGE('',*,*,#542,.F.);
#700=ORIENTED_EDGE('',*,*,#543,.F.);
#701=ORIENTED_EDGE('',*,*,#544,.T.);
#702=ORIENTED_EDGE('',*,*,#545,.T.);
#703=ORIENTED_EDGE('',*,*,#546,.T.);
#704=ORIENTED_EDGE('',*,*,#547,.T.);
#705=ORIENTED_EDGE('',*,*,#548,.T.);
#706=ORIENTED_EDGE('',*,*,#549,.T.);
#707=ORIENTED_EDGE('',*,*,#550,.T.);
#708=ORIENTED_EDGE('',*,*,#551,.T.);
#709=ORIENTED_EDGE('',*,*,#552,.T.);
#710=ORIENTED_EDGE('',*,*,#543,.T.);
#711=ORIENTED_EDGE('',*,*,#553,.T.);
#712=ORIENTED_EDGE('',*,*,#554,.T.);
#713=ORIENTED_EDGE('',*,*,#555,.T.);
#714=ORIENTED_EDGE('',*,*,#556,.T.);
#715=ORIENTED_EDGE('',*,*,#557,.T.);
#716=ORIENTED_EDGE('',*,*,#558,.T.);
#717=ORIENTED_EDGE('',*,*,#559,.T.);
#718=ORIENTED_EDGE('',*,*,#560,.T.);
#719=ORIENTED_EDGE('',*,*,#561,.T.);
#720=ORIENTED_EDGE('',*,*,#562,.T.);
#721=ORIENTED_EDGE('',*,*,#563,.T.);
#722=ORIENTED_EDGE('',*,*,#564,.T.);
#723=ORIENTED_EDGE('',*,*,#536,.T.);
#724=ORIENTED_EDGE('',*,*,#552,.F.);
#725=ORIENTED_EDGE('',*,*,#542,.T.);
#726=ORIENTED_EDGE('',*,*,#565,.T.);
#727=ORIENTED_EDGE('',*,*,#566,.F.);
#728=ORIENTED_EDGE('',*,*,#567,.T.);
#729=ORIENTED_EDGE('',*,*,#568,.F.);
#730=ORIENTED_EDGE('',*,*,#569,.F.);
#731=ORIENTED_EDGE('',*,*,#570,.F.);
#732=ORIENTED_EDGE('',*,*,#567,.F.);
#733=ORIENTED_EDGE('',*,*,#571,.F.);
#734=ORIENTED_EDGE('',*,*,#572,.T.);
#735=ORIENTED_EDGE('',*,*,#573,.F.);
#736=ORIENTED_EDGE('',*,*,#574,.F.);
#737=ORIENTED_EDGE('',*,*,#575,.F.);
#738=ORIENTED_EDGE('',*,*,#572,.F.);
#739=ORIENTED_EDGE('',*,*,#576,.F.);
#740=ORIENTED_EDGE('',*,*,#577,.T.);
#741=ORIENTED_EDGE('',*,*,#578,.F.);
#742=ORIENTED_EDGE('',*,*,#579,.F.);
#743=ORIENTED_EDGE('',*,*,#580,.F.);
#744=ORIENTED_EDGE('',*,*,#577,.F.);
#745=ORIENTED_EDGE('',*,*,#581,.F.);
#746=ORIENTED_EDGE('',*,*,#582,.T.);
#747=ORIENTED_EDGE('',*,*,#583,.F.);
#748=ORIENTED_EDGE('',*,*,#584,.F.);
#749=ORIENTED_EDGE('',*,*,#585,.F.);
#750=ORIENTED_EDGE('',*,*,#586,.F.);
#751=ORIENTED_EDGE('',*,*,#582,.F.);
#752=ORIENTED_EDGE('',*,*,#587,.F.);
#753=ORIENTED_EDGE('',*,*,#588,.T.);
#754=ORIENTED_EDGE('',*,*,#589,.F.);
#755=ORIENTED_EDGE('',*,*,#590,.F.);
#756=ORIENTED_EDGE('',*,*,#591,.F.);
#757=ORIENTED_EDGE('',*,*,#588,.F.);
#758=ORIENTED_EDGE('',*,*,#592,.F.);
#759=ORIENTED_EDGE('',*,*,#593,.T.);
#760=ORIENTED_EDGE('',*,*,#594,.F.);
#761=ORIENTED_EDGE('',*,*,#595,.F.);
#762=ORIENTED_EDGE('',*,*,#596,.F.);
#763=ORIENTED_EDGE('',*,*,#593,.F.);
#764=ORIENTED_EDGE('',*,*,#597,.T.);
#765=ORIENTED_EDGE('',*,*,#568,.T.);
#766=ORIENTED_EDGE('',*,*,#570,.T.);
#767=ORIENTED_EDGE('',*,*,#598,.F.);
#768=ORIENTED_EDGE('',*,*,#583,.T.);
#769=ORIENTED_EDGE('',*,*,#586,.T.);
#770=ORIENTED_EDGE('',*,*,#599,.F.);
#771=ORIENTED_EDGE('',*,*,#589,.T.);
#772=ORIENTED_EDGE('',*,*,#591,.T.);
#773=ORIENTED_EDGE('',*,*,#600,.F.);
#774=ORIENTED_EDGE('',*,*,#573,.T.);
#775=ORIENTED_EDGE('',*,*,#575,.T.);
#776=ORIENTED_EDGE('',*,*,#601,.F.);
#777=ORIENTED_EDGE('',*,*,#595,.T.);
#778=ORIENTED_EDGE('',*,*,#602,.F.);
#779=ORIENTED_EDGE('',*,*,#578,.T.);
#780=ORIENTED_EDGE('',*,*,#580,.T.);
#781=ORIENTED_EDGE('',*,*,#603,.F.);
#782=ORIENTED_EDGE('',*,*,#569,.T.);
#783=ORIENTED_EDGE('',*,*,#603,.T.);
#784=ORIENTED_EDGE('',*,*,#579,.T.);
#785=ORIENTED_EDGE('',*,*,#602,.T.);
#786=ORIENTED_EDGE('',*,*,#594,.T.);
#787=ORIENTED_EDGE('',*,*,#596,.T.);
#788=ORIENTED_EDGE('',*,*,#601,.T.);
#789=ORIENTED_EDGE('',*,*,#574,.T.);
#790=ORIENTED_EDGE('',*,*,#600,.T.);
#791=ORIENTED_EDGE('',*,*,#590,.T.);
#792=ORIENTED_EDGE('',*,*,#599,.T.);
#793=ORIENTED_EDGE('',*,*,#585,.T.);
#794=ORIENTED_EDGE('',*,*,#604,.T.);
#795=ORIENTED_EDGE('',*,*,#605,.F.);
#796=ORIENTED_EDGE('',*,*,#604,.F.);
#797=ORIENTED_EDGE('',*,*,#584,.T.);
#798=ORIENTED_EDGE('',*,*,#598,.T.);
#799=ORIENTED_EDGE('',*,*,#605,.T.);
#800=ORIENTED_EDGE('',*,*,#606,.T.);
#801=ORIENTED_EDGE('',*,*,#597,.F.);
#802=ORIENTED_EDGE('',*,*,#607,.T.);
#803=ORIENTED_EDGE('',*,*,#608,.F.);
#804=ORIENTED_EDGE('',*,*,#607,.F.);
#805=ORIENTED_EDGE('',*,*,#538,.T.);
#806=ORIENTED_EDGE('',*,*,#609,.F.);
#807=ORIENTED_EDGE('',*,*,#540,.T.);
#808=ORIENTED_EDGE('',*,*,#610,.F.);
#809=ORIENTED_EDGE('',*,*,#537,.T.);
#810=ORIENTED_EDGE('',*,*,#565,.F.);
#811=ORIENTED_EDGE('',*,*,#541,.T.);
#812=ORIENTED_EDGE('',*,*,#609,.T.);
#813=ORIENTED_EDGE('',*,*,#539,.T.);
#814=ORIENTED_EDGE('',*,*,#610,.T.);
#815=ORIENTED_EDGE('',*,*,#608,.T.);
#816=ORIENTED_EDGE('',*,*,#611,.F.);
#817=ORIENTED_EDGE('',*,*,#612,.T.);
#818=ORIENTED_EDGE('',*,*,#606,.F.);
#819=ORIENTED_EDGE('',*,*,#612,.F.);
#820=ORIENTED_EDGE('',*,*,#613,.T.);
#821=ORIENTED_EDGE('',*,*,#614,.T.);
#822=ORIENTED_EDGE('',*,*,#615,.T.);
#823=ORIENTED_EDGE('',*,*,#616,.T.);
#824=ORIENTED_EDGE('',*,*,#617,.T.);
#825=ORIENTED_EDGE('',*,*,#618,.T.);
#826=ORIENTED_EDGE('',*,*,#619,.T.);
#827=ORIENTED_EDGE('',*,*,#620,.T.);
#828=ORIENTED_EDGE('',*,*,#566,.T.);
#829=ORIENTED_EDGE('',*,*,#571,.T.);
#830=ORIENTED_EDGE('',*,*,#576,.T.);
#831=ORIENTED_EDGE('',*,*,#581,.T.);
#832=ORIENTED_EDGE('',*,*,#587,.T.);
#833=ORIENTED_EDGE('',*,*,#592,.T.);
#834=ORIENTED_EDGE('',*,*,#611,.T.);
#835=ORIENTED_EDGE('',*,*,#621,.T.);
#836=ORIENTED_EDGE('',*,*,#622,.T.);
#837=ORIENTED_EDGE('',*,*,#623,.T.);
#838=ORIENTED_EDGE('',*,*,#624,.T.);
#839=ORIENTED_EDGE('',*,*,#625,.T.);
#840=ORIENTED_EDGE('',*,*,#626,.T.);
#841=ORIENTED_EDGE('',*,*,#627,.T.);
#842=ORIENTED_EDGE('',*,*,#628,.T.);
#843=ORIENTED_EDGE('',*,*,#629,.T.);
#844=ORIENTED_EDGE('',*,*,#630,.T.);
#845=ORIENTED_EDGE('',*,*,#631,.T.);
#846=ORIENTED_EDGE('',*,*,#632,.T.);
#847=ORIENTED_EDGE('',*,*,#564,.F.);
#848=ORIENTED_EDGE('',*,*,#633,.T.);
#849=ORIENTED_EDGE('',*,*,#632,.F.);
#850=ORIENTED_EDGE('',*,*,#633,.F.);
#851=ORIENTED_EDGE('',*,*,#563,.F.);
#852=ORIENTED_EDGE('',*,*,#634,.T.);
#853=ORIENTED_EDGE('',*,*,#631,.F.);
#854=ORIENTED_EDGE('',*,*,#634,.F.);
#855=ORIENTED_EDGE('',*,*,#562,.F.);
#856=ORIENTED_EDGE('',*,*,#635,.T.);
#857=ORIENTED_EDGE('',*,*,#630,.F.);
#858=ORIENTED_EDGE('',*,*,#635,.F.);
#859=ORIENTED_EDGE('',*,*,#561,.F.);
#860=ORIENTED_EDGE('',*,*,#636,.T.);
#861=ORIENTED_EDGE('',*,*,#629,.F.);
#862=ORIENTED_EDGE('',*,*,#636,.F.);
#863=ORIENTED_EDGE('',*,*,#560,.F.);
#864=ORIENTED_EDGE('',*,*,#637,.T.);
#865=ORIENTED_EDGE('',*,*,#628,.F.);
#866=ORIENTED_EDGE('',*,*,#637,.F.);
#867=ORIENTED_EDGE('',*,*,#559,.F.);
#868=ORIENTED_EDGE('',*,*,#638,.T.);
#869=ORIENTED_EDGE('',*,*,#627,.F.);
#870=ORIENTED_EDGE('',*,*,#638,.F.);
#871=ORIENTED_EDGE('',*,*,#558,.F.);
#872=ORIENTED_EDGE('',*,*,#639,.T.);
#873=ORIENTED_EDGE('',*,*,#626,.F.);
#874=ORIENTED_EDGE('',*,*,#639,.F.);
#875=ORIENTED_EDGE('',*,*,#557,.F.);
#876=ORIENTED_EDGE('',*,*,#640,.T.);
#877=ORIENTED_EDGE('',*,*,#625,.F.);
#878=ORIENTED_EDGE('',*,*,#640,.F.);
#879=ORIENTED_EDGE('',*,*,#556,.F.);
#880=ORIENTED_EDGE('',*,*,#641,.T.);
#881=ORIENTED_EDGE('',*,*,#624,.F.);
#882=ORIENTED_EDGE('',*,*,#641,.F.);
#883=ORIENTED_EDGE('',*,*,#555,.F.);
#884=ORIENTED_EDGE('',*,*,#642,.T.);
#885=ORIENTED_EDGE('',*,*,#623,.F.);
#886=ORIENTED_EDGE('',*,*,#642,.F.);
#887=ORIENTED_EDGE('',*,*,#554,.F.);
#888=ORIENTED_EDGE('',*,*,#643,.T.);
#889=ORIENTED_EDGE('',*,*,#622,.F.);
#890=ORIENTED_EDGE('',*,*,#643,.F.);
#891=ORIENTED_EDGE('',*,*,#553,.F.);
#892=ORIENTED_EDGE('',*,*,#644,.T.);
#893=ORIENTED_EDGE('',*,*,#621,.F.);
#894=ORIENTED_EDGE('',*,*,#644,.F.);
#895=ORIENTED_EDGE('',*,*,#645,.F.);
#896=ORIENTED_EDGE('',*,*,#551,.F.);
#897=ORIENTED_EDGE('',*,*,#646,.F.);
#898=ORIENTED_EDGE('',*,*,#618,.F.);
#899=ORIENTED_EDGE('',*,*,#646,.T.);
#900=ORIENTED_EDGE('',*,*,#550,.F.);
#901=ORIENTED_EDGE('',*,*,#647,.F.);
#902=ORIENTED_EDGE('',*,*,#619,.F.);
#903=ORIENTED_EDGE('',*,*,#530,.T.);
#904=ORIENTED_EDGE('',*,*,#533,.T.);
#905=ORIENTED_EDGE('',*,*,#647,.T.);
#906=ORIENTED_EDGE('',*,*,#549,.F.);
#907=ORIENTED_EDGE('',*,*,#648,.F.);
#908=ORIENTED_EDGE('',*,*,#620,.F.);
#909=ORIENTED_EDGE('',*,*,#648,.T.);
#910=ORIENTED_EDGE('',*,*,#548,.F.);
#911=ORIENTED_EDGE('',*,*,#649,.F.);
#912=ORIENTED_EDGE('',*,*,#613,.F.);
#913=ORIENTED_EDGE('',*,*,#512,.T.);
#914=ORIENTED_EDGE('',*,*,#515,.T.);
#915=ORIENTED_EDGE('',*,*,#649,.T.);
#916=ORIENTED_EDGE('',*,*,#547,.F.);
#917=ORIENTED_EDGE('',*,*,#650,.F.);
#918=ORIENTED_EDGE('',*,*,#614,.F.);
#919=ORIENTED_EDGE('',*,*,#650,.T.);
#920=ORIENTED_EDGE('',*,*,#546,.F.);
#921=ORIENTED_EDGE('',*,*,#651,.F.);
#922=ORIENTED_EDGE('',*,*,#615,.F.);
#923=ORIENTED_EDGE('',*,*,#524,.T.);
#924=ORIENTED_EDGE('',*,*,#527,.T.);
#925=ORIENTED_EDGE('',*,*,#651,.T.);
#926=ORIENTED_EDGE('',*,*,#545,.F.);
#927=ORIENTED_EDGE('',*,*,#652,.F.);
#928=ORIENTED_EDGE('',*,*,#616,.F.);
#929=ORIENTED_EDGE('',*,*,#652,.T.);
#930=ORIENTED_EDGE('',*,*,#544,.F.);
#931=ORIENTED_EDGE('',*,*,#645,.T.);
#932=ORIENTED_EDGE('',*,*,#617,.F.);
#933=ORIENTED_EDGE('',*,*,#518,.T.);
#934=ORIENTED_EDGE('',*,*,#521,.T.);
#935=CYLINDRICAL_SURFACE('',#1047,2.15);
#936=CYLINDRICAL_SURFACE('',#1051,2.15);
#937=CYLINDRICAL_SURFACE('',#1055,2.15);
#938=CYLINDRICAL_SURFACE('',#1059,2.15);
#939=CYLINDRICAL_SURFACE('',#1063,2.15);
#940=CYLINDRICAL_SURFACE('',#1067,2.15);
#941=CYLINDRICAL_SURFACE('',#1071,2.15);
#942=CYLINDRICAL_SURFACE('',#1075,2.15);
#943=CYLINDRICAL_SURFACE('',#1079,0.9);
#944=CYLINDRICAL_SURFACE('',#1102,57.5);
#945=CYLINDRICAL_SURFACE('',#1104,1.75);
#946=CYLINDRICAL_SURFACE('',#1108,1.75);
#947=CYLINDRICAL_SURFACE('',#1112,1.75);
#948=CYLINDRICAL_SURFACE('',#1116,1.75);
#949=CYLINDRICAL_SURFACE('',#1120,1.75);
#950=CYLINDRICAL_SURFACE('',#1124,1.75);
#951=CYLINDRICAL_SURFACE('',#1139,35.);
#952=CYLINDRICAL_SURFACE('',#1141,56.75);
#953=CYLINDRICAL_SURFACE('',#1146,29.);
#954=CYLINDRICAL_SURFACE('',#1165,2.15);
#955=CYLINDRICAL_SURFACE('',#1166,2.15);
#956=CYLINDRICAL_SURFACE('',#1167,2.65);
#957=CYLINDRICAL_SURFACE('',#1168,2.15);
#958=CYLINDRICAL_SURFACE('',#1169,2.15);
#959=CYLINDRICAL_SURFACE('',#1170,2.65);
#960=CYLINDRICAL_SURFACE('',#1171,2.15);
#961=CYLINDRICAL_SURFACE('',#1172,2.65);
#962=CYLINDRICAL_SURFACE('',#1173,2.15);
#963=CYLINDRICAL_SURFACE('',#1174,2.15);
#964=CYLINDRICAL_SURFACE('',#1175,2.65);
#965=CYLINDRICAL_SURFACE('',#1176,2.15);
#966=CYLINDRICAL_SURFACE('',#1177,20.);
#967=CYLINDRICAL_SURFACE('',#1179,20.);
#968=CYLINDRICAL_SURFACE('',#1181,19.9999999999999);
#969=CYLINDRICAL_SURFACE('',#1183,20.);
#970=ADVANCED_FACE('',(#85),#935,.F.);
#971=ADVANCED_FACE('',(#86),#67,.T.);
#972=ADVANCED_FACE('',(#87),#936,.F.);
#973=ADVANCED_FACE('',(#88),#68,.T.);
#974=ADVANCED_FACE('',(#89),#937,.F.);
#975=ADVANCED_FACE('',(#90),#69,.T.);
#976=ADVANCED_FACE('',(#91),#938,.F.);
#977=ADVANCED_FACE('',(#92),#70,.T.);
#978=ADVANCED_FACE('',(#93),#939,.F.);
#979=ADVANCED_FACE('',(#94),#71,.T.);
#980=ADVANCED_FACE('',(#95),#940,.F.);
#981=ADVANCED_FACE('',(#96),#72,.T.);
#982=ADVANCED_FACE('',(#97),#941,.F.);
#983=ADVANCED_FACE('',(#98),#73,.T.);
#984=ADVANCED_FACE('',(#99),#942,.F.);
#985=ADVANCED_FACE('',(#100),#74,.T.);
#986=ADVANCED_FACE('',(#101),#943,.T.);
#987=ADVANCED_FACE('',(#102,#24,#25,#26,#27,#28,#29,#30,#31,#32,#33,#34,
#35,#36),#75,.T.);
#988=ADVANCED_FACE('',(#103),#944,.F.);
#989=ADVANCED_FACE('',(#104),#945,.F.);
#990=ADVANCED_FACE('',(#105),#946,.F.);
#991=ADVANCED_FACE('',(#106),#947,.F.);
#992=ADVANCED_FACE('',(#107),#948,.F.);
#993=ADVANCED_FACE('',(#108),#949,.F.);
#994=ADVANCED_FACE('',(#109),#950,.F.);
#995=ADVANCED_FACE('',(#110,#37),#76,.T.);
#996=ADVANCED_FACE('',(#111),#15,.T.);
#997=ADVANCED_FACE('',(#112,#38),#77,.T.);
#998=ADVANCED_FACE('',(#113),#951,.T.);
#999=ADVANCED_FACE('',(#114),#952,.F.);
#1000=ADVANCED_FACE('',(#115),#78,.T.);
#1001=ADVANCED_FACE('',(#116,#39),#79,.F.);
#1002=ADVANCED_FACE('',(#117),#953,.F.);
#1003=ADVANCED_FACE('',(#118,#40,#41,#42,#43,#44,#45,#46,#47,#48,#49,#50,
#51,#52,#53,#54,#55,#56,#57,#58),#80,.T.);
#1004=ADVANCED_FACE('',(#119),#954,.F.);
#1005=ADVANCED_FACE('',(#120),#955,.F.);
#1006=ADVANCED_FACE('',(#121),#956,.F.);
#1007=ADVANCED_FACE('',(#122),#957,.F.);
#1008=ADVANCED_FACE('',(#123),#958,.F.);
#1009=ADVANCED_FACE('',(#124),#959,.F.);
#1010=ADVANCED_FACE('',(#125),#960,.F.);
#1011=ADVANCED_FACE('',(#126),#961,.F.);
#1012=ADVANCED_FACE('',(#127),#962,.F.);
#1013=ADVANCED_FACE('',(#128),#963,.F.);
#1014=ADVANCED_FACE('',(#129),#964,.F.);
#1015=ADVANCED_FACE('',(#130),#965,.F.);
#1016=ADVANCED_FACE('',(#131),#966,.T.);
#1017=ADVANCED_FACE('',(#132,#59,#60),#81,.T.);
#1018=ADVANCED_FACE('',(#133),#967,.T.);
#1019=ADVANCED_FACE('',(#134,#61,#62),#82,.T.);
#1020=ADVANCED_FACE('',(#135),#968,.T.);
#1021=ADVANCED_FACE('',(#136,#63,#64),#83,.T.);
#1022=ADVANCED_FACE('',(#137),#969,.T.);
#1023=ADVANCED_FACE('',(#138,#65,#66),#84,.T.);
#1024=CLOSED_SHELL('',(#970,#971,#972,#973,#974,#975,#976,#977,#978,#979,
#980,#981,#982,#983,#984,#985,#986,#987,#988,#989,#990,#991,#992,#993,#994,
#995,#996,#997,#998,#999,#1000,#1001,#1002,#1003,#1004,#1005,#1006,#1007,
#1008,#1009,#1010,#1011,#1012,#1013,#1014,#1015,#1016,#1017,#1018,#1019,
#1020,#1021,#1022,#1023));
#1025=DERIVED_UNIT_ELEMENT(#1028,1.);
#1026=DERIVED_UNIT_ELEMENT(#1891,-3.);
#1027=DIMENSIONAL_EXPONENTS(0.,1.,0.,0.,0.,0.,0.);
#1028=(
CONVERSION_BASED_UNIT('gram',#1030)
MASS_UNIT()
NAMED_UNIT(#1027)
);
#1029=(
MASS_UNIT()
NAMED_UNIT(*)
SI_UNIT(.KILO.,.GRAM.)
);
#1030=MASS_MEASURE_WITH_UNIT(MASS_MEASURE(0.001),#1029);
#1031=DERIVED_UNIT((#1025,#1026));
#1032=MEASURE_REPRESENTATION_ITEM('density measure',
POSITIVE_RATIO_MEASURE(1.1),#1031);
#1033=PROPERTY_DEFINITION_REPRESENTATION(#1038,#1035);
#1034=PROPERTY_DEFINITION_REPRESENTATION(#1039,#1036);
#1035=REPRESENTATION('material name',(#1037),#1888);
#1036=REPRESENTATION('density',(#1032),#1888);
#1037=DESCRIPTIVE_REPRESENTATION_ITEM('PC/ABS Plastic','PC/ABS Plastic');
#1038=PROPERTY_DEFINITION('material property','material name',#1898);
#1039=PROPERTY_DEFINITION('material property','density of part',#1898);
#1040=DATE_TIME_ROLE('creation_date');
#1041=APPLIED_DATE_AND_TIME_ASSIGNMENT(#1042,#1040,(#1898));
#1042=DATE_AND_TIME(#1043,#1044);
#1043=CALENDAR_DATE(2026,12,4);
#1044=LOCAL_TIME(0,0,0.,#1045);
#1045=COORDINATED_UNIVERSAL_TIME_OFFSET(0,0,.BEHIND.);
#1046=AXIS2_PLACEMENT_3D('',#1512,#1185,#1186);
#1047=AXIS2_PLACEMENT_3D('',#1513,#1187,#1188);
#1048=AXIS2_PLACEMENT_3D('',#1515,#1189,#1190);
#1049=AXIS2_PLACEMENT_3D('',#1518,#1192,#1193);
#1050=AXIS2_PLACEMENT_3D('',#1519,#1194,#1195);
#1051=AXIS2_PLACEMENT_3D('',#1520,#1196,#1197);
#1052=AXIS2_PLACEMENT_3D('',#1522,#1198,#1199);
#1053=AXIS2_PLACEMENT_3D('',#1525,#1201,#1202);
#1054=AXIS2_PLACEMENT_3D('',#1526,#1203,#1204);
#1055=AXIS2_PLACEMENT_3D('',#1527,#1205,#1206);
#1056=AXIS2_PLACEMENT_3D('',#1529,#1207,#1208);
#1057=AXIS2_PLACEMENT_3D('',#1532,#1210,#1211);
#1058=AXIS2_PLACEMENT_3D('',#1533,#1212,#1213);
#1059=AXIS2_PLACEMENT_3D('',#1534,#1214,#1215);
#1060=AXIS2_PLACEMENT_3D('',#1536,#1216,#1217);
#1061=AXIS2_PLACEMENT_3D('',#1539,#1219,#1220);
#1062=AXIS2_PLACEMENT_3D('',#1540,#1221,#1222);
#1063=AXIS2_PLACEMENT_3D('',#1541,#1223,#1224);
#1064=AXIS2_PLACEMENT_3D('',#1543,#1225,#1226);
#1065=AXIS2_PLACEMENT_3D('',#1546,#1228,#1229);
#1066=AXIS2_PLACEMENT_3D('',#1547,#1230,#1231);
#1067=AXIS2_PLACEMENT_3D('',#1548,#1232,#1233);
#1068=AXIS2_PLACEMENT_3D('',#1550,#1234,#1235);
#1069=AXIS2_PLACEMENT_3D('',#1553,#1237,#1238);
#1070=AXIS2_PLACEMENT_3D('',#1554,#1239,#1240);
#1071=AXIS2_PLACEMENT_3D('',#1555,#1241,#1242);
#1072=AXIS2_PLACEMENT_3D('',#1557,#1243,#1244);
#1073=AXIS2_PLACEMENT_3D('',#1560,#1246,#1247);
#1074=AXIS2_PLACEMENT_3D('',#1561,#1248,#1249);
#1075=AXIS2_PLACEMENT_3D('',#1562,#1250,#1251);
#1076=AXIS2_PLACEMENT_3D('',#1564,#1252,#1253);
#1077=AXIS2_PLACEMENT_3D('',#1567,#1255,#1256);
#1078=AXIS2_PLACEMENT_3D('',#1568,#1257,#1258);
#1079=AXIS2_PLACEMENT_3D('',#1569,#1259,#1260);
#1080=AXIS2_PLACEMENT_3D('',#1574,#1262,#1263);
#1081=AXIS2_PLACEMENT_3D('',#1578,#1265,#1266);
#1082=AXIS2_PLACEMENT_3D('',#1582,#1268,#1269);
#1083=AXIS2_PLACEMENT_3D('',#1585,#1271,#1272);
#1084=AXIS2_PLACEMENT_3D('',#1586,#1273,#1274);
#1085=AXIS2_PLACEMENT_3D('',#1591,#1276,#1277);
#1086=AXIS2_PLACEMENT_3D('',#1595,#1279,#1280);
#1087=AXIS2_PLACEMENT_3D('',#1599,#1282,#1283);
#1088=AXIS2_PLACEMENT_3D('',#1602,#1285,#1286);
#1089=AXIS2_PLACEMENT_3D('',#1603,#1287,#1288);
#1090=AXIS2_PLACEMENT_3D('',#1605,#1289,#1290);
#1091=AXIS2_PLACEMENT_3D('',#1607,#1291,#1292);
#1092=AXIS2_PLACEMENT_3D('',#1609,#1293,#1294);
#1093=AXIS2_PLACEMENT_3D('',#1611,#1295,#1296);
#1094=AXIS2_PLACEMENT_3D('',#1613,#1297,#1298);
#1095=AXIS2_PLACEMENT_3D('',#1615,#1299,#1300);
#1096=AXIS2_PLACEMENT_3D('',#1617,#1301,#1302);
#1097=AXIS2_PLACEMENT_3D('',#1619,#1303,#1304);
#1098=AXIS2_PLACEMENT_3D('',#1621,#1305,#1306);
#1099=AXIS2_PLACEMENT_3D('',#1623,#1307,#1308);
#1100=AXIS2_PLACEMENT_3D('',#1625,#1309,#1310);
#1101=AXIS2_PLACEMENT_3D('',#1627,#1311,#1312);
#1102=AXIS2_PLACEMENT_3D('',#1628,#1313,#1314);
#1103=AXIS2_PLACEMENT_3D('',#1629,#1315,#1316);
#1104=AXIS2_PLACEMENT_3D('',#1630,#1317,#1318);
#1105=AXIS2_PLACEMENT_3D('',#1632,#1319,#1320);
#1106=AXIS2_PLACEMENT_3D('',#1636,#1322,#1323);
#1107=AXIS2_PLACEMENT_3D('',#1652,#1324,#1325);
#1108=AXIS2_PLACEMENT_3D('',#1653,#1326,#1327);
#1109=AXIS2_PLACEMENT_3D('',#1655,#1328,#1329);
#1110=AXIS2_PLACEMENT_3D('',#1659,#1331,#1332);
#1111=AXIS2_PLACEMENT_3D('',#1675,#1333,#1334);
#1112=AXIS2_PLACEMENT_3D('',#1676,#1335,#1336);
#1113=AXIS2_PLACEMENT_3D('',#1678,#1337,#1338);
#1114=AXIS2_PLACEMENT_3D('',#1682,#1340,#1341);
#1115=AXIS2_PLACEMENT_3D('',#1698,#1342,#1343);
#1116=AXIS2_PLACEMENT_3D('',#1699,#1344,#1345);
#1117=AXIS2_PLACEMENT_3D('',#1701,#1346,#1347);
#1118=AXIS2_PLACEMENT_3D('',#1705,#1349,#1350);
#1119=AXIS2_PLACEMENT_3D('',#1726,#1351,#1352);
#1120=AXIS2_PLACEMENT_3D('',#1727,#1353,#1354);
#1121=AXIS2_PLACEMENT_3D('',#1729,#1355,#1356);
#1122=AXIS2_PLACEMENT_3D('',#1733,#1358,#1359);
#1123=AXIS2_PLACEMENT_3D('',#1749,#1360,#1361);
#1124=AXIS2_PLACEMENT_3D('',#1750,#1362,#1363);
#1125=AXIS2_PLACEMENT_3D('',#1752,#1364,#1365);
#1126=AXIS2_PLACEMENT_3D('',#1767,#1367,#1368);
#1127=AXIS2_PLACEMENT_3D('',#1776,#1369,#1370);
#1128=AXIS2_PLACEMENT_3D('',#1778,#1371,#1372);
#1129=AXIS2_PLACEMENT_3D('',#1779,#1373,#1374);
#1130=AXIS2_PLACEMENT_3D('',#1780,#1375,#1376);
#1131=AXIS2_PLACEMENT_3D('',#1781,#1377,#1378);
#1132=AXIS2_PLACEMENT_3D('',#1782,#1379,#1380);
#1133=AXIS2_PLACEMENT_3D('',#1783,#1381,#1382);
#1134=AXIS2_PLACEMENT_3D('',#1784,#1383,#1384);
#1135=AXIS2_PLACEMENT_3D('',#1785,#1385,#1386);
#1136=AXIS2_PLACEMENT_3D('',#1788,#1388,#1389);
#1137=AXIS2_PLACEMENT_3D('',#1789,#1390,#1391);
#1138=AXIS2_PLACEMENT_3D('',#1791,#1392,#1393);
#1139=AXIS2_PLACEMENT_3D('',#1792,#1394,#1395);
#1140=AXIS2_PLACEMENT_3D('',#1795,#1397,#1398);
#1141=AXIS2_PLACEMENT_3D('',#1796,#1399,#1400);
#1142=AXIS2_PLACEMENT_3D('',#1797,#1401,#1402);
#1143=AXIS2_PLACEMENT_3D('',#1798,#1403,#1404);
#1144=AXIS2_PLACEMENT_3D('',#1799,#1405,#1406);
#1145=AXIS2_PLACEMENT_3D('',#1800,#1407,#1408);
#1146=AXIS2_PLACEMENT_3D('',#1801,#1409,#1410);
#1147=AXIS2_PLACEMENT_3D('',#1803,#1411,#1412);
#1148=AXIS2_PLACEMENT_3D('',#1805,#1414,#1415);
#1149=AXIS2_PLACEMENT_3D('',#1810,#1417,#1418);
#1150=AXIS2_PLACEMENT_3D('',#1814,#1420,#1421);
#1151=AXIS2_PLACEMENT_3D('',#1818,#1423,#1424);
#1152=AXIS2_PLACEMENT_3D('',#1821,#1426,#1427);
#1153=AXIS2_PLACEMENT_3D('',#1823,#1428,#1429);
#1154=AXIS2_PLACEMENT_3D('',#1825,#1430,#1431);
#1155=AXIS2_PLACEMENT_3D('',#1827,#1432,#1433);
#1156=AXIS2_PLACEMENT_3D('',#1829,#1434,#1435);
#1157=AXIS2_PLACEMENT_3D('',#1831,#1436,#1437);
#1158=AXIS2_PLACEMENT_3D('',#1833,#1438,#1439);
#1159=AXIS2_PLACEMENT_3D('',#1835,#1440,#1441);
#1160=AXIS2_PLACEMENT_3D('',#1837,#1442,#1443);
#1161=AXIS2_PLACEMENT_3D('',#1839,#1444,#1445);
#1162=AXIS2_PLACEMENT_3D('',#1841,#1446,#1447);
#1163=AXIS2_PLACEMENT_3D('',#1843,#1448,#1449);
#1164=AXIS2_PLACEMENT_3D('',#1845,#1450,#1451);
#1165=AXIS2_PLACEMENT_3D('',#1846,#1452,#1453);
#1166=AXIS2_PLACEMENT_3D('',#1848,#1455,#1456);
#1167=AXIS2_PLACEMENT_3D('',#1850,#1458,#1459);
#1168=AXIS2_PLACEMENT_3D('',#1852,#1461,#1462);
#1169=AXIS2_PLACEMENT_3D('',#1854,#1464,#1465);
#1170=AXIS2_PLACEMENT_3D('',#1856,#1467,#1468);
#1171=AXIS2_PLACEMENT_3D('',#1858,#1470,#1471);
#1172=AXIS2_PLACEMENT_3D('',#1860,#1473,#1474);
#1173=AXIS2_PLACEMENT_3D('',#1862,#1476,#1477);
#1174=AXIS2_PLACEMENT_3D('',#1864,#1479,#1480);
#1175=AXIS2_PLACEMENT_3D('',#1866,#1482,#1483);
#1176=AXIS2_PLACEMENT_3D('',#1868,#1485,#1486);
#1177=AXIS2_PLACEMENT_3D('',#1870,#1488,#1489);
#1178=AXIS2_PLACEMENT_3D('',#1873,#1492,#1493);
#1179=AXIS2_PLACEMENT_3D('',#1875,#1495,#1496);
#1180=AXIS2_PLACEMENT_3D('',#1877,#1498,#1499);
#1181=AXIS2_PLACEMENT_3D('',#1879,#1501,#1502);
#1182=AXIS2_PLACEMENT_3D('',#1881,#1504,#1505);
#1183=AXIS2_PLACEMENT_3D('',#1883,#1507,#1508);
#1184=AXIS2_PLACEMENT_3D('',#1885,#1510,#1511);
#1185=DIRECTION('axis',(0.,0.,1.));
#1186=DIRECTION('refdir',(1.,0.,0.));
#1187=DIRECTION('center_axis',(-1.,0.,0.));
#1188=DIRECTION('ref_axis',(0.,0.,-1.));
#1189=DIRECTION('center_axis',(-1.,-1.09651656753102E-16,0.));
#1190=DIRECTION('ref_axis',(0.,0.,-1.));
#1191=DIRECTION('',(-1.,0.,0.));
#1192=DIRECTION('center_axis',(-1.,-1.09651656753102E-16,0.));
#1193=DIRECTION('ref_axis',(0.,0.,-1.));
#1194=DIRECTION('center_axis',(1.,1.09651656753102E-16,0.));
#1195=DIRECTION('ref_axis',(0.,0.,-1.));
#1196=DIRECTION('center_axis',(-1.,0.,0.));
#1197=DIRECTION('ref_axis',(0.,0.,-1.));
#1198=DIRECTION('center_axis',(-1.,-1.09651656753102E-16,0.));
#1199=DIRECTION('ref_axis',(0.,0.,-1.));
#1200=DIRECTION('',(-1.,0.,0.));
#1201=DIRECTION('center_axis',(-1.,-1.09651656753102E-16,0.));
#1202=DIRECTION('ref_axis',(0.,0.,-1.));
#1203=DIRECTION('center_axis',(1.,1.09651656753102E-16,0.));
#1204=DIRECTION('ref_axis',(0.,0.,-1.));
#1205=DIRECTION('center_axis',(1.,0.,0.));
#1206=DIRECTION('ref_axis',(0.,0.,1.));
#1207=DIRECTION('center_axis',(1.,2.19303313506204E-16,0.));
#1208=DIRECTION('ref_axis',(0.,0.,1.));
#1209=DIRECTION('',(1.,0.,0.));
#1210=DIRECTION('center_axis',(1.,2.19303313506204E-16,0.));
#1211=DIRECTION('ref_axis',(0.,0.,1.));
#1212=DIRECTION('center_axis',(-1.,-2.19303313506204E-16,0.));
#1213=DIRECTION('ref_axis',(0.,0.,1.));
#1214=DIRECTION('center_axis',(1.,0.,0.));
#1215=DIRECTION('ref_axis',(0.,0.,1.));
#1216=DIRECTION('center_axis',(1.,2.19303313506204E-16,0.));
#1217=DIRECTION('ref_axis',(0.,0.,1.));
#1218=DIRECTION('',(1.,0.,0.));
#1219=DIRECTION('center_axis',(1.,2.19303313506204E-16,0.));
#1220=DIRECTION('ref_axis',(0.,0.,1.));
#1221=DIRECTION('center_axis',(-1.,-2.19303313506204E-16,0.));
#1222=DIRECTION('ref_axis',(0.,0.,1.));
#1223=DIRECTION('center_axis',(0.,1.,0.));
#1224=DIRECTION('ref_axis',(1.,0.,0.));
#1225=DIRECTION('center_axis',(-2.19303313506204E-16,1.,0.));
#1226=DIRECTION('ref_axis',(1.,0.,0.));
#1227=DIRECTION('',(0.,1.,0.));
#1228=DIRECTION('center_axis',(-2.19303313506204E-16,1.,0.));
#1229=DIRECTION('ref_axis',(1.,2.19303313506204E-16,0.));
#1230=DIRECTION('center_axis',(2.19303313506204E-16,-1.,0.));
#1231=DIRECTION('ref_axis',(0.,0.,-1.));
#1232=DIRECTION('center_axis',(0.,1.,0.));
#1233=DIRECTION('ref_axis',(1.,0.,0.));
#1234=DIRECTION('center_axis',(-2.19303313506204E-16,1.,0.));
#1235=DIRECTION('ref_axis',(1.,0.,0.));
#1236=DIRECTION('',(0.,1.,0.));
#1237=DIRECTION('center_axis',(-2.19303313506204E-16,1.,0.));
#1238=DIRECTION('ref_axis',(1.,2.19303313506204E-16,0.));
#1239=DIRECTION('center_axis',(2.19303313506204E-16,-1.,0.));
#1240=DIRECTION('ref_axis',(0.,0.,-1.));
#1241=DIRECTION('center_axis',(0.,-1.,0.));
#1242=DIRECTION('ref_axis',(1.,0.,0.));
#1243=DIRECTION('center_axis',(-1.09651656753102E-16,-1.,0.));
#1244=DIRECTION('ref_axis',(1.,0.,0.));
#1245=DIRECTION('',(0.,-1.,0.));
#1246=DIRECTION('center_axis',(-1.09651656753102E-16,-1.,0.));
#1247=DIRECTION('ref_axis',(1.,-1.09651656753102E-16,0.));
#1248=DIRECTION('center_axis',(1.09651656753102E-16,1.,0.));
#1249=DIRECTION('ref_axis',(0.,0.,1.));
#1250=DIRECTION('center_axis',(0.,-1.,0.));
#1251=DIRECTION('ref_axis',(1.,0.,0.));
#1252=DIRECTION('center_axis',(-1.09651656753102E-16,-1.,0.));
#1253=DIRECTION('ref_axis',(1.,0.,0.));
#1254=DIRECTION('',(0.,-1.,0.));
#1255=DIRECTION('center_axis',(-1.09651656753102E-16,-1.,0.));
#1256=DIRECTION('ref_axis',(1.,-1.09651656753102E-16,0.));
#1257=DIRECTION('center_axis',(1.09651656753102E-16,1.,0.));
#1258=DIRECTION('ref_axis',(0.,0.,1.));
#1259=DIRECTION('center_axis',(0.,0.,-1.));
#1260=DIRECTION('ref_axis',(1.,0.,0.));
#1261=DIRECTION('',(0.,0.,1.));
#1262=DIRECTION('center_axis',(0.,0.,-1.));
#1263=DIRECTION('ref_axis',(1.,0.,0.));
#1264=DIRECTION('',(0.,0.,1.));
#1265=DIRECTION('center_axis',(0.,0.,-1.));
#1266=DIRECTION('ref_axis',(1.,0.,0.));
#1267=DIRECTION('',(0.,0.,-1.));
#1268=DIRECTION('center_axis',(0.,0.,-1.));
#1269=DIRECTION('ref_axis',(1.,0.,0.));
#1270=DIRECTION('',(0.,0.,-1.));
#1271=DIRECTION('center_axis',(0.,0.,1.));
#1272=DIRECTION('ref_axis',(1.,0.,0.));
#1273=DIRECTION('center_axis',(0.,0.,1.));
#1274=DIRECTION('ref_axis',(1.,0.,0.));
#1275=DIRECTION('',(2.19303313506204E-16,-1.,0.));
#1276=DIRECTION('center_axis',(0.,0.,1.));
#1277=DIRECTION('ref_axis',(-1.,4.44089209850063E-16,0.));
#1278=DIRECTION('',(1.,2.19303313506204E-16,0.));
#1279=DIRECTION('center_axis',(0.,0.,1.));
#1280=DIRECTION('ref_axis',(-3.10862446895045E-15,-1.,0.));
#1281=DIRECTION('',(-1.09651656753102E-16,1.,0.));
#1282=DIRECTION('center_axis',(0.,0.,1.));
#1283=DIRECTION('ref_axis',(1.,4.44089209850063E-16,0.));
#1284=DIRECTION('',(-1.,1.09651656753102E-16,0.));
#1285=DIRECTION('center_axis',(0.,0.,1.));
#1286=DIRECTION('ref_axis',(4.44089209850063E-16,1.,0.));
#1287=DIRECTION('center_axis',(0.,0.,-1.));
#1288=DIRECTION('ref_axis',(-1.,0.,0.));
#1289=DIRECTION('center_axis',(0.,0.,-1.));
#1290=DIRECTION('ref_axis',(1.,0.,0.));
#1291=DIRECTION('center_axis',(0.,0.,-1.));
#1292=DIRECTION('ref_axis',(1.,0.,0.));
#1293=DIRECTION('center_axis',(0.,0.,-1.));
#1294=DIRECTION('ref_axis',(1.,0.,0.));
#1295=DIRECTION('center_axis',(0.,0.,-1.));
#1296=DIRECTION('ref_axis',(1.,0.,0.));
#1297=DIRECTION('center_axis',(0.,0.,-1.));
#1298=DIRECTION('ref_axis',(1.,0.,0.));
#1299=DIRECTION('center_axis',(0.,0.,-1.));
#1300=DIRECTION('ref_axis',(1.,0.,0.));
#1301=DIRECTION('center_axis',(0.,0.,-1.));
#1302=DIRECTION('ref_axis',(1.,0.,0.));
#1303=DIRECTION('center_axis',(0.,0.,-1.));
#1304=DIRECTION('ref_axis',(1.,0.,0.));
#1305=DIRECTION('center_axis',(0.,0.,-1.));
#1306=DIRECTION('ref_axis',(1.,0.,0.));
#1307=DIRECTION('center_axis',(0.,0.,-1.));
#1308=DIRECTION('ref_axis',(1.,0.,0.));
#1309=DIRECTION('center_axis',(0.,0.,-1.));
#1310=DIRECTION('ref_axis',(1.,0.,0.));
#1311=DIRECTION('center_axis',(0.,0.,-1.));
#1312=DIRECTION('ref_axis',(1.,0.,0.));
#1313=DIRECTION('center_axis',(0.,0.,1.));
#1314=DIRECTION('ref_axis',(0.920076007252249,0.391739889312742,0.));
#1315=DIRECTION('center_axis',(0.,0.,-1.));
#1316=DIRECTION('ref_axis',(-1.,0.,0.));
#1317=DIRECTION('center_axis',(0.,0.,1.));
#1318=DIRECTION('ref_axis',(-1.,0.,0.));
#1319=DIRECTION('center_axis',(0.,0.,1.));
#1320=DIRECTION('ref_axis',(-1.,0.,0.));
#1321=DIRECTION('',(0.,0.,1.));
#1322=DIRECTION('center_axis',(0.,0.,-1.));
#1323=DIRECTION('ref_axis',(-1.,0.,0.));
#1324=DIRECTION('center_axis',(0.,0.,-1.));
#1325=DIRECTION('ref_axis',(-1.,0.,0.));
#1326=DIRECTION('center_axis',(0.,0.,1.));
#1327=DIRECTION('ref_axis',(-1.,0.,0.));
#1328=DIRECTION('center_axis',(0.,0.,1.));
#1329=DIRECTION('ref_axis',(-1.,0.,0.));
#1330=DIRECTION('',(0.,0.,1.));
#1331=DIRECTION('center_axis',(0.,0.,-1.));
#1332=DIRECTION('ref_axis',(-1.,0.,0.));
#1333=DIRECTION('center_axis',(0.,0.,-1.));
#1334=DIRECTION('ref_axis',(-1.,0.,0.));
#1335=DIRECTION('center_axis',(0.,0.,1.));
#1336=DIRECTION('ref_axis',(-1.,0.,0.));
#1337=DIRECTION('center_axis',(0.,0.,1.));
#1338=DIRECTION('ref_axis',(-1.,0.,0.));
#1339=DIRECTION('',(0.,0.,1.));
#1340=DIRECTION('center_axis',(0.,0.,-1.));
#1341=DIRECTION('ref_axis',(-1.,0.,0.));
#1342=DIRECTION('center_axis',(0.,0.,-1.));
#1343=DIRECTION('ref_axis',(-1.,0.,0.));
#1344=DIRECTION('center_axis',(0.,0.,1.));
#1345=DIRECTION('ref_axis',(-1.,0.,0.));
#1346=DIRECTION('center_axis',(0.,0.,1.));
#1347=DIRECTION('ref_axis',(-1.,0.,0.));
#1348=DIRECTION('',(0.,0.,1.));
#1349=DIRECTION('center_axis',(0.,0.,-1.));
#1350=DIRECTION('ref_axis',(-1.,0.,0.));
#1351=DIRECTION('center_axis',(0.,0.,-1.));
#1352=DIRECTION('ref_axis',(-1.,0.,0.));
#1353=DIRECTION('center_axis',(0.,0.,1.));
#1354=DIRECTION('ref_axis',(-1.,0.,0.));
#1355=DIRECTION('center_axis',(0.,0.,1.));
#1356=DIRECTION('ref_axis',(-1.,0.,0.));
#1357=DIRECTION('',(0.,0.,1.));
#1358=DIRECTION('center_axis',(0.,0.,-1.));
#1359=DIRECTION('ref_axis',(-1.,0.,0.));
#1360=DIRECTION('center_axis',(0.,0.,-1.));
#1361=DIRECTION('ref_axis',(-1.,0.,0.));
#1362=DIRECTION('center_axis',(0.,0.,1.));
#1363=DIRECTION('ref_axis',(-1.,0.,0.));
#1364=DIRECTION('center_axis',(0.,0.,1.));
#1365=DIRECTION('ref_axis',(-1.,0.,0.));
#1366=DIRECTION('',(0.,0.,1.));
#1367=DIRECTION('center_axis',(0.,0.,-1.));
#1368=DIRECTION('ref_axis',(-1.,0.,0.));
#1369=DIRECTION('center_axis',(0.,0.,1.));
#1370=DIRECTION('ref_axis',(1.,0.,0.));
#1371=DIRECTION('center_axis',(0.,0.,1.));
#1372=DIRECTION('ref_axis',(1.,0.,0.));
#1373=DIRECTION('center_axis',(0.,0.,1.));
#1374=DIRECTION('ref_axis',(-1.,0.,0.));
#1375=DIRECTION('center_axis',(0.,0.,1.));
#1376=DIRECTION('ref_axis',(-1.,0.,0.));
#1377=DIRECTION('center_axis',(0.,0.,1.));
#1378=DIRECTION('ref_axis',(-1.,0.,0.));
#1379=DIRECTION('center_axis',(0.,0.,1.));
#1380=DIRECTION('ref_axis',(-1.,0.,0.));
#1381=DIRECTION('center_axis',(0.,0.,1.));
#1382=DIRECTION('ref_axis',(-1.,0.,0.));
#1383=DIRECTION('center_axis',(0.,0.,1.));
#1384=DIRECTION('ref_axis',(-1.,0.,0.));
#1385=DIRECTION('center_axis',(0.,0.,-1.));
#1386=DIRECTION('ref_axis',(-1.,0.,0.));
#1387=DIRECTION('',(-0.707106781186548,8.65956056235494E-17,0.707106781186547));
#1388=DIRECTION('center_axis',(0.,0.,1.));
#1389=DIRECTION('ref_axis',(1.,0.,0.));
#1390=DIRECTION('center_axis',(0.,0.,1.));
#1391=DIRECTION('ref_axis',(1.,0.,0.));
#1392=DIRECTION('center_axis',(0.,0.,-1.));
#1393=DIRECTION('ref_axis',(-1.,0.,0.));
#1394=DIRECTION('center_axis',(0.,0.,1.));
#1395=DIRECTION('ref_axis',(1.,0.,0.));
#1396=DIRECTION('',(0.,0.,-1.));
#1397=DIRECTION('center_axis',(0.,0.,-1.));
#1398=DIRECTION('ref_axis',(1.,0.,0.));
#1399=DIRECTION('center_axis',(0.,0.,1.));
#1400=DIRECTION('ref_axis',(0.920076007252249,0.391739889312742,0.));
#1401=DIRECTION('center_axis',(0.,0.,-1.));
#1402=DIRECTION('ref_axis',(-1.,0.,0.));
#1403=DIRECTION('center_axis',(0.,0.,1.));
#1404=DIRECTION('ref_axis',(-1.,0.,0.));
#1405=DIRECTION('center_axis',(0.,0.,1.));
#1406=DIRECTION('ref_axis',(1.,0.,0.));
#1407=DIRECTION('center_axis',(0.,0.,-1.));
#1408=DIRECTION('ref_axis',(-1.,0.,0.));
#1409=DIRECTION('center_axis',(0.,0.,-1.));
#1410=DIRECTION('ref_axis',(1.,0.,0.));
#1411=DIRECTION('center_axis',(0.,0.,1.));
#1412=DIRECTION('ref_axis',(1.,0.,0.));
#1413=DIRECTION('',(0.,0.,1.));
#1414=DIRECTION('center_axis',(0.,0.,-1.));
#1415=DIRECTION('ref_axis',(-1.,0.,0.));
#1416=DIRECTION('',(1.09651656753102E-16,-1.,0.));
#1417=DIRECTION('center_axis',(0.,0.,-1.));
#1418=DIRECTION('ref_axis',(1.,1.33226762955019E-15,0.));
#1419=DIRECTION('',(-1.,-2.19303313506204E-16,0.));
#1420=DIRECTION('center_axis',(0.,0.,-1.));
#1421=DIRECTION('ref_axis',(0.,-1.,0.));
#1422=DIRECTION('',(-2.19303313506204E-16,1.,0.));
#1423=DIRECTION('center_axis',(0.,0.,-1.));
#1424=DIRECTION('ref_axis',(-1.,8.88178419700126E-16,0.));
#1425=DIRECTION('',(1.,-1.09651656753102E-16,0.));
#1426=DIRECTION('center_axis',(0.,0.,-1.));
#1427=DIRECTION('ref_axis',(-1.33226762955019E-15,1.,0.));
#1428=DIRECTION('center_axis',(0.,0.,1.));
#1429=DIRECTION('ref_axis',(1.,0.,0.));
#1430=DIRECTION('center_axis',(0.,0.,1.));
#1431=DIRECTION('ref_axis',(1.,0.,0.));
#1432=DIRECTION('center_axis',(0.,0.,1.));
#1433=DIRECTION('ref_axis',(1.,0.,0.));
#1434=DIRECTION('center_axis',(0.,0.,1.));
#1435=DIRECTION('ref_axis',(1.,0.,0.));
#1436=DIRECTION('center_axis',(0.,0.,1.));
#1437=DIRECTION('ref_axis',(1.,0.,0.));
#1438=DIRECTION('center_axis',(0.,0.,1.));
#1439=DIRECTION('ref_axis',(1.,0.,0.));
#1440=DIRECTION('center_axis',(0.,0.,1.));
#1441=DIRECTION('ref_axis',(1.,0.,0.));
#1442=DIRECTION('center_axis',(0.,0.,1.));
#1443=DIRECTION('ref_axis',(1.,0.,0.));
#1444=DIRECTION('center_axis',(0.,0.,1.));
#1445=DIRECTION('ref_axis',(1.,0.,0.));
#1446=DIRECTION('center_axis',(0.,0.,1.));
#1447=DIRECTION('ref_axis',(1.,0.,0.));
#1448=DIRECTION('center_axis',(0.,0.,1.));
#1449=DIRECTION('ref_axis',(1.,0.,0.));
#1450=DIRECTION('center_axis',(0.,0.,1.));
#1451=DIRECTION('ref_axis',(1.,0.,0.));
#1452=DIRECTION('center_axis',(0.,0.,-1.));
#1453=DIRECTION('ref_axis',(1.,0.,0.));
#1454=DIRECTION('',(0.,0.,-1.));
#1455=DIRECTION('center_axis',(0.,0.,-1.));
#1456=DIRECTION('ref_axis',(1.,0.,0.));
#1457=DIRECTION('',(0.,0.,-1.));
#1458=DIRECTION('center_axis',(0.,0.,-1.));
#1459=DIRECTION('ref_axis',(1.,0.,0.));
#1460=DIRECTION('',(0.,0.,-1.));
#1461=DIRECTION('center_axis',(0.,0.,-1.));
#1462=DIRECTION('ref_axis',(1.,0.,0.));
#1463=DIRECTION('',(0.,0.,-1.));
#1464=DIRECTION('center_axis',(0.,0.,-1.));
#1465=DIRECTION('ref_axis',(1.,0.,0.));
#1466=DIRECTION('',(0.,0.,-1.));
#1467=DIRECTION('center_axis',(0.,0.,-1.));
#1468=DIRECTION('ref_axis',(1.,0.,0.));
#1469=DIRECTION('',(0.,0.,-1.));
#1470=DIRECTION('center_axis',(0.,0.,-1.));
#1471=DIRECTION('ref_axis',(1.,0.,0.));
#1472=DIRECTION('',(0.,0.,-1.));
#1473=DIRECTION('center_axis',(0.,0.,-1.));
#1474=DIRECTION('ref_axis',(1.,0.,0.));
#1475=DIRECTION('',(0.,0.,-1.));
#1476=DIRECTION('center_axis',(0.,0.,-1.));
#1477=DIRECTION('ref_axis',(1.,0.,0.));
#1478=DIRECTION('',(0.,0.,-1.));
#1479=DIRECTION('center_axis',(0.,0.,-1.));
#1480=DIRECTION('ref_axis',(1.,0.,0.));
#1481=DIRECTION('',(0.,0.,-1.));
#1482=DIRECTION('center_axis',(0.,0.,-1.));
#1483=DIRECTION('ref_axis',(1.,0.,0.));
#1484=DIRECTION('',(0.,0.,-1.));
#1485=DIRECTION('center_axis',(0.,0.,-1.));
#1486=DIRECTION('ref_axis',(1.,0.,0.));
#1487=DIRECTION('',(0.,0.,-1.));
#1488=DIRECTION('center_axis',(0.,0.,1.));
#1489=DIRECTION('ref_axis',(4.44089209850063E-16,1.,0.));
#1490=DIRECTION('',(0.,0.,-1.));
#1491=DIRECTION('',(0.,0.,1.));
#1492=DIRECTION('center_axis',(1.09651656753102E-16,1.,0.));
#1493=DIRECTION('ref_axis',(-1.,1.09651656753102E-16,0.));
#1494=DIRECTION('',(0.,0.,1.));
#1495=DIRECTION('center_axis',(0.,0.,1.));
#1496=DIRECTION('ref_axis',(1.,4.44089209850063E-16,0.));
#1497=DIRECTION('',(0.,0.,1.));
#1498=DIRECTION('center_axis',(1.,1.09651656753102E-16,0.));
#1499=DIRECTION('ref_axis',(-1.09651656753102E-16,1.,0.));
#1500=DIRECTION('',(0.,0.,1.));
#1501=DIRECTION('center_axis',(0.,0.,1.));
#1502=DIRECTION('ref_axis',(-3.10862446895045E-15,-1.,0.));
#1503=DIRECTION('',(0.,0.,1.));
#1504=DIRECTION('center_axis',(2.19303313506204E-16,-1.,0.));
#1505=DIRECTION('ref_axis',(1.,2.19303313506204E-16,0.));
#1506=DIRECTION('',(0.,0.,1.));
#1507=DIRECTION('center_axis',(0.,0.,1.));
#1508=DIRECTION('ref_axis',(-1.,4.44089209850063E-16,0.));
#1509=DIRECTION('',(0.,0.,1.));
#1510=DIRECTION('center_axis',(-1.,-2.19303313506204E-16,0.));
#1511=DIRECTION('ref_axis',(2.19303313506204E-16,-1.,0.));
#1512=CARTESIAN_POINT('',(0.,0.,0.));
#1513=CARTESIAN_POINT('Origin',(60.5,-30.,3.25));
#1514=CARTESIAN_POINT('',(60.5,-30.,5.4));
#1515=CARTESIAN_POINT('Origin',(60.5,-30.,3.25));
#1516=CARTESIAN_POINT('',(50.5,-30.,5.4));
#1517=CARTESIAN_POINT('',(60.5,-30.,5.4));
#1518=CARTESIAN_POINT('Origin',(50.5,-30.,3.25));
#1519=CARTESIAN_POINT('Origin',(50.5,-30.,3.25));
#1520=CARTESIAN_POINT('Origin',(60.5,30.,3.25));
#1521=CARTESIAN_POINT('',(60.5,30.,5.4));
#1522=CARTESIAN_POINT('Origin',(60.5,30.,3.25));
#1523=CARTESIAN_POINT('',(50.5,30.,5.4));
#1524=CARTESIAN_POINT('',(60.5,30.,5.4));
#1525=CARTESIAN_POINT('Origin',(50.5,30.,3.25));
#1526=CARTESIAN_POINT('Origin',(50.5,30.,3.25));
#1527=CARTESIAN_POINT('Origin',(-60.5,-30.,3.25));
#1528=CARTESIAN_POINT('',(-60.5,-30.,1.1));
#1529=CARTESIAN_POINT('Origin',(-60.5,-30.,3.25));
#1530=CARTESIAN_POINT('',(-50.5,-30.,1.1));
#1531=CARTESIAN_POINT('',(-60.5,-30.,1.1));
#1532=CARTESIAN_POINT('Origin',(-50.5,-30.,3.25));
#1533=CARTESIAN_POINT('Origin',(-50.5,-30.,3.25));
#1534=CARTESIAN_POINT('Origin',(-60.5,30.,3.25));
#1535=CARTESIAN_POINT('',(-60.5,30.,1.1));
#1536=CARTESIAN_POINT('Origin',(-60.5,30.,3.25));
#1537=CARTESIAN_POINT('',(-50.5,30.,1.1));
#1538=CARTESIAN_POINT('',(-60.5,30.,1.1));
#1539=CARTESIAN_POINT('Origin',(-50.5,30.,3.25));
#1540=CARTESIAN_POINT('Origin',(-50.5,30.,3.25));
#1541=CARTESIAN_POINT('Origin',(30.,-60.5,3.25));
#1542=CARTESIAN_POINT('',(27.85,-60.5,3.25));
#1543=CARTESIAN_POINT('Origin',(30.,-60.5,3.25));
#1544=CARTESIAN_POINT('',(27.85,-50.5,3.25));
#1545=CARTESIAN_POINT('',(27.85,-60.5,3.25));
#1546=CARTESIAN_POINT('Origin',(30.,-50.5,3.25));
#1547=CARTESIAN_POINT('Origin',(30.,-50.5,3.25));
#1548=CARTESIAN_POINT('Origin',(-30.,-60.5,3.25));
#1549=CARTESIAN_POINT('',(-32.15,-60.5,3.25));
#1550=CARTESIAN_POINT('Origin',(-30.,-60.5,3.25));
#1551=CARTESIAN_POINT('',(-32.15,-50.5,3.25));
#1552=CARTESIAN_POINT('',(-32.15,-60.5,3.25));
#1553=CARTESIAN_POINT('Origin',(-30.,-50.5,3.25));
#1554=CARTESIAN_POINT('Origin',(-30.,-50.5,3.25));
#1555=CARTESIAN_POINT('Origin',(30.,60.5,3.25));
#1556=CARTESIAN_POINT('',(27.85,60.5,3.25));
#1557=CARTESIAN_POINT('Origin',(30.,60.5,3.25));
#1558=CARTESIAN_POINT('',(27.85,50.5,3.25));
#1559=CARTESIAN_POINT('',(27.85,60.5,3.25));
#1560=CARTESIAN_POINT('Origin',(30.,50.5,3.25));
#1561=CARTESIAN_POINT('Origin',(30.,50.5,3.25));
#1562=CARTESIAN_POINT('Origin',(-30.,60.5,3.25));
#1563=CARTESIAN_POINT('',(-32.15,60.5,3.25));
#1564=CARTESIAN_POINT('Origin',(-30.,60.5,3.25));
#1565=CARTESIAN_POINT('',(-32.15,50.5,3.25));
#1566=CARTESIAN_POINT('',(-32.15,60.5,3.25));
#1567=CARTESIAN_POINT('Origin',(-30.,50.5,3.25));
#1568=CARTESIAN_POINT('Origin',(-30.,50.5,3.25));
#1569=CARTESIAN_POINT('Origin',(-52.9043704170062,-22.5250436354835,7.5));
#1570=CARTESIAN_POINT('',(-52.545334778347,-23.3503274716103,4.));
#1571=CARTESIAN_POINT('',(-52.5453347783469,-23.3503274716105,7.5));
#1572=CARTESIAN_POINT('',(-52.5453347783469,-23.3503274716105,7.5));
#1573=CARTESIAN_POINT('',(-52.0187221308075,-22.6851283416656,4.));
#1574=CARTESIAN_POINT('Origin',(-52.9043704170062,-22.5250436354835,4.));
#1575=CARTESIAN_POINT('',(-52.0187221308075,-22.6851283416655,0.));
#1576=CARTESIAN_POINT('',(-52.0187221308075,-22.6851283416655,7.5));
#1577=CARTESIAN_POINT('',(-52.4059443651611,-21.7756629105898,0.));
#1578=CARTESIAN_POINT('Origin',(-52.9043704170062,-22.5250436354835,0.));
#1579=CARTESIAN_POINT('',(-52.4059443651612,-21.7756629105897,4.));
#1580=CARTESIAN_POINT('',(-52.4059443651611,-21.7756629105898,7.5));
#1581=CARTESIAN_POINT('',(-53.2504449849508,-21.6942413765664,4.));
#1582=CARTESIAN_POINT('Origin',(-52.9043704170062,-22.5250436354835,4.));
#1583=CARTESIAN_POINT('',(-53.2504449849509,-21.6942413765663,7.5));
#1584=CARTESIAN_POINT('',(-53.2504449849509,-21.6942413765663,7.5));
#1585=CARTESIAN_POINT('Origin',(-52.9043704170062,-22.5250436354835,7.5));
#1586=CARTESIAN_POINT('Origin',(0.,-4.44089209850063E-15,7.5));
#1587=CARTESIAN_POINT('',(-60.5,40.5,7.5));
#1588=CARTESIAN_POINT('',(-60.5,-40.5,7.5));
#1589=CARTESIAN_POINT('',(-60.5,40.5,7.5));
#1590=CARTESIAN_POINT('',(-40.5,-60.5,7.5));
#1591=CARTESIAN_POINT('Origin',(-40.5,-40.5,7.5));
#1592=CARTESIAN_POINT('',(40.5,-60.5,7.5));
#1593=CARTESIAN_POINT('',(-40.5,-60.5,7.5));
#1594=CARTESIAN_POINT('',(60.5,-40.5,7.5));
#1595=CARTESIAN_POINT('Origin',(40.5000000000001,-40.5,7.5));
#1596=CARTESIAN_POINT('',(60.5,40.5,7.5));
#1597=CARTESIAN_POINT('',(60.5,-40.5,7.5));
#1598=CARTESIAN_POINT('',(40.5,60.5,7.5));
#1599=CARTESIAN_POINT('Origin',(40.5,40.5,7.5));
#1600=CARTESIAN_POINT('',(-40.5,60.5,7.5));
#1601=CARTESIAN_POINT('',(40.5,60.5,7.5));
#1602=CARTESIAN_POINT('Origin',(-40.5,40.5,7.5));
#1603=CARTESIAN_POINT('Origin',(0.,0.,7.5));
#1604=CARTESIAN_POINT('',(-39.425202160689,-53.249969989473,7.5));
#1605=CARTESIAN_POINT('Origin',(-37.275202160689,-53.249969989473,7.5));
#1606=CARTESIAN_POINT('',(-51.1566179115203,48.4933811853481,7.5));
#1607=CARTESIAN_POINT('Origin',(-48.5066179115203,48.4933811853481,7.5));
#1608=CARTESIAN_POINT('',(35.1252021606888,53.249969989473,7.5));
#1609=CARTESIAN_POINT('Origin',(37.2752021606888,53.249969989473,7.5));
#1610=CARTESIAN_POINT('',(51.0999699894729,-37.2752021606889,7.5));
#1611=CARTESIAN_POINT('Origin',(53.2499699894729,-37.2752021606889,7.5));
#1612=CARTESIAN_POINT('',(45.8433811853327,48.506617911508,7.5));
#1613=CARTESIAN_POINT('Origin',(48.4933811853327,48.506617911508,7.5));
#1614=CARTESIAN_POINT('',(-55.3999699894731,37.2752021606888,7.5));
#1615=CARTESIAN_POINT('Origin',(-53.2499699894731,37.2752021606888,7.5));
#1616=CARTESIAN_POINT('',(-51.1433811853626,-48.5066179115066,7.5));
#1617=CARTESIAN_POINT('Origin',(-48.4933811853626,-48.5066179115066,7.5));
#1618=CARTESIAN_POINT('',(-39.4397338706869,53.2397947765894,7.5));
#1619=CARTESIAN_POINT('Origin',(-37.2897338706869,53.2397947765894,7.5));
#1620=CARTESIAN_POINT('',(35.1397338706867,-53.2397947765894,7.5));
#1621=CARTESIAN_POINT('Origin',(37.2897338706867,-53.2397947765894,7.5));
#1622=CARTESIAN_POINT('',(45.8566179114982,-48.493381185349,7.5));
#1623=CARTESIAN_POINT('Origin',(48.5066179114982,-48.493381185349,7.5));
#1624=CARTESIAN_POINT('',(51.0897947765893,37.2897338706868,7.5));
#1625=CARTESIAN_POINT('Origin',(53.2397947765893,37.2897338706868,7.5));
#1626=CARTESIAN_POINT('',(-55.3897947765895,-37.2897338706868,7.5));
#1627=CARTESIAN_POINT('Origin',(-53.2397947765895,-37.2897338706868,7.5));
#1628=CARTESIAN_POINT('Origin',(0.,0.,0.));
#1629=CARTESIAN_POINT('Origin',(0.,0.,4.));
#1630=CARTESIAN_POINT('Origin',(16.4065756837168,28.6325736589404,-1.));
#1631=CARTESIAN_POINT('',(18.1565756837168,28.6325736589404,-1.));
#1632=CARTESIAN_POINT('Origin',(16.4065756837168,28.6325736589404,-1.));
#1633=CARTESIAN_POINT('',(18.1565756837168,28.6325736589404,0.5));
#1634=CARTESIAN_POINT('',(18.1565756837168,28.6325736589404,-1.));
#1635=CARTESIAN_POINT('',(14.667122105579,28.4407371412915,0.5));
#1636=CARTESIAN_POINT('Origin',(16.4065756837168,28.6325736589404,0.5));
#1637=CARTESIAN_POINT('',(17.1206182816198,27.0348743229012,0.5));
#1638=CARTESIAN_POINT('Ctrl Pts',(17.1206182816198,27.0348743229013,0.499999999999985));
#1639=CARTESIAN_POINT('Ctrl Pts',(16.9897016079208,26.9763651405487,0.619473837148048));
#1640=CARTESIAN_POINT('Ctrl Pts',(16.8494388002662,26.9331314526408,0.7307536469498));
#1641=CARTESIAN_POINT('Ctrl Pts',(16.5324573870722,26.8784308589638,0.94441055306277));
#1642=CARTESIAN_POINT('Ctrl Pts',(16.3321799970512,26.8720402284005,1.05465056483811));
#1643=CARTESIAN_POINT('Ctrl Pts',(15.9250422899929,26.9375401522648,1.20780620609497));
#1644=CARTESIAN_POINT('Ctrl Pts',(15.7180314298895,27.0101785804773,1.24999999999732));
#1645=CARTESIAN_POINT('Ctrl Pts',(15.3550285771501,27.2181806220617,1.24999999999732));
#1646=CARTESIAN_POINT('Ctrl Pts',(15.1876862015607,27.3600480488588,1.20780620609496));
#1647=CARTESIAN_POINT('Ctrl Pts',(14.9253091568099,27.6781826727568,1.0546505648381));
#1648=CARTESIAN_POINT('Ctrl Pts',(14.8295531447479,27.8542015901112,0.944410553062767));
#1649=CARTESIAN_POINT('Ctrl Pts',(14.7164651912998,28.1553335977822,0.730753646949798));
#1650=CARTESIAN_POINT('Ctrl Pts',(14.6828413327316,28.2982050194041,0.619473837148048));
#1651=CARTESIAN_POINT('Ctrl Pts',(14.667122105579,28.4407371412915,0.499999999999986));
#1652=CARTESIAN_POINT('Origin',(16.4065756837168,28.6325736589404,0.5));
#1653=CARTESIAN_POINT('Origin',(-16.4065756837168,-28.6325736589404,-1.));
#1654=CARTESIAN_POINT('',(-14.6565756837168,-28.6325736589404,-1.));
#1655=CARTESIAN_POINT('Origin',(-16.4065756837168,-28.6325736589404,-1.));
#1656=CARTESIAN_POINT('',(-14.6565756837168,-28.6325736589404,0.5));
#1657=CARTESIAN_POINT('',(-14.6565756837168,-28.6325736589404,-1.));
#1658=CARTESIAN_POINT('',(-14.667122105579,-28.4407371412915,0.5));
#1659=CARTESIAN_POINT('Origin',(-16.4065756837168,-28.6325736589404,0.5));
#1660=CARTESIAN_POINT('',(-17.1206182816198,-27.0348743229012,0.5));
#1661=CARTESIAN_POINT('Ctrl Pts',(-17.1206182816198,-27.0348743229013,0.499999999999988));
#1662=CARTESIAN_POINT('Ctrl Pts',(-16.9897016079208,-26.9763651405487,0.619473837148047));
#1663=CARTESIAN_POINT('Ctrl Pts',(-16.8494388002661,-26.9331314526408,0.730753646949795));
#1664=CARTESIAN_POINT('Ctrl Pts',(-16.5324573870722,-26.8784308589638,0.944410553062763));
#1665=CARTESIAN_POINT('Ctrl Pts',(-16.3321799970512,-26.8720402284005,1.0546505648381));
#1666=CARTESIAN_POINT('Ctrl Pts',(-15.9250422899929,-26.9375401522648,1.20780620609496));
#1667=CARTESIAN_POINT('Ctrl Pts',(-15.7180314298895,-27.0101785804773,1.24999999999731));
#1668=CARTESIAN_POINT('Ctrl Pts',(-15.3550285771501,-27.2181806220617,1.24999999999731));
#1669=CARTESIAN_POINT('Ctrl Pts',(-15.1876862015607,-27.3600480488588,1.20780620609496));
#1670=CARTESIAN_POINT('Ctrl Pts',(-14.9253091568099,-27.6781826727568,1.0546505648381));
#1671=CARTESIAN_POINT('Ctrl Pts',(-14.8295531447479,-27.8542015901112,0.944410553062766));
#1672=CARTESIAN_POINT('Ctrl Pts',(-14.7164651912998,-28.1553335977822,0.730753646949797));
#1673=CARTESIAN_POINT('Ctrl Pts',(-14.6828413327315,-28.2982050194041,0.619473837148048));
#1674=CARTESIAN_POINT('Ctrl Pts',(-14.667122105579,-28.4407371412915,0.499999999999985));
#1675=CARTESIAN_POINT('Origin',(-16.4065756837168,-28.6325736589404,0.5));
#1676=CARTESIAN_POINT('Origin',(-16.5932483225132,28.524798160681,-1.));
#1677=CARTESIAN_POINT('',(-14.8432483225132,28.524798160681,-1.));
#1678=CARTESIAN_POINT('Origin',(-16.5932483225132,28.524798160681,-1.));
#1679=CARTESIAN_POINT('',(-14.8432483225132,28.524798160681,0.5));
#1680=CARTESIAN_POINT('',(-14.8432483225132,28.524798160681,-1.));
#1681=CARTESIAN_POINT('',(-17.2968398139245,26.9224689144855,0.5));
#1682=CARTESIAN_POINT('Origin',(-16.5932483225132,28.524798160681,0.5));
#1683=CARTESIAN_POINT('',(-14.8525788109422,28.3443275218297,0.5));
#1684=CARTESIAN_POINT('Ctrl Pts',(-14.8525788109422,28.3443275218297,0.499999999999984));
#1685=CARTESIAN_POINT('Ctrl Pts',(-14.8673667095198,28.2016957654511,0.619473837148047));
#1686=CARTESIAN_POINT('Ctrl Pts',(-14.9000566413196,28.0586077668621,0.730753646949799));
#1687=CARTESIAN_POINT('Ctrl Pts',(-15.0111752441901,27.7567435136701,0.944410553062769));
#1688=CARTESIAN_POINT('Ctrl Pts',(-15.1057794907866,27.5801028908266,1.0546505648381));
#1689=CARTESIAN_POINT('Ctrl Pts',(-15.3660729423282,27.2602612556078,1.20780620609496));
#1690=CARTESIAN_POINT('Ctrl Pts',(-15.5324850965029,27.1173038060052,1.24999999999732));
#1691=CARTESIAN_POINT('Ctrl Pts',(-15.8941215749237,26.9069351346788,1.24999999999732));
#1692=CARTESIAN_POINT('Ctrl Pts',(-16.1006535582942,26.8329460996874,1.20780620609496));
#1693=CARTESIAN_POINT('Ctrl Pts',(-16.5073547467887,26.7647882255123,1.0546505648381));
#1694=CARTESIAN_POINT('Ctrl Pts',(-16.7076696067953,26.7698705451787,0.944410553062761));
#1695=CARTESIAN_POINT('Ctrl Pts',(-17.025001552055,26.8224995084662,0.730753646949792));
#1696=CARTESIAN_POINT('Ctrl Pts',(-17.1655437619385,26.8648161035837,0.619473837148042));
#1697=CARTESIAN_POINT('Ctrl Pts',(-17.2968398139245,26.9224689144855,0.499999999999981));
#1698=CARTESIAN_POINT('Origin',(-16.5932483225132,28.524798160681,0.5));
#1699=CARTESIAN_POINT('Origin',(32.99982400623,0.107775498259399,-1.));
#1700=CARTESIAN_POINT('',(34.74982400623,0.107775498259399,-1.));
#1701=CARTESIAN_POINT('Origin',(32.99982400623,0.107775498259399,-1.));
#1702=CARTESIAN_POINT('',(34.74982400623,0.107775498259399,0.5));
#1703=CARTESIAN_POINT('',(34.74982400623,0.107775498259399,-1.));
#1704=CARTESIAN_POINT('',(31.9639619195035,1.51826822680601,0.5));
#1705=CARTESIAN_POINT('Origin',(32.99982400623,0.107775498259399,0.5));
#1706=CARTESIAN_POINT('',(31.2531458899264,-2.22275440209497E-12,1.24685411007365));
#1707=CARTESIAN_POINT('Ctrl Pts',(31.2531458899264,-4.44128467041681E-12,
1.24685411007365));
#1708=CARTESIAN_POINT('Ctrl Pts',(31.2510412851477,0.0341085605644158,1.24895871485232));
#1709=CARTESIAN_POINT('Ctrl Pts',(31.2499440139376,0.0681725977524177,1.24999999999732));
#1710=CARTESIAN_POINT('Ctrl Pts',(31.2491501520738,0.311245487382834,1.24999999999732));
#1711=CARTESIAN_POINT('Ctrl Pts',(31.2883397598549,0.52710194917145,1.20780620609496));
#1712=CARTESIAN_POINT('Ctrl Pts',(31.4326639035987,0.913394447244512,1.0546505648381));
#1713=CARTESIAN_POINT('Ctrl Pts',(31.5372227515432,1.08433104493253,0.944410553062762));
#1714=CARTESIAN_POINT('Ctrl Pts',(31.7414667433549,1.33283408931603,0.730753646949793));
#1715=CARTESIAN_POINT('Ctrl Pts',(31.84838509467,1.43338891582036,0.619473837148044));
#1716=CARTESIAN_POINT('Ctrl Pts',(31.9639619195035,1.51826822680597,0.499999999999983));
#1717=CARTESIAN_POINT('',(31.973197092562,-1.30945319892844,0.5));
#1718=CARTESIAN_POINT('Ctrl Pts',(31.973197092562,-1.3094531989284,0.499999999999986));
#1719=CARTESIAN_POINT('Ctrl Pts',(31.8570683174405,-1.22533062490236,0.619473837148045));
#1720=CARTESIAN_POINT('Ctrl Pts',(31.7494954415857,-1.12547631422127,0.730753646949796));
#1721=CARTESIAN_POINT('Ctrl Pts',(31.5436326312623,-0.878312654706343,0.944410553062764));
#1722=CARTESIAN_POINT('Ctrl Pts',(31.4379594878378,-0.70806266242615,1.0546505648381));
#1723=CARTESIAN_POINT('Ctrl Pts',(31.3030094434282,-0.353933314102929,1.19540078020382));
#1724=CARTESIAN_POINT('Ctrl Pts',(31.2640328622728,-0.176441182431656,1.23596713772717));
#1725=CARTESIAN_POINT('Ctrl Pts',(31.2531458899264,-4.44142986277818E-12,
1.24685411007365));
#1726=CARTESIAN_POINT('Origin',(32.99982400623,0.107775498259399,0.5));
#1727=CARTESIAN_POINT('Origin',(16.5932483225132,-28.524798160681,-1.));
#1728=CARTESIAN_POINT('',(18.3432483225132,-28.524798160681,-1.));
#1729=CARTESIAN_POINT('Origin',(16.5932483225132,-28.524798160681,-1.));
#1730=CARTESIAN_POINT('',(18.3432483225132,-28.524798160681,0.5));
#1731=CARTESIAN_POINT('',(18.3432483225132,-28.524798160681,-1.));
#1732=CARTESIAN_POINT('',(17.2968398139245,-26.9224689144854,0.5));
#1733=CARTESIAN_POINT('Origin',(16.5932483225132,-28.524798160681,0.5));
#1734=CARTESIAN_POINT('',(14.8525788109422,-28.3443275218297,0.5));
#1735=CARTESIAN_POINT('Ctrl Pts',(14.8525788109422,-28.3443275218297,0.499999999999986));
#1736=CARTESIAN_POINT('Ctrl Pts',(14.8673667095198,-28.2016957654511,0.619473837148049));
#1737=CARTESIAN_POINT('Ctrl Pts',(14.9000566413196,-28.0586077668621,0.730753646949792));
#1738=CARTESIAN_POINT('Ctrl Pts',(15.0111752441901,-27.7567435136701,0.944410553062759));
#1739=CARTESIAN_POINT('Ctrl Pts',(15.1057794907866,-27.5801028908266,1.0546505648381));
#1740=CARTESIAN_POINT('Ctrl Pts',(15.3660729423282,-27.2602612556078,1.20780620609496));
#1741=CARTESIAN_POINT('Ctrl Pts',(15.5324850965029,-27.1173038060052,1.24999999999731));
#1742=CARTESIAN_POINT('Ctrl Pts',(15.8941215749237,-26.9069351346788,1.24999999999731));
#1743=CARTESIAN_POINT('Ctrl Pts',(16.1006535582942,-26.8329460996873,1.20780620609496));
#1744=CARTESIAN_POINT('Ctrl Pts',(16.5073547467887,-26.7647882255123,1.0546505648381));
#1745=CARTESIAN_POINT('Ctrl Pts',(16.7076696067953,-26.7698705451787,0.944410553062767));
#1746=CARTESIAN_POINT('Ctrl Pts',(17.025001552055,-26.8224995084662,0.730753646949797));
#1747=CARTESIAN_POINT('Ctrl Pts',(17.1655437619385,-26.8648161035837,0.619473837148047));
#1748=CARTESIAN_POINT('Ctrl Pts',(17.2968398139245,-26.9224689144855,0.499999999999985));
#1749=CARTESIAN_POINT('Origin',(16.5932483225132,-28.524798160681,0.5));
#1750=CARTESIAN_POINT('Origin',(-32.99982400623,-0.107775498259395,-1.));
#1751=CARTESIAN_POINT('',(-31.24982400623,-0.107775498259395,-1.));
#1752=CARTESIAN_POINT('Origin',(-32.99982400623,-0.107775498259395,-1.));
#1753=CARTESIAN_POINT('',(-31.24982400623,-0.107775462111902,1.24999014447226));
#1754=CARTESIAN_POINT('',(-31.24982400623,-0.107775498259395,-1.));
#1755=CARTESIAN_POINT('',(-31.973197092562,1.30945319892845,0.5));
#1756=CARTESIAN_POINT('Ctrl Pts',(-31.973197092562,1.30945319892841,0.499999999999986));
#1757=CARTESIAN_POINT('Ctrl Pts',(-31.8570683174405,1.22533062490236,0.619473837148045));
#1758=CARTESIAN_POINT('Ctrl Pts',(-31.7494954415857,1.12547631422127,0.730753646949795));
#1759=CARTESIAN_POINT('Ctrl Pts',(-31.5436326312623,0.878312654706347,0.944410553062764));
#1760=CARTESIAN_POINT('Ctrl Pts',(-31.4379594878378,0.708062662426154,1.0546505648381));
#1761=CARTESIAN_POINT('Ctrl Pts',(-31.2911152323211,0.322721103343002,1.20780620609496));
#1762=CARTESIAN_POINT('Ctrl Pts',(-31.2505165263924,0.107125225527918,1.24999999999732));
#1763=CARTESIAN_POINT('Ctrl Pts',(-31.2498271190383,-0.103964694900979,
1.24999999999732));
#1764=CARTESIAN_POINT('Ctrl Pts',(-31.2498240062693,-0.105869812786729,
1.2499967166624));
#1765=CARTESIAN_POINT('Ctrl Pts',(-31.24982400623,-0.107775462111902,1.24999014447226));
#1766=CARTESIAN_POINT('',(-31.9639619195035,-1.51826822680601,0.5));
#1767=CARTESIAN_POINT('Origin',(-32.99982400623,-0.107775498259395,0.5));
#1768=CARTESIAN_POINT('Ctrl Pts',(-31.24982400623,-0.107775462111902,1.24999014447226));
#1769=CARTESIAN_POINT('Ctrl Pts',(-31.249824001946,-0.315174377457166,1.24927486853562));
#1770=CARTESIAN_POINT('Ctrl Pts',(-31.2889967718211,-0.5288604823392,1.20710899018649));
#1771=CARTESIAN_POINT('Ctrl Pts',(-31.4326639035987,-0.913394447244505,
1.0546505648381));
#1772=CARTESIAN_POINT('Ctrl Pts',(-31.5372227515432,-1.08433104493252,0.944410553062763));
#1773=CARTESIAN_POINT('Ctrl Pts',(-31.7414667433549,-1.33283408931602,0.730753646949794));
#1774=CARTESIAN_POINT('Ctrl Pts',(-31.84838509467,-1.43338891582035,0.619473837148046));
#1775=CARTESIAN_POINT('Ctrl Pts',(-31.9639619195035,-1.51826822680597,0.499999999999985));
#1776=CARTESIAN_POINT('Origin',(0.,0.,0.5));
#1777=CARTESIAN_POINT('',(-35.,-4.28626379701574E-15,0.5));
#1778=CARTESIAN_POINT('Origin',(0.,0.,0.5));
#1779=CARTESIAN_POINT('Origin',(0.,0.,0.5));
#1780=CARTESIAN_POINT('Origin',(0.,0.,0.5));
#1781=CARTESIAN_POINT('Origin',(0.,0.,0.5));
#1782=CARTESIAN_POINT('Origin',(0.,0.,0.5));
#1783=CARTESIAN_POINT('Origin',(0.,0.,0.5));
#1784=CARTESIAN_POINT('Origin',(0.,0.,0.5));
#1785=CARTESIAN_POINT('Origin',(0.,0.,1.));
#1786=CARTESIAN_POINT('',(31.,0.,1.5));
#1787=CARTESIAN_POINT('',(31.5,-3.85763741731416E-15,1.));
#1788=CARTESIAN_POINT('Origin',(0.,0.,1.5));
#1789=CARTESIAN_POINT('Origin',(0.,0.,1.5));
#1790=CARTESIAN_POINT('',(-29.,3.55147571752732E-15,1.5));
#1791=CARTESIAN_POINT('Origin',(0.,0.,1.5));
#1792=CARTESIAN_POINT('Origin',(0.,0.,0.));
#1793=CARTESIAN_POINT('',(-35.,-4.28626379701574E-15,0.));
#1794=CARTESIAN_POINT('',(-35.,-4.28626379701574E-15,0.));
#1795=CARTESIAN_POINT('Origin',(0.,0.,0.));
#1796=CARTESIAN_POINT('Origin',(0.,0.,0.));
#1797=CARTESIAN_POINT('Origin',(0.,0.,4.));
#1798=CARTESIAN_POINT('Origin',(0.,0.,0.));
#1799=CARTESIAN_POINT('Origin',(0.,0.,4.));
#1800=CARTESIAN_POINT('Origin',(0.,-4.44089209850063E-15,0.));
#1801=CARTESIAN_POINT('Origin',(0.,0.,0.));
#1802=CARTESIAN_POINT('',(-29.,0.,-1.));
#1803=CARTESIAN_POINT('Origin',(0.,0.,-1.));
#1804=CARTESIAN_POINT('',(-29.,3.55147571752732E-15,0.));
#1805=CARTESIAN_POINT('Origin',(0.,-4.44089209850063E-15,-1.));
#1806=CARTESIAN_POINT('',(60.5,40.5,-1.));
#1807=CARTESIAN_POINT('',(60.5,-40.5,-1.));
#1808=CARTESIAN_POINT('',(60.5,40.5,-1.));
#1809=CARTESIAN_POINT('',(40.5,-60.5,-1.));
#1810=CARTESIAN_POINT('Origin',(40.5000000000001,-40.5,-1.));
#1811=CARTESIAN_POINT('',(-40.5,-60.5,-1.));
#1812=CARTESIAN_POINT('',(40.5,-60.5,-1.));
#1813=CARTESIAN_POINT('',(-60.5,-40.5,-1.));
#1814=CARTESIAN_POINT('Origin',(-40.5,-40.5,-1.));
#1815=CARTESIAN_POINT('',(-60.5,40.5,-1.));
#1816=CARTESIAN_POINT('',(-60.5,-40.5,-1.));
#1817=CARTESIAN_POINT('',(-40.5,60.5,-1.));
#1818=CARTESIAN_POINT('Origin',(-40.5,40.5,-1.));
#1819=CARTESIAN_POINT('',(40.5,60.5,-1.));
#1820=CARTESIAN_POINT('',(-40.5,60.5,-1.));
#1821=CARTESIAN_POINT('Origin',(40.5,40.5,-1.));
#1822=CARTESIAN_POINT('',(-39.425202160689,-53.249969989473,-1.));
#1823=CARTESIAN_POINT('Origin',(-37.275202160689,-53.249969989473,-1.));
#1824=CARTESIAN_POINT('',(-51.1566179115203,48.4933811853481,-1.));
#1825=CARTESIAN_POINT('Origin',(-48.5066179115203,48.4933811853481,-1.));
#1826=CARTESIAN_POINT('',(35.1252021606888,53.249969989473,-1.));
#1827=CARTESIAN_POINT('Origin',(37.2752021606888,53.249969989473,-1.));
#1828=CARTESIAN_POINT('',(51.0999699894729,-37.2752021606889,-1.));
#1829=CARTESIAN_POINT('Origin',(53.2499699894729,-37.2752021606889,-1.));
#1830=CARTESIAN_POINT('',(45.8433811853327,48.506617911508,-1.));
#1831=CARTESIAN_POINT('Origin',(48.4933811853327,48.506617911508,-1.));
#1832=CARTESIAN_POINT('',(-55.3999699894731,37.2752021606888,-1.));
#1833=CARTESIAN_POINT('Origin',(-53.2499699894731,37.2752021606888,-1.));
#1834=CARTESIAN_POINT('',(-51.1433811853626,-48.5066179115066,-1.));
#1835=CARTESIAN_POINT('Origin',(-48.4933811853626,-48.5066179115066,-1.));
#1836=CARTESIAN_POINT('',(-39.4397338706869,53.2397947765894,-1.));
#1837=CARTESIAN_POINT('Origin',(-37.2897338706869,53.2397947765894,-1.));
#1838=CARTESIAN_POINT('',(35.1397338706867,-53.2397947765893,-1.));
#1839=CARTESIAN_POINT('Origin',(37.2897338706867,-53.2397947765894,-1.));
#1840=CARTESIAN_POINT('',(45.8566179114982,-48.493381185349,-1.));
#1841=CARTESIAN_POINT('Origin',(48.5066179114982,-48.493381185349,-1.));
#1842=CARTESIAN_POINT('',(51.0897947765893,37.2897338706868,-1.));
#1843=CARTESIAN_POINT('Origin',(53.2397947765893,37.2897338706868,-1.));
#1844=CARTESIAN_POINT('',(-55.3897947765895,-37.2897338706868,-1.));
#1845=CARTESIAN_POINT('Origin',(-53.2397947765895,-37.2897338706868,-1.));
#1846=CARTESIAN_POINT('Origin',(-53.2397947765895,-37.2897338706868,7.5));
#1847=CARTESIAN_POINT('',(-55.3897947765895,-37.2897338706868,7.5));
#1848=CARTESIAN_POINT('Origin',(53.2397947765893,37.2897338706868,7.5));
#1849=CARTESIAN_POINT('',(51.0897947765893,37.2897338706868,7.5));
#1850=CARTESIAN_POINT('Origin',(48.5066179114982,-48.493381185349,7.5));
#1851=CARTESIAN_POINT('',(45.8566179114982,-48.493381185349,7.5));
#1852=CARTESIAN_POINT('Origin',(37.2897338706867,-53.2397947765894,7.5));
#1853=CARTESIAN_POINT('',(35.1397338706867,-53.2397947765894,7.5));
#1854=CARTESIAN_POINT('Origin',(-37.2897338706869,53.2397947765894,7.5));
#1855=CARTESIAN_POINT('',(-39.4397338706869,53.2397947765894,7.5));
#1856=CARTESIAN_POINT('Origin',(-48.4933811853626,-48.5066179115066,7.5));
#1857=CARTESIAN_POINT('',(-51.1433811853626,-48.5066179115066,7.5));
#1858=CARTESIAN_POINT('Origin',(-53.2499699894731,37.2752021606888,7.5));
#1859=CARTESIAN_POINT('',(-55.3999699894731,37.2752021606888,7.5));
#1860=CARTESIAN_POINT('Origin',(48.4933811853327,48.506617911508,7.5));
#1861=CARTESIAN_POINT('',(45.8433811853327,48.506617911508,7.5));
#1862=CARTESIAN_POINT('Origin',(53.2499699894729,-37.2752021606889,7.5));
#1863=CARTESIAN_POINT('',(51.0999699894729,-37.2752021606889,7.5));
#1864=CARTESIAN_POINT('Origin',(37.2752021606888,53.249969989473,7.5));
#1865=CARTESIAN_POINT('',(35.1252021606888,53.249969989473,7.5));
#1866=CARTESIAN_POINT('Origin',(-48.5066179115203,48.4933811853481,7.5));
#1867=CARTESIAN_POINT('',(-51.1566179115203,48.4933811853481,7.5));
#1868=CARTESIAN_POINT('Origin',(-37.275202160689,-53.249969989473,7.5));
#1869=CARTESIAN_POINT('',(-39.425202160689,-53.249969989473,7.5));
#1870=CARTESIAN_POINT('Origin',(-40.5,40.5,0.));
#1871=CARTESIAN_POINT('',(-60.5,40.5,0.));
#1872=CARTESIAN_POINT('',(-40.5,60.5,0.));
#1873=CARTESIAN_POINT('Origin',(40.5,60.5,0.));
#1874=CARTESIAN_POINT('',(40.5,60.5,0.));
#1875=CARTESIAN_POINT('Origin',(40.5,40.5,0.));
#1876=CARTESIAN_POINT('',(60.5,40.5,0.));
#1877=CARTESIAN_POINT('Origin',(60.5,-40.5,0.));
#1878=CARTESIAN_POINT('',(60.5,-40.5,0.));
#1879=CARTESIAN_POINT('Origin',(40.5000000000001,-40.5,0.));
#1880=CARTESIAN_POINT('',(40.5,-60.5,0.));
#1881=CARTESIAN_POINT('Origin',(-40.5,-60.5,0.));
#1882=CARTESIAN_POINT('',(-40.5,-60.5,0.));
#1883=CARTESIAN_POINT('Origin',(-40.5,-40.5,0.));
#1884=CARTESIAN_POINT('',(-60.5,-40.5,0.));
#1885=CARTESIAN_POINT('Origin',(-60.5,40.5,0.));
#1886=UNCERTAINTY_MEASURE_WITH_UNIT(LENGTH_MEASURE(0.01),#1890,
'DISTANCE_ACCURACY_VALUE',
'Maximum model space distance between geometric entities at asserted c
onnectivities');
#1887=UNCERTAINTY_MEASURE_WITH_UNIT(LENGTH_MEASURE(0.01),#1890,
'DISTANCE_ACCURACY_VALUE',
'Maximum model space distance between geometric entities at asserted c
onnectivities');
#1888=(
GEOMETRIC_REPRESENTATION_CONTEXT(3)
GLOBAL_UNCERTAINTY_ASSIGNED_CONTEXT((#1886))
GLOBAL_UNIT_ASSIGNED_CONTEXT((#1890,#1892,#1893))
REPRESENTATION_CONTEXT('','3D')
);
#1889=(
GEOMETRIC_REPRESENTATION_CONTEXT(3)
GLOBAL_UNCERTAINTY_ASSIGNED_CONTEXT((#1887))
GLOBAL_UNIT_ASSIGNED_CONTEXT((#1890,#1892,#1893))
REPRESENTATION_CONTEXT('','3D')
);
#1890=(
LENGTH_UNIT()
NAMED_UNIT(*)
SI_UNIT(.MILLI.,.METRE.)
);
#1891=(
LENGTH_UNIT()
NAMED_UNIT(*)
SI_UNIT(.CENTI.,.METRE.)
);
#1892=(
NAMED_UNIT(*)
PLANE_ANGLE_UNIT()
SI_UNIT($,.RADIAN.)
);
#1893=(
NAMED_UNIT(*)
SI_UNIT($,.STERADIAN.)
SOLID_ANGLE_UNIT()
);
#1894=SHAPE_DEFINITION_REPRESENTATION(#1895,#1896);
#1895=PRODUCT_DEFINITION_SHAPE('',$,#1898);
#1896=SHAPE_REPRESENTATION('',(#1046),#1888);
#1897=PRODUCT_DEFINITION_CONTEXT('part definition',#1902,'design');
#1898=PRODUCT_DEFINITION('stator_center_01_back_p',
'stator_center_01_back_p',#1899,#1897);
#1899=PRODUCT_DEFINITION_FORMATION('',$,#1904);
#1900=PRODUCT_RELATED_PRODUCT_CATEGORY('stator_center_01_back_p',
'stator_center_01_back_p',(#1904));
#1901=APPLICATION_PROTOCOL_DEFINITION('international standard',
'automotive_design',2009,#1902);
#1902=APPLICATION_CONTEXT(
'Core Data for Automotive Mechanical Design Process');
#1903=PRODUCT_CONTEXT('part definition',#1902,'mechanical');
#1904=PRODUCT('stator_center_01_back_p','stator_center_01_back_p',$,(#1903));
#1905=PRESENTATION_STYLE_ASSIGNMENT((#1906));
#1906=SURFACE_STYLE_USAGE(.BOTH.,#1909);
#1907=SURFACE_STYLE_RENDERING_WITH_PROPERTIES($,#1913,(#1908));
#1908=SURFACE_STYLE_TRANSPARENT(0.);
#1909=SURFACE_SIDE_STYLE('',(#1910,#1907));
#1910=SURFACE_STYLE_FILL_AREA(#1911);
#1911=FILL_AREA_STYLE('',(#1912));
#1912=FILL_AREA_STYLE_COLOUR('',#1913);
#1913=COLOUR_RGB('',0.,0.,0.);
ENDSEC;
END-ISO-10303-21;
