ISO-10303-21;
HEADER;
/* Generated by software containing ST-Developer
 * from STEP Tools, Inc. (www.steptools.com) 
 */

FILE_DESCRIPTION(
/* description */ (''),
/* implementation_level */ '2;1');

FILE_NAME(
/* name */ 'stator_center_00_p.stp',
/* time_stamp */ '2026-05-01T21:20:10-07:00',
/* author */ ('aaron'),
/* organization */ (''),
/* preprocessor_version */ 'ST-DEVELOPER v20.1',
/* originating_system */ 'Autodesk Inventor 2026',
/* authorisation */ '');

FILE_SCHEMA (('AUTOMOTIVE_DESIGN { 1 0 10303 214 3 1 1 }'));
ENDSEC;

DATA;
#10=MECHANICAL_DESIGN_GEOMETRIC_PRESENTATION_REPRESENTATION('',(#13),#1418);
#11=SHAPE_REPRESENTATION_RELATIONSHIP('SRR','None',#1425,#12);
#12=ADVANCED_BREP_SHAPE_REPRESENTATION('',(#14),#1417);
#13=STYLED_ITEM('',(#1434),#14);
#14=MANIFOLD_SOLID_BREP('Solid1',#821);
#15=FACE_BOUND('',#113,.T.);
#16=FACE_BOUND('',#114,.T.);
#17=FACE_BOUND('',#115,.T.);
#18=FACE_BOUND('',#116,.T.);
#19=FACE_BOUND('',#117,.T.);
#20=FACE_BOUND('',#118,.T.);
#21=FACE_BOUND('',#119,.T.);
#22=FACE_BOUND('',#120,.T.);
#23=FACE_BOUND('',#121,.T.);
#24=FACE_BOUND('',#122,.T.);
#25=FACE_BOUND('',#123,.T.);
#26=FACE_BOUND('',#124,.T.);
#27=FACE_BOUND('',#125,.T.);
#28=FACE_BOUND('',#148,.T.);
#29=FACE_BOUND('',#149,.T.);
#30=FACE_BOUND('',#150,.T.);
#31=FACE_BOUND('',#151,.T.);
#32=FACE_BOUND('',#152,.T.);
#33=FACE_BOUND('',#153,.T.);
#34=FACE_BOUND('',#154,.T.);
#35=FACE_BOUND('',#155,.T.);
#36=FACE_BOUND('',#156,.T.);
#37=FACE_BOUND('',#157,.T.);
#38=FACE_BOUND('',#158,.T.);
#39=FACE_BOUND('',#159,.T.);
#40=FACE_BOUND('',#160,.T.);
#41=PLANE('',#847);
#42=PLANE('',#851);
#43=PLANE('',#855);
#44=PLANE('',#859);
#45=PLANE('',#866);
#46=PLANE('',#870);
#47=PLANE('',#874);
#48=PLANE('',#878);
#49=PLANE('',#879);
#50=PLANE('',#925);
#51=PLANE('',#928);
#52=PLANE('',#931);
#53=PLANE('',#934);
#54=PLANE('',#935);
#55=FACE_OUTER_BOUND('',#95,.T.);
#56=FACE_OUTER_BOUND('',#96,.T.);
#57=FACE_OUTER_BOUND('',#97,.T.);
#58=FACE_OUTER_BOUND('',#98,.T.);
#59=FACE_OUTER_BOUND('',#99,.T.);
#60=FACE_OUTER_BOUND('',#100,.T.);
#61=FACE_OUTER_BOUND('',#101,.T.);
#62=FACE_OUTER_BOUND('',#102,.T.);
#63=FACE_OUTER_BOUND('',#103,.T.);
#64=FACE_OUTER_BOUND('',#104,.T.);
#65=FACE_OUTER_BOUND('',#105,.T.);
#66=FACE_OUTER_BOUND('',#106,.T.);
#67=FACE_OUTER_BOUND('',#107,.T.);
#68=FACE_OUTER_BOUND('',#108,.T.);
#69=FACE_OUTER_BOUND('',#109,.T.);
#70=FACE_OUTER_BOUND('',#110,.T.);
#71=FACE_OUTER_BOUND('',#111,.T.);
#72=FACE_OUTER_BOUND('',#112,.T.);
#73=FACE_OUTER_BOUND('',#126,.T.);
#74=FACE_OUTER_BOUND('',#127,.T.);
#75=FACE_OUTER_BOUND('',#128,.T.);
#76=FACE_OUTER_BOUND('',#129,.T.);
#77=FACE_OUTER_BOUND('',#130,.T.);
#78=FACE_OUTER_BOUND('',#131,.T.);
#79=FACE_OUTER_BOUND('',#132,.T.);
#80=FACE_OUTER_BOUND('',#133,.T.);
#81=FACE_OUTER_BOUND('',#134,.T.);
#82=FACE_OUTER_BOUND('',#135,.T.);
#83=FACE_OUTER_BOUND('',#136,.T.);
#84=FACE_OUTER_BOUND('',#137,.T.);
#85=FACE_OUTER_BOUND('',#138,.T.);
#86=FACE_OUTER_BOUND('',#139,.T.);
#87=FACE_OUTER_BOUND('',#140,.T.);
#88=FACE_OUTER_BOUND('',#141,.T.);
#89=FACE_OUTER_BOUND('',#142,.T.);
#90=FACE_OUTER_BOUND('',#143,.T.);
#91=FACE_OUTER_BOUND('',#144,.T.);
#92=FACE_OUTER_BOUND('',#145,.T.);
#93=FACE_OUTER_BOUND('',#146,.T.);
#94=FACE_OUTER_BOUND('',#147,.T.);
#95=EDGE_LOOP('',(#527,#528,#529,#530));
#96=EDGE_LOOP('',(#531,#532,#533,#534));
#97=EDGE_LOOP('',(#535,#536,#537,#538));
#98=EDGE_LOOP('',(#539,#540,#541,#542));
#99=EDGE_LOOP('',(#543,#544,#545,#546));
#100=EDGE_LOOP('',(#547,#548,#549,#550));
#101=EDGE_LOOP('',(#551,#552,#553,#554));
#102=EDGE_LOOP('',(#555,#556,#557,#558));
#103=EDGE_LOOP('',(#559,#560,#561,#562));
#104=EDGE_LOOP('',(#563,#564,#565,#566));
#105=EDGE_LOOP('',(#567,#568,#569,#570));
#106=EDGE_LOOP('',(#571,#572,#573,#574));
#107=EDGE_LOOP('',(#575,#576,#577,#578));
#108=EDGE_LOOP('',(#579,#580,#581,#582));
#109=EDGE_LOOP('',(#583,#584,#585,#586));
#110=EDGE_LOOP('',(#587,#588,#589,#590));
#111=EDGE_LOOP('',(#591,#592,#593,#594));
#112=EDGE_LOOP('',(#595,#596,#597,#598,#599,#600,#601,#602));
#113=EDGE_LOOP('',(#603));
#114=EDGE_LOOP('',(#604));
#115=EDGE_LOOP('',(#605));
#116=EDGE_LOOP('',(#606));
#117=EDGE_LOOP('',(#607));
#118=EDGE_LOOP('',(#608));
#119=EDGE_LOOP('',(#609));
#120=EDGE_LOOP('',(#610));
#121=EDGE_LOOP('',(#611));
#122=EDGE_LOOP('',(#612));
#123=EDGE_LOOP('',(#613));
#124=EDGE_LOOP('',(#614));
#125=EDGE_LOOP('',(#615,#616,#617,#618,#619,#620,#621,#622,#623,#624,#625,
#626,#627,#628,#629,#630,#631,#632));
#126=EDGE_LOOP('',(#633,#634,#635,#636));
#127=EDGE_LOOP('',(#637,#638,#639,#640));
#128=EDGE_LOOP('',(#641,#642,#643,#644));
#129=EDGE_LOOP('',(#645,#646,#647,#648));
#130=EDGE_LOOP('',(#649,#650,#651,#652));
#131=EDGE_LOOP('',(#653,#654,#655,#656));
#132=EDGE_LOOP('',(#657,#658,#659,#660));
#133=EDGE_LOOP('',(#661,#662,#663,#664));
#134=EDGE_LOOP('',(#665,#666,#667,#668));
#135=EDGE_LOOP('',(#669,#670,#671,#672));
#136=EDGE_LOOP('',(#673,#674,#675,#676));
#137=EDGE_LOOP('',(#677,#678,#679,#680));
#138=EDGE_LOOP('',(#681,#682,#683,#684));
#139=EDGE_LOOP('',(#685,#686,#687,#688));
#140=EDGE_LOOP('',(#689,#690,#691,#692));
#141=EDGE_LOOP('',(#693,#694,#695,#696));
#142=EDGE_LOOP('',(#697,#698,#699,#700));
#143=EDGE_LOOP('',(#701,#702,#703,#704));
#144=EDGE_LOOP('',(#705,#706,#707,#708));
#145=EDGE_LOOP('',(#709,#710,#711,#712));
#146=EDGE_LOOP('',(#713,#714,#715,#716));
#147=EDGE_LOOP('',(#717,#718,#719,#720,#721,#722,#723,#724));
#148=EDGE_LOOP('',(#725,#726,#727,#728,#729,#730,#731,#732,#733,#734,#735,
#736,#737,#738,#739,#740,#741,#742));
#149=EDGE_LOOP('',(#743));
#150=EDGE_LOOP('',(#744));
#151=EDGE_LOOP('',(#745));
#152=EDGE_LOOP('',(#746));
#153=EDGE_LOOP('',(#747));
#154=EDGE_LOOP('',(#748));
#155=EDGE_LOOP('',(#749));
#156=EDGE_LOOP('',(#750));
#157=EDGE_LOOP('',(#751));
#158=EDGE_LOOP('',(#752));
#159=EDGE_LOOP('',(#753));
#160=EDGE_LOOP('',(#754));
#161=LINE('',#1190,#223);
#162=LINE('',#1193,#224);
#163=LINE('',#1196,#225);
#164=LINE('',#1198,#226);
#165=LINE('',#1199,#227);
#166=LINE('',#1205,#228);
#167=LINE('',#1208,#229);
#168=LINE('',#1210,#230);
#169=LINE('',#1211,#231);
#170=LINE('',#1217,#232);
#171=LINE('',#1221,#233);
#172=LINE('',#1223,#234);
#173=LINE('',#1225,#235);
#174=LINE('',#1226,#236);
#175=LINE('',#1232,#237);
#176=LINE('',#1235,#238);
#177=LINE('',#1237,#239);
#178=LINE('',#1238,#240);
#179=LINE('',#1244,#241);
#180=LINE('',#1250,#242);
#181=LINE('',#1253,#243);
#182=LINE('',#1255,#244);
#183=LINE('',#1256,#245);
#184=LINE('',#1262,#246);
#185=LINE('',#1265,#247);
#186=LINE('',#1267,#248);
#187=LINE('',#1268,#249);
#188=LINE('',#1275,#250);
#189=LINE('',#1277,#251);
#190=LINE('',#1279,#252);
#191=LINE('',#1280,#253);
#192=LINE('',#1286,#254);
#193=LINE('',#1288,#255);
#194=LINE('',#1289,#256);
#195=LINE('',#1293,#257);
#196=LINE('',#1297,#258);
#197=LINE('',#1301,#259);
#198=LINE('',#1305,#260);
#199=LINE('',#1335,#261);
#200=LINE('',#1339,#262);
#201=LINE('',#1343,#263);
#202=LINE('',#1347,#264);
#203=LINE('',#1351,#265);
#204=LINE('',#1355,#266);
#205=LINE('',#1359,#267);
#206=LINE('',#1363,#268);
#207=LINE('',#1367,#269);
#208=LINE('',#1371,#270);
#209=LINE('',#1375,#271);
#210=LINE('',#1379,#272);
#211=LINE('',#1384,#273);
#212=LINE('',#1387,#274);
#213=LINE('',#1390,#275);
#214=LINE('',#1391,#276);
#215=LINE('',#1395,#277);
#216=LINE('',#1398,#278);
#217=LINE('',#1399,#279);
#218=LINE('',#1403,#280);
#219=LINE('',#1406,#281);
#220=LINE('',#1407,#282);
#221=LINE('',#1411,#283);
#222=LINE('',#1413,#284);
#223=VECTOR('',#942,10.);
#224=VECTOR('',#945,10.);
#225=VECTOR('',#948,10.);
#226=VECTOR('',#949,10.);
#227=VECTOR('',#950,10.);
#228=VECTOR('',#957,10.);
#229=VECTOR('',#960,10.);
#230=VECTOR('',#961,10.);
#231=VECTOR('',#962,10.);
#232=VECTOR('',#969,10.);
#233=VECTOR('',#972,10.);
#234=VECTOR('',#973,10.);
#235=VECTOR('',#974,10.);
#236=VECTOR('',#975,10.);
#237=VECTOR('',#982,10.);
#238=VECTOR('',#985,10.);
#239=VECTOR('',#986,10.);
#240=VECTOR('',#987,10.);
#241=VECTOR('',#994,10.);
#242=VECTOR('',#1001,10.);
#243=VECTOR('',#1004,10.);
#244=VECTOR('',#1005,10.);
#245=VECTOR('',#1006,10.);
#246=VECTOR('',#1013,10.);
#247=VECTOR('',#1016,10.);
#248=VECTOR('',#1017,10.);
#249=VECTOR('',#1018,10.);
#250=VECTOR('',#1027,10.);
#251=VECTOR('',#1028,10.);
#252=VECTOR('',#1029,10.);
#253=VECTOR('',#1030,10.);
#254=VECTOR('',#1037,10.);
#255=VECTOR('',#1040,10.);
#256=VECTOR('',#1041,10.);
#257=VECTOR('',#1044,10.);
#258=VECTOR('',#1047,10.);
#259=VECTOR('',#1050,10.);
#260=VECTOR('',#1053,10.);
#261=VECTOR('',#1086,3.);
#262=VECTOR('',#1091,3.);
#263=VECTOR('',#1096,3.);
#264=VECTOR('',#1101,3.);
#265=VECTOR('',#1106,3.);
#266=VECTOR('',#1111,3.);
#267=VECTOR('',#1116,3.);
#268=VECTOR('',#1121,3.);
#269=VECTOR('',#1126,2.65);
#270=VECTOR('',#1131,2.65);
#271=VECTOR('',#1136,2.65);
#272=VECTOR('',#1141,2.65);
#273=VECTOR('',#1148,10.);
#274=VECTOR('',#1151,10.);
#275=VECTOR('',#1154,10.);
#276=VECTOR('',#1155,10.);
#277=VECTOR('',#1160,10.);
#278=VECTOR('',#1163,10.);
#279=VECTOR('',#1164,10.);
#280=VECTOR('',#1169,10.);
#281=VECTOR('',#1172,10.);
#282=VECTOR('',#1173,10.);
#283=VECTOR('',#1178,10.);
#284=VECTOR('',#1181,10.);
#285=CIRCLE('',#845,57.55);
#286=CIRCLE('',#846,57.55);
#287=CIRCLE('',#849,57.75);
#288=CIRCLE('',#850,57.75);
#289=CIRCLE('',#853,57.55);
#290=CIRCLE('',#854,57.55);
#291=CIRCLE('',#857,57.75);
#292=CIRCLE('',#858,57.75);
#293=CIRCLE('',#861,0.950001887080399);
#294=CIRCLE('',#862,0.950001887080691);
#295=CIRCLE('',#864,57.55);
#296=CIRCLE('',#865,57.55);
#297=CIRCLE('',#868,57.75);
#298=CIRCLE('',#869,57.75);
#299=CIRCLE('',#872,57.55);
#300=CIRCLE('',#873,57.55);
#301=CIRCLE('',#876,57.75);
#302=CIRCLE('',#877,57.75);
#303=CIRCLE('',#880,20.);
#304=CIRCLE('',#881,20.);
#305=CIRCLE('',#882,19.9999999999999);
#306=CIRCLE('',#883,20.);
#307=CIRCLE('',#884,2.65);
#308=CIRCLE('',#885,2.65);
#309=CIRCLE('',#886,2.65);
#310=CIRCLE('',#887,2.65);
#311=CIRCLE('',#888,3.);
#312=CIRCLE('',#889,3.);
#313=CIRCLE('',#890,3.);
#314=CIRCLE('',#891,3.);
#315=CIRCLE('',#892,3.);
#316=CIRCLE('',#893,3.);
#317=CIRCLE('',#894,3.);
#318=CIRCLE('',#895,3.);
#319=CIRCLE('',#896,57.5);
#320=CIRCLE('',#898,3.);
#321=CIRCLE('',#900,3.);
#322=CIRCLE('',#902,3.);
#323=CIRCLE('',#904,3.);
#324=CIRCLE('',#906,3.);
#325=CIRCLE('',#908,3.);
#326=CIRCLE('',#910,3.);
#327=CIRCLE('',#912,3.);
#328=CIRCLE('',#914,2.65);
#329=CIRCLE('',#916,2.65);
#330=CIRCLE('',#918,2.65);
#331=CIRCLE('',#920,2.65);
#332=CIRCLE('',#922,57.5);
#333=CIRCLE('',#924,20.);
#334=CIRCLE('',#927,20.);
#335=CIRCLE('',#930,19.9999999999999);
#336=CIRCLE('',#933,20.);
#337=VERTEX_POINT('',#1186);
#338=VERTEX_POINT('',#1187);
#339=VERTEX_POINT('',#1189);
#340=VERTEX_POINT('',#1191);
#341=VERTEX_POINT('',#1195);
#342=VERTEX_POINT('',#1197);
#343=VERTEX_POINT('',#1201);
#344=VERTEX_POINT('',#1203);
#345=VERTEX_POINT('',#1207);
#346=VERTEX_POINT('',#1209);
#347=VERTEX_POINT('',#1213);
#348=VERTEX_POINT('',#1215);
#349=VERTEX_POINT('',#1219);
#350=VERTEX_POINT('',#1220);
#351=VERTEX_POINT('',#1222);
#352=VERTEX_POINT('',#1224);
#353=VERTEX_POINT('',#1228);
#354=VERTEX_POINT('',#1230);
#355=VERTEX_POINT('',#1234);
#356=VERTEX_POINT('',#1236);
#357=VERTEX_POINT('',#1240);
#358=VERTEX_POINT('',#1242);
#359=VERTEX_POINT('',#1246);
#360=VERTEX_POINT('',#1248);
#361=VERTEX_POINT('',#1252);
#362=VERTEX_POINT('',#1254);
#363=VERTEX_POINT('',#1258);
#364=VERTEX_POINT('',#1260);
#365=VERTEX_POINT('',#1264);
#366=VERTEX_POINT('',#1266);
#367=VERTEX_POINT('',#1273);
#368=VERTEX_POINT('',#1274);
#369=VERTEX_POINT('',#1276);
#370=VERTEX_POINT('',#1278);
#371=VERTEX_POINT('',#1282);
#372=VERTEX_POINT('',#1284);
#373=VERTEX_POINT('',#1291);
#374=VERTEX_POINT('',#1292);
#375=VERTEX_POINT('',#1294);
#376=VERTEX_POINT('',#1296);
#377=VERTEX_POINT('',#1298);
#378=VERTEX_POINT('',#1300);
#379=VERTEX_POINT('',#1302);
#380=VERTEX_POINT('',#1304);
#381=VERTEX_POINT('',#1307);
#382=VERTEX_POINT('',#1309);
#383=VERTEX_POINT('',#1311);
#384=VERTEX_POINT('',#1313);
#385=VERTEX_POINT('',#1315);
#386=VERTEX_POINT('',#1317);
#387=VERTEX_POINT('',#1319);
#388=VERTEX_POINT('',#1321);
#389=VERTEX_POINT('',#1323);
#390=VERTEX_POINT('',#1325);
#391=VERTEX_POINT('',#1327);
#392=VERTEX_POINT('',#1329);
#393=VERTEX_POINT('',#1333);
#394=VERTEX_POINT('',#1337);
#395=VERTEX_POINT('',#1341);
#396=VERTEX_POINT('',#1345);
#397=VERTEX_POINT('',#1349);
#398=VERTEX_POINT('',#1353);
#399=VERTEX_POINT('',#1357);
#400=VERTEX_POINT('',#1361);
#401=VERTEX_POINT('',#1365);
#402=VERTEX_POINT('',#1369);
#403=VERTEX_POINT('',#1373);
#404=VERTEX_POINT('',#1377);
#405=VERTEX_POINT('',#1383);
#406=VERTEX_POINT('',#1385);
#407=VERTEX_POINT('',#1389);
#408=VERTEX_POINT('',#1393);
#409=VERTEX_POINT('',#1397);
#410=VERTEX_POINT('',#1401);
#411=VERTEX_POINT('',#1405);
#412=VERTEX_POINT('',#1409);
#413=EDGE_CURVE('',#337,#338,#285,.T.);
#414=EDGE_CURVE('',#339,#337,#161,.T.);
#415=EDGE_CURVE('',#340,#339,#286,.T.);
#416=EDGE_CURVE('',#340,#338,#162,.T.);
#417=EDGE_CURVE('',#338,#341,#163,.T.);
#418=EDGE_CURVE('',#342,#340,#164,.T.);
#419=EDGE_CURVE('',#342,#341,#165,.T.);
#420=EDGE_CURVE('',#341,#343,#287,.T.);
#421=EDGE_CURVE('',#344,#342,#288,.T.);
#422=EDGE_CURVE('',#344,#343,#166,.T.);
#423=EDGE_CURVE('',#343,#345,#167,.T.);
#424=EDGE_CURVE('',#346,#344,#168,.T.);
#425=EDGE_CURVE('',#346,#345,#169,.T.);
#426=EDGE_CURVE('',#345,#347,#289,.T.);
#427=EDGE_CURVE('',#348,#346,#290,.T.);
#428=EDGE_CURVE('',#348,#347,#170,.T.);
#429=EDGE_CURVE('',#349,#350,#171,.T.);
#430=EDGE_CURVE('',#351,#349,#172,.T.);
#431=EDGE_CURVE('',#352,#351,#173,.T.);
#432=EDGE_CURVE('',#352,#350,#174,.T.);
#433=EDGE_CURVE('',#350,#353,#291,.T.);
#434=EDGE_CURVE('',#354,#352,#292,.T.);
#435=EDGE_CURVE('',#354,#353,#175,.T.);
#436=EDGE_CURVE('',#353,#355,#176,.T.);
#437=EDGE_CURVE('',#356,#354,#177,.T.);
#438=EDGE_CURVE('',#355,#356,#178,.T.);
#439=EDGE_CURVE('',#347,#357,#293,.T.);
#440=EDGE_CURVE('',#358,#348,#294,.T.);
#441=EDGE_CURVE('',#358,#357,#179,.T.);
#442=EDGE_CURVE('',#357,#359,#295,.T.);
#443=EDGE_CURVE('',#360,#358,#296,.T.);
#444=EDGE_CURVE('',#360,#359,#180,.T.);
#445=EDGE_CURVE('',#359,#361,#181,.T.);
#446=EDGE_CURVE('',#362,#360,#182,.T.);
#447=EDGE_CURVE('',#362,#361,#183,.T.);
#448=EDGE_CURVE('',#361,#363,#297,.T.);
#449=EDGE_CURVE('',#364,#362,#298,.T.);
#450=EDGE_CURVE('',#364,#363,#184,.T.);
#451=EDGE_CURVE('',#363,#365,#185,.T.);
#452=EDGE_CURVE('',#366,#364,#186,.T.);
#453=EDGE_CURVE('',#366,#365,#187,.T.);
#454=EDGE_CURVE('',#365,#349,#299,.T.);
#455=EDGE_CURVE('',#351,#366,#300,.T.);
#456=EDGE_CURVE('',#367,#368,#188,.T.);
#457=EDGE_CURVE('',#369,#367,#189,.T.);
#458=EDGE_CURVE('',#370,#369,#190,.T.);
#459=EDGE_CURVE('',#370,#368,#191,.T.);
#460=EDGE_CURVE('',#368,#371,#301,.T.);
#461=EDGE_CURVE('',#372,#370,#302,.T.);
#462=EDGE_CURVE('',#372,#371,#192,.T.);
#463=EDGE_CURVE('',#371,#337,#193,.T.);
#464=EDGE_CURVE('',#339,#372,#194,.T.);
#465=EDGE_CURVE('',#373,#374,#195,.T.);
#466=EDGE_CURVE('',#375,#373,#303,.T.);
#467=EDGE_CURVE('',#376,#375,#196,.T.);
#468=EDGE_CURVE('',#377,#376,#304,.T.);
#469=EDGE_CURVE('',#378,#377,#197,.T.);
#470=EDGE_CURVE('',#379,#378,#305,.T.);
#471=EDGE_CURVE('',#380,#379,#198,.T.);
#472=EDGE_CURVE('',#374,#380,#306,.T.);
#473=EDGE_CURVE('',#381,#381,#307,.T.);
#474=EDGE_CURVE('',#382,#382,#308,.T.);
#475=EDGE_CURVE('',#383,#383,#309,.T.);
#476=EDGE_CURVE('',#384,#384,#310,.T.);
#477=EDGE_CURVE('',#385,#385,#311,.T.);
#478=EDGE_CURVE('',#386,#386,#312,.T.);
#479=EDGE_CURVE('',#387,#387,#313,.T.);
#480=EDGE_CURVE('',#388,#388,#314,.T.);
#481=EDGE_CURVE('',#389,#389,#315,.T.);
#482=EDGE_CURVE('',#390,#390,#316,.T.);
#483=EDGE_CURVE('',#391,#391,#317,.T.);
#484=EDGE_CURVE('',#392,#392,#318,.T.);
#485=EDGE_CURVE('',#367,#355,#319,.T.);
#486=EDGE_CURVE('',#393,#393,#320,.T.);
#487=EDGE_CURVE('',#393,#392,#199,.T.);
#488=EDGE_CURVE('',#394,#394,#321,.T.);
#489=EDGE_CURVE('',#394,#391,#200,.T.);
#490=EDGE_CURVE('',#395,#395,#322,.T.);
#491=EDGE_CURVE('',#395,#390,#201,.T.);
#492=EDGE_CURVE('',#396,#396,#323,.T.);
#493=EDGE_CURVE('',#396,#389,#202,.T.);
#494=EDGE_CURVE('',#397,#397,#324,.T.);
#495=EDGE_CURVE('',#397,#388,#203,.T.);
#496=EDGE_CURVE('',#398,#398,#325,.T.);
#497=EDGE_CURVE('',#398,#387,#204,.T.);
#498=EDGE_CURVE('',#399,#399,#326,.T.);
#499=EDGE_CURVE('',#399,#386,#205,.T.);
#500=EDGE_CURVE('',#400,#400,#327,.T.);
#501=EDGE_CURVE('',#400,#385,#206,.T.);
#502=EDGE_CURVE('',#401,#401,#328,.T.);
#503=EDGE_CURVE('',#401,#384,#207,.T.);
#504=EDGE_CURVE('',#402,#402,#329,.T.);
#505=EDGE_CURVE('',#402,#383,#208,.T.);
#506=EDGE_CURVE('',#403,#403,#330,.T.);
#507=EDGE_CURVE('',#403,#382,#209,.T.);
#508=EDGE_CURVE('',#404,#404,#331,.T.);
#509=EDGE_CURVE('',#404,#381,#210,.T.);
#510=EDGE_CURVE('',#369,#356,#332,.T.);
#511=EDGE_CURVE('',#373,#405,#211,.T.);
#512=EDGE_CURVE('',#406,#405,#333,.T.);
#513=EDGE_CURVE('',#375,#406,#212,.T.);
#514=EDGE_CURVE('',#407,#406,#213,.T.);
#515=EDGE_CURVE('',#376,#407,#214,.T.);
#516=EDGE_CURVE('',#408,#407,#334,.T.);
#517=EDGE_CURVE('',#377,#408,#215,.T.);
#518=EDGE_CURVE('',#409,#408,#216,.T.);
#519=EDGE_CURVE('',#378,#409,#217,.T.);
#520=EDGE_CURVE('',#410,#409,#335,.T.);
#521=EDGE_CURVE('',#379,#410,#218,.T.);
#522=EDGE_CURVE('',#411,#410,#219,.T.);
#523=EDGE_CURVE('',#380,#411,#220,.T.);
#524=EDGE_CURVE('',#412,#411,#336,.T.);
#525=EDGE_CURVE('',#374,#412,#221,.T.);
#526=EDGE_CURVE('',#405,#412,#222,.T.);
#527=ORIENTED_EDGE('',*,*,#413,.F.);
#528=ORIENTED_EDGE('',*,*,#414,.F.);
#529=ORIENTED_EDGE('',*,*,#415,.F.);
#530=ORIENTED_EDGE('',*,*,#416,.T.);
#531=ORIENTED_EDGE('',*,*,#417,.F.);
#532=ORIENTED_EDGE('',*,*,#416,.F.);
#533=ORIENTED_EDGE('',*,*,#418,.F.);
#534=ORIENTED_EDGE('',*,*,#419,.T.);
#535=ORIENTED_EDGE('',*,*,#420,.F.);
#536=ORIENTED_EDGE('',*,*,#419,.F.);
#537=ORIENTED_EDGE('',*,*,#421,.F.);
#538=ORIENTED_EDGE('',*,*,#422,.T.);
#539=ORIENTED_EDGE('',*,*,#423,.F.);
#540=ORIENTED_EDGE('',*,*,#422,.F.);
#541=ORIENTED_EDGE('',*,*,#424,.F.);
#542=ORIENTED_EDGE('',*,*,#425,.T.);
#543=ORIENTED_EDGE('',*,*,#426,.F.);
#544=ORIENTED_EDGE('',*,*,#425,.F.);
#545=ORIENTED_EDGE('',*,*,#427,.F.);
#546=ORIENTED_EDGE('',*,*,#428,.T.);
#547=ORIENTED_EDGE('',*,*,#429,.F.);
#548=ORIENTED_EDGE('',*,*,#430,.F.);
#549=ORIENTED_EDGE('',*,*,#431,.F.);
#550=ORIENTED_EDGE('',*,*,#432,.T.);
#551=ORIENTED_EDGE('',*,*,#433,.F.);
#552=ORIENTED_EDGE('',*,*,#432,.F.);
#553=ORIENTED_EDGE('',*,*,#434,.F.);
#554=ORIENTED_EDGE('',*,*,#435,.T.);
#555=ORIENTED_EDGE('',*,*,#436,.F.);
#556=ORIENTED_EDGE('',*,*,#435,.F.);
#557=ORIENTED_EDGE('',*,*,#437,.F.);
#558=ORIENTED_EDGE('',*,*,#438,.F.);
#559=ORIENTED_EDGE('',*,*,#439,.F.);
#560=ORIENTED_EDGE('',*,*,#428,.F.);
#561=ORIENTED_EDGE('',*,*,#440,.F.);
#562=ORIENTED_EDGE('',*,*,#441,.T.);
#563=ORIENTED_EDGE('',*,*,#442,.F.);
#564=ORIENTED_EDGE('',*,*,#441,.F.);
#565=ORIENTED_EDGE('',*,*,#443,.F.);
#566=ORIENTED_EDGE('',*,*,#444,.T.);
#567=ORIENTED_EDGE('',*,*,#445,.F.);
#568=ORIENTED_EDGE('',*,*,#444,.F.);
#569=ORIENTED_EDGE('',*,*,#446,.F.);
#570=ORIENTED_EDGE('',*,*,#447,.T.);
#571=ORIENTED_EDGE('',*,*,#448,.F.);
#572=ORIENTED_EDGE('',*,*,#447,.F.);
#573=ORIENTED_EDGE('',*,*,#449,.F.);
#574=ORIENTED_EDGE('',*,*,#450,.T.);
#575=ORIENTED_EDGE('',*,*,#451,.F.);
#576=ORIENTED_EDGE('',*,*,#450,.F.);
#577=ORIENTED_EDGE('',*,*,#452,.F.);
#578=ORIENTED_EDGE('',*,*,#453,.T.);
#579=ORIENTED_EDGE('',*,*,#454,.F.);
#580=ORIENTED_EDGE('',*,*,#453,.F.);
#581=ORIENTED_EDGE('',*,*,#455,.F.);
#582=ORIENTED_EDGE('',*,*,#430,.T.);
#583=ORIENTED_EDGE('',*,*,#456,.F.);
#584=ORIENTED_EDGE('',*,*,#457,.F.);
#585=ORIENTED_EDGE('',*,*,#458,.F.);
#586=ORIENTED_EDGE('',*,*,#459,.T.);
#587=ORIENTED_EDGE('',*,*,#460,.F.);
#588=ORIENTED_EDGE('',*,*,#459,.F.);
#589=ORIENTED_EDGE('',*,*,#461,.F.);
#590=ORIENTED_EDGE('',*,*,#462,.T.);
#591=ORIENTED_EDGE('',*,*,#463,.F.);
#592=ORIENTED_EDGE('',*,*,#462,.F.);
#593=ORIENTED_EDGE('',*,*,#464,.F.);
#594=ORIENTED_EDGE('',*,*,#414,.T.);
#595=ORIENTED_EDGE('',*,*,#465,.F.);
#596=ORIENTED_EDGE('',*,*,#466,.F.);
#597=ORIENTED_EDGE('',*,*,#467,.F.);
#598=ORIENTED_EDGE('',*,*,#468,.F.);
#599=ORIENTED_EDGE('',*,*,#469,.F.);
#600=ORIENTED_EDGE('',*,*,#470,.F.);
#601=ORIENTED_EDGE('',*,*,#471,.F.);
#602=ORIENTED_EDGE('',*,*,#472,.F.);
#603=ORIENTED_EDGE('',*,*,#473,.T.);
#604=ORIENTED_EDGE('',*,*,#474,.T.);
#605=ORIENTED_EDGE('',*,*,#475,.T.);
#606=ORIENTED_EDGE('',*,*,#476,.T.);
#607=ORIENTED_EDGE('',*,*,#477,.T.);
#608=ORIENTED_EDGE('',*,*,#478,.T.);
#609=ORIENTED_EDGE('',*,*,#479,.T.);
#610=ORIENTED_EDGE('',*,*,#480,.T.);
#611=ORIENTED_EDGE('',*,*,#481,.T.);
#612=ORIENTED_EDGE('',*,*,#482,.T.);
#613=ORIENTED_EDGE('',*,*,#483,.T.);
#614=ORIENTED_EDGE('',*,*,#484,.T.);
#615=ORIENTED_EDGE('',*,*,#456,.T.);
#616=ORIENTED_EDGE('',*,*,#460,.T.);
#617=ORIENTED_EDGE('',*,*,#463,.T.);
#618=ORIENTED_EDGE('',*,*,#413,.T.);
#619=ORIENTED_EDGE('',*,*,#417,.T.);
#620=ORIENTED_EDGE('',*,*,#420,.T.);
#621=ORIENTED_EDGE('',*,*,#423,.T.);
#622=ORIENTED_EDGE('',*,*,#426,.T.);
#623=ORIENTED_EDGE('',*,*,#439,.T.);
#624=ORIENTED_EDGE('',*,*,#442,.T.);
#625=ORIENTED_EDGE('',*,*,#445,.T.);
#626=ORIENTED_EDGE('',*,*,#448,.T.);
#627=ORIENTED_EDGE('',*,*,#451,.T.);
#628=ORIENTED_EDGE('',*,*,#454,.T.);
#629=ORIENTED_EDGE('',*,*,#429,.T.);
#630=ORIENTED_EDGE('',*,*,#433,.T.);
#631=ORIENTED_EDGE('',*,*,#436,.T.);
#632=ORIENTED_EDGE('',*,*,#485,.F.);
#633=ORIENTED_EDGE('',*,*,#486,.F.);
#634=ORIENTED_EDGE('',*,*,#487,.T.);
#635=ORIENTED_EDGE('',*,*,#484,.F.);
#636=ORIENTED_EDGE('',*,*,#487,.F.);
#637=ORIENTED_EDGE('',*,*,#488,.F.);
#638=ORIENTED_EDGE('',*,*,#489,.T.);
#639=ORIENTED_EDGE('',*,*,#483,.F.);
#640=ORIENTED_EDGE('',*,*,#489,.F.);
#641=ORIENTED_EDGE('',*,*,#490,.F.);
#642=ORIENTED_EDGE('',*,*,#491,.T.);
#643=ORIENTED_EDGE('',*,*,#482,.F.);
#644=ORIENTED_EDGE('',*,*,#491,.F.);
#645=ORIENTED_EDGE('',*,*,#492,.F.);
#646=ORIENTED_EDGE('',*,*,#493,.T.);
#647=ORIENTED_EDGE('',*,*,#481,.F.);
#648=ORIENTED_EDGE('',*,*,#493,.F.);
#649=ORIENTED_EDGE('',*,*,#494,.F.);
#650=ORIENTED_EDGE('',*,*,#495,.T.);
#651=ORIENTED_EDGE('',*,*,#480,.F.);
#652=ORIENTED_EDGE('',*,*,#495,.F.);
#653=ORIENTED_EDGE('',*,*,#496,.F.);
#654=ORIENTED_EDGE('',*,*,#497,.T.);
#655=ORIENTED_EDGE('',*,*,#479,.F.);
#656=ORIENTED_EDGE('',*,*,#497,.F.);
#657=ORIENTED_EDGE('',*,*,#498,.F.);
#658=ORIENTED_EDGE('',*,*,#499,.T.);
#659=ORIENTED_EDGE('',*,*,#478,.F.);
#660=ORIENTED_EDGE('',*,*,#499,.F.);
#661=ORIENTED_EDGE('',*,*,#500,.F.);
#662=ORIENTED_EDGE('',*,*,#501,.T.);
#663=ORIENTED_EDGE('',*,*,#477,.F.);
#664=ORIENTED_EDGE('',*,*,#501,.F.);
#665=ORIENTED_EDGE('',*,*,#502,.F.);
#666=ORIENTED_EDGE('',*,*,#503,.T.);
#667=ORIENTED_EDGE('',*,*,#476,.F.);
#668=ORIENTED_EDGE('',*,*,#503,.F.);
#669=ORIENTED_EDGE('',*,*,#504,.F.);
#670=ORIENTED_EDGE('',*,*,#505,.T.);
#671=ORIENTED_EDGE('',*,*,#475,.F.);
#672=ORIENTED_EDGE('',*,*,#505,.F.);
#673=ORIENTED_EDGE('',*,*,#506,.F.);
#674=ORIENTED_EDGE('',*,*,#507,.T.);
#675=ORIENTED_EDGE('',*,*,#474,.F.);
#676=ORIENTED_EDGE('',*,*,#507,.F.);
#677=ORIENTED_EDGE('',*,*,#508,.F.);
#678=ORIENTED_EDGE('',*,*,#509,.T.);
#679=ORIENTED_EDGE('',*,*,#473,.F.);
#680=ORIENTED_EDGE('',*,*,#509,.F.);
#681=ORIENTED_EDGE('',*,*,#457,.T.);
#682=ORIENTED_EDGE('',*,*,#485,.T.);
#683=ORIENTED_EDGE('',*,*,#438,.T.);
#684=ORIENTED_EDGE('',*,*,#510,.F.);
#685=ORIENTED_EDGE('',*,*,#466,.T.);
#686=ORIENTED_EDGE('',*,*,#511,.T.);
#687=ORIENTED_EDGE('',*,*,#512,.F.);
#688=ORIENTED_EDGE('',*,*,#513,.F.);
#689=ORIENTED_EDGE('',*,*,#467,.T.);
#690=ORIENTED_EDGE('',*,*,#513,.T.);
#691=ORIENTED_EDGE('',*,*,#514,.F.);
#692=ORIENTED_EDGE('',*,*,#515,.F.);
#693=ORIENTED_EDGE('',*,*,#468,.T.);
#694=ORIENTED_EDGE('',*,*,#515,.T.);
#695=ORIENTED_EDGE('',*,*,#516,.F.);
#696=ORIENTED_EDGE('',*,*,#517,.F.);
#697=ORIENTED_EDGE('',*,*,#469,.T.);
#698=ORIENTED_EDGE('',*,*,#517,.T.);
#699=ORIENTED_EDGE('',*,*,#518,.F.);
#700=ORIENTED_EDGE('',*,*,#519,.F.);
#701=ORIENTED_EDGE('',*,*,#470,.T.);
#702=ORIENTED_EDGE('',*,*,#519,.T.);
#703=ORIENTED_EDGE('',*,*,#520,.F.);
#704=ORIENTED_EDGE('',*,*,#521,.F.);
#705=ORIENTED_EDGE('',*,*,#471,.T.);
#706=ORIENTED_EDGE('',*,*,#521,.T.);
#707=ORIENTED_EDGE('',*,*,#522,.F.);
#708=ORIENTED_EDGE('',*,*,#523,.F.);
#709=ORIENTED_EDGE('',*,*,#472,.T.);
#710=ORIENTED_EDGE('',*,*,#523,.T.);
#711=ORIENTED_EDGE('',*,*,#524,.F.);
#712=ORIENTED_EDGE('',*,*,#525,.F.);
#713=ORIENTED_EDGE('',*,*,#465,.T.);
#714=ORIENTED_EDGE('',*,*,#525,.T.);
#715=ORIENTED_EDGE('',*,*,#526,.F.);
#716=ORIENTED_EDGE('',*,*,#511,.F.);
#717=ORIENTED_EDGE('',*,*,#526,.T.);
#718=ORIENTED_EDGE('',*,*,#524,.T.);
#719=ORIENTED_EDGE('',*,*,#522,.T.);
#720=ORIENTED_EDGE('',*,*,#520,.T.);
#721=ORIENTED_EDGE('',*,*,#518,.T.);
#722=ORIENTED_EDGE('',*,*,#516,.T.);
#723=ORIENTED_EDGE('',*,*,#514,.T.);
#724=ORIENTED_EDGE('',*,*,#512,.T.);
#725=ORIENTED_EDGE('',*,*,#458,.T.);
#726=ORIENTED_EDGE('',*,*,#510,.T.);
#727=ORIENTED_EDGE('',*,*,#437,.T.);
#728=ORIENTED_EDGE('',*,*,#434,.T.);
#729=ORIENTED_EDGE('',*,*,#431,.T.);
#730=ORIENTED_EDGE('',*,*,#455,.T.);
#731=ORIENTED_EDGE('',*,*,#452,.T.);
#732=ORIENTED_EDGE('',*,*,#449,.T.);
#733=ORIENTED_EDGE('',*,*,#446,.T.);
#734=ORIENTED_EDGE('',*,*,#443,.T.);
#735=ORIENTED_EDGE('',*,*,#440,.T.);
#736=ORIENTED_EDGE('',*,*,#427,.T.);
#737=ORIENTED_EDGE('',*,*,#424,.T.);
#738=ORIENTED_EDGE('',*,*,#421,.T.);
#739=ORIENTED_EDGE('',*,*,#418,.T.);
#740=ORIENTED_EDGE('',*,*,#415,.T.);
#741=ORIENTED_EDGE('',*,*,#464,.T.);
#742=ORIENTED_EDGE('',*,*,#461,.T.);
#743=ORIENTED_EDGE('',*,*,#486,.T.);
#744=ORIENTED_EDGE('',*,*,#488,.T.);
#745=ORIENTED_EDGE('',*,*,#490,.T.);
#746=ORIENTED_EDGE('',*,*,#492,.T.);
#747=ORIENTED_EDGE('',*,*,#494,.T.);
#748=ORIENTED_EDGE('',*,*,#496,.T.);
#749=ORIENTED_EDGE('',*,*,#498,.T.);
#750=ORIENTED_EDGE('',*,*,#500,.T.);
#751=ORIENTED_EDGE('',*,*,#502,.T.);
#752=ORIENTED_EDGE('',*,*,#504,.T.);
#753=ORIENTED_EDGE('',*,*,#506,.T.);
#754=ORIENTED_EDGE('',*,*,#508,.T.);
#755=CYLINDRICAL_SURFACE('',#844,57.55);
#756=CYLINDRICAL_SURFACE('',#848,57.75);
#757=CYLINDRICAL_SURFACE('',#852,57.55);
#758=CYLINDRICAL_SURFACE('',#856,57.75);
#759=CYLINDRICAL_SURFACE('',#860,0.950001887080399);
#760=CYLINDRICAL_SURFACE('',#863,57.55);
#761=CYLINDRICAL_SURFACE('',#867,57.75);
#762=CYLINDRICAL_SURFACE('',#871,57.55);
#763=CYLINDRICAL_SURFACE('',#875,57.75);
#764=CYLINDRICAL_SURFACE('',#897,3.);
#765=CYLINDRICAL_SURFACE('',#899,3.);
#766=CYLINDRICAL_SURFACE('',#901,3.);
#767=CYLINDRICAL_SURFACE('',#903,3.);
#768=CYLINDRICAL_SURFACE('',#905,3.);
#769=CYLINDRICAL_SURFACE('',#907,3.);
#770=CYLINDRICAL_SURFACE('',#909,3.);
#771=CYLINDRICAL_SURFACE('',#911,3.);
#772=CYLINDRICAL_SURFACE('',#913,2.65);
#773=CYLINDRICAL_SURFACE('',#915,2.65);
#774=CYLINDRICAL_SURFACE('',#917,2.65);
#775=CYLINDRICAL_SURFACE('',#919,2.65);
#776=CYLINDRICAL_SURFACE('',#921,57.5);
#777=CYLINDRICAL_SURFACE('',#923,20.);
#778=CYLINDRICAL_SURFACE('',#926,20.);
#779=CYLINDRICAL_SURFACE('',#929,19.9999999999999);
#780=CYLINDRICAL_SURFACE('',#932,20.);
#781=ADVANCED_FACE('',(#55),#755,.F.);
#782=ADVANCED_FACE('',(#56),#41,.F.);
#783=ADVANCED_FACE('',(#57),#756,.F.);
#784=ADVANCED_FACE('',(#58),#42,.F.);
#785=ADVANCED_FACE('',(#59),#757,.F.);
#786=ADVANCED_FACE('',(#60),#43,.F.);
#787=ADVANCED_FACE('',(#61),#758,.F.);
#788=ADVANCED_FACE('',(#62),#44,.F.);
#789=ADVANCED_FACE('',(#63),#759,.T.);
#790=ADVANCED_FACE('',(#64),#760,.F.);
#791=ADVANCED_FACE('',(#65),#45,.F.);
#792=ADVANCED_FACE('',(#66),#761,.F.);
#793=ADVANCED_FACE('',(#67),#46,.F.);
#794=ADVANCED_FACE('',(#68),#762,.F.);
#795=ADVANCED_FACE('',(#69),#47,.F.);
#796=ADVANCED_FACE('',(#70),#763,.F.);
#797=ADVANCED_FACE('',(#71),#48,.F.);
#798=ADVANCED_FACE('',(#72,#15,#16,#17,#18,#19,#20,#21,#22,#23,#24,#25,
#26,#27),#49,.F.);
#799=ADVANCED_FACE('',(#73),#764,.F.);
#800=ADVANCED_FACE('',(#74),#765,.F.);
#801=ADVANCED_FACE('',(#75),#766,.F.);
#802=ADVANCED_FACE('',(#76),#767,.F.);
#803=ADVANCED_FACE('',(#77),#768,.F.);
#804=ADVANCED_FACE('',(#78),#769,.F.);
#805=ADVANCED_FACE('',(#79),#770,.F.);
#806=ADVANCED_FACE('',(#80),#771,.F.);
#807=ADVANCED_FACE('',(#81),#772,.F.);
#808=ADVANCED_FACE('',(#82),#773,.F.);
#809=ADVANCED_FACE('',(#83),#774,.F.);
#810=ADVANCED_FACE('',(#84),#775,.F.);
#811=ADVANCED_FACE('',(#85),#776,.F.);
#812=ADVANCED_FACE('',(#86),#777,.T.);
#813=ADVANCED_FACE('',(#87),#50,.T.);
#814=ADVANCED_FACE('',(#88),#778,.T.);
#815=ADVANCED_FACE('',(#89),#51,.T.);
#816=ADVANCED_FACE('',(#90),#779,.T.);
#817=ADVANCED_FACE('',(#91),#52,.T.);
#818=ADVANCED_FACE('',(#92),#780,.T.);
#819=ADVANCED_FACE('',(#93),#53,.T.);
#820=ADVANCED_FACE('',(#94,#28,#29,#30,#31,#32,#33,#34,#35,#36,#37,#38,
#39,#40),#54,.T.);
#821=CLOSED_SHELL('',(#781,#782,#783,#784,#785,#786,#787,#788,#789,#790,
#791,#792,#793,#794,#795,#796,#797,#798,#799,#800,#801,#802,#803,#804,#805,
#806,#807,#808,#809,#810,#811,#812,#813,#814,#815,#816,#817,#818,#819,#820));
#822=DERIVED_UNIT_ELEMENT(#825,1.);
#823=DERIVED_UNIT_ELEMENT(#1420,-3.);
#824=DIMENSIONAL_EXPONENTS(0.,1.,0.,0.,0.,0.,0.);
#825=(
CONVERSION_BASED_UNIT('gram',#827)
MASS_UNIT()
NAMED_UNIT(#824)
);
#826=(
MASS_UNIT()
NAMED_UNIT(*)
SI_UNIT(.KILO.,.GRAM.)
);
#827=MASS_MEASURE_WITH_UNIT(MASS_MEASURE(0.001),#826);
#828=DERIVED_UNIT((#822,#823));
#829=MEASURE_REPRESENTATION_ITEM('density measure',
POSITIVE_RATIO_MEASURE(1.1),#828);
#830=PROPERTY_DEFINITION_REPRESENTATION(#835,#832);
#831=PROPERTY_DEFINITION_REPRESENTATION(#836,#833);
#832=REPRESENTATION('material name',(#834),#1417);
#833=REPRESENTATION('density',(#829),#1417);
#834=DESCRIPTIVE_REPRESENTATION_ITEM('PC/ABS Plastic','PC/ABS Plastic');
#835=PROPERTY_DEFINITION('material property','material name',#1427);
#836=PROPERTY_DEFINITION('material property','density of part',#1427);
#837=DATE_TIME_ROLE('creation_date');
#838=APPLIED_DATE_AND_TIME_ASSIGNMENT(#839,#837,(#1427));
#839=DATE_AND_TIME(#840,#841);
#840=CALENDAR_DATE(2026,12,4);
#841=LOCAL_TIME(0,0,0.,#842);
#842=COORDINATED_UNIVERSAL_TIME_OFFSET(0,0,.BEHIND.);
#843=AXIS2_PLACEMENT_3D('',#1184,#936,#937);
#844=AXIS2_PLACEMENT_3D('',#1185,#938,#939);
#845=AXIS2_PLACEMENT_3D('',#1188,#940,#941);
#846=AXIS2_PLACEMENT_3D('',#1192,#943,#944);
#847=AXIS2_PLACEMENT_3D('',#1194,#946,#947);
#848=AXIS2_PLACEMENT_3D('',#1200,#951,#952);
#849=AXIS2_PLACEMENT_3D('',#1202,#953,#954);
#850=AXIS2_PLACEMENT_3D('',#1204,#955,#956);
#851=AXIS2_PLACEMENT_3D('',#1206,#958,#959);
#852=AXIS2_PLACEMENT_3D('',#1212,#963,#964);
#853=AXIS2_PLACEMENT_3D('',#1214,#965,#966);
#854=AXIS2_PLACEMENT_3D('',#1216,#967,#968);
#855=AXIS2_PLACEMENT_3D('',#1218,#970,#971);
#856=AXIS2_PLACEMENT_3D('',#1227,#976,#977);
#857=AXIS2_PLACEMENT_3D('',#1229,#978,#979);
#858=AXIS2_PLACEMENT_3D('',#1231,#980,#981);
#859=AXIS2_PLACEMENT_3D('',#1233,#983,#984);
#860=AXIS2_PLACEMENT_3D('',#1239,#988,#989);
#861=AXIS2_PLACEMENT_3D('',#1241,#990,#991);
#862=AXIS2_PLACEMENT_3D('',#1243,#992,#993);
#863=AXIS2_PLACEMENT_3D('',#1245,#995,#996);
#864=AXIS2_PLACEMENT_3D('',#1247,#997,#998);
#865=AXIS2_PLACEMENT_3D('',#1249,#999,#1000);
#866=AXIS2_PLACEMENT_3D('',#1251,#1002,#1003);
#867=AXIS2_PLACEMENT_3D('',#1257,#1007,#1008);
#868=AXIS2_PLACEMENT_3D('',#1259,#1009,#1010);
#869=AXIS2_PLACEMENT_3D('',#1261,#1011,#1012);
#870=AXIS2_PLACEMENT_3D('',#1263,#1014,#1015);
#871=AXIS2_PLACEMENT_3D('',#1269,#1019,#1020);
#872=AXIS2_PLACEMENT_3D('',#1270,#1021,#1022);
#873=AXIS2_PLACEMENT_3D('',#1271,#1023,#1024);
#874=AXIS2_PLACEMENT_3D('',#1272,#1025,#1026);
#875=AXIS2_PLACEMENT_3D('',#1281,#1031,#1032);
#876=AXIS2_PLACEMENT_3D('',#1283,#1033,#1034);
#877=AXIS2_PLACEMENT_3D('',#1285,#1035,#1036);
#878=AXIS2_PLACEMENT_3D('',#1287,#1038,#1039);
#879=AXIS2_PLACEMENT_3D('',#1290,#1042,#1043);
#880=AXIS2_PLACEMENT_3D('',#1295,#1045,#1046);
#881=AXIS2_PLACEMENT_3D('',#1299,#1048,#1049);
#882=AXIS2_PLACEMENT_3D('',#1303,#1051,#1052);
#883=AXIS2_PLACEMENT_3D('',#1306,#1054,#1055);
#884=AXIS2_PLACEMENT_3D('',#1308,#1056,#1057);
#885=AXIS2_PLACEMENT_3D('',#1310,#1058,#1059);
#886=AXIS2_PLACEMENT_3D('',#1312,#1060,#1061);
#887=AXIS2_PLACEMENT_3D('',#1314,#1062,#1063);
#888=AXIS2_PLACEMENT_3D('',#1316,#1064,#1065);
#889=AXIS2_PLACEMENT_3D('',#1318,#1066,#1067);
#890=AXIS2_PLACEMENT_3D('',#1320,#1068,#1069);
#891=AXIS2_PLACEMENT_3D('',#1322,#1070,#1071);
#892=AXIS2_PLACEMENT_3D('',#1324,#1072,#1073);
#893=AXIS2_PLACEMENT_3D('',#1326,#1074,#1075);
#894=AXIS2_PLACEMENT_3D('',#1328,#1076,#1077);
#895=AXIS2_PLACEMENT_3D('',#1330,#1078,#1079);
#896=AXIS2_PLACEMENT_3D('',#1331,#1080,#1081);
#897=AXIS2_PLACEMENT_3D('',#1332,#1082,#1083);
#898=AXIS2_PLACEMENT_3D('',#1334,#1084,#1085);
#899=AXIS2_PLACEMENT_3D('',#1336,#1087,#1088);
#900=AXIS2_PLACEMENT_3D('',#1338,#1089,#1090);
#901=AXIS2_PLACEMENT_3D('',#1340,#1092,#1093);
#902=AXIS2_PLACEMENT_3D('',#1342,#1094,#1095);
#903=AXIS2_PLACEMENT_3D('',#1344,#1097,#1098);
#904=AXIS2_PLACEMENT_3D('',#1346,#1099,#1100);
#905=AXIS2_PLACEMENT_3D('',#1348,#1102,#1103);
#906=AXIS2_PLACEMENT_3D('',#1350,#1104,#1105);
#907=AXIS2_PLACEMENT_3D('',#1352,#1107,#1108);
#908=AXIS2_PLACEMENT_3D('',#1354,#1109,#1110);
#909=AXIS2_PLACEMENT_3D('',#1356,#1112,#1113);
#910=AXIS2_PLACEMENT_3D('',#1358,#1114,#1115);
#911=AXIS2_PLACEMENT_3D('',#1360,#1117,#1118);
#912=AXIS2_PLACEMENT_3D('',#1362,#1119,#1120);
#913=AXIS2_PLACEMENT_3D('',#1364,#1122,#1123);
#914=AXIS2_PLACEMENT_3D('',#1366,#1124,#1125);
#915=AXIS2_PLACEMENT_3D('',#1368,#1127,#1128);
#916=AXIS2_PLACEMENT_3D('',#1370,#1129,#1130);
#917=AXIS2_PLACEMENT_3D('',#1372,#1132,#1133);
#918=AXIS2_PLACEMENT_3D('',#1374,#1134,#1135);
#919=AXIS2_PLACEMENT_3D('',#1376,#1137,#1138);
#920=AXIS2_PLACEMENT_3D('',#1378,#1139,#1140);
#921=AXIS2_PLACEMENT_3D('',#1380,#1142,#1143);
#922=AXIS2_PLACEMENT_3D('',#1381,#1144,#1145);
#923=AXIS2_PLACEMENT_3D('',#1382,#1146,#1147);
#924=AXIS2_PLACEMENT_3D('',#1386,#1149,#1150);
#925=AXIS2_PLACEMENT_3D('',#1388,#1152,#1153);
#926=AXIS2_PLACEMENT_3D('',#1392,#1156,#1157);
#927=AXIS2_PLACEMENT_3D('',#1394,#1158,#1159);
#928=AXIS2_PLACEMENT_3D('',#1396,#1161,#1162);
#929=AXIS2_PLACEMENT_3D('',#1400,#1165,#1166);
#930=AXIS2_PLACEMENT_3D('',#1402,#1167,#1168);
#931=AXIS2_PLACEMENT_3D('',#1404,#1170,#1171);
#932=AXIS2_PLACEMENT_3D('',#1408,#1174,#1175);
#933=AXIS2_PLACEMENT_3D('',#1410,#1176,#1177);
#934=AXIS2_PLACEMENT_3D('',#1412,#1179,#1180);
#935=AXIS2_PLACEMENT_3D('',#1414,#1182,#1183);
#936=DIRECTION('axis',(0.,0.,1.));
#937=DIRECTION('refdir',(1.,0.,0.));
#938=DIRECTION('center_axis',(0.,0.,-1.));
#939=DIRECTION('ref_axis',(1.,0.,0.));
#940=DIRECTION('center_axis',(0.,0.,1.));
#941=DIRECTION('ref_axis',(1.,0.,0.));
#942=DIRECTION('',(0.,0.,-1.));
#943=DIRECTION('center_axis',(0.,0.,-1.));
#944=DIRECTION('ref_axis',(1.,0.,0.));
#945=DIRECTION('',(0.,0.,-1.));
#946=DIRECTION('center_axis',(0.825719202269996,0.564081376223858,0.));
#947=DIRECTION('ref_axis',(0.564081376223858,-0.825719202269996,0.));
#948=DIRECTION('',(-0.564081376223858,0.825719202269996,0.));
#949=DIRECTION('',(0.564081376223858,-0.825719202269996,0.));
#950=DIRECTION('',(0.,0.,-1.));
#951=DIRECTION('center_axis',(0.,0.,-1.));
#952=DIRECTION('ref_axis',(-0.937702678058893,0.347438753683551,0.));
#953=DIRECTION('center_axis',(0.,0.,1.));
#954=DIRECTION('ref_axis',(1.,0.,0.));
#955=DIRECTION('center_axis',(0.,0.,-1.));
#956=DIRECTION('ref_axis',(1.,0.,0.));
#957=DIRECTION('',(0.,0.,-1.));
#958=DIRECTION('center_axis',(0.258819045102521,-0.965925826289068,0.));
#959=DIRECTION('ref_axis',(-0.965925826289068,-0.258819045102521,0.));
#960=DIRECTION('',(0.965925826289068,0.258819045102521,0.));
#961=DIRECTION('',(-0.965925826289068,-0.258819045102521,0.));
#962=DIRECTION('',(0.,0.,-1.));
#963=DIRECTION('center_axis',(0.,0.,-1.));
#964=DIRECTION('ref_axis',(1.,0.,0.));
#965=DIRECTION('center_axis',(0.,0.,1.));
#966=DIRECTION('ref_axis',(1.,0.,0.));
#967=DIRECTION('center_axis',(0.,0.,-1.));
#968=DIRECTION('ref_axis',(1.,0.,0.));
#969=DIRECTION('',(0.,0.,-1.));
#970=DIRECTION('center_axis',(-0.825719202269996,-0.564081376223858,0.));
#971=DIRECTION('ref_axis',(-0.564081376223858,0.825719202269996,0.));
#972=DIRECTION('',(0.564081376223858,-0.825719202269996,0.));
#973=DIRECTION('',(0.,0.,-1.));
#974=DIRECTION('',(-0.564081376223858,0.825719202269996,0.));
#975=DIRECTION('',(0.,0.,-1.));
#976=DIRECTION('center_axis',(0.,0.,-1.));
#977=DIRECTION('ref_axis',(1.,0.,0.));
#978=DIRECTION('center_axis',(0.,0.,1.));
#979=DIRECTION('ref_axis',(1.,0.,0.));
#980=DIRECTION('center_axis',(0.,0.,-1.));
#981=DIRECTION('ref_axis',(1.,0.,0.));
#982=DIRECTION('',(0.,0.,-1.));
#983=DIRECTION('center_axis',(-0.258819045102521,0.965925826289068,0.));
#984=DIRECTION('ref_axis',(0.965925826289068,0.258819045102521,0.));
#985=DIRECTION('',(-0.965925826289068,-0.258819045102521,0.));
#986=DIRECTION('',(0.965925826289068,0.258819045102521,0.));
#987=DIRECTION('',(0.,0.,1.));
#988=DIRECTION('center_axis',(0.,0.,-1.));
#989=DIRECTION('ref_axis',(0.920129455939592,0.391614331086478,0.));
#990=DIRECTION('center_axis',(0.,0.,-1.));
#991=DIRECTION('ref_axis',(-1.,0.,0.));
#992=DIRECTION('center_axis',(0.,0.,1.));
#993=DIRECTION('ref_axis',(1.,0.,0.));
#994=DIRECTION('',(0.,0.,-1.));
#995=DIRECTION('center_axis',(0.,0.,-1.));
#996=DIRECTION('ref_axis',(1.,0.,0.));
#997=DIRECTION('center_axis',(0.,0.,1.));
#998=DIRECTION('ref_axis',(1.,0.,0.));
#999=DIRECTION('center_axis',(0.,0.,-1.));
#1000=DIRECTION('ref_axis',(1.,0.,0.));
#1001=DIRECTION('',(0.,0.,-1.));
#1002=DIRECTION('center_axis',(-0.515038074910055,0.857167300702112,0.));
#1003=DIRECTION('ref_axis',(0.857167300702111,0.515038074910055,0.));
#1004=DIRECTION('',(-0.857167300702111,-0.515038074910055,0.));
#1005=DIRECTION('',(0.857167300702111,0.515038074910055,0.));
#1006=DIRECTION('',(0.,0.,-1.));
#1007=DIRECTION('center_axis',(0.,0.,-1.));
#1008=DIRECTION('ref_axis',(1.,0.,0.));
#1009=DIRECTION('center_axis',(0.,0.,1.));
#1010=DIRECTION('ref_axis',(1.,0.,0.));
#1011=DIRECTION('center_axis',(0.,0.,-1.));
#1012=DIRECTION('ref_axis',(1.,0.,0.));
#1013=DIRECTION('',(0.,0.,-1.));
#1014=DIRECTION('center_axis',(0.863686138533545,0.504030013099432,0.));
#1015=DIRECTION('ref_axis',(0.504030013099432,-0.863686138533545,0.));
#1016=DIRECTION('',(-0.504030013099432,0.863686138533545,0.));
#1017=DIRECTION('',(0.504030013099432,-0.863686138533545,0.));
#1018=DIRECTION('',(0.,0.,-1.));
#1019=DIRECTION('center_axis',(0.,0.,-1.));
#1020=DIRECTION('ref_axis',(1.,0.,0.));
#1021=DIRECTION('center_axis',(0.,0.,1.));
#1022=DIRECTION('ref_axis',(1.,0.,0.));
#1023=DIRECTION('center_axis',(0.,0.,-1.));
#1024=DIRECTION('ref_axis',(1.,0.,0.));
#1025=DIRECTION('center_axis',(0.515038074910055,-0.857167300702112,0.));
#1026=DIRECTION('ref_axis',(-0.857167300702111,-0.515038074910055,0.));
#1027=DIRECTION('',(0.857167300702111,0.515038074910055,0.));
#1028=DIRECTION('',(0.,0.,-1.));
#1029=DIRECTION('',(-0.857167300702111,-0.515038074910055,0.));
#1030=DIRECTION('',(0.,0.,-1.));
#1031=DIRECTION('center_axis',(0.,0.,-1.));
#1032=DIRECTION('ref_axis',(1.,0.,0.));
#1033=DIRECTION('center_axis',(0.,0.,1.));
#1034=DIRECTION('ref_axis',(1.,0.,0.));
#1035=DIRECTION('center_axis',(0.,0.,-1.));
#1036=DIRECTION('ref_axis',(1.,0.,0.));
#1037=DIRECTION('',(0.,0.,-1.));
#1038=DIRECTION('center_axis',(-0.863686138533545,-0.504030013099432,0.));
#1039=DIRECTION('ref_axis',(-0.504030013099432,0.863686138533545,0.));
#1040=DIRECTION('',(0.504030013099432,-0.863686138533545,0.));
#1041=DIRECTION('',(-0.504030013099432,0.863686138533545,0.));
#1042=DIRECTION('center_axis',(0.,0.,1.));
#1043=DIRECTION('ref_axis',(1.,0.,0.));
#1044=DIRECTION('',(2.19303313506204E-16,-1.,0.));
#1045=DIRECTION('center_axis',(0.,0.,1.));
#1046=DIRECTION('ref_axis',(4.44089209850063E-16,1.,0.));
#1047=DIRECTION('',(-1.,1.09651656753102E-16,0.));
#1048=DIRECTION('center_axis',(0.,0.,1.));
#1049=DIRECTION('ref_axis',(1.,4.44089209850063E-16,0.));
#1050=DIRECTION('',(-1.09651656753102E-16,1.,0.));
#1051=DIRECTION('center_axis',(0.,0.,1.));
#1052=DIRECTION('ref_axis',(-3.10862446895045E-15,-1.,0.));
#1053=DIRECTION('',(1.,2.19303313506204E-16,0.));
#1054=DIRECTION('center_axis',(0.,0.,1.));
#1055=DIRECTION('ref_axis',(-1.,4.44089209850063E-16,0.));
#1056=DIRECTION('center_axis',(0.,0.,1.));
#1057=DIRECTION('ref_axis',(1.,0.,0.));
#1058=DIRECTION('center_axis',(0.,0.,1.));
#1059=DIRECTION('ref_axis',(1.,0.,0.));
#1060=DIRECTION('center_axis',(0.,0.,1.));
#1061=DIRECTION('ref_axis',(1.,0.,0.));
#1062=DIRECTION('center_axis',(0.,0.,1.));
#1063=DIRECTION('ref_axis',(1.,0.,0.));
#1064=DIRECTION('center_axis',(0.,0.,1.));
#1065=DIRECTION('ref_axis',(1.,0.,0.));
#1066=DIRECTION('center_axis',(0.,0.,1.));
#1067=DIRECTION('ref_axis',(1.,0.,0.));
#1068=DIRECTION('center_axis',(0.,0.,1.));
#1069=DIRECTION('ref_axis',(1.,0.,0.));
#1070=DIRECTION('center_axis',(0.,0.,1.));
#1071=DIRECTION('ref_axis',(1.,0.,0.));
#1072=DIRECTION('center_axis',(0.,0.,1.));
#1073=DIRECTION('ref_axis',(1.,0.,0.));
#1074=DIRECTION('center_axis',(0.,0.,1.));
#1075=DIRECTION('ref_axis',(1.,0.,0.));
#1076=DIRECTION('center_axis',(0.,0.,1.));
#1077=DIRECTION('ref_axis',(1.,0.,0.));
#1078=DIRECTION('center_axis',(0.,0.,1.));
#1079=DIRECTION('ref_axis',(1.,0.,0.));
#1080=DIRECTION('center_axis',(0.,0.,-1.));
#1081=DIRECTION('ref_axis',(-1.,0.,0.));
#1082=DIRECTION('center_axis',(0.,0.,-1.));
#1083=DIRECTION('ref_axis',(1.,0.,0.));
#1084=DIRECTION('center_axis',(0.,0.,-1.));
#1085=DIRECTION('ref_axis',(1.,0.,0.));
#1086=DIRECTION('',(0.,0.,-1.));
#1087=DIRECTION('center_axis',(0.,0.,-1.));
#1088=DIRECTION('ref_axis',(1.,0.,0.));
#1089=DIRECTION('center_axis',(0.,0.,-1.));
#1090=DIRECTION('ref_axis',(1.,0.,0.));
#1091=DIRECTION('',(0.,0.,-1.));
#1092=DIRECTION('center_axis',(0.,0.,-1.));
#1093=DIRECTION('ref_axis',(1.,0.,0.));
#1094=DIRECTION('center_axis',(0.,0.,-1.));
#1095=DIRECTION('ref_axis',(1.,0.,0.));
#1096=DIRECTION('',(0.,0.,-1.));
#1097=DIRECTION('center_axis',(0.,0.,-1.));
#1098=DIRECTION('ref_axis',(1.,0.,0.));
#1099=DIRECTION('center_axis',(0.,0.,-1.));
#1100=DIRECTION('ref_axis',(1.,0.,0.));
#1101=DIRECTION('',(0.,0.,-1.));
#1102=DIRECTION('center_axis',(0.,0.,-1.));
#1103=DIRECTION('ref_axis',(1.,0.,0.));
#1104=DIRECTION('center_axis',(0.,0.,-1.));
#1105=DIRECTION('ref_axis',(1.,0.,0.));
#1106=DIRECTION('',(0.,0.,-1.));
#1107=DIRECTION('center_axis',(0.,0.,-1.));
#1108=DIRECTION('ref_axis',(1.,0.,0.));
#1109=DIRECTION('center_axis',(0.,0.,-1.));
#1110=DIRECTION('ref_axis',(1.,0.,0.));
#1111=DIRECTION('',(0.,0.,-1.));
#1112=DIRECTION('center_axis',(0.,0.,-1.));
#1113=DIRECTION('ref_axis',(1.,0.,0.));
#1114=DIRECTION('center_axis',(0.,0.,-1.));
#1115=DIRECTION('ref_axis',(1.,0.,0.));
#1116=DIRECTION('',(0.,0.,-1.));
#1117=DIRECTION('center_axis',(0.,0.,-1.));
#1118=DIRECTION('ref_axis',(1.,0.,0.));
#1119=DIRECTION('center_axis',(0.,0.,-1.));
#1120=DIRECTION('ref_axis',(1.,0.,0.));
#1121=DIRECTION('',(0.,0.,-1.));
#1122=DIRECTION('center_axis',(0.,0.,-1.));
#1123=DIRECTION('ref_axis',(1.,0.,0.));
#1124=DIRECTION('center_axis',(0.,0.,-1.));
#1125=DIRECTION('ref_axis',(1.,0.,0.));
#1126=DIRECTION('',(0.,0.,-1.));
#1127=DIRECTION('center_axis',(0.,0.,-1.));
#1128=DIRECTION('ref_axis',(1.,0.,0.));
#1129=DIRECTION('center_axis',(0.,0.,-1.));
#1130=DIRECTION('ref_axis',(1.,0.,0.));
#1131=DIRECTION('',(0.,0.,-1.));
#1132=DIRECTION('center_axis',(0.,0.,-1.));
#1133=DIRECTION('ref_axis',(1.,0.,0.));
#1134=DIRECTION('center_axis',(0.,0.,-1.));
#1135=DIRECTION('ref_axis',(1.,0.,0.));
#1136=DIRECTION('',(0.,0.,-1.));
#1137=DIRECTION('center_axis',(0.,0.,-1.));
#1138=DIRECTION('ref_axis',(1.,0.,0.));
#1139=DIRECTION('center_axis',(0.,0.,-1.));
#1140=DIRECTION('ref_axis',(1.,0.,0.));
#1141=DIRECTION('',(0.,0.,-1.));
#1142=DIRECTION('center_axis',(0.,0.,1.));
#1143=DIRECTION('ref_axis',(-1.,0.,0.));
#1144=DIRECTION('center_axis',(0.,0.,-1.));
#1145=DIRECTION('ref_axis',(-1.,0.,0.));
#1146=DIRECTION('center_axis',(0.,0.,1.));
#1147=DIRECTION('ref_axis',(4.44089209850063E-16,1.,0.));
#1148=DIRECTION('',(0.,0.,1.));
#1149=DIRECTION('center_axis',(0.,0.,1.));
#1150=DIRECTION('ref_axis',(4.44089209850063E-16,1.,0.));
#1151=DIRECTION('',(0.,0.,1.));
#1152=DIRECTION('center_axis',(1.09651656753102E-16,1.,0.));
#1153=DIRECTION('ref_axis',(-1.,1.09651656753102E-16,0.));
#1154=DIRECTION('',(-1.,1.09651656753102E-16,0.));
#1155=DIRECTION('',(0.,0.,1.));
#1156=DIRECTION('center_axis',(0.,0.,1.));
#1157=DIRECTION('ref_axis',(1.,4.44089209850063E-16,0.));
#1158=DIRECTION('center_axis',(0.,0.,1.));
#1159=DIRECTION('ref_axis',(1.,4.44089209850063E-16,0.));
#1160=DIRECTION('',(0.,0.,1.));
#1161=DIRECTION('center_axis',(1.,1.09651656753102E-16,0.));
#1162=DIRECTION('ref_axis',(-1.09651656753102E-16,1.,0.));
#1163=DIRECTION('',(-1.09651656753102E-16,1.,0.));
#1164=DIRECTION('',(0.,0.,1.));
#1165=DIRECTION('center_axis',(0.,0.,1.));
#1166=DIRECTION('ref_axis',(-3.10862446895045E-15,-1.,0.));
#1167=DIRECTION('center_axis',(0.,0.,1.));
#1168=DIRECTION('ref_axis',(-3.10862446895045E-15,-1.,0.));
#1169=DIRECTION('',(0.,0.,1.));
#1170=DIRECTION('center_axis',(2.19303313506204E-16,-1.,0.));
#1171=DIRECTION('ref_axis',(1.,2.19303313506204E-16,0.));
#1172=DIRECTION('',(1.,2.19303313506204E-16,0.));
#1173=DIRECTION('',(0.,0.,1.));
#1174=DIRECTION('center_axis',(0.,0.,1.));
#1175=DIRECTION('ref_axis',(-1.,4.44089209850063E-16,0.));
#1176=DIRECTION('center_axis',(0.,0.,1.));
#1177=DIRECTION('ref_axis',(-1.,4.44089209850063E-16,0.));
#1178=DIRECTION('',(0.,0.,1.));
#1179=DIRECTION('center_axis',(-1.,-2.19303313506204E-16,0.));
#1180=DIRECTION('ref_axis',(2.19303313506204E-16,-1.,0.));
#1181=DIRECTION('',(2.19303313506204E-16,-1.,0.));
#1182=DIRECTION('center_axis',(0.,0.,1.));
#1183=DIRECTION('ref_axis',(1.,0.,0.));
#1184=CARTESIAN_POINT('',(0.,0.,0.));
#1185=CARTESIAN_POINT('Origin',(0.,0.,16.25));
#1186=CARTESIAN_POINT('',(-29.0069272538723,49.7051372726056,0.));
#1187=CARTESIAN_POINT('',(-32.4628832016831,47.5201400906382,0.));
#1188=CARTESIAN_POINT('Origin',(0.,0.,0.));
#1189=CARTESIAN_POINT('',(-29.0069272538723,49.7051372726056,16.25));
#1190=CARTESIAN_POINT('',(-29.0069272538723,49.7051372726056,16.25));
#1191=CARTESIAN_POINT('',(-32.4628832016831,47.5201400906382,16.25));
#1192=CARTESIAN_POINT('Origin',(0.,0.,16.25));
#1193=CARTESIAN_POINT('',(-32.4628832016831,47.5201400906382,16.25));
#1194=CARTESIAN_POINT('Origin',(-32.5756994769279,47.6852839310923,16.25));
#1195=CARTESIAN_POINT('',(-32.5756994769278,47.6852839310922,0.));
#1196=CARTESIAN_POINT('',(-16.287849738464,23.8426419655461,0.));
#1197=CARTESIAN_POINT('',(-32.5756994769278,47.6852839310922,16.25));
#1198=CARTESIAN_POINT('',(-16.287849738464,23.8426419655461,16.25));
#1199=CARTESIAN_POINT('',(-32.5756994769278,47.6852839310922,16.25));
#1200=CARTESIAN_POINT('Origin',(0.,0.,16.25));
#1201=CARTESIAN_POINT('',(-55.7822164681937,-14.9467998546706,0.));
#1202=CARTESIAN_POINT('Origin',(0.,0.,0.));
#1203=CARTESIAN_POINT('',(-55.7822164681937,-14.9467998546706,16.25));
#1204=CARTESIAN_POINT('Origin',(0.,0.,16.25));
#1205=CARTESIAN_POINT('',(-55.7822164681937,-14.9467998546706,16.25));
#1206=CARTESIAN_POINT('Origin',(-55.5890313029359,-14.8950360456501,16.25));
#1207=CARTESIAN_POINT('',(-55.5890313029359,-14.8950360456501,0.));
#1208=CARTESIAN_POINT('',(-27.7945156514679,-7.44751802282503,-1.11022302462516E-15));
#1209=CARTESIAN_POINT('',(-55.5890313029359,-14.8950360456501,16.25));
#1210=CARTESIAN_POINT('',(-27.7945156514679,-7.44751802282503,16.25));
#1211=CARTESIAN_POINT('',(-55.5890313029359,-14.8950360456501,16.25));
#1212=CARTESIAN_POINT('Origin',(0.,0.,16.25));
#1213=CARTESIAN_POINT('',(-53.31791672125,-21.6610769932118,0.));
#1214=CARTESIAN_POINT('Origin',(0.,0.,0.));
#1215=CARTESIAN_POINT('',(-53.31791672125,-21.6610769932118,16.25));
#1216=CARTESIAN_POINT('Origin',(0.,0.,16.25));
#1217=CARTESIAN_POINT('',(-53.31791672125,-21.6610769932118,16.25));
#1218=CARTESIAN_POINT('Origin',(32.5756994769275,-47.685283931092,16.25));
#1219=CARTESIAN_POINT('',(32.462883201683,-47.5201400906383,0.));
#1220=CARTESIAN_POINT('',(32.5756994769275,-47.685283931092,0.));
#1221=CARTESIAN_POINT('',(16.2878497384637,-23.842641965546,0.));
#1222=CARTESIAN_POINT('',(32.462883201683,-47.5201400906383,16.25));
#1223=CARTESIAN_POINT('',(32.462883201683,-47.5201400906383,16.25));
#1224=CARTESIAN_POINT('',(32.5756994769275,-47.685283931092,16.25));
#1225=CARTESIAN_POINT('',(16.2878497384637,-23.842641965546,16.25));
#1226=CARTESIAN_POINT('',(32.5756994769275,-47.685283931092,16.25));
#1227=CARTESIAN_POINT('Origin',(0.,0.,16.25));
#1228=CARTESIAN_POINT('',(55.7822164681936,14.9467998546706,0.));
#1229=CARTESIAN_POINT('Origin',(0.,0.,0.));
#1230=CARTESIAN_POINT('',(55.7822164681936,14.9467998546706,16.25));
#1231=CARTESIAN_POINT('Origin',(0.,0.,16.25));
#1232=CARTESIAN_POINT('',(55.7822164681936,14.9467998546706,16.25));
#1233=CARTESIAN_POINT('Origin',(-8.88178419700125E-15,8.88178419700125E-15,
16.25));
#1234=CARTESIAN_POINT('',(55.5407350116214,14.882095093395,0.));
#1235=CARTESIAN_POINT('',(-6.40370999830511E-15,9.54578217732629E-15,-1.11022302462516E-15));
#1236=CARTESIAN_POINT('',(55.5407350116214,14.882095093395,16.25));
#1237=CARTESIAN_POINT('',(-6.40370999830511E-15,9.54578217732629E-15,16.25));
#1238=CARTESIAN_POINT('',(55.5407350116214,14.882095093395,0.));
#1239=CARTESIAN_POINT('Origin',(-52.9074437165259,-22.5178240374723,16.25));
#1240=CARTESIAN_POINT('',(-52.5745815737548,-23.4076028748056,0.));
#1241=CARTESIAN_POINT('Origin',(-52.9074437165259,-22.5178240374723,0.));
#1242=CARTESIAN_POINT('',(-52.5745815737548,-23.4076028748056,16.25));
#1243=CARTESIAN_POINT('Origin',(-52.9074437165259,-22.5178240374723,16.25));
#1244=CARTESIAN_POINT('',(-52.5745815737548,-23.4076028748056,16.25));
#1245=CARTESIAN_POINT('Origin',(0.,0.,16.25));
#1246=CARTESIAN_POINT('',(-49.3299781554066,-29.6404412110736,0.));
#1247=CARTESIAN_POINT('Origin',(0.,0.,0.));
#1248=CARTESIAN_POINT('',(-49.3299781554066,-29.6404412110736,16.25));
#1249=CARTESIAN_POINT('Origin',(0.,0.,16.25));
#1250=CARTESIAN_POINT('',(-49.3299781554066,-29.6404412110736,16.25));
#1251=CARTESIAN_POINT('Origin',(-49.501411615547,-29.7434488260556,16.25));
#1252=CARTESIAN_POINT('',(-49.501411615547,-29.7434488260556,0.));
#1253=CARTESIAN_POINT('',(-24.7507058077735,-14.8717244130278,-1.11022302462516E-15));
#1254=CARTESIAN_POINT('',(-49.501411615547,-29.7434488260556,16.25));
#1255=CARTESIAN_POINT('',(-24.7507058077735,-14.8717244130278,16.25));
#1256=CARTESIAN_POINT('',(-49.501411615547,-29.7434488260556,16.25));
#1257=CARTESIAN_POINT('Origin',(0.,0.,16.25));
#1258=CARTESIAN_POINT('',(29.1077332564922,-49.8778745003123,0.));
#1259=CARTESIAN_POINT('Origin',(0.,0.,0.));
#1260=CARTESIAN_POINT('',(29.1077332564922,-49.8778745003123,16.25));
#1261=CARTESIAN_POINT('Origin',(0.,0.,16.25));
#1262=CARTESIAN_POINT('',(29.1077332564922,-49.8778745003123,16.25));
#1263=CARTESIAN_POINT('Origin',(29.0069272538723,-49.7051372726055,16.25));
#1264=CARTESIAN_POINT('',(29.0069272538723,-49.7051372726055,0.));
#1265=CARTESIAN_POINT('',(14.5034636269362,-24.8525686363027,0.));
#1266=CARTESIAN_POINT('',(29.0069272538723,-49.7051372726055,16.25));
#1267=CARTESIAN_POINT('',(14.5034636269362,-24.8525686363027,16.25));
#1268=CARTESIAN_POINT('',(29.0069272538723,-49.7051372726055,16.25));
#1269=CARTESIAN_POINT('Origin',(0.,0.,16.25));
#1270=CARTESIAN_POINT('Origin',(0.,0.,0.));
#1271=CARTESIAN_POINT('Origin',(0.,0.,16.25));
#1272=CARTESIAN_POINT('Origin',(49.5014116155467,29.7434488260556,16.25));
#1273=CARTESIAN_POINT('',(49.2871197903714,29.6146893073283,0.));
#1274=CARTESIAN_POINT('',(49.5014116155467,29.7434488260556,0.));
#1275=CARTESIAN_POINT('',(24.7507058077733,14.8717244130279,-1.11022302462516E-15));
#1276=CARTESIAN_POINT('',(49.2871197903714,29.6146893073283,16.25));
#1277=CARTESIAN_POINT('',(49.2871197903714,29.6146893073283,0.));
#1278=CARTESIAN_POINT('',(49.5014116155467,29.7434488260556,16.25));
#1279=CARTESIAN_POINT('',(24.7507058077733,14.8717244130279,16.25));
#1280=CARTESIAN_POINT('',(49.5014116155467,29.7434488260556,16.25));
#1281=CARTESIAN_POINT('Origin',(0.,0.,16.25));
#1282=CARTESIAN_POINT('',(-29.1077332564922,49.8778745003123,0.));
#1283=CARTESIAN_POINT('Origin',(0.,0.,0.));
#1284=CARTESIAN_POINT('',(-29.1077332564922,49.8778745003123,16.25));
#1285=CARTESIAN_POINT('Origin',(0.,0.,16.25));
#1286=CARTESIAN_POINT('',(-29.1077332564922,49.8778745003123,16.25));
#1287=CARTESIAN_POINT('Origin',(-29.0069272538723,49.7051372726056,16.25));
#1288=CARTESIAN_POINT('',(-14.5034636269361,24.8525686363028,0.));
#1289=CARTESIAN_POINT('',(-14.5034636269361,24.8525686363028,16.25));
#1290=CARTESIAN_POINT('Origin',(0.,-4.44089209850063E-15,0.));
#1291=CARTESIAN_POINT('',(-60.5,40.5,0.));
#1292=CARTESIAN_POINT('',(-60.5,-40.5,0.));
#1293=CARTESIAN_POINT('',(-60.5,40.5,0.));
#1294=CARTESIAN_POINT('',(-40.5,60.5,0.));
#1295=CARTESIAN_POINT('Origin',(-40.5,40.5,0.));
#1296=CARTESIAN_POINT('',(40.5,60.5,0.));
#1297=CARTESIAN_POINT('',(40.5,60.5,0.));
#1298=CARTESIAN_POINT('',(60.5,40.5,0.));
#1299=CARTESIAN_POINT('Origin',(40.5,40.5,0.));
#1300=CARTESIAN_POINT('',(60.5,-40.5,0.));
#1301=CARTESIAN_POINT('',(60.5,-40.5,0.));
#1302=CARTESIAN_POINT('',(40.5,-60.5,0.));
#1303=CARTESIAN_POINT('Origin',(40.5000000000001,-40.5,0.));
#1304=CARTESIAN_POINT('',(-40.5,-60.5,0.));
#1305=CARTESIAN_POINT('',(-40.5,-60.5,0.));
#1306=CARTESIAN_POINT('Origin',(-40.5,-40.5,0.));
#1307=CARTESIAN_POINT('',(-51.1500000000158,-48.5000000000024,0.));
#1308=CARTESIAN_POINT('Origin',(-48.5000000000158,-48.5000000000024,0.));
#1309=CARTESIAN_POINT('',(-51.1500000000159,48.5000000000015,0.));
#1310=CARTESIAN_POINT('Origin',(-48.5000000000159,48.5000000000015,0.));
#1311=CARTESIAN_POINT('',(45.8499999999863,48.5000000000038,0.));
#1312=CARTESIAN_POINT('Origin',(48.4999999999863,48.5000000000038,0.));
#1313=CARTESIAN_POINT('',(45.8499999999942,-48.5000000000023,0.));
#1314=CARTESIAN_POINT('Origin',(48.4999999999942,-48.5000000000023,0.));
#1315=CARTESIAN_POINT('',(-40.2824683628081,-53.2448828787912,0.));
#1316=CARTESIAN_POINT('Origin',(-37.2824683628081,-53.2448828787912,0.));
#1317=CARTESIAN_POINT('',(34.2824683628085,53.2448828787913,0.));
#1318=CARTESIAN_POINT('Origin',(37.2824683628085,53.2448828787913,0.));
#1319=CARTESIAN_POINT('',(34.2824683628278,-53.2448828787777,0.));
#1320=CARTESIAN_POINT('Origin',(37.2824683628278,-53.2448828787777,0.));
#1321=CARTESIAN_POINT('',(-40.2824683628275,53.2448828787777,0.));
#1322=CARTESIAN_POINT('Origin',(-37.2824683628275,53.2448828787777,0.));
#1323=CARTESIAN_POINT('',(-56.2448828787776,-37.2824683628277,0.));
#1324=CARTESIAN_POINT('Origin',(-53.2448828787776,-37.2824683628277,0.));
#1325=CARTESIAN_POINT('',(50.2448828787778,37.2824683628277,0.));
#1326=CARTESIAN_POINT('Origin',(53.2448828787778,37.2824683628277,0.));
#1327=CARTESIAN_POINT('',(50.2448828787914,-37.2824683628083,0.));
#1328=CARTESIAN_POINT('Origin',(53.2448828787914,-37.2824683628083,0.));
#1329=CARTESIAN_POINT('',(-56.2448828787911,37.2824683628083,0.));
#1330=CARTESIAN_POINT('Origin',(-53.2448828787911,37.2824683628083,0.));
#1331=CARTESIAN_POINT('Origin',(0.,0.,0.));
#1332=CARTESIAN_POINT('Origin',(-53.2448828787911,37.2824683628083,16.25));
#1333=CARTESIAN_POINT('',(-56.2448828787911,37.2824683628083,16.25));
#1334=CARTESIAN_POINT('Origin',(-53.2448828787911,37.2824683628083,16.25));
#1335=CARTESIAN_POINT('',(-56.2448828787911,37.2824683628083,16.25));
#1336=CARTESIAN_POINT('Origin',(53.2448828787914,-37.2824683628083,16.25));
#1337=CARTESIAN_POINT('',(50.2448828787914,-37.2824683628083,16.25));
#1338=CARTESIAN_POINT('Origin',(53.2448828787914,-37.2824683628083,16.25));
#1339=CARTESIAN_POINT('',(50.2448828787914,-37.2824683628083,16.25));
#1340=CARTESIAN_POINT('Origin',(53.2448828787778,37.2824683628277,16.25));
#1341=CARTESIAN_POINT('',(50.2448828787778,37.2824683628277,16.25));
#1342=CARTESIAN_POINT('Origin',(53.2448828787778,37.2824683628277,16.25));
#1343=CARTESIAN_POINT('',(50.2448828787778,37.2824683628277,16.25));
#1344=CARTESIAN_POINT('Origin',(-53.2448828787776,-37.2824683628277,16.25));
#1345=CARTESIAN_POINT('',(-56.2448828787776,-37.2824683628277,16.25));
#1346=CARTESIAN_POINT('Origin',(-53.2448828787776,-37.2824683628277,16.25));
#1347=CARTESIAN_POINT('',(-56.2448828787776,-37.2824683628277,16.25));
#1348=CARTESIAN_POINT('Origin',(-37.2824683628275,53.2448828787777,16.25));
#1349=CARTESIAN_POINT('',(-40.2824683628275,53.2448828787777,16.25));
#1350=CARTESIAN_POINT('Origin',(-37.2824683628275,53.2448828787777,16.25));
#1351=CARTESIAN_POINT('',(-40.2824683628275,53.2448828787777,16.25));
#1352=CARTESIAN_POINT('Origin',(37.2824683628278,-53.2448828787777,16.25));
#1353=CARTESIAN_POINT('',(34.2824683628278,-53.2448828787777,16.25));
#1354=CARTESIAN_POINT('Origin',(37.2824683628278,-53.2448828787777,16.25));
#1355=CARTESIAN_POINT('',(34.2824683628278,-53.2448828787777,16.25));
#1356=CARTESIAN_POINT('Origin',(37.2824683628085,53.2448828787913,16.25));
#1357=CARTESIAN_POINT('',(34.2824683628085,53.2448828787913,16.25));
#1358=CARTESIAN_POINT('Origin',(37.2824683628085,53.2448828787913,16.25));
#1359=CARTESIAN_POINT('',(34.2824683628085,53.2448828787913,16.25));
#1360=CARTESIAN_POINT('Origin',(-37.2824683628081,-53.2448828787912,16.25));
#1361=CARTESIAN_POINT('',(-40.2824683628081,-53.2448828787912,16.25));
#1362=CARTESIAN_POINT('Origin',(-37.2824683628081,-53.2448828787912,16.25));
#1363=CARTESIAN_POINT('',(-40.2824683628081,-53.2448828787912,16.25));
#1364=CARTESIAN_POINT('Origin',(48.4999999999942,-48.5000000000023,16.25));
#1365=CARTESIAN_POINT('',(45.8499999999942,-48.5000000000023,16.25));
#1366=CARTESIAN_POINT('Origin',(48.4999999999942,-48.5000000000023,16.25));
#1367=CARTESIAN_POINT('',(45.8499999999942,-48.5000000000023,16.25));
#1368=CARTESIAN_POINT('Origin',(48.4999999999863,48.5000000000038,16.25));
#1369=CARTESIAN_POINT('',(45.8499999999863,48.5000000000038,16.25));
#1370=CARTESIAN_POINT('Origin',(48.4999999999863,48.5000000000038,16.25));
#1371=CARTESIAN_POINT('',(45.8499999999863,48.5000000000038,16.25));
#1372=CARTESIAN_POINT('Origin',(-48.5000000000159,48.5000000000015,16.25));
#1373=CARTESIAN_POINT('',(-51.1500000000159,48.5000000000015,16.25));
#1374=CARTESIAN_POINT('Origin',(-48.5000000000159,48.5000000000015,16.25));
#1375=CARTESIAN_POINT('',(-51.1500000000159,48.5000000000015,16.25));
#1376=CARTESIAN_POINT('Origin',(-48.5000000000158,-48.5000000000024,16.25));
#1377=CARTESIAN_POINT('',(-51.1500000000158,-48.5000000000024,16.25));
#1378=CARTESIAN_POINT('Origin',(-48.5000000000158,-48.5000000000024,16.25));
#1379=CARTESIAN_POINT('',(-51.1500000000158,-48.5000000000024,16.25));
#1380=CARTESIAN_POINT('Origin',(0.,0.,0.));
#1381=CARTESIAN_POINT('Origin',(0.,0.,16.25));
#1382=CARTESIAN_POINT('Origin',(-40.5,40.5,0.));
#1383=CARTESIAN_POINT('',(-60.5,40.5,16.25));
#1384=CARTESIAN_POINT('',(-60.5,40.5,0.));
#1385=CARTESIAN_POINT('',(-40.5,60.5,16.25));
#1386=CARTESIAN_POINT('Origin',(-40.5,40.5,16.25));
#1387=CARTESIAN_POINT('',(-40.5,60.5,0.));
#1388=CARTESIAN_POINT('Origin',(40.5,60.5,0.));
#1389=CARTESIAN_POINT('',(40.5,60.5,16.25));
#1390=CARTESIAN_POINT('',(40.5,60.5,16.25));
#1391=CARTESIAN_POINT('',(40.5,60.5,0.));
#1392=CARTESIAN_POINT('Origin',(40.5,40.5,0.));
#1393=CARTESIAN_POINT('',(60.5,40.5,16.25));
#1394=CARTESIAN_POINT('Origin',(40.5,40.5,16.25));
#1395=CARTESIAN_POINT('',(60.5,40.5,0.));
#1396=CARTESIAN_POINT('Origin',(60.5,-40.5,0.));
#1397=CARTESIAN_POINT('',(60.5,-40.5,16.25));
#1398=CARTESIAN_POINT('',(60.5,-40.5,16.25));
#1399=CARTESIAN_POINT('',(60.5,-40.5,0.));
#1400=CARTESIAN_POINT('Origin',(40.5000000000001,-40.5,0.));
#1401=CARTESIAN_POINT('',(40.5,-60.5,16.25));
#1402=CARTESIAN_POINT('Origin',(40.5000000000001,-40.5,16.25));
#1403=CARTESIAN_POINT('',(40.5,-60.5,0.));
#1404=CARTESIAN_POINT('Origin',(-40.5,-60.5,0.));
#1405=CARTESIAN_POINT('',(-40.5,-60.5,16.25));
#1406=CARTESIAN_POINT('',(-40.5,-60.5,16.25));
#1407=CARTESIAN_POINT('',(-40.5,-60.5,0.));
#1408=CARTESIAN_POINT('Origin',(-40.5,-40.5,0.));
#1409=CARTESIAN_POINT('',(-60.5,-40.5,16.25));
#1410=CARTESIAN_POINT('Origin',(-40.5,-40.5,16.25));
#1411=CARTESIAN_POINT('',(-60.5,-40.5,0.));
#1412=CARTESIAN_POINT('Origin',(-60.5,40.5,0.));
#1413=CARTESIAN_POINT('',(-60.5,40.5,16.25));
#1414=CARTESIAN_POINT('Origin',(0.,-4.44089209850063E-15,16.25));
#1415=UNCERTAINTY_MEASURE_WITH_UNIT(LENGTH_MEASURE(0.01),#1419,
'DISTANCE_ACCURACY_VALUE',
'Maximum model space distance between geometric entities at asserted c
onnectivities');
#1416=UNCERTAINTY_MEASURE_WITH_UNIT(LENGTH_MEASURE(0.01),#1419,
'DISTANCE_ACCURACY_VALUE',
'Maximum model space distance between geometric entities at asserted c
onnectivities');
#1417=(
GEOMETRIC_REPRESENTATION_CONTEXT(3)
GLOBAL_UNCERTAINTY_ASSIGNED_CONTEXT((#1415))
GLOBAL_UNIT_ASSIGNED_CONTEXT((#1419,#1421,#1422))
REPRESENTATION_CONTEXT('','3D')
);
#1418=(
GEOMETRIC_REPRESENTATION_CONTEXT(3)
GLOBAL_UNCERTAINTY_ASSIGNED_CONTEXT((#1416))
GLOBAL_UNIT_ASSIGNED_CONTEXT((#1419,#1421,#1422))
REPRESENTATION_CONTEXT('','3D')
);
#1419=(
LENGTH_UNIT()
NAMED_UNIT(*)
SI_UNIT(.MILLI.,.METRE.)
);
#1420=(
LENGTH_UNIT()
NAMED_UNIT(*)
SI_UNIT(.CENTI.,.METRE.)
);
#1421=(
NAMED_UNIT(*)
PLANE_ANGLE_UNIT()
SI_UNIT($,.RADIAN.)
);
#1422=(
NAMED_UNIT(*)
SI_UNIT($,.STERADIAN.)
SOLID_ANGLE_UNIT()
);
#1423=SHAPE_DEFINITION_REPRESENTATION(#1424,#1425);
#1424=PRODUCT_DEFINITION_SHAPE('',$,#1427);
#1425=SHAPE_REPRESENTATION('',(#843),#1417);
#1426=PRODUCT_DEFINITION_CONTEXT('part definition',#1431,'design');
#1427=PRODUCT_DEFINITION('stator_center_00_p','stator_center_00_p',#1428,
#1426);
#1428=PRODUCT_DEFINITION_FORMATION('',$,#1433);
#1429=PRODUCT_RELATED_PRODUCT_CATEGORY('stator_center_00_p',
'stator_center_00_p',(#1433));
#1430=APPLICATION_PROTOCOL_DEFINITION('international standard',
'automotive_design',2009,#1431);
#1431=APPLICATION_CONTEXT(
'Core Data for Automotive Mechanical Design Process');
#1432=PRODUCT_CONTEXT('part definition',#1431,'mechanical');
#1433=PRODUCT('stator_center_00_p','stator_center_00_p',$,(#1432));
#1434=PRESENTATION_STYLE_ASSIGNMENT((#1435));
#1435=SURFACE_STYLE_USAGE(.BOTH.,#1438);
#1436=SURFACE_STYLE_RENDERING_WITH_PROPERTIES($,#1442,(#1437));
#1437=SURFACE_STYLE_TRANSPARENT(0.);
#1438=SURFACE_SIDE_STYLE('',(#1439,#1436));
#1439=SURFACE_STYLE_FILL_AREA(#1440);
#1440=FILL_AREA_STYLE('',(#1441));
#1441=FILL_AREA_STYLE_COLOUR('',#1442);
#1442=COLOUR_RGB('',0.,0.,0.);
ENDSEC;
END-ISO-10303-21;
