ISO-10303-21;
HEADER;
/* Generated by software containing ST-Developer
 * from STEP Tools, Inc. (www.steptools.com) 
 */

FILE_DESCRIPTION(
/* description */ (''),
/* implementation_level */ '2;1');

FILE_NAME(
/* name */ 'bearing_12x8x8.stp',
/* time_stamp */ '2026-05-07T09:26:19-07:00',
/* author */ ('aaron'),
/* organization */ (''),
/* preprocessor_version */ 'ST-DEVELOPER v20.1',
/* originating_system */ 'Autodesk Inventor 2026',
/* authorisation */ '');

FILE_SCHEMA (('AUTOMOTIVE_DESIGN { 1 0 10303 214 3 1 1 }'));
ENDSEC;

DATA;
#10=MECHANICAL_DESIGN_GEOMETRIC_PRESENTATION_REPRESENTATION('',(#14,#15,
#16),#386);
#11=SHAPE_REPRESENTATION_RELATIONSHIP('SRR','None',#393,#12);
#12=ADVANCED_BREP_SHAPE_REPRESENTATION('',(#13),#385);
#13=MANIFOLD_SOLID_BREP('Solid1',#205);
#14=STYLED_ITEM('',(#403),#198);
#15=STYLED_ITEM('',(#403),#201);
#16=STYLED_ITEM('',(#402),#13);
#17=FACE_BOUND('',#52,.T.);
#18=FACE_BOUND('',#55,.T.);
#19=FACE_BOUND('',#59,.T.);
#20=FACE_BOUND('',#63,.T.);
#21=FACE_BOUND('',#66,.T.);
#22=FACE_BOUND('',#68,.T.);
#23=PLANE('',#235);
#24=PLANE('',#239);
#25=PLANE('',#246);
#26=PLANE('',#252);
#27=PLANE('',#256);
#28=PLANE('',#257);
#29=CYLINDRICAL_SURFACE('',#232,11.025);
#30=CYLINDRICAL_SURFACE('',#241,5.05);
#31=CYLINDRICAL_SURFACE('',#244,10.025);
#32=CYLINDRICAL_SURFACE('',#247,5.05);
#33=CYLINDRICAL_SURFACE('',#250,10.025);
#34=CYLINDRICAL_SURFACE('',#253,4.05);
#35=FACE_OUTER_BOUND('',#49,.T.);
#36=FACE_OUTER_BOUND('',#50,.T.);
#37=FACE_OUTER_BOUND('',#51,.T.);
#38=FACE_OUTER_BOUND('',#53,.T.);
#39=FACE_OUTER_BOUND('',#54,.T.);
#40=FACE_OUTER_BOUND('',#56,.T.);
#41=FACE_OUTER_BOUND('',#57,.T.);
#42=FACE_OUTER_BOUND('',#58,.T.);
#43=FACE_OUTER_BOUND('',#60,.T.);
#44=FACE_OUTER_BOUND('',#61,.T.);
#45=FACE_OUTER_BOUND('',#62,.T.);
#46=FACE_OUTER_BOUND('',#64,.T.);
#47=FACE_OUTER_BOUND('',#65,.T.);
#48=FACE_OUTER_BOUND('',#67,.T.);
#49=EDGE_LOOP('',(#141,#142,#143,#144,#145));
#50=EDGE_LOOP('',(#146,#147,#148,#149,#150,#151));
#51=EDGE_LOOP('',(#152));
#52=EDGE_LOOP('',(#153));
#53=EDGE_LOOP('',(#154,#155,#156,#157,#158));
#54=EDGE_LOOP('',(#159));
#55=EDGE_LOOP('',(#160));
#56=EDGE_LOOP('',(#161,#162,#163,#164));
#57=EDGE_LOOP('',(#165,#166,#167,#168));
#58=EDGE_LOOP('',(#169));
#59=EDGE_LOOP('',(#170));
#60=EDGE_LOOP('',(#171,#172,#173,#174));
#61=EDGE_LOOP('',(#175,#176,#177,#178));
#62=EDGE_LOOP('',(#179));
#63=EDGE_LOOP('',(#180));
#64=EDGE_LOOP('',(#181,#182,#183,#184));
#65=EDGE_LOOP('',(#185));
#66=EDGE_LOOP('',(#186));
#67=EDGE_LOOP('',(#187));
#68=EDGE_LOOP('',(#188));
#69=LINE('',#335,#77);
#70=LINE('',#342,#78);
#71=LINE('',#349,#79);
#72=LINE('',#357,#80);
#73=LINE('',#361,#81);
#74=LINE('',#368,#82);
#75=LINE('',#372,#83);
#76=LINE('',#379,#84);
#77=VECTOR('',#266,10.9);
#78=VECTOR('',#275,11.025);
#79=VECTOR('',#284,10.9);
#80=VECTOR('',#293,5.05);
#81=VECTOR('',#298,10.025);
#82=VECTOR('',#307,5.05);
#83=VECTOR('',#312,10.025);
#84=VECTOR('',#321,4.05);
#85=CIRCLE('',#229,11.025);
#86=CIRCLE('',#230,11.025);
#87=CIRCLE('',#231,10.775);
#88=CIRCLE('',#233,11.025);
#89=CIRCLE('',#234,11.025);
#90=CIRCLE('',#236,10.025);
#91=CIRCLE('',#238,10.775);
#92=CIRCLE('',#240,10.025);
#93=CIRCLE('',#242,5.05);
#94=CIRCLE('',#243,5.05);
#95=CIRCLE('',#245,10.025);
#96=CIRCLE('',#248,5.05);
#97=CIRCLE('',#249,5.05);
#98=CIRCLE('',#251,10.025);
#99=CIRCLE('',#254,4.05);
#100=CIRCLE('',#255,4.05);
#101=VERTEX_POINT('',#330);
#102=VERTEX_POINT('',#331);
#103=VERTEX_POINT('',#334);
#104=VERTEX_POINT('',#338);
#105=VERTEX_POINT('',#339);
#106=VERTEX_POINT('',#344);
#107=VERTEX_POINT('',#347);
#108=VERTEX_POINT('',#351);
#109=VERTEX_POINT('',#354);
#110=VERTEX_POINT('',#356);
#111=VERTEX_POINT('',#360);
#112=VERTEX_POINT('',#365);
#113=VERTEX_POINT('',#367);
#114=VERTEX_POINT('',#371);
#115=VERTEX_POINT('',#376);
#116=VERTEX_POINT('',#378);
#117=EDGE_CURVE('',#101,#102,#85,.T.);
#118=EDGE_CURVE('',#102,#101,#86,.T.);
#119=EDGE_CURVE('',#101,#103,#69,.T.);
#120=EDGE_CURVE('',#103,#103,#87,.T.);
#121=EDGE_CURVE('',#104,#105,#88,.T.);
#122=EDGE_CURVE('',#105,#104,#89,.T.);
#123=EDGE_CURVE('',#105,#102,#70,.T.);
#124=EDGE_CURVE('',#106,#106,#90,.T.);
#125=EDGE_CURVE('',#107,#107,#91,.T.);
#126=EDGE_CURVE('',#107,#104,#71,.T.);
#127=EDGE_CURVE('',#108,#108,#92,.T.);
#128=EDGE_CURVE('',#109,#109,#93,.T.);
#129=EDGE_CURVE('',#109,#110,#72,.T.);
#130=EDGE_CURVE('',#110,#110,#94,.T.);
#131=EDGE_CURVE('',#106,#111,#73,.T.);
#132=EDGE_CURVE('',#111,#111,#95,.T.);
#133=EDGE_CURVE('',#112,#112,#96,.T.);
#134=EDGE_CURVE('',#112,#113,#74,.T.);
#135=EDGE_CURVE('',#113,#113,#97,.T.);
#136=EDGE_CURVE('',#108,#114,#75,.T.);
#137=EDGE_CURVE('',#114,#114,#98,.T.);
#138=EDGE_CURVE('',#115,#115,#99,.T.);
#139=EDGE_CURVE('',#115,#116,#76,.T.);
#140=EDGE_CURVE('',#116,#116,#100,.T.);
#141=ORIENTED_EDGE('',*,*,#117,.T.);
#142=ORIENTED_EDGE('',*,*,#118,.T.);
#143=ORIENTED_EDGE('',*,*,#119,.T.);
#144=ORIENTED_EDGE('',*,*,#120,.T.);
#145=ORIENTED_EDGE('',*,*,#119,.F.);
#146=ORIENTED_EDGE('',*,*,#121,.F.);
#147=ORIENTED_EDGE('',*,*,#122,.F.);
#148=ORIENTED_EDGE('',*,*,#123,.T.);
#149=ORIENTED_EDGE('',*,*,#117,.F.);
#150=ORIENTED_EDGE('',*,*,#118,.F.);
#151=ORIENTED_EDGE('',*,*,#123,.F.);
#152=ORIENTED_EDGE('',*,*,#120,.F.);
#153=ORIENTED_EDGE('',*,*,#124,.T.);
#154=ORIENTED_EDGE('',*,*,#125,.T.);
#155=ORIENTED_EDGE('',*,*,#126,.T.);
#156=ORIENTED_EDGE('',*,*,#121,.T.);
#157=ORIENTED_EDGE('',*,*,#122,.T.);
#158=ORIENTED_EDGE('',*,*,#126,.F.);
#159=ORIENTED_EDGE('',*,*,#125,.F.);
#160=ORIENTED_EDGE('',*,*,#127,.T.);
#161=ORIENTED_EDGE('',*,*,#128,.F.);
#162=ORIENTED_EDGE('',*,*,#129,.T.);
#163=ORIENTED_EDGE('',*,*,#130,.T.);
#164=ORIENTED_EDGE('',*,*,#129,.F.);
#165=ORIENTED_EDGE('',*,*,#124,.F.);
#166=ORIENTED_EDGE('',*,*,#131,.T.);
#167=ORIENTED_EDGE('',*,*,#132,.T.);
#168=ORIENTED_EDGE('',*,*,#131,.F.);
#169=ORIENTED_EDGE('',*,*,#132,.F.);
#170=ORIENTED_EDGE('',*,*,#130,.F.);
#171=ORIENTED_EDGE('',*,*,#133,.F.);
#172=ORIENTED_EDGE('',*,*,#134,.T.);
#173=ORIENTED_EDGE('',*,*,#135,.T.);
#174=ORIENTED_EDGE('',*,*,#134,.F.);
#175=ORIENTED_EDGE('',*,*,#127,.F.);
#176=ORIENTED_EDGE('',*,*,#136,.T.);
#177=ORIENTED_EDGE('',*,*,#137,.T.);
#178=ORIENTED_EDGE('',*,*,#136,.F.);
#179=ORIENTED_EDGE('',*,*,#137,.F.);
#180=ORIENTED_EDGE('',*,*,#135,.F.);
#181=ORIENTED_EDGE('',*,*,#138,.F.);
#182=ORIENTED_EDGE('',*,*,#139,.T.);
#183=ORIENTED_EDGE('',*,*,#140,.T.);
#184=ORIENTED_EDGE('',*,*,#139,.F.);
#185=ORIENTED_EDGE('',*,*,#133,.T.);
#186=ORIENTED_EDGE('',*,*,#138,.T.);
#187=ORIENTED_EDGE('',*,*,#128,.T.);
#188=ORIENTED_EDGE('',*,*,#140,.F.);
#189=CONICAL_SURFACE('',#228,10.9,0.785398163397447);
#190=CONICAL_SURFACE('',#237,10.9,0.785398163397446);
#191=ADVANCED_FACE('',(#35),#189,.T.);
#192=ADVANCED_FACE('',(#36),#29,.T.);
#193=ADVANCED_FACE('',(#37,#17),#23,.F.);
#194=ADVANCED_FACE('',(#38),#190,.T.);
#195=ADVANCED_FACE('',(#39,#18),#24,.T.);
#196=ADVANCED_FACE('',(#40),#30,.T.);
#197=ADVANCED_FACE('',(#41),#31,.F.);
#198=ADVANCED_FACE('',(#42,#19),#25,.T.);
#199=ADVANCED_FACE('',(#43),#32,.T.);
#200=ADVANCED_FACE('',(#44),#33,.F.);
#201=ADVANCED_FACE('',(#45,#20),#26,.T.);
#202=ADVANCED_FACE('',(#46),#34,.F.);
#203=ADVANCED_FACE('',(#47,#21),#27,.T.);
#204=ADVANCED_FACE('',(#48,#22),#28,.F.);
#205=CLOSED_SHELL('',(#191,#192,#193,#194,#195,#196,#197,#198,#199,#200,
#201,#202,#203,#204));
#206=DERIVED_UNIT_ELEMENT(#209,1.);
#207=DERIVED_UNIT_ELEMENT(#388,-3.);
#208=DIMENSIONAL_EXPONENTS(0.,1.,0.,0.,0.,0.,0.);
#209=(
CONVERSION_BASED_UNIT('gram',#211)
MASS_UNIT()
NAMED_UNIT(#208)
);
#210=(
MASS_UNIT()
NAMED_UNIT(*)
SI_UNIT(.KILO.,.GRAM.)
);
#211=MASS_MEASURE_WITH_UNIT(MASS_MEASURE(0.001),#210);
#212=DERIVED_UNIT((#206,#207));
#213=MEASURE_REPRESENTATION_ITEM('density measure',
POSITIVE_RATIO_MEASURE(1.),#212);
#214=PROPERTY_DEFINITION_REPRESENTATION(#219,#216);
#215=PROPERTY_DEFINITION_REPRESENTATION(#220,#217);
#216=REPRESENTATION('material name',(#218),#385);
#217=REPRESENTATION('density',(#213),#385);
#218=DESCRIPTIVE_REPRESENTATION_ITEM('Generic','Generic');
#219=PROPERTY_DEFINITION('material property','material name',#395);
#220=PROPERTY_DEFINITION('material property','density of part',#395);
#221=DATE_TIME_ROLE('creation_date');
#222=APPLIED_DATE_AND_TIME_ASSIGNMENT(#223,#221,(#395));
#223=DATE_AND_TIME(#224,#225);
#224=CALENDAR_DATE(2023,23,11);
#225=LOCAL_TIME(0,0,0.,#226);
#226=COORDINATED_UNIVERSAL_TIME_OFFSET(0,0,.BEHIND.);
#227=AXIS2_PLACEMENT_3D('',#328,#258,#259);
#228=AXIS2_PLACEMENT_3D('',#329,#260,#261);
#229=AXIS2_PLACEMENT_3D('',#332,#262,#263);
#230=AXIS2_PLACEMENT_3D('',#333,#264,#265);
#231=AXIS2_PLACEMENT_3D('',#336,#267,#268);
#232=AXIS2_PLACEMENT_3D('',#337,#269,#270);
#233=AXIS2_PLACEMENT_3D('',#340,#271,#272);
#234=AXIS2_PLACEMENT_3D('',#341,#273,#274);
#235=AXIS2_PLACEMENT_3D('',#343,#276,#277);
#236=AXIS2_PLACEMENT_3D('',#345,#278,#279);
#237=AXIS2_PLACEMENT_3D('',#346,#280,#281);
#238=AXIS2_PLACEMENT_3D('',#348,#282,#283);
#239=AXIS2_PLACEMENT_3D('',#350,#285,#286);
#240=AXIS2_PLACEMENT_3D('',#352,#287,#288);
#241=AXIS2_PLACEMENT_3D('',#353,#289,#290);
#242=AXIS2_PLACEMENT_3D('',#355,#291,#292);
#243=AXIS2_PLACEMENT_3D('',#358,#294,#295);
#244=AXIS2_PLACEMENT_3D('',#359,#296,#297);
#245=AXIS2_PLACEMENT_3D('',#362,#299,#300);
#246=AXIS2_PLACEMENT_3D('',#363,#301,#302);
#247=AXIS2_PLACEMENT_3D('',#364,#303,#304);
#248=AXIS2_PLACEMENT_3D('',#366,#305,#306);
#249=AXIS2_PLACEMENT_3D('',#369,#308,#309);
#250=AXIS2_PLACEMENT_3D('',#370,#310,#311);
#251=AXIS2_PLACEMENT_3D('',#373,#313,#314);
#252=AXIS2_PLACEMENT_3D('',#374,#315,#316);
#253=AXIS2_PLACEMENT_3D('',#375,#317,#318);
#254=AXIS2_PLACEMENT_3D('',#377,#319,#320);
#255=AXIS2_PLACEMENT_3D('',#380,#322,#323);
#256=AXIS2_PLACEMENT_3D('',#381,#324,#325);
#257=AXIS2_PLACEMENT_3D('',#382,#326,#327);
#258=DIRECTION('axis',(0.,0.,1.));
#259=DIRECTION('refdir',(1.,0.,0.));
#260=DIRECTION('center_axis',(0.,0.,1.));
#261=DIRECTION('ref_axis',(-1.,0.,0.));
#262=DIRECTION('center_axis',(0.,0.,-1.));
#263=DIRECTION('ref_axis',(-1.,0.,0.));
#264=DIRECTION('center_axis',(0.,0.,-1.));
#265=DIRECTION('ref_axis',(-1.,0.,0.));
#266=DIRECTION('',(-0.707106781186546,-8.65956056235492E-17,-0.707106781186549));
#267=DIRECTION('center_axis',(0.,0.,1.));
#268=DIRECTION('ref_axis',(-1.,0.,0.));
#269=DIRECTION('center_axis',(0.,0.,1.));
#270=DIRECTION('ref_axis',(1.,0.,0.));
#271=DIRECTION('center_axis',(0.,0.,1.));
#272=DIRECTION('ref_axis',(-1.,0.,0.));
#273=DIRECTION('center_axis',(0.,0.,1.));
#274=DIRECTION('ref_axis',(-1.,0.,0.));
#275=DIRECTION('',(0.,0.,-1.));
#276=DIRECTION('center_axis',(0.,0.,1.));
#277=DIRECTION('ref_axis',(1.,0.,0.));
#278=DIRECTION('center_axis',(0.,0.,1.));
#279=DIRECTION('ref_axis',(-1.,0.,0.));
#280=DIRECTION('center_axis',(0.,0.,-1.));
#281=DIRECTION('ref_axis',(-1.,0.,0.));
#282=DIRECTION('center_axis',(0.,0.,-1.));
#283=DIRECTION('ref_axis',(-1.,0.,0.));
#284=DIRECTION('',(0.707106781186546,8.65956056235491E-17,-0.707106781186549));
#285=DIRECTION('center_axis',(0.,0.,1.));
#286=DIRECTION('ref_axis',(1.,0.,0.));
#287=DIRECTION('center_axis',(0.,0.,-1.));
#288=DIRECTION('ref_axis',(1.,0.,0.));
#289=DIRECTION('center_axis',(0.,0.,1.));
#290=DIRECTION('ref_axis',(1.,0.,0.));
#291=DIRECTION('center_axis',(0.,0.,-1.));
#292=DIRECTION('ref_axis',(1.,0.,0.));
#293=DIRECTION('',(0.,0.,1.));
#294=DIRECTION('center_axis',(0.,0.,-1.));
#295=DIRECTION('ref_axis',(1.,0.,0.));
#296=DIRECTION('center_axis',(0.,0.,1.));
#297=DIRECTION('ref_axis',(-1.,0.,0.));
#298=DIRECTION('',(0.,0.,1.));
#299=DIRECTION('center_axis',(0.,0.,1.));
#300=DIRECTION('ref_axis',(-1.,0.,0.));
#301=DIRECTION('center_axis',(0.,0.,-1.));
#302=DIRECTION('ref_axis',(-1.,0.,0.));
#303=DIRECTION('center_axis',(0.,0.,-1.));
#304=DIRECTION('ref_axis',(-1.,0.,0.));
#305=DIRECTION('center_axis',(0.,0.,1.));
#306=DIRECTION('ref_axis',(-1.,0.,0.));
#307=DIRECTION('',(0.,0.,-1.));
#308=DIRECTION('center_axis',(0.,0.,1.));
#309=DIRECTION('ref_axis',(-1.,0.,0.));
#310=DIRECTION('center_axis',(0.,0.,-1.));
#311=DIRECTION('ref_axis',(1.,0.,0.));
#312=DIRECTION('',(0.,0.,-1.));
#313=DIRECTION('center_axis',(0.,0.,-1.));
#314=DIRECTION('ref_axis',(1.,0.,0.));
#315=DIRECTION('center_axis',(0.,0.,1.));
#316=DIRECTION('ref_axis',(1.,0.,0.));
#317=DIRECTION('center_axis',(0.,0.,1.));
#318=DIRECTION('ref_axis',(-1.,0.,0.));
#319=DIRECTION('center_axis',(0.,0.,-1.));
#320=DIRECTION('ref_axis',(-1.,0.,0.));
#321=DIRECTION('',(0.,0.,-1.));
#322=DIRECTION('center_axis',(0.,0.,-1.));
#323=DIRECTION('ref_axis',(-1.,0.,0.));
#324=DIRECTION('center_axis',(0.,0.,1.));
#325=DIRECTION('ref_axis',(1.,0.,0.));
#326=DIRECTION('center_axis',(0.,0.,1.));
#327=DIRECTION('ref_axis',(1.,0.,0.));
#328=CARTESIAN_POINT('',(0.,0.,0.));
#329=CARTESIAN_POINT('Origin',(0.,0.,0.125));
#330=CARTESIAN_POINT('',(11.025,-1.35017309605996E-15,0.25));
#331=CARTESIAN_POINT('',(-11.025,-1.35017309605996E-15,0.25));
#332=CARTESIAN_POINT('Origin',(0.,0.,0.25));
#333=CARTESIAN_POINT('Origin',(0.,0.,0.25));
#334=CARTESIAN_POINT('',(10.775,1.31955692608127E-15,0.));
#335=CARTESIAN_POINT('',(10.9,1.33486501107062E-15,0.125));
#336=CARTESIAN_POINT('Origin',(0.,0.,0.));
#337=CARTESIAN_POINT('Origin',(0.,0.,0.));
#338=CARTESIAN_POINT('',(11.025,1.35017309605996E-15,6.75));
#339=CARTESIAN_POINT('',(-11.025,-1.35017309605996E-15,6.75));
#340=CARTESIAN_POINT('Origin',(0.,0.,6.75));
#341=CARTESIAN_POINT('Origin',(0.,0.,6.75));
#342=CARTESIAN_POINT('',(-11.025,-1.35017309605996E-15,0.));
#343=CARTESIAN_POINT('Origin',(0.,0.,0.));
#344=CARTESIAN_POINT('',(10.025,1.22770841614522E-15,0.));
#345=CARTESIAN_POINT('Origin',(0.,0.,0.));
#346=CARTESIAN_POINT('Origin',(0.,0.,6.875));
#347=CARTESIAN_POINT('',(10.775,-1.31955692608127E-15,7.));
#348=CARTESIAN_POINT('Origin',(0.,0.,7.));
#349=CARTESIAN_POINT('',(10.9,1.33486501107062E-15,6.875));
#350=CARTESIAN_POINT('Origin',(0.,0.,7.));
#351=CARTESIAN_POINT('',(-10.025,1.22770841614522E-15,7.));
#352=CARTESIAN_POINT('Origin',(0.,0.,7.));
#353=CARTESIAN_POINT('Origin',(0.,0.,0.));
#354=CARTESIAN_POINT('',(-5.05,6.18446633569413E-16,0.));
#355=CARTESIAN_POINT('Origin',(0.,0.,0.));
#356=CARTESIAN_POINT('',(-5.05,6.18446633569413E-16,0.25));
#357=CARTESIAN_POINT('',(-5.05,-6.18446633569413E-16,0.));
#358=CARTESIAN_POINT('Origin',(0.,0.,0.25));
#359=CARTESIAN_POINT('Origin',(0.,0.,0.));
#360=CARTESIAN_POINT('',(10.025,1.22770841614522E-15,0.25));
#361=CARTESIAN_POINT('',(10.025,1.22770841614522E-15,0.));
#362=CARTESIAN_POINT('Origin',(0.,0.,0.25));
#363=CARTESIAN_POINT('Origin',(0.,0.,0.25));
#364=CARTESIAN_POINT('Origin',(0.,0.,7.));
#365=CARTESIAN_POINT('',(5.05,6.18446633569413E-16,7.));
#366=CARTESIAN_POINT('Origin',(0.,0.,7.));
#367=CARTESIAN_POINT('',(5.05,6.18446633569413E-16,6.75));
#368=CARTESIAN_POINT('',(5.05,-6.18446633569413E-16,7.));
#369=CARTESIAN_POINT('Origin',(0.,0.,6.75));
#370=CARTESIAN_POINT('Origin',(0.,0.,7.));
#371=CARTESIAN_POINT('',(-10.025,1.22770841614522E-15,6.75));
#372=CARTESIAN_POINT('',(-10.025,1.22770841614522E-15,7.));
#373=CARTESIAN_POINT('Origin',(0.,0.,6.75));
#374=CARTESIAN_POINT('Origin',(0.,0.,6.75));
#375=CARTESIAN_POINT('Origin',(0.,0.,0.));
#376=CARTESIAN_POINT('',(4.05,4.95981953654678E-16,7.));
#377=CARTESIAN_POINT('Origin',(0.,0.,7.));
#378=CARTESIAN_POINT('',(4.05,4.95981953654678E-16,0.));
#379=CARTESIAN_POINT('',(4.05,4.95981953654678E-16,0.));
#380=CARTESIAN_POINT('Origin',(0.,0.,0.));
#381=CARTESIAN_POINT('Origin',(0.,0.,7.));
#382=CARTESIAN_POINT('Origin',(0.,0.,0.));
#383=UNCERTAINTY_MEASURE_WITH_UNIT(LENGTH_MEASURE(0.01),#387,
'DISTANCE_ACCURACY_VALUE',
'Maximum model space distance between geometric entities at asserted c
onnectivities');
#384=UNCERTAINTY_MEASURE_WITH_UNIT(LENGTH_MEASURE(0.01),#387,
'DISTANCE_ACCURACY_VALUE',
'Maximum model space distance between geometric entities at asserted c
onnectivities');
#385=(
GEOMETRIC_REPRESENTATION_CONTEXT(3)
GLOBAL_UNCERTAINTY_ASSIGNED_CONTEXT((#383))
GLOBAL_UNIT_ASSIGNED_CONTEXT((#387,#389,#390))
REPRESENTATION_CONTEXT('','3D')
);
#386=(
GEOMETRIC_REPRESENTATION_CONTEXT(3)
GLOBAL_UNCERTAINTY_ASSIGNED_CONTEXT((#384))
GLOBAL_UNIT_ASSIGNED_CONTEXT((#387,#389,#390))
REPRESENTATION_CONTEXT('','3D')
);
#387=(
LENGTH_UNIT()
NAMED_UNIT(*)
SI_UNIT(.MILLI.,.METRE.)
);
#388=(
LENGTH_UNIT()
NAMED_UNIT(*)
SI_UNIT(.CENTI.,.METRE.)
);
#389=(
NAMED_UNIT(*)
PLANE_ANGLE_UNIT()
SI_UNIT($,.RADIAN.)
);
#390=(
NAMED_UNIT(*)
SI_UNIT($,.STERADIAN.)
SOLID_ANGLE_UNIT()
);
#391=SHAPE_DEFINITION_REPRESENTATION(#392,#393);
#392=PRODUCT_DEFINITION_SHAPE('',$,#395);
#393=SHAPE_REPRESENTATION('',(#227),#385);
#394=PRODUCT_DEFINITION_CONTEXT('part definition',#399,'design');
#395=PRODUCT_DEFINITION('bearing_22x8x7','bearing_22x8x7',#396,#394);
#396=PRODUCT_DEFINITION_FORMATION('',$,#401);
#397=PRODUCT_RELATED_PRODUCT_CATEGORY('bearing_22x8x7','bearing_22x8x7',
(#401));
#398=APPLICATION_PROTOCOL_DEFINITION('international standard',
'automotive_design',2009,#399);
#399=APPLICATION_CONTEXT(
'Core Data for Automotive Mechanical Design Process');
#400=PRODUCT_CONTEXT('part definition',#399,'mechanical');
#401=PRODUCT('bearing_22x8x7','bearing_22x8x7',$,(#400));
#402=PRESENTATION_STYLE_ASSIGNMENT((#404));
#403=PRESENTATION_STYLE_ASSIGNMENT((#405));
#404=SURFACE_STYLE_USAGE(.BOTH.,#410);
#405=SURFACE_STYLE_USAGE(.BOTH.,#411);
#406=SURFACE_STYLE_RENDERING_WITH_PROPERTIES($,#418,(#408));
#407=SURFACE_STYLE_RENDERING_WITH_PROPERTIES($,#419,(#409));
#408=SURFACE_STYLE_TRANSPARENT(0.);
#409=SURFACE_STYLE_TRANSPARENT(0.);
#410=SURFACE_SIDE_STYLE('',(#412,#406));
#411=SURFACE_SIDE_STYLE('',(#413,#407));
#412=SURFACE_STYLE_FILL_AREA(#414);
#413=SURFACE_STYLE_FILL_AREA(#415);
#414=FILL_AREA_STYLE('',(#416));
#415=FILL_AREA_STYLE('',(#417));
#416=FILL_AREA_STYLE_COLOUR('',#418);
#417=FILL_AREA_STYLE_COLOUR('',#419);
#418=COLOUR_RGB('',0.749019607843137,0.749019607843137,0.749019607843137);
#419=COLOUR_RGB('',0.,0.,0.);
ENDSEC;
END-ISO-10303-21;
