ISO-10303-21;
HEADER;
/* Generated by software containing ST-Developer
 * from STEP Tools, Inc. (www.steptools.com) 
 */

FILE_DESCRIPTION(
/* description */ (''),
/* implementation_level */ '2;1');

FILE_NAME(
/* name */ 'output_support.stp',
/* time_stamp */ '2026-05-07T12:29:28-07:00',
/* author */ ('aaron'),
/* organization */ (''),
/* preprocessor_version */ 'ST-DEVELOPER v20.1',
/* originating_system */ 'Autodesk Inventor 2026',
/* authorisation */ '');

FILE_SCHEMA (('AUTOMOTIVE_DESIGN { 1 0 10303 214 3 1 1 }'));
ENDSEC;

DATA;
#10=MECHANICAL_DESIGN_GEOMETRIC_PRESENTATION_REPRESENTATION('',(#13),#1291);
#11=SHAPE_REPRESENTATION_RELATIONSHIP('SRR','None',#1298,#12);
#12=ADVANCED_BREP_SHAPE_REPRESENTATION('',(#14),#1290);
#13=STYLED_ITEM('',(#1307),#14);
#14=MANIFOLD_SOLID_BREP('Solid1',#754);
#15=FACE_BOUND('',#90,.T.);
#16=FACE_BOUND('',#91,.T.);
#17=FACE_BOUND('',#92,.T.);
#18=FACE_BOUND('',#93,.T.);
#19=FACE_BOUND('',#94,.T.);
#20=FACE_BOUND('',#95,.T.);
#21=FACE_BOUND('',#96,.T.);
#22=FACE_BOUND('',#97,.T.);
#23=FACE_BOUND('',#98,.T.);
#24=FACE_BOUND('',#133,.T.);
#25=FACE_BOUND('',#134,.T.);
#26=FACE_BOUND('',#135,.T.);
#27=FACE_BOUND('',#136,.T.);
#28=FACE_BOUND('',#137,.T.);
#29=FACE_BOUND('',#138,.T.);
#30=FACE_BOUND('',#139,.T.);
#31=FACE_BOUND('',#140,.T.);
#32=FACE_BOUND('',#141,.T.);
#33=PLANE('',#780);
#34=PLANE('',#781);
#35=PLANE('',#803);
#36=PLANE('',#808);
#37=PLANE('',#815);
#38=PLANE('',#816);
#39=PLANE('',#817);
#40=PLANE('',#818);
#41=PLANE('',#825);
#42=PLANE('',#828);
#43=PLANE('',#843);
#44=PLANE('',#846);
#45=PLANE('',#849);
#46=PLANE('',#850);
#47=PLANE('',#851);
#48=PLANE('',#852);
#49=PLANE('',#853);
#50=FACE_OUTER_BOUND('',#87,.T.);
#51=FACE_OUTER_BOUND('',#88,.T.);
#52=FACE_OUTER_BOUND('',#89,.T.);
#53=FACE_OUTER_BOUND('',#99,.T.);
#54=FACE_OUTER_BOUND('',#100,.T.);
#55=FACE_OUTER_BOUND('',#101,.T.);
#56=FACE_OUTER_BOUND('',#102,.T.);
#57=FACE_OUTER_BOUND('',#103,.T.);
#58=FACE_OUTER_BOUND('',#104,.T.);
#59=FACE_OUTER_BOUND('',#105,.T.);
#60=FACE_OUTER_BOUND('',#106,.T.);
#61=FACE_OUTER_BOUND('',#107,.T.);
#62=FACE_OUTER_BOUND('',#108,.T.);
#63=FACE_OUTER_BOUND('',#109,.T.);
#64=FACE_OUTER_BOUND('',#110,.T.);
#65=FACE_OUTER_BOUND('',#111,.T.);
#66=FACE_OUTER_BOUND('',#112,.T.);
#67=FACE_OUTER_BOUND('',#113,.T.);
#68=FACE_OUTER_BOUND('',#114,.T.);
#69=FACE_OUTER_BOUND('',#115,.T.);
#70=FACE_OUTER_BOUND('',#116,.T.);
#71=FACE_OUTER_BOUND('',#117,.T.);
#72=FACE_OUTER_BOUND('',#118,.T.);
#73=FACE_OUTER_BOUND('',#119,.T.);
#74=FACE_OUTER_BOUND('',#120,.T.);
#75=FACE_OUTER_BOUND('',#121,.T.);
#76=FACE_OUTER_BOUND('',#122,.T.);
#77=FACE_OUTER_BOUND('',#123,.T.);
#78=FACE_OUTER_BOUND('',#124,.T.);
#79=FACE_OUTER_BOUND('',#125,.T.);
#80=FACE_OUTER_BOUND('',#126,.T.);
#81=FACE_OUTER_BOUND('',#127,.T.);
#82=FACE_OUTER_BOUND('',#128,.T.);
#83=FACE_OUTER_BOUND('',#129,.T.);
#84=FACE_OUTER_BOUND('',#130,.T.);
#85=FACE_OUTER_BOUND('',#131,.T.);
#86=FACE_OUTER_BOUND('',#132,.T.);
#87=EDGE_LOOP('',(#487,#488,#489,#490));
#88=EDGE_LOOP('',(#491,#492,#493,#494));
#89=EDGE_LOOP('',(#495,#496,#497,#498,#499,#500,#501,#502,#503,#504,#505,
#506,#507,#508,#509,#510,#511,#512,#513,#514,#515,#516,#517));
#90=EDGE_LOOP('',(#518));
#91=EDGE_LOOP('',(#519));
#92=EDGE_LOOP('',(#520));
#93=EDGE_LOOP('',(#521));
#94=EDGE_LOOP('',(#522));
#95=EDGE_LOOP('',(#523));
#96=EDGE_LOOP('',(#524,#525,#526,#527));
#97=EDGE_LOOP('',(#528));
#98=EDGE_LOOP('',(#529));
#99=EDGE_LOOP('',(#530,#531,#532,#533));
#100=EDGE_LOOP('',(#534,#535,#536,#537));
#101=EDGE_LOOP('',(#538,#539,#540,#541));
#102=EDGE_LOOP('',(#542,#543,#544,#545));
#103=EDGE_LOOP('',(#546,#547,#548,#549));
#104=EDGE_LOOP('',(#550,#551,#552,#553));
#105=EDGE_LOOP('',(#554,#555,#556,#557));
#106=EDGE_LOOP('',(#558,#559,#560,#561));
#107=EDGE_LOOP('',(#562,#563,#564,#565));
#108=EDGE_LOOP('',(#566,#567,#568,#569));
#109=EDGE_LOOP('',(#570,#571,#572,#573));
#110=EDGE_LOOP('',(#574,#575,#576,#577));
#111=EDGE_LOOP('',(#578,#579,#580,#581));
#112=EDGE_LOOP('',(#582,#583,#584,#585));
#113=EDGE_LOOP('',(#586,#587,#588,#589));
#114=EDGE_LOOP('',(#590,#591,#592,#593));
#115=EDGE_LOOP('',(#594,#595,#596,#597));
#116=EDGE_LOOP('',(#598,#599,#600,#601));
#117=EDGE_LOOP('',(#602,#603,#604,#605));
#118=EDGE_LOOP('',(#606,#607,#608,#609));
#119=EDGE_LOOP('',(#610,#611,#612,#613));
#120=EDGE_LOOP('',(#614,#615,#616,#617));
#121=EDGE_LOOP('',(#618,#619,#620,#621));
#122=EDGE_LOOP('',(#622,#623,#624,#625));
#123=EDGE_LOOP('',(#626,#627,#628,#629));
#124=EDGE_LOOP('',(#630,#631,#632,#633));
#125=EDGE_LOOP('',(#634,#635,#636,#637));
#126=EDGE_LOOP('',(#638,#639,#640,#641));
#127=EDGE_LOOP('',(#642,#643,#644,#645));
#128=EDGE_LOOP('',(#646,#647,#648,#649));
#129=EDGE_LOOP('',(#650,#651,#652,#653));
#130=EDGE_LOOP('',(#654,#655,#656,#657));
#131=EDGE_LOOP('',(#658,#659,#660,#661));
#132=EDGE_LOOP('',(#662,#663,#664,#665,#666,#667,#668,#669,#670,#671,#672,
#673,#674,#675,#676,#677,#678,#679,#680,#681,#682,#683,#684));
#133=EDGE_LOOP('',(#685));
#134=EDGE_LOOP('',(#686));
#135=EDGE_LOOP('',(#687,#688,#689,#690));
#136=EDGE_LOOP('',(#691));
#137=EDGE_LOOP('',(#692));
#138=EDGE_LOOP('',(#693));
#139=EDGE_LOOP('',(#694));
#140=EDGE_LOOP('',(#695));
#141=EDGE_LOOP('',(#696));
#142=LINE('',#1081,#207);
#143=LINE('',#1084,#208);
#144=LINE('',#1087,#209);
#145=LINE('',#1089,#210);
#146=LINE('',#1090,#211);
#147=LINE('',#1093,#212);
#148=LINE('',#1097,#213);
#149=LINE('',#1101,#214);
#150=LINE('',#1105,#215);
#151=LINE('',#1109,#216);
#152=LINE('',#1111,#217);
#153=LINE('',#1115,#218);
#154=LINE('',#1119,#219);
#155=LINE('',#1127,#220);
#156=LINE('',#1131,#221);
#157=LINE('',#1147,#222);
#158=LINE('',#1149,#223);
#159=LINE('',#1151,#224);
#160=LINE('',#1152,#225);
#161=LINE('',#1161,#226);
#162=LINE('',#1162,#227);
#163=LINE('',#1165,#228);
#164=LINE('',#1166,#229);
#165=LINE('',#1170,#230);
#166=LINE('',#1175,#231);
#167=LINE('',#1176,#232);
#168=LINE('',#1179,#233);
#169=LINE('',#1180,#234);
#170=LINE('',#1184,#235);
#171=LINE('',#1187,#236);
#172=LINE('',#1191,#237);
#173=LINE('',#1196,#238);
#174=LINE('',#1197,#239);
#175=LINE('',#1198,#240);
#176=LINE('',#1201,#241);
#177=LINE('',#1202,#242);
#178=LINE('',#1205,#243);
#179=LINE('',#1206,#244);
#180=LINE('',#1208,#245);
#181=LINE('',#1211,#246);
#182=LINE('',#1215,#247);
#183=LINE('',#1221,#248);
#184=LINE('',#1222,#249);
#185=LINE('',#1225,#250);
#186=LINE('',#1226,#251);
#187=LINE('',#1231,#252);
#188=LINE('',#1232,#253);
#189=LINE('',#1235,#254);
#190=LINE('',#1236,#255);
#191=LINE('',#1240,#256);
#192=LINE('',#1244,#257);
#193=LINE('',#1248,#258);
#194=LINE('',#1252,#259);
#195=LINE('',#1256,#260);
#196=LINE('',#1260,#261);
#197=LINE('',#1263,#262);
#198=LINE('',#1266,#263);
#199=LINE('',#1268,#264);
#200=LINE('',#1273,#265);
#201=LINE('',#1274,#266);
#202=LINE('',#1278,#267);
#203=LINE('',#1280,#268);
#204=LINE('',#1283,#269);
#205=LINE('',#1284,#270);
#206=LINE('',#1286,#271);
#207=VECTOR('',#860,10.);
#208=VECTOR('',#863,10.);
#209=VECTOR('',#866,10.);
#210=VECTOR('',#867,10.);
#211=VECTOR('',#868,10.);
#212=VECTOR('',#871,10.);
#213=VECTOR('',#874,10.);
#214=VECTOR('',#877,10.);
#215=VECTOR('',#880,10.);
#216=VECTOR('',#883,10.);
#217=VECTOR('',#884,10.);
#218=VECTOR('',#887,10.);
#219=VECTOR('',#890,10.);
#220=VECTOR('',#897,10.);
#221=VECTOR('',#900,10.);
#222=VECTOR('',#915,10.);
#223=VECTOR('',#916,10.);
#224=VECTOR('',#917,10.);
#225=VECTOR('',#918,10.);
#226=VECTOR('',#927,10.);
#227=VECTOR('',#928,10.);
#228=VECTOR('',#931,10.);
#229=VECTOR('',#932,10.);
#230=VECTOR('',#937,10.);
#231=VECTOR('',#942,10.);
#232=VECTOR('',#943,10.);
#233=VECTOR('',#946,10.);
#234=VECTOR('',#947,10.);
#235=VECTOR('',#952,10.);
#236=VECTOR('',#955,1.6);
#237=VECTOR('',#960,2.65);
#238=VECTOR('',#965,10.);
#239=VECTOR('',#966,10.);
#240=VECTOR('',#967,10.);
#241=VECTOR('',#970,10.);
#242=VECTOR('',#971,10.);
#243=VECTOR('',#974,10.);
#244=VECTOR('',#975,10.);
#245=VECTOR('',#978,10.);
#246=VECTOR('',#981,4.05);
#247=VECTOR('',#986,4.05);
#248=VECTOR('',#993,10.);
#249=VECTOR('',#994,10.);
#250=VECTOR('',#997,10.);
#251=VECTOR('',#998,10.);
#252=VECTOR('',#1003,10.);
#253=VECTOR('',#1004,10.);
#254=VECTOR('',#1007,10.);
#255=VECTOR('',#1008,10.);
#256=VECTOR('',#1013,10.);
#257=VECTOR('',#1018,10.);
#258=VECTOR('',#1023,2.15000000000073);
#259=VECTOR('',#1028,2.15000000000073);
#260=VECTOR('',#1033,2.15000000000073);
#261=VECTOR('',#1038,2.15000000000073);
#262=VECTOR('',#1041,10.);
#263=VECTOR('',#1044,10.);
#264=VECTOR('',#1047,10.);
#265=VECTOR('',#1054,10.);
#266=VECTOR('',#1055,10.);
#267=VECTOR('',#1062,10.);
#268=VECTOR('',#1065,10.);
#269=VECTOR('',#1068,10.);
#270=VECTOR('',#1069,10.);
#271=VECTOR('',#1072,10.);
#272=CIRCLE('',#778,6.);
#273=CIRCLE('',#779,6.);
#274=CIRCLE('',#782,6.);
#275=CIRCLE('',#783,6.);
#276=CIRCLE('',#784,6.);
#277=CIRCLE('',#785,6.);
#278=CIRCLE('',#786,20.000000000005);
#279=CIRCLE('',#787,6.);
#280=CIRCLE('',#788,6.);
#281=CIRCLE('',#789,50.);
#282=CIRCLE('',#790,6.);
#283=CIRCLE('',#791,6.);
#284=CIRCLE('',#792,20.000000000005);
#285=CIRCLE('',#793,2.15000000000073);
#286=CIRCLE('',#794,2.15000000000073);
#287=CIRCLE('',#795,2.15000000000073);
#288=CIRCLE('',#796,2.15000000000073);
#289=CIRCLE('',#797,4.05);
#290=CIRCLE('',#798,4.05);
#291=CIRCLE('',#799,2.65);
#292=CIRCLE('',#800,1.6);
#293=CIRCLE('',#802,6.);
#294=CIRCLE('',#805,6.);
#295=CIRCLE('',#807,6.);
#296=CIRCLE('',#810,6.);
#297=CIRCLE('',#812,1.6);
#298=CIRCLE('',#814,2.65);
#299=CIRCLE('',#820,4.05);
#300=CIRCLE('',#822,4.05);
#301=CIRCLE('',#824,6.);
#302=CIRCLE('',#827,6.);
#303=CIRCLE('',#830,6.);
#304=CIRCLE('',#832,6.);
#305=CIRCLE('',#834,2.15000000000073);
#306=CIRCLE('',#836,2.15000000000073);
#307=CIRCLE('',#838,2.15000000000073);
#308=CIRCLE('',#840,2.15000000000073);
#309=CIRCLE('',#842,20.000000000005);
#310=CIRCLE('',#845,50.);
#311=CIRCLE('',#848,20.000000000005);
#312=VERTEX_POINT('',#1077);
#313=VERTEX_POINT('',#1078);
#314=VERTEX_POINT('',#1080);
#315=VERTEX_POINT('',#1082);
#316=VERTEX_POINT('',#1086);
#317=VERTEX_POINT('',#1088);
#318=VERTEX_POINT('',#1092);
#319=VERTEX_POINT('',#1094);
#320=VERTEX_POINT('',#1096);
#321=VERTEX_POINT('',#1098);
#322=VERTEX_POINT('',#1100);
#323=VERTEX_POINT('',#1102);
#324=VERTEX_POINT('',#1104);
#325=VERTEX_POINT('',#1106);
#326=VERTEX_POINT('',#1108);
#327=VERTEX_POINT('',#1110);
#328=VERTEX_POINT('',#1112);
#329=VERTEX_POINT('',#1114);
#330=VERTEX_POINT('',#1116);
#331=VERTEX_POINT('',#1118);
#332=VERTEX_POINT('',#1120);
#333=VERTEX_POINT('',#1122);
#334=VERTEX_POINT('',#1124);
#335=VERTEX_POINT('',#1126);
#336=VERTEX_POINT('',#1128);
#337=VERTEX_POINT('',#1130);
#338=VERTEX_POINT('',#1133);
#339=VERTEX_POINT('',#1135);
#340=VERTEX_POINT('',#1137);
#341=VERTEX_POINT('',#1139);
#342=VERTEX_POINT('',#1141);
#343=VERTEX_POINT('',#1143);
#344=VERTEX_POINT('',#1145);
#345=VERTEX_POINT('',#1146);
#346=VERTEX_POINT('',#1148);
#347=VERTEX_POINT('',#1150);
#348=VERTEX_POINT('',#1153);
#349=VERTEX_POINT('',#1155);
#350=VERTEX_POINT('',#1158);
#351=VERTEX_POINT('',#1159);
#352=VERTEX_POINT('',#1164);
#353=VERTEX_POINT('',#1168);
#354=VERTEX_POINT('',#1172);
#355=VERTEX_POINT('',#1173);
#356=VERTEX_POINT('',#1178);
#357=VERTEX_POINT('',#1182);
#358=VERTEX_POINT('',#1186);
#359=VERTEX_POINT('',#1190);
#360=VERTEX_POINT('',#1194);
#361=VERTEX_POINT('',#1195);
#362=VERTEX_POINT('',#1200);
#363=VERTEX_POINT('',#1204);
#364=VERTEX_POINT('',#1210);
#365=VERTEX_POINT('',#1214);
#366=VERTEX_POINT('',#1218);
#367=VERTEX_POINT('',#1219);
#368=VERTEX_POINT('',#1224);
#369=VERTEX_POINT('',#1228);
#370=VERTEX_POINT('',#1229);
#371=VERTEX_POINT('',#1234);
#372=VERTEX_POINT('',#1238);
#373=VERTEX_POINT('',#1242);
#374=VERTEX_POINT('',#1246);
#375=VERTEX_POINT('',#1250);
#376=VERTEX_POINT('',#1254);
#377=VERTEX_POINT('',#1258);
#378=VERTEX_POINT('',#1262);
#379=VERTEX_POINT('',#1264);
#380=VERTEX_POINT('',#1272);
#381=VERTEX_POINT('',#1282);
#382=EDGE_CURVE('',#312,#313,#272,.T.);
#383=EDGE_CURVE('',#313,#314,#142,.T.);
#384=EDGE_CURVE('',#314,#315,#273,.T.);
#385=EDGE_CURVE('',#315,#312,#143,.T.);
#386=EDGE_CURVE('',#315,#316,#144,.T.);
#387=EDGE_CURVE('',#316,#317,#145,.T.);
#388=EDGE_CURVE('',#312,#317,#146,.T.);
#389=EDGE_CURVE('',#318,#314,#147,.T.);
#390=EDGE_CURVE('',#319,#318,#274,.T.);
#391=EDGE_CURVE('',#320,#319,#148,.T.);
#392=EDGE_CURVE('',#321,#320,#275,.T.);
#393=EDGE_CURVE('',#322,#321,#149,.T.);
#394=EDGE_CURVE('',#323,#322,#276,.T.);
#395=EDGE_CURVE('',#324,#323,#150,.T.);
#396=EDGE_CURVE('',#325,#324,#277,.T.);
#397=EDGE_CURVE('',#326,#325,#151,.T.);
#398=EDGE_CURVE('',#327,#326,#152,.T.);
#399=EDGE_CURVE('',#328,#327,#278,.T.);
#400=EDGE_CURVE('',#329,#328,#153,.T.);
#401=EDGE_CURVE('',#330,#329,#279,.T.);
#402=EDGE_CURVE('',#331,#330,#154,.T.);
#403=EDGE_CURVE('',#332,#331,#280,.T.);
#404=EDGE_CURVE('',#333,#332,#281,.T.);
#405=EDGE_CURVE('',#334,#333,#282,.T.);
#406=EDGE_CURVE('',#335,#334,#155,.T.);
#407=EDGE_CURVE('',#336,#335,#283,.T.);
#408=EDGE_CURVE('',#337,#336,#156,.T.);
#409=EDGE_CURVE('',#316,#337,#284,.T.);
#410=EDGE_CURVE('',#338,#338,#285,.T.);
#411=EDGE_CURVE('',#339,#339,#286,.T.);
#412=EDGE_CURVE('',#340,#340,#287,.T.);
#413=EDGE_CURVE('',#341,#341,#288,.T.);
#414=EDGE_CURVE('',#342,#342,#289,.T.);
#415=EDGE_CURVE('',#343,#343,#290,.T.);
#416=EDGE_CURVE('',#344,#345,#157,.T.);
#417=EDGE_CURVE('',#345,#346,#158,.T.);
#418=EDGE_CURVE('',#346,#347,#159,.T.);
#419=EDGE_CURVE('',#347,#344,#160,.T.);
#420=EDGE_CURVE('',#348,#348,#291,.T.);
#421=EDGE_CURVE('',#349,#349,#292,.T.);
#422=EDGE_CURVE('',#350,#351,#293,.T.);
#423=EDGE_CURVE('',#351,#319,#161,.T.);
#424=EDGE_CURVE('',#318,#350,#162,.T.);
#425=EDGE_CURVE('',#352,#351,#163,.T.);
#426=EDGE_CURVE('',#320,#352,#164,.T.);
#427=EDGE_CURVE('',#352,#353,#294,.T.);
#428=EDGE_CURVE('',#353,#321,#165,.T.);
#429=EDGE_CURVE('',#354,#355,#295,.T.);
#430=EDGE_CURVE('',#355,#323,#166,.T.);
#431=EDGE_CURVE('',#322,#354,#167,.T.);
#432=EDGE_CURVE('',#356,#355,#168,.T.);
#433=EDGE_CURVE('',#324,#356,#169,.T.);
#434=EDGE_CURVE('',#356,#357,#296,.T.);
#435=EDGE_CURVE('',#357,#325,#170,.T.);
#436=EDGE_CURVE('',#349,#358,#171,.T.);
#437=EDGE_CURVE('',#358,#358,#297,.T.);
#438=EDGE_CURVE('',#348,#359,#172,.T.);
#439=EDGE_CURVE('',#359,#359,#298,.T.);
#440=EDGE_CURVE('',#360,#361,#173,.T.);
#441=EDGE_CURVE('',#360,#347,#174,.T.);
#442=EDGE_CURVE('',#346,#361,#175,.T.);
#443=EDGE_CURVE('',#361,#362,#176,.T.);
#444=EDGE_CURVE('',#362,#345,#177,.T.);
#445=EDGE_CURVE('',#362,#363,#178,.T.);
#446=EDGE_CURVE('',#344,#363,#179,.T.);
#447=EDGE_CURVE('',#363,#360,#180,.T.);
#448=EDGE_CURVE('',#343,#364,#181,.T.);
#449=EDGE_CURVE('',#364,#364,#299,.T.);
#450=EDGE_CURVE('',#342,#365,#182,.T.);
#451=EDGE_CURVE('',#365,#365,#300,.T.);
#452=EDGE_CURVE('',#366,#367,#301,.T.);
#453=EDGE_CURVE('',#367,#332,#183,.T.);
#454=EDGE_CURVE('',#331,#366,#184,.T.);
#455=EDGE_CURVE('',#368,#330,#185,.T.);
#456=EDGE_CURVE('',#366,#368,#186,.T.);
#457=EDGE_CURVE('',#369,#370,#302,.T.);
#458=EDGE_CURVE('',#370,#334,#187,.T.);
#459=EDGE_CURVE('',#333,#369,#188,.T.);
#460=EDGE_CURVE('',#371,#370,#189,.T.);
#461=EDGE_CURVE('',#335,#371,#190,.T.);
#462=EDGE_CURVE('',#371,#372,#303,.T.);
#463=EDGE_CURVE('',#372,#336,#191,.T.);
#464=EDGE_CURVE('',#373,#368,#304,.T.);
#465=EDGE_CURVE('',#329,#373,#192,.T.);
#466=EDGE_CURVE('',#374,#374,#305,.T.);
#467=EDGE_CURVE('',#374,#338,#193,.T.);
#468=EDGE_CURVE('',#375,#375,#306,.T.);
#469=EDGE_CURVE('',#375,#339,#194,.T.);
#470=EDGE_CURVE('',#376,#376,#307,.T.);
#471=EDGE_CURVE('',#376,#340,#195,.T.);
#472=EDGE_CURVE('',#377,#377,#308,.T.);
#473=EDGE_CURVE('',#377,#341,#196,.T.);
#474=EDGE_CURVE('',#327,#378,#197,.T.);
#475=EDGE_CURVE('',#379,#378,#309,.T.);
#476=EDGE_CURVE('',#328,#379,#198,.T.);
#477=EDGE_CURVE('',#373,#379,#199,.T.);
#478=EDGE_CURVE('',#369,#367,#310,.T.);
#479=EDGE_CURVE('',#380,#372,#200,.T.);
#480=EDGE_CURVE('',#337,#380,#201,.T.);
#481=EDGE_CURVE('',#317,#380,#311,.T.);
#482=EDGE_CURVE('',#350,#313,#202,.T.);
#483=EDGE_CURVE('',#354,#353,#203,.T.);
#484=EDGE_CURVE('',#381,#357,#204,.T.);
#485=EDGE_CURVE('',#326,#381,#205,.T.);
#486=EDGE_CURVE('',#378,#381,#206,.T.);
#487=ORIENTED_EDGE('',*,*,#382,.T.);
#488=ORIENTED_EDGE('',*,*,#383,.T.);
#489=ORIENTED_EDGE('',*,*,#384,.T.);
#490=ORIENTED_EDGE('',*,*,#385,.T.);
#491=ORIENTED_EDGE('',*,*,#385,.F.);
#492=ORIENTED_EDGE('',*,*,#386,.T.);
#493=ORIENTED_EDGE('',*,*,#387,.T.);
#494=ORIENTED_EDGE('',*,*,#388,.F.);
#495=ORIENTED_EDGE('',*,*,#384,.F.);
#496=ORIENTED_EDGE('',*,*,#389,.F.);
#497=ORIENTED_EDGE('',*,*,#390,.F.);
#498=ORIENTED_EDGE('',*,*,#391,.F.);
#499=ORIENTED_EDGE('',*,*,#392,.F.);
#500=ORIENTED_EDGE('',*,*,#393,.F.);
#501=ORIENTED_EDGE('',*,*,#394,.F.);
#502=ORIENTED_EDGE('',*,*,#395,.F.);
#503=ORIENTED_EDGE('',*,*,#396,.F.);
#504=ORIENTED_EDGE('',*,*,#397,.F.);
#505=ORIENTED_EDGE('',*,*,#398,.F.);
#506=ORIENTED_EDGE('',*,*,#399,.F.);
#507=ORIENTED_EDGE('',*,*,#400,.F.);
#508=ORIENTED_EDGE('',*,*,#401,.F.);
#509=ORIENTED_EDGE('',*,*,#402,.F.);
#510=ORIENTED_EDGE('',*,*,#403,.F.);
#511=ORIENTED_EDGE('',*,*,#404,.F.);
#512=ORIENTED_EDGE('',*,*,#405,.F.);
#513=ORIENTED_EDGE('',*,*,#406,.F.);
#514=ORIENTED_EDGE('',*,*,#407,.F.);
#515=ORIENTED_EDGE('',*,*,#408,.F.);
#516=ORIENTED_EDGE('',*,*,#409,.F.);
#517=ORIENTED_EDGE('',*,*,#386,.F.);
#518=ORIENTED_EDGE('',*,*,#410,.F.);
#519=ORIENTED_EDGE('',*,*,#411,.F.);
#520=ORIENTED_EDGE('',*,*,#412,.F.);
#521=ORIENTED_EDGE('',*,*,#413,.F.);
#522=ORIENTED_EDGE('',*,*,#414,.T.);
#523=ORIENTED_EDGE('',*,*,#415,.T.);
#524=ORIENTED_EDGE('',*,*,#416,.T.);
#525=ORIENTED_EDGE('',*,*,#417,.T.);
#526=ORIENTED_EDGE('',*,*,#418,.T.);
#527=ORIENTED_EDGE('',*,*,#419,.T.);
#528=ORIENTED_EDGE('',*,*,#420,.T.);
#529=ORIENTED_EDGE('',*,*,#421,.T.);
#530=ORIENTED_EDGE('',*,*,#422,.T.);
#531=ORIENTED_EDGE('',*,*,#423,.T.);
#532=ORIENTED_EDGE('',*,*,#390,.T.);
#533=ORIENTED_EDGE('',*,*,#424,.T.);
#534=ORIENTED_EDGE('',*,*,#423,.F.);
#535=ORIENTED_EDGE('',*,*,#425,.F.);
#536=ORIENTED_EDGE('',*,*,#426,.F.);
#537=ORIENTED_EDGE('',*,*,#391,.T.);
#538=ORIENTED_EDGE('',*,*,#427,.T.);
#539=ORIENTED_EDGE('',*,*,#428,.T.);
#540=ORIENTED_EDGE('',*,*,#392,.T.);
#541=ORIENTED_EDGE('',*,*,#426,.T.);
#542=ORIENTED_EDGE('',*,*,#429,.T.);
#543=ORIENTED_EDGE('',*,*,#430,.T.);
#544=ORIENTED_EDGE('',*,*,#394,.T.);
#545=ORIENTED_EDGE('',*,*,#431,.T.);
#546=ORIENTED_EDGE('',*,*,#430,.F.);
#547=ORIENTED_EDGE('',*,*,#432,.F.);
#548=ORIENTED_EDGE('',*,*,#433,.F.);
#549=ORIENTED_EDGE('',*,*,#395,.T.);
#550=ORIENTED_EDGE('',*,*,#434,.T.);
#551=ORIENTED_EDGE('',*,*,#435,.T.);
#552=ORIENTED_EDGE('',*,*,#396,.T.);
#553=ORIENTED_EDGE('',*,*,#433,.T.);
#554=ORIENTED_EDGE('',*,*,#421,.F.);
#555=ORIENTED_EDGE('',*,*,#436,.T.);
#556=ORIENTED_EDGE('',*,*,#437,.F.);
#557=ORIENTED_EDGE('',*,*,#436,.F.);
#558=ORIENTED_EDGE('',*,*,#420,.F.);
#559=ORIENTED_EDGE('',*,*,#438,.T.);
#560=ORIENTED_EDGE('',*,*,#439,.F.);
#561=ORIENTED_EDGE('',*,*,#438,.F.);
#562=ORIENTED_EDGE('',*,*,#440,.F.);
#563=ORIENTED_EDGE('',*,*,#441,.T.);
#564=ORIENTED_EDGE('',*,*,#418,.F.);
#565=ORIENTED_EDGE('',*,*,#442,.T.);
#566=ORIENTED_EDGE('',*,*,#443,.F.);
#567=ORIENTED_EDGE('',*,*,#442,.F.);
#568=ORIENTED_EDGE('',*,*,#417,.F.);
#569=ORIENTED_EDGE('',*,*,#444,.F.);
#570=ORIENTED_EDGE('',*,*,#445,.F.);
#571=ORIENTED_EDGE('',*,*,#444,.T.);
#572=ORIENTED_EDGE('',*,*,#416,.F.);
#573=ORIENTED_EDGE('',*,*,#446,.T.);
#574=ORIENTED_EDGE('',*,*,#447,.F.);
#575=ORIENTED_EDGE('',*,*,#446,.F.);
#576=ORIENTED_EDGE('',*,*,#419,.F.);
#577=ORIENTED_EDGE('',*,*,#441,.F.);
#578=ORIENTED_EDGE('',*,*,#415,.F.);
#579=ORIENTED_EDGE('',*,*,#448,.T.);
#580=ORIENTED_EDGE('',*,*,#449,.F.);
#581=ORIENTED_EDGE('',*,*,#448,.F.);
#582=ORIENTED_EDGE('',*,*,#414,.F.);
#583=ORIENTED_EDGE('',*,*,#450,.T.);
#584=ORIENTED_EDGE('',*,*,#451,.F.);
#585=ORIENTED_EDGE('',*,*,#450,.F.);
#586=ORIENTED_EDGE('',*,*,#452,.T.);
#587=ORIENTED_EDGE('',*,*,#453,.T.);
#588=ORIENTED_EDGE('',*,*,#403,.T.);
#589=ORIENTED_EDGE('',*,*,#454,.T.);
#590=ORIENTED_EDGE('',*,*,#454,.F.);
#591=ORIENTED_EDGE('',*,*,#402,.T.);
#592=ORIENTED_EDGE('',*,*,#455,.F.);
#593=ORIENTED_EDGE('',*,*,#456,.F.);
#594=ORIENTED_EDGE('',*,*,#457,.T.);
#595=ORIENTED_EDGE('',*,*,#458,.T.);
#596=ORIENTED_EDGE('',*,*,#405,.T.);
#597=ORIENTED_EDGE('',*,*,#459,.T.);
#598=ORIENTED_EDGE('',*,*,#458,.F.);
#599=ORIENTED_EDGE('',*,*,#460,.F.);
#600=ORIENTED_EDGE('',*,*,#461,.F.);
#601=ORIENTED_EDGE('',*,*,#406,.T.);
#602=ORIENTED_EDGE('',*,*,#462,.T.);
#603=ORIENTED_EDGE('',*,*,#463,.T.);
#604=ORIENTED_EDGE('',*,*,#407,.T.);
#605=ORIENTED_EDGE('',*,*,#461,.T.);
#606=ORIENTED_EDGE('',*,*,#464,.T.);
#607=ORIENTED_EDGE('',*,*,#455,.T.);
#608=ORIENTED_EDGE('',*,*,#401,.T.);
#609=ORIENTED_EDGE('',*,*,#465,.T.);
#610=ORIENTED_EDGE('',*,*,#466,.F.);
#611=ORIENTED_EDGE('',*,*,#467,.T.);
#612=ORIENTED_EDGE('',*,*,#410,.T.);
#613=ORIENTED_EDGE('',*,*,#467,.F.);
#614=ORIENTED_EDGE('',*,*,#468,.F.);
#615=ORIENTED_EDGE('',*,*,#469,.T.);
#616=ORIENTED_EDGE('',*,*,#411,.T.);
#617=ORIENTED_EDGE('',*,*,#469,.F.);
#618=ORIENTED_EDGE('',*,*,#470,.F.);
#619=ORIENTED_EDGE('',*,*,#471,.T.);
#620=ORIENTED_EDGE('',*,*,#412,.T.);
#621=ORIENTED_EDGE('',*,*,#471,.F.);
#622=ORIENTED_EDGE('',*,*,#472,.F.);
#623=ORIENTED_EDGE('',*,*,#473,.T.);
#624=ORIENTED_EDGE('',*,*,#413,.T.);
#625=ORIENTED_EDGE('',*,*,#473,.F.);
#626=ORIENTED_EDGE('',*,*,#399,.T.);
#627=ORIENTED_EDGE('',*,*,#474,.T.);
#628=ORIENTED_EDGE('',*,*,#475,.F.);
#629=ORIENTED_EDGE('',*,*,#476,.F.);
#630=ORIENTED_EDGE('',*,*,#465,.F.);
#631=ORIENTED_EDGE('',*,*,#400,.T.);
#632=ORIENTED_EDGE('',*,*,#476,.T.);
#633=ORIENTED_EDGE('',*,*,#477,.F.);
#634=ORIENTED_EDGE('',*,*,#453,.F.);
#635=ORIENTED_EDGE('',*,*,#478,.F.);
#636=ORIENTED_EDGE('',*,*,#459,.F.);
#637=ORIENTED_EDGE('',*,*,#404,.T.);
#638=ORIENTED_EDGE('',*,*,#463,.F.);
#639=ORIENTED_EDGE('',*,*,#479,.F.);
#640=ORIENTED_EDGE('',*,*,#480,.F.);
#641=ORIENTED_EDGE('',*,*,#408,.T.);
#642=ORIENTED_EDGE('',*,*,#409,.T.);
#643=ORIENTED_EDGE('',*,*,#480,.T.);
#644=ORIENTED_EDGE('',*,*,#481,.F.);
#645=ORIENTED_EDGE('',*,*,#387,.F.);
#646=ORIENTED_EDGE('',*,*,#383,.F.);
#647=ORIENTED_EDGE('',*,*,#482,.F.);
#648=ORIENTED_EDGE('',*,*,#424,.F.);
#649=ORIENTED_EDGE('',*,*,#389,.T.);
#650=ORIENTED_EDGE('',*,*,#428,.F.);
#651=ORIENTED_EDGE('',*,*,#483,.F.);
#652=ORIENTED_EDGE('',*,*,#431,.F.);
#653=ORIENTED_EDGE('',*,*,#393,.T.);
#654=ORIENTED_EDGE('',*,*,#435,.F.);
#655=ORIENTED_EDGE('',*,*,#484,.F.);
#656=ORIENTED_EDGE('',*,*,#485,.F.);
#657=ORIENTED_EDGE('',*,*,#397,.T.);
#658=ORIENTED_EDGE('',*,*,#398,.T.);
#659=ORIENTED_EDGE('',*,*,#485,.T.);
#660=ORIENTED_EDGE('',*,*,#486,.F.);
#661=ORIENTED_EDGE('',*,*,#474,.F.);
#662=ORIENTED_EDGE('',*,*,#382,.F.);
#663=ORIENTED_EDGE('',*,*,#388,.T.);
#664=ORIENTED_EDGE('',*,*,#481,.T.);
#665=ORIENTED_EDGE('',*,*,#479,.T.);
#666=ORIENTED_EDGE('',*,*,#462,.F.);
#667=ORIENTED_EDGE('',*,*,#460,.T.);
#668=ORIENTED_EDGE('',*,*,#457,.F.);
#669=ORIENTED_EDGE('',*,*,#478,.T.);
#670=ORIENTED_EDGE('',*,*,#452,.F.);
#671=ORIENTED_EDGE('',*,*,#456,.T.);
#672=ORIENTED_EDGE('',*,*,#464,.F.);
#673=ORIENTED_EDGE('',*,*,#477,.T.);
#674=ORIENTED_EDGE('',*,*,#475,.T.);
#675=ORIENTED_EDGE('',*,*,#486,.T.);
#676=ORIENTED_EDGE('',*,*,#484,.T.);
#677=ORIENTED_EDGE('',*,*,#434,.F.);
#678=ORIENTED_EDGE('',*,*,#432,.T.);
#679=ORIENTED_EDGE('',*,*,#429,.F.);
#680=ORIENTED_EDGE('',*,*,#483,.T.);
#681=ORIENTED_EDGE('',*,*,#427,.F.);
#682=ORIENTED_EDGE('',*,*,#425,.T.);
#683=ORIENTED_EDGE('',*,*,#422,.F.);
#684=ORIENTED_EDGE('',*,*,#482,.T.);
#685=ORIENTED_EDGE('',*,*,#437,.T.);
#686=ORIENTED_EDGE('',*,*,#439,.T.);
#687=ORIENTED_EDGE('',*,*,#445,.T.);
#688=ORIENTED_EDGE('',*,*,#447,.T.);
#689=ORIENTED_EDGE('',*,*,#440,.T.);
#690=ORIENTED_EDGE('',*,*,#443,.T.);
#691=ORIENTED_EDGE('',*,*,#449,.T.);
#692=ORIENTED_EDGE('',*,*,#451,.T.);
#693=ORIENTED_EDGE('',*,*,#472,.T.);
#694=ORIENTED_EDGE('',*,*,#470,.T.);
#695=ORIENTED_EDGE('',*,*,#468,.T.);
#696=ORIENTED_EDGE('',*,*,#466,.T.);
#697=CYLINDRICAL_SURFACE('',#777,6.);
#698=CYLINDRICAL_SURFACE('',#801,6.);
#699=CYLINDRICAL_SURFACE('',#804,6.);
#700=CYLINDRICAL_SURFACE('',#806,6.);
#701=CYLINDRICAL_SURFACE('',#809,6.);
#702=CYLINDRICAL_SURFACE('',#811,1.6);
#703=CYLINDRICAL_SURFACE('',#813,2.65);
#704=CYLINDRICAL_SURFACE('',#819,4.05);
#705=CYLINDRICAL_SURFACE('',#821,4.05);
#706=CYLINDRICAL_SURFACE('',#823,6.);
#707=CYLINDRICAL_SURFACE('',#826,6.);
#708=CYLINDRICAL_SURFACE('',#829,6.);
#709=CYLINDRICAL_SURFACE('',#831,6.);
#710=CYLINDRICAL_SURFACE('',#833,2.15000000000073);
#711=CYLINDRICAL_SURFACE('',#835,2.15000000000073);
#712=CYLINDRICAL_SURFACE('',#837,2.15000000000073);
#713=CYLINDRICAL_SURFACE('',#839,2.15000000000073);
#714=CYLINDRICAL_SURFACE('',#841,20.000000000005);
#715=CYLINDRICAL_SURFACE('',#844,50.);
#716=CYLINDRICAL_SURFACE('',#847,20.000000000005);
#717=ADVANCED_FACE('',(#50),#697,.T.);
#718=ADVANCED_FACE('',(#51),#33,.T.);
#719=ADVANCED_FACE('',(#52,#15,#16,#17,#18,#19,#20,#21,#22,#23),#34,.F.);
#720=ADVANCED_FACE('',(#53),#698,.T.);
#721=ADVANCED_FACE('',(#54),#35,.T.);
#722=ADVANCED_FACE('',(#55),#699,.T.);
#723=ADVANCED_FACE('',(#56),#700,.T.);
#724=ADVANCED_FACE('',(#57),#36,.T.);
#725=ADVANCED_FACE('',(#58),#701,.T.);
#726=ADVANCED_FACE('',(#59),#702,.F.);
#727=ADVANCED_FACE('',(#60),#703,.F.);
#728=ADVANCED_FACE('',(#61),#37,.F.);
#729=ADVANCED_FACE('',(#62),#38,.F.);
#730=ADVANCED_FACE('',(#63),#39,.F.);
#731=ADVANCED_FACE('',(#64),#40,.F.);
#732=ADVANCED_FACE('',(#65),#704,.F.);
#733=ADVANCED_FACE('',(#66),#705,.F.);
#734=ADVANCED_FACE('',(#67),#706,.T.);
#735=ADVANCED_FACE('',(#68),#41,.T.);
#736=ADVANCED_FACE('',(#69),#707,.T.);
#737=ADVANCED_FACE('',(#70),#42,.T.);
#738=ADVANCED_FACE('',(#71),#708,.T.);
#739=ADVANCED_FACE('',(#72),#709,.T.);
#740=ADVANCED_FACE('',(#73),#710,.F.);
#741=ADVANCED_FACE('',(#74),#711,.F.);
#742=ADVANCED_FACE('',(#75),#712,.F.);
#743=ADVANCED_FACE('',(#76),#713,.F.);
#744=ADVANCED_FACE('',(#77),#714,.T.);
#745=ADVANCED_FACE('',(#78),#43,.T.);
#746=ADVANCED_FACE('',(#79),#715,.F.);
#747=ADVANCED_FACE('',(#80),#44,.T.);
#748=ADVANCED_FACE('',(#81),#716,.T.);
#749=ADVANCED_FACE('',(#82),#45,.T.);
#750=ADVANCED_FACE('',(#83),#46,.T.);
#751=ADVANCED_FACE('',(#84),#47,.T.);
#752=ADVANCED_FACE('',(#85),#48,.T.);
#753=ADVANCED_FACE('',(#86,#24,#25,#26,#27,#28,#29,#30,#31,#32),#49,.T.);
#754=CLOSED_SHELL('',(#717,#718,#719,#720,#721,#722,#723,#724,#725,#726,
#727,#728,#729,#730,#731,#732,#733,#734,#735,#736,#737,#738,#739,#740,#741,
#742,#743,#744,#745,#746,#747,#748,#749,#750,#751,#752,#753));
#755=DERIVED_UNIT_ELEMENT(#758,1.);
#756=DERIVED_UNIT_ELEMENT(#1293,-3.);
#757=DIMENSIONAL_EXPONENTS(0.,1.,0.,0.,0.,0.,0.);
#758=(
CONVERSION_BASED_UNIT('gram',#760)
MASS_UNIT()
NAMED_UNIT(#757)
);
#759=(
MASS_UNIT()
NAMED_UNIT(*)
SI_UNIT(.KILO.,.GRAM.)
);
#760=MASS_MEASURE_WITH_UNIT(MASS_MEASURE(0.001),#759);
#761=DERIVED_UNIT((#755,#756));
#762=MEASURE_REPRESENTATION_ITEM('density measure',
POSITIVE_RATIO_MEASURE(1.),#761);
#763=PROPERTY_DEFINITION_REPRESENTATION(#768,#765);
#764=PROPERTY_DEFINITION_REPRESENTATION(#769,#766);
#765=REPRESENTATION('material name',(#767),#1290);
#766=REPRESENTATION('density',(#762),#1290);
#767=DESCRIPTIVE_REPRESENTATION_ITEM('Generic','Generic');
#768=PROPERTY_DEFINITION('material property','material name',#1300);
#769=PROPERTY_DEFINITION('material property','density of part',#1300);
#770=DATE_TIME_ROLE('creation_date');
#771=APPLIED_DATE_AND_TIME_ASSIGNMENT(#772,#770,(#1300));
#772=DATE_AND_TIME(#773,#774);
#773=CALENDAR_DATE(2026,6,5);
#774=LOCAL_TIME(0,0,0.,#775);
#775=COORDINATED_UNIVERSAL_TIME_OFFSET(0,0,.BEHIND.);
#776=AXIS2_PLACEMENT_3D('',#1075,#854,#855);
#777=AXIS2_PLACEMENT_3D('',#1076,#856,#857);
#778=AXIS2_PLACEMENT_3D('',#1079,#858,#859);
#779=AXIS2_PLACEMENT_3D('',#1083,#861,#862);
#780=AXIS2_PLACEMENT_3D('',#1085,#864,#865);
#781=AXIS2_PLACEMENT_3D('',#1091,#869,#870);
#782=AXIS2_PLACEMENT_3D('',#1095,#872,#873);
#783=AXIS2_PLACEMENT_3D('',#1099,#875,#876);
#784=AXIS2_PLACEMENT_3D('',#1103,#878,#879);
#785=AXIS2_PLACEMENT_3D('',#1107,#881,#882);
#786=AXIS2_PLACEMENT_3D('',#1113,#885,#886);
#787=AXIS2_PLACEMENT_3D('',#1117,#888,#889);
#788=AXIS2_PLACEMENT_3D('',#1121,#891,#892);
#789=AXIS2_PLACEMENT_3D('',#1123,#893,#894);
#790=AXIS2_PLACEMENT_3D('',#1125,#895,#896);
#791=AXIS2_PLACEMENT_3D('',#1129,#898,#899);
#792=AXIS2_PLACEMENT_3D('',#1132,#901,#902);
#793=AXIS2_PLACEMENT_3D('',#1134,#903,#904);
#794=AXIS2_PLACEMENT_3D('',#1136,#905,#906);
#795=AXIS2_PLACEMENT_3D('',#1138,#907,#908);
#796=AXIS2_PLACEMENT_3D('',#1140,#909,#910);
#797=AXIS2_PLACEMENT_3D('',#1142,#911,#912);
#798=AXIS2_PLACEMENT_3D('',#1144,#913,#914);
#799=AXIS2_PLACEMENT_3D('',#1154,#919,#920);
#800=AXIS2_PLACEMENT_3D('',#1156,#921,#922);
#801=AXIS2_PLACEMENT_3D('',#1157,#923,#924);
#802=AXIS2_PLACEMENT_3D('',#1160,#925,#926);
#803=AXIS2_PLACEMENT_3D('',#1163,#929,#930);
#804=AXIS2_PLACEMENT_3D('',#1167,#933,#934);
#805=AXIS2_PLACEMENT_3D('',#1169,#935,#936);
#806=AXIS2_PLACEMENT_3D('',#1171,#938,#939);
#807=AXIS2_PLACEMENT_3D('',#1174,#940,#941);
#808=AXIS2_PLACEMENT_3D('',#1177,#944,#945);
#809=AXIS2_PLACEMENT_3D('',#1181,#948,#949);
#810=AXIS2_PLACEMENT_3D('',#1183,#950,#951);
#811=AXIS2_PLACEMENT_3D('',#1185,#953,#954);
#812=AXIS2_PLACEMENT_3D('',#1188,#956,#957);
#813=AXIS2_PLACEMENT_3D('',#1189,#958,#959);
#814=AXIS2_PLACEMENT_3D('',#1192,#961,#962);
#815=AXIS2_PLACEMENT_3D('',#1193,#963,#964);
#816=AXIS2_PLACEMENT_3D('',#1199,#968,#969);
#817=AXIS2_PLACEMENT_3D('',#1203,#972,#973);
#818=AXIS2_PLACEMENT_3D('',#1207,#976,#977);
#819=AXIS2_PLACEMENT_3D('',#1209,#979,#980);
#820=AXIS2_PLACEMENT_3D('',#1212,#982,#983);
#821=AXIS2_PLACEMENT_3D('',#1213,#984,#985);
#822=AXIS2_PLACEMENT_3D('',#1216,#987,#988);
#823=AXIS2_PLACEMENT_3D('',#1217,#989,#990);
#824=AXIS2_PLACEMENT_3D('',#1220,#991,#992);
#825=AXIS2_PLACEMENT_3D('',#1223,#995,#996);
#826=AXIS2_PLACEMENT_3D('',#1227,#999,#1000);
#827=AXIS2_PLACEMENT_3D('',#1230,#1001,#1002);
#828=AXIS2_PLACEMENT_3D('',#1233,#1005,#1006);
#829=AXIS2_PLACEMENT_3D('',#1237,#1009,#1010);
#830=AXIS2_PLACEMENT_3D('',#1239,#1011,#1012);
#831=AXIS2_PLACEMENT_3D('',#1241,#1014,#1015);
#832=AXIS2_PLACEMENT_3D('',#1243,#1016,#1017);
#833=AXIS2_PLACEMENT_3D('',#1245,#1019,#1020);
#834=AXIS2_PLACEMENT_3D('',#1247,#1021,#1022);
#835=AXIS2_PLACEMENT_3D('',#1249,#1024,#1025);
#836=AXIS2_PLACEMENT_3D('',#1251,#1026,#1027);
#837=AXIS2_PLACEMENT_3D('',#1253,#1029,#1030);
#838=AXIS2_PLACEMENT_3D('',#1255,#1031,#1032);
#839=AXIS2_PLACEMENT_3D('',#1257,#1034,#1035);
#840=AXIS2_PLACEMENT_3D('',#1259,#1036,#1037);
#841=AXIS2_PLACEMENT_3D('',#1261,#1039,#1040);
#842=AXIS2_PLACEMENT_3D('',#1265,#1042,#1043);
#843=AXIS2_PLACEMENT_3D('',#1267,#1045,#1046);
#844=AXIS2_PLACEMENT_3D('',#1269,#1048,#1049);
#845=AXIS2_PLACEMENT_3D('',#1270,#1050,#1051);
#846=AXIS2_PLACEMENT_3D('',#1271,#1052,#1053);
#847=AXIS2_PLACEMENT_3D('',#1275,#1056,#1057);
#848=AXIS2_PLACEMENT_3D('',#1276,#1058,#1059);
#849=AXIS2_PLACEMENT_3D('',#1277,#1060,#1061);
#850=AXIS2_PLACEMENT_3D('',#1279,#1063,#1064);
#851=AXIS2_PLACEMENT_3D('',#1281,#1066,#1067);
#852=AXIS2_PLACEMENT_3D('',#1285,#1070,#1071);
#853=AXIS2_PLACEMENT_3D('',#1287,#1073,#1074);
#854=DIRECTION('axis',(0.,0.,1.));
#855=DIRECTION('refdir',(1.,0.,0.));
#856=DIRECTION('center_axis',(1.,0.,0.));
#857=DIRECTION('ref_axis',(0.,0.200459590382718,-0.979701971327808));
#858=DIRECTION('center_axis',(-1.,0.,0.));
#859=DIRECTION('ref_axis',(0.,0.200459590382718,-0.979701971327808));
#860=DIRECTION('',(-1.,0.,0.));
#861=DIRECTION('center_axis',(1.,0.,0.));
#862=DIRECTION('ref_axis',(0.,0.200459590382718,-0.979701971327808));
#863=DIRECTION('',(1.,0.,0.));
#864=DIRECTION('center_axis',(0.,0.392655814105936,-0.919685496052213));
#865=DIRECTION('ref_axis',(0.,0.919685496052213,0.392655814105936));
#866=DIRECTION('',(0.,0.919685496052213,0.392655814105936));
#867=DIRECTION('',(1.,0.,0.));
#868=DIRECTION('',(0.,0.919685496052213,0.392655814105936));
#869=DIRECTION('center_axis',(1.,0.,0.));
#870=DIRECTION('ref_axis',(0.,0.,-1.));
#871=DIRECTION('',(0.,0.999999990689185,0.00013646109411913));
#872=DIRECTION('center_axis',(1.,0.,0.));
#873=DIRECTION('ref_axis',(0.,-0.359047296802472,-0.933319365843674));
#874=DIRECTION('',(0.,0.742078612600507,-0.670312861819693));
#875=DIRECTION('center_axis',(1.,0.,0.));
#876=DIRECTION('ref_axis',(0.,-0.91386893530191,-0.406009321432591));
#877=DIRECTION('',(0.,-1.0449157878825E-15,-1.));
#878=DIRECTION('center_axis',(1.,0.,0.));
#879=DIRECTION('ref_axis',(0.,-0.965943483405757,0.258753138852367));
#880=DIRECTION('',(0.,-0.499881816570457,-0.866093626268096));
#881=DIRECTION('center_axis',(1.,0.,0.));
#882=DIRECTION('ref_axis',(0.,-0.766132151487024,0.642683068438763));
#883=DIRECTION('',(0.,-0.765956720485897,-0.642892138964609));
#884=DIRECTION('',(0.,0.00013646109424194,-0.999999990689185));
#885=DIRECTION('center_axis',(1.,0.,0.));
#886=DIRECTION('ref_axis',(0.,-0.000136461094156344,0.999999990689185));
#887=DIRECTION('',(0.,-0.999999990689185,-0.000136461094119114));
#888=DIRECTION('center_axis',(1.,0.,0.));
#889=DIRECTION('ref_axis',(0.,0.707010282037788,0.707203267167826));
#890=DIRECTION('',(0.,-0.0001364610941187,0.999999990689185));
#891=DIRECTION('center_axis',(1.,0.,0.));
#892=DIRECTION('ref_axis',(0.,0.91914210206905,-0.393926130390061));
#893=DIRECTION('center_axis',(-1.,0.,0.));
#894=DIRECTION('ref_axis',(0.,-1.,0.));
#895=DIRECTION('center_axis',(1.,0.,0.));
#896=DIRECTION('ref_axis',(0.,0.919034556656692,0.394176969990431));
#897=DIRECTION('',(0.,-0.0001364610941187,0.999999990689185));
#898=DIRECTION('center_axis',(1.,0.,0.));
#899=DIRECTION('ref_axis',(0.,0.707203267167827,-0.707010282037787));
#900=DIRECTION('',(0.,0.999999990689185,0.000136461094119471));
#901=DIRECTION('center_axis',(1.,0.,0.));
#902=DIRECTION('ref_axis',(0.,-0.999999990689185,-0.000136461094204919));
#903=DIRECTION('center_axis',(-1.,0.,0.));
#904=DIRECTION('ref_axis',(0.,-1.,0.));
#905=DIRECTION('center_axis',(-1.,0.,0.));
#906=DIRECTION('ref_axis',(0.,-1.,0.));
#907=DIRECTION('center_axis',(-1.,0.,0.));
#908=DIRECTION('ref_axis',(0.,-1.,0.));
#909=DIRECTION('center_axis',(-1.,0.,0.));
#910=DIRECTION('ref_axis',(0.,-1.,0.));
#911=DIRECTION('center_axis',(1.,0.,0.));
#912=DIRECTION('ref_axis',(0.,0.,1.));
#913=DIRECTION('center_axis',(1.,0.,0.));
#914=DIRECTION('ref_axis',(0.,0.,1.));
#915=DIRECTION('',(0.,0.866093626268096,-0.499881816570458));
#916=DIRECTION('',(0.,0.499881816570458,0.866093626268096));
#917=DIRECTION('',(0.,-0.866093626268096,0.499881816570458));
#918=DIRECTION('',(0.,-0.499881816570457,-0.866093626268096));
#919=DIRECTION('center_axis',(1.,0.,0.));
#920=DIRECTION('ref_axis',(0.,0.,1.));
#921=DIRECTION('center_axis',(1.,0.,0.));
#922=DIRECTION('ref_axis',(0.,0.,1.));
#923=DIRECTION('center_axis',(1.,0.,0.));
#924=DIRECTION('ref_axis',(0.,-0.359047296802472,-0.933319365843674));
#925=DIRECTION('center_axis',(-1.,0.,0.));
#926=DIRECTION('ref_axis',(0.,-0.359047296802472,-0.933319365843674));
#927=DIRECTION('',(-1.,0.,0.));
#928=DIRECTION('',(1.,0.,0.));
#929=DIRECTION('center_axis',(0.,-0.670312861819693,-0.742078612600507));
#930=DIRECTION('ref_axis',(0.,0.742078612600507,-0.670312861819693));
#931=DIRECTION('',(0.,0.742078612600507,-0.670312861819693));
#932=DIRECTION('',(1.,0.,0.));
#933=DIRECTION('center_axis',(1.,0.,0.));
#934=DIRECTION('ref_axis',(0.,-0.91386893530191,-0.406009321432591));
#935=DIRECTION('center_axis',(-1.,0.,0.));
#936=DIRECTION('ref_axis',(0.,-0.91386893530191,-0.406009321432591));
#937=DIRECTION('',(-1.,0.,0.));
#938=DIRECTION('center_axis',(1.,0.,0.));
#939=DIRECTION('ref_axis',(0.,-0.965943483405757,0.258753138852367));
#940=DIRECTION('center_axis',(-1.,0.,0.));
#941=DIRECTION('ref_axis',(0.,-0.965943483405757,0.258753138852367));
#942=DIRECTION('',(-1.,0.,0.));
#943=DIRECTION('',(1.,0.,0.));
#944=DIRECTION('center_axis',(0.,-0.866093626268096,0.499881816570457));
#945=DIRECTION('ref_axis',(0.,-0.499881816570457,-0.866093626268096));
#946=DIRECTION('',(0.,-0.499881816570457,-0.866093626268096));
#947=DIRECTION('',(1.,0.,0.));
#948=DIRECTION('center_axis',(1.,0.,0.));
#949=DIRECTION('ref_axis',(0.,-0.766132151487024,0.642683068438763));
#950=DIRECTION('center_axis',(-1.,0.,0.));
#951=DIRECTION('ref_axis',(0.,-0.766132151487024,0.642683068438763));
#952=DIRECTION('',(-1.,0.,0.));
#953=DIRECTION('center_axis',(1.,0.,0.));
#954=DIRECTION('ref_axis',(0.,0.,1.));
#955=DIRECTION('',(1.,0.,0.));
#956=DIRECTION('center_axis',(-1.,0.,0.));
#957=DIRECTION('ref_axis',(0.,0.,1.));
#958=DIRECTION('center_axis',(1.,0.,0.));
#959=DIRECTION('ref_axis',(0.,0.,1.));
#960=DIRECTION('',(1.,0.,0.));
#961=DIRECTION('center_axis',(-1.,0.,0.));
#962=DIRECTION('ref_axis',(0.,0.,1.));
#963=DIRECTION('center_axis',(0.,0.499881816570458,0.866093626268095));
#964=DIRECTION('ref_axis',(1.,0.,0.));
#965=DIRECTION('',(0.,0.866093626268096,-0.499881816570458));
#966=DIRECTION('',(-1.,0.,0.));
#967=DIRECTION('',(1.,0.,0.));
#968=DIRECTION('center_axis',(0.,0.866093626268095,-0.499881816570458));
#969=DIRECTION('ref_axis',(0.,0.499881816570458,0.866093626268096));
#970=DIRECTION('',(0.,-0.499881816570458,-0.866093626268096));
#971=DIRECTION('',(-1.,-1.60764673549815E-16,-2.78540355890182E-16));
#972=DIRECTION('center_axis',(3.21605363949371E-16,-0.499881816570458,-0.866093626268095));
#973=DIRECTION('ref_axis',(-1.,-1.60764673549815E-16,-2.78540355890182E-16));
#974=DIRECTION('',(0.,-0.866093626268096,0.499881816570458));
#975=DIRECTION('',(1.,1.60764673549815E-16,2.78540355890182E-16));
#976=DIRECTION('center_axis',(0.,-0.866093626268096,0.499881816570457));
#977=DIRECTION('ref_axis',(0.,-0.499881816570457,-0.866093626268096));
#978=DIRECTION('',(0.,0.499881816570457,0.866093626268096));
#979=DIRECTION('center_axis',(1.,0.,0.));
#980=DIRECTION('ref_axis',(0.,0.,1.));
#981=DIRECTION('',(1.,0.,0.));
#982=DIRECTION('center_axis',(-1.,0.,0.));
#983=DIRECTION('ref_axis',(0.,0.,1.));
#984=DIRECTION('center_axis',(1.,0.,0.));
#985=DIRECTION('ref_axis',(0.,0.,1.));
#986=DIRECTION('',(1.,0.,0.));
#987=DIRECTION('center_axis',(-1.,0.,0.));
#988=DIRECTION('ref_axis',(0.,0.,1.));
#989=DIRECTION('center_axis',(1.,0.,0.));
#990=DIRECTION('ref_axis',(0.,0.91914210206905,-0.393926130390061));
#991=DIRECTION('center_axis',(-1.,0.,0.));
#992=DIRECTION('ref_axis',(0.,0.91914210206905,-0.393926130390061));
#993=DIRECTION('',(-1.,0.,0.));
#994=DIRECTION('',(1.,0.,0.));
#995=DIRECTION('center_axis',(0.,0.999999990689185,0.0001364610941187));
#996=DIRECTION('ref_axis',(0.,-0.0001364610941187,0.999999990689185));
#997=DIRECTION('',(-1.,0.,0.));
#998=DIRECTION('',(0.,-0.0001364610941187,0.999999990689185));
#999=DIRECTION('center_axis',(1.,0.,0.));
#1000=DIRECTION('ref_axis',(0.,0.919034556656692,0.394176969990431));
#1001=DIRECTION('center_axis',(-1.,0.,0.));
#1002=DIRECTION('ref_axis',(0.,0.919034556656692,0.394176969990431));
#1003=DIRECTION('',(-1.,0.,0.));
#1004=DIRECTION('',(1.,0.,0.));
#1005=DIRECTION('center_axis',(0.,0.999999990689185,0.0001364610941187));
#1006=DIRECTION('ref_axis',(0.,-0.0001364610941187,0.999999990689185));
#1007=DIRECTION('',(0.,-0.0001364610941187,0.999999990689185));
#1008=DIRECTION('',(1.,0.,0.));
#1009=DIRECTION('center_axis',(1.,0.,0.));
#1010=DIRECTION('ref_axis',(0.,0.707203267167827,-0.707010282037787));
#1011=DIRECTION('center_axis',(-1.,0.,0.));
#1012=DIRECTION('ref_axis',(0.,0.707203267167827,-0.707010282037787));
#1013=DIRECTION('',(-1.,0.,0.));
#1014=DIRECTION('center_axis',(1.,0.,0.));
#1015=DIRECTION('ref_axis',(0.,0.707010282037788,0.707203267167826));
#1016=DIRECTION('center_axis',(-1.,0.,0.));
#1017=DIRECTION('ref_axis',(0.,0.707010282037788,0.707203267167826));
#1018=DIRECTION('',(1.,0.,0.));
#1019=DIRECTION('center_axis',(1.,0.,0.));
#1020=DIRECTION('ref_axis',(0.,-1.,0.));
#1021=DIRECTION('center_axis',(-1.,0.,0.));
#1022=DIRECTION('ref_axis',(0.,-1.,0.));
#1023=DIRECTION('',(-1.,0.,0.));
#1024=DIRECTION('center_axis',(1.,0.,0.));
#1025=DIRECTION('ref_axis',(0.,-1.,0.));
#1026=DIRECTION('center_axis',(-1.,0.,0.));
#1027=DIRECTION('ref_axis',(0.,-1.,0.));
#1028=DIRECTION('',(-1.,0.,0.));
#1029=DIRECTION('center_axis',(1.,0.,0.));
#1030=DIRECTION('ref_axis',(0.,-1.,0.));
#1031=DIRECTION('center_axis',(-1.,0.,0.));
#1032=DIRECTION('ref_axis',(0.,-1.,0.));
#1033=DIRECTION('',(-1.,0.,0.));
#1034=DIRECTION('center_axis',(1.,0.,0.));
#1035=DIRECTION('ref_axis',(0.,-1.,0.));
#1036=DIRECTION('center_axis',(-1.,0.,0.));
#1037=DIRECTION('ref_axis',(0.,-1.,0.));
#1038=DIRECTION('',(-1.,0.,0.));
#1039=DIRECTION('center_axis',(1.,0.,0.));
#1040=DIRECTION('ref_axis',(0.,-0.000136461094156344,0.999999990689185));
#1041=DIRECTION('',(1.,0.,0.));
#1042=DIRECTION('center_axis',(1.,0.,0.));
#1043=DIRECTION('ref_axis',(0.,-0.000136461094156344,0.999999990689185));
#1044=DIRECTION('',(1.,0.,0.));
#1045=DIRECTION('center_axis',(0.,-0.000136461094119114,0.999999990689185));
#1046=DIRECTION('ref_axis',(0.,-0.999999990689185,-0.000136461094119114));
#1047=DIRECTION('',(0.,-0.999999990689185,-0.000136461094119114));
#1048=DIRECTION('center_axis',(1.,0.,0.));
#1049=DIRECTION('ref_axis',(0.,-1.,0.));
#1050=DIRECTION('center_axis',(-1.,0.,0.));
#1051=DIRECTION('ref_axis',(0.,-1.,0.));
#1052=DIRECTION('center_axis',(0.,0.000136461094119471,-0.999999990689185));
#1053=DIRECTION('ref_axis',(0.,0.999999990689185,0.000136461094119471));
#1054=DIRECTION('',(0.,0.999999990689185,0.000136461094119471));
#1055=DIRECTION('',(1.,0.,0.));
#1056=DIRECTION('center_axis',(1.,0.,0.));
#1057=DIRECTION('ref_axis',(0.,-0.999999990689185,-0.000136461094204919));
#1058=DIRECTION('center_axis',(1.,0.,0.));
#1059=DIRECTION('ref_axis',(0.,-0.999999990689185,-0.000136461094204919));
#1060=DIRECTION('center_axis',(0.,0.00013646109411913,-0.999999990689185));
#1061=DIRECTION('ref_axis',(0.,0.999999990689185,0.00013646109411913));
#1062=DIRECTION('',(0.,0.999999990689185,0.00013646109411913));
#1063=DIRECTION('center_axis',(0.,-1.,1.0449157878825E-15));
#1064=DIRECTION('ref_axis',(0.,-1.0449157878825E-15,-1.));
#1065=DIRECTION('',(0.,-1.0449157878825E-15,-1.));
#1066=DIRECTION('center_axis',(0.,-0.642892138964609,0.765956720485897));
#1067=DIRECTION('ref_axis',(0.,-0.765956720485897,-0.642892138964609));
#1068=DIRECTION('',(0.,-0.765956720485897,-0.642892138964609));
#1069=DIRECTION('',(1.,0.,0.));
#1070=DIRECTION('center_axis',(0.,-0.999999990689185,-0.00013646109424194));
#1071=DIRECTION('ref_axis',(0.,0.00013646109424194,-0.999999990689185));
#1072=DIRECTION('',(0.,0.00013646109424194,-0.999999990689185));
#1073=DIRECTION('center_axis',(1.,0.,0.));
#1074=DIRECTION('ref_axis',(0.,0.,-1.));
#1075=CARTESIAN_POINT('',(0.,0.,0.));
#1076=CARTESIAN_POINT('Origin',(0.,-31.0104495432791,-115.01062519806));
#1077=CARTESIAN_POINT('',(2.54,-28.6545146586435,-120.528738174373));
#1078=CARTESIAN_POINT('',(2.54,-31.0096307767144,-121.010625142195));
#1079=CARTESIAN_POINT('Origin',(2.54,-31.0104495432791,-115.01062519806));
#1080=CARTESIAN_POINT('',(0.,-31.0096307767144,-121.010625142195));
#1081=CARTESIAN_POINT('',(0.,-31.0096307767144,-121.010625142195));
#1082=CARTESIAN_POINT('',(0.,-28.6545146586435,-120.528738174373));
#1083=CARTESIAN_POINT('Origin',(0.,-31.0104495432791,-115.01062519806));
#1084=CARTESIAN_POINT('',(0.,-28.6545146586435,-120.528738174373));
#1085=CARTESIAN_POINT('Origin',(0.,-29.7828068451856,-121.010457728458));
#1086=CARTESIAN_POINT('',(0.,-9.97526662468021,-112.553712608409));
#1087=CARTESIAN_POINT('',(0.,-29.7828068451856,-121.010457728458));
#1088=CARTESIAN_POINT('',(2.54,-9.97526662468021,-112.553712608409));
#1089=CARTESIAN_POINT('',(0.,-9.97526662468021,-112.553712608409));
#1090=CARTESIAN_POINT('',(2.54,-29.7828068451856,-121.010457728458));
#1091=CARTESIAN_POINT('Origin',(0.,-15.9502970516453,-60.5079136094612));
#1092=CARTESIAN_POINT('',(0.,-34.2086670396503,-121.011061686188));
#1093=CARTESIAN_POINT('',(0.,-36.5178027425009,-121.011376793375));
#1094=CARTESIAN_POINT('',(0.,-38.2313629771332,-119.463533417656));
#1095=CARTESIAN_POINT('Origin',(0.,-34.209485806215,-115.011061742053));
#1096=CARTESIAN_POINT('',(0.,-44.170012545745,-114.099205272245));
#1097=CARTESIAN_POINT('',(0.,-46.1481353748269,-112.312384911062));
#1098=CARTESIAN_POINT('',(0.,-46.1481353748269,-109.646733596642));
#1099=CARTESIAN_POINT('Origin',(0.,-40.1481353748269,-109.646733596642));
#1100=CARTESIAN_POINT('',(0.,-46.1481353748269,-105.419641297989));
#1101=CARTESIAN_POINT('',(0.,-46.1481353748269,-103.812384911062));
#1102=CARTESIAN_POINT('',(0.,-45.3446971324355,-102.420350398566));
#1103=CARTESIAN_POINT('Origin',(0.,-40.1481353748269,-105.419641297989));
#1104=CARTESIAN_POINT('',(0.,-34.6798276856973,-83.9424319254117));
#1105=CARTESIAN_POINT('',(0.,-34.1509717771359,-83.0261378806277));
#1106=CARTESIAN_POINT('',(0.,-33.3406187618764,-82.345982501919));
#1107=CARTESIAN_POINT('Origin',(0.,-29.4832659280887,-86.9417228248344));
#1108=CARTESIAN_POINT('',(0.,-13.6509717771359,-65.8198277898775));
#1109=CARTESIAN_POINT('',(0.,-13.6509717771359,-65.8198277898775));
#1110=CARTESIAN_POINT('',(0.,-13.6572232743722,-20.0082562732786));
#1111=CARTESIAN_POINT('',(0.,-13.6572232743722,-20.0082562732786));
#1112=CARTESIAN_POINT('',(0.,6.34004731753341,-0.00552723761676033));
#1113=CARTESIAN_POINT('Origin',(0.,6.34277653941654,-20.0055270513979));
#1114=CARTESIAN_POINT('',(0.,8.23102953501276,-0.00526919211200069));
#1115=CARTESIAN_POINT('',(0.,87.3400465633761,0.00552611100689049));
#1116=CARTESIAN_POINT('',(0.,14.2318482457126,-6.00445036968239));
#1117=CARTESIAN_POINT('Origin',(0.,8.23184830157748,-6.00526913624711));
#1118=CARTESIAN_POINT('',(0.,14.2337501262216,-19.9416132184754));
#1119=CARTESIAN_POINT('',(0.,14.2475412715362,-121.004449298923));
#1120=CARTESIAN_POINT('',(0.,12.3710236807903,-24.2878857009279));
#1121=CARTESIAN_POINT('Origin',(0.,8.23375018208644,-19.9424319850401));
#1122=CARTESIAN_POINT('',(0.,12.3809080542197,-96.7215225647846));
#1123=CARTESIAN_POINT('Origin',(0.,46.8483028366555,-60.4999999999928));
#1124=CARTESIAN_POINT('',(0.,14.2448206244626,-101.067286505995));
#1125=CARTESIAN_POINT('Origin',(0.,8.24482068032745,-101.06810527256));
#1126=CARTESIAN_POINT('',(0.,14.2467225049715,-115.004449354788));
#1127=CARTESIAN_POINT('',(0.,14.2475412715362,-121.004449298923));
#1128=CARTESIAN_POINT('',(0.,8.24754132740113,-121.005268065488));
#1129=CARTESIAN_POINT('Origin',(0.,8.24672256083641,-115.005268121353));
#1130=CARTESIAN_POINT('',(0.,6.35655910993499,-121.005526110993));
#1131=CARTESIAN_POINT('',(0.,6.35655910993499,-121.005526110993));
#1132=CARTESIAN_POINT('Origin',(0.,6.35382988805013,-101.005526297212));
#1133=CARTESIAN_POINT('',(0.,-4.24658004213462,-23.2175316371504));
#1134=CARTESIAN_POINT('Origin',(0.,-6.39658004213535,-23.2175316371504));
#1135=CARTESIAN_POINT('',(0.,-4.24658004215807,-97.7824683627852));
#1136=CARTESIAN_POINT('Origin',(0.,-6.3965800421588,-97.7824683627852));
#1137=CARTESIAN_POINT('',(0.,11.7158344738088,-113.744882878759));
#1138=CARTESIAN_POINT('Origin',(0.,9.5658344738081,-113.744882878759));
#1139=CARTESIAN_POINT('',(0.,11.7158344738423,-7.25511712119168));
#1140=CARTESIAN_POINT('Origin',(0.,9.56583447384157,-7.25511712119168));
#1141=CARTESIAN_POINT('',(0.,-1.65169716337045,-16.0499999999772));
#1142=CARTESIAN_POINT('Origin',(0.,-1.65169716337045,-11.9999999999772));
#1143=CARTESIAN_POINT('',(0.,-1.65169716338342,-113.04999999998));
#1144=CARTESIAN_POINT('Origin',(0.,-1.65169716338342,-108.99999999998));
#1145=CARTESIAN_POINT('',(0.,-42.0180505850344,-104.658504680962));
#1146=CARTESIAN_POINT('',(0.,-35.8687858385309,-108.207665578613));
#1147=CARTESIAN_POINT('',(0.,-41.7984796033291,-104.785234098975));
#1148=CARTESIAN_POINT('',(0.,-24.2032791771313,-87.9960462883915));
#1149=CARTESIAN_POINT('',(0.,-20.1381033881918,-80.9527358022946));
#1150=CARTESIAN_POINT('',(0.,-30.3525439236348,-84.4468853907412));
#1151=CARTESIAN_POINT('',(0.,-30.1329729419294,-84.5736148087534));
#1152=CARTESIAN_POINT('',(2.77555756156289E-16,-26.2873681346953,-77.4035749046443));
#1153=CARTESIAN_POINT('',(0.,-33.5753023763364,-116.886347742164));
#1154=CARTESIAN_POINT('Origin',(0.,-33.5753023763364,-114.236347742164));
#1155=CARTESIAN_POINT('',(0.,-19.649446174453,-78.5999999999795));
#1156=CARTESIAN_POINT('Origin',(0.,-19.649446174453,-76.9999999999795));
#1157=CARTESIAN_POINT('Origin',(0.,-34.209485806215,-115.011061742053));
#1158=CARTESIAN_POINT('',(2.54,-34.2086670396503,-121.011061686188));
#1159=CARTESIAN_POINT('',(2.54,-38.2313629771332,-119.463533417656));
#1160=CARTESIAN_POINT('Origin',(2.54,-34.209485806215,-115.011061742053));
#1161=CARTESIAN_POINT('',(0.,-38.2313629771332,-119.463533417656));
#1162=CARTESIAN_POINT('',(0.,-34.2086670396503,-121.011061686188));
#1163=CARTESIAN_POINT('Origin',(0.,-46.1481353748269,-112.312384911062));
#1164=CARTESIAN_POINT('',(2.54,-44.170012545745,-114.099205272245));
#1165=CARTESIAN_POINT('',(2.54,-46.1481353748269,-112.312384911062));
#1166=CARTESIAN_POINT('',(0.,-44.170012545745,-114.099205272245));
#1167=CARTESIAN_POINT('Origin',(0.,-40.1481353748269,-109.646733596642));
#1168=CARTESIAN_POINT('',(2.54,-46.1481353748269,-109.646733596642));
#1169=CARTESIAN_POINT('Origin',(2.54,-40.1481353748269,-109.646733596642));
#1170=CARTESIAN_POINT('',(0.,-46.1481353748269,-109.646733596642));
#1171=CARTESIAN_POINT('Origin',(0.,-40.1481353748269,-105.419641297989));
#1172=CARTESIAN_POINT('',(2.54,-46.1481353748269,-105.419641297989));
#1173=CARTESIAN_POINT('',(2.54,-45.3446971324355,-102.420350398566));
#1174=CARTESIAN_POINT('Origin',(2.54,-40.1481353748269,-105.419641297989));
#1175=CARTESIAN_POINT('',(0.,-45.3446971324355,-102.420350398566));
#1176=CARTESIAN_POINT('',(0.,-46.1481353748269,-105.419641297989));
#1177=CARTESIAN_POINT('Origin',(0.,-34.1509717771359,-83.0261378806277));
#1178=CARTESIAN_POINT('',(2.54,-34.6798276856973,-83.9424319254117));
#1179=CARTESIAN_POINT('',(2.54,-34.1509717771359,-83.0261378806277));
#1180=CARTESIAN_POINT('',(0.,-34.6798276856973,-83.9424319254117));
#1181=CARTESIAN_POINT('Origin',(0.,-29.4832659280887,-86.9417228248344));
#1182=CARTESIAN_POINT('',(2.54,-33.3406187618764,-82.345982501919));
#1183=CARTESIAN_POINT('Origin',(2.54,-29.4832659280887,-86.9417228248344));
#1184=CARTESIAN_POINT('',(0.,-33.3406187618764,-82.345982501919));
#1185=CARTESIAN_POINT('Origin',(0.,-19.649446174453,-76.9999999999795));
#1186=CARTESIAN_POINT('',(2.54,-19.649446174453,-78.5999999999795));
#1187=CARTESIAN_POINT('',(0.,-19.649446174453,-78.5999999999795));
#1188=CARTESIAN_POINT('Origin',(2.54,-19.649446174453,-76.9999999999795));
#1189=CARTESIAN_POINT('Origin',(0.,-33.5753023763364,-114.236347742164));
#1190=CARTESIAN_POINT('',(2.54,-33.5753023763364,-116.886347742164));
#1191=CARTESIAN_POINT('',(0.,-33.5753023763364,-116.886347742164));
#1192=CARTESIAN_POINT('Origin',(2.54,-33.5753023763364,-114.236347742164));
#1193=CARTESIAN_POINT('Origin',(0.,-30.3525439236348,-84.4468853907412));
#1194=CARTESIAN_POINT('',(2.54,-30.3525439236348,-84.4468853907412));
#1195=CARTESIAN_POINT('',(2.54,-24.2032791771313,-87.9960462883915));
#1196=CARTESIAN_POINT('',(2.54,-30.1329729419294,-84.5736148087534));
#1197=CARTESIAN_POINT('',(6.70245321689271,-30.3525439236348,-84.4468853907412));
#1198=CARTESIAN_POINT('',(6.70245321689271,-24.2032791771313,-87.9960462883915));
#1199=CARTESIAN_POINT('Origin',(3.99258968673879,-30.0360325078311,-98.101855933502));
#1200=CARTESIAN_POINT('',(2.54,-35.8687858385309,-108.207665578613));
#1201=CARTESIAN_POINT('',(2.54,-20.1381033881918,-80.9527358022946));
#1202=CARTESIAN_POINT('',(0.,-35.8687858385309,-108.207665578613));
#1203=CARTESIAN_POINT('Origin',(3.45212844397687,-42.0180505850344,-104.658504680962));
#1204=CARTESIAN_POINT('',(2.54,-42.0180505850344,-104.658504680962));
#1205=CARTESIAN_POINT('',(2.54,-41.7984796033291,-104.785234098975));
#1206=CARTESIAN_POINT('',(0.,-42.0180505850344,-104.658504680962));
#1207=CARTESIAN_POINT('Origin',(3.99258968673879,-36.1852972543346,-94.5526950358518));
#1208=CARTESIAN_POINT('',(2.54,-26.2873681346953,-77.4035749046443));
#1209=CARTESIAN_POINT('Origin',(0.,-1.65169716338342,-108.99999999998));
#1210=CARTESIAN_POINT('',(2.54,-1.65169716338342,-113.04999999998));
#1211=CARTESIAN_POINT('',(0.,-1.65169716338342,-113.04999999998));
#1212=CARTESIAN_POINT('Origin',(2.54,-1.65169716338342,-108.99999999998));
#1213=CARTESIAN_POINT('Origin',(0.,-1.65169716337045,-11.9999999999772));
#1214=CARTESIAN_POINT('',(2.54,-1.65169716337045,-16.0499999999772));
#1215=CARTESIAN_POINT('',(0.,-1.65169716337045,-16.0499999999772));
#1216=CARTESIAN_POINT('Origin',(2.54,-1.65169716337045,-11.9999999999772));
#1217=CARTESIAN_POINT('Origin',(0.,8.23375018208644,-19.9424319850401));
#1218=CARTESIAN_POINT('',(2.54,14.2337501262216,-19.9416132184754));
#1219=CARTESIAN_POINT('',(2.54,12.3710236807903,-24.2878857009279));
#1220=CARTESIAN_POINT('Origin',(2.54,8.23375018208644,-19.9424319850401));
#1221=CARTESIAN_POINT('',(0.,12.3710236807903,-24.2878857009279));
#1222=CARTESIAN_POINT('',(0.,14.2337501262216,-19.9416132184754));
#1223=CARTESIAN_POINT('Origin',(0.,14.2341130642972,-22.6012582597635));
#1224=CARTESIAN_POINT('',(2.54,14.2318482457126,-6.00445036968239));
#1225=CARTESIAN_POINT('',(0.,14.2318482457126,-6.0044503696824));
#1226=CARTESIAN_POINT('',(2.54,14.2475412715362,-121.004449298923));
#1227=CARTESIAN_POINT('Origin',(0.,8.24482068032745,-101.06810527256));
#1228=CARTESIAN_POINT('',(2.54,12.3809080542197,-96.7215225647846));
#1229=CARTESIAN_POINT('',(2.54,14.2448206244626,-101.067286505995));
#1230=CARTESIAN_POINT('Origin',(2.54,8.24482068032745,-101.06810527256));
#1231=CARTESIAN_POINT('',(0.,14.2448206244626,-101.067286505995));
#1232=CARTESIAN_POINT('',(0.,12.3809080542197,-96.7215225647846));
#1233=CARTESIAN_POINT('Origin',(0.,14.2475412715362,-121.004449298923));
#1234=CARTESIAN_POINT('',(2.54,14.2467225049715,-115.004449354788));
#1235=CARTESIAN_POINT('',(2.54,14.2475412715362,-121.004449298923));
#1236=CARTESIAN_POINT('',(0.,14.2467225049715,-115.004449354788));
#1237=CARTESIAN_POINT('Origin',(0.,8.24672256083641,-115.005268121353));
#1238=CARTESIAN_POINT('',(2.54,8.24754132740113,-121.005268065488));
#1239=CARTESIAN_POINT('Origin',(2.54,8.24672256083641,-115.005268121353));
#1240=CARTESIAN_POINT('',(0.,8.24754132740113,-121.005268065488));
#1241=CARTESIAN_POINT('Origin',(0.,8.23184830157748,-6.00526913624711));
#1242=CARTESIAN_POINT('',(2.54,8.23102953501276,-0.00526919211200069));
#1243=CARTESIAN_POINT('Origin',(2.54,8.23184830157748,-6.00526913624711));
#1244=CARTESIAN_POINT('',(0.,8.23102953501276,-0.00526919211199961));
#1245=CARTESIAN_POINT('Origin',(0.,-6.39658004213535,-23.2175316371504));
#1246=CARTESIAN_POINT('',(2.54,-4.24658004213462,-23.2175316371504));
#1247=CARTESIAN_POINT('Origin',(2.54,-6.39658004213535,-23.2175316371504));
#1248=CARTESIAN_POINT('',(0.,-4.24658004213462,-23.2175316371504));
#1249=CARTESIAN_POINT('Origin',(0.,-6.3965800421588,-97.7824683627852));
#1250=CARTESIAN_POINT('',(2.54,-4.24658004215807,-97.7824683627852));
#1251=CARTESIAN_POINT('Origin',(2.54,-6.3965800421588,-97.7824683627852));
#1252=CARTESIAN_POINT('',(0.,-4.24658004215807,-97.7824683627852));
#1253=CARTESIAN_POINT('Origin',(0.,9.5658344738081,-113.744882878759));
#1254=CARTESIAN_POINT('',(2.54,11.7158344738088,-113.744882878759));
#1255=CARTESIAN_POINT('Origin',(2.54,9.5658344738081,-113.744882878759));
#1256=CARTESIAN_POINT('',(0.,11.7158344738088,-113.744882878759));
#1257=CARTESIAN_POINT('Origin',(0.,9.56583447384157,-7.25511712119168));
#1258=CARTESIAN_POINT('',(2.54,11.7158344738423,-7.25511712119168));
#1259=CARTESIAN_POINT('Origin',(2.54,9.56583447384157,-7.25511712119168));
#1260=CARTESIAN_POINT('',(0.,11.7158344738423,-7.25511712119168));
#1261=CARTESIAN_POINT('Origin',(0.,6.34277653941654,-20.0055270513979));
#1262=CARTESIAN_POINT('',(2.54,-13.6572232743722,-20.0082562732786));
#1263=CARTESIAN_POINT('',(0.,-13.6572232743722,-20.0082562732786));
#1264=CARTESIAN_POINT('',(2.54,6.34004731753341,-0.00552723761675811));
#1265=CARTESIAN_POINT('Origin',(2.54,6.34277653941654,-20.0055270513979));
#1266=CARTESIAN_POINT('',(0.,6.34004731753341,-0.00552723761676033));
#1267=CARTESIAN_POINT('Origin',(0.,14.2310294791479,-0.00445042554728601));
#1268=CARTESIAN_POINT('',(2.54,87.3400465633761,0.00552611100689049));
#1269=CARTESIAN_POINT('Origin',(0.,46.8483028366555,-60.4999999999928));
#1270=CARTESIAN_POINT('Origin',(2.54,46.8483028366555,-60.4999999999928));
#1271=CARTESIAN_POINT('Origin',(0.,6.35655910993499,-121.005526110993));
#1272=CARTESIAN_POINT('',(2.54,6.35655910993499,-121.005526110993));
#1273=CARTESIAN_POINT('',(2.54,6.35655910993499,-121.005526110993));
#1274=CARTESIAN_POINT('',(0.,6.35655910993499,-121.005526110993));
#1275=CARTESIAN_POINT('Origin',(0.,6.35382988805013,-101.005526297212));
#1276=CARTESIAN_POINT('Origin',(2.54,6.35382988805013,-101.005526297212));
#1277=CARTESIAN_POINT('Origin',(0.,-36.5178027425009,-121.011376793375));
#1278=CARTESIAN_POINT('',(2.54,-36.5178027425009,-121.011376793375));
#1279=CARTESIAN_POINT('Origin',(0.,-46.1481353748269,-103.812384911062));
#1280=CARTESIAN_POINT('',(2.54,-46.1481353748269,-103.812384911062));
#1281=CARTESIAN_POINT('Origin',(0.,-13.6509717771359,-65.8198277898775));
#1282=CARTESIAN_POINT('',(2.54,-13.6509717771359,-65.8198277898775));
#1283=CARTESIAN_POINT('',(2.54,-13.6509717771359,-65.8198277898775));
#1284=CARTESIAN_POINT('',(0.,-13.6509717771359,-65.8198277898775));
#1285=CARTESIAN_POINT('Origin',(0.,-13.6572232743722,-20.0082562732786));
#1286=CARTESIAN_POINT('',(2.54,-13.6572232743722,-20.0082562732786));
#1287=CARTESIAN_POINT('Origin',(2.54,-15.9502970516453,-60.5079136094612));
#1288=UNCERTAINTY_MEASURE_WITH_UNIT(LENGTH_MEASURE(0.01),#1292,
'DISTANCE_ACCURACY_VALUE',
'Maximum model space distance between geometric entities at asserted c
onnectivities');
#1289=UNCERTAINTY_MEASURE_WITH_UNIT(LENGTH_MEASURE(0.01),#1292,
'DISTANCE_ACCURACY_VALUE',
'Maximum model space distance between geometric entities at asserted c
onnectivities');
#1290=(
GEOMETRIC_REPRESENTATION_CONTEXT(3)
GLOBAL_UNCERTAINTY_ASSIGNED_CONTEXT((#1288))
GLOBAL_UNIT_ASSIGNED_CONTEXT((#1292,#1294,#1295))
REPRESENTATION_CONTEXT('','3D')
);
#1291=(
GEOMETRIC_REPRESENTATION_CONTEXT(3)
GLOBAL_UNCERTAINTY_ASSIGNED_CONTEXT((#1289))
GLOBAL_UNIT_ASSIGNED_CONTEXT((#1292,#1294,#1295))
REPRESENTATION_CONTEXT('','3D')
);
#1292=(
LENGTH_UNIT()
NAMED_UNIT(*)
SI_UNIT(.MILLI.,.METRE.)
);
#1293=(
LENGTH_UNIT()
NAMED_UNIT(*)
SI_UNIT(.CENTI.,.METRE.)
);
#1294=(
NAMED_UNIT(*)
PLANE_ANGLE_UNIT()
SI_UNIT($,.RADIAN.)
);
#1295=(
NAMED_UNIT(*)
SI_UNIT($,.STERADIAN.)
SOLID_ANGLE_UNIT()
);
#1296=SHAPE_DEFINITION_REPRESENTATION(#1297,#1298);
#1297=PRODUCT_DEFINITION_SHAPE('',$,#1300);
#1298=SHAPE_REPRESENTATION('',(#776),#1290);
#1299=PRODUCT_DEFINITION_CONTEXT('part definition',#1304,'design');
#1300=PRODUCT_DEFINITION('output_support','output_support',#1301,#1299);
#1301=PRODUCT_DEFINITION_FORMATION('',$,#1306);
#1302=PRODUCT_RELATED_PRODUCT_CATEGORY('output_support',
'output_support',(#1306));
#1303=APPLICATION_PROTOCOL_DEFINITION('international standard',
'automotive_design',2009,#1304);
#1304=APPLICATION_CONTEXT(
'Core Data for Automotive Mechanical Design Process');
#1305=PRODUCT_CONTEXT('part definition',#1304,'mechanical');
#1306=PRODUCT('output_support','output_support',$,(#1305));
#1307=PRESENTATION_STYLE_ASSIGNMENT((#1308));
#1308=SURFACE_STYLE_USAGE(.BOTH.,#1311);
#1309=SURFACE_STYLE_RENDERING_WITH_PROPERTIES($,#1315,(#1310));
#1310=SURFACE_STYLE_TRANSPARENT(0.);
#1311=SURFACE_SIDE_STYLE('',(#1312,#1309));
#1312=SURFACE_STYLE_FILL_AREA(#1313);
#1313=FILL_AREA_STYLE('',(#1314));
#1314=FILL_AREA_STYLE_COLOUR('',#1315);
#1315=COLOUR_RGB('',0.749019607843137,0.749019607843137,0.749019607843137);
ENDSEC;
END-ISO-10303-21;
