ISO-10303-21;
HEADER;
/* Generated by software containing ST-Developer
 * from STEP Tools, Inc. (www.steptools.com) 
 */

FILE_DESCRIPTION(
/* description */ (''),
/* implementation_level */ '2;1');

FILE_NAME(
/* name */ 'rotor_hub_drive_side.stp',
/* time_stamp */ '2026-04-13T20:41:56-07:00',
/* author */ ('aaron'),
/* organization */ (''),
/* preprocessor_version */ 'ST-DEVELOPER v20.1',
/* originating_system */ 'Autodesk Inventor 2026',
/* authorisation */ '');

FILE_SCHEMA (('AUTOMOTIVE_DESIGN { 1 0 10303 214 3 1 1 }'));
ENDSEC;

DATA;
#10=MECHANICAL_DESIGN_GEOMETRIC_PRESENTATION_REPRESENTATION('',(#13),#708);
#11=SHAPE_REPRESENTATION_RELATIONSHIP('SRR','None',#715,#12);
#12=ADVANCED_BREP_SHAPE_REPRESENTATION('',(#14),#707);
#13=STYLED_ITEM('',(#724),#14);
#14=MANIFOLD_SOLID_BREP('Solid1',#391);
#15=CONICAL_SURFACE('',#423,25.5,0.785398163397448);
#16=CONICAL_SURFACE('',#428,32.,0.785398163397448);
#17=CONICAL_SURFACE('',#438,32.,0.785398163397448);
#18=LINE('',#610,#34);
#19=LINE('',#614,#35);
#20=LINE('',#621,#36);
#21=LINE('',#631,#37);
#22=LINE('',#635,#38);
#23=LINE('',#642,#39);
#24=LINE('',#650,#40);
#25=LINE('',#653,#41);
#26=LINE('',#672,#42);
#27=LINE('',#676,#43);
#28=LINE('',#680,#44);
#29=LINE('',#684,#45);
#30=LINE('',#688,#46);
#31=LINE('',#692,#47);
#32=LINE('',#696,#48);
#33=LINE('',#701,#49);
#34=VECTOR('',#482,36.99);
#35=VECTOR('',#487,36.75);
#36=VECTOR('',#496,25.5);
#37=VECTOR('',#509,32.);
#38=VECTOR('',#514,33.);
#39=VECTOR('',#523,37.75);
#40=VECTOR('',#532,32.);
#41=VECTOR('',#537,34.);
#42=VECTOR('',#558,1.65);
#43=VECTOR('',#563,1.65);
#44=VECTOR('',#568,1.65);
#45=VECTOR('',#573,1.65);
#46=VECTOR('',#578,1.65);
#47=VECTOR('',#583,1.65);
#48=VECTOR('',#588,7.5);
#49=VECTOR('',#593,22.5);
#50=CYLINDRICAL_SURFACE('',#417,36.99);
#51=CYLINDRICAL_SURFACE('',#420,36.75);
#52=CYLINDRICAL_SURFACE('',#431,33.);
#53=CYLINDRICAL_SURFACE('',#435,37.75);
#54=CYLINDRICAL_SURFACE('',#442,34.);
#55=CYLINDRICAL_SURFACE('',#451,1.65);
#56=CYLINDRICAL_SURFACE('',#453,1.65);
#57=CYLINDRICAL_SURFACE('',#455,1.65);
#58=CYLINDRICAL_SURFACE('',#457,1.65);
#59=CYLINDRICAL_SURFACE('',#459,1.65);
#60=CYLINDRICAL_SURFACE('',#461,1.65);
#61=CYLINDRICAL_SURFACE('',#463,7.5);
#62=CYLINDRICAL_SURFACE('',#465,22.5);
#63=FACE_BOUND('',#108,.T.);
#64=FACE_BOUND('',#112,.T.);
#65=FACE_BOUND('',#115,.T.);
#66=FACE_BOUND('',#119,.T.);
#67=FACE_BOUND('',#122,.T.);
#68=FACE_BOUND('',#126,.T.);
#69=FACE_BOUND('',#127,.T.);
#70=FACE_BOUND('',#128,.T.);
#71=FACE_BOUND('',#129,.T.);
#72=FACE_BOUND('',#130,.T.);
#73=FACE_BOUND('',#131,.T.);
#74=FACE_BOUND('',#132,.T.);
#75=FACE_BOUND('',#142,.T.);
#76=FACE_BOUND('',#143,.T.);
#77=FACE_BOUND('',#144,.T.);
#78=FACE_BOUND('',#145,.T.);
#79=FACE_BOUND('',#146,.T.);
#80=FACE_BOUND('',#147,.T.);
#81=FACE_BOUND('',#148,.T.);
#82=FACE_BOUND('',#150,.T.);
#83=FACE_OUTER_BOUND('',#107,.T.);
#84=FACE_OUTER_BOUND('',#109,.T.);
#85=FACE_OUTER_BOUND('',#110,.T.);
#86=FACE_OUTER_BOUND('',#111,.T.);
#87=FACE_OUTER_BOUND('',#113,.T.);
#88=FACE_OUTER_BOUND('',#114,.T.);
#89=FACE_OUTER_BOUND('',#116,.T.);
#90=FACE_OUTER_BOUND('',#117,.T.);
#91=FACE_OUTER_BOUND('',#118,.T.);
#92=FACE_OUTER_BOUND('',#120,.T.);
#93=FACE_OUTER_BOUND('',#121,.T.);
#94=FACE_OUTER_BOUND('',#123,.T.);
#95=FACE_OUTER_BOUND('',#124,.T.);
#96=FACE_OUTER_BOUND('',#125,.T.);
#97=FACE_OUTER_BOUND('',#133,.T.);
#98=FACE_OUTER_BOUND('',#134,.T.);
#99=FACE_OUTER_BOUND('',#135,.T.);
#100=FACE_OUTER_BOUND('',#136,.T.);
#101=FACE_OUTER_BOUND('',#137,.T.);
#102=FACE_OUTER_BOUND('',#138,.T.);
#103=FACE_OUTER_BOUND('',#139,.T.);
#104=FACE_OUTER_BOUND('',#140,.T.);
#105=FACE_OUTER_BOUND('',#141,.T.);
#106=FACE_OUTER_BOUND('',#149,.T.);
#107=EDGE_LOOP('',(#263));
#108=EDGE_LOOP('',(#264));
#109=EDGE_LOOP('',(#265,#266,#267,#268));
#110=EDGE_LOOP('',(#269,#270,#271,#272));
#111=EDGE_LOOP('',(#273));
#112=EDGE_LOOP('',(#274));
#113=EDGE_LOOP('',(#275,#276,#277,#278));
#114=EDGE_LOOP('',(#279));
#115=EDGE_LOOP('',(#280));
#116=EDGE_LOOP('',(#281,#282,#283,#284,#285));
#117=EDGE_LOOP('',(#286,#287,#288,#289,#290));
#118=EDGE_LOOP('',(#291));
#119=EDGE_LOOP('',(#292));
#120=EDGE_LOOP('',(#293,#294,#295,#296));
#121=EDGE_LOOP('',(#297));
#122=EDGE_LOOP('',(#298));
#123=EDGE_LOOP('',(#299,#300,#301,#302,#303));
#124=EDGE_LOOP('',(#304,#305,#306,#307,#308));
#125=EDGE_LOOP('',(#309));
#126=EDGE_LOOP('',(#310));
#127=EDGE_LOOP('',(#311));
#128=EDGE_LOOP('',(#312));
#129=EDGE_LOOP('',(#313));
#130=EDGE_LOOP('',(#314));
#131=EDGE_LOOP('',(#315));
#132=EDGE_LOOP('',(#316));
#133=EDGE_LOOP('',(#317,#318,#319,#320));
#134=EDGE_LOOP('',(#321,#322,#323,#324));
#135=EDGE_LOOP('',(#325,#326,#327,#328));
#136=EDGE_LOOP('',(#329,#330,#331,#332));
#137=EDGE_LOOP('',(#333,#334,#335,#336));
#138=EDGE_LOOP('',(#337,#338,#339,#340));
#139=EDGE_LOOP('',(#341,#342,#343,#344));
#140=EDGE_LOOP('',(#345,#346,#347,#348));
#141=EDGE_LOOP('',(#349));
#142=EDGE_LOOP('',(#350));
#143=EDGE_LOOP('',(#351));
#144=EDGE_LOOP('',(#352));
#145=EDGE_LOOP('',(#353));
#146=EDGE_LOOP('',(#354));
#147=EDGE_LOOP('',(#355));
#148=EDGE_LOOP('',(#356));
#149=EDGE_LOOP('',(#357));
#150=EDGE_LOOP('',(#358));
#151=CIRCLE('',#415,36.75);
#152=CIRCLE('',#416,34.);
#153=CIRCLE('',#418,36.99);
#154=CIRCLE('',#419,36.99);
#155=CIRCLE('',#421,36.75);
#156=CIRCLE('',#424,24.5);
#157=CIRCLE('',#425,26.5);
#158=CIRCLE('',#427,31.);
#159=CIRCLE('',#429,33.);
#160=CIRCLE('',#430,33.);
#161=CIRCLE('',#432,33.);
#162=CIRCLE('',#434,37.75);
#163=CIRCLE('',#436,37.75);
#164=CIRCLE('',#439,34.);
#165=CIRCLE('',#440,34.);
#166=CIRCLE('',#441,30.);
#167=CIRCLE('',#444,7.5);
#168=CIRCLE('',#445,1.65);
#169=CIRCLE('',#446,1.65);
#170=CIRCLE('',#447,1.65);
#171=CIRCLE('',#448,1.65);
#172=CIRCLE('',#449,1.65);
#173=CIRCLE('',#450,1.65);
#174=CIRCLE('',#452,1.65);
#175=CIRCLE('',#454,1.65);
#176=CIRCLE('',#456,1.65);
#177=CIRCLE('',#458,1.65);
#178=CIRCLE('',#460,1.65);
#179=CIRCLE('',#462,1.65);
#180=CIRCLE('',#464,7.5);
#181=CIRCLE('',#466,22.5);
#182=CIRCLE('',#467,22.5);
#183=VERTEX_POINT('',#602);
#184=VERTEX_POINT('',#604);
#185=VERTEX_POINT('',#607);
#186=VERTEX_POINT('',#609);
#187=VERTEX_POINT('',#613);
#188=VERTEX_POINT('',#618);
#189=VERTEX_POINT('',#620);
#190=VERTEX_POINT('',#624);
#191=VERTEX_POINT('',#627);
#192=VERTEX_POINT('',#628);
#193=VERTEX_POINT('',#633);
#194=VERTEX_POINT('',#637);
#195=VERTEX_POINT('',#640);
#196=VERTEX_POINT('',#645);
#197=VERTEX_POINT('',#646);
#198=VERTEX_POINT('',#649);
#199=VERTEX_POINT('',#655);
#200=VERTEX_POINT('',#657);
#201=VERTEX_POINT('',#659);
#202=VERTEX_POINT('',#661);
#203=VERTEX_POINT('',#663);
#204=VERTEX_POINT('',#665);
#205=VERTEX_POINT('',#667);
#206=VERTEX_POINT('',#670);
#207=VERTEX_POINT('',#674);
#208=VERTEX_POINT('',#678);
#209=VERTEX_POINT('',#682);
#210=VERTEX_POINT('',#686);
#211=VERTEX_POINT('',#690);
#212=VERTEX_POINT('',#694);
#213=VERTEX_POINT('',#698);
#214=VERTEX_POINT('',#700);
#215=EDGE_CURVE('',#183,#183,#151,.T.);
#216=EDGE_CURVE('',#184,#184,#152,.T.);
#217=EDGE_CURVE('',#185,#185,#153,.T.);
#218=EDGE_CURVE('',#185,#186,#18,.T.);
#219=EDGE_CURVE('',#186,#186,#154,.T.);
#220=EDGE_CURVE('',#183,#187,#19,.T.);
#221=EDGE_CURVE('',#187,#187,#155,.T.);
#222=EDGE_CURVE('',#188,#188,#156,.T.);
#223=EDGE_CURVE('',#188,#189,#20,.T.);
#224=EDGE_CURVE('',#189,#189,#157,.T.);
#225=EDGE_CURVE('',#190,#190,#158,.T.);
#226=EDGE_CURVE('',#191,#192,#159,.T.);
#227=EDGE_CURVE('',#192,#191,#160,.T.);
#228=EDGE_CURVE('',#191,#190,#21,.T.);
#229=EDGE_CURVE('',#193,#193,#161,.T.);
#230=EDGE_CURVE('',#193,#192,#22,.T.);
#231=EDGE_CURVE('',#194,#194,#162,.T.);
#232=EDGE_CURVE('',#195,#195,#163,.T.);
#233=EDGE_CURVE('',#195,#194,#23,.T.);
#234=EDGE_CURVE('',#196,#197,#164,.T.);
#235=EDGE_CURVE('',#197,#196,#165,.T.);
#236=EDGE_CURVE('',#196,#198,#24,.T.);
#237=EDGE_CURVE('',#198,#198,#166,.T.);
#238=EDGE_CURVE('',#184,#197,#25,.T.);
#239=EDGE_CURVE('',#199,#199,#167,.T.);
#240=EDGE_CURVE('',#200,#200,#168,.T.);
#241=EDGE_CURVE('',#201,#201,#169,.T.);
#242=EDGE_CURVE('',#202,#202,#170,.T.);
#243=EDGE_CURVE('',#203,#203,#171,.T.);
#244=EDGE_CURVE('',#204,#204,#172,.T.);
#245=EDGE_CURVE('',#205,#205,#173,.T.);
#246=EDGE_CURVE('',#206,#206,#174,.T.);
#247=EDGE_CURVE('',#206,#205,#26,.T.);
#248=EDGE_CURVE('',#207,#207,#175,.T.);
#249=EDGE_CURVE('',#207,#204,#27,.T.);
#250=EDGE_CURVE('',#208,#208,#176,.T.);
#251=EDGE_CURVE('',#208,#203,#28,.T.);
#252=EDGE_CURVE('',#209,#209,#177,.T.);
#253=EDGE_CURVE('',#209,#202,#29,.T.);
#254=EDGE_CURVE('',#210,#210,#178,.T.);
#255=EDGE_CURVE('',#210,#201,#30,.T.);
#256=EDGE_CURVE('',#211,#211,#179,.T.);
#257=EDGE_CURVE('',#211,#200,#31,.T.);
#258=EDGE_CURVE('',#212,#212,#180,.T.);
#259=EDGE_CURVE('',#212,#199,#32,.T.);
#260=EDGE_CURVE('',#213,#213,#181,.T.);
#261=EDGE_CURVE('',#213,#214,#33,.T.);
#262=EDGE_CURVE('',#214,#214,#182,.T.);
#263=ORIENTED_EDGE('',*,*,#215,.F.);
#264=ORIENTED_EDGE('',*,*,#216,.F.);
#265=ORIENTED_EDGE('',*,*,#217,.F.);
#266=ORIENTED_EDGE('',*,*,#218,.T.);
#267=ORIENTED_EDGE('',*,*,#219,.F.);
#268=ORIENTED_EDGE('',*,*,#218,.F.);
#269=ORIENTED_EDGE('',*,*,#215,.T.);
#270=ORIENTED_EDGE('',*,*,#220,.T.);
#271=ORIENTED_EDGE('',*,*,#221,.T.);
#272=ORIENTED_EDGE('',*,*,#220,.F.);
#273=ORIENTED_EDGE('',*,*,#217,.T.);
#274=ORIENTED_EDGE('',*,*,#221,.F.);
#275=ORIENTED_EDGE('',*,*,#222,.F.);
#276=ORIENTED_EDGE('',*,*,#223,.T.);
#277=ORIENTED_EDGE('',*,*,#224,.T.);
#278=ORIENTED_EDGE('',*,*,#223,.F.);
#279=ORIENTED_EDGE('',*,*,#225,.F.);
#280=ORIENTED_EDGE('',*,*,#224,.F.);
#281=ORIENTED_EDGE('',*,*,#226,.T.);
#282=ORIENTED_EDGE('',*,*,#227,.T.);
#283=ORIENTED_EDGE('',*,*,#228,.T.);
#284=ORIENTED_EDGE('',*,*,#225,.T.);
#285=ORIENTED_EDGE('',*,*,#228,.F.);
#286=ORIENTED_EDGE('',*,*,#229,.F.);
#287=ORIENTED_EDGE('',*,*,#230,.T.);
#288=ORIENTED_EDGE('',*,*,#226,.F.);
#289=ORIENTED_EDGE('',*,*,#227,.F.);
#290=ORIENTED_EDGE('',*,*,#230,.F.);
#291=ORIENTED_EDGE('',*,*,#231,.F.);
#292=ORIENTED_EDGE('',*,*,#219,.T.);
#293=ORIENTED_EDGE('',*,*,#232,.F.);
#294=ORIENTED_EDGE('',*,*,#233,.T.);
#295=ORIENTED_EDGE('',*,*,#231,.T.);
#296=ORIENTED_EDGE('',*,*,#233,.F.);
#297=ORIENTED_EDGE('',*,*,#232,.T.);
#298=ORIENTED_EDGE('',*,*,#229,.T.);
#299=ORIENTED_EDGE('',*,*,#234,.T.);
#300=ORIENTED_EDGE('',*,*,#235,.T.);
#301=ORIENTED_EDGE('',*,*,#236,.T.);
#302=ORIENTED_EDGE('',*,*,#237,.T.);
#303=ORIENTED_EDGE('',*,*,#236,.F.);
#304=ORIENTED_EDGE('',*,*,#216,.T.);
#305=ORIENTED_EDGE('',*,*,#238,.T.);
#306=ORIENTED_EDGE('',*,*,#234,.F.);
#307=ORIENTED_EDGE('',*,*,#235,.F.);
#308=ORIENTED_EDGE('',*,*,#238,.F.);
#309=ORIENTED_EDGE('',*,*,#237,.F.);
#310=ORIENTED_EDGE('',*,*,#239,.T.);
#311=ORIENTED_EDGE('',*,*,#240,.T.);
#312=ORIENTED_EDGE('',*,*,#241,.T.);
#313=ORIENTED_EDGE('',*,*,#242,.T.);
#314=ORIENTED_EDGE('',*,*,#243,.T.);
#315=ORIENTED_EDGE('',*,*,#244,.T.);
#316=ORIENTED_EDGE('',*,*,#245,.T.);
#317=ORIENTED_EDGE('',*,*,#246,.F.);
#318=ORIENTED_EDGE('',*,*,#247,.T.);
#319=ORIENTED_EDGE('',*,*,#245,.F.);
#320=ORIENTED_EDGE('',*,*,#247,.F.);
#321=ORIENTED_EDGE('',*,*,#248,.F.);
#322=ORIENTED_EDGE('',*,*,#249,.T.);
#323=ORIENTED_EDGE('',*,*,#244,.F.);
#324=ORIENTED_EDGE('',*,*,#249,.F.);
#325=ORIENTED_EDGE('',*,*,#250,.F.);
#326=ORIENTED_EDGE('',*,*,#251,.T.);
#327=ORIENTED_EDGE('',*,*,#243,.F.);
#328=ORIENTED_EDGE('',*,*,#251,.F.);
#329=ORIENTED_EDGE('',*,*,#252,.F.);
#330=ORIENTED_EDGE('',*,*,#253,.T.);
#331=ORIENTED_EDGE('',*,*,#242,.F.);
#332=ORIENTED_EDGE('',*,*,#253,.F.);
#333=ORIENTED_EDGE('',*,*,#254,.F.);
#334=ORIENTED_EDGE('',*,*,#255,.T.);
#335=ORIENTED_EDGE('',*,*,#241,.F.);
#336=ORIENTED_EDGE('',*,*,#255,.F.);
#337=ORIENTED_EDGE('',*,*,#256,.F.);
#338=ORIENTED_EDGE('',*,*,#257,.T.);
#339=ORIENTED_EDGE('',*,*,#240,.F.);
#340=ORIENTED_EDGE('',*,*,#257,.F.);
#341=ORIENTED_EDGE('',*,*,#258,.F.);
#342=ORIENTED_EDGE('',*,*,#259,.T.);
#343=ORIENTED_EDGE('',*,*,#239,.F.);
#344=ORIENTED_EDGE('',*,*,#259,.F.);
#345=ORIENTED_EDGE('',*,*,#260,.F.);
#346=ORIENTED_EDGE('',*,*,#261,.T.);
#347=ORIENTED_EDGE('',*,*,#262,.F.);
#348=ORIENTED_EDGE('',*,*,#261,.F.);
#349=ORIENTED_EDGE('',*,*,#260,.T.);
#350=ORIENTED_EDGE('',*,*,#246,.T.);
#351=ORIENTED_EDGE('',*,*,#248,.T.);
#352=ORIENTED_EDGE('',*,*,#250,.T.);
#353=ORIENTED_EDGE('',*,*,#252,.T.);
#354=ORIENTED_EDGE('',*,*,#254,.T.);
#355=ORIENTED_EDGE('',*,*,#256,.T.);
#356=ORIENTED_EDGE('',*,*,#258,.T.);
#357=ORIENTED_EDGE('',*,*,#222,.T.);
#358=ORIENTED_EDGE('',*,*,#262,.T.);
#359=PLANE('',#414);
#360=PLANE('',#422);
#361=PLANE('',#426);
#362=PLANE('',#433);
#363=PLANE('',#437);
#364=PLANE('',#443);
#365=PLANE('',#468);
#366=PLANE('',#469);
#367=ADVANCED_FACE('',(#83,#63),#359,.T.);
#368=ADVANCED_FACE('',(#84),#50,.T.);
#369=ADVANCED_FACE('',(#85),#51,.T.);
#370=ADVANCED_FACE('',(#86,#64),#360,.T.);
#371=ADVANCED_FACE('',(#87),#15,.T.);
#372=ADVANCED_FACE('',(#88,#65),#361,.T.);
#373=ADVANCED_FACE('',(#89),#16,.F.);
#374=ADVANCED_FACE('',(#90),#52,.F.);
#375=ADVANCED_FACE('',(#91,#66),#362,.F.);
#376=ADVANCED_FACE('',(#92),#53,.T.);
#377=ADVANCED_FACE('',(#93,#67),#363,.T.);
#378=ADVANCED_FACE('',(#94),#17,.F.);
#379=ADVANCED_FACE('',(#95),#54,.F.);
#380=ADVANCED_FACE('',(#96,#68,#69,#70,#71,#72,#73,#74),#364,.T.);
#381=ADVANCED_FACE('',(#97),#55,.F.);
#382=ADVANCED_FACE('',(#98),#56,.F.);
#383=ADVANCED_FACE('',(#99),#57,.F.);
#384=ADVANCED_FACE('',(#100),#58,.F.);
#385=ADVANCED_FACE('',(#101),#59,.F.);
#386=ADVANCED_FACE('',(#102),#60,.F.);
#387=ADVANCED_FACE('',(#103),#61,.F.);
#388=ADVANCED_FACE('',(#104),#62,.T.);
#389=ADVANCED_FACE('',(#105,#75,#76,#77,#78,#79,#80,#81),#365,.T.);
#390=ADVANCED_FACE('',(#106,#82),#366,.T.);
#391=CLOSED_SHELL('',(#367,#368,#369,#370,#371,#372,#373,#374,#375,#376,
#377,#378,#379,#380,#381,#382,#383,#384,#385,#386,#387,#388,#389,#390));
#392=DERIVED_UNIT_ELEMENT(#395,1.);
#393=DERIVED_UNIT_ELEMENT(#710,-3.);
#394=DIMENSIONAL_EXPONENTS(0.,1.,0.,0.,0.,0.,0.);
#395=(
CONVERSION_BASED_UNIT('gram',#397)
MASS_UNIT()
NAMED_UNIT(#394)
);
#396=(
MASS_UNIT()
NAMED_UNIT(*)
SI_UNIT(.KILO.,.GRAM.)
);
#397=MASS_MEASURE_WITH_UNIT(MASS_MEASURE(0.001),#396);
#398=DERIVED_UNIT((#392,#393));
#399=MEASURE_REPRESENTATION_ITEM('density measure',
POSITIVE_RATIO_MEASURE(1.),#398);
#400=PROPERTY_DEFINITION_REPRESENTATION(#405,#402);
#401=PROPERTY_DEFINITION_REPRESENTATION(#406,#403);
#402=REPRESENTATION('material name',(#404),#707);
#403=REPRESENTATION('density',(#399),#707);
#404=DESCRIPTIVE_REPRESENTATION_ITEM('Generic','Generic');
#405=PROPERTY_DEFINITION('material property','material name',#717);
#406=PROPERTY_DEFINITION('material property','density of part',#717);
#407=DATE_TIME_ROLE('creation_date');
#408=APPLIED_DATE_AND_TIME_ASSIGNMENT(#409,#407,(#717));
#409=DATE_AND_TIME(#410,#411);
#410=CALENDAR_DATE(2025,4,3);
#411=LOCAL_TIME(0,0,0.,#412);
#412=COORDINATED_UNIVERSAL_TIME_OFFSET(0,0,.BEHIND.);
#413=AXIS2_PLACEMENT_3D('',#600,#470,#471);
#414=AXIS2_PLACEMENT_3D('',#601,#472,#473);
#415=AXIS2_PLACEMENT_3D('',#603,#474,#475);
#416=AXIS2_PLACEMENT_3D('',#605,#476,#477);
#417=AXIS2_PLACEMENT_3D('',#606,#478,#479);
#418=AXIS2_PLACEMENT_3D('',#608,#480,#481);
#419=AXIS2_PLACEMENT_3D('',#611,#483,#484);
#420=AXIS2_PLACEMENT_3D('',#612,#485,#486);
#421=AXIS2_PLACEMENT_3D('',#615,#488,#489);
#422=AXIS2_PLACEMENT_3D('',#616,#490,#491);
#423=AXIS2_PLACEMENT_3D('',#617,#492,#493);
#424=AXIS2_PLACEMENT_3D('',#619,#494,#495);
#425=AXIS2_PLACEMENT_3D('',#622,#497,#498);
#426=AXIS2_PLACEMENT_3D('',#623,#499,#500);
#427=AXIS2_PLACEMENT_3D('',#625,#501,#502);
#428=AXIS2_PLACEMENT_3D('',#626,#503,#504);
#429=AXIS2_PLACEMENT_3D('',#629,#505,#506);
#430=AXIS2_PLACEMENT_3D('',#630,#507,#508);
#431=AXIS2_PLACEMENT_3D('',#632,#510,#511);
#432=AXIS2_PLACEMENT_3D('',#634,#512,#513);
#433=AXIS2_PLACEMENT_3D('',#636,#515,#516);
#434=AXIS2_PLACEMENT_3D('',#638,#517,#518);
#435=AXIS2_PLACEMENT_3D('',#639,#519,#520);
#436=AXIS2_PLACEMENT_3D('',#641,#521,#522);
#437=AXIS2_PLACEMENT_3D('',#643,#524,#525);
#438=AXIS2_PLACEMENT_3D('',#644,#526,#527);
#439=AXIS2_PLACEMENT_3D('',#647,#528,#529);
#440=AXIS2_PLACEMENT_3D('',#648,#530,#531);
#441=AXIS2_PLACEMENT_3D('',#651,#533,#534);
#442=AXIS2_PLACEMENT_3D('',#652,#535,#536);
#443=AXIS2_PLACEMENT_3D('',#654,#538,#539);
#444=AXIS2_PLACEMENT_3D('',#656,#540,#541);
#445=AXIS2_PLACEMENT_3D('',#658,#542,#543);
#446=AXIS2_PLACEMENT_3D('',#660,#544,#545);
#447=AXIS2_PLACEMENT_3D('',#662,#546,#547);
#448=AXIS2_PLACEMENT_3D('',#664,#548,#549);
#449=AXIS2_PLACEMENT_3D('',#666,#550,#551);
#450=AXIS2_PLACEMENT_3D('',#668,#552,#553);
#451=AXIS2_PLACEMENT_3D('',#669,#554,#555);
#452=AXIS2_PLACEMENT_3D('',#671,#556,#557);
#453=AXIS2_PLACEMENT_3D('',#673,#559,#560);
#454=AXIS2_PLACEMENT_3D('',#675,#561,#562);
#455=AXIS2_PLACEMENT_3D('',#677,#564,#565);
#456=AXIS2_PLACEMENT_3D('',#679,#566,#567);
#457=AXIS2_PLACEMENT_3D('',#681,#569,#570);
#458=AXIS2_PLACEMENT_3D('',#683,#571,#572);
#459=AXIS2_PLACEMENT_3D('',#685,#574,#575);
#460=AXIS2_PLACEMENT_3D('',#687,#576,#577);
#461=AXIS2_PLACEMENT_3D('',#689,#579,#580);
#462=AXIS2_PLACEMENT_3D('',#691,#581,#582);
#463=AXIS2_PLACEMENT_3D('',#693,#584,#585);
#464=AXIS2_PLACEMENT_3D('',#695,#586,#587);
#465=AXIS2_PLACEMENT_3D('',#697,#589,#590);
#466=AXIS2_PLACEMENT_3D('',#699,#591,#592);
#467=AXIS2_PLACEMENT_3D('',#702,#594,#595);
#468=AXIS2_PLACEMENT_3D('',#703,#596,#597);
#469=AXIS2_PLACEMENT_3D('',#704,#598,#599);
#470=DIRECTION('axis',(0.,0.,1.));
#471=DIRECTION('refdir',(1.,0.,0.));
#472=DIRECTION('center_axis',(0.,0.,-1.));
#473=DIRECTION('ref_axis',(-1.,0.,0.));
#474=DIRECTION('center_axis',(0.,0.,1.));
#475=DIRECTION('ref_axis',(1.,0.,0.));
#476=DIRECTION('center_axis',(0.,0.,-1.));
#477=DIRECTION('ref_axis',(-1.,0.,0.));
#478=DIRECTION('center_axis',(0.,0.,1.));
#479=DIRECTION('ref_axis',(1.,0.,0.));
#480=DIRECTION('center_axis',(0.,0.,-1.));
#481=DIRECTION('ref_axis',(1.,0.,0.));
#482=DIRECTION('',(0.,0.,1.));
#483=DIRECTION('center_axis',(0.,0.,1.));
#484=DIRECTION('ref_axis',(1.,0.,0.));
#485=DIRECTION('center_axis',(0.,0.,1.));
#486=DIRECTION('ref_axis',(1.,0.,0.));
#487=DIRECTION('',(0.,0.,1.));
#488=DIRECTION('center_axis',(0.,0.,-1.));
#489=DIRECTION('ref_axis',(1.,0.,0.));
#490=DIRECTION('center_axis',(0.,0.,-1.));
#491=DIRECTION('ref_axis',(-1.,0.,0.));
#492=DIRECTION('center_axis',(0.,0.,-1.));
#493=DIRECTION('ref_axis',(-1.,0.,0.));
#494=DIRECTION('center_axis',(0.,0.,1.));
#495=DIRECTION('ref_axis',(-1.,0.,0.));
#496=DIRECTION('',(0.707106781186548,8.65956056235493E-17,-0.707106781186548));
#497=DIRECTION('center_axis',(0.,0.,1.));
#498=DIRECTION('ref_axis',(-1.,0.,0.));
#499=DIRECTION('center_axis',(0.,0.,1.));
#500=DIRECTION('ref_axis',(1.,0.,0.));
#501=DIRECTION('center_axis',(0.,0.,-1.));
#502=DIRECTION('ref_axis',(-1.,0.,0.));
#503=DIRECTION('center_axis',(0.,0.,1.));
#504=DIRECTION('ref_axis',(-1.,0.,0.));
#505=DIRECTION('center_axis',(0.,0.,1.));
#506=DIRECTION('ref_axis',(-1.,0.,0.));
#507=DIRECTION('center_axis',(0.,0.,1.));
#508=DIRECTION('ref_axis',(-1.,0.,0.));
#509=DIRECTION('',(-0.707106781186547,-8.65956056235493E-17,-0.707106781186547));
#510=DIRECTION('center_axis',(0.,0.,-1.));
#511=DIRECTION('ref_axis',(1.,0.,0.));
#512=DIRECTION('center_axis',(0.,0.,-1.));
#513=DIRECTION('ref_axis',(-1.,0.,0.));
#514=DIRECTION('',(0.,0.,-1.));
#515=DIRECTION('center_axis',(0.,0.,1.));
#516=DIRECTION('ref_axis',(1.,0.,0.));
#517=DIRECTION('center_axis',(0.,0.,1.));
#518=DIRECTION('ref_axis',(1.,0.,0.));
#519=DIRECTION('center_axis',(0.,0.,1.));
#520=DIRECTION('ref_axis',(1.,0.,0.));
#521=DIRECTION('center_axis',(0.,0.,1.));
#522=DIRECTION('ref_axis',(1.,0.,0.));
#523=DIRECTION('',(0.,0.,-1.));
#524=DIRECTION('center_axis',(0.,0.,1.));
#525=DIRECTION('ref_axis',(1.,0.,0.));
#526=DIRECTION('center_axis',(0.,0.,-1.));
#527=DIRECTION('ref_axis',(1.,0.,0.));
#528=DIRECTION('center_axis',(0.,0.,-1.));
#529=DIRECTION('ref_axis',(1.,0.,0.));
#530=DIRECTION('center_axis',(0.,0.,-1.));
#531=DIRECTION('ref_axis',(1.,0.,0.));
#532=DIRECTION('',(0.707106781186547,-8.65956056235493E-17,0.707106781186547));
#533=DIRECTION('center_axis',(0.,0.,1.));
#534=DIRECTION('ref_axis',(1.,0.,0.));
#535=DIRECTION('center_axis',(0.,0.,1.));
#536=DIRECTION('ref_axis',(-1.,0.,0.));
#537=DIRECTION('',(0.,0.,1.));
#538=DIRECTION('center_axis',(0.,0.,-1.));
#539=DIRECTION('ref_axis',(-1.,0.,0.));
#540=DIRECTION('center_axis',(0.,0.,1.));
#541=DIRECTION('ref_axis',(1.,0.,0.));
#542=DIRECTION('center_axis',(0.,0.,1.));
#543=DIRECTION('ref_axis',(1.,0.,0.));
#544=DIRECTION('center_axis',(0.,0.,1.));
#545=DIRECTION('ref_axis',(1.,0.,0.));
#546=DIRECTION('center_axis',(0.,0.,1.));
#547=DIRECTION('ref_axis',(1.,0.,0.));
#548=DIRECTION('center_axis',(0.,0.,1.));
#549=DIRECTION('ref_axis',(1.,0.,0.));
#550=DIRECTION('center_axis',(0.,0.,1.));
#551=DIRECTION('ref_axis',(1.,0.,0.));
#552=DIRECTION('center_axis',(0.,0.,1.));
#553=DIRECTION('ref_axis',(1.,0.,0.));
#554=DIRECTION('center_axis',(0.,0.,-1.));
#555=DIRECTION('ref_axis',(1.,0.,0.));
#556=DIRECTION('center_axis',(0.,0.,-1.));
#557=DIRECTION('ref_axis',(1.,0.,0.));
#558=DIRECTION('',(0.,0.,-1.));
#559=DIRECTION('center_axis',(0.,0.,-1.));
#560=DIRECTION('ref_axis',(1.,0.,0.));
#561=DIRECTION('center_axis',(0.,0.,-1.));
#562=DIRECTION('ref_axis',(1.,0.,0.));
#563=DIRECTION('',(0.,0.,-1.));
#564=DIRECTION('center_axis',(0.,0.,-1.));
#565=DIRECTION('ref_axis',(1.,0.,0.));
#566=DIRECTION('center_axis',(0.,0.,-1.));
#567=DIRECTION('ref_axis',(1.,0.,0.));
#568=DIRECTION('',(0.,0.,-1.));
#569=DIRECTION('center_axis',(0.,0.,-1.));
#570=DIRECTION('ref_axis',(1.,0.,0.));
#571=DIRECTION('center_axis',(0.,0.,-1.));
#572=DIRECTION('ref_axis',(1.,0.,0.));
#573=DIRECTION('',(0.,0.,-1.));
#574=DIRECTION('center_axis',(0.,0.,-1.));
#575=DIRECTION('ref_axis',(1.,0.,0.));
#576=DIRECTION('center_axis',(0.,0.,-1.));
#577=DIRECTION('ref_axis',(1.,0.,0.));
#578=DIRECTION('',(0.,0.,-1.));
#579=DIRECTION('center_axis',(0.,0.,-1.));
#580=DIRECTION('ref_axis',(1.,0.,0.));
#581=DIRECTION('center_axis',(0.,0.,-1.));
#582=DIRECTION('ref_axis',(1.,0.,0.));
#583=DIRECTION('',(0.,0.,-1.));
#584=DIRECTION('center_axis',(0.,0.,-1.));
#585=DIRECTION('ref_axis',(1.,0.,0.));
#586=DIRECTION('center_axis',(0.,0.,-1.));
#587=DIRECTION('ref_axis',(1.,0.,0.));
#588=DIRECTION('',(0.,0.,-1.));
#589=DIRECTION('center_axis',(0.,0.,1.));
#590=DIRECTION('ref_axis',(1.,0.,0.));
#591=DIRECTION('center_axis',(0.,0.,1.));
#592=DIRECTION('ref_axis',(1.,0.,0.));
#593=DIRECTION('',(0.,0.,-1.));
#594=DIRECTION('center_axis',(0.,0.,-1.));
#595=DIRECTION('ref_axis',(1.,0.,0.));
#596=DIRECTION('center_axis',(0.,0.,1.));
#597=DIRECTION('ref_axis',(1.,0.,0.));
#598=DIRECTION('center_axis',(0.,0.,1.));
#599=DIRECTION('ref_axis',(1.,0.,0.));
#600=CARTESIAN_POINT('',(0.,0.,0.));
#601=CARTESIAN_POINT('Origin',(0.,0.,6.1));
#602=CARTESIAN_POINT('',(-36.75,0.,6.1));
#603=CARTESIAN_POINT('Origin',(0.,0.,6.1));
#604=CARTESIAN_POINT('',(34.,4.163799117101E-15,6.1));
#605=CARTESIAN_POINT('Origin',(0.,0.,6.1));
#606=CARTESIAN_POINT('Origin',(0.,0.,18.));
#607=CARTESIAN_POINT('',(-36.99,4.52996851004606E-15,18.));
#608=CARTESIAN_POINT('Origin',(0.,0.,18.));
#609=CARTESIAN_POINT('',(-36.99,-4.52996851004606E-15,22.));
#610=CARTESIAN_POINT('',(-36.99,-4.52996851004606E-15,18.));
#611=CARTESIAN_POINT('Origin',(0.,0.,22.));
#612=CARTESIAN_POINT('Origin',(0.,0.,6.));
#613=CARTESIAN_POINT('',(-36.75,4.50057698686653E-15,18.));
#614=CARTESIAN_POINT('',(-36.75,-4.50057698686653E-15,6.));
#615=CARTESIAN_POINT('Origin',(0.,0.,18.));
#616=CARTESIAN_POINT('Origin',(0.,0.,18.));
#617=CARTESIAN_POINT('Origin',(0.,0.,21.));
#618=CARTESIAN_POINT('',(24.5,3.00038465791102E-15,22.));
#619=CARTESIAN_POINT('Origin',(0.,0.,22.));
#620=CARTESIAN_POINT('',(26.5,3.24531401774049E-15,20.));
#621=CARTESIAN_POINT('',(25.5,3.12284933782575E-15,21.));
#622=CARTESIAN_POINT('Origin',(0.,0.,20.));
#623=CARTESIAN_POINT('Origin',(0.,0.,20.));
#624=CARTESIAN_POINT('',(31.,-3.7964050773568E-15,20.));
#625=CARTESIAN_POINT('Origin',(0.,0.,20.));
#626=CARTESIAN_POINT('Origin',(0.,0.,21.));
#627=CARTESIAN_POINT('',(33.,4.04133443718627E-15,22.));
#628=CARTESIAN_POINT('',(-33.,4.04133443718627E-15,22.));
#629=CARTESIAN_POINT('Origin',(0.,0.,22.));
#630=CARTESIAN_POINT('Origin',(0.,0.,22.));
#631=CARTESIAN_POINT('',(32.,3.91886975727153E-15,21.));
#632=CARTESIAN_POINT('Origin',(0.,0.,22.));
#633=CARTESIAN_POINT('',(-33.,4.04133443718627E-15,23.));
#634=CARTESIAN_POINT('Origin',(0.,0.,23.));
#635=CARTESIAN_POINT('',(-33.,4.04133443718627E-15,22.));
#636=CARTESIAN_POINT('Origin',(0.,0.,22.));
#637=CARTESIAN_POINT('',(-37.75,-4.62304166678126E-15,22.));
#638=CARTESIAN_POINT('Origin',(0.,0.,22.));
#639=CARTESIAN_POINT('Origin',(0.,0.,22.));
#640=CARTESIAN_POINT('',(-37.75,-4.62304166678126E-15,23.));
#641=CARTESIAN_POINT('Origin',(0.,0.,23.));
#642=CARTESIAN_POINT('',(-37.75,-4.62304166678126E-15,22.));
#643=CARTESIAN_POINT('Origin',(0.,0.,23.));
#644=CARTESIAN_POINT('Origin',(0.,0.,14.));
#645=CARTESIAN_POINT('',(-34.,4.163799117101E-15,12.));
#646=CARTESIAN_POINT('',(34.,4.163799117101E-15,12.));
#647=CARTESIAN_POINT('Origin',(0.,0.,12.));
#648=CARTESIAN_POINT('Origin',(0.,0.,12.));
#649=CARTESIAN_POINT('',(-30.,-3.67394039744206E-15,16.));
#650=CARTESIAN_POINT('',(-32.,3.91886975727153E-15,14.));
#651=CARTESIAN_POINT('Origin',(0.,0.,16.));
#652=CARTESIAN_POINT('Origin',(0.,0.,0.));
#653=CARTESIAN_POINT('',(34.,4.163799117101E-15,0.));
#654=CARTESIAN_POINT('Origin',(0.,0.,16.));
#655=CARTESIAN_POINT('',(-7.5,-9.18485099360515E-16,16.));
#656=CARTESIAN_POINT('Origin',(0.,0.,16.));
#657=CARTESIAN_POINT('',(-16.5889382152816,8.625,16.));
#658=CARTESIAN_POINT('Origin',(-14.9389382152816,8.625,16.));
#659=CARTESIAN_POINT('',(-1.65,-17.25,16.));
#660=CARTESIAN_POINT('Origin',(-2.11251572852918E-15,-17.25,16.));
#661=CARTESIAN_POINT('',(13.2889382152816,-8.62500000000001,16.));
#662=CARTESIAN_POINT('Origin',(14.9389382152816,-8.62500000000001,16.));
#663=CARTESIAN_POINT('',(-1.65,17.25,16.));
#664=CARTESIAN_POINT('Origin',(0.,17.25,16.));
#665=CARTESIAN_POINT('',(-16.5889382152816,-8.625,16.));
#666=CARTESIAN_POINT('Origin',(-14.9389382152816,-8.625,16.));
#667=CARTESIAN_POINT('',(13.2889382152816,8.62499999999999,16.));
#668=CARTESIAN_POINT('Origin',(14.9389382152816,8.62499999999999,16.));
#669=CARTESIAN_POINT('Origin',(14.9389382152816,8.62499999999999,29.));
#670=CARTESIAN_POINT('',(13.2889382152816,8.62499999999999,29.));
#671=CARTESIAN_POINT('Origin',(14.9389382152816,8.62499999999999,29.));
#672=CARTESIAN_POINT('',(13.2889382152816,8.62499999999999,29.));
#673=CARTESIAN_POINT('Origin',(-14.9389382152816,-8.625,29.));
#674=CARTESIAN_POINT('',(-16.5889382152816,-8.625,29.));
#675=CARTESIAN_POINT('Origin',(-14.9389382152816,-8.625,29.));
#676=CARTESIAN_POINT('',(-16.5889382152816,-8.625,29.));
#677=CARTESIAN_POINT('Origin',(0.,17.25,29.));
#678=CARTESIAN_POINT('',(-1.65,17.25,29.));
#679=CARTESIAN_POINT('Origin',(0.,17.25,29.));
#680=CARTESIAN_POINT('',(-1.65,17.25,29.));
#681=CARTESIAN_POINT('Origin',(14.9389382152816,-8.62500000000001,29.));
#682=CARTESIAN_POINT('',(13.2889382152816,-8.62500000000001,29.));
#683=CARTESIAN_POINT('Origin',(14.9389382152816,-8.62500000000001,29.));
#684=CARTESIAN_POINT('',(13.2889382152816,-8.62500000000001,29.));
#685=CARTESIAN_POINT('Origin',(-2.11251572852918E-15,-17.25,29.));
#686=CARTESIAN_POINT('',(-1.65,-17.25,29.));
#687=CARTESIAN_POINT('Origin',(-2.11251572852918E-15,-17.25,29.));
#688=CARTESIAN_POINT('',(-1.65,-17.25,29.));
#689=CARTESIAN_POINT('Origin',(-14.9389382152816,8.625,29.));
#690=CARTESIAN_POINT('',(-16.5889382152816,8.625,29.));
#691=CARTESIAN_POINT('Origin',(-14.9389382152816,8.625,29.));
#692=CARTESIAN_POINT('',(-16.5889382152816,8.625,29.));
#693=CARTESIAN_POINT('Origin',(0.,0.,29.));
#694=CARTESIAN_POINT('',(-7.5,9.18485099360515E-16,29.));
#695=CARTESIAN_POINT('Origin',(0.,0.,29.));
#696=CARTESIAN_POINT('',(-7.5,9.18485099360515E-16,29.));
#697=CARTESIAN_POINT('Origin',(0.,0.,22.));
#698=CARTESIAN_POINT('',(-22.5,-2.75545529808154E-15,29.));
#699=CARTESIAN_POINT('Origin',(0.,0.,29.));
#700=CARTESIAN_POINT('',(-22.5,-2.75545529808154E-15,22.));
#701=CARTESIAN_POINT('',(-22.5,-2.75545529808154E-15,22.));
#702=CARTESIAN_POINT('Origin',(0.,0.,22.));
#703=CARTESIAN_POINT('Origin',(0.,0.,29.));
#704=CARTESIAN_POINT('Origin',(0.,0.,22.));
#705=UNCERTAINTY_MEASURE_WITH_UNIT(LENGTH_MEASURE(0.01),#709,
'DISTANCE_ACCURACY_VALUE',
'Maximum model space distance between geometric entities at asserted c
onnectivities');
#706=UNCERTAINTY_MEASURE_WITH_UNIT(LENGTH_MEASURE(0.01),#709,
'DISTANCE_ACCURACY_VALUE',
'Maximum model space distance between geometric entities at asserted c
onnectivities');
#707=(
GEOMETRIC_REPRESENTATION_CONTEXT(3)
GLOBAL_UNCERTAINTY_ASSIGNED_CONTEXT((#705))
GLOBAL_UNIT_ASSIGNED_CONTEXT((#709,#711,#712))
REPRESENTATION_CONTEXT('','3D')
);
#708=(
GEOMETRIC_REPRESENTATION_CONTEXT(3)
GLOBAL_UNCERTAINTY_ASSIGNED_CONTEXT((#706))
GLOBAL_UNIT_ASSIGNED_CONTEXT((#709,#711,#712))
REPRESENTATION_CONTEXT('','3D')
);
#709=(
LENGTH_UNIT()
NAMED_UNIT(*)
SI_UNIT(.MILLI.,.METRE.)
);
#710=(
LENGTH_UNIT()
NAMED_UNIT(*)
SI_UNIT(.CENTI.,.METRE.)
);
#711=(
NAMED_UNIT(*)
PLANE_ANGLE_UNIT()
SI_UNIT($,.RADIAN.)
);
#712=(
NAMED_UNIT(*)
SI_UNIT($,.STERADIAN.)
SOLID_ANGLE_UNIT()
);
#713=SHAPE_DEFINITION_REPRESENTATION(#714,#715);
#714=PRODUCT_DEFINITION_SHAPE('',$,#717);
#715=SHAPE_REPRESENTATION('',(#413),#707);
#716=PRODUCT_DEFINITION_CONTEXT('part definition',#721,'design');
#717=PRODUCT_DEFINITION('rotor_hub','rotor_hub_drive_side',#718,#716);
#718=PRODUCT_DEFINITION_FORMATION('',$,#723);
#719=PRODUCT_RELATED_PRODUCT_CATEGORY('rotor_hub_drive_side',
'rotor_hub_drive_side',(#723));
#720=APPLICATION_PROTOCOL_DEFINITION('international standard',
'automotive_design',2009,#721);
#721=APPLICATION_CONTEXT(
'Core Data for Automotive Mechanical Design Process');
#722=PRODUCT_CONTEXT('part definition',#721,'mechanical');
#723=PRODUCT('rotor_hub','rotor_hub_drive_side',$,(#722));
#724=PRESENTATION_STYLE_ASSIGNMENT((#725));
#725=SURFACE_STYLE_USAGE(.BOTH.,#728);
#726=SURFACE_STYLE_RENDERING_WITH_PROPERTIES($,#732,(#727));
#727=SURFACE_STYLE_TRANSPARENT(0.);
#728=SURFACE_SIDE_STYLE('',(#729,#726));
#729=SURFACE_STYLE_FILL_AREA(#730);
#730=FILL_AREA_STYLE('',(#731));
#731=FILL_AREA_STYLE_COLOUR('',#732);
#732=COLOUR_RGB('',0.749019607843137,0.749019607843137,0.749019607843137);
ENDSEC;
END-ISO-10303-21;
