ISO-10303-21;
HEADER;
/* Generated by software containing ST-Developer
 * from STEP Tools, Inc. (www.steptools.com) 
 */

FILE_DESCRIPTION(
/* description */ (''),
/* implementation_level */ '2;1');

FILE_NAME(
/* name */ 'spool_spacer_driver.stp',
/* time_stamp */ '2026-05-14T16:23:13-07:00',
/* author */ ('aaron'),
/* organization */ (''),
/* preprocessor_version */ 'ST-DEVELOPER v20.1',
/* originating_system */ 'Autodesk Inventor 2026',
/* authorisation */ '');

FILE_SCHEMA (('AUTOMOTIVE_DESIGN { 1 0 10303 214 3 1 1 }'));
ENDSEC;

DATA;
#10=MECHANICAL_DESIGN_GEOMETRIC_PRESENTATION_REPRESENTATION('',(#13),#533);
#11=SHAPE_REPRESENTATION_RELATIONSHIP('SRR','None',#540,#12);
#12=ADVANCED_BREP_SHAPE_REPRESENTATION('',(#14),#532);
#13=STYLED_ITEM('',(#549),#14);
#14=MANIFOLD_SOLID_BREP('Solid1',#308);
#15=FACE_BOUND('',#60,.T.);
#16=FACE_BOUND('',#61,.T.);
#17=FACE_BOUND('',#62,.T.);
#18=FACE_BOUND('',#63,.T.);
#19=FACE_BOUND('',#64,.T.);
#20=FACE_BOUND('',#65,.T.);
#21=FACE_BOUND('',#66,.T.);
#22=FACE_BOUND('',#71,.T.);
#23=FACE_BOUND('',#72,.T.);
#24=FACE_BOUND('',#73,.T.);
#25=FACE_BOUND('',#74,.T.);
#26=FACE_BOUND('',#75,.T.);
#27=FACE_BOUND('',#76,.T.);
#28=FACE_BOUND('',#77,.T.);
#29=PLANE('',#349);
#30=PLANE('',#350);
#31=PLANE('',#351);
#32=PLANE('',#354);
#33=PLANE('',#355);
#34=PLANE('',#356);
#35=PLANE('',#357);
#36=FACE_OUTER_BOUND('',#51,.T.);
#37=FACE_OUTER_BOUND('',#52,.T.);
#38=FACE_OUTER_BOUND('',#53,.T.);
#39=FACE_OUTER_BOUND('',#54,.T.);
#40=FACE_OUTER_BOUND('',#55,.T.);
#41=FACE_OUTER_BOUND('',#56,.T.);
#42=FACE_OUTER_BOUND('',#57,.T.);
#43=FACE_OUTER_BOUND('',#58,.T.);
#44=FACE_OUTER_BOUND('',#59,.T.);
#45=FACE_OUTER_BOUND('',#67,.T.);
#46=FACE_OUTER_BOUND('',#68,.T.);
#47=FACE_OUTER_BOUND('',#69,.T.);
#48=FACE_OUTER_BOUND('',#70,.T.);
#49=FACE_OUTER_BOUND('',#78,.T.);
#50=FACE_OUTER_BOUND('',#79,.T.);
#51=EDGE_LOOP('',(#207,#208,#209,#210));
#52=EDGE_LOOP('',(#211,#212,#213,#214));
#53=EDGE_LOOP('',(#215,#216,#217,#218));
#54=EDGE_LOOP('',(#219,#220,#221,#222));
#55=EDGE_LOOP('',(#223,#224,#225,#226));
#56=EDGE_LOOP('',(#227,#228,#229,#230));
#57=EDGE_LOOP('',(#231,#232,#233,#234));
#58=EDGE_LOOP('',(#235,#236,#237,#238));
#59=EDGE_LOOP('',(#239));
#60=EDGE_LOOP('',(#240));
#61=EDGE_LOOP('',(#241));
#62=EDGE_LOOP('',(#242));
#63=EDGE_LOOP('',(#243));
#64=EDGE_LOOP('',(#244));
#65=EDGE_LOOP('',(#245));
#66=EDGE_LOOP('',(#246,#247,#248,#249,#250,#251));
#67=EDGE_LOOP('',(#252,#253,#254,#255));
#68=EDGE_LOOP('',(#256,#257,#258,#259));
#69=EDGE_LOOP('',(#260,#261,#262,#263));
#70=EDGE_LOOP('',(#264));
#71=EDGE_LOOP('',(#265));
#72=EDGE_LOOP('',(#266));
#73=EDGE_LOOP('',(#267));
#74=EDGE_LOOP('',(#268));
#75=EDGE_LOOP('',(#269));
#76=EDGE_LOOP('',(#270));
#77=EDGE_LOOP('',(#271,#272,#273,#274,#275,#276));
#78=EDGE_LOOP('',(#277,#278,#279,#280));
#79=EDGE_LOOP('',(#281,#282,#283,#284));
#80=LINE('',#454,#103);
#81=LINE('',#460,#104);
#82=LINE('',#466,#105);
#83=LINE('',#472,#106);
#84=LINE('',#478,#107);
#85=LINE('',#484,#108);
#86=LINE('',#489,#109);
#87=LINE('',#491,#110);
#88=LINE('',#493,#111);
#89=LINE('',#494,#112);
#90=LINE('',#497,#113);
#91=LINE('',#499,#114);
#92=LINE('',#500,#115);
#93=LINE('',#505,#116);
#94=LINE('',#509,#117);
#95=LINE('',#510,#118);
#96=LINE('',#513,#119);
#97=LINE('',#514,#120);
#98=LINE('',#517,#121);
#99=LINE('',#518,#122);
#100=LINE('',#521,#123);
#101=LINE('',#522,#124);
#102=LINE('',#529,#125);
#103=VECTOR('',#368,2.05);
#104=VECTOR('',#375,2.05);
#105=VECTOR('',#382,2.05);
#106=VECTOR('',#389,2.05);
#107=VECTOR('',#396,2.05);
#108=VECTOR('',#403,2.05);
#109=VECTOR('',#408,10.);
#110=VECTOR('',#409,10.);
#111=VECTOR('',#410,10.);
#112=VECTOR('',#411,10.);
#113=VECTOR('',#414,10.);
#114=VECTOR('',#415,10.);
#115=VECTOR('',#416,10.);
#116=VECTOR('',#421,10.);
#117=VECTOR('',#424,10.);
#118=VECTOR('',#425,10.);
#119=VECTOR('',#428,10.);
#120=VECTOR('',#429,10.);
#121=VECTOR('',#432,10.);
#122=VECTOR('',#433,10.);
#123=VECTOR('',#436,10.);
#124=VECTOR('',#437,10.);
#125=VECTOR('',#448,24.);
#126=CIRCLE('',#332,2.05);
#127=CIRCLE('',#333,2.05);
#128=CIRCLE('',#335,2.05);
#129=CIRCLE('',#336,2.05);
#130=CIRCLE('',#338,2.05);
#131=CIRCLE('',#339,2.05);
#132=CIRCLE('',#341,2.05);
#133=CIRCLE('',#342,2.05);
#134=CIRCLE('',#344,2.05);
#135=CIRCLE('',#345,2.05);
#136=CIRCLE('',#347,2.05);
#137=CIRCLE('',#348,2.05);
#138=CIRCLE('',#352,24.);
#139=CIRCLE('',#353,7.55);
#140=CIRCLE('',#358,24.);
#141=CIRCLE('',#359,7.55);
#142=VERTEX_POINT('',#451);
#143=VERTEX_POINT('',#453);
#144=VERTEX_POINT('',#457);
#145=VERTEX_POINT('',#459);
#146=VERTEX_POINT('',#463);
#147=VERTEX_POINT('',#465);
#148=VERTEX_POINT('',#469);
#149=VERTEX_POINT('',#471);
#150=VERTEX_POINT('',#475);
#151=VERTEX_POINT('',#477);
#152=VERTEX_POINT('',#481);
#153=VERTEX_POINT('',#483);
#154=VERTEX_POINT('',#487);
#155=VERTEX_POINT('',#488);
#156=VERTEX_POINT('',#490);
#157=VERTEX_POINT('',#492);
#158=VERTEX_POINT('',#496);
#159=VERTEX_POINT('',#498);
#160=VERTEX_POINT('',#502);
#161=VERTEX_POINT('',#504);
#162=VERTEX_POINT('',#506);
#163=VERTEX_POINT('',#508);
#164=VERTEX_POINT('',#512);
#165=VERTEX_POINT('',#516);
#166=VERTEX_POINT('',#520);
#167=VERTEX_POINT('',#524);
#168=EDGE_CURVE('',#142,#142,#126,.T.);
#169=EDGE_CURVE('',#142,#143,#80,.T.);
#170=EDGE_CURVE('',#143,#143,#127,.T.);
#171=EDGE_CURVE('',#144,#144,#128,.T.);
#172=EDGE_CURVE('',#144,#145,#81,.T.);
#173=EDGE_CURVE('',#145,#145,#129,.T.);
#174=EDGE_CURVE('',#146,#146,#130,.T.);
#175=EDGE_CURVE('',#146,#147,#82,.T.);
#176=EDGE_CURVE('',#147,#147,#131,.T.);
#177=EDGE_CURVE('',#148,#148,#132,.T.);
#178=EDGE_CURVE('',#148,#149,#83,.T.);
#179=EDGE_CURVE('',#149,#149,#133,.T.);
#180=EDGE_CURVE('',#150,#150,#134,.T.);
#181=EDGE_CURVE('',#150,#151,#84,.T.);
#182=EDGE_CURVE('',#151,#151,#135,.T.);
#183=EDGE_CURVE('',#152,#152,#136,.T.);
#184=EDGE_CURVE('',#152,#153,#85,.T.);
#185=EDGE_CURVE('',#153,#153,#137,.T.);
#186=EDGE_CURVE('',#154,#155,#86,.T.);
#187=EDGE_CURVE('',#155,#156,#87,.T.);
#188=EDGE_CURVE('',#156,#157,#88,.T.);
#189=EDGE_CURVE('',#157,#154,#89,.T.);
#190=EDGE_CURVE('',#158,#157,#90,.T.);
#191=EDGE_CURVE('',#159,#158,#91,.T.);
#192=EDGE_CURVE('',#154,#159,#92,.T.);
#193=EDGE_CURVE('',#160,#160,#138,.T.);
#194=EDGE_CURVE('',#156,#161,#93,.T.);
#195=EDGE_CURVE('',#161,#162,#139,.T.);
#196=EDGE_CURVE('',#162,#163,#94,.T.);
#197=EDGE_CURVE('',#158,#163,#95,.T.);
#198=EDGE_CURVE('',#164,#159,#96,.T.);
#199=EDGE_CURVE('',#163,#164,#97,.T.);
#200=EDGE_CURVE('',#165,#155,#98,.T.);
#201=EDGE_CURVE('',#161,#165,#99,.T.);
#202=EDGE_CURVE('',#166,#162,#100,.T.);
#203=EDGE_CURVE('',#164,#166,#101,.T.);
#204=EDGE_CURVE('',#167,#167,#140,.T.);
#205=EDGE_CURVE('',#165,#166,#141,.T.);
#206=EDGE_CURVE('',#160,#167,#102,.T.);
#207=ORIENTED_EDGE('',*,*,#168,.F.);
#208=ORIENTED_EDGE('',*,*,#169,.T.);
#209=ORIENTED_EDGE('',*,*,#170,.F.);
#210=ORIENTED_EDGE('',*,*,#169,.F.);
#211=ORIENTED_EDGE('',*,*,#171,.F.);
#212=ORIENTED_EDGE('',*,*,#172,.T.);
#213=ORIENTED_EDGE('',*,*,#173,.F.);
#214=ORIENTED_EDGE('',*,*,#172,.F.);
#215=ORIENTED_EDGE('',*,*,#174,.F.);
#216=ORIENTED_EDGE('',*,*,#175,.T.);
#217=ORIENTED_EDGE('',*,*,#176,.F.);
#218=ORIENTED_EDGE('',*,*,#175,.F.);
#219=ORIENTED_EDGE('',*,*,#177,.F.);
#220=ORIENTED_EDGE('',*,*,#178,.T.);
#221=ORIENTED_EDGE('',*,*,#179,.F.);
#222=ORIENTED_EDGE('',*,*,#178,.F.);
#223=ORIENTED_EDGE('',*,*,#180,.F.);
#224=ORIENTED_EDGE('',*,*,#181,.T.);
#225=ORIENTED_EDGE('',*,*,#182,.F.);
#226=ORIENTED_EDGE('',*,*,#181,.F.);
#227=ORIENTED_EDGE('',*,*,#183,.F.);
#228=ORIENTED_EDGE('',*,*,#184,.T.);
#229=ORIENTED_EDGE('',*,*,#185,.F.);
#230=ORIENTED_EDGE('',*,*,#184,.F.);
#231=ORIENTED_EDGE('',*,*,#186,.T.);
#232=ORIENTED_EDGE('',*,*,#187,.T.);
#233=ORIENTED_EDGE('',*,*,#188,.T.);
#234=ORIENTED_EDGE('',*,*,#189,.T.);
#235=ORIENTED_EDGE('',*,*,#189,.F.);
#236=ORIENTED_EDGE('',*,*,#190,.F.);
#237=ORIENTED_EDGE('',*,*,#191,.F.);
#238=ORIENTED_EDGE('',*,*,#192,.F.);
#239=ORIENTED_EDGE('',*,*,#193,.T.);
#240=ORIENTED_EDGE('',*,*,#170,.T.);
#241=ORIENTED_EDGE('',*,*,#173,.T.);
#242=ORIENTED_EDGE('',*,*,#176,.T.);
#243=ORIENTED_EDGE('',*,*,#179,.T.);
#244=ORIENTED_EDGE('',*,*,#182,.T.);
#245=ORIENTED_EDGE('',*,*,#185,.T.);
#246=ORIENTED_EDGE('',*,*,#188,.F.);
#247=ORIENTED_EDGE('',*,*,#194,.T.);
#248=ORIENTED_EDGE('',*,*,#195,.T.);
#249=ORIENTED_EDGE('',*,*,#196,.T.);
#250=ORIENTED_EDGE('',*,*,#197,.F.);
#251=ORIENTED_EDGE('',*,*,#190,.T.);
#252=ORIENTED_EDGE('',*,*,#198,.T.);
#253=ORIENTED_EDGE('',*,*,#191,.T.);
#254=ORIENTED_EDGE('',*,*,#197,.T.);
#255=ORIENTED_EDGE('',*,*,#199,.T.);
#256=ORIENTED_EDGE('',*,*,#187,.F.);
#257=ORIENTED_EDGE('',*,*,#200,.F.);
#258=ORIENTED_EDGE('',*,*,#201,.F.);
#259=ORIENTED_EDGE('',*,*,#194,.F.);
#260=ORIENTED_EDGE('',*,*,#199,.F.);
#261=ORIENTED_EDGE('',*,*,#196,.F.);
#262=ORIENTED_EDGE('',*,*,#202,.F.);
#263=ORIENTED_EDGE('',*,*,#203,.F.);
#264=ORIENTED_EDGE('',*,*,#204,.F.);
#265=ORIENTED_EDGE('',*,*,#168,.T.);
#266=ORIENTED_EDGE('',*,*,#171,.T.);
#267=ORIENTED_EDGE('',*,*,#174,.T.);
#268=ORIENTED_EDGE('',*,*,#177,.T.);
#269=ORIENTED_EDGE('',*,*,#180,.T.);
#270=ORIENTED_EDGE('',*,*,#183,.T.);
#271=ORIENTED_EDGE('',*,*,#186,.F.);
#272=ORIENTED_EDGE('',*,*,#192,.T.);
#273=ORIENTED_EDGE('',*,*,#198,.F.);
#274=ORIENTED_EDGE('',*,*,#203,.T.);
#275=ORIENTED_EDGE('',*,*,#205,.F.);
#276=ORIENTED_EDGE('',*,*,#200,.T.);
#277=ORIENTED_EDGE('',*,*,#201,.T.);
#278=ORIENTED_EDGE('',*,*,#205,.T.);
#279=ORIENTED_EDGE('',*,*,#202,.T.);
#280=ORIENTED_EDGE('',*,*,#195,.F.);
#281=ORIENTED_EDGE('',*,*,#193,.F.);
#282=ORIENTED_EDGE('',*,*,#206,.T.);
#283=ORIENTED_EDGE('',*,*,#204,.T.);
#284=ORIENTED_EDGE('',*,*,#206,.F.);
#285=CYLINDRICAL_SURFACE('',#331,2.05);
#286=CYLINDRICAL_SURFACE('',#334,2.05);
#287=CYLINDRICAL_SURFACE('',#337,2.05);
#288=CYLINDRICAL_SURFACE('',#340,2.05);
#289=CYLINDRICAL_SURFACE('',#343,2.05);
#290=CYLINDRICAL_SURFACE('',#346,2.05);
#291=CYLINDRICAL_SURFACE('',#360,7.55);
#292=CYLINDRICAL_SURFACE('',#361,24.);
#293=ADVANCED_FACE('',(#36),#285,.F.);
#294=ADVANCED_FACE('',(#37),#286,.F.);
#295=ADVANCED_FACE('',(#38),#287,.F.);
#296=ADVANCED_FACE('',(#39),#288,.F.);
#297=ADVANCED_FACE('',(#40),#289,.F.);
#298=ADVANCED_FACE('',(#41),#290,.F.);
#299=ADVANCED_FACE('',(#42),#29,.T.);
#300=ADVANCED_FACE('',(#43),#30,.T.);
#301=ADVANCED_FACE('',(#44,#15,#16,#17,#18,#19,#20,#21),#31,.T.);
#302=ADVANCED_FACE('',(#45),#32,.T.);
#303=ADVANCED_FACE('',(#46),#33,.T.);
#304=ADVANCED_FACE('',(#47),#34,.T.);
#305=ADVANCED_FACE('',(#48,#22,#23,#24,#25,#26,#27,#28),#35,.F.);
#306=ADVANCED_FACE('',(#49),#291,.F.);
#307=ADVANCED_FACE('',(#50),#292,.T.);
#308=CLOSED_SHELL('',(#293,#294,#295,#296,#297,#298,#299,#300,#301,#302,
#303,#304,#305,#306,#307));
#309=DERIVED_UNIT_ELEMENT(#312,1.);
#310=DERIVED_UNIT_ELEMENT(#535,-3.);
#311=DIMENSIONAL_EXPONENTS(0.,1.,0.,0.,0.,0.,0.);
#312=(
CONVERSION_BASED_UNIT('gram',#314)
MASS_UNIT()
NAMED_UNIT(#311)
);
#313=(
MASS_UNIT()
NAMED_UNIT(*)
SI_UNIT(.KILO.,.GRAM.)
);
#314=MASS_MEASURE_WITH_UNIT(MASS_MEASURE(0.001),#313);
#315=DERIVED_UNIT((#309,#310));
#316=MEASURE_REPRESENTATION_ITEM('density measure',
POSITIVE_RATIO_MEASURE(1.),#315);
#317=PROPERTY_DEFINITION_REPRESENTATION(#322,#319);
#318=PROPERTY_DEFINITION_REPRESENTATION(#323,#320);
#319=REPRESENTATION('material name',(#321),#532);
#320=REPRESENTATION('density',(#316),#532);
#321=DESCRIPTIVE_REPRESENTATION_ITEM('Generic','Generic');
#322=PROPERTY_DEFINITION('material property','material name',#542);
#323=PROPERTY_DEFINITION('material property','density of part',#542);
#324=DATE_TIME_ROLE('creation_date');
#325=APPLIED_DATE_AND_TIME_ASSIGNMENT(#326,#324,(#542));
#326=DATE_AND_TIME(#327,#328);
#327=CALENDAR_DATE(2026,28,4);
#328=LOCAL_TIME(0,0,0.,#329);
#329=COORDINATED_UNIVERSAL_TIME_OFFSET(0,0,.BEHIND.);
#330=AXIS2_PLACEMENT_3D('',#449,#362,#363);
#331=AXIS2_PLACEMENT_3D('',#450,#364,#365);
#332=AXIS2_PLACEMENT_3D('',#452,#366,#367);
#333=AXIS2_PLACEMENT_3D('',#455,#369,#370);
#334=AXIS2_PLACEMENT_3D('',#456,#371,#372);
#335=AXIS2_PLACEMENT_3D('',#458,#373,#374);
#336=AXIS2_PLACEMENT_3D('',#461,#376,#377);
#337=AXIS2_PLACEMENT_3D('',#462,#378,#379);
#338=AXIS2_PLACEMENT_3D('',#464,#380,#381);
#339=AXIS2_PLACEMENT_3D('',#467,#383,#384);
#340=AXIS2_PLACEMENT_3D('',#468,#385,#386);
#341=AXIS2_PLACEMENT_3D('',#470,#387,#388);
#342=AXIS2_PLACEMENT_3D('',#473,#390,#391);
#343=AXIS2_PLACEMENT_3D('',#474,#392,#393);
#344=AXIS2_PLACEMENT_3D('',#476,#394,#395);
#345=AXIS2_PLACEMENT_3D('',#479,#397,#398);
#346=AXIS2_PLACEMENT_3D('',#480,#399,#400);
#347=AXIS2_PLACEMENT_3D('',#482,#401,#402);
#348=AXIS2_PLACEMENT_3D('',#485,#404,#405);
#349=AXIS2_PLACEMENT_3D('',#486,#406,#407);
#350=AXIS2_PLACEMENT_3D('',#495,#412,#413);
#351=AXIS2_PLACEMENT_3D('',#501,#417,#418);
#352=AXIS2_PLACEMENT_3D('',#503,#419,#420);
#353=AXIS2_PLACEMENT_3D('',#507,#422,#423);
#354=AXIS2_PLACEMENT_3D('',#511,#426,#427);
#355=AXIS2_PLACEMENT_3D('',#515,#430,#431);
#356=AXIS2_PLACEMENT_3D('',#519,#434,#435);
#357=AXIS2_PLACEMENT_3D('',#523,#438,#439);
#358=AXIS2_PLACEMENT_3D('',#525,#440,#441);
#359=AXIS2_PLACEMENT_3D('',#526,#442,#443);
#360=AXIS2_PLACEMENT_3D('',#527,#444,#445);
#361=AXIS2_PLACEMENT_3D('',#528,#446,#447);
#362=DIRECTION('axis',(0.,0.,1.));
#363=DIRECTION('refdir',(1.,0.,0.));
#364=DIRECTION('center_axis',(0.,0.,-1.));
#365=DIRECTION('ref_axis',(-1.,0.,0.));
#366=DIRECTION('center_axis',(0.,0.,1.));
#367=DIRECTION('ref_axis',(-1.,0.,0.));
#368=DIRECTION('',(0.,0.,1.));
#369=DIRECTION('center_axis',(0.,0.,-1.));
#370=DIRECTION('ref_axis',(-1.,0.,0.));
#371=DIRECTION('center_axis',(0.,0.,-1.));
#372=DIRECTION('ref_axis',(-1.,0.,0.));
#373=DIRECTION('center_axis',(0.,0.,1.));
#374=DIRECTION('ref_axis',(-1.,0.,0.));
#375=DIRECTION('',(0.,0.,1.));
#376=DIRECTION('center_axis',(0.,0.,-1.));
#377=DIRECTION('ref_axis',(-1.,0.,0.));
#378=DIRECTION('center_axis',(0.,0.,-1.));
#379=DIRECTION('ref_axis',(-1.,0.,0.));
#380=DIRECTION('center_axis',(0.,0.,1.));
#381=DIRECTION('ref_axis',(-1.,0.,0.));
#382=DIRECTION('',(0.,0.,1.));
#383=DIRECTION('center_axis',(0.,0.,-1.));
#384=DIRECTION('ref_axis',(-1.,0.,0.));
#385=DIRECTION('center_axis',(0.,0.,-1.));
#386=DIRECTION('ref_axis',(-1.,0.,0.));
#387=DIRECTION('center_axis',(0.,0.,1.));
#388=DIRECTION('ref_axis',(-1.,0.,0.));
#389=DIRECTION('',(0.,0.,1.));
#390=DIRECTION('center_axis',(0.,0.,-1.));
#391=DIRECTION('ref_axis',(-1.,0.,0.));
#392=DIRECTION('center_axis',(0.,0.,-1.));
#393=DIRECTION('ref_axis',(-1.,0.,0.));
#394=DIRECTION('center_axis',(0.,0.,1.));
#395=DIRECTION('ref_axis',(-1.,0.,0.));
#396=DIRECTION('',(0.,0.,1.));
#397=DIRECTION('center_axis',(0.,0.,-1.));
#398=DIRECTION('ref_axis',(-1.,0.,0.));
#399=DIRECTION('center_axis',(0.,0.,-1.));
#400=DIRECTION('ref_axis',(-1.,0.,0.));
#401=DIRECTION('center_axis',(0.,0.,1.));
#402=DIRECTION('ref_axis',(-1.,0.,0.));
#403=DIRECTION('',(0.,0.,1.));
#404=DIRECTION('center_axis',(0.,0.,-1.));
#405=DIRECTION('ref_axis',(-1.,0.,0.));
#406=DIRECTION('center_axis',(0.707106781186547,-0.707106781186548,0.));
#407=DIRECTION('ref_axis',(0.,0.,-1.));
#408=DIRECTION('',(0.707106781186548,0.707106781186547,0.));
#409=DIRECTION('',(0.,0.,1.));
#410=DIRECTION('',(-0.707106781186548,-0.707106781186547,0.));
#411=DIRECTION('',(0.,0.,-1.));
#412=DIRECTION('center_axis',(0.,-1.,0.));
#413=DIRECTION('ref_axis',(-1.,0.,0.));
#414=DIRECTION('',(1.,0.,0.));
#415=DIRECTION('',(0.,0.,1.));
#416=DIRECTION('',(-1.,0.,0.));
#417=DIRECTION('center_axis',(0.,0.,1.));
#418=DIRECTION('ref_axis',(1.,0.,0.));
#419=DIRECTION('center_axis',(0.,0.,1.));
#420=DIRECTION('ref_axis',(1.,0.,0.));
#421=DIRECTION('',(-1.56946765867059E-16,1.,0.));
#422=DIRECTION('center_axis',(0.,0.,-1.));
#423=DIRECTION('ref_axis',(-1.,0.,0.));
#424=DIRECTION('',(3.13893531734117E-16,-1.,0.));
#425=DIRECTION('',(-0.707106781186547,0.707106781186548,0.));
#426=DIRECTION('center_axis',(-0.707106781186548,-0.707106781186547,0.));
#427=DIRECTION('ref_axis',(0.,0.,1.));
#428=DIRECTION('',(0.707106781186547,-0.707106781186548,0.));
#429=DIRECTION('',(0.,0.,-1.));
#430=DIRECTION('center_axis',(1.,1.56946765867059E-16,0.));
#431=DIRECTION('ref_axis',(1.56946765867059E-16,-1.,0.));
#432=DIRECTION('',(1.56946765867059E-16,-1.,0.));
#433=DIRECTION('',(0.,0.,-1.));
#434=DIRECTION('center_axis',(-1.,-3.13893531734117E-16,0.));
#435=DIRECTION('ref_axis',(-3.13893531734117E-16,1.,0.));
#436=DIRECTION('',(0.,0.,1.));
#437=DIRECTION('',(-3.13893531734117E-16,1.,0.));
#438=DIRECTION('center_axis',(0.,0.,1.));
#439=DIRECTION('ref_axis',(1.,0.,0.));
#440=DIRECTION('center_axis',(0.,0.,1.));
#441=DIRECTION('ref_axis',(1.,0.,0.));
#442=DIRECTION('center_axis',(0.,0.,-1.));
#443=DIRECTION('ref_axis',(-1.,0.,0.));
#444=DIRECTION('center_axis',(0.,0.,1.));
#445=DIRECTION('ref_axis',(7.04922361811415E-5,-0.999999997515422,0.));
#446=DIRECTION('center_axis',(0.,0.,1.));
#447=DIRECTION('ref_axis',(1.,0.,0.));
#448=DIRECTION('',(0.,0.,-1.));
#449=CARTESIAN_POINT('',(0.,0.,0.));
#450=CARTESIAN_POINT('Origin',(17.0544130222339,-2.59026957420416,3.18));
#451=CARTESIAN_POINT('',(19.1044130222339,-2.59026957420416,0.));
#452=CARTESIAN_POINT('Origin',(17.0544130222339,-2.59026957420416,0.));
#453=CARTESIAN_POINT('',(19.1044130222339,-2.59026957420416,3.18));
#454=CARTESIAN_POINT('',(19.1044130222339,-2.59026957420416,3.18));
#455=CARTESIAN_POINT('Origin',(17.0544130222339,-2.59026957420416,3.18));
#456=CARTESIAN_POINT('Origin',(-6.28396725720625,16.0646897109888,3.18));
#457=CARTESIAN_POINT('',(-4.23396725720625,16.0646897109888,0.));
#458=CARTESIAN_POINT('Origin',(-6.28396725720625,16.0646897109888,0.));
#459=CARTESIAN_POINT('',(-4.23396725720625,16.0646897109888,3.18));
#460=CARTESIAN_POINT('',(-4.23396725720625,16.0646897109888,3.18));
#461=CARTESIAN_POINT('Origin',(-6.28396725720625,16.0646897109888,3.18));
#462=CARTESIAN_POINT('Origin',(-10.7704457650276,-13.4744201367846,3.18));
#463=CARTESIAN_POINT('',(-8.72044576502765,-13.4744201367846,0.));
#464=CARTESIAN_POINT('Origin',(-10.7704457650276,-13.4744201367846,0.));
#465=CARTESIAN_POINT('',(-8.72044576502765,-13.4744201367846,3.18));
#466=CARTESIAN_POINT('',(-8.72044576502765,-13.4744201367846,3.18));
#467=CARTESIAN_POINT('Origin',(-10.7704457650276,-13.4744201367846,3.18));
#468=CARTESIAN_POINT('Origin',(6.28396725720624,-16.0646897109888,3.18));
#469=CARTESIAN_POINT('',(8.33396725720624,-16.0646897109888,0.));
#470=CARTESIAN_POINT('Origin',(6.28396725720624,-16.0646897109888,0.));
#471=CARTESIAN_POINT('',(8.33396725720624,-16.0646897109888,3.18));
#472=CARTESIAN_POINT('',(8.33396725720624,-16.0646897109888,3.18));
#473=CARTESIAN_POINT('Origin',(6.28396725720624,-16.0646897109888,3.18));
#474=CARTESIAN_POINT('Origin',(10.7704457650277,13.4744201367846,3.18));
#475=CARTESIAN_POINT('',(12.8204457650277,13.4744201367846,0.));
#476=CARTESIAN_POINT('Origin',(10.7704457650277,13.4744201367846,0.));
#477=CARTESIAN_POINT('',(12.8204457650277,13.4744201367846,3.18));
#478=CARTESIAN_POINT('',(12.8204457650277,13.4744201367846,3.18));
#479=CARTESIAN_POINT('Origin',(10.7704457650277,13.4744201367846,3.18));
#480=CARTESIAN_POINT('Origin',(-17.0544130222339,2.59026957420416,3.18));
#481=CARTESIAN_POINT('',(-15.0044130222339,2.59026957420416,0.));
#482=CARTESIAN_POINT('Origin',(-17.0544130222339,2.59026957420416,0.));
#483=CARTESIAN_POINT('',(-15.0044130222339,2.59026957420416,3.18));
#484=CARTESIAN_POINT('',(-15.0044130222339,2.59026957420416,3.18));
#485=CARTESIAN_POINT('Origin',(-17.0544130222339,2.59026957420416,3.18));
#486=CARTESIAN_POINT('Origin',(2.34932753500752,4.65419324981397,3.18));
#487=CARTESIAN_POINT('',(2.24932753500752,4.55419324981397,0.));
#488=CARTESIAN_POINT('',(2.44932753500752,4.75419324981397,0.));
#489=CARTESIAN_POINT('',(0.598447338802149,2.9033130536086,0.));
#490=CARTESIAN_POINT('',(2.44932753500752,4.75419324981397,3.18));
#491=CARTESIAN_POINT('',(2.44932753500752,4.75419324981397,3.18));
#492=CARTESIAN_POINT('',(2.24932753500752,4.55419324981397,3.18));
#493=CARTESIAN_POINT('',(0.598447338802149,2.9033130536086,3.18));
#494=CARTESIAN_POINT('',(2.24932753500752,4.55419324981397,3.18));
#495=CARTESIAN_POINT('Origin',(2.44932753500752,4.55419324981397,3.18));
#496=CARTESIAN_POINT('',(-2.25033437370211,4.55419324981397,3.18));
#497=CARTESIAN_POINT('',(-2.45033437370211,4.55419324981397,3.18));
#498=CARTESIAN_POINT('',(-2.25033437370211,4.55419324981397,0.));
#499=CARTESIAN_POINT('',(-2.25033437370211,4.55419324981397,3.18));
#500=CARTESIAN_POINT('',(1.22441205783011,4.55419324981397,0.));
#501=CARTESIAN_POINT('Origin',(0.,0.,3.18));
#502=CARTESIAN_POINT('',(-24.,-2.93915231795365E-15,3.18));
#503=CARTESIAN_POINT('Origin',(0.,0.,3.18));
#504=CARTESIAN_POINT('',(2.44932753500752,7.14165909479401,3.18));
#505=CARTESIAN_POINT('',(2.44932753500752,4.55419324981397,3.18));
#506=CARTESIAN_POINT('',(-2.45033437370211,7.14131370666867,3.18));
#507=CARTESIAN_POINT('Origin',(0.,0.,3.18));
#508=CARTESIAN_POINT('',(-2.45033437370211,4.75419324981397,3.18));
#509=CARTESIAN_POINT('',(-2.45033437370211,8.09113464039213,3.18));
#510=CARTESIAN_POINT('',(-0.599202467823092,2.90306134393495,3.18));
#511=CARTESIAN_POINT('Origin',(-2.35033437370211,4.65419324981397,3.18));
#512=CARTESIAN_POINT('',(-2.45033437370211,4.75419324981397,0.));
#513=CARTESIAN_POINT('',(-0.599202467823092,2.90306134393495,0.));
#514=CARTESIAN_POINT('',(-2.45033437370211,4.75419324981397,3.18));
#515=CARTESIAN_POINT('Origin',(2.44932753500752,8.09113464039213,3.18));
#516=CARTESIAN_POINT('',(2.44932753500752,7.14165909479401,0.));
#517=CARTESIAN_POINT('',(2.44932753500752,7.20689929274759,0.));
#518=CARTESIAN_POINT('',(2.44932753500752,7.14165909479401,0.));
#519=CARTESIAN_POINT('Origin',(-2.45033437370211,4.55419324981397,3.18));
#520=CARTESIAN_POINT('',(-2.45033437370211,7.14131370666867,0.));
#521=CARTESIAN_POINT('',(-2.45033437370211,7.14131370666867,0.));
#522=CARTESIAN_POINT('',(-2.45033437370211,5.43842859745851,0.));
#523=CARTESIAN_POINT('Origin',(0.,0.,0.));
#524=CARTESIAN_POINT('',(-24.,-2.93915231795365E-15,0.));
#525=CARTESIAN_POINT('Origin',(0.,0.,0.));
#526=CARTESIAN_POINT('Origin',(0.,0.,0.));
#527=CARTESIAN_POINT('Origin',(0.,0.,0.));
#528=CARTESIAN_POINT('Origin',(0.,0.,0.));
#529=CARTESIAN_POINT('',(-24.,-2.93915231795365E-15,0.));
#530=UNCERTAINTY_MEASURE_WITH_UNIT(LENGTH_MEASURE(0.01),#534,
'DISTANCE_ACCURACY_VALUE',
'Maximum model space distance between geometric entities at asserted c
onnectivities');
#531=UNCERTAINTY_MEASURE_WITH_UNIT(LENGTH_MEASURE(0.01),#534,
'DISTANCE_ACCURACY_VALUE',
'Maximum model space distance between geometric entities at asserted c
onnectivities');
#532=(
GEOMETRIC_REPRESENTATION_CONTEXT(3)
GLOBAL_UNCERTAINTY_ASSIGNED_CONTEXT((#530))
GLOBAL_UNIT_ASSIGNED_CONTEXT((#534,#536,#537))
REPRESENTATION_CONTEXT('','3D')
);
#533=(
GEOMETRIC_REPRESENTATION_CONTEXT(3)
GLOBAL_UNCERTAINTY_ASSIGNED_CONTEXT((#531))
GLOBAL_UNIT_ASSIGNED_CONTEXT((#534,#536,#537))
REPRESENTATION_CONTEXT('','3D')
);
#534=(
LENGTH_UNIT()
NAMED_UNIT(*)
SI_UNIT(.MILLI.,.METRE.)
);
#535=(
LENGTH_UNIT()
NAMED_UNIT(*)
SI_UNIT(.CENTI.,.METRE.)
);
#536=(
NAMED_UNIT(*)
PLANE_ANGLE_UNIT()
SI_UNIT($,.RADIAN.)
);
#537=(
NAMED_UNIT(*)
SI_UNIT($,.STERADIAN.)
SOLID_ANGLE_UNIT()
);
#538=SHAPE_DEFINITION_REPRESENTATION(#539,#540);
#539=PRODUCT_DEFINITION_SHAPE('',$,#542);
#540=SHAPE_REPRESENTATION('',(#330),#532);
#541=PRODUCT_DEFINITION_CONTEXT('part definition',#546,'design');
#542=PRODUCT_DEFINITION('spool_spacer_driver','spool_spacer_driver',#543,
#541);
#543=PRODUCT_DEFINITION_FORMATION('',$,#548);
#544=PRODUCT_RELATED_PRODUCT_CATEGORY('spool_spacer_driver',
'spool_spacer_driver',(#548));
#545=APPLICATION_PROTOCOL_DEFINITION('international standard',
'automotive_design',2009,#546);
#546=APPLICATION_CONTEXT(
'Core Data for Automotive Mechanical Design Process');
#547=PRODUCT_CONTEXT('part definition',#546,'mechanical');
#548=PRODUCT('spool_spacer_driver','spool_spacer_driver',$,(#547));
#549=PRESENTATION_STYLE_ASSIGNMENT((#550));
#550=SURFACE_STYLE_USAGE(.BOTH.,#553);
#551=SURFACE_STYLE_RENDERING_WITH_PROPERTIES($,#557,(#552));
#552=SURFACE_STYLE_TRANSPARENT(0.);
#553=SURFACE_SIDE_STYLE('',(#554,#551));
#554=SURFACE_STYLE_FILL_AREA(#555);
#555=FILL_AREA_STYLE('',(#556));
#556=FILL_AREA_STYLE_COLOUR('',#557);
#557=COLOUR_RGB('',0.749019607843137,0.749019607843137,0.749019607843137);
ENDSEC;
END-ISO-10303-21;
