ISO-10303-21;
HEADER;
/* Generated by software containing ST-Developer
 * from STEP Tools, Inc. (www.steptools.com) 
 */

FILE_DESCRIPTION(
/* description */ (''),
/* implementation_level */ '2;1');

FILE_NAME(
/* name */ 'stator_center_00_alu.stp',
/* time_stamp */ '2026-04-27T11:50:25-07:00',
/* author */ ('aaron'),
/* organization */ (''),
/* preprocessor_version */ 'ST-DEVELOPER v20.1',
/* originating_system */ 'Autodesk Inventor 2026',
/* authorisation */ '');

FILE_SCHEMA (('AUTOMOTIVE_DESIGN { 1 0 10303 214 3 1 1 }'));
ENDSEC;

DATA;
#10=MECHANICAL_DESIGN_GEOMETRIC_PRESENTATION_REPRESENTATION('',(#13),#940);
#11=SHAPE_REPRESENTATION_RELATIONSHIP('SRR','None',#947,#12);
#12=ADVANCED_BREP_SHAPE_REPRESENTATION('',(#14),#939);
#13=STYLED_ITEM('',(#956),#14);
#14=MANIFOLD_SOLID_BREP('Solid1',#543);
#15=FACE_BOUND('',#125,.T.);
#16=FACE_BOUND('',#126,.T.);
#17=FACE_BOUND('',#127,.T.);
#18=FACE_BOUND('',#128,.T.);
#19=FACE_BOUND('',#129,.T.);
#20=FACE_BOUND('',#130,.T.);
#21=FACE_BOUND('',#131,.T.);
#22=FACE_BOUND('',#132,.T.);
#23=FACE_BOUND('',#133,.T.);
#24=FACE_BOUND('',#134,.T.);
#25=FACE_BOUND('',#135,.T.);
#26=FACE_BOUND('',#136,.T.);
#27=FACE_BOUND('',#137,.T.);
#28=FACE_BOUND('',#160,.T.);
#29=FACE_BOUND('',#161,.T.);
#30=FACE_BOUND('',#162,.T.);
#31=FACE_BOUND('',#163,.T.);
#32=FACE_BOUND('',#164,.T.);
#33=FACE_BOUND('',#165,.T.);
#34=FACE_BOUND('',#166,.T.);
#35=FACE_BOUND('',#167,.T.);
#36=FACE_BOUND('',#168,.T.);
#37=FACE_BOUND('',#169,.T.);
#38=FACE_BOUND('',#170,.T.);
#39=FACE_BOUND('',#171,.T.);
#40=FACE_BOUND('',#172,.T.);
#41=CIRCLE('',#568,57.55);
#42=CIRCLE('',#569,57.55);
#43=CIRCLE('',#572,20.);
#44=CIRCLE('',#573,19.9999999999999);
#45=CIRCLE('',#574,20.);
#46=CIRCLE('',#575,20.);
#47=CIRCLE('',#576,2.15);
#48=CIRCLE('',#577,2.15);
#49=CIRCLE('',#578,2.65);
#50=CIRCLE('',#579,2.15);
#51=CIRCLE('',#580,2.15);
#52=CIRCLE('',#581,2.65);
#53=CIRCLE('',#582,2.15);
#54=CIRCLE('',#583,2.65);
#55=CIRCLE('',#584,2.15);
#56=CIRCLE('',#585,2.15);
#57=CIRCLE('',#586,2.65);
#58=CIRCLE('',#587,2.15);
#59=CIRCLE('',#588,0.95);
#60=CIRCLE('',#590,0.95);
#61=CIRCLE('',#592,2.15);
#62=CIRCLE('',#594,2.15);
#63=CIRCLE('',#596,2.65);
#64=CIRCLE('',#598,2.15);
#65=CIRCLE('',#600,2.15);
#66=CIRCLE('',#602,2.65);
#67=CIRCLE('',#604,2.15);
#68=CIRCLE('',#606,2.65);
#69=CIRCLE('',#608,2.15);
#70=CIRCLE('',#610,2.15);
#71=CIRCLE('',#612,2.65);
#72=CIRCLE('',#614,2.15);
#73=CIRCLE('',#616,20.);
#74=CIRCLE('',#619,20.);
#75=CIRCLE('',#622,19.9999999999999);
#76=CIRCLE('',#625,20.);
#77=CYLINDRICAL_SURFACE('',#567,57.55);
#78=CYLINDRICAL_SURFACE('',#589,0.95);
#79=CYLINDRICAL_SURFACE('',#591,2.15);
#80=CYLINDRICAL_SURFACE('',#593,2.15);
#81=CYLINDRICAL_SURFACE('',#595,2.65);
#82=CYLINDRICAL_SURFACE('',#597,2.15);
#83=CYLINDRICAL_SURFACE('',#599,2.15);
#84=CYLINDRICAL_SURFACE('',#601,2.65);
#85=CYLINDRICAL_SURFACE('',#603,2.15);
#86=CYLINDRICAL_SURFACE('',#605,2.65);
#87=CYLINDRICAL_SURFACE('',#607,2.15);
#88=CYLINDRICAL_SURFACE('',#609,2.15);
#89=CYLINDRICAL_SURFACE('',#611,2.65);
#90=CYLINDRICAL_SURFACE('',#613,2.15);
#91=CYLINDRICAL_SURFACE('',#615,20.);
#92=CYLINDRICAL_SURFACE('',#618,20.);
#93=CYLINDRICAL_SURFACE('',#621,19.9999999999999);
#94=CYLINDRICAL_SURFACE('',#624,20.);
#95=FACE_OUTER_BOUND('',#121,.T.);
#96=FACE_OUTER_BOUND('',#122,.T.);
#97=FACE_OUTER_BOUND('',#123,.T.);
#98=FACE_OUTER_BOUND('',#124,.T.);
#99=FACE_OUTER_BOUND('',#138,.T.);
#100=FACE_OUTER_BOUND('',#139,.T.);
#101=FACE_OUTER_BOUND('',#140,.T.);
#102=FACE_OUTER_BOUND('',#141,.T.);
#103=FACE_OUTER_BOUND('',#142,.T.);
#104=FACE_OUTER_BOUND('',#143,.T.);
#105=FACE_OUTER_BOUND('',#144,.T.);
#106=FACE_OUTER_BOUND('',#145,.T.);
#107=FACE_OUTER_BOUND('',#146,.T.);
#108=FACE_OUTER_BOUND('',#147,.T.);
#109=FACE_OUTER_BOUND('',#148,.T.);
#110=FACE_OUTER_BOUND('',#149,.T.);
#111=FACE_OUTER_BOUND('',#150,.T.);
#112=FACE_OUTER_BOUND('',#151,.T.);
#113=FACE_OUTER_BOUND('',#152,.T.);
#114=FACE_OUTER_BOUND('',#153,.T.);
#115=FACE_OUTER_BOUND('',#154,.T.);
#116=FACE_OUTER_BOUND('',#155,.T.);
#117=FACE_OUTER_BOUND('',#156,.T.);
#118=FACE_OUTER_BOUND('',#157,.T.);
#119=FACE_OUTER_BOUND('',#158,.T.);
#120=FACE_OUTER_BOUND('',#159,.T.);
#121=EDGE_LOOP('',(#365,#366,#367,#368));
#122=EDGE_LOOP('',(#369,#370,#371,#372));
#123=EDGE_LOOP('',(#373,#374,#375,#376));
#124=EDGE_LOOP('',(#377,#378,#379,#380,#381,#382,#383,#384));
#125=EDGE_LOOP('',(#385));
#126=EDGE_LOOP('',(#386));
#127=EDGE_LOOP('',(#387));
#128=EDGE_LOOP('',(#388));
#129=EDGE_LOOP('',(#389));
#130=EDGE_LOOP('',(#390));
#131=EDGE_LOOP('',(#391));
#132=EDGE_LOOP('',(#392));
#133=EDGE_LOOP('',(#393));
#134=EDGE_LOOP('',(#394));
#135=EDGE_LOOP('',(#395));
#136=EDGE_LOOP('',(#396));
#137=EDGE_LOOP('',(#397,#398,#399,#400));
#138=EDGE_LOOP('',(#401,#402,#403,#404));
#139=EDGE_LOOP('',(#405,#406,#407,#408));
#140=EDGE_LOOP('',(#409,#410,#411,#412));
#141=EDGE_LOOP('',(#413,#414,#415,#416));
#142=EDGE_LOOP('',(#417,#418,#419,#420));
#143=EDGE_LOOP('',(#421,#422,#423,#424));
#144=EDGE_LOOP('',(#425,#426,#427,#428));
#145=EDGE_LOOP('',(#429,#430,#431,#432));
#146=EDGE_LOOP('',(#433,#434,#435,#436));
#147=EDGE_LOOP('',(#437,#438,#439,#440));
#148=EDGE_LOOP('',(#441,#442,#443,#444));
#149=EDGE_LOOP('',(#445,#446,#447,#448));
#150=EDGE_LOOP('',(#449,#450,#451,#452));
#151=EDGE_LOOP('',(#453,#454,#455,#456));
#152=EDGE_LOOP('',(#457,#458,#459,#460));
#153=EDGE_LOOP('',(#461,#462,#463,#464));
#154=EDGE_LOOP('',(#465,#466,#467,#468));
#155=EDGE_LOOP('',(#469,#470,#471,#472));
#156=EDGE_LOOP('',(#473,#474,#475,#476));
#157=EDGE_LOOP('',(#477,#478,#479,#480));
#158=EDGE_LOOP('',(#481,#482,#483,#484));
#159=EDGE_LOOP('',(#485,#486,#487,#488,#489,#490,#491,#492));
#160=EDGE_LOOP('',(#493,#494,#495,#496));
#161=EDGE_LOOP('',(#497));
#162=EDGE_LOOP('',(#498));
#163=EDGE_LOOP('',(#499));
#164=EDGE_LOOP('',(#500));
#165=EDGE_LOOP('',(#501));
#166=EDGE_LOOP('',(#502));
#167=EDGE_LOOP('',(#503));
#168=EDGE_LOOP('',(#504));
#169=EDGE_LOOP('',(#505));
#170=EDGE_LOOP('',(#506));
#171=EDGE_LOOP('',(#507));
#172=EDGE_LOOP('',(#508));
#173=LINE('',#794,#209);
#174=LINE('',#796,#210);
#175=LINE('',#798,#211);
#176=LINE('',#799,#212);
#177=LINE('',#804,#213);
#178=LINE('',#808,#214);
#179=LINE('',#810,#215);
#180=LINE('',#811,#216);
#181=LINE('',#815,#217);
#182=LINE('',#819,#218);
#183=LINE('',#823,#219);
#184=LINE('',#827,#220);
#185=LINE('',#858,#221);
#186=LINE('',#862,#222);
#187=LINE('',#866,#223);
#188=LINE('',#870,#224);
#189=LINE('',#874,#225);
#190=LINE('',#878,#226);
#191=LINE('',#882,#227);
#192=LINE('',#886,#228);
#193=LINE('',#890,#229);
#194=LINE('',#894,#230);
#195=LINE('',#898,#231);
#196=LINE('',#902,#232);
#197=LINE('',#908,#233);
#198=LINE('',#909,#234);
#199=LINE('',#912,#235);
#200=LINE('',#913,#236);
#201=LINE('',#917,#237);
#202=LINE('',#920,#238);
#203=LINE('',#921,#239);
#204=LINE('',#925,#240);
#205=LINE('',#928,#241);
#206=LINE('',#929,#242);
#207=LINE('',#933,#243);
#208=LINE('',#935,#244);
#209=VECTOR('',#632,10.);
#210=VECTOR('',#633,10.);
#211=VECTOR('',#634,10.);
#212=VECTOR('',#635,10.);
#213=VECTOR('',#640,10.);
#214=VECTOR('',#645,10.);
#215=VECTOR('',#646,10.);
#216=VECTOR('',#647,10.);
#217=VECTOR('',#650,10.);
#218=VECTOR('',#653,10.);
#219=VECTOR('',#656,10.);
#220=VECTOR('',#659,10.);
#221=VECTOR('',#694,2.15);
#222=VECTOR('',#699,2.15);
#223=VECTOR('',#704,2.65);
#224=VECTOR('',#709,2.15);
#225=VECTOR('',#714,2.15);
#226=VECTOR('',#719,2.65);
#227=VECTOR('',#724,2.15);
#228=VECTOR('',#729,2.65);
#229=VECTOR('',#734,2.15);
#230=VECTOR('',#739,2.15);
#231=VECTOR('',#744,2.65);
#232=VECTOR('',#749,2.15);
#233=VECTOR('',#756,10.);
#234=VECTOR('',#757,10.);
#235=VECTOR('',#760,10.);
#236=VECTOR('',#761,10.);
#237=VECTOR('',#766,10.);
#238=VECTOR('',#769,10.);
#239=VECTOR('',#770,10.);
#240=VECTOR('',#775,10.);
#241=VECTOR('',#778,10.);
#242=VECTOR('',#779,10.);
#243=VECTOR('',#784,10.);
#244=VECTOR('',#787,10.);
#245=VERTEX_POINT('',#792);
#246=VERTEX_POINT('',#793);
#247=VERTEX_POINT('',#795);
#248=VERTEX_POINT('',#797);
#249=VERTEX_POINT('',#801);
#250=VERTEX_POINT('',#803);
#251=VERTEX_POINT('',#807);
#252=VERTEX_POINT('',#809);
#253=VERTEX_POINT('',#813);
#254=VERTEX_POINT('',#814);
#255=VERTEX_POINT('',#816);
#256=VERTEX_POINT('',#818);
#257=VERTEX_POINT('',#820);
#258=VERTEX_POINT('',#822);
#259=VERTEX_POINT('',#824);
#260=VERTEX_POINT('',#826);
#261=VERTEX_POINT('',#829);
#262=VERTEX_POINT('',#831);
#263=VERTEX_POINT('',#833);
#264=VERTEX_POINT('',#835);
#265=VERTEX_POINT('',#837);
#266=VERTEX_POINT('',#839);
#267=VERTEX_POINT('',#841);
#268=VERTEX_POINT('',#843);
#269=VERTEX_POINT('',#845);
#270=VERTEX_POINT('',#847);
#271=VERTEX_POINT('',#849);
#272=VERTEX_POINT('',#851);
#273=VERTEX_POINT('',#857);
#274=VERTEX_POINT('',#861);
#275=VERTEX_POINT('',#865);
#276=VERTEX_POINT('',#869);
#277=VERTEX_POINT('',#873);
#278=VERTEX_POINT('',#877);
#279=VERTEX_POINT('',#881);
#280=VERTEX_POINT('',#885);
#281=VERTEX_POINT('',#889);
#282=VERTEX_POINT('',#893);
#283=VERTEX_POINT('',#897);
#284=VERTEX_POINT('',#901);
#285=VERTEX_POINT('',#905);
#286=VERTEX_POINT('',#906);
#287=VERTEX_POINT('',#911);
#288=VERTEX_POINT('',#915);
#289=VERTEX_POINT('',#919);
#290=VERTEX_POINT('',#923);
#291=VERTEX_POINT('',#927);
#292=VERTEX_POINT('',#931);
#293=EDGE_CURVE('',#245,#246,#173,.T.);
#294=EDGE_CURVE('',#247,#245,#174,.T.);
#295=EDGE_CURVE('',#248,#247,#175,.T.);
#296=EDGE_CURVE('',#248,#246,#176,.T.);
#297=EDGE_CURVE('',#249,#245,#41,.T.);
#298=EDGE_CURVE('',#250,#249,#177,.T.);
#299=EDGE_CURVE('',#247,#250,#42,.T.);
#300=EDGE_CURVE('',#251,#249,#178,.T.);
#301=EDGE_CURVE('',#251,#252,#179,.T.);
#302=EDGE_CURVE('',#250,#252,#180,.T.);
#303=EDGE_CURVE('',#253,#254,#181,.T.);
#304=EDGE_CURVE('',#254,#255,#43,.T.);
#305=EDGE_CURVE('',#255,#256,#182,.T.);
#306=EDGE_CURVE('',#256,#257,#44,.T.);
#307=EDGE_CURVE('',#257,#258,#183,.T.);
#308=EDGE_CURVE('',#258,#259,#45,.T.);
#309=EDGE_CURVE('',#259,#260,#184,.T.);
#310=EDGE_CURVE('',#260,#253,#46,.T.);
#311=EDGE_CURVE('',#261,#261,#47,.T.);
#312=EDGE_CURVE('',#262,#262,#48,.T.);
#313=EDGE_CURVE('',#263,#263,#49,.T.);
#314=EDGE_CURVE('',#264,#264,#50,.T.);
#315=EDGE_CURVE('',#265,#265,#51,.T.);
#316=EDGE_CURVE('',#266,#266,#52,.T.);
#317=EDGE_CURVE('',#267,#267,#53,.T.);
#318=EDGE_CURVE('',#268,#268,#54,.T.);
#319=EDGE_CURVE('',#269,#269,#55,.T.);
#320=EDGE_CURVE('',#270,#270,#56,.T.);
#321=EDGE_CURVE('',#271,#271,#57,.T.);
#322=EDGE_CURVE('',#272,#272,#58,.T.);
#323=EDGE_CURVE('',#252,#248,#59,.T.);
#324=EDGE_CURVE('',#246,#251,#60,.T.);
#325=EDGE_CURVE('',#261,#273,#185,.T.);
#326=EDGE_CURVE('',#273,#273,#61,.T.);
#327=EDGE_CURVE('',#262,#274,#186,.T.);
#328=EDGE_CURVE('',#274,#274,#62,.T.);
#329=EDGE_CURVE('',#263,#275,#187,.T.);
#330=EDGE_CURVE('',#275,#275,#63,.T.);
#331=EDGE_CURVE('',#264,#276,#188,.T.);
#332=EDGE_CURVE('',#276,#276,#64,.T.);
#333=EDGE_CURVE('',#265,#277,#189,.T.);
#334=EDGE_CURVE('',#277,#277,#65,.T.);
#335=EDGE_CURVE('',#266,#278,#190,.T.);
#336=EDGE_CURVE('',#278,#278,#66,.T.);
#337=EDGE_CURVE('',#267,#279,#191,.T.);
#338=EDGE_CURVE('',#279,#279,#67,.T.);
#339=EDGE_CURVE('',#268,#280,#192,.T.);
#340=EDGE_CURVE('',#280,#280,#68,.T.);
#341=EDGE_CURVE('',#269,#281,#193,.T.);
#342=EDGE_CURVE('',#281,#281,#69,.T.);
#343=EDGE_CURVE('',#270,#282,#194,.T.);
#344=EDGE_CURVE('',#282,#282,#70,.T.);
#345=EDGE_CURVE('',#271,#283,#195,.T.);
#346=EDGE_CURVE('',#283,#283,#71,.T.);
#347=EDGE_CURVE('',#272,#284,#196,.T.);
#348=EDGE_CURVE('',#284,#284,#72,.T.);
#349=EDGE_CURVE('',#285,#286,#73,.T.);
#350=EDGE_CURVE('',#286,#253,#197,.T.);
#351=EDGE_CURVE('',#285,#260,#198,.T.);
#352=EDGE_CURVE('',#287,#285,#199,.T.);
#353=EDGE_CURVE('',#287,#259,#200,.T.);
#354=EDGE_CURVE('',#288,#287,#74,.T.);
#355=EDGE_CURVE('',#288,#258,#201,.T.);
#356=EDGE_CURVE('',#289,#288,#202,.T.);
#357=EDGE_CURVE('',#289,#257,#203,.T.);
#358=EDGE_CURVE('',#290,#289,#75,.T.);
#359=EDGE_CURVE('',#290,#256,#204,.T.);
#360=EDGE_CURVE('',#291,#290,#205,.T.);
#361=EDGE_CURVE('',#291,#255,#206,.T.);
#362=EDGE_CURVE('',#292,#291,#76,.T.);
#363=EDGE_CURVE('',#292,#254,#207,.T.);
#364=EDGE_CURVE('',#286,#292,#208,.T.);
#365=ORIENTED_EDGE('',*,*,#293,.F.);
#366=ORIENTED_EDGE('',*,*,#294,.F.);
#367=ORIENTED_EDGE('',*,*,#295,.F.);
#368=ORIENTED_EDGE('',*,*,#296,.T.);
#369=ORIENTED_EDGE('',*,*,#297,.F.);
#370=ORIENTED_EDGE('',*,*,#298,.F.);
#371=ORIENTED_EDGE('',*,*,#299,.F.);
#372=ORIENTED_EDGE('',*,*,#294,.T.);
#373=ORIENTED_EDGE('',*,*,#300,.F.);
#374=ORIENTED_EDGE('',*,*,#301,.T.);
#375=ORIENTED_EDGE('',*,*,#302,.F.);
#376=ORIENTED_EDGE('',*,*,#298,.T.);
#377=ORIENTED_EDGE('',*,*,#303,.T.);
#378=ORIENTED_EDGE('',*,*,#304,.T.);
#379=ORIENTED_EDGE('',*,*,#305,.T.);
#380=ORIENTED_EDGE('',*,*,#306,.T.);
#381=ORIENTED_EDGE('',*,*,#307,.T.);
#382=ORIENTED_EDGE('',*,*,#308,.T.);
#383=ORIENTED_EDGE('',*,*,#309,.T.);
#384=ORIENTED_EDGE('',*,*,#310,.T.);
#385=ORIENTED_EDGE('',*,*,#311,.T.);
#386=ORIENTED_EDGE('',*,*,#312,.T.);
#387=ORIENTED_EDGE('',*,*,#313,.T.);
#388=ORIENTED_EDGE('',*,*,#314,.T.);
#389=ORIENTED_EDGE('',*,*,#315,.T.);
#390=ORIENTED_EDGE('',*,*,#316,.T.);
#391=ORIENTED_EDGE('',*,*,#317,.T.);
#392=ORIENTED_EDGE('',*,*,#318,.T.);
#393=ORIENTED_EDGE('',*,*,#319,.T.);
#394=ORIENTED_EDGE('',*,*,#320,.T.);
#395=ORIENTED_EDGE('',*,*,#321,.T.);
#396=ORIENTED_EDGE('',*,*,#322,.T.);
#397=ORIENTED_EDGE('',*,*,#295,.T.);
#398=ORIENTED_EDGE('',*,*,#299,.T.);
#399=ORIENTED_EDGE('',*,*,#302,.T.);
#400=ORIENTED_EDGE('',*,*,#323,.T.);
#401=ORIENTED_EDGE('',*,*,#301,.F.);
#402=ORIENTED_EDGE('',*,*,#324,.F.);
#403=ORIENTED_EDGE('',*,*,#296,.F.);
#404=ORIENTED_EDGE('',*,*,#323,.F.);
#405=ORIENTED_EDGE('',*,*,#311,.F.);
#406=ORIENTED_EDGE('',*,*,#325,.T.);
#407=ORIENTED_EDGE('',*,*,#326,.F.);
#408=ORIENTED_EDGE('',*,*,#325,.F.);
#409=ORIENTED_EDGE('',*,*,#312,.F.);
#410=ORIENTED_EDGE('',*,*,#327,.T.);
#411=ORIENTED_EDGE('',*,*,#328,.F.);
#412=ORIENTED_EDGE('',*,*,#327,.F.);
#413=ORIENTED_EDGE('',*,*,#313,.F.);
#414=ORIENTED_EDGE('',*,*,#329,.T.);
#415=ORIENTED_EDGE('',*,*,#330,.F.);
#416=ORIENTED_EDGE('',*,*,#329,.F.);
#417=ORIENTED_EDGE('',*,*,#314,.F.);
#418=ORIENTED_EDGE('',*,*,#331,.T.);
#419=ORIENTED_EDGE('',*,*,#332,.F.);
#420=ORIENTED_EDGE('',*,*,#331,.F.);
#421=ORIENTED_EDGE('',*,*,#315,.F.);
#422=ORIENTED_EDGE('',*,*,#333,.T.);
#423=ORIENTED_EDGE('',*,*,#334,.F.);
#424=ORIENTED_EDGE('',*,*,#333,.F.);
#425=ORIENTED_EDGE('',*,*,#316,.F.);
#426=ORIENTED_EDGE('',*,*,#335,.T.);
#427=ORIENTED_EDGE('',*,*,#336,.F.);
#428=ORIENTED_EDGE('',*,*,#335,.F.);
#429=ORIENTED_EDGE('',*,*,#317,.F.);
#430=ORIENTED_EDGE('',*,*,#337,.T.);
#431=ORIENTED_EDGE('',*,*,#338,.F.);
#432=ORIENTED_EDGE('',*,*,#337,.F.);
#433=ORIENTED_EDGE('',*,*,#318,.F.);
#434=ORIENTED_EDGE('',*,*,#339,.T.);
#435=ORIENTED_EDGE('',*,*,#340,.F.);
#436=ORIENTED_EDGE('',*,*,#339,.F.);
#437=ORIENTED_EDGE('',*,*,#319,.F.);
#438=ORIENTED_EDGE('',*,*,#341,.T.);
#439=ORIENTED_EDGE('',*,*,#342,.F.);
#440=ORIENTED_EDGE('',*,*,#341,.F.);
#441=ORIENTED_EDGE('',*,*,#320,.F.);
#442=ORIENTED_EDGE('',*,*,#343,.T.);
#443=ORIENTED_EDGE('',*,*,#344,.F.);
#444=ORIENTED_EDGE('',*,*,#343,.F.);
#445=ORIENTED_EDGE('',*,*,#321,.F.);
#446=ORIENTED_EDGE('',*,*,#345,.T.);
#447=ORIENTED_EDGE('',*,*,#346,.F.);
#448=ORIENTED_EDGE('',*,*,#345,.F.);
#449=ORIENTED_EDGE('',*,*,#322,.F.);
#450=ORIENTED_EDGE('',*,*,#347,.T.);
#451=ORIENTED_EDGE('',*,*,#348,.F.);
#452=ORIENTED_EDGE('',*,*,#347,.F.);
#453=ORIENTED_EDGE('',*,*,#349,.T.);
#454=ORIENTED_EDGE('',*,*,#350,.T.);
#455=ORIENTED_EDGE('',*,*,#310,.F.);
#456=ORIENTED_EDGE('',*,*,#351,.F.);
#457=ORIENTED_EDGE('',*,*,#352,.T.);
#458=ORIENTED_EDGE('',*,*,#351,.T.);
#459=ORIENTED_EDGE('',*,*,#309,.F.);
#460=ORIENTED_EDGE('',*,*,#353,.F.);
#461=ORIENTED_EDGE('',*,*,#354,.T.);
#462=ORIENTED_EDGE('',*,*,#353,.T.);
#463=ORIENTED_EDGE('',*,*,#308,.F.);
#464=ORIENTED_EDGE('',*,*,#355,.F.);
#465=ORIENTED_EDGE('',*,*,#356,.T.);
#466=ORIENTED_EDGE('',*,*,#355,.T.);
#467=ORIENTED_EDGE('',*,*,#307,.F.);
#468=ORIENTED_EDGE('',*,*,#357,.F.);
#469=ORIENTED_EDGE('',*,*,#358,.T.);
#470=ORIENTED_EDGE('',*,*,#357,.T.);
#471=ORIENTED_EDGE('',*,*,#306,.F.);
#472=ORIENTED_EDGE('',*,*,#359,.F.);
#473=ORIENTED_EDGE('',*,*,#360,.T.);
#474=ORIENTED_EDGE('',*,*,#359,.T.);
#475=ORIENTED_EDGE('',*,*,#305,.F.);
#476=ORIENTED_EDGE('',*,*,#361,.F.);
#477=ORIENTED_EDGE('',*,*,#362,.T.);
#478=ORIENTED_EDGE('',*,*,#361,.T.);
#479=ORIENTED_EDGE('',*,*,#304,.F.);
#480=ORIENTED_EDGE('',*,*,#363,.F.);
#481=ORIENTED_EDGE('',*,*,#364,.T.);
#482=ORIENTED_EDGE('',*,*,#363,.T.);
#483=ORIENTED_EDGE('',*,*,#303,.F.);
#484=ORIENTED_EDGE('',*,*,#350,.F.);
#485=ORIENTED_EDGE('',*,*,#364,.F.);
#486=ORIENTED_EDGE('',*,*,#349,.F.);
#487=ORIENTED_EDGE('',*,*,#352,.F.);
#488=ORIENTED_EDGE('',*,*,#354,.F.);
#489=ORIENTED_EDGE('',*,*,#356,.F.);
#490=ORIENTED_EDGE('',*,*,#358,.F.);
#491=ORIENTED_EDGE('',*,*,#360,.F.);
#492=ORIENTED_EDGE('',*,*,#362,.F.);
#493=ORIENTED_EDGE('',*,*,#293,.T.);
#494=ORIENTED_EDGE('',*,*,#324,.T.);
#495=ORIENTED_EDGE('',*,*,#300,.T.);
#496=ORIENTED_EDGE('',*,*,#297,.T.);
#497=ORIENTED_EDGE('',*,*,#326,.T.);
#498=ORIENTED_EDGE('',*,*,#328,.T.);
#499=ORIENTED_EDGE('',*,*,#330,.T.);
#500=ORIENTED_EDGE('',*,*,#332,.T.);
#501=ORIENTED_EDGE('',*,*,#334,.T.);
#502=ORIENTED_EDGE('',*,*,#336,.T.);
#503=ORIENTED_EDGE('',*,*,#338,.T.);
#504=ORIENTED_EDGE('',*,*,#340,.T.);
#505=ORIENTED_EDGE('',*,*,#342,.T.);
#506=ORIENTED_EDGE('',*,*,#344,.T.);
#507=ORIENTED_EDGE('',*,*,#346,.T.);
#508=ORIENTED_EDGE('',*,*,#348,.T.);
#509=PLANE('',#566);
#510=PLANE('',#570);
#511=PLANE('',#571);
#512=PLANE('',#617);
#513=PLANE('',#620);
#514=PLANE('',#623);
#515=PLANE('',#626);
#516=PLANE('',#627);
#517=ADVANCED_FACE('',(#95),#509,.F.);
#518=ADVANCED_FACE('',(#96),#77,.F.);
#519=ADVANCED_FACE('',(#97),#510,.F.);
#520=ADVANCED_FACE('',(#98,#15,#16,#17,#18,#19,#20,#21,#22,#23,#24,#25,
#26,#27),#511,.T.);
#521=ADVANCED_FACE('',(#99),#78,.T.);
#522=ADVANCED_FACE('',(#100),#79,.F.);
#523=ADVANCED_FACE('',(#101),#80,.F.);
#524=ADVANCED_FACE('',(#102),#81,.F.);
#525=ADVANCED_FACE('',(#103),#82,.F.);
#526=ADVANCED_FACE('',(#104),#83,.F.);
#527=ADVANCED_FACE('',(#105),#84,.F.);
#528=ADVANCED_FACE('',(#106),#85,.F.);
#529=ADVANCED_FACE('',(#107),#86,.F.);
#530=ADVANCED_FACE('',(#108),#87,.F.);
#531=ADVANCED_FACE('',(#109),#88,.F.);
#532=ADVANCED_FACE('',(#110),#89,.F.);
#533=ADVANCED_FACE('',(#111),#90,.F.);
#534=ADVANCED_FACE('',(#112),#91,.T.);
#535=ADVANCED_FACE('',(#113),#512,.T.);
#536=ADVANCED_FACE('',(#114),#92,.T.);
#537=ADVANCED_FACE('',(#115),#513,.T.);
#538=ADVANCED_FACE('',(#116),#93,.T.);
#539=ADVANCED_FACE('',(#117),#514,.T.);
#540=ADVANCED_FACE('',(#118),#94,.T.);
#541=ADVANCED_FACE('',(#119),#515,.T.);
#542=ADVANCED_FACE('',(#120,#28,#29,#30,#31,#32,#33,#34,#35,#36,#37,#38,
#39,#40),#516,.F.);
#543=CLOSED_SHELL('',(#517,#518,#519,#520,#521,#522,#523,#524,#525,#526,
#527,#528,#529,#530,#531,#532,#533,#534,#535,#536,#537,#538,#539,#540,#541,
#542));
#544=DERIVED_UNIT_ELEMENT(#547,1.);
#545=DERIVED_UNIT_ELEMENT(#942,-3.);
#546=DIMENSIONAL_EXPONENTS(0.,1.,0.,0.,0.,0.,0.);
#547=(
CONVERSION_BASED_UNIT('gram',#549)
MASS_UNIT()
NAMED_UNIT(#546)
);
#548=(
MASS_UNIT()
NAMED_UNIT(*)
SI_UNIT(.KILO.,.GRAM.)
);
#549=MASS_MEASURE_WITH_UNIT(MASS_MEASURE(0.001),#548);
#550=DERIVED_UNIT((#544,#545));
#551=MEASURE_REPRESENTATION_ITEM('density measure',
POSITIVE_RATIO_MEASURE(1.),#550);
#552=PROPERTY_DEFINITION_REPRESENTATION(#557,#554);
#553=PROPERTY_DEFINITION_REPRESENTATION(#558,#555);
#554=REPRESENTATION('material name',(#556),#939);
#555=REPRESENTATION('density',(#551),#939);
#556=DESCRIPTIVE_REPRESENTATION_ITEM('Generic','Generic');
#557=PROPERTY_DEFINITION('material property','material name',#949);
#558=PROPERTY_DEFINITION('material property','density of part',#949);
#559=DATE_TIME_ROLE('creation_date');
#560=APPLIED_DATE_AND_TIME_ASSIGNMENT(#561,#559,(#949));
#561=DATE_AND_TIME(#562,#563);
#562=CALENDAR_DATE(2026,12,4);
#563=LOCAL_TIME(0,0,0.,#564);
#564=COORDINATED_UNIVERSAL_TIME_OFFSET(0,0,.BEHIND.);
#565=AXIS2_PLACEMENT_3D('',#790,#628,#629);
#566=AXIS2_PLACEMENT_3D('',#791,#630,#631);
#567=AXIS2_PLACEMENT_3D('',#800,#636,#637);
#568=AXIS2_PLACEMENT_3D('',#802,#638,#639);
#569=AXIS2_PLACEMENT_3D('',#805,#641,#642);
#570=AXIS2_PLACEMENT_3D('',#806,#643,#644);
#571=AXIS2_PLACEMENT_3D('',#812,#648,#649);
#572=AXIS2_PLACEMENT_3D('',#817,#651,#652);
#573=AXIS2_PLACEMENT_3D('',#821,#654,#655);
#574=AXIS2_PLACEMENT_3D('',#825,#657,#658);
#575=AXIS2_PLACEMENT_3D('',#828,#660,#661);
#576=AXIS2_PLACEMENT_3D('',#830,#662,#663);
#577=AXIS2_PLACEMENT_3D('',#832,#664,#665);
#578=AXIS2_PLACEMENT_3D('',#834,#666,#667);
#579=AXIS2_PLACEMENT_3D('',#836,#668,#669);
#580=AXIS2_PLACEMENT_3D('',#838,#670,#671);
#581=AXIS2_PLACEMENT_3D('',#840,#672,#673);
#582=AXIS2_PLACEMENT_3D('',#842,#674,#675);
#583=AXIS2_PLACEMENT_3D('',#844,#676,#677);
#584=AXIS2_PLACEMENT_3D('',#846,#678,#679);
#585=AXIS2_PLACEMENT_3D('',#848,#680,#681);
#586=AXIS2_PLACEMENT_3D('',#850,#682,#683);
#587=AXIS2_PLACEMENT_3D('',#852,#684,#685);
#588=AXIS2_PLACEMENT_3D('',#853,#686,#687);
#589=AXIS2_PLACEMENT_3D('',#854,#688,#689);
#590=AXIS2_PLACEMENT_3D('',#855,#690,#691);
#591=AXIS2_PLACEMENT_3D('',#856,#692,#693);
#592=AXIS2_PLACEMENT_3D('',#859,#695,#696);
#593=AXIS2_PLACEMENT_3D('',#860,#697,#698);
#594=AXIS2_PLACEMENT_3D('',#863,#700,#701);
#595=AXIS2_PLACEMENT_3D('',#864,#702,#703);
#596=AXIS2_PLACEMENT_3D('',#867,#705,#706);
#597=AXIS2_PLACEMENT_3D('',#868,#707,#708);
#598=AXIS2_PLACEMENT_3D('',#871,#710,#711);
#599=AXIS2_PLACEMENT_3D('',#872,#712,#713);
#600=AXIS2_PLACEMENT_3D('',#875,#715,#716);
#601=AXIS2_PLACEMENT_3D('',#876,#717,#718);
#602=AXIS2_PLACEMENT_3D('',#879,#720,#721);
#603=AXIS2_PLACEMENT_3D('',#880,#722,#723);
#604=AXIS2_PLACEMENT_3D('',#883,#725,#726);
#605=AXIS2_PLACEMENT_3D('',#884,#727,#728);
#606=AXIS2_PLACEMENT_3D('',#887,#730,#731);
#607=AXIS2_PLACEMENT_3D('',#888,#732,#733);
#608=AXIS2_PLACEMENT_3D('',#891,#735,#736);
#609=AXIS2_PLACEMENT_3D('',#892,#737,#738);
#610=AXIS2_PLACEMENT_3D('',#895,#740,#741);
#611=AXIS2_PLACEMENT_3D('',#896,#742,#743);
#612=AXIS2_PLACEMENT_3D('',#899,#745,#746);
#613=AXIS2_PLACEMENT_3D('',#900,#747,#748);
#614=AXIS2_PLACEMENT_3D('',#903,#750,#751);
#615=AXIS2_PLACEMENT_3D('',#904,#752,#753);
#616=AXIS2_PLACEMENT_3D('',#907,#754,#755);
#617=AXIS2_PLACEMENT_3D('',#910,#758,#759);
#618=AXIS2_PLACEMENT_3D('',#914,#762,#763);
#619=AXIS2_PLACEMENT_3D('',#916,#764,#765);
#620=AXIS2_PLACEMENT_3D('',#918,#767,#768);
#621=AXIS2_PLACEMENT_3D('',#922,#771,#772);
#622=AXIS2_PLACEMENT_3D('',#924,#773,#774);
#623=AXIS2_PLACEMENT_3D('',#926,#776,#777);
#624=AXIS2_PLACEMENT_3D('',#930,#780,#781);
#625=AXIS2_PLACEMENT_3D('',#932,#782,#783);
#626=AXIS2_PLACEMENT_3D('',#934,#785,#786);
#627=AXIS2_PLACEMENT_3D('',#936,#788,#789);
#628=DIRECTION('axis',(0.,0.,1.));
#629=DIRECTION('refdir',(1.,0.,0.));
#630=DIRECTION('center_axis',(0.440038634746363,-0.897978841582894,0.));
#631=DIRECTION('ref_axis',(-0.897978841582894,-0.440038634746363,0.));
#632=DIRECTION('',(0.897978841582894,0.440038634746363,0.));
#633=DIRECTION('',(0.,0.,-1.));
#634=DIRECTION('',(-0.897978841582894,-0.440038634746363,0.));
#635=DIRECTION('',(0.,0.,-1.));
#636=DIRECTION('center_axis',(0.,0.,-1.));
#637=DIRECTION('ref_axis',(0.921223705588587,0.389033268836527,0.));
#638=DIRECTION('center_axis',(0.,0.,1.));
#639=DIRECTION('ref_axis',(1.,0.,0.));
#640=DIRECTION('',(0.,0.,-1.));
#641=DIRECTION('center_axis',(0.,0.,-1.));
#642=DIRECTION('ref_axis',(1.,0.,0.));
#643=DIRECTION('center_axis',(-0.366452996032162,0.930436565112879,0.));
#644=DIRECTION('ref_axis',(0.930436565112879,0.366452996032162,0.));
#645=DIRECTION('',(-0.930436565112879,-0.366452996032162,0.));
#646=DIRECTION('',(0.,0.,1.));
#647=DIRECTION('',(0.930436565112879,0.366452996032162,0.));
#648=DIRECTION('center_axis',(0.,0.,1.));
#649=DIRECTION('ref_axis',(1.,0.,0.));
#650=DIRECTION('',(2.19303313506204E-16,-1.,0.));
#651=DIRECTION('center_axis',(0.,0.,1.));
#652=DIRECTION('ref_axis',(-1.,4.44089209850063E-16,0.));
#653=DIRECTION('',(1.,2.19303313506204E-16,0.));
#654=DIRECTION('center_axis',(0.,0.,1.));
#655=DIRECTION('ref_axis',(-3.10862446895045E-15,-1.,0.));
#656=DIRECTION('',(-1.09651656753102E-16,1.,0.));
#657=DIRECTION('center_axis',(0.,0.,1.));
#658=DIRECTION('ref_axis',(1.,4.44089209850063E-16,0.));
#659=DIRECTION('',(-1.,1.09651656753102E-16,0.));
#660=DIRECTION('center_axis',(0.,0.,1.));
#661=DIRECTION('ref_axis',(4.44089209850063E-16,1.,0.));
#662=DIRECTION('center_axis',(0.,0.,-1.));
#663=DIRECTION('ref_axis',(1.,0.,0.));
#664=DIRECTION('center_axis',(0.,0.,-1.));
#665=DIRECTION('ref_axis',(1.,0.,0.));
#666=DIRECTION('center_axis',(0.,0.,-1.));
#667=DIRECTION('ref_axis',(1.,0.,0.));
#668=DIRECTION('center_axis',(0.,0.,-1.));
#669=DIRECTION('ref_axis',(1.,0.,0.));
#670=DIRECTION('center_axis',(0.,0.,-1.));
#671=DIRECTION('ref_axis',(1.,0.,0.));
#672=DIRECTION('center_axis',(0.,0.,-1.));
#673=DIRECTION('ref_axis',(1.,0.,0.));
#674=DIRECTION('center_axis',(0.,0.,-1.));
#675=DIRECTION('ref_axis',(1.,0.,0.));
#676=DIRECTION('center_axis',(0.,0.,-1.));
#677=DIRECTION('ref_axis',(1.,0.,0.));
#678=DIRECTION('center_axis',(0.,0.,-1.));
#679=DIRECTION('ref_axis',(1.,0.,0.));
#680=DIRECTION('center_axis',(0.,0.,-1.));
#681=DIRECTION('ref_axis',(1.,0.,0.));
#682=DIRECTION('center_axis',(0.,0.,-1.));
#683=DIRECTION('ref_axis',(1.,0.,0.));
#684=DIRECTION('center_axis',(0.,0.,-1.));
#685=DIRECTION('ref_axis',(1.,0.,0.));
#686=DIRECTION('center_axis',(0.,0.,1.));
#687=DIRECTION('ref_axis',(1.,0.,0.));
#688=DIRECTION('center_axis',(0.,0.,-1.));
#689=DIRECTION('ref_axis',(1.,0.,0.));
#690=DIRECTION('center_axis',(0.,0.,-1.));
#691=DIRECTION('ref_axis',(1.,0.,0.));
#692=DIRECTION('center_axis',(0.,0.,-1.));
#693=DIRECTION('ref_axis',(1.,0.,0.));
#694=DIRECTION('',(0.,0.,-1.));
#695=DIRECTION('center_axis',(0.,0.,1.));
#696=DIRECTION('ref_axis',(1.,0.,0.));
#697=DIRECTION('center_axis',(0.,0.,-1.));
#698=DIRECTION('ref_axis',(1.,0.,0.));
#699=DIRECTION('',(0.,0.,-1.));
#700=DIRECTION('center_axis',(0.,0.,1.));
#701=DIRECTION('ref_axis',(1.,0.,0.));
#702=DIRECTION('center_axis',(0.,0.,-1.));
#703=DIRECTION('ref_axis',(1.,0.,0.));
#704=DIRECTION('',(0.,0.,-1.));
#705=DIRECTION('center_axis',(0.,0.,1.));
#706=DIRECTION('ref_axis',(1.,0.,0.));
#707=DIRECTION('center_axis',(0.,0.,-1.));
#708=DIRECTION('ref_axis',(1.,0.,0.));
#709=DIRECTION('',(0.,0.,-1.));
#710=DIRECTION('center_axis',(0.,0.,1.));
#711=DIRECTION('ref_axis',(1.,0.,0.));
#712=DIRECTION('center_axis',(0.,0.,-1.));
#713=DIRECTION('ref_axis',(1.,0.,0.));
#714=DIRECTION('',(0.,0.,-1.));
#715=DIRECTION('center_axis',(0.,0.,1.));
#716=DIRECTION('ref_axis',(1.,0.,0.));
#717=DIRECTION('center_axis',(0.,0.,-1.));
#718=DIRECTION('ref_axis',(1.,0.,0.));
#719=DIRECTION('',(0.,0.,-1.));
#720=DIRECTION('center_axis',(0.,0.,1.));
#721=DIRECTION('ref_axis',(1.,0.,0.));
#722=DIRECTION('center_axis',(0.,0.,-1.));
#723=DIRECTION('ref_axis',(1.,0.,0.));
#724=DIRECTION('',(0.,0.,-1.));
#725=DIRECTION('center_axis',(0.,0.,1.));
#726=DIRECTION('ref_axis',(1.,0.,0.));
#727=DIRECTION('center_axis',(0.,0.,-1.));
#728=DIRECTION('ref_axis',(1.,0.,0.));
#729=DIRECTION('',(0.,0.,-1.));
#730=DIRECTION('center_axis',(0.,0.,1.));
#731=DIRECTION('ref_axis',(1.,0.,0.));
#732=DIRECTION('center_axis',(0.,0.,-1.));
#733=DIRECTION('ref_axis',(1.,0.,0.));
#734=DIRECTION('',(0.,0.,-1.));
#735=DIRECTION('center_axis',(0.,0.,1.));
#736=DIRECTION('ref_axis',(1.,0.,0.));
#737=DIRECTION('center_axis',(0.,0.,-1.));
#738=DIRECTION('ref_axis',(1.,0.,0.));
#739=DIRECTION('',(0.,0.,-1.));
#740=DIRECTION('center_axis',(0.,0.,1.));
#741=DIRECTION('ref_axis',(1.,0.,0.));
#742=DIRECTION('center_axis',(0.,0.,-1.));
#743=DIRECTION('ref_axis',(1.,0.,0.));
#744=DIRECTION('',(0.,0.,-1.));
#745=DIRECTION('center_axis',(0.,0.,1.));
#746=DIRECTION('ref_axis',(1.,0.,0.));
#747=DIRECTION('center_axis',(0.,0.,-1.));
#748=DIRECTION('ref_axis',(1.,0.,0.));
#749=DIRECTION('',(0.,0.,-1.));
#750=DIRECTION('center_axis',(0.,0.,1.));
#751=DIRECTION('ref_axis',(1.,0.,0.));
#752=DIRECTION('center_axis',(0.,0.,1.));
#753=DIRECTION('ref_axis',(4.44089209850063E-16,1.,0.));
#754=DIRECTION('center_axis',(0.,0.,1.));
#755=DIRECTION('ref_axis',(4.44089209850063E-16,1.,0.));
#756=DIRECTION('',(0.,0.,1.));
#757=DIRECTION('',(0.,0.,1.));
#758=DIRECTION('center_axis',(1.09651656753102E-16,1.,0.));
#759=DIRECTION('ref_axis',(-1.,1.09651656753102E-16,0.));
#760=DIRECTION('',(-1.,1.09651656753102E-16,0.));
#761=DIRECTION('',(0.,0.,1.));
#762=DIRECTION('center_axis',(0.,0.,1.));
#763=DIRECTION('ref_axis',(1.,4.44089209850063E-16,0.));
#764=DIRECTION('center_axis',(0.,0.,1.));
#765=DIRECTION('ref_axis',(1.,4.44089209850063E-16,0.));
#766=DIRECTION('',(0.,0.,1.));
#767=DIRECTION('center_axis',(1.,1.09651656753102E-16,0.));
#768=DIRECTION('ref_axis',(-1.09651656753102E-16,1.,0.));
#769=DIRECTION('',(-1.09651656753102E-16,1.,0.));
#770=DIRECTION('',(0.,0.,1.));
#771=DIRECTION('center_axis',(0.,0.,1.));
#772=DIRECTION('ref_axis',(-3.10862446895045E-15,-1.,0.));
#773=DIRECTION('center_axis',(0.,0.,1.));
#774=DIRECTION('ref_axis',(-3.10862446895045E-15,-1.,0.));
#775=DIRECTION('',(0.,0.,1.));
#776=DIRECTION('center_axis',(2.19303313506204E-16,-1.,0.));
#777=DIRECTION('ref_axis',(1.,2.19303313506204E-16,0.));
#778=DIRECTION('',(1.,2.19303313506204E-16,0.));
#779=DIRECTION('',(0.,0.,1.));
#780=DIRECTION('center_axis',(0.,0.,1.));
#781=DIRECTION('ref_axis',(-1.,4.44089209850063E-16,0.));
#782=DIRECTION('center_axis',(0.,0.,1.));
#783=DIRECTION('ref_axis',(-1.,4.44089209850063E-16,0.));
#784=DIRECTION('',(0.,0.,1.));
#785=DIRECTION('center_axis',(-1.,-2.19303313506204E-16,0.));
#786=DIRECTION('ref_axis',(2.19303313506204E-16,-1.,0.));
#787=DIRECTION('',(2.19303313506204E-16,-1.,0.));
#788=DIRECTION('center_axis',(0.,0.,1.));
#789=DIRECTION('ref_axis',(1.,0.,0.));
#790=CARTESIAN_POINT('',(0.,0.,0.));
#791=CARTESIAN_POINT('Origin',(-53.3329993781924,-21.4904903928628,3.2));
#792=CARTESIAN_POINT('',(-53.3780167882397,-21.5125503777307,0.));
#793=CARTESIAN_POINT('',(-53.3329993781924,-21.4904903928628,0.));
#794=CARTESIAN_POINT('',(-27.5841066580024,-8.87270133800006,0.));
#795=CARTESIAN_POINT('',(-53.3780167882397,-21.5125503777307,3.2));
#796=CARTESIAN_POINT('',(-53.3780167882397,-21.5125503777307,3.2));
#797=CARTESIAN_POINT('',(-53.3329993781924,-21.4904903928628,3.2));
#798=CARTESIAN_POINT('',(-27.5841066580024,-8.87270133800006,3.2));
#799=CARTESIAN_POINT('',(-53.3329993781924,-21.4904903928628,3.2));
#800=CARTESIAN_POINT('Origin',(0.,0.,3.2));
#801=CARTESIAN_POINT('',(-52.6404462955989,-23.2591038907386,0.));
#802=CARTESIAN_POINT('Origin',(0.,0.,0.));
#803=CARTESIAN_POINT('',(-52.6404462955989,-23.2591038907386,3.2));
#804=CARTESIAN_POINT('',(-52.6404462955989,-23.2591038907386,3.2));
#805=CARTESIAN_POINT('Origin',(0.,0.,3.2));
#806=CARTESIAN_POINT('Origin',(-52.6404462955989,-23.2591038907386,3.2));
#807=CARTESIAN_POINT('',(-52.5938855703722,-23.2407659213417,0.));
#808=CARTESIAN_POINT('',(-25.889481200294,-12.7232203351123,0.));
#809=CARTESIAN_POINT('',(-52.5938855703722,-23.2407659213417,3.2));
#810=CARTESIAN_POINT('',(-52.5938855703722,-23.2407659213417,3.2));
#811=CARTESIAN_POINT('',(-25.889481200294,-12.7232203351123,3.2));
#812=CARTESIAN_POINT('Origin',(0.,-4.44089209850063E-15,3.2));
#813=CARTESIAN_POINT('',(-60.5,40.5,3.2));
#814=CARTESIAN_POINT('',(-60.5,-40.5,3.2));
#815=CARTESIAN_POINT('',(-60.5,40.5,3.2));
#816=CARTESIAN_POINT('',(-40.5,-60.5,3.2));
#817=CARTESIAN_POINT('Origin',(-40.5,-40.5,3.2));
#818=CARTESIAN_POINT('',(40.5,-60.5,3.2));
#819=CARTESIAN_POINT('',(-40.5,-60.5,3.2));
#820=CARTESIAN_POINT('',(60.5,-40.5,3.2));
#821=CARTESIAN_POINT('Origin',(40.5000000000001,-40.5,3.2));
#822=CARTESIAN_POINT('',(60.5,40.5,3.2));
#823=CARTESIAN_POINT('',(60.5,-40.5,3.2));
#824=CARTESIAN_POINT('',(40.5,60.5,3.2));
#825=CARTESIAN_POINT('Origin',(40.5,40.5,3.2));
#826=CARTESIAN_POINT('',(-40.5,60.5,3.2));
#827=CARTESIAN_POINT('',(40.5,60.5,3.2));
#828=CARTESIAN_POINT('Origin',(-40.5,40.5,3.2));
#829=CARTESIAN_POINT('',(-55.3948828787775,-37.2824683628277,3.2));
#830=CARTESIAN_POINT('Origin',(-53.2448828787775,-37.2824683628277,3.2));
#831=CARTESIAN_POINT('',(35.1324683628085,53.2448828787913,3.2));
#832=CARTESIAN_POINT('Origin',(37.2824683628085,53.2448828787913,3.2));
#833=CARTESIAN_POINT('',(45.8499999999942,-48.5000000000023,3.2));
#834=CARTESIAN_POINT('Origin',(48.4999999999942,-48.5000000000023,3.2));
#835=CARTESIAN_POINT('',(51.0948828787914,-37.2824683628083,3.2));
#836=CARTESIAN_POINT('Origin',(53.2448828787914,-37.2824683628083,3.2));
#837=CARTESIAN_POINT('',(-39.4324683628275,53.2448828787777,3.2));
#838=CARTESIAN_POINT('Origin',(-37.2824683628275,53.2448828787777,3.2));
#839=CARTESIAN_POINT('',(-51.1500000000157,-48.5000000000023,3.2));
#840=CARTESIAN_POINT('Origin',(-48.5000000000157,-48.5000000000023,3.2));
#841=CARTESIAN_POINT('',(-55.3948828787911,37.2824683628083,3.2));
#842=CARTESIAN_POINT('Origin',(-53.2448828787911,37.2824683628083,3.2));
#843=CARTESIAN_POINT('',(45.8499999999863,48.5000000000038,3.2));
#844=CARTESIAN_POINT('Origin',(48.4999999999863,48.5000000000038,3.2));
#845=CARTESIAN_POINT('',(35.1324683628278,-53.2448828787777,3.2));
#846=CARTESIAN_POINT('Origin',(37.2824683628278,-53.2448828787777,3.2));
#847=CARTESIAN_POINT('',(51.0948828787779,37.2824683628277,3.2));
#848=CARTESIAN_POINT('Origin',(53.2448828787779,37.2824683628277,3.2));
#849=CARTESIAN_POINT('',(-51.1500000000158,48.5000000000015,3.2));
#850=CARTESIAN_POINT('Origin',(-48.5000000000158,48.5000000000015,3.2));
#851=CARTESIAN_POINT('',(-39.4324683628081,-53.2448828787912,3.2));
#852=CARTESIAN_POINT('Origin',(-37.2824683628081,-53.2448828787912,3.2));
#853=CARTESIAN_POINT('Origin',(-52.970672119891,-22.3686811226543,3.2));
#854=CARTESIAN_POINT('Origin',(-52.970672119891,-22.3686811226543,3.2));
#855=CARTESIAN_POINT('Origin',(-52.970672119891,-22.3686811226543,0.));
#856=CARTESIAN_POINT('Origin',(-53.2448828787775,-37.2824683628277,3.2));
#857=CARTESIAN_POINT('',(-55.3948828787775,-37.2824683628277,0.));
#858=CARTESIAN_POINT('',(-55.3948828787775,-37.2824683628277,3.2));
#859=CARTESIAN_POINT('Origin',(-53.2448828787775,-37.2824683628277,0.));
#860=CARTESIAN_POINT('Origin',(37.2824683628085,53.2448828787913,3.2));
#861=CARTESIAN_POINT('',(35.1324683628085,53.2448828787913,0.));
#862=CARTESIAN_POINT('',(35.1324683628085,53.2448828787913,3.2));
#863=CARTESIAN_POINT('Origin',(37.2824683628085,53.2448828787913,0.));
#864=CARTESIAN_POINT('Origin',(48.4999999999942,-48.5000000000023,3.2));
#865=CARTESIAN_POINT('',(45.8499999999942,-48.5000000000023,0.));
#866=CARTESIAN_POINT('',(45.8499999999942,-48.5000000000023,3.2));
#867=CARTESIAN_POINT('Origin',(48.4999999999942,-48.5000000000023,0.));
#868=CARTESIAN_POINT('Origin',(53.2448828787914,-37.2824683628083,3.2));
#869=CARTESIAN_POINT('',(51.0948828787914,-37.2824683628083,0.));
#870=CARTESIAN_POINT('',(51.0948828787914,-37.2824683628083,3.2));
#871=CARTESIAN_POINT('Origin',(53.2448828787914,-37.2824683628083,0.));
#872=CARTESIAN_POINT('Origin',(-37.2824683628275,53.2448828787777,3.2));
#873=CARTESIAN_POINT('',(-39.4324683628275,53.2448828787777,0.));
#874=CARTESIAN_POINT('',(-39.4324683628275,53.2448828787777,3.2));
#875=CARTESIAN_POINT('Origin',(-37.2824683628275,53.2448828787777,0.));
#876=CARTESIAN_POINT('Origin',(-48.5000000000157,-48.5000000000023,3.2));
#877=CARTESIAN_POINT('',(-51.1500000000157,-48.5000000000023,0.));
#878=CARTESIAN_POINT('',(-51.1500000000157,-48.5000000000023,3.2));
#879=CARTESIAN_POINT('Origin',(-48.5000000000157,-48.5000000000023,0.));
#880=CARTESIAN_POINT('Origin',(-53.2448828787911,37.2824683628083,3.2));
#881=CARTESIAN_POINT('',(-55.3948828787911,37.2824683628083,0.));
#882=CARTESIAN_POINT('',(-55.3948828787911,37.2824683628083,3.2));
#883=CARTESIAN_POINT('Origin',(-53.2448828787911,37.2824683628083,0.));
#884=CARTESIAN_POINT('Origin',(48.4999999999863,48.5000000000038,3.2));
#885=CARTESIAN_POINT('',(45.8499999999863,48.5000000000038,0.));
#886=CARTESIAN_POINT('',(45.8499999999863,48.5000000000038,3.2));
#887=CARTESIAN_POINT('Origin',(48.4999999999863,48.5000000000038,0.));
#888=CARTESIAN_POINT('Origin',(37.2824683628278,-53.2448828787777,3.2));
#889=CARTESIAN_POINT('',(35.1324683628278,-53.2448828787777,0.));
#890=CARTESIAN_POINT('',(35.1324683628278,-53.2448828787777,3.2));
#891=CARTESIAN_POINT('Origin',(37.2824683628278,-53.2448828787777,0.));
#892=CARTESIAN_POINT('Origin',(53.2448828787779,37.2824683628277,3.2));
#893=CARTESIAN_POINT('',(51.0948828787779,37.2824683628277,0.));
#894=CARTESIAN_POINT('',(51.0948828787779,37.2824683628277,3.2));
#895=CARTESIAN_POINT('Origin',(53.2448828787779,37.2824683628277,0.));
#896=CARTESIAN_POINT('Origin',(-48.5000000000158,48.5000000000015,3.2));
#897=CARTESIAN_POINT('',(-51.1500000000158,48.5000000000015,0.));
#898=CARTESIAN_POINT('',(-51.1500000000158,48.5000000000015,3.2));
#899=CARTESIAN_POINT('Origin',(-48.5000000000158,48.5000000000015,0.));
#900=CARTESIAN_POINT('Origin',(-37.2824683628081,-53.2448828787912,3.2));
#901=CARTESIAN_POINT('',(-39.4324683628081,-53.2448828787912,0.));
#902=CARTESIAN_POINT('',(-39.4324683628081,-53.2448828787912,3.2));
#903=CARTESIAN_POINT('Origin',(-37.2824683628081,-53.2448828787912,0.));
#904=CARTESIAN_POINT('Origin',(-40.5,40.5,0.));
#905=CARTESIAN_POINT('',(-40.5,60.5,0.));
#906=CARTESIAN_POINT('',(-60.5,40.5,0.));
#907=CARTESIAN_POINT('Origin',(-40.5,40.5,0.));
#908=CARTESIAN_POINT('',(-60.5,40.5,0.));
#909=CARTESIAN_POINT('',(-40.5,60.5,0.));
#910=CARTESIAN_POINT('Origin',(40.5,60.5,0.));
#911=CARTESIAN_POINT('',(40.5,60.5,0.));
#912=CARTESIAN_POINT('',(40.5,60.5,0.));
#913=CARTESIAN_POINT('',(40.5,60.5,0.));
#914=CARTESIAN_POINT('Origin',(40.5,40.5,0.));
#915=CARTESIAN_POINT('',(60.5,40.5,0.));
#916=CARTESIAN_POINT('Origin',(40.5,40.5,0.));
#917=CARTESIAN_POINT('',(60.5,40.5,0.));
#918=CARTESIAN_POINT('Origin',(60.5,-40.5,0.));
#919=CARTESIAN_POINT('',(60.5,-40.5,0.));
#920=CARTESIAN_POINT('',(60.5,-40.5,0.));
#921=CARTESIAN_POINT('',(60.5,-40.5,0.));
#922=CARTESIAN_POINT('Origin',(40.5000000000001,-40.5,0.));
#923=CARTESIAN_POINT('',(40.5,-60.5,0.));
#924=CARTESIAN_POINT('Origin',(40.5000000000001,-40.5,0.));
#925=CARTESIAN_POINT('',(40.5,-60.5,0.));
#926=CARTESIAN_POINT('Origin',(-40.5,-60.5,0.));
#927=CARTESIAN_POINT('',(-40.5,-60.5,0.));
#928=CARTESIAN_POINT('',(-40.5,-60.5,0.));
#929=CARTESIAN_POINT('',(-40.5,-60.5,0.));
#930=CARTESIAN_POINT('Origin',(-40.5,-40.5,0.));
#931=CARTESIAN_POINT('',(-60.5,-40.5,0.));
#932=CARTESIAN_POINT('Origin',(-40.5,-40.5,0.));
#933=CARTESIAN_POINT('',(-60.5,-40.5,0.));
#934=CARTESIAN_POINT('Origin',(-60.5,40.5,0.));
#935=CARTESIAN_POINT('',(-60.5,40.5,0.));
#936=CARTESIAN_POINT('Origin',(0.,-4.44089209850063E-15,0.));
#937=UNCERTAINTY_MEASURE_WITH_UNIT(LENGTH_MEASURE(0.01),#941,
'DISTANCE_ACCURACY_VALUE',
'Maximum model space distance between geometric entities at asserted c
onnectivities');
#938=UNCERTAINTY_MEASURE_WITH_UNIT(LENGTH_MEASURE(0.01),#941,
'DISTANCE_ACCURACY_VALUE',
'Maximum model space distance between geometric entities at asserted c
onnectivities');
#939=(
GEOMETRIC_REPRESENTATION_CONTEXT(3)
GLOBAL_UNCERTAINTY_ASSIGNED_CONTEXT((#937))
GLOBAL_UNIT_ASSIGNED_CONTEXT((#941,#943,#944))
REPRESENTATION_CONTEXT('','3D')
);
#940=(
GEOMETRIC_REPRESENTATION_CONTEXT(3)
GLOBAL_UNCERTAINTY_ASSIGNED_CONTEXT((#938))
GLOBAL_UNIT_ASSIGNED_CONTEXT((#941,#943,#944))
REPRESENTATION_CONTEXT('','3D')
);
#941=(
LENGTH_UNIT()
NAMED_UNIT(*)
SI_UNIT(.MILLI.,.METRE.)
);
#942=(
LENGTH_UNIT()
NAMED_UNIT(*)
SI_UNIT(.CENTI.,.METRE.)
);
#943=(
NAMED_UNIT(*)
PLANE_ANGLE_UNIT()
SI_UNIT($,.RADIAN.)
);
#944=(
NAMED_UNIT(*)
SI_UNIT($,.STERADIAN.)
SOLID_ANGLE_UNIT()
);
#945=SHAPE_DEFINITION_REPRESENTATION(#946,#947);
#946=PRODUCT_DEFINITION_SHAPE('',$,#949);
#947=SHAPE_REPRESENTATION('',(#565),#939);
#948=PRODUCT_DEFINITION_CONTEXT('part definition',#953,'design');
#949=PRODUCT_DEFINITION('stator_center_00_alu','stator_center_00_alu',#950,
#948);
#950=PRODUCT_DEFINITION_FORMATION('',$,#955);
#951=PRODUCT_RELATED_PRODUCT_CATEGORY('stator_center_00_alu',
'stator_center_00_alu',(#955));
#952=APPLICATION_PROTOCOL_DEFINITION('international standard',
'automotive_design',2009,#953);
#953=APPLICATION_CONTEXT(
'Core Data for Automotive Mechanical Design Process');
#954=PRODUCT_CONTEXT('part definition',#953,'mechanical');
#955=PRODUCT('stator_center_00_alu','stator_center_00_alu',$,(#954));
#956=PRESENTATION_STYLE_ASSIGNMENT((#957));
#957=SURFACE_STYLE_USAGE(.BOTH.,#960);
#958=SURFACE_STYLE_RENDERING_WITH_PROPERTIES($,#964,(#959));
#959=SURFACE_STYLE_TRANSPARENT(0.);
#960=SURFACE_SIDE_STYLE('',(#961,#958));
#961=SURFACE_STYLE_FILL_AREA(#962);
#962=FILL_AREA_STYLE('',(#963));
#963=FILL_AREA_STYLE_COLOUR('',#964);
#964=COLOUR_RGB('',0.749019607843137,0.749019607843137,0.749019607843137);
ENDSEC;
END-ISO-10303-21;
